<svg viewBox="0 0 750 500" fill="none" xmlns="http://www.w3.org/2000/svg">
<path d="M686.46 178.67C687.685 180.026 688.625 181.614 689.223 183.341C689.821 185.068 690.065 186.897 689.94 188.72C689.667 192.369 688.559 195.907 686.7 199.06C683.3 205.24 676.94 210.26 670.84 213.81C667.34 206.81 669.5 197.98 670.84 193.58C673.01 186.58 681.17 175.35 686.42 178.67" fill="#EBEBEB"/>
<path d="M672.79 227.11C673.179 225.105 674.092 223.238 675.436 221.7C676.779 220.161 678.506 219.006 680.44 218.35C682.381 217.723 684.428 217.489 686.461 217.66C688.493 217.832 690.471 218.406 692.28 219.35C693.96 220.19 695.62 221.47 696.03 223.35C696.162 224.222 696.062 225.112 695.739 225.933C695.415 226.753 694.881 227.473 694.19 228.02C692.789 229.102 691.125 229.792 689.37 230.02C683.37 231.02 677.48 230.94 672.79 227.14" fill="#EBEBEB"/>
<path d="M657.63 244.1C657.84 243.663 658.088 243.245 658.37 242.85L660.51 239.53C662.35 236.77 664.89 232.78 668.95 229.53C672.35 226.713 676.441 224.856 680.8 224.15C682.124 223.956 683.467 223.922 684.8 224.05C685.159 224.079 685.517 224.129 685.87 224.2C686.12 224.2 686.24 224.27 686.24 224.29C684.45 224.182 682.655 224.256 680.88 224.51C676.604 225.326 672.606 227.215 669.26 230C665.26 233.15 662.72 237.06 660.81 239.77C659.86 241.14 659.09 242.25 658.53 243C658.267 243.395 657.965 243.764 657.63 244.1Z" fill="#E0E0E0"/>
<path d="M681 187.8C680.957 188.008 680.896 188.212 680.82 188.41L680.24 190.12C679.72 191.61 678.94 193.74 677.96 196.37C675.96 201.63 673.17 208.86 669.88 216.77C666.59 224.68 663.45 231.77 661.1 236.89C659.93 239.44 658.96 241.49 658.28 242.89C657.95 243.55 657.68 244.09 657.48 244.51C657.394 244.703 657.29 244.887 657.17 245.06C657.217 244.856 657.288 244.658 657.38 244.47C657.57 244.04 657.8 243.47 658.1 242.8L660.77 236.72C663.03 231.58 666.12 224.47 669.41 216.56C672.7 208.65 675.57 201.45 677.62 196.22L680.05 190.03C680.33 189.35 680.55 188.79 680.73 188.36C680.799 188.164 680.889 187.976 681 187.8Z" fill="#E0E0E0"/>
<path d="M661.73 227.18C662.689 222.98 662.632 218.611 661.564 214.437C660.496 210.263 658.448 206.404 655.59 203.18C654.13 201.55 651.98 200.01 649.92 200.75C647.86 201.49 647.2 204.06 647.16 206.25C647.155 210.821 648.503 215.291 651.033 219.097C653.564 222.903 657.164 225.876 661.38 227.64" fill="#EBEBEB"/>
<path d="M654 209.71C654.354 210.006 654.673 210.342 654.95 210.71C655.312 211.096 655.646 211.507 655.95 211.94C656.32 212.45 656.78 212.99 657.19 213.67C657.665 214.387 658.103 215.128 658.5 215.89C658.975 216.755 659.399 217.646 659.77 218.56C660.624 220.664 661.234 222.858 661.59 225.1C661.911 227.346 661.972 229.621 661.77 231.88C661.679 232.865 661.529 233.843 661.32 234.81C661.155 235.656 660.938 236.491 660.67 237.31C660.47 237.989 660.233 238.657 659.96 239.31C659.774 239.811 659.554 240.299 659.3 240.77C659.124 241.191 658.906 241.593 658.65 241.97C658.54 241.97 659.47 240.2 660.33 237.2C660.565 236.388 660.755 235.563 660.9 234.73C661.086 233.775 661.219 232.81 661.3 231.84C661.476 229.616 661.405 227.379 661.09 225.17C660.734 222.971 660.148 220.816 659.34 218.74C658.94 217.79 658.57 216.89 658.13 216.08C657.752 215.319 657.335 214.578 656.88 213.86C655.2 211.2 653.86 209.78 654 209.71Z" fill="#E0E0E0"/>
<path d="M65.0598 116.34C65.0598 116.34 55.8599 119.34 64.7799 139.04C73.6999 158.74 80.0699 168.62 80.0699 168.62C80.0699 168.62 81.5999 173.17 77.7999 173.69C73.9999 174.21 65.7999 172.5 63.8799 177.03C61.8799 181.72 65.1799 186.39 72.0299 190.68C78.8799 194.97 93.5499 204.9 94.8699 205.8C96.1899 206.7 97.4099 208.8 94.8699 209.6C92.3299 210.4 73.5999 211.44 74.6399 220.3C75.6799 229.16 96.7399 238 98.9999 239C101.26 240 101.79 241 101.54 242.28C101.29 243.56 94.9599 243.28 89.6399 243.84C84.3199 244.4 78.2498 245.9 79.2799 250.96C80.3099 256.02 92.4999 267.13 123.16 271.59L137.5 272.73L145.88 260.96C162.3 234.69 161.7 218.21 158.51 214.15C155.32 210.09 150.21 213.73 146.38 217.45C142.55 221.17 138.62 226.15 137.5 225.52C136.38 224.89 135.93 223.85 136.63 221.46C137.33 219.07 144.24 197.32 138.15 190.8C132.06 184.28 119.15 197.88 116.91 199.32C114.67 200.76 113.86 198.42 114.02 196.85C114.18 195.28 116.08 177.65 117.24 169.65C118.4 161.65 116.95 156.15 112.1 154.65C107.42 153.17 103.4 160.55 100.55 163.11C97.6999 165.67 95.2199 161.56 95.2199 161.56C95.2199 161.56 91.8098 150.34 82.5299 130.78C73.2499 111.22 64.8599 116.49 64.8599 116.49" fill="#EBEBEB"/>
<path d="M138.1 276.12C131.34 261.72 119.76 235.94 109.7 213.86C99.64 191.78 90.52 171.8 83.83 157.38L75.9 140.3L73.75 135.66L73.2 134.44C73.1245 134.298 73.0577 134.151 73 134C73 134 73.08 134.13 73.22 134.4L73.81 135.6C74.32 136.67 75.07 138.22 76.04 140.21C77.97 144.21 80.72 150.02 84.1 157.21C90.86 171.6 100.03 191.56 110.1 213.64C120.17 235.72 131.7 261.56 138.39 276" fill="#E0E0E0"/>
<path d="M75.2998 179.88C75.6429 179.958 75.9777 180.068 76.2998 180.21C76.9198 180.44 77.8198 180.81 78.9198 181.27C81.1198 182.2 84.1298 183.56 87.4298 185.12L95.8498 189.12L98.4098 190.32C98.7312 190.45 99.0393 190.611 99.3298 190.8C98.9844 190.736 98.6484 190.628 98.3298 190.48C97.6998 190.25 96.8098 189.88 95.7098 189.41C93.5098 188.41 90.5198 187.06 87.2298 185.5L78.7798 181.5L76.2198 180.31C75.8979 180.202 75.5893 180.058 75.2998 179.88Z" fill="#E0E0E0"/>
<path d="M100.339 190C100.229 190 102.759 183.62 105.989 175.87C109.219 168.12 111.989 161.87 112.049 161.87C112.109 161.87 109.639 168.25 106.399 176.01C103.159 183.77 100.459 190 100.339 190Z" fill="#E0E0E0"/>
<path d="M114.26 224.55C114.439 224.245 114.65 223.96 114.89 223.7C115.37 223.09 115.98 222.34 116.7 221.45C118.22 219.55 120.32 216.91 122.53 213.92C124.74 210.93 126.65 208.17 128.02 206.15L129.64 203.76C129.823 203.458 130.034 203.173 130.27 202.91C130.15 203.244 129.985 203.56 129.78 203.85C129.44 204.45 128.93 205.29 128.28 206.32C126.98 208.39 125.11 211.2 122.88 214.19C120.65 217.18 118.53 219.8 116.94 221.65C116.14 222.57 115.49 223.31 115.02 223.81C114.798 224.087 114.542 224.335 114.26 224.55Z" fill="#E0E0E0"/>
<path d="M89.5996 220.44C89.9341 220.418 90.2701 220.438 90.5996 220.5L93.2496 220.83C95.4796 221.14 98.5596 221.59 101.96 222.11C105.36 222.63 108.43 223.11 110.65 223.51L113.28 223.99C113.604 224.028 113.924 224.105 114.23 224.22C113.895 224.242 113.559 224.222 113.23 224.16L110.59 223.83C108.35 223.52 105.27 223.07 101.87 222.55C98.4696 222.03 95.3996 221.55 93.1796 221.15L90.5596 220.67C90.2321 220.629 89.9101 220.552 89.5996 220.44Z" fill="#E0E0E0"/>
<path d="M98 252.55C98.4186 252.539 98.8372 252.57 99.25 252.64L102.65 253.06C105.51 253.43 109.46 253.97 113.82 254.6C118.18 255.23 122.13 255.82 124.98 256.28L128.36 256.83C128.777 256.887 129.188 256.977 129.59 257.1C129.168 257.111 128.746 257.08 128.33 257.01L124.94 256.59C122.08 256.22 118.12 255.67 113.76 255.04C109.4 254.41 105.45 253.82 102.6 253.37L99.23 252.81C98.8128 252.762 98.401 252.675 98 252.55Z" fill="#E0E0E0"/>
<path d="M128.87 256.78C129.093 256.388 129.351 256.017 129.64 255.67C130.2 254.91 130.94 253.93 131.83 252.74C133.68 250.26 136.22 246.83 138.92 242.96C141.62 239.09 143.98 235.53 145.66 232.96L147.66 229.89C147.887 229.503 148.144 229.135 148.43 228.79C148.255 229.204 148.045 229.603 147.8 229.98C147.37 230.73 146.73 231.81 145.92 233.12C144.3 235.76 141.98 239.36 139.27 243.23C136.56 247.1 133.99 250.52 132.07 252.95C131.07 254.16 130.32 255.14 129.76 255.8C129.496 256.155 129.198 256.483 128.87 256.78Z" fill="#E0E0E0"/>
<path d="M362.47 234.65C336.85 221.76 327.21 192.34 324.21 165.08C323.71 160.53 322.52 155.83 324.1 151.55C325.68 147.27 330.31 143.82 334.64 145.15C338.23 146.24 340.26 149.94 342.64 152.9C345.776 156.855 349.968 159.84 354.73 161.51C357.83 162.59 361.53 162.99 364.15 161.01C367.74 158.29 367.42 152.83 366.74 148.33C365.473 139.937 364.207 131.55 362.94 123.17C362.26 118.67 361.59 114.08 362.37 109.6C363.15 105.12 365.67 100.71 369.78 98.89C373.89 97.07 379.55 98.77 381.09 103.05C381.73 104.83 381.63 106.79 382.03 108.64C382.43 110.49 383.59 112.43 385.44 112.7C387.29 112.97 388.94 111.43 390.09 109.91C394.09 104.7 396.39 98.38 398.5 92.13C400.61 85.88 402.6 79.5 406.1 73.93C409.6 68.36 414.87 63.59 421.26 62.29C427.65 60.99 435.11 63.98 437.65 70.08C440.19 76.18 437.43 83.17 434.14 88.89C429.283 97.3859 423.22 105.133 416.14 111.89C414.86 113.1 413.48 114.41 413.14 116.16C412.6 119.3 415.87 121.87 418.98 122.43C422.5 123.06 426.09 122.19 429.66 122.09C433.23 121.99 437.26 123 439.07 126.09C441.58 130.43 438.43 135.81 435.07 139.52C428.401 146.946 420.502 153.167 411.72 157.91C408.58 159.6 405.25 161.17 402.91 163.91C400.57 166.65 399.55 170.91 401.62 173.84C403.69 176.77 407.98 177.2 411.36 176.05C414.74 174.9 417.57 172.57 420.7 170.85C426.55 167.62 434.6 166.85 439.34 171.66C442.45 174.8 443.39 179.66 442.68 184.05C441.97 188.44 439.82 192.42 437.46 196.16C429.22 209.23 417.88 220.44 404.24 227.49C390.6 234.54 377.5 237.81 362.48 234.66" fill="#F5F5F5"/>
<path d="M367 216.63C369.372 201.203 372.624 185.925 376.74 170.87L379.92 159C380.97 155.11 382.01 151.25 383.26 147.54C385.674 140.416 388.481 133.432 391.67 126.62C394.67 120.1 397.74 114.02 400.67 108.35C403.6 102.68 406.45 97.46 409.23 92.81C413.591 85.4502 418.53 78.4482 424 71.87C425.93 69.54 427.49 67.78 428.56 66.61L429.78 65.28C429.913 65.1204 430.06 64.9732 430.22 64.84C430.115 65.0166 429.991 65.1809 429.85 65.33L428.68 66.72C427.68 67.93 426.14 69.72 424.25 72.08C418.893 78.7084 414.04 85.728 409.73 93.08C406.98 97.74 404.18 102.97 401.28 108.64C398.38 114.31 395.33 120.4 392.36 126.91C389.193 133.719 386.402 140.696 384 147.81C382.76 151.51 381.73 155.33 380.68 159.23C379.63 163.13 378.59 167.09 377.52 171.09C373.406 186.115 370.138 201.359 367.73 216.75" fill="#E0E0E0"/>
<path d="M383.49 147.48C383.183 146.888 382.941 146.264 382.77 145.62C382.36 144.41 381.77 142.62 381.17 140.45C379.89 136.05 378.32 129.93 376.62 123.17C374.92 116.41 373.26 110.32 371.92 105.96C371.25 103.78 370.69 102.02 370.29 100.81C370.043 100.191 369.862 99.5473 369.75 98.89C370.098 99.4557 370.38 100.06 370.59 100.69C371.09 101.87 371.73 103.61 372.48 105.78C373.97 110.1 375.72 116.19 377.43 122.96L381.74 140.29C382.267 142.37 382.717 144.117 383.09 145.53C383.297 146.163 383.432 146.817 383.49 147.48Z" fill="#E0E0E0"/>
<path d="M439.82 128.29C439.084 128.564 438.324 128.768 437.55 128.9C436.09 129.25 433.96 129.74 431.36 130.43C426.14 131.77 418.99 133.87 411.21 136.53C403.43 139.19 396.49 141.94 391.53 144.05C389.04 145.05 387.05 145.99 385.67 146.6C384.973 146.962 384.243 147.257 383.49 147.48C384.119 147.025 384.788 146.63 385.49 146.3C386.83 145.6 388.79 144.62 391.25 143.5C396.17 141.24 403.1 138.42 410.9 135.73C417.554 133.422 424.324 131.46 431.18 129.85C433.81 129.23 435.96 128.85 437.45 128.58C438.229 128.407 439.023 128.31 439.82 128.29Z" fill="#E0E0E0"/>
<path d="M367.569 215.46C367.375 215.27 367.206 215.055 367.069 214.82C366.719 214.29 366.299 213.64 365.779 212.82C364.659 211.12 363.109 208.62 361.239 205.51C357.489 199.28 352.579 190.51 347.289 180.76C341.999 171.01 337.169 162.25 333.549 156L329.249 148.56L328.089 146.56C327.938 146.33 327.817 146.081 327.729 145.82C327.926 146.012 328.095 146.231 328.229 146.47L329.519 148.47C330.639 150.17 332.189 152.67 334.059 155.79C337.809 162.02 342.729 170.79 348.059 180.54C353.389 190.29 358.169 199.08 361.789 205.38L366.089 212.83C366.559 213.64 366.939 214.32 367.249 214.83C367.38 215.027 367.487 215.238 367.569 215.46Z" fill="#E0E0E0"/>
<path d="M440.92 179.55C440.699 179.72 440.457 179.861 440.2 179.97L438.08 181L430.23 184.86C423.6 188.13 414.49 192.74 404.44 197.86C394.39 202.98 385.22 207.5 378.52 210.63C375.17 212.19 372.45 213.43 370.52 214.25L368.33 215.17C368.082 215.3 367.816 215.392 367.54 215.44C367.763 215.273 368.005 215.132 368.26 215.02L370.38 213.95L378.24 210.09C384.87 206.83 393.97 202.22 404.03 197.09C414.09 191.96 423.24 187.45 429.94 184.32C433.29 182.76 436.01 181.52 437.94 180.7L440.13 179.78C440.38 179.663 440.647 179.586 440.92 179.55Z" fill="#E0E0E0"/>
<path d="M568.22 111.65C568.22 95.33 551.08 85 533.6 93.17C529.65 95.0226 526.417 98.1214 524.4 101.99C520.01 110.51 521.95 120.23 525.94 128.31L539.54 162.78C539.968 163.88 540.719 164.824 541.693 165.49C542.667 166.156 543.82 166.512 545 166.512C546.18 166.512 547.333 166.156 548.307 165.49C549.281 164.824 550.032 163.88 550.46 162.78L563.8 128.12C568.41 117.53 568.22 111.65 568.22 111.65ZM551.8 125.85C540.05 132.68 528.14 120.05 534.58 107.59C535.42 105.928 536.718 104.54 538.32 103.59C550.07 96.76 561.97 109.39 555.53 121.85C554.693 123.512 553.399 124.899 551.8 125.85Z" fill="#F5F5F5"/>
<path d="M710 444.08C710 444.23 560 444.34 375.06 444.34C190.12 444.34 40.0596 444.23 40.0596 444.08C40.0596 443.93 190 443.82 375.06 443.82C560.12 443.82 710 443.94 710 444.08Z" fill="#263238"/>
<path d="M324.16 444.08L191.24 443.47C183.566 443.422 176.224 440.335 170.822 434.884C165.42 429.434 162.399 422.064 162.42 414.39L163.83 81.16C163.875 73.4826 166.963 66.1363 172.416 60.7319C177.869 55.3275 185.243 52.306 192.92 52.33L325.84 52.94C333.51 52.9876 340.85 56.0722 346.251 61.5186C351.652 66.9649 354.676 74.3294 354.66 82L353.25 415.23C353.21 422.911 350.125 430.262 344.671 435.671C339.218 441.08 331.841 444.104 324.16 444.08Z" fill="#455A64"/>
<path d="M325.65 64.44L299.88 64.32C298.184 64.3516 296.569 65.0546 295.39 66.2749C294.211 67.4952 293.563 69.1333 293.59 70.83V75.51C293.603 76.35 293.451 77.1844 293.141 77.9654C292.832 78.7463 292.371 79.4586 291.786 80.0614C291.201 80.6642 290.503 81.1457 289.731 81.4784C288.96 81.811 288.13 81.9883 287.29 82L237.05 81.77C235.354 81.7203 233.747 81.0013 232.58 79.7702C231.412 78.5392 230.78 76.8961 230.82 75.2V70.52C230.85 68.8351 230.215 67.2063 229.053 65.9861C227.891 64.7658 226.295 64.0523 224.61 64H215.55L193 63.83C187.623 63.8034 182.456 65.9132 178.634 69.6956C174.813 73.4779 172.649 78.6231 172.62 84L171.25 409.26C171.226 414.637 173.339 419.803 177.123 423.623C180.907 427.443 186.053 429.604 191.43 429.63L324.09 430.24C326.753 430.252 329.393 429.739 331.858 428.731C334.323 427.723 336.565 426.239 338.457 424.364C340.348 422.489 341.852 420.26 342.882 417.804C343.912 415.348 344.448 412.713 344.46 410.05L345.83 84.8C345.842 82.1381 345.329 79.4999 344.322 77.0361C343.314 74.5723 341.831 72.3311 339.957 70.4405C338.083 68.5499 335.855 67.0469 333.4 66.0174C330.946 64.9878 328.312 64.4518 325.65 64.44Z" fill="#FAFAFA"/>
<path d="M172.46 123.05H194.2L213.6 142.46L193.43 162.63L172.69 141.88L172.46 123.05Z" fill="#EBEBEB"/>
<path d="M218.03 133.94L207.13 123.05H231.65L218.03 133.94Z" fill="#EBEBEB"/>
<path d="M227.56 142.84L246.65 123.75H313.35C313.35 123.75 323.56 169.35 283.35 198.63L227.56 142.84Z" fill="#EBEBEB"/>
<path d="M219.39 148.92L198.97 169.35L255.48 225.86L275.9 204.75L219.39 148.92Z" fill="#EBEBEB"/>
<path d="M172.21 180.93L185.01 167.65L172.46 155.1L172.21 180.93Z" fill="#EBEBEB"/>
<path d="M192.67 175.48L173.01 195.14V222.46L213.6 263.99L247.99 231.99L192.67 175.48Z" fill="#EBEBEB"/>
<path d="M291 204.36C291 204.36 333.12 173.48 319.5 123.75H345.69L345.37 264.11L291 204.36Z" fill="#EBEBEB"/>
<path d="M283.08 212.46L262.72 233.72L325.16 296.17L344.26 275.93L283.08 212.46Z" fill="#EBEBEB"/>
<path d="M254.21 239.54L222.2 271.32L286.22 334.89L318.17 304L254.21 239.54Z" fill="#EBEBEB"/>
<path d="M237.43 398.77L286.37 348.05L332.92 395.5L237.43 398.77Z" fill="#EBEBEB"/>
<path d="M294 341.5L345 291C345 293.24 344.56 395.71 344.56 395.71L294 341.5Z" fill="#EBEBEB"/>
<path d="M250.37 313.14L279.28 342.05L222.2 400.95L195.83 369.32L250.37 313.14Z" fill="#EBEBEB"/>
<path d="M172.26 373.42C174.99 373.15 244.9 307.68 244.9 307.68L172.26 232.41V373.42Z" fill="#EBEBEB"/>
<path d="M171.25 388.34L188.08 373.42L211.39 400.95H171.25V390.42" fill="#EBEBEB"/>
<path d="M193 103.23C191.221 101.918 189.549 100.466 188 98.89C188 98.13 188 98.68 188 98.51L188.07 98.45L188.19 98.34L188.44 98.11L188.92 97.66L189.83 96.82L191.4 95.42C191.875 94.9342 192.414 94.5138 193 94.17C192.643 94.7138 192.212 95.2052 191.72 95.63L190.22 97.11L189.33 97.97L188.85 98.43L188.61 98.66L188.48 98.77L188.42 98.83V98.45C190.069 99.9217 191.6 101.52 193 103.23Z" fill="#263238"/>
<path d="M331.25 95.6C331.252 95.8164 331.19 96.0285 331.071 96.2093C330.952 96.3901 330.782 96.5313 330.582 96.6151C330.382 96.6988 330.162 96.7212 329.95 96.6795C329.738 96.6378 329.543 96.5337 329.39 96.3807C329.237 96.2277 329.133 96.0325 329.091 95.8202C329.049 95.6078 329.071 95.3878 329.155 95.1882C329.239 94.9887 329.38 94.8185 329.561 94.6995C329.742 94.5805 329.954 94.518 330.17 94.52C330.457 94.52 330.731 94.6338 330.934 94.8363C331.136 95.0389 331.25 95.3136 331.25 95.6Z" fill="#263238"/>
<path d="M330.94 98.57C331.093 98.7224 331.197 98.9166 331.239 99.1281C331.281 99.3396 331.26 99.5588 331.177 99.7581C331.095 99.9574 330.955 100.128 330.776 100.248C330.597 100.368 330.386 100.431 330.17 100.431C329.954 100.431 329.744 100.368 329.564 100.248C329.385 100.128 329.245 99.9574 329.163 99.7581C329.08 99.5588 329.059 99.3396 329.101 99.1281C329.143 98.9166 329.247 98.7224 329.4 98.57C329.606 98.3685 329.882 98.2556 330.17 98.2556C330.458 98.2556 330.734 98.3685 330.94 98.57Z" fill="#263238"/>
<path d="M331.25 103.07C331.224 103.34 331.099 103.59 330.898 103.772C330.698 103.955 330.436 104.056 330.165 104.056C329.894 104.056 329.633 103.955 329.432 103.772C329.232 103.59 329.106 103.34 329.08 103.07C329.066 102.919 329.083 102.766 329.131 102.622C329.179 102.478 329.256 102.345 329.358 102.233C329.461 102.12 329.585 102.03 329.724 101.969C329.863 101.907 330.013 101.876 330.165 101.876C330.317 101.876 330.467 101.907 330.606 101.969C330.745 102.03 330.87 102.12 330.972 102.233C331.074 102.345 331.152 102.478 331.2 102.622C331.247 102.766 331.265 102.919 331.25 103.07Z" fill="#263238"/>
<path d="M284.39 100.03H237.61V103.93H284.39V100.03Z" fill="#263238"/>
<path d="M279.3 170C279.3 151.78 260.16 140.24 240.64 149.37C236.224 151.433 232.61 154.895 230.36 159.22C225.45 168.73 227.62 179.59 232.07 188.61L247.27 227.12C247.75 228.347 248.589 229.401 249.678 230.144C250.766 230.887 252.053 231.284 253.37 231.284C254.688 231.284 255.975 230.887 257.063 230.144C258.152 229.401 258.99 228.347 259.47 227.12L274.36 188.41C279.52 176.61 279.3 170 279.3 170ZM261 185.9C247.88 193.53 234.58 179.43 241.77 165.51C242.718 163.674 244.163 162.143 245.94 161.09C259.07 153.46 272.37 167.56 265.17 181.48C264.227 183.319 262.781 184.851 261 185.9Z" fill="#92E3A9"/>
<path d="M677.07 309.12H122.25V390.53H677.07V309.12Z" fill="#92E3A9"/>
<g opacity="0.5">
<path d="M677.07 309.12H122.25V390.53H677.07V309.12Z" fill="black"/>
</g>
<path d="M200.403 443.355C229.883 441.371 252.174 415.864 250.19 386.384C248.206 356.903 222.699 334.613 193.218 336.597C163.738 338.581 141.447 364.088 143.431 393.568C145.415 423.049 170.922 445.339 200.403 443.355Z" fill="#263238"/>
<path d="M143.32 389.07C143.32 389.12 143.32 389.17 143.32 389.21C143.218 396.236 144.501 403.213 147.096 409.743C149.691 416.272 153.546 422.227 158.442 427.267C163.338 432.307 169.179 436.333 175.63 439.116C182.082 441.899 189.019 443.383 196.045 443.485C203.071 443.587 210.048 442.304 216.578 439.709C223.107 437.115 229.062 433.259 234.102 428.363C239.142 423.467 243.168 417.627 245.951 411.175C248.734 404.723 250.218 397.786 250.32 390.76C250.32 390.71 250.32 390.66 250.32 390.62L143.32 389.07Z" fill="#263238"/>
<path d="M159.249 389.44C159.139 396.869 161.235 404.163 165.271 410.401C169.307 416.639 175.103 421.539 181.924 424.483C188.746 427.426 196.287 428.28 203.595 426.937C210.902 425.594 217.647 422.115 222.976 416.938C228.305 411.761 231.979 405.12 233.534 397.855C235.088 390.59 234.453 383.027 231.709 376.123C228.965 369.218 224.234 363.283 218.117 359.068C211.999 354.852 204.768 352.546 197.339 352.44C187.383 352.298 177.777 356.116 170.634 363.055C163.492 369.993 159.397 379.483 159.249 389.44Z" fill="#FAFAFA"/>
<path d="M197.34 352.43C187.383 352.286 177.776 356.103 170.632 363.042C163.489 369.98 159.395 379.473 159.25 389.43L234.36 390.52C234.502 380.56 230.681 370.951 223.738 363.808C216.796 356.665 207.3 352.572 197.34 352.43Z" fill="#E0E0E0"/>
<path d="M173.929 389.65C173.862 394.175 175.139 398.619 177.598 402.419C180.057 406.218 183.588 409.203 187.743 410.996C191.899 412.789 196.493 413.309 200.944 412.491C205.396 411.672 209.504 409.552 212.75 406.398C215.996 403.244 218.234 399.199 219.181 394.773C220.127 390.347 219.74 385.74 218.068 381.534C216.396 377.329 213.514 373.713 209.787 371.146C206.06 368.578 201.655 367.174 197.129 367.11C194.126 367.066 191.143 367.615 188.352 368.724C185.56 369.833 183.015 371.481 180.86 373.574C178.706 375.667 176.985 378.164 175.796 380.923C174.607 383.681 173.972 386.647 173.929 389.65Z" fill="#263238"/>
<path d="M609.026 443.337C638.523 441.625 661.049 416.326 659.338 386.828C657.627 357.33 632.327 334.805 602.829 336.516C573.332 338.227 550.806 363.527 552.517 393.025C554.228 422.522 579.528 445.048 609.026 443.337Z" fill="#263238"/>
<path d="M552.42 389.07C552.42 389.12 552.42 389.17 552.42 389.21C552.318 396.236 553.601 403.213 556.196 409.743C558.79 416.272 562.646 422.227 567.542 427.267C572.437 432.307 578.278 436.333 584.73 439.116C591.182 441.899 598.119 443.383 605.145 443.485C612.17 443.587 619.147 442.304 625.677 439.709C632.207 437.115 638.162 433.259 643.202 428.363C648.242 423.467 652.268 417.627 655.051 411.175C657.833 404.723 659.318 397.786 659.42 390.76C659.42 390.71 659.42 390.66 659.42 390.62L552.42 389.07Z" fill="#263238"/>
<path d="M568.35 389.44C568.24 396.869 570.335 404.163 574.372 410.401C578.408 416.639 584.203 421.539 591.025 424.483C597.847 427.426 605.388 428.28 612.695 426.937C620.002 425.594 626.747 422.115 632.076 416.938C637.406 411.761 641.08 405.12 642.634 397.855C644.189 390.59 643.554 383.027 640.81 376.123C638.065 369.218 633.335 363.283 627.217 359.068C621.099 354.852 613.869 352.546 606.44 352.44C596.483 352.298 586.878 356.116 579.735 363.055C572.592 369.993 568.497 379.483 568.35 389.44Z" fill="#FAFAFA"/>
<path d="M606.44 352.43C596.482 352.286 586.875 356.103 579.732 363.042C572.589 369.98 568.494 379.473 568.35 389.43L643.46 390.52C643.601 380.56 639.78 370.951 632.838 363.808C625.895 356.665 616.4 352.572 606.44 352.43Z" fill="#E0E0E0"/>
<path d="M583 389.65C582.933 394.175 584.21 398.619 586.669 402.419C589.127 406.218 592.658 409.203 596.814 410.996C600.969 412.789 605.563 413.309 610.015 412.491C614.466 411.672 618.574 409.552 621.821 406.398C625.067 403.244 627.305 399.199 628.251 394.773C629.198 390.347 628.81 385.74 627.138 381.534C625.466 377.329 622.584 373.713 618.857 371.146C615.13 368.578 610.725 367.174 606.2 367.11C603.196 367.066 600.214 367.615 597.422 368.724C594.631 369.833 592.085 371.481 589.931 373.574C587.776 375.667 586.055 378.164 584.866 380.923C583.677 383.681 583.043 386.647 583 389.65Z" fill="#263238"/>
<path d="M266.93 263.32C266.93 263.32 188.15 269.13 158.93 275.68C138.35 280.29 98.6697 288.26 99.1497 313.22L102.3 331.12C102.3 331.12 87.5897 337.84 87.5897 355C87.5897 372.16 83.9997 398.76 118.36 399.83C124.02 400 134.77 399.83 134.77 399.83C134.77 399.83 128.18 326.65 195.4 324.51C263.79 322.33 259.25 399.16 259.25 399.16H544.68C544.68 399.16 532.96 324.31 606.58 324.16C680.2 324.01 669 399.65 669 399.65C669 399.65 696.08 401.99 708.68 379.23C721.28 356.47 718.01 340.23 718.01 340.23L717.59 325.84C717.51 323.478 716.536 321.235 714.865 319.564C713.194 317.894 710.951 316.92 708.59 316.84C708.59 316.84 713.51 280.62 705.96 274.35C698.41 268.08 657.04 230.25 657.04 230.25L659.04 229.02C659.781 228.551 660.375 227.882 660.751 227.09C661.128 226.298 661.272 225.415 661.167 224.544C661.063 223.673 660.713 222.85 660.16 222.17C659.606 221.489 658.871 220.98 658.04 220.7C642.33 215.3 611.27 204.61 603.97 202.06C602.876 201.671 601.737 201.429 600.58 201.34C596.22 201.01 583.88 200.23 561.23 199.99C533.64 199.69 424.1 199.99 424.1 199.99C424.1 199.99 386.4 203.09 365.4 212.33C343.38 222.05 266.93 263.32 266.93 263.32Z" fill="#92E3A9"/>
<g opacity="0.4">
<path d="M107.57 353C104.71 352.42 100.33 352.37 98.15 354.3C96.53 355.74 96.1 358.07 95.86 360.22C95.4007 363.165 95.4685 366.169 96.06 369.09C96.3617 370.549 96.9615 371.93 97.8219 373.147C98.6823 374.364 99.7847 375.389 101.06 376.16C103.68 377.58 107.26 377.35 109.29 375.16C111.15 373.16 111.36 370.16 111.29 367.49C111.22 363.63 111.53 360.36 110.82 356.57C110.663 355.766 110.321 355.009 109.82 354.36C109.571 353.972 109.236 353.646 108.84 353.409C108.445 353.171 108 353.028 107.54 352.99" fill="black"/>
</g>
<path d="M102.32 331.12C110.68 331.12 118.79 330.66 127.14 330.12C128.05 330.16 128.946 329.888 129.68 329.35C130.016 328.932 130.266 328.452 130.415 327.937C130.564 327.422 130.61 326.883 130.55 326.35C130.55 321.87 130.37 316.77 126.97 313.85C124.89 312.07 122.04 311.51 119.31 311.26C112.531 310.528 105.673 311.209 99.1699 313.26L102.32 331.12Z" fill="#FAFAFA"/>
<path d="M276 396.87C276 396.87 276 396.63 275.94 396.15C275.88 395.67 275.86 394.96 275.8 394.05C275.7 392.19 275.55 389.48 275.36 385.98C275.17 382.48 274.93 378.19 274.43 373.23C273.914 367.614 272.927 362.051 271.48 356.6C269.654 350.016 266.947 343.708 263.43 337.85C259.447 331.085 254.153 325.183 247.86 320.49C234.37 310.89 216.14 305.49 197.07 305.23C178 304.97 159.76 311 146.6 321.11C140.292 325.777 134.766 331.417 130.23 337.82C126.269 343.379 123.049 349.43 120.65 355.82C118.671 361.102 117.312 366.595 116.6 372.19C116.042 376.409 115.878 380.671 116.11 384.92C116.274 387.605 116.608 390.277 117.11 392.92C117.27 393.81 117.4 394.5 117.48 394.98C117.56 395.46 117.59 395.69 117.59 395.69C117.59 395.69 117.53 395.46 117.43 395L117 393C116.456 390.361 116.095 387.688 115.92 385C115.648 380.737 115.782 376.458 116.32 372.22C117.009 366.597 118.351 361.073 120.32 355.76C122.71 349.319 125.931 343.218 129.9 337.61C134.446 331.156 139.997 325.47 146.34 320.77C159.56 310.61 177.84 304.52 197.06 304.77C216.28 305.02 234.54 310.47 248.14 320.16C254.471 324.9 259.792 330.856 263.79 337.68C267.303 343.583 269.995 349.939 271.79 356.57C273.229 362.044 274.195 367.631 274.68 373.27C275.15 378.27 275.36 382.53 275.52 386.03C275.68 389.53 275.79 392.25 275.87 394.11C275.87 395.02 275.93 395.72 275.95 396.21C275.97 396.7 276 396.87 276 396.87Z" fill="white"/>
<path d="M278.999 398.11V397.51L278.939 395.74C278.889 394.16 278.819 391.85 278.719 388.83C278.549 382.76 278.299 373.89 277.979 362.6C277.659 351.31 277.289 337.6 276.859 321.9C276.749 317.97 276.649 313.9 276.529 309.75C276.459 307.629 276.553 305.506 276.809 303.4L277.259 300.18L277.919 296.95C278.955 292.537 280.446 288.244 282.369 284.14C284.35 279.838 286.798 275.766 289.669 272L339.099 240.86L352.449 232.46C356.949 229.47 361.673 226.832 366.579 224.57C371.597 222.207 376.745 220.134 381.999 218.36C384.619 217.44 387.309 216.69 389.999 215.89C392.689 215.09 395.429 214.43 398.209 213.89C408.692 211.647 419.348 210.309 430.059 209.89C440.338 209.397 450.634 209.431 460.909 209.99H461.199L461.129 210.28L447.849 269.69C445.396 273.719 443.384 278 441.849 282.46C440.339 286.69 439.659 291.172 439.849 295.66C440.189 300.05 440.309 304.35 440.419 308.52C440.529 312.69 440.579 316.73 440.659 320.66C440.889 336.36 440.949 350.05 440.989 361.33C441.029 372.61 440.989 381.48 440.989 387.54C440.989 390.54 440.989 392.87 440.989 394.45C440.989 395.22 440.989 395.81 440.989 396.22C440.989 396.63 440.989 396.82 440.989 396.82C440.989 396.82 440.989 396.61 440.989 396.22C440.989 395.83 440.989 395.22 440.989 394.45C440.989 392.87 440.989 390.56 440.989 387.54C440.989 381.48 440.899 372.61 440.829 361.34C440.759 350.07 440.659 336.34 440.389 320.66C440.309 316.74 440.223 312.697 440.129 308.53C440.009 304.36 439.889 300.08 439.539 295.69C439.336 291.146 440.016 286.606 441.539 282.32C443.064 277.824 445.076 273.508 447.539 269.45V269.52C451.609 251.23 456.059 231.27 460.769 210.1L460.999 210.4C450.747 209.848 440.474 209.821 430.219 210.32C419.534 210.734 408.904 212.072 398.449 214.32C395.679 214.87 392.979 215.64 390.269 216.32C387.559 217 384.909 217.87 382.269 218.78C377.015 220.557 371.866 222.633 366.849 225C361.968 227.247 357.267 229.868 352.789 232.84L339.429 241.24L289.999 272.31V272.26C287.133 276.001 284.692 280.049 282.719 284.33C280.798 288.403 279.31 292.666 278.279 297.05C276.029 305.62 277.159 314.05 277.179 321.9L278.179 362.6C278.449 373.88 278.659 382.76 278.799 388.82C278.869 391.82 278.909 394.16 278.949 395.74C278.949 396.507 278.949 397.097 278.949 397.51C278.999 397.91 278.999 398.11 278.999 398.11Z" fill="#263238"/>
<path d="M460.55 211.64H461.02L462.39 211.59L467.7 211.46L487.39 211.08L553.77 209.94H553.9L553.98 210.04L563.28 221.43C572.7 233 581.68 244 589.84 254L592.84 257.7C593.811 258.94 594.646 260.281 595.33 261.7C596.569 264.331 597.242 267.193 597.306 270.101C597.369 273.008 596.822 275.897 595.7 278.58L592.7 285.58L583.52 306.82L581 312.58L580.33 314.08C580.18 314.41 580.09 314.58 580.09 314.58C580.09 314.58 580.15 314.4 580.28 314.06C580.41 313.72 580.64 313.19 580.9 312.54C581.47 311.2 582.28 309.24 583.33 306.74L592.33 285.44C594.05 280.92 597.08 276.16 596.87 270.36C596.825 267.412 596.143 264.509 594.87 261.85C594.199 260.469 593.381 259.165 592.43 257.96L589.43 254.26L562.84 221.72L553.55 210.33L553.75 210.43L487.36 211.43L467.67 211.66H462.36H461L460.55 211.64Z" fill="#263238"/>
<path d="M426.999 299.92C426.999 299.92 427.279 299.92 427.789 299.8C428.54 299.667 429.254 299.381 429.889 298.96C430.897 298.303 431.652 297.322 432.029 296.18C432.259 295.47 432.354 294.724 432.309 293.98C432.286 293.15 432.074 292.336 431.689 291.6C431.242 290.762 430.579 290.06 429.768 289.565C428.957 289.071 428.029 288.803 427.079 288.79H420.339H404.889C403.584 288.792 402.328 289.285 401.369 290.17C400.434 291.022 399.837 292.183 399.689 293.44C399.538 294.654 399.761 295.886 400.329 296.97C400.909 297.988 401.809 298.786 402.889 299.24C403.959 299.607 405.093 299.746 406.219 299.65H409.489H415.369L423.879 299.73L426.189 299.78C426.461 299.774 426.732 299.794 426.999 299.84C426.731 299.872 426.46 299.888 426.189 299.89H423.879L415.369 299.97H409.489H406.219C405.649 299.97 405.099 299.97 404.489 299.97C403.877 299.933 403.276 299.794 402.709 299.56C401.524 299.073 400.535 298.204 399.899 297.09C399.265 295.92 399.016 294.58 399.189 293.26C399.347 291.857 400.014 290.561 401.065 289.619C402.117 288.676 403.478 288.153 404.889 288.15H420.339H427.089C428.11 288.171 429.106 288.468 429.972 289.008C430.838 289.549 431.542 290.313 432.009 291.22C432.41 292.008 432.625 292.876 432.639 293.76C432.672 294.54 432.56 295.32 432.309 296.06C431.887 297.248 431.072 298.257 429.999 298.92C429.338 299.341 428.589 299.604 427.809 299.69C427.549 299.799 427.278 299.876 426.999 299.92Z" fill="#263238"/>
<path d="M574.999 299.92C574.999 299.92 575.279 299.92 575.789 299.8C576.54 299.667 577.254 299.381 577.889 298.96C578.897 298.303 579.652 297.322 580.029 296.18C580.259 295.47 580.354 294.724 580.309 293.98C580.286 293.15 580.074 292.336 579.689 291.6C579.242 290.762 578.579 290.06 577.768 289.565C576.957 289.071 576.029 288.803 575.079 288.79H568.339H552.889C551.584 288.792 550.328 289.285 549.369 290.17C548.434 291.022 547.837 292.183 547.689 293.44C547.538 294.654 547.761 295.886 548.329 296.97C548.909 297.988 549.809 298.786 550.889 299.24C551.959 299.607 553.093 299.746 554.219 299.65H557.489H563.369L571.879 299.73L574.189 299.78C574.461 299.774 574.732 299.794 574.999 299.84C574.731 299.872 574.46 299.888 574.189 299.89H571.879L563.369 299.97H557.489H554.219C553.649 299.97 553.099 299.97 552.489 299.97C551.877 299.933 551.276 299.794 550.709 299.56C549.524 299.073 548.535 298.204 547.899 297.09C547.265 295.92 547.016 294.58 547.189 293.26C547.347 291.857 548.014 290.561 549.065 289.619C550.117 288.676 551.478 288.153 552.889 288.15H568.339H575.089C576.11 288.171 577.106 288.468 577.972 289.008C578.838 289.549 579.542 290.313 580.009 291.22C580.41 292.008 580.625 292.876 580.639 293.76C580.672 294.54 580.56 295.32 580.309 296.06C579.887 297.248 579.072 298.257 577.999 298.92C577.338 299.341 576.589 299.604 575.809 299.69C575.549 299.799 575.278 299.876 574.999 299.92Z" fill="#263238"/>
<path d="M704.689 275.78H675.089C673.1 275.779 671.147 276.322 669.443 277.35C667.739 278.377 666.348 279.85 665.419 281.61C664.656 283.066 664.232 284.676 664.176 286.318C664.121 287.961 664.436 289.596 665.099 291.1L676.699 317.47L706.339 317.18C706.339 317.18 712.649 283.75 704.689 275.78Z" fill="#FAFAFA"/>
<path d="M293.6 272.05L446.33 269.23L545.73 267.41L578.51 248.48C579.133 248.117 579.672 247.626 580.091 247.039C580.51 246.452 580.799 245.783 580.94 245.076C581.081 244.369 581.07 243.639 580.908 242.937C580.746 242.234 580.436 241.574 580 241L559.59 214.19C558.541 212.81 557.19 211.688 555.64 210.911C554.09 210.135 552.383 209.724 550.65 209.71L439.47 208.81C439.47 208.81 397.61 206.37 364.62 224.81C329.93 244.28 293.6 272.05 293.6 272.05Z" fill="#263238"/>
<path d="M363.59 211.58C363.59 211.58 371.25 215.07 366.27 218.3C361.29 221.53 283.91 270.3 283.91 270.3L266.12 262.25C297.63 244.72 329.45 227.67 363.59 211.58Z" fill="#455A64"/>
<path d="M286.41 271.54L285.93 271.66L284.52 271.97L279.09 273.09C274.37 274.03 267.53 275.35 259.09 276.81C242.09 279.73 218.57 283.13 192.4 285.39C185.85 285.96 179.4 286.39 173.28 286.83C167.16 287.27 161.14 287.62 155.48 288.13C144.15 289.13 134.01 290.77 125.77 293.22C119.22 295.041 112.917 297.654 107 301C104.87 302.12 103.35 303.22 102.28 303.88L101.06 304.65L100.63 304.9C100.758 304.797 100.892 304.7 101.03 304.61L102.22 303.79C103.28 303.1 104.78 301.97 106.9 300.79C112.781 297.352 119.07 294.665 125.62 292.79C133.88 290.28 144.05 288.59 155.39 287.58C161.06 287.04 167.02 286.66 173.2 286.25C179.38 285.84 185.77 285.36 192.31 284.79C218.47 282.53 242.02 279.19 258.99 276.36C267.48 274.95 274.32 273.69 279.05 272.81L284.5 271.81L285.92 271.55L286.41 271.54Z" fill="#263238"/>
<path d="M716.52 339.93C716.52 340.08 706.34 340.19 693.79 340.19C681.24 340.19 671.05 340.08 671.05 339.93C671.05 339.78 681.23 339.67 693.79 339.67C706.35 339.67 716.52 339.79 716.52 339.93Z" fill="#263238"/>
<path d="M530.29 365.91C530.29 366.06 472.83 366.17 401.96 366.17C331.09 366.17 273.62 366.06 273.62 365.91C273.62 365.76 331.07 365.65 401.96 365.65C472.85 365.65 530.29 365.77 530.29 365.91Z" fill="#263238"/>
<path d="M127.999 340.79C127.999 340.94 119.869 341.05 109.849 341.05C99.8292 341.05 91.6992 340.94 91.6992 340.79C91.6992 340.64 99.8292 340.53 109.849 340.53C119.869 340.53 127.999 340.65 127.999 340.79Z" fill="#263238"/>
<path d="M656.27 229.21C656.27 229.21 649.45 236.84 652.13 242.44C654.81 248.04 682.52 267.66 682.52 267.66L702.63 271.43L656.27 229.21Z" fill="#455A64"/>
<path d="M465.07 215.54L460.55 264.38L541.47 262.07L574.08 243.11L552.97 215.54H465.07Z" fill="#455A64"/>
<path d="M312.76 266.88C312.76 266.88 361.58 231.62 380.84 224.61C399.43 217.85 409.12 216.15 426.58 215.61C443.27 215.13 453.44 215.61 453.44 215.61L440.54 265.26L312.76 266.88Z" fill="#455A64"/>
<path d="M305.62 267C305.621 265.482 306.025 263.991 306.791 262.68C307.557 261.37 308.658 260.286 309.98 259.54L321.2 253.24C324.396 251.441 328.002 250.497 331.67 250.5C333.929 250.503 336.173 250.861 338.32 251.56C340.658 252.369 342.693 253.871 344.155 255.867C345.617 257.863 346.435 260.257 346.5 262.73C346.563 264.391 346.291 266.048 345.698 267.601C345.106 269.154 344.207 270.571 343.053 271.768C341.9 272.965 340.517 273.917 338.987 274.567C337.458 275.217 335.812 275.551 334.15 275.55H314.15C311.886 275.545 309.716 274.642 308.117 273.039C306.518 271.436 305.62 269.264 305.62 267Z" fill="#92E3A9"/>
<path d="M305.62 267C305.62 267 305.62 267.38 305.75 268.08C305.901 269.11 306.24 270.103 306.75 271.01C307.558 272.439 308.749 273.613 310.19 274.4C311.088 274.87 312.064 275.175 313.07 275.3C314.218 275.385 315.369 275.408 316.52 275.37L333.63 275.31C335.251 275.353 336.867 275.089 338.39 274.53C339.997 273.929 341.459 272.994 342.679 271.788C343.899 270.581 344.85 269.13 345.47 267.53C346.1 265.842 346.356 264.037 346.22 262.24C346.086 260.469 345.564 258.749 344.691 257.203C343.818 255.656 342.616 254.32 341.17 253.29C339.773 252.325 338.2 251.645 336.54 251.29C331.98 250.212 327.191 250.672 322.92 252.6C321.63 253.18 320.45 253.91 319.28 254.54L315.94 256.4L310.19 259.58C308.743 260.359 307.55 261.535 306.75 262.97C306.245 263.88 305.907 264.872 305.75 265.9C305.65 266.6 305.66 266.98 305.63 266.98C305.592 266.614 305.592 266.246 305.63 265.88C305.742 264.83 306.054 263.812 306.55 262.88C307.336 261.386 308.542 260.156 310.02 259.34L315.73 256.09L319.05 254.2C320.21 253.56 321.39 252.82 322.71 252.2C327.061 250.197 331.957 249.704 336.62 250.8C338.34 251.142 339.975 251.822 341.43 252.8C342.942 253.871 344.199 255.263 345.112 256.875C346.024 258.488 346.57 260.282 346.71 262.13C346.856 264.005 346.59 265.889 345.93 267.65C345.284 269.322 344.291 270.837 343.015 272.096C341.739 273.354 340.21 274.327 338.53 274.95C336.95 275.519 335.278 275.787 333.6 275.74L316.49 275.69C315.325 275.715 314.16 275.678 313 275.58C311.947 275.434 310.93 275.095 310 274.58C308.526 273.756 307.319 272.527 306.52 271.04C306.031 270.106 305.722 269.088 305.61 268.04C305.585 267.694 305.589 267.346 305.62 267Z" fill="#263238"/>
<path d="M681.74 397.32C681.74 397.32 681.74 397.09 681.74 396.63C681.74 396.17 681.82 395.48 681.88 394.63C681.94 393.78 682.04 392.63 682.1 391.33C682.16 390.03 682.2 388.51 682.25 386.82C682.3 385.13 682.25 383.23 682.25 381.17C682.25 379.11 682.1 376.86 681.82 374.46C681.366 369.021 680.398 363.637 678.93 358.38C678.065 355.313 677 352.307 675.74 349.38C674.403 346.218 672.79 343.18 670.92 340.3C666.753 333.952 661.451 328.426 655.28 324C648.488 319.069 640.907 315.328 632.86 312.94C624.52 310.39 615.44 309.46 606.2 309.39C597.187 309.308 588.216 310.613 579.6 313.26C575.521 314.549 571.56 316.185 567.76 318.15C564.138 320.075 560.697 322.324 557.48 324.87C551.5 329.554 546.173 335.015 541.64 341.11C539.647 343.907 537.888 346.864 536.38 349.95C535.005 352.811 533.79 355.745 532.74 358.74C529.545 367.766 527.6 377.187 526.96 386.74C526.8 390.13 526.82 392.74 526.91 394.56C526.96 395.44 527 396.11 527.02 396.56C527.04 397.01 527.02 397.25 527.02 397.25C527.02 397.25 527.02 397.02 526.94 396.56C526.86 396.1 526.84 395.41 526.77 394.56C526.638 391.952 526.638 389.338 526.77 386.73C527.323 377.123 529.218 367.641 532.4 358.56C533.451 355.552 534.659 352.601 536.02 349.72C537.54 346.611 539.306 343.628 541.3 340.8C545.848 334.666 551.191 329.164 557.19 324.44C560.426 321.874 563.887 319.605 567.53 317.66C571.355 315.679 575.343 314.03 579.45 312.73C588.114 310.052 597.142 308.733 606.21 308.82C615.49 308.89 624.61 309.82 633.02 312.4C641.12 314.811 648.749 318.585 655.58 323.56C658.744 325.889 661.701 328.485 664.42 331.32C667.003 333.98 669.305 336.899 671.29 340.03C673.165 342.936 674.782 346.001 676.12 349.19C677.377 352.116 678.436 355.122 679.29 358.19C680.749 363.473 681.697 368.885 682.12 374.35C682.39 376.75 682.39 379 682.5 381.07C682.61 383.14 682.5 385.07 682.5 386.73C682.5 388.39 682.35 389.94 682.29 391.25C682.23 392.56 682.1 393.65 682.02 394.55C681.94 395.45 681.88 396.1 681.84 396.55C681.8 397 681.74 397.32 681.74 397.32Z" fill="white"/>
<path d="M438.17 272.05H437.49L434.88 272.11L425.29 272.28C417.19 272.43 406.01 272.73 393.65 273.07C381.29 273.41 370.1 273.64 362 273.7C357.95 273.7 354.67 273.7 352.4 273.7H349.79H349.12C349.041 273.715 348.959 273.715 348.88 273.7C348.959 273.687 349.04 273.687 349.12 273.7H349.79L352.4 273.64L361.99 273.47C370.09 273.32 381.28 273.02 393.64 272.69C406 272.36 417.19 272.11 425.29 272.05C429.29 272.05 432.62 272.05 434.88 272.05H437.49H438.17Z" fill="white"/>
<path d="M425.14 287.08C422.228 287.344 419.303 287.43 416.38 287.34C413.458 287.43 410.532 287.344 407.62 287.08C410.533 286.822 413.458 286.736 416.38 286.82C419.303 286.736 422.228 286.822 425.14 287.08Z" fill="white"/>
<path d="M428.359 233.57C428.409 233.7 417.539 238.23 404.069 243.68C390.599 249.13 379.639 253.45 379.579 253.31C379.519 253.17 390.399 248.65 403.869 243.2C417.339 237.75 428.299 233.44 428.359 233.57Z" fill="white"/>
<path d="M406.32 237C406.38 237.14 396.02 241.7 383.19 247.19C370.36 252.68 359.92 257.03 359.86 256.9C359.8 256.77 370.16 252.21 382.99 246.71C395.82 241.21 406.26 236.85 406.32 237Z" fill="white"/>
<path d="M546.08 231.68C546.14 231.81 535.26 236.34 521.79 241.79C508.32 247.24 497.36 251.55 497.3 251.42C497.24 251.29 508.12 246.76 521.6 241.31C535.08 235.86 546 231.54 546.08 231.68Z" fill="white"/>
<path d="M523.999 235.09C524.059 235.23 513.699 239.79 500.879 245.28C488.059 250.77 477.599 255.12 477.539 254.99C477.479 254.86 487.839 250.3 500.669 244.8C513.499 239.3 523.999 235 523.999 235.09Z" fill="white"/>
<path d="M548.21 272C548.21 272.14 526.58 272.39 499.9 272.55C473.22 272.71 451.59 272.72 451.59 272.55C451.59 272.38 473.21 272.16 499.9 272.01C526.59 271.86 548.21 271.89 548.21 272Z" fill="white"/>
<path d="M572.16 286.25C572.16 286.39 566.1 286.56 558.61 286.63C551.12 286.7 545.06 286.63 545.06 286.5C545.06 286.37 551.12 286.18 558.61 286.11C566.1 286.04 572.16 286.1 572.16 286.25Z" fill="white"/>
<path d="M158 278.85C157.809 278.915 157.611 278.955 157.41 278.97L155.72 279.19C154.98 279.27 154.08 279.38 153.04 279.56C152 279.74 150.81 279.87 149.51 280.13C146.9 280.59 143.81 281.27 140.43 282.13C136.768 283.14 133.161 284.335 129.62 285.71C125.86 287.2 122.37 288.83 119.25 290.44C116.13 292.05 113.43 293.67 111.25 295.12C110.12 295.81 109.14 296.51 108.25 297.12C107.36 297.73 106.63 298.23 106.03 298.67L104.64 299.67C104.481 299.793 104.31 299.9 104.13 299.99C104.262 299.842 104.41 299.708 104.57 299.59L105.91 298.52C106.49 298.06 107.21 297.52 108.08 296.89C108.95 296.26 109.9 295.56 111.08 294.89C113.28 293.4 116 291.77 119.08 290.1C125.823 286.495 132.965 283.693 140.36 281.75C143.76 280.87 146.87 280.22 149.5 279.81C150.81 279.57 152 279.45 153.05 279.31C154.1 279.17 155.05 279.08 155.74 279.03L157.45 278.9C157.632 278.87 157.816 278.854 158 278.85Z" fill="white"/>
<path d="M336.579 255.26C336.579 255.26 336.289 254.87 335.579 254.33C334.62 253.596 333.479 253.136 332.279 253C330.479 252.85 328.667 253.043 326.939 253.57C320.85 255.103 315.195 258.015 310.409 262.08C308.029 264.08 306.769 265.55 306.699 265.48C306.941 265.098 307.223 264.743 307.539 264.42C308.366 263.501 309.241 262.627 310.159 261.8C313.214 259.079 316.685 256.864 320.439 255.24C322.5 254.338 324.639 253.625 326.829 253.11C328.613 252.591 330.482 252.428 332.329 252.63C333.584 252.802 334.76 253.341 335.709 254.18C335.962 254.406 336.186 254.661 336.379 254.94C336.539 255.14 336.599 255.25 336.579 255.26Z" fill="white"/>
<path d="M658.54 228.85C657.146 229.187 655.713 229.335 654.28 229.29C652.598 229.24 650.924 229.032 649.28 228.67C647.111 228.16 644.982 227.491 642.91 226.67C640.6 225.8 638.14 224.67 635.48 223.56L631.33 221.89C629.9 221.32 628.39 220.83 626.87 220.27C620.195 218.01 613.389 216.156 606.49 214.72C593.947 212.109 581.211 210.53 568.41 210C565.95 209.87 563.73 209.87 561.77 209.82H556.77L553.61 209.89H552.5C552.593 209.872 552.688 209.872 552.78 209.89L553.6 209.83L556.77 209.66L561.77 209.57C563.77 209.57 565.95 209.57 568.41 209.69C581.246 210.109 594.022 211.648 606.59 214.29C613.504 215.71 620.321 217.567 627 219.85C628.52 220.41 630 220.91 631.47 221.49L635.62 223.2C638.28 224.35 640.73 225.47 643.02 226.36C645.063 227.184 647.166 227.852 649.31 228.36C650.931 228.748 652.585 228.983 654.25 229.06C655.301 229.096 656.354 229.059 657.4 228.95L658.21 228.85H658.54Z" fill="#263238"/>
<path d="M177.41 230.23C173.41 208.35 170.72 204.99 168.46 197.46C166.2 189.93 162.61 185.04 158.14 183.31C155.14 182.15 140.07 176.72 134.83 178.52C129.703 180.343 124.822 182.795 120.3 185.82C116.79 188.148 114.13 191.552 112.72 195.52L104.72 218.09L118.8 232.09L125.86 217.09L133.52 235.09L132.39 253.24L176.32 265.06C180.28 258.66 179.68 242.64 177.41 230.23Z" fill="#92E3A9"/>
<g opacity="0.2">
<path d="M166 206.36C164.06 217.75 163.75 219.36 161.81 230.71C161.14 234.62 159.19 240.71 156.41 243.55C154.35 245.64 152.33 247.65 149.46 248.33C146.8 248.96 142.75 249.03 140.25 247.93C137.75 246.83 135.61 241.93 136.64 239.42C140.37 240.22 141.52 241.42 144.73 239.42C147.53 237.64 151.51 233.7 153.03 230.75C159.44 218.35 161.21 217.91 166.03 206.36" fill="black"/>
</g>
<path d="M134.17 228.43C133.46 227.473 132.812 226.471 132.23 225.43L127.71 218L123.07 210.69C122.378 209.706 121.754 208.677 121.2 207.61C121.441 207.829 121.653 208.078 121.83 208.35C122.21 208.84 122.74 209.57 123.37 210.48C124.65 212.3 126.37 214.85 128.15 217.72C129.93 220.59 131.48 223.25 132.55 225.2C133.09 226.2 133.55 226.96 133.79 227.52C133.964 227.802 134.092 228.109 134.17 228.43Z" fill="#263238"/>
<path d="M164.83 248.86C164.512 249.026 164.176 249.156 163.83 249.25C163.42 249.387 163.003 249.501 162.58 249.59C162.027 249.74 161.466 249.857 160.9 249.94C159.434 250.201 157.949 250.338 156.46 250.35C154.633 250.353 152.809 250.196 151.01 249.88C149.212 249.541 147.449 249.043 145.74 248.39C144.357 247.85 143.02 247.201 141.74 246.45C141.18 246.14 140.74 245.8 140.3 245.53C139.936 245.293 139.585 245.036 139.25 244.76C138.945 244.551 138.666 244.306 138.42 244.03C138.48 243.95 139.72 244.92 141.92 246.13C143.21 246.825 144.546 247.43 145.92 247.94C149.296 249.198 152.867 249.852 156.47 249.87C157.938 249.872 159.405 249.775 160.86 249.58C163.3 249.23 164.8 248.76 164.83 248.86Z" fill="#263238"/>
<path d="M147.2 214.77C147.12 215.16 142.4 224.56 142.4 224.56L120.12 212.82L117.85 203.22C117.475 201.678 116.505 200.348 115.152 199.52C113.799 198.691 112.173 198.433 110.63 198.8L104.06 201.49C103.789 201.596 103.548 201.767 103.36 201.989C103.171 202.211 103.041 202.476 102.98 202.76C102.89 203.24 102.98 203.76 103.85 203.65C105.48 203.52 108.85 203.16 108.85 203.16L107.3 208.63C106.891 210.063 107.048 211.599 107.74 212.92L108.74 214.81L110.91 218.32H110.86C110.86 218.32 132.52 240.57 144.68 242.02C151.99 242.89 160.27 222.4 160.27 222.4L147.2 214.77Z" fill="#B78876"/>
<path d="M108.689 203.53C108.689 203.53 108.859 203.3 109.229 203.05C109.725 202.705 110.316 202.523 110.919 202.53C111.235 202.548 111.539 202.65 111.801 202.826C112.064 203.002 112.274 203.245 112.409 203.53C112.619 203.98 112.479 204.28 112.409 204.26C112.339 204.24 112.409 203.98 112.169 203.64C112.022 203.424 111.827 203.244 111.601 203.115C111.374 202.985 111.12 202.908 110.859 202.89C110.318 202.898 109.787 203.035 109.309 203.29C108.999 203.44 108.719 203.57 108.689 203.53Z" fill="#AA6550"/>
<path d="M111.5 206.94C111.5 206.94 111.35 206.76 111.14 206.49C110.872 206.145 110.516 205.879 110.11 205.719C109.703 205.559 109.262 205.511 108.83 205.58C108.49 205.58 108.28 205.7 108.26 205.66C108.24 205.62 108.42 205.47 108.78 205.35C109.256 205.211 109.765 205.234 110.226 205.415C110.687 205.596 111.076 205.925 111.33 206.35C111.51 206.69 111.53 206.93 111.5 206.94Z" fill="#AA6550"/>
<path d="M151.82 185.1L145.82 213.69L161.82 223.3L167.96 205.73C167.96 205.73 165.38 184.39 151.82 185.1Z" fill="#92E3A9"/>
<path d="M160.439 185.6C160.439 185.6 160.309 185.71 160.029 185.86C159.749 186.01 159.349 186.23 158.819 186.5C157.759 187.04 156.199 187.8 154.249 188.67C149.18 190.987 143.842 192.667 138.359 193.67C132.842 194.656 127.178 194.465 121.739 193.11C120.112 192.682 118.525 192.11 116.999 191.4C116.449 191.17 115.999 190.92 115.769 190.78C115.626 190.708 115.489 190.625 115.359 190.53C115.945 190.728 116.519 190.958 117.079 191.22C118.634 191.848 120.231 192.362 121.859 192.76C127.257 193.996 132.848 194.132 138.299 193.16C143.746 192.157 149.06 190.537 154.139 188.33C156.139 187.51 157.669 186.8 158.759 186.33C159.303 186.05 159.864 185.806 160.439 185.6Z" fill="#EBEBEB"/>
<path d="M164.65 188.76C164.513 188.884 164.362 188.991 164.2 189.08L162.88 189.93C162.182 190.387 161.461 190.808 160.72 191.19C159.86 191.64 158.9 192.19 157.77 192.69L156.03 193.49C155.42 193.77 154.76 194 154.09 194.27C152.76 194.82 151.28 195.27 149.74 195.77C142.988 197.806 135.931 198.642 128.89 198.24C127.27 198.11 125.73 198.02 124.31 197.79C123.59 197.68 122.9 197.61 122.24 197.49L120.35 197.11C119.15 196.9 118.08 196.58 117.14 196.34C116.332 196.145 115.534 195.908 114.75 195.63L113.26 195.11C113.082 195.063 112.91 194.992 112.75 194.9C112.934 194.91 113.116 194.947 113.29 195.01L114.81 195.43C115.46 195.63 116.26 195.86 117.21 196.06C118.16 196.26 119.21 196.57 120.43 196.75L122.31 197.09C122.96 197.21 123.65 197.27 124.31 197.36C125.73 197.57 127.31 197.65 128.86 197.76C135.849 198.115 142.847 197.287 149.56 195.31C151.09 194.83 152.56 194.4 153.89 193.86C154.55 193.6 155.21 193.38 155.82 193.12L157.57 192.35C158.7 191.89 159.66 191.35 160.57 190.93C161.48 190.51 162.18 190.1 162.76 189.76L164.14 189C164.299 188.898 164.47 188.817 164.65 188.76Z" fill="#EBEBEB"/>
<path d="M161.78 223.3C161.331 223.111 160.897 222.89 160.48 222.64L156.96 220.64L144.96 213.71L144.81 213.62V213.45C145.24 211.32 145.7 209.02 146.18 206.66C146.9 203.1 147.6 199.72 148.18 196.66C148.51 195.12 148.78 193.66 149.08 192.27C149.351 190.985 149.781 189.739 150.36 188.56C151.198 186.809 152.682 185.451 154.5 184.77C154.992 184.601 155.509 184.516 156.03 184.52C156.208 184.508 156.388 184.528 156.56 184.58C155.877 184.603 155.203 184.731 154.56 184.96C152.842 185.685 151.458 187.026 150.68 188.72C150.139 189.885 149.739 191.11 149.49 192.37C149.22 193.74 148.94 195.21 148.64 196.74C148.02 199.84 147.34 203.22 146.64 206.74C146.16 209.11 145.69 211.4 145.26 213.53L145.14 213.27L157.07 220.36L160.52 222.46C160.962 222.704 161.384 222.985 161.78 223.3Z" fill="#263238"/>
<path d="M166.67 204.88C166.758 205.77 166.731 206.667 166.59 207.55C166.381 209.687 165.999 211.804 165.45 213.88C164.901 215.958 164.192 217.991 163.33 219.96C163.017 220.797 162.597 221.591 162.08 222.32C162.325 221.466 162.629 220.631 162.99 219.82C164.508 215.841 165.594 211.711 166.23 207.5C166.321 206.618 166.468 205.743 166.67 204.88Z" fill="#263238"/>
<path d="M79.9194 363.91L79.7394 379.17C79.7394 379.17 64.1594 384.12 63.8594 386.94L93.4394 388.34L94.6994 364.57L79.9194 363.91Z" fill="#455A64"/>
<path d="M88.9996 378.32C89.2803 378.42 89.5141 378.621 89.6562 378.883C89.7983 379.145 89.8387 379.45 89.7696 379.74C89.6814 380.025 89.4867 380.265 89.2259 380.411C88.9652 380.556 88.6585 380.595 88.3696 380.52C88.0731 380.411 87.8269 380.197 87.6776 379.919C87.5284 379.641 87.4863 379.317 87.5596 379.01C87.6852 378.724 87.9168 378.497 88.2057 378.378C88.4947 378.259 88.8186 378.256 89.1096 378.37" fill="#E0E0E0"/>
<path d="M93.4399 388.34V385.94L65.0598 385.49C65.0598 385.49 63.7099 386 63.8199 386.94L93.4399 388.34Z" fill="#E0E0E0"/>
<path d="M79.2703 379C79.2703 379.14 79.9903 379.24 80.6703 379.74C81.3503 380.24 81.6703 380.86 81.8503 380.81C82.0303 380.76 81.8503 379.92 80.9603 379.33C80.0703 378.74 79.2403 378.86 79.2703 379Z" fill="#263238"/>
<path d="M76.0996 380.13C76.0996 380.27 76.6796 380.55 77.0996 381.18C77.5196 381.81 77.6696 382.47 77.8196 382.47C77.9696 382.47 78.0896 381.66 77.4996 380.88C76.9096 380.1 76.1096 380 76.0996 380.13Z" fill="#263238"/>
<path d="M74.1599 383.76C74.2899 383.76 74.5299 383.09 74.1599 382.28C73.7899 381.47 73.1599 381.13 73.0999 381.28C73.0399 381.43 73.4299 381.84 73.6899 382.51C73.9499 383.18 73.9999 383.74 74.1599 383.76Z" fill="#263238"/>
<path d="M79.6901 375.52C79.7501 375.66 80.4201 375.52 81.2401 375.58C82.0601 375.64 82.6701 375.97 82.7501 375.85C82.8301 375.73 82.2501 375.18 81.2901 375.08C80.3301 374.98 79.6301 375.41 79.6901 375.52Z" fill="#263238"/>
<g opacity="0.3">
<path d="M79.8896 366.93L79.8496 369.65L94.3996 370.21L94.5296 367.76L79.8896 366.93Z" fill="black"/>
</g>
<path d="M79.79 372.44C80.2676 372.599 80.7796 372.623 81.27 372.51C81.8086 372.44 82.3361 372.303 82.84 372.1C83.1411 371.988 83.4321 371.851 83.71 371.69C83.8828 371.609 84.0415 371.501 84.18 371.37C84.2803 371.271 84.3446 371.142 84.3628 371.002C84.3809 370.863 84.3518 370.721 84.28 370.6C84.2113 370.496 84.1196 370.41 84.012 370.348C83.9045 370.285 83.7841 370.248 83.66 370.24C83.472 370.23 83.2834 370.247 83.1 370.29C82.7824 370.351 82.4711 370.442 82.17 370.56C81.6611 370.764 81.1858 371.044 80.76 371.39C80.04 372 79.76 372.53 79.83 372.56C79.9 372.59 80.25 372.17 80.97 371.68C81.3935 371.398 81.8503 371.17 82.33 371C82.6105 370.904 82.8981 370.831 83.19 370.78C83.51 370.71 83.78 370.72 83.85 370.86C83.92 371 83.85 370.94 83.85 371.03C83.7465 371.123 83.6324 371.204 83.51 371.27C83.24 371.42 82.97 371.56 82.71 371.68C82.2388 371.884 81.7502 372.044 81.25 372.16C80.7578 372.222 80.2701 372.315 79.79 372.44Z" fill="#263238"/>
<path d="M79.9999 372.66C80.2973 372.25 80.455 371.756 80.4499 371.25C80.5054 370.704 80.4648 370.152 80.33 369.62C80.2494 369.302 80.1354 368.994 79.9899 368.7C79.9196 368.501 79.7988 368.323 79.6393 368.185C79.4798 368.046 79.287 367.952 79.08 367.91C78.9493 367.905 78.8201 367.938 78.7081 368.006C78.5962 368.073 78.5064 368.172 78.4499 368.29C78.3617 368.459 78.3009 368.642 78.2699 368.83C78.2199 369.161 78.2199 369.499 78.2699 369.83C78.3247 370.388 78.5171 370.924 78.83 371.39C79.37 372.19 79.97 372.39 79.98 372.34C79.99 372.29 79.5399 371.97 79.1299 371.21C78.8954 370.775 78.7589 370.294 78.73 369.8C78.7139 369.511 78.7374 369.222 78.8 368.94C78.86 368.63 78.9899 368.38 79.1099 368.42C79.2299 368.46 79.4899 368.67 79.5999 368.93C79.7355 369.192 79.846 369.467 79.9299 369.75C80.0736 370.234 80.1477 370.735 80.15 371.24C80.07 372.1 79.8899 372.63 79.9999 372.66Z" fill="#263238"/>
<path d="M140.22 253.4C140.22 253.4 94.0001 234 79.7001 233.19C70.7001 232.67 63.9401 238.43 65.1601 247.71C65.7701 252.36 78.5401 306.71 78.5401 306.71L98.0001 297.83L88.6401 260.24L126.64 278.7L140.22 253.4Z" fill="#263238"/>
<path d="M82.8295 250.73C82.6795 250.86 84.2095 252.83 85.8295 255.44C87.4495 258.05 88.5295 260.3 88.7095 260.23C88.8895 260.16 88.0595 257.75 86.4095 255.09C84.7595 252.43 82.9995 250.61 82.8295 250.73Z" fill="#455A64"/>
<path d="M79.05 252.89C78.95 253.06 81.28 254.54 84.05 256.56C86.82 258.58 88.9 260.35 89.05 260.21C89.2 260.07 87.2 258 84.42 256C81.64 254 79.13 252.73 79.05 252.89Z" fill="#455A64"/>
<path d="M176.27 265.06C176.27 265.06 170.46 272.55 164.92 274.6C157.92 277.17 106.46 301.46 106.46 301.46C106.46 301.46 97.1196 370.85 97.8596 367.95L76.3096 367.43L78.6496 303.52C78.9296 295.34 85.4896 285.94 92.5396 281.76L140.22 253.4L176.27 265.06Z" fill="#263238"/>
<path d="M78.2396 315.22C78.308 314.932 78.3382 314.636 78.3296 314.34C78.3296 313.7 78.4096 312.87 78.4596 311.83C78.582 308.753 78.8691 305.686 79.3196 302.64C79.9508 298.139 81.5473 293.827 83.9996 290C85.517 287.8 87.3891 285.867 89.5396 284.28C91.8732 282.58 94.315 281.033 96.8496 279.65C107.22 273.71 116.17 267.65 122.79 263.5C126.09 261.4 128.79 259.73 130.63 258.59L132.77 257.27C133.028 257.127 133.273 256.96 133.5 256.77C133.224 256.87 132.959 256.997 132.71 257.15C132.2 257.42 131.45 257.82 130.5 258.36C128.59 259.43 125.87 261.05 122.5 263.09C115.81 267.15 106.81 273.14 96.4996 279.09C93.939 280.489 91.4736 282.056 89.1196 283.78C86.9152 285.415 85.0018 287.41 83.4596 289.68C80.9927 293.607 79.4189 298.028 78.8496 302.63C78.4377 305.696 78.2239 308.786 78.2096 311.88C78.2096 312.88 78.2096 313.75 78.2096 314.4C78.1951 314.674 78.2051 314.948 78.2396 315.22Z" fill="#455A64"/>
<path d="M157.25 272.37C156.851 271.751 156.41 271.159 155.93 270.6C154.937 269.156 154.247 267.524 153.904 265.805C153.56 264.086 153.569 262.315 153.93 260.6C154.152 259.896 154.326 259.178 154.45 258.45C153.965 259.029 153.622 259.714 153.45 260.45C152.938 262.226 152.863 264.099 153.23 265.91C153.589 267.721 154.386 269.417 155.55 270.85C156.46 272 157.21 272.43 157.25 272.37Z" fill="#455A64"/>
<path d="M84.2299 367.43C84.2652 367.316 84.2854 367.199 84.2899 367.08C84.2899 366.8 84.3699 366.46 84.4199 366.03C84.5299 365.03 84.6699 363.71 84.8499 362.03C85.1999 358.47 85.6999 353.4 86.3199 347.16C86.6099 344.02 86.9399 340.58 87.3199 336.89C87.6999 333.2 88.0499 329.25 88.3199 325.09C88.5899 320.93 89.0299 316.58 89.7899 312.09C90.5321 307.484 91.8769 302.995 93.7899 298.74C95.7876 294.535 98.4256 290.666 101.61 287.27C104.594 284.111 107.861 281.232 111.37 278.67C117.384 274.434 123.631 270.538 130.08 267C135.55 263.86 139.91 261.18 142.8 259.16C144.26 258.16 145.36 257.35 146.1 256.78L146.93 256.13C147.117 255.983 147.207 255.903 147.2 255.89C147.089 255.935 146.984 255.996 146.89 256.07L146.02 256.67C145.26 257.2 144.13 257.98 142.66 258.95C139.72 260.89 135.34 263.5 129.84 266.59C123.338 270.077 117.047 273.943 111 278.17C107.444 280.739 104.136 283.635 101.12 286.82C97.8788 290.261 95.1963 294.189 93.1699 298.46C91.2489 302.768 89.904 307.311 89.1699 311.97C88.4199 316.47 88.0399 320.84 87.7299 324.97C87.4199 329.1 87.1099 333.08 86.7299 336.77C86.3499 340.46 86.1099 343.9 85.8399 347.05C85.3099 353.3 84.8399 358.37 84.5899 361.94C84.4565 363.66 84.3566 364.993 84.2899 365.94C84.2899 366.37 84.2399 366.72 84.2199 366.99C84.1999 367.26 84.2099 367.43 84.2299 367.43Z" fill="#455A64"/>
<path d="M135 143.34C134.274 141.471 132.906 139.922 131.141 138.971C129.377 138.02 127.33 137.729 125.37 138.15C124.508 138.465 123.606 138.661 122.69 138.73C121.58 138.54 120.489 138.252 119.43 137.87C118.23 137.675 117 137.934 115.98 138.596C114.96 139.257 114.222 140.275 113.91 141.45C112.971 141.222 111.993 141.201 111.045 141.389C110.097 141.578 109.201 141.97 108.42 142.54C107.655 143.133 107.111 143.966 106.877 144.906C106.643 145.846 106.732 146.837 107.13 147.72C107.52 148.45 108.13 149.03 108.52 149.78C109.11 151.01 108.84 152.49 109.25 153.78C109.635 154.718 110.276 155.529 111.1 156.12C111.924 156.71 112.898 157.057 113.91 157.12C115.946 157.225 117.983 156.936 119.91 156.27" fill="#263238"/>
<path d="M125.69 182.89C125.44 180.95 125.28 179.59 125.28 179.59C125.28 179.59 118.83 179.59 116.28 171.59C114.99 167.59 114.13 160.91 113.61 155.39C113.496 154.214 113.622 153.027 113.979 151.901C114.337 150.775 114.918 149.733 115.689 148.838C116.46 147.943 117.404 147.213 118.465 146.693C119.525 146.172 120.68 145.872 121.86 145.81L138.98 144.92L139.35 147.57L143.86 180.49C144.023 181.684 143.949 182.898 143.641 184.062C143.333 185.227 142.798 186.319 142.067 187.276C141.335 188.234 140.422 189.037 139.379 189.64C138.336 190.243 137.184 190.634 135.99 190.79C134.795 190.95 133.579 190.873 132.414 190.562C131.249 190.251 130.156 189.713 129.199 188.979C128.242 188.245 127.439 187.33 126.837 186.285C126.235 185.24 125.845 184.086 125.69 182.89Z" fill="#B78876"/>
<path d="M116 160.1C116.042 160.373 116.188 160.62 116.408 160.788C116.628 160.956 116.905 161.032 117.18 161C117.316 160.991 117.449 160.955 117.57 160.893C117.692 160.832 117.799 160.746 117.886 160.641C117.974 160.536 118.038 160.414 118.077 160.283C118.115 160.153 118.126 160.015 118.11 159.88C118.072 159.604 117.927 159.355 117.706 159.186C117.485 159.017 117.205 158.943 116.93 158.98C116.794 158.989 116.661 159.025 116.539 159.087C116.418 159.148 116.31 159.234 116.223 159.339C116.136 159.444 116.071 159.566 116.033 159.697C115.994 159.827 115.983 159.965 116 160.1Z" fill="#263238"/>
<path d="M115.56 158.62C115.71 158.73 116.41 158.02 117.56 157.84C118.71 157.66 119.56 158.1 119.71 157.94C119.86 157.78 119.59 157.64 119.19 157.44C118.648 157.174 118.035 157.086 117.44 157.19C116.851 157.278 116.307 157.555 115.89 157.98C115.56 158.3 115.48 158.57 115.56 158.62Z" fill="#263238"/>
<path d="M126.72 158.28C126.762 158.553 126.909 158.798 127.13 158.965C127.35 159.131 127.626 159.204 127.9 159.17C128.036 159.163 128.169 159.128 128.291 159.067C128.413 159.006 128.522 158.922 128.61 158.818C128.698 158.714 128.764 158.593 128.803 158.463C128.843 158.332 128.855 158.195 128.84 158.06C128.798 157.787 128.652 157.54 128.432 157.372C128.212 157.204 127.935 157.128 127.66 157.16C127.523 157.167 127.389 157.203 127.267 157.264C127.144 157.325 127.035 157.411 126.947 157.516C126.859 157.621 126.793 157.743 126.754 157.874C126.715 158.006 126.704 158.144 126.72 158.28Z" fill="#263238"/>
<path d="M126.699 157.06C126.849 157.18 127.549 156.46 128.699 156.29C129.849 156.12 130.699 156.54 130.849 156.38C130.999 156.22 130.729 156.09 130.329 155.88C129.784 155.623 129.175 155.536 128.579 155.63C127.993 155.725 127.451 156.001 127.029 156.42C126.699 156.74 126.629 157 126.699 157.06Z" fill="#263238"/>
<path d="M123.93 166.1C123.302 166.015 122.667 166.015 122.04 166.1C121.75 166.1 121.47 166.1 121.39 165.91C121.298 165.62 121.298 165.31 121.39 165.02C121.55 164.28 121.72 163.5 121.9 162.69C122.388 160.702 122.722 158.679 122.9 156.64C122.244 158.597 121.746 160.604 121.41 162.64C121.25 163.46 121.09 164.24 120.95 164.99C120.81 165.361 120.81 165.769 120.95 166.14C121.008 166.235 121.087 166.315 121.18 166.376C121.273 166.436 121.379 166.475 121.49 166.49C121.656 166.511 121.824 166.511 121.99 166.49C122.65 166.443 123.302 166.312 123.93 166.1Z" fill="#263238"/>
<path d="M125.28 179.59C129.145 179.035 132.78 177.419 135.78 174.92C135.78 174.92 134 181 125.69 181.51L125.28 179.59Z" fill="#AA6550"/>
<path d="M127.38 166.35C127.19 166.35 127.38 167.59 126.48 168.63C125.58 169.67 124.24 169.74 124.25 169.91C124.26 170.08 124.58 170.11 125.14 170.03C125.861 169.933 126.522 169.578 127 169.03C127.468 168.511 127.713 167.828 127.68 167.13C127.65 166.61 127.46 166.33 127.38 166.35Z" fill="#263238"/>
<path d="M125.7 152.68C125.86 152.97 126.97 152.68 128.32 152.59C129.67 152.5 130.8 152.73 130.93 152.43C131.06 152.13 130.76 152.03 130.28 151.8C129.643 151.522 128.951 151.395 128.258 151.428C127.564 151.461 126.887 151.653 126.28 151.99C125.84 152.26 125.63 152.54 125.7 152.68Z" fill="#263238"/>
<path d="M115.45 155.28C115.69 155.5 116.45 155.11 117.36 154.95C118.27 154.79 119.12 154.85 119.26 154.55C119.32 154.41 119.15 154.17 118.77 153.99C118.258 153.762 117.689 153.7 117.14 153.81C116.592 153.907 116.088 154.172 115.7 154.57C115.41 154.89 115.34 155.17 115.45 155.28Z" fill="#263238"/>
<path d="M112.71 151.78C112.71 151.78 117.24 153.31 122.44 149.83C125.85 147.55 129.99 146.12 131.02 146.74C132.05 147.36 132.72 151.08 136.47 151.74C136.47 151.74 137.13 158.94 139.96 158.32C141.96 157.88 140.8 149.94 139.96 145.41C139.784 144.534 139.321 143.742 138.643 143.161C137.965 142.579 137.112 142.241 136.22 142.2L130.95 141.99L124.37 143.83L117.31 145.75L111.93 148L112.71 151.78Z" fill="#263238"/>
<path d="M139.33 155.39C139.43 155.32 143.8 153.02 144.61 157.79C145.42 162.56 140.47 162.38 140.43 162.25C140.39 162.12 139.33 155.39 139.33 155.39Z" fill="#B78876"/>
<path d="M141.579 160.19C141.579 160.19 141.679 160.24 141.829 160.28C142.04 160.33 142.262 160.298 142.449 160.19C142.721 159.942 142.924 159.626 143.036 159.275C143.148 158.924 143.167 158.55 143.089 158.19C143.032 157.78 142.885 157.387 142.659 157.04C142.587 156.899 142.482 156.778 142.353 156.686C142.225 156.594 142.076 156.533 141.919 156.51C141.82 156.502 141.721 156.528 141.639 156.584C141.557 156.641 141.497 156.724 141.469 156.82C141.469 156.96 141.469 157.05 141.469 157.07C141.469 157.09 141.359 157 141.359 156.8C141.368 156.677 141.417 156.561 141.499 156.47C141.615 156.349 141.772 156.278 141.939 156.27C142.143 156.274 142.342 156.33 142.517 156.434C142.692 156.537 142.838 156.684 142.939 156.86C143.213 157.238 143.388 157.678 143.449 158.14C143.549 158.561 143.52 159.002 143.366 159.406C143.213 159.811 142.943 160.16 142.589 160.41C142.467 160.468 142.334 160.498 142.199 160.498C142.064 160.498 141.931 160.468 141.809 160.41C141.609 160.31 141.569 160.21 141.579 160.19Z" fill="#AA6550"/>
<path d="M115 139.69C115 139.69 115.16 139.95 115.5 140.33C115.987 140.869 116.608 141.269 117.3 141.49C118.328 141.822 119.427 141.87 120.48 141.63C121.79 141.312 123.076 140.904 124.33 140.41C125.628 139.899 127.015 139.651 128.41 139.68C129.59 139.723 130.706 140.225 131.52 141.08C132.074 141.638 132.411 142.376 132.47 143.16C132.512 143.445 132.463 143.735 132.33 143.99C132.28 143.99 132.33 143.69 132.27 143.18C132.145 142.471 131.794 141.822 131.27 141.33C130.499 140.592 129.477 140.173 128.41 140.16C127.078 140.161 125.759 140.412 124.52 140.9C123.245 141.407 121.931 141.809 120.59 142.1C119.458 142.334 118.283 142.244 117.2 141.84C116.465 141.57 115.825 141.09 115.36 140.46C115 140 115 139.7 115 139.69Z" fill="#455A64"/>
<path d="M131.11 144.26C131.11 144.26 130.87 144.01 130.37 143.66C129.656 143.224 128.836 142.995 128 143C126.732 142.995 125.482 143.301 124.36 143.89C122.957 144.648 121.507 145.316 120.02 145.89C118.608 146.328 117.122 146.471 115.653 146.312C114.184 146.152 112.763 145.692 111.48 144.96C110.703 144.523 109.992 143.977 109.37 143.34C109.127 143.123 108.924 142.866 108.77 142.58C109.655 143.363 110.62 144.05 111.65 144.63C114.178 145.957 117.128 146.234 119.86 145.4C121.326 144.807 122.761 144.139 124.16 143.4C125.353 142.796 126.683 142.513 128.02 142.58C128.927 142.615 129.802 142.933 130.52 143.49C130.782 143.689 130.986 143.955 131.11 144.26Z" fill="#455A64"/>
<path d="M116.3 225.52L93.0799 205.73L85.4199 207.46C85.4199 207.46 93.4899 224.24 99.3299 230.39C99.3299 230.39 105.1 238.11 114.62 234.77C124.14 231.43 116.3 225.52 116.3 225.52Z" fill="#B78876"/>
<path d="M91.3201 183.93H81.4501C81.0777 183.95 80.7144 184.053 80.3868 184.231C80.0591 184.41 79.7753 184.659 79.556 184.96C79.3366 185.262 79.1873 185.609 79.1188 185.976C79.0504 186.342 79.0645 186.719 79.1601 187.08L89.0901 206.41C89.2784 206.778 89.5649 207.087 89.9179 207.302C90.2709 207.518 90.6766 207.631 91.0901 207.63H103.09C103.372 207.599 103.642 207.498 103.876 207.337C104.11 207.175 104.3 206.959 104.429 206.707C104.559 206.454 104.624 206.173 104.619 205.89C104.614 205.606 104.539 205.328 104.4 205.08L94.8301 186.15C94.5043 185.494 94.0047 184.94 93.3858 184.549C92.7669 184.157 92.0523 183.943 91.3201 183.93Z" fill="#455A64"/>
<path d="M90.6602 185.1H80.7902C80.5069 185.098 80.228 185.169 79.9802 185.307C79.7324 185.444 79.5241 185.643 79.3755 185.884C79.2268 186.125 79.1427 186.4 79.1312 186.683C79.1198 186.966 79.1814 187.248 79.3102 187.5L89.0002 206.41C89.1903 206.777 89.4772 207.084 89.8298 207.299C90.1824 207.514 90.5872 207.629 91.0002 207.63H102.9C103.064 207.623 103.223 207.576 103.364 207.494C103.505 207.411 103.624 207.295 103.71 207.156C103.795 207.017 103.846 206.859 103.856 206.696C103.867 206.532 103.837 206.369 103.77 206.22L94.1902 187.3C93.8665 186.64 93.3641 186.084 92.7401 185.695C92.1161 185.306 91.3955 185.1 90.6602 185.1Z" fill="#263238"/>
<path d="M89.82 193L83.82 195.4L82.54 200.24L85.43 207.44L96 209L92.9 205.83L93.29 203.06C93.29 203.06 96.29 202.13 96.29 201.68C96.29 201.23 95.92 199.68 95.47 199.63C94.2862 199.9 93.1258 200.265 92 200.72C92 200.72 95.67 197.81 95.57 197.34C95.47 196.87 95.07 195.68 94.34 195.54C93.61 195.4 87.67 198.21 87.67 198.21L86.67 200.4L85.83 196.89C85.83 196.89 91.12 195.41 89.82 193Z" fill="#B78876"/>
<path d="M90.5796 204.36C90.5796 204.36 90.4296 204.16 90.3696 203.76C90.3064 203.251 90.364 202.734 90.5377 202.251C90.7115 201.768 90.9964 201.332 91.3696 200.98C91.6696 200.72 91.8996 200.63 91.9196 200.66C91.4632 201.165 91.0887 201.739 90.8096 202.36C90.6316 203.011 90.554 203.686 90.5796 204.36Z" fill="#AA6550"/>
<path d="M87.7197 203.31C87.8368 202.793 87.917 202.268 87.9597 201.74C87.984 201.149 88.0849 200.565 88.2597 200C88.374 199.637 88.5734 199.307 88.8413 199.038C89.1093 198.768 89.4379 198.567 89.7997 198.45C91.2297 197.93 92.5297 197.51 93.4697 197.2C93.9723 197.01 94.4911 196.866 95.0197 196.77C94.5542 197.036 94.0614 197.25 93.5497 197.41C92.6197 197.77 91.3197 198.23 89.9097 198.74C89.5804 198.853 89.28 199.038 89.0297 199.28C88.8077 199.515 88.6374 199.795 88.5297 200.1C88.3466 200.641 88.2291 201.201 88.1797 201.77C88.1603 202.314 88.002 202.844 87.7197 203.31Z" fill="#AA6550"/>
<path d="M86.3395 202.23C86.2449 201.839 86.2449 201.431 86.3395 201.04C86.4495 200.4 86.5995 199.9 86.6895 199.91C86.7834 200.301 86.7834 200.709 86.6895 201.1C86.5795 201.74 86.4295 202.24 86.3395 202.23Z" fill="#AA6550"/>
<path d="M86.1797 188.75C86.1797 188.999 86.2536 189.243 86.3921 189.45C86.5305 189.657 86.7273 189.819 86.9575 189.914C87.1878 190.009 87.4411 190.034 87.6855 189.986C87.93 189.937 88.1545 189.817 88.3307 189.641C88.5069 189.465 88.6269 189.24 88.6755 188.996C88.7241 188.751 88.6992 188.498 88.6038 188.268C88.5084 188.038 88.347 187.841 88.1397 187.702C87.9325 187.564 87.6889 187.49 87.4397 187.49C87.2739 187.489 87.1094 187.52 86.956 187.583C86.8025 187.646 86.6631 187.739 86.5458 187.856C86.4285 187.973 86.3358 188.113 86.2729 188.266C86.2101 188.42 86.1784 188.584 86.1797 188.75Z" fill="#FAFAFA"/>
<path d="M51.5998 379.36C53.1662 379.845 54.6183 380.642 55.8693 381.702C57.1202 382.763 58.1442 384.064 58.8799 385.53C60.3377 388.475 61.1006 391.714 61.1099 395C61.3099 401.32 58.6898 408.12 55.5998 413.65C49.6898 409.85 47.3299 402 46.3699 398C44.8699 391.62 46.0198 379.18 51.5998 379.35" fill="#92E3A9"/>
<path d="M63.1908 423.05C62.5747 421.322 62.426 419.463 62.7596 417.659C63.0933 415.856 63.8975 414.173 65.0908 412.78C66.3086 411.41 67.7876 410.296 69.4412 409.504C71.0948 408.713 72.8897 408.259 74.7208 408.17C76.4008 408.05 78.2808 408.27 79.4308 409.51C79.9362 410.12 80.2694 410.855 80.396 411.637C80.5225 412.419 80.4379 413.221 80.1508 413.96C79.5531 415.431 78.5767 416.718 77.3208 417.69C73.1908 421.21 68.5508 423.85 63.1908 423.05Z" fill="#92E3A9"/>
<path d="M59.2499 443.12C59.2045 442.688 59.2045 442.252 59.2499 441.82C59.2499 440.89 59.3299 439.7 59.3799 438.27C59.419 434.331 60.0944 430.424 61.3799 426.7C62.7241 422.969 65.0365 419.663 68.0799 417.12C69.0034 416.373 70.0101 415.736 71.0799 415.22C71.4599 415.03 71.7799 414.94 71.9799 414.85C72.1799 414.76 72.2999 414.74 72.3099 414.76C69.8427 415.98 67.6424 417.678 65.8365 419.755C64.0306 421.832 62.6551 424.247 61.7899 426.86C60.5385 430.547 59.8409 434.399 59.7199 438.29C59.6199 439.78 59.5299 440.99 59.4499 441.83C59.4189 442.265 59.352 442.696 59.2499 443.12Z" fill="#263238"/>
<path d="M51.5606 388.91C51.6205 389.09 51.6673 389.274 51.7006 389.46C51.7873 389.873 51.8973 390.403 52.0306 391.05C52.3106 392.43 52.6906 394.44 53.1306 396.92C54.0206 401.92 55.1306 408.77 56.2206 416.39C57.3106 424.01 58.1206 430.93 58.6406 435.95C58.9006 438.46 59.0906 440.49 59.2106 441.9C59.2573 442.567 59.2973 443.107 59.3306 443.52C59.3593 443.706 59.3593 443.894 59.3306 444.08C59.2807 443.897 59.2473 443.709 59.2306 443.52C59.1806 443.11 59.1106 442.58 59.0206 441.91C58.8406 440.46 58.6006 438.45 58.3006 435.99C57.7006 430.99 56.8306 424.07 55.7606 416.45C54.6906 408.83 53.6106 402 52.8106 397C52.4106 394.55 52.0906 392.55 51.8106 391.1C51.7106 390.44 51.6306 389.91 51.5606 389.5C51.5345 389.304 51.5345 389.106 51.5606 388.91Z" fill="#263238"/>
<path d="M54.6703 428.16C53.4939 424.484 51.4591 421.141 48.7342 418.407C46.0093 415.674 42.6727 413.628 39.0003 412.44C37.1203 411.85 34.7603 411.64 33.5003 413.15C32.2403 414.66 32.9203 416.96 33.8903 418.67C35.9768 422.203 39.0632 425.038 42.7598 426.818C46.4565 428.598 50.5976 429.242 54.6603 428.67" fill="#92E3A9"/>
<path d="M40.6706 418.22C41.0729 418.291 41.4678 418.398 41.8506 418.54C42.3103 418.675 42.7612 418.839 43.2006 419.03C43.7206 419.26 44.3306 419.46 44.9506 419.8C45.636 420.135 46.3035 420.506 46.9506 420.91C47.7123 421.369 48.4499 421.866 49.1606 422.4C52.4331 424.858 55.0558 428.078 56.8006 431.78C57.1797 432.584 57.5136 433.409 57.8006 434.25C58.0635 434.976 58.2806 435.717 58.4506 436.47C58.606 437.089 58.7261 437.717 58.8106 438.35C58.8975 438.823 58.9543 439.3 58.9806 439.78C59.022 440.185 59.0287 440.594 59.0006 441C58.8906 441 58.8206 439.25 58.1106 436.54C57.9214 435.805 57.6944 435.081 57.4306 434.37C57.1437 433.545 56.8098 432.737 56.4306 431.95C55.5438 430.173 54.4676 428.496 53.2206 426.95C51.9383 425.409 50.497 424.008 48.9206 422.77C48.23 422.237 47.5124 421.739 46.7706 421.28C46.1253 420.861 45.4576 420.477 44.7706 420.13C42.3206 418.8 40.6306 418.31 40.6706 418.22Z" fill="#263238"/>
</svg>
