<svg width="450" height="500" viewBox="0 0 500 500" fill="none" xmlns="http://www.w3.org/2000/svg">
<path d="M461.993 210.745C461.517 192.192 460.391 173.756 452.986 155.71C434.308 110.19 398.543 71.766 356.5 46.702C320.158 25.037 265.96 8.72 225.999 31.017C203.597 43.517 185.492 62.688 165.535 78.527C156.562 85.648 146.961 93.23 136.137 97.335C122.257 102.599 107.351 102.158 93.5621 108.32C60.3671 123.154 28.3171 150.428 20.3041 187.918C10.6921 232.893 38.0181 273.794 48.5981 316.253C54.3471 339.322 52.1991 360.276 46.3871 383.058C41.8531 400.836 27.4901 425.37 29.0001 443.913C30.0001 456.188 33.0001 464 33.0001 464C33.0001 464 463.736 464 464 464C471.412 464 482.726 411.404 483.778 406.472C489.681 378.796 492.337 349.982 487.659 321.909C484.192 301.106 471.049 283.763 466.36 263.466C462.312 245.942 462.443 228.291 461.993 210.745Z" fill="#92E3A9"/>
<path opacity="0.7" d="M461.993 210.745C461.517 192.192 460.391 173.756 452.986 155.71C434.308 110.19 398.543 71.766 356.5 46.702C320.158 25.037 265.96 8.72 225.999 31.017C203.597 43.517 185.492 62.688 165.535 78.527C156.562 85.648 146.961 93.23 136.137 97.335C122.257 102.599 107.351 102.158 93.5621 108.32C60.3671 123.154 28.3171 150.428 20.3041 187.918C10.6921 232.893 38.0181 273.794 48.5981 316.253C54.3471 339.322 52.1991 360.276 46.3871 383.058C41.8531 400.836 27.4901 425.37 29.0001 443.913C30.0001 456.188 33.0001 464 33.0001 464C33.0001 464 463.736 464 464 464C471.412 464 482.726 411.404 483.778 406.472C489.681 378.796 492.337 349.982 487.659 321.909C484.192 301.106 471.049 283.763 466.36 263.466C462.312 245.942 462.443 228.291 461.993 210.745Z" fill="white"/>
<g opacity="0.3">
<path d="M208.721 303.946H199.987V312.747H208.721V303.946Z" stroke="black" stroke-miterlimit="10"/>
<path d="M194.085 309.273H190.544V312.747H194.085V309.273Z" stroke="black" stroke-miterlimit="10"/>
<path d="M28.792 171.743V425.898" stroke="black" stroke-miterlimit="10"/>
<path d="M103.696 132.647H90.375V124.827H50.297V133.162H28.792V164.605" stroke="black" stroke-miterlimit="10"/>
<path d="M443.612 333.175V393.557H423.263V170.694H353.497V339.234H327.991V320.575H334.671V312.687H278.887V199.618H282.497V193.702H214.788V199.618H219.643V312.879H166.131V393.881H138.031V146.332H119.7V132.647H109.736" stroke="black" stroke-miterlimit="10"/>
<path d="M483.187 282.448H440.924V289.678H443.612V327.135" stroke="black" stroke-miterlimit="10"/>
<path d="M426.043 168.257H350.391V170.677H426.043V168.257Z" stroke="black" stroke-miterlimit="10"/>
<path d="M234.223 206.192H225.702V215.314H234.223V206.192Z" stroke="black" stroke-miterlimit="10"/>
<path d="M246.721 206.192H238.2V215.314H246.721V206.192Z" stroke="black" stroke-miterlimit="10"/>
<path d="M259.219 206.192H250.698V215.314H259.219V206.192Z" stroke="black" stroke-miterlimit="10"/>
<path d="M271.717 206.192H263.196V215.314H271.717V206.192Z" stroke="black" stroke-miterlimit="10"/>
<path d="M234.223 220.654H225.702V229.776H234.223V220.654Z" stroke="black" stroke-miterlimit="10"/>
<path d="M246.721 220.654H238.2V229.776H246.721V220.654Z" stroke="black" stroke-miterlimit="10"/>
<path d="M259.219 220.654H250.698V229.776H259.219V220.654Z" stroke="black" stroke-miterlimit="10"/>
<path d="M271.717 220.654H263.196V229.776H271.717V220.654Z" stroke="black" stroke-miterlimit="10"/>
<path d="M234.223 235.117H225.702V244.239H234.223V235.117Z" stroke="black" stroke-miterlimit="10"/>
<path d="M246.721 235.117H238.2V244.239H246.721V235.117Z" stroke="black" stroke-miterlimit="10"/>
<path d="M259.219 235.117H250.698V244.239H259.219V235.117Z" stroke="black" stroke-miterlimit="10"/>
<path d="M271.717 235.117H263.196V244.239H271.717V235.117Z" stroke="black" stroke-miterlimit="10"/>
<path d="M234.223 249.579H225.702V258.701H234.223V249.579Z" stroke="black" stroke-miterlimit="10"/>
<path d="M246.721 249.579H238.2V258.701H246.721V249.579Z" stroke="black" stroke-miterlimit="10"/>
<path d="M259.219 249.579H250.698V258.701H259.219V249.579Z" stroke="black" stroke-miterlimit="10"/>
<path d="M271.717 249.579H263.196V258.701H271.717V249.579Z" stroke="black" stroke-miterlimit="10"/>
<path d="M234.223 264.041H225.702V273.163H234.223V264.041Z" stroke="black" stroke-miterlimit="10"/>
<path d="M246.721 264.041H238.2V273.163H246.721V264.041Z" stroke="black" stroke-miterlimit="10"/>
<path d="M259.219 264.041H250.698V273.163H259.219V264.041Z" stroke="black" stroke-miterlimit="10"/>
<path d="M271.717 264.041H263.196V273.163H271.717V264.041Z" stroke="black" stroke-miterlimit="10"/>
<path d="M234.223 278.503H225.702V287.625H234.223V278.503Z" stroke="black" stroke-miterlimit="10"/>
<path d="M246.721 278.503H238.2V287.625H246.721V278.503Z" stroke="black" stroke-miterlimit="10"/>
<path d="M259.219 278.503H250.698V287.625H259.219V278.503Z" stroke="black" stroke-miterlimit="10"/>
<path d="M271.717 278.503H263.196V287.625H271.717V278.503Z" stroke="black" stroke-miterlimit="10"/>
<path d="M234.223 292.965H225.702V302.087H234.223V292.965Z" stroke="black" stroke-miterlimit="10"/>
<path d="M246.721 292.965H238.2V302.087H246.721V292.965Z" stroke="black" stroke-miterlimit="10"/>
<path d="M259.219 292.965H250.698V302.087H259.219V292.965Z" stroke="black" stroke-miterlimit="10"/>
<path d="M271.717 292.965H263.196V302.087H271.717V292.965Z" stroke="black" stroke-miterlimit="10"/>
<path d="M234.223 307.428H225.702V316.55H234.223V307.428Z" stroke="black" stroke-miterlimit="10"/>
<path d="M246.721 307.428H238.2V316.55H246.721V307.428Z" stroke="black" stroke-miterlimit="10"/>
<path d="M259.219 307.428H250.698V316.55H259.219V307.428Z" stroke="black" stroke-miterlimit="10"/>
<path d="M271.717 307.428H263.196V316.55H271.717V307.428Z" stroke="black" stroke-miterlimit="10"/>
<path d="M234.223 320.656H225.702V329.778H234.223V320.656Z" stroke="black" stroke-miterlimit="10"/>
<path d="M246.721 320.656H238.2V329.778H246.721V320.656Z" stroke="black" stroke-miterlimit="10"/>
<path d="M259.219 320.656H250.698V329.778H259.219V320.656Z" stroke="black" stroke-miterlimit="10"/>
<path d="M271.717 320.656H263.196V329.778H271.717V320.656Z" stroke="black" stroke-miterlimit="10"/>
<path d="M234.223 335.118H225.702V344.24H234.223V335.118Z" stroke="black" stroke-miterlimit="10"/>
<path d="M246.721 335.118H238.2V344.24H246.721V335.118Z" stroke="black" stroke-miterlimit="10"/>
<path d="M259.219 335.118H250.698V344.24H259.219V335.118Z" stroke="black" stroke-miterlimit="10"/>
<path d="M271.717 335.118H263.196V344.24H271.717V335.118Z" stroke="black" stroke-miterlimit="10"/>
<path d="M234.223 349.581H225.702V358.703H234.223V349.581Z" stroke="black" stroke-miterlimit="10"/>
<path d="M246.721 349.581H238.2V358.703H246.721V349.581Z" stroke="black" stroke-miterlimit="10"/>
<path d="M259.219 349.581H250.698V358.703H259.219V349.581Z" stroke="black" stroke-miterlimit="10"/>
<path d="M271.717 349.581H263.196V358.703H271.717V349.581Z" stroke="black" stroke-miterlimit="10"/>
<path d="M234.223 364.043H225.702V373.165H234.223V364.043Z" stroke="black" stroke-miterlimit="10"/>
<path d="M246.721 364.043H238.2V373.165H246.721V364.043Z" stroke="black" stroke-miterlimit="10"/>
<path d="M259.219 364.043H250.698V373.165H259.219V364.043Z" stroke="black" stroke-miterlimit="10"/>
<path d="M271.717 364.043H263.196V373.165H271.717V364.043Z" stroke="black" stroke-miterlimit="10"/>
<path d="M234.223 378.505H225.702V387.627H234.223V378.505Z" stroke="black" stroke-miterlimit="10"/>
<path d="M246.721 378.505H238.2V387.627H246.721V378.505Z" stroke="black" stroke-miterlimit="10"/>
<path d="M259.219 378.505H250.698V387.627H259.219V378.505Z" stroke="black" stroke-miterlimit="10"/>
<path d="M271.717 378.505H263.196V387.627H271.717V378.505Z" stroke="black" stroke-miterlimit="10"/>
<path d="M234.223 392.967H225.702V402.089H234.223V392.967Z" stroke="black" stroke-miterlimit="10"/>
<path d="M246.721 392.967H238.2V402.089H246.721V392.967Z" stroke="black" stroke-miterlimit="10"/>
<path d="M259.219 392.967H250.698V402.089H259.219V392.967Z" stroke="black" stroke-miterlimit="10"/>
<path d="M271.717 392.967H263.196V402.089H271.717V392.967Z" stroke="black" stroke-miterlimit="10"/>
<path d="M283.038 320.656H274.517V329.778H283.038V320.656Z" stroke="black" stroke-miterlimit="10"/>
<path d="M295.536 320.656H287.015V329.778H295.536V320.656Z" stroke="black" stroke-miterlimit="10"/>
<path d="M308.035 320.656H299.513V329.778H308.035V320.656Z" stroke="black" stroke-miterlimit="10"/>
<path d="M320.532 320.656H312.011V329.778H320.532V320.656Z" stroke="black" stroke-miterlimit="10"/>
<path d="M283.038 335.118H274.517V344.24H283.038V335.118Z" stroke="black" stroke-miterlimit="10"/>
<path d="M295.536 335.118H287.015V344.24H295.536V335.118Z" stroke="black" stroke-miterlimit="10"/>
<path d="M308.035 335.118H299.513V344.24H308.035V335.118Z" stroke="black" stroke-miterlimit="10"/>
<path d="M320.532 335.118H312.011V344.24H320.532V335.118Z" stroke="black" stroke-miterlimit="10"/>
<path d="M283.038 349.581H274.517V358.703H283.038V349.581Z" stroke="black" stroke-miterlimit="10"/>
<path d="M295.536 349.581H287.015V358.703H295.536V349.581Z" stroke="black" stroke-miterlimit="10"/>
<path d="M308.035 349.581H299.513V358.703H308.035V349.581Z" stroke="black" stroke-miterlimit="10"/>
<path d="M320.532 349.581H312.011V358.703H320.532V349.581Z" stroke="black" stroke-miterlimit="10"/>
<path d="M283.038 364.043H274.517V373.165H283.038V364.043Z" stroke="black" stroke-miterlimit="10"/>
<path d="M295.536 364.043H287.015V373.165H295.536V364.043Z" stroke="black" stroke-miterlimit="10"/>
<path d="M308.035 364.043H299.513V373.165H308.035V364.043Z" stroke="black" stroke-miterlimit="10"/>
<path d="M320.532 364.043H312.011V373.165H320.532V364.043Z" stroke="black" stroke-miterlimit="10"/>
<path d="M283.038 378.505H274.517V387.627H283.038V378.505Z" stroke="black" stroke-miterlimit="10"/>
<path d="M295.536 378.505H287.015V387.627H295.536V378.505Z" stroke="black" stroke-miterlimit="10"/>
<path d="M308.035 378.505H299.513V387.627H308.035V378.505Z" stroke="black" stroke-miterlimit="10"/>
<path d="M320.532 378.505H312.011V387.627H320.532V378.505Z" stroke="black" stroke-miterlimit="10"/>
<path d="M283.038 392.967H274.517V402.089H283.038V392.967Z" stroke="black" stroke-miterlimit="10"/>
<path d="M295.536 392.967H287.015V402.089H295.536V392.967Z" stroke="black" stroke-miterlimit="10"/>
<path d="M308.035 392.967H299.513V402.089H308.035V392.967Z" stroke="black" stroke-miterlimit="10"/>
<path d="M320.532 392.967H312.011V402.089H320.532V392.967Z" stroke="black" stroke-miterlimit="10"/>
<path d="M184.72 320.656H176.199V329.778H184.72V320.656Z" stroke="black" stroke-miterlimit="10"/>
<path d="M197.218 320.656H188.697V329.778H197.218V320.656Z" stroke="black" stroke-miterlimit="10"/>
<path d="M209.716 320.656H201.195V329.778H209.716V320.656Z" stroke="black" stroke-miterlimit="10"/>
<path d="M222.215 320.656H213.694V329.778H222.215V320.656Z" stroke="black" stroke-miterlimit="10"/>
<path d="M184.72 335.118H176.199V344.24H184.72V335.118Z" stroke="black" stroke-miterlimit="10"/>
<path d="M197.218 335.118H188.697V344.24H197.218V335.118Z" stroke="black" stroke-miterlimit="10"/>
<path d="M209.716 335.118H201.195V344.24H209.716V335.118Z" stroke="black" stroke-miterlimit="10"/>
<path d="M222.215 335.118H213.694V344.24H222.215V335.118Z" stroke="black" stroke-miterlimit="10"/>
<path d="M184.72 349.581H176.199V358.703H184.72V349.581Z" stroke="black" stroke-miterlimit="10"/>
<path d="M197.218 349.581H188.697V358.703H197.218V349.581Z" stroke="black" stroke-miterlimit="10"/>
<path d="M209.716 349.581H201.195V358.703H209.716V349.581Z" stroke="black" stroke-miterlimit="10"/>
<path d="M222.215 349.581H213.694V358.703H222.215V349.581Z" stroke="black" stroke-miterlimit="10"/>
<path d="M184.72 364.043H176.199V373.165H184.72V364.043Z" stroke="black" stroke-miterlimit="10"/>
<path d="M197.218 364.043H188.697V373.165H197.218V364.043Z" stroke="black" stroke-miterlimit="10"/>
<path d="M209.716 364.043H201.195V373.165H209.716V364.043Z" stroke="black" stroke-miterlimit="10"/>
<path d="M222.215 364.043H213.694V373.165H222.215V364.043Z" stroke="black" stroke-miterlimit="10"/>
<path d="M184.72 378.505H176.199V387.627H184.72V378.505Z" stroke="black" stroke-miterlimit="10"/>
<path d="M197.218 378.505H188.697V387.627H197.218V378.505Z" stroke="black" stroke-miterlimit="10"/>
<path d="M209.716 378.505H201.195V387.627H209.716V378.505Z" stroke="black" stroke-miterlimit="10"/>
<path d="M222.215 378.505H213.694V387.627H222.215V378.505Z" stroke="black" stroke-miterlimit="10"/>
<path d="M184.72 392.967H176.199V402.089H184.72V392.967Z" stroke="black" stroke-miterlimit="10"/>
<path d="M197.218 392.967H188.697V402.089H197.218V392.967Z" stroke="black" stroke-miterlimit="10"/>
<path d="M209.716 392.967H201.195V402.089H209.716V392.967Z" stroke="black" stroke-miterlimit="10"/>
<path d="M222.215 392.967H213.694V402.089H222.215V392.967Z" stroke="black" stroke-miterlimit="10"/>
<path d="M463.908 292.308H455.386V301.43H463.908V292.308Z" stroke="black" stroke-miterlimit="10"/>
<path d="M476.406 292.308H467.885V301.43H476.406V292.308Z" stroke="black" stroke-miterlimit="10"/>
<path d="M463.908 306.77H455.386V315.892H463.908V306.77Z" stroke="black" stroke-miterlimit="10"/>
<path d="M476.406 306.77H467.885V315.892H476.406V306.77Z" stroke="black" stroke-miterlimit="10"/>
<path d="M463.908 321.233H455.386V330.355H463.908V321.233Z" stroke="black" stroke-miterlimit="10"/>
<path d="M476.406 321.233H467.885V330.355H476.406V321.233Z" stroke="black" stroke-miterlimit="10"/>
<path d="M463.908 335.695H455.386V344.817H463.908V335.695Z" stroke="black" stroke-miterlimit="10"/>
<path d="M476.406 335.695H467.885V344.817H476.406V335.695Z" stroke="black" stroke-miterlimit="10"/>
<path d="M463.908 350.157H455.386V359.279H463.908V350.157Z" stroke="black" stroke-miterlimit="10"/>
<path d="M476.406 350.157H467.885V359.279H476.406V350.157Z" stroke="black" stroke-miterlimit="10"/>
<path d="M463.908 364.619H455.386V373.741H463.908V364.619Z" stroke="black" stroke-miterlimit="10"/>
<path d="M476.406 364.619H467.885V373.741H476.406V364.619Z" stroke="black" stroke-miterlimit="10"/>
<path d="M463.908 379.081H455.386V388.203H463.908V379.081Z" stroke="black" stroke-miterlimit="10"/>
<path d="M476.406 379.081H467.885V388.203H476.406V379.081Z" stroke="black" stroke-miterlimit="10"/>
<path d="M463.908 393.543H455.386V402.665H463.908V393.543Z" stroke="black" stroke-miterlimit="10"/>
<path d="M476.406 393.543H467.885V402.665H476.406V393.543Z" stroke="black" stroke-miterlimit="10"/>
<path d="M360.068 175.953V408.937" stroke="black" stroke-miterlimit="10"/>
<path d="M368.52 357.335V408.937" stroke="black" stroke-miterlimit="10"/>
<path d="M368.52 247.517V351.844" stroke="black" stroke-miterlimit="10"/>
<path d="M368.52 175.953V240.928" stroke="black" stroke-miterlimit="10"/>
<path d="M376.972 175.953V408.937" stroke="black" stroke-miterlimit="10"/>
<path d="M385.424 231.044V408.937" stroke="black" stroke-miterlimit="10"/>
<path d="M385.424 175.953V224.455" stroke="black" stroke-miterlimit="10"/>
<path d="M393.875 175.953V408.937" stroke="black" stroke-miterlimit="10"/>
<path d="M402.327 288.15V408.937" stroke="black" stroke-miterlimit="10"/>
<path d="M402.327 175.953V279.913" stroke="black" stroke-miterlimit="10"/>
<path d="M410.779 175.953V408.937" stroke="black" stroke-miterlimit="10"/>
<path d="M419.231 175.953V408.937" stroke="black" stroke-miterlimit="10"/>
<path d="M29.2812 150.731H137.784" stroke="black" stroke-miterlimit="10"/>
<path d="M38.0791 316.153V426.875" stroke="black" stroke-miterlimit="10"/>
<path d="M38.0791 156.596V307.917" stroke="black" stroke-miterlimit="10"/>
<path d="M42.9658 228.848V426.875" stroke="black" stroke-miterlimit="10"/>
<path d="M42.9658 156.596V222.259" stroke="black" stroke-miterlimit="10"/>
<path d="M57.6289 156.596V426.875" stroke="black" stroke-miterlimit="10"/>
<path d="M62.5156 156.596V426.875" stroke="black" stroke-miterlimit="10"/>
<path d="M77.1787 156.596V426.875" stroke="black" stroke-miterlimit="10"/>
<path d="M82.0664 197.55V426.875" stroke="black" stroke-miterlimit="10"/>
<path d="M82.0664 156.596V189.314" stroke="black" stroke-miterlimit="10"/>
<path d="M96.7285 156.596V426.875" stroke="black" stroke-miterlimit="10"/>
<path d="M101.616 414.989V426.875" stroke="black" stroke-miterlimit="10"/>
<path d="M101.616 156.596V406.204" stroke="black" stroke-miterlimit="10"/>
<path d="M116.279 156.596V426.875" stroke="black" stroke-miterlimit="10"/>
<path d="M121.166 156.596V426.875" stroke="black" stroke-miterlimit="10"/>
</g>
<path d="M80.4089 375.273C80.4089 392.315 68.6959 398.885 54.2479 398.885C39.7999 398.885 28.0869 392.315 28.0869 375.273C28.0869 358.231 39.7999 320 54.2479 320C68.6959 320 80.4089 358.232 80.4089 375.273Z" fill="#92E3A9"/>
<path opacity="0.6" d="M80.4089 375.273C80.4089 392.315 68.6959 398.885 54.2479 398.885C39.7999 398.885 28.0869 392.315 28.0869 375.273C28.0869 358.231 39.7999 320 54.2479 320C68.6959 320 80.4089 358.232 80.4089 375.273Z" fill="white"/>
<path d="M43.71 379.314L51.547 382.904L50.058 464.894H55.7L54.651 389.684L64.929 384.1L70.157 386.693L66.515 383.502L71.836 379.713L58.378 385.895L60.306 381.907L56.39 386.294L54.798 386.493L54.532 382.505L69.391 364.556L62.125 371.337L62.969 362.163L66.985 351.793L62.544 360.568L62.375 350.397L60.735 371.736L57.614 375.924L57.125 370.539L55.44 377.12L54.09 379.912L54.926 358.174L59.57 349.599L54.667 354.585L53.701 344.414L52.808 362.761L42.821 349.798L52.24 364.556L52.16 371.736L45.319 368.146L45.822 362.363L44.11 367.348L37.266 363.559L52 374.129L51.707 380.511L33.656 374.328L42.304 378.716L32.791 382.305L43.71 379.314Z" fill="#B2B2B2"/>
<path d="M213.129 413.273C213.129 430.315 201.416 436.885 186.968 436.885C172.52 436.885 160.807 430.315 160.807 413.273C160.807 396.231 172.52 358 186.968 358C201.416 358 213.129 396.232 213.129 413.273Z" fill="#92E3A9"/>
<path opacity="0.6" d="M213.129 413.273C213.129 430.315 201.416 436.885 186.968 436.885C172.52 436.885 160.807 430.315 160.807 413.273C160.807 396.231 172.52 358 186.968 358C201.416 358 213.129 396.232 213.129 413.273Z" fill="white"/>
<path d="M176.43 417.314L184.268 420.904L183.477 464.436H187.884L187.372 427.684L197.649 422.1L202.878 424.693L199.235 421.502L204.557 417.713L191.098 423.895L193.026 419.907L189.11 424.294L187.518 424.493L187.253 420.505L202.111 402.556L194.845 409.337L195.69 400.163L199.706 389.793L195.265 398.568L195.096 388.397L193.456 409.736L190.334 413.924L189.846 408.539L188.16 415.12L186.811 417.912L187.646 396.174L192.29 387.599L187.388 392.585L186.421 382.414L185.529 400.761L175.542 387.798L184.96 402.556L184.88 409.736L178.04 406.146L178.542 400.362L176.83 405.348L169.987 401.559L184.72 412.129L184.427 418.511L166.376 412.328L175.024 416.716L165.511 420.305L176.43 417.314Z" fill="#B2B2B2"/>
<path d="M436.408 375.273C436.408 392.315 424.695 398.885 410.247 398.885C395.799 398.885 384.086 392.315 384.086 375.273C384.086 358.231 395.799 320 410.247 320C424.695 320 436.408 358.232 436.408 375.273Z" fill="#92E3A9"/>
<path opacity="0.6" d="M436.408 375.273C436.408 392.315 424.695 398.885 410.247 398.885C395.799 398.885 384.086 392.315 384.086 375.273C384.086 358.231 395.799 320 410.247 320C424.695 320 436.408 358.232 436.408 375.273Z" fill="white"/>
<path d="M399.71 379.314L407.547 382.904L406.058 464.894H411.7L410.651 389.684L420.929 384.1L426.157 386.693L422.514 383.502L427.836 379.713L414.378 385.895L416.306 381.907L412.39 386.294L410.798 386.493L410.532 382.505L425.391 364.556L418.124 371.337L418.969 362.163L422.985 351.793L418.544 360.568L418.375 350.397L416.735 371.736L413.614 375.924L413.125 370.539L411.44 377.12L410.09 379.912L410.926 358.174L415.57 349.599L410.667 354.585L409.701 344.414L408.808 362.761L398.821 349.798L408.24 364.556L408.16 371.736L401.319 368.146L401.822 362.363L400.11 367.348L393.266 363.559L408 374.129L407.707 380.511L389.656 374.328L398.304 378.716L388.791 382.305L399.71 379.314Z" fill="#B2B2B2"/>
<g opacity="0.3">
<path d="M457.414 96.493C453.793 94.518 452.147 96.164 450.831 94.518C449.514 92.872 454.452 88.593 444.577 84.314C444.577 84.314 443.919 75.098 430.423 74.769C416.927 74.44 420.548 83.986 416.927 86.29C413.306 88.594 412.319 84.973 408.698 87.277C405.077 89.581 406.723 94.19 403.761 94.848C400.798 95.506 396.848 91.886 393.228 94.19C389.607 96.494 389.607 98.469 387.961 98.469C386.315 98.469 383.023 97.152 381.048 98.469C379.073 99.786 376.769 101.431 376.769 101.431H460.047C460.047 101.431 461.034 98.468 457.414 96.493Z" stroke="black" stroke-miterlimit="10"/>
<path d="M106.109 94.537C103.509 93.119 102.327 94.301 101.382 93.119C100.437 91.937 103.982 88.865 96.8911 85.792C96.8911 85.792 96.4181 79.175 86.7281 78.938C77.0381 78.702 79.6381 85.556 77.0381 87.21C74.4381 88.864 73.7291 86.265 71.1291 87.919C68.5291 89.573 69.7111 92.882 67.5841 93.355C65.4571 93.828 62.6211 91.228 60.0211 92.882C57.4211 94.536 57.4211 95.954 56.2391 95.954C55.0571 95.954 52.6941 95.009 51.2761 95.954C49.8581 96.9 48.2041 98.081 48.2041 98.081H108C108 98.081 108.709 95.955 106.109 94.537Z" stroke="black" stroke-miterlimit="10"/>
<path d="M407.423 82.88C405.163 81.647 404.136 82.675 403.314 81.647C402.492 80.62 405.574 77.949 399.41 75.278C399.41 75.278 398.999 69.526 390.576 69.32C382.153 69.115 384.413 75.073 382.153 76.511C379.893 77.949 379.277 75.689 377.017 77.127C374.757 78.565 375.784 81.442 373.935 81.852C372.086 82.263 369.62 80.003 367.361 81.441C365.101 82.879 365.101 84.112 364.074 84.112C363.047 84.112 360.992 83.29 359.76 84.112C358.527 84.934 357.089 85.961 357.089 85.961H409.067C409.067 85.961 409.683 84.113 407.423 82.88Z" stroke="black" stroke-miterlimit="10"/>
</g>
<path d="M362.731 152.988V116.486H359.429V69.755C359.429 53.846 346.532 40.95 330.624 40.95H175.898C159.989 40.95 147.093 53.847 147.093 69.755V384.144C147.093 400.053 159.99 412.949 175.898 412.949H330.624C346.533 412.949 359.429 400.052 359.429 384.144V184.098H362.731V162.529H359.429V152.989L362.731 152.988Z" fill="#707070" stroke="#263238" stroke-miterlimit="10" stroke-linejoin="round"/>
<path d="M325.577 408.982H180.944C164.09 408.982 150.427 395.319 150.427 378.465V75.435C150.427 58.581 164.09 44.918 180.944 44.918H325.576C342.43 44.918 356.093 58.581 356.093 75.435V378.465C356.094 395.319 342.431 408.982 325.577 408.982Z" fill="#263238" stroke="#263238" stroke-miterlimit="10" stroke-linejoin="round"/>
<path d="M321.569 47.534H264.45L264.393 47.741C262.703 53.829 258.81 57.779 254.5 57.779H252.021C247.711 57.779 243.818 53.828 242.128 47.741L242.071 47.534H184.952C169.043 47.534 156.147 60.431 156.147 76.339V363.569C156.147 379.478 169.044 392.374 184.952 392.374H321.572C337.481 392.374 350.377 379.477 350.377 363.569V76.339C350.375 60.43 337.478 47.534 321.569 47.534Z" fill="#92E3A9" stroke="#263238" stroke-miterlimit="10" stroke-linecap="round" stroke-linejoin="round"/>
<path opacity="0.5" d="M321.569 47.534H264.45L264.393 47.741C262.703 53.829 258.81 57.779 254.5 57.779H252.021C247.711 57.779 243.818 53.828 242.128 47.741L242.071 47.534H184.952C169.043 47.534 156.147 60.431 156.147 76.339V363.569C156.147 379.478 169.044 392.374 184.952 392.374H321.572C337.481 392.374 350.377 379.477 350.377 363.569V76.339C350.375 60.43 337.478 47.534 321.569 47.534Z" fill="white" stroke="#263238" stroke-miterlimit="10" stroke-linecap="round" stroke-linejoin="round"/>
<path d="M178.981 128.21L163.659 107.051L161.47 152.288L174.604 157.395L178.981 128.21Z" fill="#92E3A9"/>
<path d="M214.003 168.339L183.359 131.858L179.635 162.224L213.424 179.646L214.003 168.339Z" fill="#92E3A9"/>
<path d="M350.376 120.77V76.339C350.376 63.972 342.581 53.428 331.637 49.345L296.884 89.483C293.026 93.939 293.532 100.683 298.012 104.513L327.602 129.808C331.839 133.43 338.155 133.162 342.069 129.193L350.376 120.77Z" fill="#92E3A9"/>
<path d="M212.082 205.807L176.152 190.626L173.874 209.199L211.085 225.251L212.082 205.807Z" fill="#92E3A9"/>
<path d="M176.953 184.09L212.365 200.278L213.134 185.295L178.995 167.438L176.953 184.09Z" fill="#92E3A9"/>
<path d="M241.729 301.861L314.691 300.402L289.885 268.299L241.729 301.861Z" fill="#92E3A9"/>
<path d="M303.467 246.045C303.467 258.068 313.248 267.85 325.271 267.85C337.294 267.85 347.076 258.069 347.076 246.045C347.076 234.022 337.294 224.24 325.271 224.24C313.248 224.24 303.467 234.022 303.467 246.045ZM345.056 246.045C345.056 256.953 336.181 265.829 325.272 265.829C314.363 265.829 305.488 256.954 305.488 246.045C305.488 235.136 314.363 226.261 325.272 226.261C336.18 226.261 345.056 235.136 345.056 246.045Z" fill="white"/>
<path d="M350.376 193.332L297.658 223.569L268.941 194.852L291.409 193.425L291.408 193.415C291.627 193.401 291.844 193.325 292.019 193.168L350.375 140.797V138.082L331.367 155.14L270.259 105.672L317.477 47.533H314.874L247.577 130.394L172.4 50.406C171.77 50.711 171.157 51.044 170.554 51.393L246.292 131.978L240.373 139.266L206.98 105.326C201.132 99.383 191.58 98.963 185.235 104.369L176.231 112.039L156.145 88.23V91.364L218.911 165.761C218.867 165.865 218.838 165.974 218.831 166.088L214.489 236.282L194.487 242.329L194.477 242.309C194.396 242.148 194.274 242.011 194.122 241.913L156.144 217.32V219.727L192.142 243.038L156.144 253.921V256.032L193.441 244.756L205.268 268.411L156.144 291.122V293.347L206.171 270.218L222.401 302.678L156.144 353.933V356.488L291.488 251.788L350.374 321.586V318.452L280.56 235.701L350.374 195.66V193.332H350.376ZM329.845 156.508L312.501 172.073L286.948 148.593L301.384 133.47L329.845 156.508ZM268.986 107.241L299.809 132.193L284.776 147.942C284.589 148.138 284.489 148.401 284.498 148.673C284.507 148.944 284.624 149.2 284.824 149.384L310.991 173.429L291.388 191.022L241.801 140.716L268.986 107.241ZM240.518 142.294L289.071 191.549L245.64 194.307L221.507 165.703L240.518 142.294ZM177.535 113.583L186.546 105.907C192.088 101.185 200.432 101.552 205.54 106.743L239.091 140.845L220.18 164.13L177.535 113.583ZM220.743 167.931L265.419 220.885L216.554 235.658L220.743 167.931ZM266.823 222.55L277.386 235.07L230.602 256.7L217.162 237.586L266.829 222.57L266.823 222.55ZM195.405 244.163L215.125 238.201L228.738 257.561L207.105 267.562L195.405 244.163ZM224.031 301.417L208.007 269.369L229.917 259.239L247.052 283.608L224.031 301.417ZM290.185 250.242L248.652 282.372L231.782 258.379L278.735 236.671L290.185 250.242ZM279.239 234.134L247.26 196.229L266.889 194.983L266.551 195.321L295.841 224.611L279.239 234.134Z" fill="white"/>
<path d="M316.6 246.045C316.6 250.826 320.49 254.717 325.271 254.717C330.053 254.717 333.943 250.826 333.943 246.045C333.943 241.264 330.052 237.374 325.271 237.374C320.49 237.374 316.6 241.264 316.6 246.045ZM331.923 246.045C331.923 249.712 328.939 252.696 325.272 252.696C321.605 252.696 318.622 249.712 318.622 246.045C318.622 242.378 321.606 239.394 325.272 239.394C328.939 239.394 331.923 242.378 331.923 246.045Z" fill="white"/>
<path d="M156.145 293.106V363.569C156.145 379.478 169.042 392.374 184.95 392.374H321.57C337.479 392.374 350.375 379.477 350.375 363.569V293.106H156.145Z" fill="white" stroke="#263238" stroke-miterlimit="10" stroke-linejoin="round"/>
<path d="M343.857 315.05C343.839 314.959 343.824 314.879 343.812 314.808C343.732 314.364 343.705 314.214 343.191 313.586C342.72 313.01 342.556 312.609 342.519 312.504C342.524 312.479 342.533 312.439 342.543 312.391C342.547 312.373 342.551 312.352 342.556 312.331C342.56 312.314 342.563 312.297 342.567 312.278C342.572 312.255 342.577 312.23 342.582 312.206C342.585 312.192 342.587 312.18 342.59 312.165C342.596 312.138 342.601 312.108 342.607 312.079C342.61 312.065 342.612 312.052 342.615 312.037C342.621 312.008 342.627 311.978 342.633 311.947C342.636 311.93 342.64 311.914 342.643 311.897C342.649 311.867 342.655 311.836 342.661 311.805C342.665 311.786 342.668 311.767 342.672 311.748C342.677 311.719 342.683 311.69 342.688 311.66C342.692 311.637 342.696 311.614 342.701 311.591C342.706 311.564 342.711 311.536 342.716 311.509C342.721 311.483 342.725 311.457 342.73 311.432C342.735 311.406 342.739 311.381 342.743 311.356C342.748 311.33 342.752 311.304 342.756 311.278C342.76 311.253 342.764 311.229 342.768 311.204C342.772 311.177 342.776 311.151 342.78 311.125C342.783 311.103 342.787 311.08 342.79 311.058C342.794 311.031 342.797 311.005 342.801 310.979C342.804 310.959 342.806 310.939 342.809 310.92C342.812 310.894 342.815 310.869 342.818 310.844C342.82 310.827 342.822 310.81 342.824 310.794C342.827 310.768 342.829 310.744 342.83 310.72C342.831 310.708 342.832 310.694 342.833 310.682C342.835 310.648 342.836 310.616 342.836 310.589C342.836 310.44 342.795 310.326 342.715 310.249C342.627 310.166 342.51 310.144 342.39 310.14C342.28 310.123 342.171 310.126 342.094 310.133C342.016 309.916 341.796 309.416 341.358 309.197C341.204 309.12 341.056 309.054 340.891 308.982C340.51 308.813 340.036 308.604 339.186 308.112C338.695 307.828 337.957 307.361 337.176 306.866C336.033 306.142 334.851 305.394 334.348 305.161C334.209 305.097 334.062 305.003 333.875 304.883C333.019 304.335 331.426 303.314 326.765 303.034C322.795 302.795 316.886 302.771 316.83 302.771C316.808 302.77 314.62 302.709 312.586 302.9C312.358 302.921 312.135 302.935 311.901 302.95C311.014 303.005 309.91 303.074 307.718 303.622C306.135 304.018 297.574 307.747 297.227 307.9C296.896 307.992 289.112 310.171 288.23 310.833C287.865 311.107 287.622 311.473 287.461 311.816C287.214 312.203 287.17 312.607 287.163 312.762C286.896 312.963 286.068 313.629 286.144 314.083C286.214 314.503 286.215 314.788 286.215 314.791V320.564C286.215 320.632 286.27 320.688 286.339 320.688H287.242C287.264 320.688 287.285 320.683 287.303 320.672L287.893 320.335H289.211C289.747 322.095 291.03 323.338 292.526 323.338H295.237C296.691 323.338 297.943 322.163 298.504 320.481L298.947 320.678C298.963 320.685 298.98 320.689 298.997 320.689H304.772C305.365 322.259 306.572 323.338 307.965 323.338H310.676C312.221 323.338 313.537 322.01 314.039 320.158H314.866H321.061C321.542 322.007 322.846 323.338 324.379 323.338H326.345C326.355 323.338 326.364 323.337 326.373 323.334C326.41 323.336 326.448 323.338 326.485 323.338C327.726 323.338 328.782 322.007 329.17 320.158H332.257C332.738 322.007 334.042 323.338 335.575 323.338H337.541C337.556 323.338 337.569 323.334 337.582 323.33C337.615 323.332 337.648 323.338 337.681 323.338C338.922 323.338 339.978 322.007 340.366 320.158H341.099H343.133C343.155 320.158 343.177 320.152 343.196 320.141C343.742 319.821 343.589 319.17 343.417 318.837C343.488 318.44 343.982 315.673 343.857 315.05Z" fill="#263238"/>
<path d="M317.593 306.098C317.593 306.098 313.62 308.731 313.684 308.924C313.748 309.116 315.991 309.437 316.567 309.437C317.144 309.437 334.507 309.437 334.507 309.437C334.507 309.437 336.686 308.988 337.006 308.604C337.326 308.22 332.521 305.208 330.791 304.631C329.061 304.054 325.688 304.095 322.269 304.368C319.716 304.572 317.593 306.098 317.593 306.098Z" fill="white"/>
<path d="M297.359 308.155H309.584C309.584 308.155 311.378 308.283 312.852 307.322C314.326 306.361 315.223 306.034 316.568 305.201C317.914 304.368 318.426 304.112 318.426 304.112C318.426 304.112 313.877 303.728 311.25 303.728C308.623 303.728 307.47 304.048 307.47 304.048L297.359 308.155Z" fill="white"/>
<path d="M204.024 307.954C204.024 312.655 198.744 314.348 198.722 317.934V318.179H203.846V319.761H197.007V318.424C197.007 313.39 202.287 312.409 202.287 308.02C202.287 306.417 201.753 305.57 200.46 305.57C199.191 305.57 198.634 306.483 198.634 307.864V309.245H197.007V307.975C197.007 305.591 198.099 304.009 200.505 304.009C202.932 304.01 204.024 305.57 204.024 307.954Z" fill="#263238"/>
<path d="M214.831 319.739H213.16L210.576 307.33V319.761H209.061V304.166H211.489L214.051 316.619L216.524 304.166H218.952V319.761H217.304V307.219L214.831 319.739Z" fill="#263238"/>
<path d="M222.473 304.166V319.761H220.735V304.166H222.473Z" fill="#263238"/>
<path d="M225.792 319.761H224.232V304.166H226.438L230.047 315.439V304.166H231.584V319.761H229.779L225.791 307.152L225.792 319.761Z" fill="#263238"/>
<path d="M188.084 312.081C188.084 317.719 183.517 322.296 177.869 322.296C172.231 322.296 167.664 317.719 167.664 312.081C167.664 306.433 172.231 301.866 177.869 301.866C180.486 301.866 182.86 302.836 184.659 304.453C186.76 306.311 188.084 309.039 188.084 312.081Z" fill="white" stroke="#263238" stroke-miterlimit="10" stroke-linejoin="round"/>
<path d="M184.659 304.452L177.869 312.081V301.866C180.486 301.865 182.86 302.835 184.659 304.452Z" fill="#263238"/>
<path d="M169.41 335.586H249.567" stroke="#263238" stroke-miterlimit="10" stroke-linecap="round" stroke-linejoin="round"/>
<path d="M169.41 342.321H249.567" stroke="#263238" stroke-miterlimit="10" stroke-linecap="round" stroke-linejoin="round"/>
<path d="M169.41 349.057H249.567" stroke="#263238" stroke-miterlimit="10" stroke-linecap="round" stroke-linejoin="round"/>
<path d="M321.569 47.534H264.45L264.393 47.741C262.703 53.828 258.81 57.779 254.5 57.779H252.021C247.711 57.779 243.817 53.828 242.128 47.741L242.071 47.534H184.952C169.043 47.534 156.147 60.431 156.147 76.339V81.514H350.377V76.339C350.375 60.43 337.478 47.534 321.569 47.534Z" fill="white" stroke="#263238" stroke-miterlimit="10" stroke-linejoin="round"/>
<path d="M252.667 51.618C254.16 51.618 255.371 50.4074 255.371 48.914C255.371 47.4206 254.16 46.21 252.667 46.21C251.174 46.21 249.963 47.4206 249.963 48.914C249.963 50.4074 251.174 51.618 252.667 51.618Z" fill="#707070"/>
<path d="M173.406 59.2771C173.406 62.0131 170.333 62.9981 170.32 65.0861V65.2291H173.302V66.1501H169.322V65.3721C169.322 62.4421 172.395 61.8721 172.395 59.3171C172.395 58.3841 172.083 57.8911 171.332 57.8911C170.593 57.8911 170.269 58.4221 170.269 59.2261V60.0301H169.323V59.2901C169.323 57.9021 169.958 56.9821 171.358 56.9821C172.771 56.9821 173.406 57.8901 173.406 59.2771Z" fill="#263238"/>
<path d="M178.373 59.2641V59.4971C178.373 60.4311 177.998 61.0921 177.271 61.3641C178.035 61.6491 178.373 62.3361 178.373 63.2441V63.9441C178.373 65.3311 177.725 66.2391 176.324 66.2391C174.937 66.2391 174.289 65.3311 174.289 63.9441V63.3211H175.235V64.0081C175.235 64.8251 175.572 65.3181 176.298 65.3181C177.037 65.3181 177.361 64.8381 177.361 63.9181V63.2181C177.361 62.3231 176.985 61.8961 176.219 61.8701H175.675V60.9621H176.271C176.945 60.9361 177.361 60.5091 177.361 59.7181V59.3031C177.361 58.3701 177.036 57.8901 176.298 57.8901C175.572 57.8901 175.235 58.3951 175.235 59.2121V59.6791H174.289V59.2641C174.289 57.8771 174.937 56.9821 176.324 56.9821C177.725 56.9821 178.373 57.8771 178.373 59.2641Z" fill="#263238"/>
<path d="M180.333 59.952V61.21H179.36V59.952H180.333ZM180.333 64.891V66.149H179.36V64.891H180.333Z" fill="#263238"/>
<path d="M182.382 60.7691C182.667 60.2761 183.121 60.0171 183.731 60.0171C184.898 60.0171 185.416 60.8731 185.416 62.1691V63.9461C185.416 65.3331 184.755 66.2411 183.368 66.2411C181.98 66.2411 181.332 65.3331 181.332 63.9461V63.3371H182.278V64.0111C182.278 64.8281 182.615 65.3211 183.342 65.3211C184.068 65.3211 184.405 64.8281 184.405 64.0111V62.2481C184.405 61.4311 184.068 60.9381 183.342 60.9381C182.785 60.9381 182.408 61.2491 182.318 61.9111V62.1191H181.372L181.618 57.0751H185.196V57.9821H182.525L182.382 60.7691Z" fill="#263238"/>
<path d="M190.461 59.251V59.42H189.515V59.187C189.515 58.37 189.178 57.891 188.439 57.891C187.674 57.891 187.337 58.384 187.337 59.356V61.391C187.583 60.769 188.076 60.419 188.802 60.419C189.969 60.419 190.488 61.262 190.488 62.571V63.946C190.488 65.333 189.8 66.241 188.413 66.241C187.013 66.241 186.325 65.333 186.325 63.946V59.317C186.325 57.878 186.974 56.983 188.413 56.983C189.813 56.982 190.461 57.864 190.461 59.251ZM187.336 62.649V64.01C187.336 64.827 187.673 65.32 188.412 65.32C189.138 65.32 189.488 64.827 189.488 64.01V62.649C189.488 61.832 189.138 61.339 188.412 61.339C187.673 61.339 187.336 61.832 187.336 62.649Z" fill="#263238"/>
<path d="M289.546 59.6511H286.983V66.0581H289.546V59.6511Z" fill="#263238"/>
<path d="M292.963 58.3671H290.4V66.0571H292.963V58.3671Z" fill="#263238"/>
<path d="M296.38 57.4561H293.817V66.0571H296.38V57.4561Z" fill="#263238"/>
<path d="M299.797 55.871H297.234V66.057H299.797V55.871Z" fill="#263238"/>
<path d="M331.511 65.881H316.135V56.484H331.511V65.881ZM316.989 65.027H330.657V57.339H316.989V65.027Z" fill="#263238"/>
<path d="M326.386 58.269H318.271V64.098H326.386V58.269Z" fill="#263238"/>
<path d="M332.912 60.076H330.978V62.29H332.912V60.076Z" fill="#263238"/>
<path d="M310.496 63.837C310.396 63.837 310.294 63.811 310.202 63.756C307.073 61.896 305.005 63.622 304.918 63.695C304.679 63.903 304.317 63.876 304.109 63.638C303.902 63.399 303.924 63.04 304.162 62.832C304.273 62.734 306.918 60.469 310.789 62.769C311.061 62.93 311.151 63.284 310.989 63.556C310.882 63.737 310.691 63.837 310.496 63.837Z" fill="#263238"/>
<path d="M311.654 61.907C311.554 61.907 311.452 61.881 311.36 61.826C306.835 59.135 303.795 61.739 303.764 61.763C303.526 61.974 303.164 61.949 302.954 61.711C302.744 61.473 302.767 61.11 303.005 60.901C303.042 60.867 306.71 57.726 311.947 60.838C312.22 60.999 312.309 61.353 312.147 61.625C312.039 61.807 311.849 61.907 311.654 61.907Z" fill="#263238"/>
<path d="M312.705 59.672C312.605 59.672 312.503 59.646 312.411 59.591C306.681 56.184 302.871 59.391 302.712 59.53C302.473 59.738 302.11 59.712 301.902 59.474C301.693 59.236 301.717 58.875 301.955 58.666C302 58.626 306.526 54.754 312.999 58.603C313.271 58.764 313.361 59.118 313.199 59.39C313.09 59.572 312.9 59.672 312.705 59.672Z" fill="#263238"/>
<path d="M307.328 66.241C308.124 66.241 308.769 65.5959 308.769 64.8C308.769 64.0042 308.124 63.359 307.328 63.359C306.532 63.359 305.887 64.0042 305.887 64.8C305.887 65.5959 306.532 66.241 307.328 66.241Z" fill="#263238"/>
<path d="M298.623 100.269C298.607 100.191 298.595 100.122 298.584 100.061C298.515 99.679 298.492 99.551 298.05 99.011C297.645 98.516 297.505 98.171 297.472 98.081C297.477 98.059 297.484 98.025 297.493 97.984C297.496 97.968 297.5 97.951 297.504 97.932C297.507 97.917 297.51 97.903 297.513 97.887C297.517 97.868 297.521 97.846 297.526 97.825C297.528 97.813 297.531 97.802 297.533 97.79C297.538 97.767 297.543 97.741 297.548 97.716C297.55 97.704 297.553 97.693 297.555 97.68C297.56 97.655 297.565 97.629 297.57 97.603C297.573 97.589 297.576 97.575 297.579 97.56C297.584 97.534 297.589 97.508 297.594 97.481C297.597 97.465 297.6 97.449 297.603 97.432C297.608 97.407 297.612 97.382 297.617 97.356C297.621 97.336 297.624 97.317 297.628 97.297C297.632 97.274 297.637 97.25 297.641 97.226C297.645 97.204 297.649 97.182 297.653 97.16C297.657 97.138 297.661 97.116 297.664 97.095C297.668 97.072 297.672 97.05 297.675 97.027C297.679 97.006 297.682 96.985 297.685 96.964C297.689 96.941 297.692 96.918 297.695 96.896C297.698 96.877 297.701 96.858 297.704 96.839C297.707 96.816 297.71 96.793 297.713 96.771C297.715 96.754 297.718 96.737 297.72 96.72C297.723 96.697 297.725 96.676 297.728 96.655C297.73 96.64 297.732 96.625 297.733 96.612C297.735 96.59 297.737 96.569 297.738 96.549C297.739 96.538 297.74 96.527 297.741 96.516C297.743 96.487 297.744 96.46 297.744 96.436C297.744 96.308 297.709 96.209 297.64 96.144C297.564 96.072 297.464 96.054 297.361 96.051C297.266 96.037 297.173 96.039 297.107 96.045C297.04 95.858 296.851 95.429 296.475 95.241C296.343 95.175 296.215 95.119 296.074 95.056C295.747 94.911 295.339 94.731 294.609 94.308C294.187 94.064 293.553 93.662 292.882 93.237C291.9 92.615 290.884 91.972 290.452 91.772C290.332 91.717 290.206 91.636 290.046 91.533C289.311 91.062 287.942 90.185 283.937 89.944C280.525 89.739 275.448 89.718 275.4 89.718C275.381 89.717 273.501 89.665 271.753 89.829C271.557 89.847 271.366 89.859 271.165 89.872C270.403 89.919 269.454 89.978 267.57 90.449C266.21 90.789 258.854 93.993 258.555 94.125C258.271 94.204 251.582 96.076 250.824 96.645C250.51 96.881 250.301 97.195 250.163 97.49C249.951 97.822 249.913 98.17 249.907 98.303C249.677 98.476 248.966 99.048 249.031 99.438C249.091 99.799 249.092 100.044 249.092 100.046V105.007C249.092 105.066 249.14 105.113 249.198 105.113H249.974C249.993 105.113 250.011 105.108 250.027 105.099L250.534 104.809H251.667C252.128 106.321 253.23 107.389 254.516 107.389H256.845C258.094 107.389 259.17 106.379 259.652 104.934L260.033 105.103C260.047 105.109 260.061 105.112 260.076 105.112H265.038C265.547 106.461 266.584 107.388 267.781 107.388H270.11C271.437 107.388 272.568 106.247 273 104.656H273.711H279.034C279.447 106.244 280.568 107.388 281.885 107.388H283.574C283.582 107.388 283.59 107.387 283.598 107.385C283.63 107.387 283.662 107.388 283.694 107.388C284.761 107.388 285.668 106.244 286.001 104.656H288.653C289.067 106.244 290.187 107.388 291.504 107.388H293.193C293.206 107.388 293.217 107.385 293.229 107.381C293.258 107.383 293.285 107.388 293.314 107.388C294.381 107.388 295.288 106.244 295.621 104.656H296.25H297.997C298.016 104.656 298.035 104.651 298.051 104.641C298.52 104.366 298.389 103.807 298.241 103.521C298.306 103.182 298.73 100.804 298.623 100.269Z" fill="#263238"/>
<path d="M276.056 92.577C276.056 92.577 272.642 94.84 272.698 95.005C272.753 95.17 274.68 95.445 275.176 95.445C275.671 95.445 290.592 95.445 290.592 95.445C290.592 95.445 292.464 95.06 292.739 94.729C293.014 94.398 288.885 91.811 287.399 91.316C285.913 90.821 283.015 90.855 280.077 91.09C277.88 91.266 276.056 92.577 276.056 92.577Z" fill="white"/>
<path d="M258.669 94.344H269.174C269.174 94.344 270.716 94.454 271.982 93.628C273.248 92.802 274.019 92.521 275.175 91.806C276.331 91.091 276.772 90.87 276.772 90.87C276.772 90.87 272.863 90.54 270.606 90.54C268.349 90.54 267.358 90.815 267.358 90.815L258.669 94.344Z" fill="white"/>
<path d="M203.469 232.878C199.259 232.547 194.308 234.422 192.411 237.065C190.514 239.708 193.987 246.086 193.987 246.086C193.987 246.086 205.759 240.905 207.657 238.262C209.554 235.619 207.679 233.208 203.469 232.878ZM198.659 239.577C196.975 239.445 196.225 238.481 196.984 237.423C197.743 236.366 199.723 235.616 201.407 235.748C203.091 235.88 203.841 236.844 203.082 237.902C202.324 238.96 200.343 239.709 198.659 239.577Z" fill="#263238"/>
<path d="M193.987 218.257C188.513 218.257 184.075 222.695 184.075 228.169C184.075 233.643 193.987 245.614 193.987 245.614C193.987 245.614 203.899 233.643 203.899 228.169C203.899 222.695 199.461 218.257 193.987 218.257ZM193.987 232.134C191.797 232.134 190.022 230.359 190.022 228.169C190.022 225.979 191.797 224.204 193.987 224.204C196.177 224.204 197.952 225.979 197.952 228.169C197.952 230.359 196.176 232.134 193.987 232.134Z" fill="#92E3A9" stroke="#263238" stroke-miterlimit="10" stroke-linecap="round" stroke-linejoin="round"/>
<path d="M267.78 107.388L266.816 108.538" stroke="#263238" stroke-width="2" stroke-linecap="round" stroke-linejoin="round"/>
<path d="M264.896 110.825L222.435 161.44C221.122 163.004 221.095 165.277 222.369 166.873L262.936 217.693C264.813 220.044 263.749 223.547 260.882 224.458L201.533 243.314" stroke="#263238" stroke-width="2" stroke-linecap="round" stroke-linejoin="round" stroke-dasharray="2.99 2.99"/>
<path d="M200.111 243.767L198.681 244.221" stroke="#263238" stroke-width="2" stroke-linecap="round" stroke-linejoin="round"/>
<path d="M252.262 151.021V162.108L230.033 159.104L252.262 169.901V179.312H306.823V151.021H252.262Z" fill="#263238"/>
<path d="M258.028 161.194C258.028 158.81 259.209 157.273 261.593 157.273C263.998 157.273 265.18 158.81 265.18 161.194V169.237C265.18 171.621 263.999 173.18 261.593 173.18C259.209 173.18 258.028 171.621 258.028 169.237V161.194ZM259.744 169.348C259.744 170.751 260.346 171.598 261.593 171.598C262.863 171.598 263.442 170.751 263.442 169.348V161.105C263.442 159.679 262.863 158.833 261.593 158.833C260.346 158.833 259.744 159.68 259.744 161.105V169.348Z" fill="white"/>
<path d="M268.5 170.863V173.024H266.829V170.863H268.5Z" fill="white"/>
<path d="M276.611 169.882V173.024H274.918V169.882H269.883V168.3L274.717 157.428H276.611V168.3H277.858V169.882H276.611ZM271.487 168.3H274.918V160.682L271.487 168.3Z" fill="white"/>
<path d="M285.301 166.251L284.387 167.788V173.024H282.649V157.429H284.387V164.96L288.53 157.429H290.29L286.347 164.536L290.424 173.024H288.641L285.301 166.251Z" fill="white"/>
<path d="M297.51 173.001H295.839L293.255 160.592V173.024H291.739V157.429H294.167L296.73 169.882L299.203 157.429H301.631V173.024H299.982V160.482L297.51 173.001Z" fill="white"/>
<path d="M140.898 448.276L142.853 453.815C142.853 453.815 148.718 456.096 149.695 457.725C150.673 459.354 150.673 464.893 150.673 464.893H126.561C126.561 464.893 125.909 459.68 125.909 456.747C125.909 453.814 125.909 449.905 125.909 449.905L140.898 448.276Z" fill="white" stroke="#263238" stroke-miterlimit="10" stroke-linecap="round" stroke-linejoin="round"/>
<path d="M126.272 462.287H150.576C150.672 463.715 150.673 464.894 150.673 464.894H126.561C126.561 464.894 126.422 463.775 126.272 462.287Z" fill="white" stroke="#263238" stroke-miterlimit="10" stroke-linecap="round" stroke-linejoin="round"/>
<path d="M138.249 441.108L136.62 308.819L107.621 310.378L78.6216 308.819L76.9926 441.108C76.9926 441.108 74.0596 443.715 74.0596 445.018C74.0596 446.321 74.0596 448.276 74.0596 448.276L74.3856 449.905C74.3856 449.905 81.5536 450.557 83.1826 450.882C84.8116 451.208 89.0476 449.905 89.0476 449.905C89.0476 449.905 91.0026 439.804 91.0026 438.827C91.0026 437.849 106.643 328.695 106.643 328.695L107.621 328.555L108.599 328.695C108.599 328.695 124.239 437.849 124.239 438.827C124.239 439.804 126.194 449.905 126.194 449.905C126.194 449.905 130.43 451.208 132.059 450.882C133.688 450.556 140.857 449.905 140.857 449.905L141.183 448.276C141.183 448.276 141.183 446.321 141.183 445.018C141.182 443.715 138.249 441.108 138.249 441.108Z" fill="#263238" stroke="#263238" stroke-miterlimit="10" stroke-linecap="round" stroke-linejoin="round"/>
<path d="M149.303 234.036C149.303 234.036 158.564 238.31 161.651 240.448C164.738 242.585 164.026 250.659 164.975 255.171C165.925 259.683 167.112 262.532 165.925 263.72C164.738 264.907 163.075 267.044 163.075 267.044C163.075 267.044 164.262 278.442 164.737 287.229C165.212 296.015 160.463 299.102 156.663 301.477C152.864 303.852 148.589 304.327 140.753 303.852C132.917 303.377 127.455 299.578 126.743 297.915C126.031 296.253 119.382 277.968 122.231 267.52C125.081 257.071 134.579 234.75 139.091 232.375C143.604 229.999 149.303 234.036 149.303 234.036Z" fill="#263238" stroke="#263238" stroke-miterlimit="10" stroke-linecap="round" stroke-linejoin="round"/>
<path d="M77.5888 297.677L75.9268 309.55C75.9268 309.55 85.1878 315.249 92.0748 317.624C98.9618 319.999 107.035 321.898 107.035 321.898L108.935 317.861L110.36 322.373C110.36 322.373 114.634 321.898 121.521 318.574C128.408 315.25 138.381 308.6 138.381 308.6L138.144 296.489L133.632 217.413L115.585 209.577L98.0128 211.002L84.7148 218.363L77.5888 297.677Z" fill="white" stroke="#263238" stroke-miterlimit="10" stroke-linecap="round" stroke-linejoin="round"/>
<path d="M126.636 214.377L115.583 209.578L98.011 211.003L91.25 214.746C92.509 219.118 97.219 232.569 107.747 233.562C117.55 234.486 124.182 220.575 126.636 214.377Z" fill="white" stroke="#263238" stroke-miterlimit="10" stroke-linecap="round" stroke-linejoin="round"/>
<path d="M97.5289 212.564C97.5289 212.564 102.301 218.927 106.896 220.694C111.491 222.461 115.556 214.508 116.793 212.387C118.03 210.266 118.384 209.559 118.384 209.559L98.0099 211.002C98.0099 211.002 95.7619 210.267 97.5289 212.564Z" fill="#263238" stroke="#263238" stroke-miterlimit="10" stroke-linecap="round" stroke-linejoin="round"/>
<path d="M115.583 209.577C115.583 209.577 115.108 311.687 115.82 311.924C116.532 312.161 138.617 303.138 139.804 302.188C140.991 301.238 142.416 299.576 142.416 299.576L142.891 261.344C142.891 261.344 150.252 266.093 152.39 266.568C154.527 267.043 161.176 265.856 161.651 263.244C162.126 260.632 153.815 239.26 151.677 232.611C149.54 225.962 146.215 219.788 145.266 217.651C144.316 215.514 134.817 214.326 129.118 212.664C123.419 211.002 115.583 209.577 115.583 209.577Z" fill="#92E3A9" stroke="#263238" stroke-miterlimit="10" stroke-linecap="round" stroke-linejoin="round"/>
<path d="M115.821 230.474L118.433 226.675C118.433 226.675 124.845 232.137 125.557 230.237C126.269 228.337 121.384 213.004 120.57 210.052C119.756 207.101 115.346 207.202 115.108 208.39C114.871 209.577 115.821 230.474 115.821 230.474Z" fill="#92E3A9" stroke="#263238" stroke-miterlimit="10" stroke-linecap="round" stroke-linejoin="round"/>
<path d="M129.118 212.665C129.118 212.665 128.643 246.623 130.305 255.409C131.967 264.195 142.891 288.179 142.891 288.179V279.155C142.891 279.155 136.481 255.646 135.531 248.76C134.581 241.874 134.818 214.328 134.818 214.328L129.118 212.665Z" fill="#263238" stroke="#263238" stroke-miterlimit="10" stroke-linecap="round" stroke-linejoin="round"/>
<path d="M100.109 212.824C100.109 212.824 100.491 308.583 100.491 309.918C100.491 311.253 98.3929 310.49 96.8669 309.727C95.3409 308.964 80.0809 303.814 75.8839 302.097C71.6869 300.38 71.1149 301.525 71.3059 299.617C71.4969 297.709 71.4969 291.415 71.4969 290.461C71.4969 289.507 72.8319 270.05 72.8319 270.05C72.8319 270.05 63.8659 273.293 58.5249 271.195C53.1839 269.097 50.7039 266.617 51.2759 264.709C51.8479 262.801 61.9579 238.003 62.7209 235.714C63.4839 233.425 65.3909 220.454 66.5359 219.309C67.6809 218.164 93.4319 211.679 94.9579 210.534C96.4839 209.389 98.0099 209.58 98.5819 209.58C99.1549 209.581 99.7269 209.199 100.109 212.824Z" fill="#92E3A9" stroke="#263238" stroke-miterlimit="10" stroke-linecap="round" stroke-linejoin="round"/>
<path d="M78.0151 243.807C78.2571 245.542 78.3821 247.202 78.1721 248.114C77.6001 250.594 72.8311 270.051 72.8311 270.051" stroke="#263238" stroke-miterlimit="10" stroke-linecap="round" stroke-linejoin="round"/>
<path d="M76.8369 237.622C76.8369 237.622 77.0879 238.676 77.3809 240.139" stroke="#263238" stroke-miterlimit="10" stroke-linecap="round" stroke-linejoin="round"/>
<path d="M97.4382 208.246C97.4382 208.246 95.7212 210.344 95.5302 212.061C95.3392 213.778 92.8592 222.934 91.5242 225.795C90.1892 228.656 89.6162 230.373 89.6162 230.373C89.6162 230.373 91.3332 230.945 93.0502 229.991C94.7672 229.037 97.6282 227.511 97.6282 227.511L99.9172 229.991L100.108 212.823C100.108 212.823 100.299 206.72 97.4382 208.246Z" fill="#92E3A9" stroke="#263238" stroke-miterlimit="10" stroke-linecap="round" stroke-linejoin="round"/>
<path d="M92.0973 193.367C92.0973 193.367 89.0453 189.361 88.8543 191.65C88.6633 193.939 88.0913 196.8 89.6173 198.708C91.1433 200.616 92.2883 201.188 92.2883 201.188C92.2883 201.188 94.7683 207.674 96.4853 209.39C98.2023 211.107 99.1563 214.922 103.924 216.829C108.693 218.737 111.173 217.592 113.653 215.875C114.847 215.048 119.185 208.436 119.757 207.1C120.329 205.765 120.52 200.996 120.52 200.996C120.52 200.996 123.763 196.418 123.954 193.938C124.145 191.458 123.763 189.932 123 189.932C122.237 189.932 121.283 189.932 121.283 189.932C121.283 189.932 123.572 180.585 123.381 177.533C123.19 174.481 117.658 168.377 113.462 165.515C109.265 162.654 100.491 163.607 95.9133 166.469C91.3353 169.33 86.5663 175.434 87.7113 177.914C88.8563 180.394 92.0973 193.367 92.0973 193.367Z" fill="white" stroke="#263238" stroke-miterlimit="10" stroke-linecap="round" stroke-linejoin="round"/>
<path d="M104.66 204.828C104.66 204.828 105.372 206.015 107.51 206.49C109.647 206.965 110.597 204.828 110.597 204.828" stroke="#263238" stroke-miterlimit="10" stroke-linecap="round" stroke-linejoin="round"/>
<path d="M103.71 208.39C103.71 208.39 105.135 209.577 107.747 209.577C110.359 209.577 111.784 208.152 111.784 208.152" stroke="#263238" stroke-miterlimit="10" stroke-linecap="round" stroke-linejoin="round"/>
<path d="M92.0969 193.367C92.0969 193.367 91.9439 193.168 91.7119 192.891L92.0969 193.367Z" stroke="#263238" stroke-miterlimit="10" stroke-linecap="round" stroke-linejoin="round"/>
<path d="M113.461 165.517C109.264 162.656 100.49 163.609 95.9124 166.471C91.3344 169.332 86.5653 175.436 87.7103 177.916C88.8553 180.396 92.0973 193.367 92.0973 193.367C92.0973 193.367 93.6233 193.749 94.1953 192.413C94.7673 191.078 93.8143 189.17 94.7673 187.453C95.5403 186.062 97.8003 186.166 99.1433 185.852C98.1483 186.502 96.8703 187.704 98.3923 188.406C100.872 189.551 102.398 187.834 107.548 185.163C112.698 182.492 113.271 179.822 113.271 179.822C113.271 179.822 115.751 181.92 115.751 184.209C115.751 186.498 115.56 189.741 116.896 190.122C118.231 190.504 119.185 190.694 119.185 190.694C119.185 190.694 118.613 193.174 119.948 193.365C120.929 193.505 121.291 191.178 121.415 189.931C121.335 189.931 121.283 189.931 121.283 189.931C121.283 189.931 123.572 180.584 123.381 177.532C123.19 174.482 117.658 168.378 113.461 165.517Z" fill="#263238" stroke="#263238" stroke-miterlimit="10" stroke-linecap="round" stroke-linejoin="round"/>
<path d="M110.601 197.373C110.601 197.373 113.081 199.471 116.896 196.991" stroke="#263238" stroke-miterlimit="10" stroke-linecap="round" stroke-linejoin="round"/>
<path d="M96.8662 197.373C96.8662 197.373 99.3462 199.471 103.161 196.991" stroke="#263238" stroke-miterlimit="10" stroke-linecap="round" stroke-linejoin="round"/>
<path d="M96.2939 194.511C96.2939 194.511 99.3459 193.176 102.398 193.939" stroke="#263238" stroke-miterlimit="10" stroke-linecap="round" stroke-linejoin="round"/>
<path d="M110.791 193.939C110.791 193.939 113.462 192.985 116.323 194.13" stroke="#263238" stroke-miterlimit="10" stroke-linecap="round" stroke-linejoin="round"/>
<path d="M56.2349 263.946C56.2349 263.946 68.0619 263.183 69.7789 263.183C71.4959 263.183 72.8309 266.807 73.2129 268.906C73.5949 271.005 73.7849 275.773 73.7849 275.773C73.7849 275.773 68.2529 283.594 64.4379 284.929C60.6229 286.264 52.2299 283.784 50.1309 282.068C48.0319 280.352 46.3159 272.53 47.4599 269.86C48.6049 267.189 51.0839 265.473 52.0379 264.519" fill="#92E3A9"/>
<path d="M56.2349 263.946C56.2349 263.946 68.0619 263.183 69.7789 263.183C71.4959 263.183 72.8309 266.807 73.2129 268.906C73.5949 271.005 73.7849 275.773 73.7849 275.773C73.7849 275.773 68.2529 283.594 64.4379 284.929C60.6229 286.264 52.2299 283.784 50.1309 282.068C48.0319 280.352 46.3159 272.53 47.4599 269.86C48.6049 267.189 51.0839 265.473 52.0379 264.519" stroke="#263238" stroke-miterlimit="10" stroke-linecap="round" stroke-linejoin="round"/>
<path d="M85.9531 240.557L91.8181 264.832L102.896 262.388L98.1721 238.765L85.9531 240.557Z" fill="#263238" stroke="#263238" stroke-miterlimit="10" stroke-linecap="round" stroke-linejoin="round"/>
<path d="M79.6978 262.992L82.9408 259.749C82.9408 259.749 84.2758 254.599 85.0388 253.073C85.8018 251.547 87.8998 248.876 87.8998 248.876L88.6628 251.356C88.6628 251.356 95.9118 248.113 97.0558 248.113C98.2008 248.113 98.5818 249.258 98.5818 249.83C98.5818 250.402 90.5698 254.217 90.5698 254.217L89.6158 255.552C89.6158 255.552 96.4828 252.881 97.6278 252.118C98.7728 251.355 100.108 251.164 100.108 251.164C100.108 251.164 101.062 252.69 100.68 253.453C100.298 254.216 99.9168 255.17 99.9168 255.17C99.9168 255.17 100.056 255.54 99.7568 256.657C99.2618 258.499 97.4738 259.727 97.4738 259.727C97.4738 259.727 94.9568 262.8 93.6218 264.136C92.2868 265.471 87.5178 266.616 87.5178 266.616L78.5528 272.339C78.5528 272.339 77.2178 271.194 77.2178 267.952C77.2178 264.709 79.6978 262.992 79.6978 262.992Z" fill="white" stroke="#263238" stroke-miterlimit="10" stroke-linecap="round" stroke-linejoin="round"/>
<path d="M100.108 254.217C100.108 254.217 92.4783 258.032 90.5703 259.367" stroke="#263238" stroke-miterlimit="10" stroke-linecap="round" stroke-linejoin="round"/>
<path d="M90.8623 262.641L97.4743 259.728" stroke="#263238" stroke-miterlimit="10" stroke-linecap="round" stroke-linejoin="round"/>
<path d="M81.2242 261.085C81.2242 261.085 78.7442 264.137 78.9352 266.998C79.1262 269.859 81.2242 274.628 81.2242 274.628C81.2242 274.628 77.7902 276.917 76.4552 278.252C75.1202 279.587 72.0682 280.35 70.9232 277.87C69.7782 275.39 67.8712 269.858 68.6342 266.616C69.3972 263.374 70.9232 262.419 71.6862 262.229C72.4492 262.039 79.8892 261.276 81.2242 261.085Z" fill="#92E3A9" stroke="#263238" stroke-miterlimit="10" stroke-linecap="round" stroke-linejoin="round"/>
<path d="M142.417 249.709C142.417 249.709 139.092 239.735 137.905 237.836C136.718 235.936 134.818 234.749 134.106 234.749C133.394 234.749 129.119 233.562 127.932 233.562C126.745 233.562 124.607 234.274 125.082 236.412C125.557 238.549 125.557 238.549 125.557 238.549C125.557 238.549 125.082 242.348 125.082 243.298C125.082 244.248 126.982 245.91 126.982 245.91C126.982 245.91 127.219 248.76 127.694 249.709C128.169 250.659 135.768 252.796 135.768 252.796L136.48 253.746L137.905 254.458L142.417 249.709Z" fill="white" stroke="#263238" stroke-miterlimit="10" stroke-linecap="round" stroke-linejoin="round"/>
<path d="M146.454 253.984C146.454 253.984 152.866 257.546 154.765 258.258C156.664 258.97 159.039 259.208 161.652 263.245C164.264 267.282 163.314 273.931 161.652 277.493C159.99 281.055 154.528 282.005 150.966 282.005C147.404 282.005 143.842 274.644 141.942 272.506C140.042 270.369 136.955 264.195 136.955 264.195L146.454 253.984Z" fill="#92E3A9" stroke="#263238" stroke-miterlimit="10" stroke-linecap="round" stroke-linejoin="round"/>
<path d="M143.367 248.284C143.367 248.284 138.618 250.896 136.481 253.746C134.344 256.596 132.444 259.208 132.444 260.633C132.444 262.058 136.481 267.52 136.481 267.52L148.829 254.697C148.829 254.697 145.979 249.947 143.367 248.284Z" fill="#92E3A9" stroke="#263238" stroke-miterlimit="10" stroke-linecap="round" stroke-linejoin="round"/>
<path d="M74.0602 448.276L72.1052 453.815C72.1052 453.815 66.2402 456.096 65.2622 457.725C64.2842 459.354 64.2842 464.893 64.2842 464.893H88.3962C88.3962 464.893 89.0482 459.68 89.0482 456.747C89.0482 453.814 89.0482 449.905 89.0482 449.905L74.0602 448.276Z" fill="white" stroke="#263238" stroke-miterlimit="10" stroke-linecap="round" stroke-linejoin="round"/>
<path d="M88.6861 462.287H64.3822C64.2862 463.715 64.2852 464.894 64.2852 464.894H88.3972C88.3972 464.894 88.5361 463.775 88.6861 462.287Z" fill="white" stroke="#263238" stroke-miterlimit="10" stroke-linecap="round" stroke-linejoin="round"/>
<path d="M352.526 452.33H314.3C314.3 452.33 315.389 434.07 322.192 426.178C328.995 418.286 339.336 417.47 347.773 422.096C356.209 426.722 356.753 447.404 356.753 447.404H422.065C422.065 447.404 428.052 424 441.659 422.368C455.266 420.735 458.531 444.411 458.531 444.411L456.185 452.33H352.526Z" fill="#263238" stroke="#263238" stroke-miterlimit="10" stroke-linecap="round" stroke-linejoin="round"/>
<path d="M445.028 446.635C445.028 442.349 443.94 438.411 442.123 435.295V428.376H434.355C426.946 428.376 420.94 436.551 420.94 446.635C420.94 456.719 426.946 464.894 434.355 464.894H442.123V457.975C443.94 454.859 445.028 450.921 445.028 446.635Z" fill="#263238" stroke="#263238" stroke-miterlimit="10" stroke-linecap="round" stroke-linejoin="round"/>
<path d="M442.68 464.894C448.622 464.894 453.44 456.733 453.44 446.666C453.44 436.599 448.622 428.438 442.68 428.438C436.737 428.438 431.92 436.599 431.92 446.666C431.92 456.733 436.737 464.894 442.68 464.894Z" fill="#263238" stroke="#263238" stroke-miterlimit="10" stroke-linecap="round" stroke-linejoin="round"/>
<path d="M442.68 460.678C447.248 460.678 450.951 454.405 450.951 446.666C450.951 438.927 447.248 432.654 442.68 432.654C438.112 432.654 434.409 438.927 434.409 446.666C434.409 454.405 438.112 460.678 442.68 460.678Z" fill="white" stroke="#263238" stroke-miterlimit="10" stroke-linecap="round" stroke-linejoin="round"/>
<path d="M338.93 446.286C338.93 441.918 337.821 437.904 335.97 434.73V427.678H325.259C317.709 427.678 311.588 436.009 311.588 446.286C311.588 456.563 317.709 464.894 325.259 464.894H335.97V457.842C337.822 454.668 338.93 450.654 338.93 446.286Z" fill="#263238" stroke="#263238" stroke-miterlimit="10" stroke-linecap="round" stroke-linejoin="round"/>
<path d="M335.97 464.894C343.52 464.894 349.641 456.563 349.641 446.286C349.641 436.009 343.52 427.678 335.97 427.678C328.42 427.678 322.299 436.009 322.299 446.286C322.299 456.563 328.42 464.894 335.97 464.894Z" fill="#263238" stroke="#263238" stroke-miterlimit="10" stroke-linecap="round" stroke-linejoin="round"/>
<path d="M335.97 460.59C341.774 460.59 346.479 454.186 346.479 446.286C346.479 438.386 341.774 431.982 335.97 431.982C330.166 431.982 325.461 438.386 325.461 446.286C325.461 454.186 330.166 460.59 335.97 460.59Z" fill="white" stroke="#263238" stroke-miterlimit="10" stroke-linecap="round" stroke-linejoin="round"/>
<path d="M398.439 428.438C398.253 428.438 398.068 428.446 397.884 428.462V428.376H390.116C382.707 428.376 376.701 436.551 376.701 446.635C376.701 456.719 382.707 464.894 390.116 464.894H397.884V464.87C398.068 464.886 398.253 464.894 398.439 464.894C404.381 464.894 409.199 456.733 409.199 446.666C409.199 436.599 404.382 428.438 398.439 428.438Z" fill="#263238" stroke="#263238" stroke-miterlimit="10" stroke-linecap="round" stroke-linejoin="round"/>
<path d="M274.965 427.678H264.254C256.704 427.678 250.583 436.009 250.583 446.286C250.583 456.563 256.704 464.894 264.254 464.894H274.965C282.515 464.894 288.636 456.563 288.636 446.286C288.636 436.009 282.515 427.678 274.965 427.678Z" fill="#263238" stroke="#263238" stroke-miterlimit="10" stroke-linecap="round" stroke-linejoin="round"/>
<path d="M466.604 432.742C466.098 430.21 466.351 429.957 464.072 427.172C461.793 424.387 461.287 422.615 461.287 422.615C461.287 422.615 462.553 416.792 462.553 415.02C462.553 413.248 459.768 413.754 459.768 413.754C459.768 413.754 459.009 410.969 456.983 409.956C454.958 408.943 453.185 408.437 448.375 405.652C443.565 402.867 432.589 395.532 429.297 394.013C426.006 392.494 421.718 386.987 399.513 385.652C383.659 384.699 360.272 384.614 360.272 384.614C360.272 384.614 351.664 384.361 343.563 385.12C339.181 385.531 335.263 385.242 324.399 387.958C318.112 389.53 282.959 404.856 282.959 404.856C282.959 404.856 251.023 413.775 247.57 416.364C244.118 418.954 243.542 423.845 243.542 423.845C243.542 423.845 239.226 427.01 239.514 428.736C239.802 430.462 239.802 431.613 239.802 431.613V454.424H243.368L245.813 453.027H286.677L289.821 454.424H318.923H320.171C320.073 453.275 320.018 450.008 320.018 448.816C320.018 434.484 327.329 422.866 336.347 422.866C345.365 422.866 352.676 434.484 352.676 448.816C352.676 450.008 352.621 451.179 352.523 452.328H428.87C428.847 451.753 428.831 451.174 428.831 450.588C428.831 437.235 434.963 426.411 442.526 426.411C450.089 426.411 456.221 437.236 456.221 450.588C456.221 451.174 456.205 451.753 456.182 452.328H464.218C466.645 450.903 464.829 447.677 464.829 447.677C464.829 447.677 467.111 435.273 466.604 432.742Z" fill="white" stroke="#263238" stroke-miterlimit="10" stroke-linecap="round" stroke-linejoin="round"/>
<path d="M363.312 397.273C363.312 397.273 347.616 407.678 347.869 408.437C348.122 409.196 356.983 410.462 359.262 410.462C361.541 410.462 430.149 410.462 430.149 410.462C430.149 410.462 438.757 408.69 440.023 407.171C441.289 405.652 422.301 393.753 415.466 391.475C408.631 389.197 395.305 389.356 381.795 390.437C371.699 391.246 363.312 397.273 363.312 397.273Z" fill="#263238" stroke="#263238" stroke-miterlimit="10" stroke-linecap="round" stroke-linejoin="round"/>
<path d="M399.895 418.564H392.806C392.037 418.564 391.414 417.941 391.414 417.172C391.414 416.403 392.037 415.78 392.806 415.78H399.895C400.664 415.78 401.287 416.403 401.287 417.172C401.287 417.941 400.664 418.564 399.895 418.564Z" stroke="#263238" stroke-miterlimit="10" stroke-linecap="round" stroke-linejoin="round"/>
<path d="M431.414 418.564H424.325C423.556 418.564 422.933 417.941 422.933 417.172C422.933 416.403 423.556 415.78 424.325 415.78H431.414C432.183 415.78 432.806 416.403 432.806 417.172C432.807 417.941 432.183 418.564 431.414 418.564Z" stroke="#263238" stroke-miterlimit="10" stroke-linecap="round" stroke-linejoin="round"/>
<path d="M400.527 411.223L403.565 415.78L403.312 443.122L404.831 446.16L403.312 449.704L405.337 451.983" stroke="#263238" stroke-miterlimit="10" stroke-linecap="round" stroke-linejoin="round"/>
<path d="M434.958 409.957L436.983 412.236L433.186 429.451L425.085 448.692C425.085 448.692 420.022 449.198 419.262 449.198C418.503 449.198 360.78 449.704 360.78 449.704C360.78 449.704 360.021 448.438 359.261 446.919C358.501 445.4 355.97 424.387 355.97 419.577C355.97 414.767 353.691 410.716 353.691 410.716" stroke="#263238" stroke-miterlimit="10" stroke-linecap="round" stroke-linejoin="round"/>
<path d="M283.361 405.4H331.665C331.665 405.4 338.754 405.906 344.576 402.109C350.399 398.312 353.943 397.021 359.26 393.73C364.576 390.439 366.602 389.426 366.602 389.426C366.602 389.426 348.627 387.907 338.247 387.907C327.867 387.907 323.31 389.173 323.31 389.173L283.361 405.4Z" fill="#263238" stroke="#263238" stroke-miterlimit="10" stroke-linecap="round" stroke-linejoin="round"/>
<path d="M321.618 415.078C321.618 415.078 327.615 414.261 328.627 413.754C329.64 413.248 334.703 407.425 334.703 407.425" stroke="#263238" stroke-miterlimit="10" stroke-linecap="round" stroke-linejoin="round"/>
<path d="M297.629 418.371L321.619 415.078C321.619 415.078 304.528 425.427 302.019 425.427C299.51 425.427 280.851 426.054 280.851 426.054L285.555 421.977L291.043 419.155L297.629 418.371Z" fill="#666666" stroke="#263238" stroke-miterlimit="10" stroke-linecap="round" stroke-linejoin="round"/>
<path d="M318.357 417.02L308.684 418.229L301.699 422.886L283.107 424.099L280.851 426.054C280.851 426.054 299.51 425.427 302.019 425.427C303.833 425.427 313.269 420.017 318.357 417.02Z" fill="white" stroke="#263238" stroke-miterlimit="10" stroke-linecap="round" stroke-linejoin="round"/>
<path d="M247.61 421.507L246.356 425.584L243.546 423.847C243.546 423.847 243.493 420.995 245.572 418.999L247.61 421.507Z" fill="#666666" stroke="#263238" stroke-miterlimit="10" stroke-linecap="round" stroke-linejoin="round"/>
<path d="M246.68 424.53L243.669 422.677C243.539 423.371 243.546 423.847 243.546 423.847L246.356 425.584L246.68 424.53Z" fill="white" stroke="#263238" stroke-miterlimit="10" stroke-linecap="round" stroke-linejoin="round"/>
<path d="M245.571 418.998C245.571 418.998 247.609 421.977 253.568 423.545L254.822 428.719H259.212L263.289 424.172C263.289 424.172 293.237 420.879 294.021 420.566C294.805 420.252 297.627 418.371 297.627 418.371C297.627 418.371 264.542 420.723 263.602 420.723C262.661 420.723 254.194 420.253 254.194 420.253L246.511 417.587L245.571 418.998Z" fill="#263238" stroke="#263238" stroke-miterlimit="10" stroke-linecap="round" stroke-linejoin="round"/>
<path d="M303.009 446.238C303.009 447.537 301.64 448.59 299.951 448.59C298.262 448.59 296.893 447.537 296.893 446.238C296.893 444.939 298.262 443.886 299.951 443.886C301.64 443.887 303.009 444.94 303.009 446.238Z" fill="#263238" stroke="#263238" stroke-miterlimit="10" stroke-linecap="round" stroke-linejoin="round"/>
<path d="M462.553 415.02C462.553 413.248 460.909 413.836 459.768 413.754L454.705 415.02L453.692 418.564L461.287 422.615C461.287 422.615 462.553 416.792 462.553 415.02Z" fill="#263238" stroke="#263238" stroke-miterlimit="10" stroke-linecap="round" stroke-linejoin="round"/>
<path d="M445.588 411.813C449.556 411.702 453.029 411.662 455.843 411.71" stroke="#263238" stroke-miterlimit="10" stroke-linecap="round" stroke-linejoin="round"/>
<path d="M368.742 416.627C390.87 414.885 420.264 412.754 440.45 411.985" stroke="#263238" stroke-miterlimit="10" stroke-linecap="round" stroke-linejoin="round"/>
<path d="M343.57 418.684C348.279 418.284 355.675 417.666 364.54 416.959" stroke="#263238" stroke-miterlimit="10" stroke-linecap="round" stroke-linejoin="round"/>
<path d="M338.022 419.161C338.022 419.161 339.203 419.058 341.337 418.875" stroke="#263238" stroke-miterlimit="10" stroke-linecap="round" stroke-linejoin="round"/>
<path d="M245.415 429.19H273.482L280.067 432.796L288.848 447.065L280.224 449.574H241.965L240.24 445.183L241.181 431.699L245.415 429.19Z" fill="#263238" stroke="#263238" stroke-miterlimit="10" stroke-linecap="round" stroke-linejoin="round"/>
<path d="M266.896 432.639H245.571V441.577H266.896V432.639Z" fill="white"/>
<path d="M279.316 434.097H269.798" stroke="#737373" stroke-miterlimit="10" stroke-linecap="round" stroke-linejoin="round"/>
<path d="M281.82 437.604H270.299" stroke="#737373" stroke-miterlimit="10" stroke-linecap="round" stroke-linejoin="round"/>
<path d="M284.325 441.11H270.299" stroke="#737373" stroke-miterlimit="10" stroke-linecap="round" stroke-linejoin="round"/>
<path d="M286.83 444.616H256.774" stroke="#737373" stroke-miterlimit="10" stroke-linecap="round" stroke-linejoin="round"/>
<path d="M286.831 447.764H242.143" stroke="#737373" stroke-miterlimit="10" stroke-linecap="round" stroke-linejoin="round"/>
<path d="M375.427 400.942H363.753C360.839 402.487 358.519 404.067 358.63 405.308C358.912 408.453 360.027 409.674 361.424 409.674C362.821 409.674 373.066 409.674 373.066 409.674C373.066 409.674 378.189 406.763 377.723 403.853C377.548 402.751 376.572 401.755 375.427 400.942Z" fill="white" stroke="#263238" stroke-miterlimit="10" stroke-linecap="round" stroke-linejoin="round"/>
<path d="M358.63 405.307H373.649" stroke="#263238" stroke-miterlimit="10" stroke-linecap="round" stroke-linejoin="round"/>
<path d="M361.424 409.673L362.123 413.457L363.138 414.465L366.314 413.807C366.314 413.807 364.917 414.156 365.266 409.616L361.424 409.673Z" fill="#263238" stroke="#263238" stroke-miterlimit="10" stroke-linecap="round" stroke-linejoin="round"/>
<path d="M284.592 433.553H318.714" stroke="#263238" stroke-miterlimit="10" stroke-linecap="round" stroke-linejoin="round"/>
<path d="M289.317 449.73H302.959L305.239 448.117L301.363 432.975L290.258 427.779L300.785 434.421L304.056 446.438L300.999 448.79L289.317 449.73Z" fill="#263238" stroke="#263238" stroke-miterlimit="10" stroke-linecap="round" stroke-linejoin="round"/>
<path d="M19.7715 464.894H476.652" stroke="#263238" stroke-miterlimit="10" stroke-linecap="round" stroke-linejoin="round"/>
</svg>
