<svg viewBox="0 0 676 421" fill="none" xmlns="http://www.w3.org/2000/svg">
<path d="M437.93 245.914C437.93 245.914 335.493 240.47 279.82 227.065C233.6 215.935 191.405 194.256 170.679 194.256C125.478 194.256 43.5984 245.914 43.5984 245.914C49.4408 245.914 341.878 245.914 341.878 245.914" fill="#DBDBDB"/>
<path d="M589.465 245.914C589.465 245.914 497.725 215.357 470.738 215.357C450.723 215.357 296.054 245.914 296.054 245.914H589.465Z" fill="#EBEBEB"/>
<path d="M281.91 64.237C288.565 64.237 400.561 64.9258 407.599 64.7161C408.105 64.7026 408.376 64.0072 407.874 63.7748C403.437 61.7228 398.404 62.1345 393.793 60.6829C391.08 59.8292 389.415 58.1721 387.532 56.2717C385.906 54.6281 384.02 53.3693 381.704 52.7176C379.655 52.1442 377.441 52.0693 375.359 52.5315C373.086 53.0376 371.114 54.2534 368.945 55.0196C363.565 56.9167 358.337 55.1139 354.496 51.394C351.327 48.3291 348.213 45.4368 343.906 43.7857C340.299 42.4014 336.296 42.1152 332.687 43.6409C328.578 45.3796 325.76 48.8764 321.901 50.9789C317.327 53.4771 311.857 52.886 306.805 53.6388C301.739 54.3949 297.873 58.3674 293.444 60.656C291.929 61.4391 290.38 62.0941 288.612 62.0537C287.623 62.0301 286.65 61.7801 285.671 61.6656C284.146 61.4896 282.698 61.5308 281.671 62.7189C281.422 63.0085 281.474 64.237 281.91 64.237Z" fill="#EBEBEB"/>
<path d="M201.829 170.323C208.485 170.323 320.48 171.012 327.518 170.802C328.024 170.789 328.295 170.093 327.793 169.861C323.356 167.809 318.323 168.221 313.713 166.769C310.999 165.915 309.333 164.258 307.451 162.358C305.825 160.714 303.94 159.455 301.623 158.804C299.574 158.229 297.36 158.155 295.279 158.618C293.005 159.124 291.033 160.339 288.865 161.105C283.485 163.002 278.256 161.199 274.415 157.48C271.246 154.415 268.132 151.523 263.825 149.872C260.219 148.488 256.215 148.201 252.606 149.727C248.498 151.465 245.679 154.962 241.821 157.065C237.246 159.563 231.776 158.972 226.724 159.725C221.659 160.481 217.793 164.454 213.363 166.742C211.848 167.525 210.299 168.18 208.532 168.14C207.542 168.116 206.569 167.866 205.591 167.752C204.065 167.576 202.617 167.617 201.59 168.805C201.342 169.094 201.392 170.323 201.829 170.323Z" fill="#EBEBEB"/>
<path d="M188.849 93.0797C193.708 93.0797 275.475 93.5824 280.614 93.43C280.983 93.4199 281.181 92.9122 280.814 92.7421C277.575 91.2442 273.9 91.5448 270.533 90.4847C268.552 89.8608 267.336 88.6508 265.962 87.264C264.775 86.0642 263.398 85.1447 261.707 84.669C260.211 84.2497 258.594 84.1958 257.075 84.5334C255.415 84.9031 253.975 85.7905 252.392 86.3496C248.464 87.7347 244.647 86.4187 241.843 83.7032C239.529 81.4652 237.255 79.3535 234.111 78.1486C231.479 77.1382 228.556 76.9285 225.921 78.0425C222.921 79.3114 220.864 81.8651 218.047 83.4001C214.708 85.2239 210.714 84.7928 207.025 85.3418C203.327 85.8933 200.504 88.794 197.27 90.4653C196.165 91.037 195.033 91.5153 193.743 91.4858C193.021 91.4681 192.311 91.2863 191.596 91.2021C190.483 91.0741 189.425 91.1036 188.676 91.9708C188.492 92.183 188.53 93.0797 188.849 93.0797Z" fill="#EBEBEB"/>
<path d="M532.028 72.945C536.887 72.945 618.654 73.4477 623.793 73.2944C624.163 73.2851 624.36 72.7774 623.993 72.6073C620.754 71.1094 617.079 71.41 613.713 70.3499C611.732 69.726 610.516 68.5161 609.142 67.1293C607.955 65.9294 606.578 65.01 604.887 64.5342C603.39 64.1149 601.773 64.061 600.254 64.3987C598.594 64.7683 597.154 65.6558 595.571 66.2149C591.643 67.6 587.826 66.2839 585.022 63.5685C582.708 61.3304 580.434 59.2187 577.29 58.0138C574.658 57.0034 571.735 56.7937 569.099 57.9077C566.1 59.1766 564.042 61.7295 561.225 63.2654C557.886 65.0891 553.891 64.658 550.204 65.207C546.505 65.7594 543.682 68.6592 540.448 70.3306C539.343 70.9023 538.211 71.3805 536.922 71.3511C536.199 71.3334 535.489 71.1515 534.774 71.0673C533.661 70.9393 532.602 70.9688 531.853 71.8361C531.672 72.0483 531.709 72.945 532.028 72.945Z" fill="#EBEBEB"/>
<path d="M418.832 128.007C418.957 128.342 587.873 128.007 585.741 128.007C584.77 128.007 587.216 126.649 586.265 126.211C580.766 123.661 574.751 123.59 568.763 123.076C565.269 122.78 561.679 122.304 558.537 120.759C555.354 119.201 553.369 116.497 551.109 114C544.13 106.256 533.021 102.22 522.265 103.791C510.255 105.548 500.787 114.097 488.756 115.667C481.527 116.614 474.692 114 467.63 113.08C461.814 112.326 456.97 113.382 451.767 115.789C447.956 117.553 444.436 119.04 440.129 119.316C436.821 119.535 433.501 119.181 430.186 119.149C424.88 119.103 419.643 121.251 415.557 124.611C415.018 125.056 413.317 128.007 418.832 128.007Z" fill="#EBEBEB"/>
<path d="M55.7601 147.571C55.8845 147.907 224.801 147.571 222.669 147.571C221.697 147.571 224.144 146.213 223.193 145.775C217.694 143.226 211.678 143.155 205.691 142.641C202.197 142.344 198.607 141.869 195.465 140.324C192.281 138.766 190.297 136.062 188.037 133.565C181.057 125.821 169.949 121.785 159.193 123.356C147.182 125.113 137.715 133.662 125.684 135.232C118.455 136.178 111.62 133.565 104.557 132.644C98.742 131.891 93.8973 132.947 88.6948 135.354C84.884 137.118 81.3634 138.605 77.0568 138.881C73.7489 139.1 70.4284 138.746 67.1133 138.714C61.8071 138.668 56.5704 140.816 52.4846 144.176C51.9465 144.621 50.2457 147.571 55.7601 147.571Z" fill="#EBEBEB"/>
<path d="M125.114 364.502C125.114 368.99 220.43 372.619 338 372.619C455.57 372.619 550.886 368.99 550.886 364.502C550.886 363.365 544.757 362.287 533.688 361.302H142.312C131.243 362.287 125.114 363.365 125.114 364.502Z" fill="#EBEBEB"/>
<path d="M85.7799 361.302H105.186C97.4703 362.624 93.7387 363.761 91.945 364.502C96.2444 366.287 111.711 370.328 166.594 373.789C213.147 376.719 274.023 378.336 338 378.336C401.977 378.336 462.853 376.719 509.407 373.789C564.289 370.328 579.756 366.287 584.055 364.502C582.261 363.761 578.53 362.624 570.814 361.302H590.22C591.284 362.313 591.644 363.365 591.644 364.502C591.644 368.148 587.913 371.002 569.336 373.941C556.618 375.953 538.457 377.763 515.355 379.313C467.963 382.487 404.978 384.23 338 384.23C271.022 384.23 208.037 382.487 160.654 379.313C137.543 377.763 119.382 375.953 106.664 373.941C88.0874 371.002 84.3559 368.148 84.3559 364.502C84.3559 363.365 84.7164 362.313 85.7799 361.302Z" fill="#EBEBEB"/>
<path d="M50.2764 361.302H58.7939C55.8646 363.163 55.7655 364.359 55.7655 364.502C55.7655 364.94 56.6848 375.22 136.579 384.162C190.362 390.183 261.891 393.5 338 393.5C414.109 393.5 485.638 390.183 539.421 384.162C619.315 375.22 620.235 364.94 620.235 364.502C620.235 364.359 620.135 363.163 617.206 361.302H625.724C626.273 362.338 626.544 363.399 626.544 364.502C626.544 370.455 618.684 375.313 601.82 379.776C587.291 383.615 566.551 387.067 540.178 390.014C486.152 396.06 414.352 399.394 338 399.394C261.648 399.394 189.848 396.06 135.822 390.014C109.449 387.067 88.7092 383.615 74.1797 379.776C57.3158 375.313 49.4561 370.455 49.4561 364.502C49.4561 363.399 49.7265 362.338 50.2764 361.302Z" fill="#EBEBEB"/>
<path d="M579.146 245.913H555.814V131.659H579.146V245.913Z" fill="#DBDBDB"/>
<path d="M563.971 139.733H559.436V135.371H563.971V139.733Z" fill="#EBEBEB"/>
<path d="M569.773 139.733H565.238V135.371H569.773V139.733Z" fill="#EBEBEB"/>
<path d="M563.971 147.139H559.436V142.777H563.971V147.139Z" fill="#EBEBEB"/>
<path d="M569.773 147.139H565.238V142.777H569.773V147.139Z" fill="#EBEBEB"/>
<path d="M563.971 154.547H559.436V150.184H563.971V154.547Z" fill="#EBEBEB"/>
<path d="M569.773 154.547H565.238V150.184H569.773V154.547Z" fill="#EBEBEB"/>
<path d="M563.971 161.953H559.436V157.591H563.971V161.953Z" fill="#EBEBEB"/>
<path d="M569.773 161.953H565.238V157.591H569.773V161.953Z" fill="#EBEBEB"/>
<path d="M563.971 169.359H559.436V164.997H563.971V169.359Z" fill="#EBEBEB"/>
<path d="M569.773 169.359H565.238V164.997H569.773V169.359Z" fill="#EBEBEB"/>
<path d="M563.971 176.767H559.436V172.404H563.971V176.767Z" fill="#EBEBEB"/>
<path d="M569.773 176.767H565.238V172.404H569.773V176.767Z" fill="#EBEBEB"/>
<path d="M563.971 184.173H559.436V179.81H563.971V184.173Z" fill="#EBEBEB"/>
<path d="M569.773 184.173H565.238V179.81H569.773V184.173Z" fill="#EBEBEB"/>
<path d="M563.971 191.58H559.436V187.218H563.971V191.58Z" fill="#EBEBEB"/>
<path d="M569.773 191.58H565.238V187.218H569.773V191.58Z" fill="#EBEBEB"/>
<path d="M563.971 198.986H559.436V194.624H563.971V198.986Z" fill="#EBEBEB"/>
<path d="M569.773 198.986H565.238V194.624H569.773V198.986Z" fill="#EBEBEB"/>
<path d="M563.971 206.394H559.436V202.031H563.971V206.394Z" fill="#EBEBEB"/>
<path d="M569.773 206.394H565.238V202.031H569.773V206.394Z" fill="#EBEBEB"/>
<path d="M563.971 213.8H559.436V209.437H563.971V213.8Z" fill="#EBEBEB"/>
<path d="M569.773 213.8H565.238V209.437H569.773V213.8Z" fill="#EBEBEB"/>
<path d="M563.971 221.207H559.436V216.845H563.971V221.207Z" fill="#EBEBEB"/>
<path d="M569.773 221.207H565.238V216.845H569.773V221.207Z" fill="#EBEBEB"/>
<path d="M563.971 228.613H559.436V224.251H563.971V228.613Z" fill="#EBEBEB"/>
<path d="M569.773 228.613H565.238V224.251H569.773V228.613Z" fill="#EBEBEB"/>
<path d="M563.971 236.02H559.436V231.657H563.971V236.02Z" fill="#EBEBEB"/>
<path d="M570.989 231.658H575.525V236.02H570.989V231.658Z" fill="#EBEBEB"/>
<path d="M570.989 224.251H575.525V228.613H570.989V224.251Z" fill="#EBEBEB"/>
<path d="M570.989 216.844H575.525V221.206H570.989V216.844Z" fill="#EBEBEB"/>
<path d="M570.989 209.437H575.525V213.8H570.989V209.437Z" fill="#EBEBEB"/>
<path d="M570.989 202.03H575.525V206.393H570.989V202.03Z" fill="#EBEBEB"/>
<path d="M570.989 194.624H575.525V198.986H570.989V194.624Z" fill="#EBEBEB"/>
<path d="M570.989 187.217H575.525V191.579H570.989V187.217Z" fill="#EBEBEB"/>
<path d="M570.989 179.811H575.525V184.173H570.989V179.811Z" fill="#EBEBEB"/>
<path d="M570.989 172.404H575.525V176.766H570.989V172.404Z" fill="#EBEBEB"/>
<path d="M570.989 164.997H575.525V169.36H570.989V164.997Z" fill="#EBEBEB"/>
<path d="M570.989 157.59H575.525V161.953H570.989V157.59Z" fill="#EBEBEB"/>
<path d="M570.989 150.183H575.525V154.546H570.989V150.183Z" fill="#EBEBEB"/>
<path d="M570.989 142.777H575.525V147.14H570.989V142.777Z" fill="#EBEBEB"/>
<path d="M570.989 135.37H575.525V139.732H570.989V135.37Z" fill="#EBEBEB"/>
<path d="M569.773 236.02H565.238V231.657H569.773V236.02Z" fill="#EBEBEB"/>
<path d="M597.542 245.913H579.146V131.659H597.542V245.913Z" fill="#A6A6A6"/>
<path d="M591.901 231.658H595.646V236.02H591.901V231.658Z" fill="#C7C7C7"/>
<path d="M587.11 231.658H590.855V236.02H587.11V231.658Z" fill="#C7C7C7"/>
<path d="M591.901 224.251H595.646V228.613H591.901V224.251Z" fill="#C7C7C7"/>
<path d="M587.11 224.251H590.855V228.613H587.11V224.251Z" fill="#C7C7C7"/>
<path d="M591.901 216.844H595.646V221.206H591.901V216.844Z" fill="#C7C7C7"/>
<path d="M587.11 216.844H590.855V221.206H587.11V216.844Z" fill="#C7C7C7"/>
<path d="M591.901 209.437H595.646V213.8H591.901V209.437Z" fill="#C7C7C7"/>
<path d="M587.11 209.437H590.855V213.8H587.11V209.437Z" fill="#C7C7C7"/>
<path d="M591.901 202.03H595.646V206.393H591.901V202.03Z" fill="#C7C7C7"/>
<path d="M587.11 202.03H590.855V206.393H587.11V202.03Z" fill="#C7C7C7"/>
<path d="M591.901 194.624H595.646V198.986H591.901V194.624Z" fill="#C7C7C7"/>
<path d="M587.11 194.624H590.855V198.986H587.11V194.624Z" fill="#C7C7C7"/>
<path d="M591.901 187.217H595.646V191.579H591.901V187.217Z" fill="#C7C7C7"/>
<path d="M587.11 187.217H590.855V191.579H587.11V187.217Z" fill="#C7C7C7"/>
<path d="M591.901 179.811H595.646V184.173H591.901V179.811Z" fill="#C7C7C7"/>
<path d="M587.11 179.811H590.855V184.173H587.11V179.811Z" fill="#C7C7C7"/>
<path d="M591.901 172.404H595.646V176.766H591.901V172.404Z" fill="#C7C7C7"/>
<path d="M587.11 172.404H590.855V176.766H587.11V172.404Z" fill="#C7C7C7"/>
<path d="M591.901 164.997H595.646V169.36H591.901V164.997Z" fill="#C7C7C7"/>
<path d="M587.11 164.997H590.855V169.36H587.11V164.997Z" fill="#C7C7C7"/>
<path d="M591.901 157.59H595.646V161.953H591.901V157.59Z" fill="#C7C7C7"/>
<path d="M587.11 157.59H590.855V161.953H587.11V157.59Z" fill="#C7C7C7"/>
<path d="M591.901 150.183H595.646V154.546H591.901V150.183Z" fill="#C7C7C7"/>
<path d="M587.11 150.183H590.855V154.546H587.11V150.183Z" fill="#C7C7C7"/>
<path d="M591.901 142.777H595.646V147.14H591.901V142.777Z" fill="#C7C7C7"/>
<path d="M587.11 142.777H590.855V147.14H587.11V142.777Z" fill="#C7C7C7"/>
<path d="M591.901 135.37H595.646V139.732H591.901V135.37Z" fill="#C7C7C7"/>
<path d="M586.104 139.733H582.359V135.371H586.104V139.733Z" fill="#C7C7C7"/>
<path d="M586.104 147.139H582.359V142.777H586.104V147.139Z" fill="#C7C7C7"/>
<path d="M586.104 154.547H582.359V150.184H586.104V154.547Z" fill="#C7C7C7"/>
<path d="M586.104 161.953H582.359V157.591H586.104V161.953Z" fill="#C7C7C7"/>
<path d="M586.104 169.359H582.359V164.997H586.104V169.359Z" fill="#C7C7C7"/>
<path d="M586.104 176.767H582.359V172.404H586.104V176.767Z" fill="#C7C7C7"/>
<path d="M586.104 184.173H582.359V179.81H586.104V184.173Z" fill="#C7C7C7"/>
<path d="M586.104 191.58H582.359V187.218H586.104V191.58Z" fill="#C7C7C7"/>
<path d="M586.104 198.986H582.359V194.624H586.104V198.986Z" fill="#C7C7C7"/>
<path d="M586.104 206.394H582.359V202.031H586.104V206.394Z" fill="#C7C7C7"/>
<path d="M586.104 213.8H582.359V209.437H586.104V213.8Z" fill="#C7C7C7"/>
<path d="M586.104 221.207H582.359V216.845H586.104V221.207Z" fill="#C7C7C7"/>
<path d="M586.104 228.613H582.359V224.251H586.104V228.613Z" fill="#C7C7C7"/>
<path d="M586.104 236.02H582.359V231.657H586.104V236.02Z" fill="#C7C7C7"/>
<path d="M587.11 135.37H590.855V139.732H587.11V135.37Z" fill="#C7C7C7"/>
<path d="M500.754 245.913H477.912V146.262H500.754V245.913Z" fill="#EBEBEB"/>
<path d="M500.754 146.262H477.363V144.08H500.754V146.262Z" fill="#C7C7C7"/>
<path d="M482.291 245.914H479.977V149.478H482.291V245.914Z" fill="white"/>
<path d="M486.391 245.914H484.076V149.478H486.391V245.914Z" fill="white"/>
<path d="M490.49 245.914H488.175V149.478H490.49V245.914Z" fill="white"/>
<path d="M494.589 245.914H492.275V149.478H494.589V245.914Z" fill="white"/>
<path d="M498.689 245.914H496.374V149.478H498.689V245.914Z" fill="white"/>
<path d="M482.291 156.541H479.977V152.235H482.291V156.541Z" fill="#EBEBEB"/>
<path d="M486.391 156.541H484.076V152.235H486.391V156.541Z" fill="#EBEBEB"/>
<path d="M490.49 156.541H488.175V152.235H490.49V156.541Z" fill="#EBEBEB"/>
<path d="M494.589 156.541H492.275V152.235H494.589V156.541Z" fill="#EBEBEB"/>
<path d="M498.689 156.541H496.374V152.235H498.689V156.541Z" fill="#EBEBEB"/>
<path d="M482.291 163.541H479.977V159.234H482.291V163.541Z" fill="#EBEBEB"/>
<path d="M486.391 163.541H484.076V159.234H486.391V163.541Z" fill="#EBEBEB"/>
<path d="M490.49 163.541H488.175V159.234H490.49V163.541Z" fill="#EBEBEB"/>
<path d="M494.589 163.541H492.275V159.234H494.589V163.541Z" fill="#EBEBEB"/>
<path d="M498.689 163.541H496.374V159.234H498.689V163.541Z" fill="#EBEBEB"/>
<path d="M482.291 170.541H479.977V166.234H482.291V170.541Z" fill="#EBEBEB"/>
<path d="M486.391 170.541H484.076V166.234H486.391V170.541Z" fill="#EBEBEB"/>
<path d="M490.49 170.541H488.175V166.234H490.49V170.541Z" fill="#EBEBEB"/>
<path d="M494.589 170.541H492.275V166.234H494.589V170.541Z" fill="#EBEBEB"/>
<path d="M498.689 170.541H496.374V166.234H498.689V170.541Z" fill="#EBEBEB"/>
<path d="M482.291 177.54H479.977V173.233H482.291V177.54Z" fill="#EBEBEB"/>
<path d="M486.391 177.54H484.076V173.233H486.391V177.54Z" fill="#EBEBEB"/>
<path d="M490.49 177.54H488.175V173.233H490.49V177.54Z" fill="#EBEBEB"/>
<path d="M494.589 177.54H492.275V173.233H494.589V177.54Z" fill="#EBEBEB"/>
<path d="M498.689 177.54H496.374V173.233H498.689V177.54Z" fill="#EBEBEB"/>
<path d="M482.291 184.54H479.977V180.233H482.291V184.54Z" fill="#EBEBEB"/>
<path d="M486.391 184.54H484.076V180.233H486.391V184.54Z" fill="#EBEBEB"/>
<path d="M490.49 184.54H488.175V180.233H490.49V184.54Z" fill="#EBEBEB"/>
<path d="M494.589 184.54H492.275V180.233H494.589V184.54Z" fill="#EBEBEB"/>
<path d="M498.689 184.54H496.374V180.233H498.689V184.54Z" fill="#EBEBEB"/>
<path d="M482.291 191.539H479.977V187.233H482.291V191.539Z" fill="#EBEBEB"/>
<path d="M486.391 191.539H484.076V187.233H486.391V191.539Z" fill="#EBEBEB"/>
<path d="M490.49 191.539H488.175V187.233H490.49V191.539Z" fill="#EBEBEB"/>
<path d="M494.589 191.539H492.275V187.233H494.589V191.539Z" fill="#EBEBEB"/>
<path d="M498.689 191.539H496.374V187.233H498.689V191.539Z" fill="#EBEBEB"/>
<path d="M482.291 198.539H479.977V194.232H482.291V198.539Z" fill="#EBEBEB"/>
<path d="M486.391 198.539H484.076V194.232H486.391V198.539Z" fill="#EBEBEB"/>
<path d="M490.49 198.539H488.175V194.232H490.49V198.539Z" fill="#EBEBEB"/>
<path d="M494.589 198.539H492.275V194.232H494.589V198.539Z" fill="#EBEBEB"/>
<path d="M498.689 198.539H496.374V194.232H498.689V198.539Z" fill="#EBEBEB"/>
<path d="M482.291 205.539H479.977V201.232H482.291V205.539Z" fill="#EBEBEB"/>
<path d="M486.391 205.539H484.076V201.232H486.391V205.539Z" fill="#EBEBEB"/>
<path d="M490.49 205.539H488.175V201.232H490.49V205.539Z" fill="#EBEBEB"/>
<path d="M494.589 205.539H492.275V201.232H494.589V205.539Z" fill="#EBEBEB"/>
<path d="M498.689 205.539H496.374V201.232H498.689V205.539Z" fill="#EBEBEB"/>
<path d="M482.291 212.538H479.977V208.231H482.291V212.538Z" fill="#EBEBEB"/>
<path d="M486.391 212.538H484.076V208.231H486.391V212.538Z" fill="#EBEBEB"/>
<path d="M490.49 212.538H488.175V208.231H490.49V212.538Z" fill="#EBEBEB"/>
<path d="M494.589 212.538H492.275V208.231H494.589V212.538Z" fill="#EBEBEB"/>
<path d="M498.689 212.538H496.374V208.231H498.689V212.538Z" fill="#EBEBEB"/>
<path d="M482.291 219.538H479.977V215.231H482.291V219.538Z" fill="#EBEBEB"/>
<path d="M486.391 219.538H484.076V215.231H486.391V219.538Z" fill="#EBEBEB"/>
<path d="M490.49 219.538H488.175V215.231H490.49V219.538Z" fill="#EBEBEB"/>
<path d="M494.589 219.538H492.275V215.231H494.589V219.538Z" fill="#EBEBEB"/>
<path d="M498.689 219.538H496.374V215.231H498.689V219.538Z" fill="#EBEBEB"/>
<path d="M482.291 226.537H479.977V222.23H482.291V226.537Z" fill="#EBEBEB"/>
<path d="M486.391 226.537H484.076V222.23H486.391V226.537Z" fill="#EBEBEB"/>
<path d="M490.49 226.537H488.175V222.23H490.49V226.537Z" fill="#EBEBEB"/>
<path d="M494.589 226.537H492.275V222.23H494.589V226.537Z" fill="#EBEBEB"/>
<path d="M498.689 226.537H496.374V222.23H498.689V226.537Z" fill="#EBEBEB"/>
<path d="M482.291 233.537H479.977V229.23H482.291V233.537Z" fill="#EBEBEB"/>
<path d="M486.391 233.537H484.076V229.23H486.391V233.537Z" fill="#EBEBEB"/>
<path d="M490.49 233.537H488.175V229.23H490.49V233.537Z" fill="#EBEBEB"/>
<path d="M494.589 233.537H492.275V229.23H494.589V233.537Z" fill="#EBEBEB"/>
<path d="M498.689 233.537H496.374V229.23H498.689V233.537Z" fill="#EBEBEB"/>
<path d="M482.291 240.536H479.977V236.23H482.291V240.536Z" fill="#EBEBEB"/>
<path d="M486.391 240.536H484.076V236.23H486.391V240.536Z" fill="#EBEBEB"/>
<path d="M490.49 240.536H488.175V236.23H490.49V240.536Z" fill="#EBEBEB"/>
<path d="M494.589 240.536H492.275V236.23H494.589V240.536Z" fill="#EBEBEB"/>
<path d="M498.689 240.536H496.374V236.23H498.689V240.536Z" fill="#EBEBEB"/>
<path d="M482.291 245.914H479.977V243.229H482.291V245.914Z" fill="#EBEBEB"/>
<path d="M486.391 245.914H484.076V243.229H486.391V245.914Z" fill="#EBEBEB"/>
<path d="M490.49 245.914H488.175V243.229H490.49V245.914Z" fill="#EBEBEB"/>
<path d="M494.589 245.914H492.275V243.229H494.589V245.914Z" fill="#EBEBEB"/>
<path d="M498.689 245.914H496.374V243.229H498.689V245.914Z" fill="#EBEBEB"/>
<path d="M515.419 245.913H500.754V146.262H515.419V245.913Z" fill="#DBDBDB"/>
<path d="M516.054 146.262H500.754V144.08H516.054V146.262Z" fill="#C7C7C7"/>
<path d="M505.134 245.914H502.82V149.478H505.134V245.914Z" fill="#C7C7C7"/>
<path d="M509.234 245.914H506.919V149.478H509.234V245.914Z" fill="#C7C7C7"/>
<path d="M513.333 245.914H511.018V149.478H513.333V245.914Z" fill="#C7C7C7"/>
<path d="M505.134 156.541H502.82V152.235H505.134V156.541Z" fill="#DBDBDB"/>
<path d="M509.234 156.541H506.919V152.235H509.234V156.541Z" fill="#DBDBDB"/>
<path d="M513.333 156.541H511.018V152.235H513.333V156.541Z" fill="#DBDBDB"/>
<path d="M505.134 163.541H502.82V159.234H505.134V163.541Z" fill="#DBDBDB"/>
<path d="M509.234 163.541H506.919V159.234H509.234V163.541Z" fill="#DBDBDB"/>
<path d="M513.333 163.541H511.018V159.234H513.333V163.541Z" fill="#DBDBDB"/>
<path d="M505.134 170.541H502.82V166.234H505.134V170.541Z" fill="#DBDBDB"/>
<path d="M509.234 170.541H506.919V166.234H509.234V170.541Z" fill="#DBDBDB"/>
<path d="M513.333 170.541H511.018V166.234H513.333V170.541Z" fill="#DBDBDB"/>
<path d="M505.134 177.54H502.82V173.233H505.134V177.54Z" fill="#DBDBDB"/>
<path d="M509.234 177.54H506.919V173.233H509.234V177.54Z" fill="#DBDBDB"/>
<path d="M513.333 177.54H511.018V173.233H513.333V177.54Z" fill="#DBDBDB"/>
<path d="M505.134 184.54H502.82V180.233H505.134V184.54Z" fill="#DBDBDB"/>
<path d="M509.234 184.54H506.919V180.233H509.234V184.54Z" fill="#DBDBDB"/>
<path d="M513.333 184.54H511.018V180.233H513.333V184.54Z" fill="#DBDBDB"/>
<path d="M505.134 191.539H502.82V187.233H505.134V191.539Z" fill="#DBDBDB"/>
<path d="M509.234 191.539H506.919V187.233H509.234V191.539Z" fill="#DBDBDB"/>
<path d="M513.333 191.539H511.018V187.233H513.333V191.539Z" fill="#DBDBDB"/>
<path d="M505.134 198.539H502.82V194.232H505.134V198.539Z" fill="#DBDBDB"/>
<path d="M509.234 198.539H506.919V194.232H509.234V198.539Z" fill="#DBDBDB"/>
<path d="M513.333 198.539H511.018V194.232H513.333V198.539Z" fill="#DBDBDB"/>
<path d="M505.134 205.539H502.82V201.232H505.134V205.539Z" fill="#DBDBDB"/>
<path d="M509.234 205.539H506.919V201.232H509.234V205.539Z" fill="#DBDBDB"/>
<path d="M513.333 205.539H511.018V201.232H513.333V205.539Z" fill="#DBDBDB"/>
<path d="M505.134 212.538H502.82V208.231H505.134V212.538Z" fill="#DBDBDB"/>
<path d="M509.234 212.538H506.919V208.231H509.234V212.538Z" fill="#DBDBDB"/>
<path d="M513.333 212.538H511.018V208.231H513.333V212.538Z" fill="#DBDBDB"/>
<path d="M505.134 219.538H502.82V215.231H505.134V219.538Z" fill="#DBDBDB"/>
<path d="M509.234 219.538H506.919V215.231H509.234V219.538Z" fill="#DBDBDB"/>
<path d="M513.333 219.538H511.018V215.231H513.333V219.538Z" fill="#DBDBDB"/>
<path d="M505.134 226.537H502.82V222.23H505.134V226.537Z" fill="#DBDBDB"/>
<path d="M509.234 226.537H506.919V222.23H509.234V226.537Z" fill="#DBDBDB"/>
<path d="M513.333 226.537H511.018V222.23H513.333V226.537Z" fill="#DBDBDB"/>
<path d="M505.134 233.537H502.82V229.23H505.134V233.537Z" fill="#DBDBDB"/>
<path d="M509.234 233.537H506.919V229.23H509.234V233.537Z" fill="#DBDBDB"/>
<path d="M513.333 233.537H511.018V229.23H513.333V233.537Z" fill="#DBDBDB"/>
<path d="M505.134 240.536H502.82V236.23H505.134V240.536Z" fill="#DBDBDB"/>
<path d="M509.234 240.536H506.919V236.23H509.234V240.536Z" fill="#DBDBDB"/>
<path d="M513.333 240.536H511.018V236.23H513.333V240.536Z" fill="#DBDBDB"/>
<path d="M505.134 245.914H502.82V243.229H505.134V245.914Z" fill="#DBDBDB"/>
<path d="M509.234 245.914H506.919V243.229H509.234V245.914Z" fill="#DBDBDB"/>
<path d="M513.333 245.914H511.018V243.229H513.333V245.914Z" fill="#DBDBDB"/>
<path d="M615.187 245.914H587.703V186.801H615.187V245.914Z" fill="#EBEBEB"/>
<path d="M615.187 186.801H591.612V181.789H615.187V186.801Z" fill="#C7C7C7"/>
<path d="M612.173 245.914H590.716V189.417H612.173V245.914Z" fill="#DBDBDB"/>
<path d="M612.173 196.144H590.716V194.809H612.173V196.144Z" fill="white"/>
<path d="M612.173 201.674H590.716V200.338H612.173V201.674Z" fill="white"/>
<path d="M612.173 207.203H590.716V205.868H612.173V207.203Z" fill="white"/>
<path d="M612.173 212.734H590.716V211.398H612.173V212.734Z" fill="white"/>
<path d="M612.173 218.264H590.716V216.928H612.173V218.264Z" fill="white"/>
<path d="M612.173 223.793H590.716V222.458H612.173V223.793Z" fill="white"/>
<path d="M612.173 229.324H590.716V227.988H612.173V229.324Z" fill="white"/>
<path d="M612.173 234.853H590.716V233.518H612.173V234.853Z" fill="white"/>
<path d="M612.173 240.384H590.716V239.049H612.173V240.384Z" fill="white"/>
<path d="M612.173 245.913H590.716V244.578H612.173V245.913Z" fill="white"/>
<path d="M632.402 245.914H615.187V186.801H632.402V245.914Z" fill="#DBDBDB"/>
<path d="M629.818 186.801H615.187V181.789H629.818V186.801Z" fill="#A6A6A6"/>
<path d="M630.796 245.914H617.56V189.417H630.796V245.914Z" fill="#C7C7C7"/>
<path d="M630.796 196.144H617.56V194.809H630.796V196.144Z" fill="white"/>
<path d="M630.796 201.674H617.56V200.338H630.796V201.674Z" fill="white"/>
<path d="M630.796 207.203H617.56V205.868H630.796V207.203Z" fill="white"/>
<path d="M630.796 212.734H617.56V211.398H630.796V212.734Z" fill="white"/>
<path d="M630.796 218.264H617.56V216.928H630.796V218.264Z" fill="white"/>
<path d="M630.796 223.793H617.56V222.458H630.796V223.793Z" fill="white"/>
<path d="M630.796 229.324H617.56V227.988H630.796V229.324Z" fill="white"/>
<path d="M630.796 234.853H617.56V233.518H630.796V234.853Z" fill="white"/>
<path d="M630.796 240.384H617.56V239.049H630.796V240.384Z" fill="white"/>
<path d="M630.796 245.913H617.56V244.578H630.796V245.913Z" fill="white"/>
<path d="M541.045 245.914H517.757V169.751H541.045V245.914Z" fill="#DBDBDB"/>
<path d="M525.54 181.01H521.419V176.343H525.54V181.01Z" fill="#C7C7C7"/>
<path d="M525.54 190.977H521.419V186.311H525.54V190.977Z" fill="#C7C7C7"/>
<path d="M525.54 200.943H521.419V196.277H525.54V200.943Z" fill="#C7C7C7"/>
<path d="M525.54 210.91H521.419V206.243H525.54V210.91Z" fill="#C7C7C7"/>
<path d="M525.54 220.877H521.419V216.21H525.54V220.877Z" fill="#C7C7C7"/>
<path d="M525.54 230.843H521.419V226.177H525.54V230.843Z" fill="#C7C7C7"/>
<path d="M525.54 240.809H521.419V236.143H525.54V240.809Z" fill="#C7C7C7"/>
<path d="M531.469 181.01H527.348V176.343H531.469V181.01Z" fill="#C7C7C7"/>
<path d="M531.469 190.977H527.348V186.311H531.469V190.977Z" fill="#C7C7C7"/>
<path d="M531.469 200.943H527.348V196.277H531.469V200.943Z" fill="#C7C7C7"/>
<path d="M531.469 210.91H527.348V206.243H531.469V210.91Z" fill="#C7C7C7"/>
<path d="M531.469 220.877H527.348V216.21H531.469V220.877Z" fill="#C7C7C7"/>
<path d="M531.469 230.843H527.348V226.177H531.469V230.843Z" fill="#C7C7C7"/>
<path d="M531.469 240.809H527.348V236.143H531.469V240.809Z" fill="#C7C7C7"/>
<path d="M537.382 181.01H533.261V176.343H537.382V181.01Z" fill="#C7C7C7"/>
<path d="M537.382 190.977H533.261V186.311H537.382V190.977Z" fill="#C7C7C7"/>
<path d="M537.382 200.943H533.261V196.277H537.382V200.943Z" fill="#C7C7C7"/>
<path d="M537.382 210.91H533.261V206.243H537.382V210.91Z" fill="#C7C7C7"/>
<path d="M537.382 220.877H533.261V216.21H537.382V220.877Z" fill="#C7C7C7"/>
<path d="M537.382 230.843H533.261V226.177H537.382V230.843Z" fill="#C7C7C7"/>
<path d="M537.382 240.809H533.261V236.143H537.382V240.809Z" fill="#C7C7C7"/>
<path d="M557.384 245.914H541.045V169.751H557.384V245.914Z" fill="#A6A6A6"/>
<path d="M552.357 235.399H555.712V240.065H552.357V235.399Z" fill="#C7C7C7"/>
<path d="M552.357 225.432H555.712V230.098H552.357V225.432Z" fill="#C7C7C7"/>
<path d="M552.357 215.466H555.712V220.132H552.357V215.466Z" fill="#C7C7C7"/>
<path d="M552.357 205.499H555.712V210.166H552.357V205.499Z" fill="#C7C7C7"/>
<path d="M552.357 195.533H555.712V200.199H552.357V195.533Z" fill="#C7C7C7"/>
<path d="M552.357 185.566H555.712V190.232H552.357V185.566Z" fill="#C7C7C7"/>
<path d="M552.357 175.6H555.712V180.266H552.357V175.6Z" fill="#C7C7C7"/>
<path d="M547.531 235.399H550.886V240.065H547.531V235.399Z" fill="#C7C7C7"/>
<path d="M547.531 225.432H550.886V230.098H547.531V225.432Z" fill="#C7C7C7"/>
<path d="M547.531 215.466H550.886V220.132H547.531V215.466Z" fill="#C7C7C7"/>
<path d="M547.531 205.499H550.886V210.166H547.531V205.499Z" fill="#C7C7C7"/>
<path d="M547.531 195.533H550.886V200.199H547.531V195.533Z" fill="#C7C7C7"/>
<path d="M547.531 185.566H550.886V190.232H547.531V185.566Z" fill="#C7C7C7"/>
<path d="M547.531 175.6H550.886V180.266H547.531V175.6Z" fill="#C7C7C7"/>
<path d="M542.717 235.399H546.072V240.065H542.717V235.399Z" fill="#C7C7C7"/>
<path d="M542.717 225.432H546.072V230.098H542.717V225.432Z" fill="#C7C7C7"/>
<path d="M542.717 215.466H546.072V220.132H542.717V215.466Z" fill="#C7C7C7"/>
<path d="M542.717 205.499H546.072V210.166H542.717V205.499Z" fill="#C7C7C7"/>
<path d="M542.717 195.533H546.072V200.199H542.717V195.533Z" fill="#C7C7C7"/>
<path d="M542.717 185.566H546.072V190.232H542.717V185.566Z" fill="#C7C7C7"/>
<path d="M542.717 175.6H546.072V180.266H542.717V175.6Z" fill="#C7C7C7"/>
<path d="M458.536 166.382H443.858V150.184H458.536V166.382Z" fill="#DBDBDB"/>
<path d="M467.844 166.976H458.537V150.184H467.844V166.976Z" fill="#C7C7C7"/>
<path d="M468.464 166.976H459.227V157.336H468.464V166.976Z" fill="#DBDBDB"/>
<path d="M474.224 166.976H468.463V157.336H474.224V166.976Z" fill="#C7C7C7"/>
<path d="M461.964 245.913H438.228V165.329H461.964V245.913Z" fill="#EBEBEB"/>
<path d="M448.405 171.642H440.941V168.793H448.405V171.642Z" fill="white"/>
<path d="M457.953 171.642H450.489V168.793H457.953V171.642Z" fill="white"/>
<path d="M448.405 176.479H440.941V173.629H448.405V176.479Z" fill="white"/>
<path d="M457.953 176.479H450.489V173.629H457.953V176.479Z" fill="white"/>
<path d="M448.405 181.316H440.941V178.467H448.405V181.316Z" fill="white"/>
<path d="M457.953 181.316H450.489V178.467H457.953V181.316Z" fill="white"/>
<path d="M448.405 186.153H440.941V183.303H448.405V186.153Z" fill="white"/>
<path d="M457.953 186.153H450.489V183.303H457.953V186.153Z" fill="white"/>
<path d="M448.405 190.99H440.941V188.141H448.405V190.99Z" fill="white"/>
<path d="M457.953 190.99H450.489V188.141H457.953V190.99Z" fill="white"/>
<path d="M448.405 195.827H440.941V192.977H448.405V195.827Z" fill="white"/>
<path d="M457.953 195.827H450.489V192.977H457.953V195.827Z" fill="white"/>
<path d="M448.405 200.664H440.941V197.815H448.405V200.664Z" fill="white"/>
<path d="M457.953 200.664H450.489V197.815H457.953V200.664Z" fill="white"/>
<path d="M448.405 205.5H440.941V202.651H448.405V205.5Z" fill="white"/>
<path d="M457.953 205.5H450.489V202.651H457.953V205.5Z" fill="white"/>
<path d="M448.405 210.338H440.941V207.488H448.405V210.338Z" fill="white"/>
<path d="M457.953 210.338H450.489V207.488H457.953V210.338Z" fill="white"/>
<path d="M448.405 215.174H440.941V212.325H448.405V215.174Z" fill="white"/>
<path d="M457.953 215.174H450.489V212.325H457.953V215.174Z" fill="white"/>
<path d="M448.405 220.011H440.941V217.162H448.405V220.011Z" fill="white"/>
<path d="M457.953 220.011H450.489V217.162H457.953V220.011Z" fill="white"/>
<path d="M448.405 224.848H440.941V221.999H448.405V224.848Z" fill="white"/>
<path d="M457.953 224.848H450.489V221.999H457.953V224.848Z" fill="white"/>
<path d="M448.405 229.685H440.941V226.836H448.405V229.685Z" fill="white"/>
<path d="M457.953 229.685H450.489V226.836H457.953V229.685Z" fill="white"/>
<path d="M448.405 234.522H440.941V231.673H448.405V234.522Z" fill="white"/>
<path d="M457.953 234.522H450.489V231.673H457.953V234.522Z" fill="white"/>
<path d="M481.197 245.913H461.963V165.329H481.197V245.913Z" fill="#C7C7C7"/>
<path d="M473.141 231.673H479.269V234.522H473.141V231.673Z" fill="#EBEBEB"/>
<path d="M465.301 231.673H471.429V234.522H465.301V231.673Z" fill="#EBEBEB"/>
<path d="M473.141 226.836H479.269V229.686H473.141V226.836Z" fill="#EBEBEB"/>
<path d="M465.301 226.836H471.429V229.686H465.301V226.836Z" fill="#EBEBEB"/>
<path d="M473.141 221.999H479.269V224.849H473.141V221.999Z" fill="#EBEBEB"/>
<path d="M465.301 221.999H471.429V224.849H465.301V221.999Z" fill="#EBEBEB"/>
<path d="M473.141 217.163H479.269V220.012H473.141V217.163Z" fill="#EBEBEB"/>
<path d="M465.301 217.163H471.429V220.012H465.301V217.163Z" fill="#EBEBEB"/>
<path d="M473.141 212.325H479.269V215.175H473.141V212.325Z" fill="#EBEBEB"/>
<path d="M465.301 212.325H471.429V215.175H465.301V212.325Z" fill="#EBEBEB"/>
<path d="M473.141 207.488H479.269V210.338H473.141V207.488Z" fill="#EBEBEB"/>
<path d="M465.301 207.488H471.429V210.338H465.301V207.488Z" fill="#EBEBEB"/>
<path d="M473.141 202.652H479.269V205.501H473.141V202.652Z" fill="#EBEBEB"/>
<path d="M465.301 202.652H471.429V205.501H465.301V202.652Z" fill="#EBEBEB"/>
<path d="M473.141 197.814H479.269V200.664H473.141V197.814Z" fill="#EBEBEB"/>
<path d="M465.301 197.814H471.429V200.664H465.301V197.814Z" fill="#EBEBEB"/>
<path d="M473.141 192.978H479.269V195.827H473.141V192.978Z" fill="#EBEBEB"/>
<path d="M465.301 192.978H471.429V195.827H465.301V192.978Z" fill="#EBEBEB"/>
<path d="M473.141 188.141H479.269V190.99H473.141V188.141Z" fill="#EBEBEB"/>
<path d="M465.301 188.141H471.429V190.99H465.301V188.141Z" fill="#EBEBEB"/>
<path d="M473.141 183.304H479.269V186.154H473.141V183.304Z" fill="#EBEBEB"/>
<path d="M465.301 183.304H471.429V186.154H465.301V183.304Z" fill="#EBEBEB"/>
<path d="M473.141 178.467H479.269V181.316H473.141V178.467Z" fill="#EBEBEB"/>
<path d="M465.301 178.467H471.429V181.316H465.301V178.467Z" fill="#EBEBEB"/>
<path d="M473.141 173.631H479.269V176.48H473.141V173.631Z" fill="#EBEBEB"/>
<path d="M465.301 173.631H471.429V176.48H465.301V173.631Z" fill="#EBEBEB"/>
<path d="M473.141 168.793H479.269V171.643H473.141V168.793Z" fill="#EBEBEB"/>
<path d="M465.301 168.793H471.429V171.643H465.301V168.793Z" fill="#EBEBEB"/>
<path d="M409.604 245.914H381.608V193.404H409.604V245.914Z" fill="#C7C7C7"/>
<path d="M390.965 201.166H386.01V197.948H390.965V201.166Z" fill="#DBDBDB"/>
<path d="M390.965 208.038H386.01V204.82H390.965V208.038Z" fill="#DBDBDB"/>
<path d="M390.965 214.909H386.01V211.691H390.965V214.909Z" fill="#DBDBDB"/>
<path d="M390.965 221.78H386.01V218.563H390.965V221.78Z" fill="#DBDBDB"/>
<path d="M390.965 228.652H386.01V225.434H390.965V228.652Z" fill="#DBDBDB"/>
<path d="M390.965 235.523H386.01V232.305H390.965V235.523Z" fill="#DBDBDB"/>
<path d="M390.965 242.394H386.01V239.177H390.965V242.394Z" fill="#DBDBDB"/>
<path d="M398.092 201.166H393.137V197.948H398.092V201.166Z" fill="#DBDBDB"/>
<path d="M398.092 208.038H393.137V204.82H398.092V208.038Z" fill="#DBDBDB"/>
<path d="M398.092 214.909H393.137V211.691H398.092V214.909Z" fill="#DBDBDB"/>
<path d="M398.092 221.78H393.137V218.563H398.092V221.78Z" fill="#DBDBDB"/>
<path d="M398.092 228.652H393.137V225.434H398.092V228.652Z" fill="#DBDBDB"/>
<path d="M398.092 235.523H393.137V232.305H398.092V235.523Z" fill="#DBDBDB"/>
<path d="M398.092 242.394H393.137V239.177H398.092V242.394Z" fill="#DBDBDB"/>
<path d="M405.201 201.166H400.247V197.948H405.201V201.166Z" fill="#DBDBDB"/>
<path d="M405.201 208.038H400.247V204.82H405.201V208.038Z" fill="#DBDBDB"/>
<path d="M405.201 214.909H400.247V211.691H405.201V214.909Z" fill="#DBDBDB"/>
<path d="M405.201 221.78H400.247V218.563H405.201V221.78Z" fill="#DBDBDB"/>
<path d="M405.201 228.652H400.247V225.434H405.201V228.652Z" fill="#DBDBDB"/>
<path d="M405.201 235.523H400.247V232.305H405.201V235.523Z" fill="#DBDBDB"/>
<path d="M405.201 242.394H400.247V239.177H405.201V242.394Z" fill="#DBDBDB"/>
<path d="M409.603 193.403H390.965V187.933H409.603V193.403Z" fill="#DBDBDB"/>
<path d="M409.603 187.933H397.787V184.545H409.603V187.933Z" fill="#EBEBEB"/>
<path d="M429.246 245.914H409.604V193.404H429.246V245.914Z" fill="#A6A6A6"/>
<path d="M423.203 238.664H427.236V241.881H423.203V238.664Z" fill="#C7C7C7"/>
<path d="M423.203 231.792H427.236V235.01H423.203V231.792Z" fill="#C7C7C7"/>
<path d="M423.203 224.921H427.236V228.138H423.203V224.921Z" fill="#C7C7C7"/>
<path d="M423.203 218.05H427.236V221.267H423.203V218.05Z" fill="#C7C7C7"/>
<path d="M423.203 211.179H427.236V214.396H423.203V211.179Z" fill="#C7C7C7"/>
<path d="M423.203 204.307H427.236V207.524H423.203V204.307Z" fill="#C7C7C7"/>
<path d="M423.203 197.436H427.236V200.653H423.203V197.436Z" fill="#C7C7C7"/>
<path d="M417.401 238.664H421.435V241.881H417.401V238.664Z" fill="#C7C7C7"/>
<path d="M417.401 231.792H421.435V235.01H417.401V231.792Z" fill="#C7C7C7"/>
<path d="M417.401 224.921H421.435V228.138H417.401V224.921Z" fill="#C7C7C7"/>
<path d="M417.401 218.05H421.435V221.267H417.401V218.05Z" fill="#C7C7C7"/>
<path d="M417.401 211.179H421.435V214.396H417.401V211.179Z" fill="#C7C7C7"/>
<path d="M417.401 204.307H421.435V207.524H417.401V204.307Z" fill="#C7C7C7"/>
<path d="M417.401 197.436H421.435V200.653H417.401V197.436Z" fill="#C7C7C7"/>
<path d="M411.615 238.664H415.647V241.881H411.615V238.664Z" fill="#C7C7C7"/>
<path d="M411.615 231.792H415.647V235.01H411.615V231.792Z" fill="#C7C7C7"/>
<path d="M411.615 224.921H415.647V228.138H411.615V224.921Z" fill="#C7C7C7"/>
<path d="M411.615 218.05H415.647V221.267H411.615V218.05Z" fill="#C7C7C7"/>
<path d="M411.615 211.179H415.647V214.396H411.615V211.179Z" fill="#C7C7C7"/>
<path d="M411.615 204.307H415.647V207.524H411.615V204.307Z" fill="#C7C7C7"/>
<path d="M411.615 197.436H415.647V200.653H411.615V197.436Z" fill="#C7C7C7"/>
<path d="M426.27 193.403H409.604V187.933H426.27V193.403Z" fill="#C7C7C7"/>
<path d="M418.635 187.933H409.604V184.545H418.635V187.933Z" fill="#DBDBDB"/>
<path d="M632.402 361.304C443.789 360.789 232.21 360.784 43.5983 361.304C232.211 361.823 443.789 361.82 632.402 361.304Z" fill="#263238"/>
<path d="M632.402 245.914C443.789 245.398 232.21 245.394 43.5983 245.914C232.211 246.432 443.789 246.429 632.402 245.914Z" fill="#263238"/>
<path d="M135.45 236.385C136.191 237.077 144.82 237.384 147.958 237.384C151.097 237.384 159.726 237.077 160.466 236.385C161.207 235.693 150.756 182.112 147.958 182.112C145.161 182.112 134.71 235.693 135.45 236.385Z" fill="#455A64"/>
<path d="M135.277 222.731C137.408 223.491 145.307 226.495 147.012 227.371C147.013 227.035 147.016 226.7 147.016 226.364C145.112 225.317 143.199 224.28 141.289 223.242C139.238 222.127 137.036 221.133 135.124 219.819C135.031 219.755 135.083 219.576 135.212 219.626C137.32 220.447 139.277 221.662 141.243 222.739C143.184 223.803 145.104 224.898 147.018 226.004C147.026 223.436 147.035 220.868 147.053 218.3C143.974 217.147 140.883 215.608 138.053 214.026C137.954 213.972 138.02 213.802 138.134 213.846C141.137 215.005 144.259 216.37 147.056 217.955C147.066 216.62 147.071 215.285 147.087 213.95C147.165 207.075 147.18 200.192 147.367 193.316C145.494 192.433 143.565 191.654 141.694 190.768C141.572 190.71 141.658 190.509 141.79 190.557C143.689 191.249 145.518 192.071 147.382 192.837C147.483 189.288 147.629 185.743 147.86 182.201C147.867 182.084 148.051 182.083 148.056 182.201C148.319 188.787 148.297 195.379 148.209 201.971C150.149 200.525 152.217 199.245 154.192 197.841C154.269 197.787 154.343 197.908 154.267 197.962C152.203 199.429 150.272 201.054 148.202 202.518C148.196 202.89 148.192 203.262 148.186 203.634C150.29 202.736 152.425 201.901 154.55 201.049C154.717 200.983 154.865 201.206 154.695 201.282C152.529 202.252 150.371 203.24 148.178 204.156C148.129 207.422 148.069 210.686 148.023 213.95C147.944 219.65 147.81 225.35 147.679 231.05C151.649 229.174 155.653 227.345 159.678 225.576C159.832 225.509 159.965 225.711 159.814 225.792C155.886 227.892 151.817 229.799 147.669 231.49C147.561 236.226 147.456 240.963 147.391 245.699C147.388 245.986 146.909 245.987 146.913 245.699C146.983 239.658 146.994 233.617 147.012 227.576C144.918 227.092 137.007 223.928 135.128 223.061C134.935 222.971 135.071 222.658 135.277 222.731Z" fill="#37474F"/>
<path d="M175.442 234.842C176.303 235.646 186.328 236.003 189.975 236.003C193.622 236.003 203.647 235.646 204.507 234.842C205.368 234.038 193.225 171.786 189.975 171.786C186.724 171.786 174.582 234.039 175.442 234.842Z" fill="#455A64"/>
<path d="M175.24 218.979C177.717 219.862 186.893 223.352 188.875 224.37C188.876 223.98 188.88 223.591 188.881 223.2C186.667 221.983 184.445 220.779 182.226 219.573C179.844 218.278 177.285 217.121 175.064 215.596C174.956 215.522 175.016 215.313 175.165 215.371C177.614 216.324 179.888 217.736 182.172 218.987C184.428 220.223 186.658 221.496 188.883 222.78C188.892 219.797 188.901 216.812 188.923 213.829C185.346 212.489 181.755 210.7 178.465 208.864C178.35 208.8 178.427 208.604 178.56 208.655C182.049 210.002 185.676 211.588 188.926 213.428C188.937 211.878 188.944 210.326 188.961 208.775C189.052 200.788 189.069 192.79 189.287 184.801C187.111 183.776 184.871 182.871 182.696 181.841C182.553 181.773 182.653 181.54 182.806 181.596C185.012 182.4 187.138 183.355 189.303 184.244C189.421 180.122 189.589 176.002 189.859 171.888C189.868 171.752 190.08 171.75 190.086 171.888C190.391 179.539 190.366 187.198 190.263 194.857C192.517 193.176 194.921 191.69 197.214 190.06C197.304 189.996 197.389 190.137 197.302 190.199C194.903 191.904 192.66 193.793 190.255 195.493C190.249 195.926 190.244 196.358 190.237 196.791C192.682 195.747 195.161 194.776 197.631 193.787C197.824 193.71 197.997 193.969 197.799 194.057C195.283 195.184 192.775 196.333 190.227 197.397C190.17 201.19 190.1 204.983 190.048 208.775C189.955 215.398 189.8 222.02 189.649 228.643C194.262 226.463 198.913 224.338 203.59 222.282C203.769 222.204 203.924 222.439 203.747 222.533C199.185 224.973 194.456 227.188 189.637 229.154C189.512 234.656 189.389 240.159 189.314 245.663C189.31 245.996 188.755 245.998 188.758 245.663C188.84 238.645 188.853 231.625 188.874 224.606C186.44 224.044 177.25 220.367 175.067 219.361C174.843 219.258 175.002 218.894 175.24 218.979Z" fill="#37474F"/>
<path d="M98.9367 234.008C99.8624 234.873 110.643 235.257 114.565 235.257C118.487 235.257 129.267 234.873 130.193 234.008C131.119 233.144 118.06 166.198 114.565 166.198C111.069 166.198 98.011 233.143 98.9367 234.008Z" fill="#37474F"/>
<path d="M98.7203 216.948C101.384 217.898 111.252 221.651 113.383 222.746C113.384 222.327 113.388 221.907 113.389 221.487C111.008 220.179 108.62 218.884 106.232 217.586C103.67 216.194 100.919 214.951 98.5301 213.31C98.4139 213.23 98.4788 213.006 98.6392 213.068C101.273 214.093 103.718 215.612 106.174 216.957C108.6 218.286 110.998 219.655 113.39 221.036C113.4 217.828 113.411 214.619 113.434 211.411C109.588 209.97 105.725 208.046 102.188 206.072C102.065 206.004 102.147 205.792 102.29 205.847C106.042 207.295 109.943 209 113.437 210.981C113.45 209.313 113.456 207.645 113.475 205.976C113.573 197.386 113.591 188.787 113.826 180.196C111.485 179.093 109.076 178.12 106.738 177.012C106.584 176.94 106.693 176.689 106.857 176.748C109.23 177.613 111.516 178.64 113.845 179.596C113.971 175.164 114.152 170.733 114.441 166.308C114.451 166.162 114.679 166.159 114.686 166.308C115.015 174.536 114.987 182.773 114.877 191.009C117.3 189.201 119.885 187.603 122.351 185.849C122.447 185.781 122.54 185.932 122.445 185.999C119.866 187.832 117.453 189.863 114.867 191.691C114.861 192.156 114.855 192.621 114.848 193.087C117.476 191.964 120.143 190.92 122.799 189.857C123.007 189.773 123.192 190.052 122.981 190.146C120.275 191.359 117.578 192.594 114.838 193.738C114.776 197.818 114.702 201.896 114.645 205.974C114.545 213.097 114.378 220.218 114.215 227.34C119.176 224.996 124.178 222.712 129.208 220.5C129.4 220.416 129.566 220.669 129.376 220.77C124.47 223.394 119.385 225.776 114.203 227.89C114.068 233.807 113.937 239.725 113.856 245.643C113.851 246.002 113.253 246.003 113.258 245.643C113.345 238.096 113.359 230.548 113.381 222.999C110.765 222.396 100.881 218.442 98.5338 217.359C98.2931 217.248 98.4634 216.856 98.7203 216.948Z" fill="#455A64"/>
<path d="M309.906 234.008C310.831 234.873 321.613 235.257 325.535 235.257C329.456 235.257 340.237 234.873 341.163 234.008C342.088 233.144 329.031 166.198 325.535 166.198C322.038 166.198 308.981 233.143 309.906 234.008Z" fill="#37474F"/>
<path d="M309.69 216.948C312.353 217.898 322.222 221.651 324.353 222.746C324.354 222.327 324.357 221.907 324.358 221.487C321.978 220.179 319.589 218.884 317.202 217.586C314.64 216.194 311.888 214.951 309.5 213.31C309.384 213.23 309.448 213.006 309.609 213.068C312.243 214.093 314.688 215.612 317.144 216.957C319.57 218.286 321.969 219.655 324.36 221.036C324.37 217.828 324.381 214.619 324.403 211.411C320.557 209.97 316.694 208.046 313.157 206.072C313.035 206.004 313.117 205.792 313.258 205.847C317.011 207.295 320.912 209 324.406 210.981C324.419 209.313 324.425 207.645 324.444 205.976C324.542 197.386 324.56 188.787 324.795 180.196C322.454 179.093 320.045 178.12 317.706 177.012C317.553 176.94 317.661 176.689 317.825 176.748C320.199 177.613 322.484 178.64 324.813 179.596C324.94 175.164 325.121 170.733 325.41 166.308C325.42 166.162 325.648 166.159 325.654 166.308C325.983 174.536 325.955 182.773 325.846 191.009C328.269 189.201 330.853 187.603 333.32 185.849C333.416 185.781 333.509 185.932 333.414 185.999C330.834 187.832 328.422 189.863 325.836 191.691C325.829 192.156 325.824 192.621 325.817 193.087C328.445 191.964 331.112 190.92 333.768 189.857C333.976 189.773 334.162 190.052 333.949 190.146C331.244 191.359 328.547 192.594 325.807 193.738C325.745 197.818 325.67 201.896 325.614 205.974C325.514 213.097 325.347 220.218 325.184 227.34C330.145 224.996 335.147 222.712 340.177 220.5C340.369 220.416 340.535 220.669 340.345 220.77C335.438 223.394 330.354 225.776 325.171 227.89C325.036 233.807 324.905 239.725 324.824 245.643C324.82 246.002 324.222 246.003 324.227 245.643C324.315 238.096 324.328 230.548 324.35 222.999C321.734 222.396 311.85 218.442 309.503 217.359C309.263 217.248 309.433 216.856 309.69 216.948Z" fill="#455A64"/>
<path d="M44.1176 234.008C45.0424 234.873 55.8241 235.257 59.7458 235.257C63.6675 235.257 74.4483 234.873 75.374 234.008C76.2997 233.144 63.2421 166.198 59.7458 166.198C56.2495 166.198 43.1919 233.143 44.1176 234.008Z" fill="#37474F"/>
<path d="M43.9003 216.948C46.5638 217.898 56.4325 221.651 58.5632 222.746C58.565 222.327 58.5677 221.907 58.5686 221.487C56.1882 220.179 53.7997 218.884 51.412 217.586C48.8504 216.194 46.0987 214.951 43.7101 213.31C43.5939 213.23 43.6588 213.006 43.8192 213.068C46.4529 214.093 48.8982 215.612 51.3544 216.957C53.7799 218.286 56.1792 219.655 58.5704 221.036C58.5803 217.828 58.5912 214.619 58.6137 211.411C54.7677 209.97 50.9046 208.046 47.3677 206.072C47.2452 206.004 47.3272 205.792 47.4696 205.847C51.2219 207.295 55.1228 209 58.6173 210.981C58.6299 209.313 58.6362 207.645 58.6552 205.976C58.7534 197.386 58.7715 188.787 59.0058 180.196C56.665 179.093 54.2558 178.12 51.9177 177.012C51.7645 176.94 51.8717 176.689 52.0366 176.748C54.4099 177.613 56.6957 178.64 59.0247 179.596C59.1509 175.164 59.3321 170.733 59.6214 166.308C59.6313 166.162 59.8593 166.159 59.8657 166.308C60.1946 174.536 60.1667 182.773 60.0567 191.009C62.4804 189.201 65.0646 187.603 67.5315 185.849C67.627 185.781 67.7199 185.932 67.6252 185.999C65.0456 187.832 62.6327 189.863 60.0468 191.691C60.0405 192.156 60.0351 192.621 60.0279 193.087C62.6562 191.964 65.3232 190.92 67.9795 189.857C68.1877 189.773 68.3733 190.052 68.1615 190.146C65.4557 191.359 62.7589 192.594 60.0189 193.738C59.9567 197.818 59.8828 201.896 59.826 205.974C59.7268 213.097 59.5592 220.218 59.3961 227.34C64.357 224.996 69.3603 222.712 74.3888 220.5C74.5808 220.416 74.7476 220.669 74.5574 220.77C69.6505 223.394 64.5661 225.776 59.3834 227.89C59.2491 233.807 59.1176 239.725 59.0364 245.643C59.0319 246.002 58.4343 246.003 58.4388 245.643C58.5272 238.096 58.5398 230.548 58.5623 222.999C55.9458 222.396 46.0617 218.442 43.7147 217.359C43.4731 217.248 43.6434 216.856 43.9003 216.948Z" fill="#455A64"/>
<path d="M164.023 237.545C164.674 238.153 172.251 238.422 175.007 238.422C177.764 238.422 185.341 238.152 185.992 237.545C186.643 236.938 177.464 189.884 175.007 189.884C172.55 189.885 163.373 236.938 164.023 237.545Z" fill="#37474F"/>
<path d="M163.871 225.555C165.743 226.223 172.679 228.861 174.177 229.63C174.178 229.336 174.18 229.041 174.181 228.746C172.508 227.826 170.829 226.916 169.15 226.004C167.35 225.024 165.416 224.151 163.737 222.998C163.655 222.941 163.701 222.784 163.814 222.828C165.665 223.548 167.383 224.615 169.11 225.562C170.815 226.495 172.501 227.458 174.182 228.429C174.189 226.174 174.196 223.918 174.212 221.663C171.509 220.65 168.794 219.298 166.309 217.91C166.222 217.862 166.28 217.713 166.38 217.752C169.017 218.769 171.759 219.969 174.215 221.36C174.224 220.188 174.229 219.015 174.242 217.843C174.312 211.806 174.324 205.761 174.488 199.723C172.843 198.948 171.15 198.265 169.507 197.485C169.398 197.434 169.474 197.258 169.59 197.3C171.258 197.908 172.865 198.629 174.502 199.301C174.591 196.186 174.718 193.072 174.921 189.962C174.928 189.859 175.088 189.858 175.092 189.962C175.323 195.745 175.304 201.534 175.226 207.323C176.93 206.053 178.746 204.929 180.48 203.697C180.547 203.649 180.613 203.755 180.546 203.802C178.733 205.09 177.037 206.518 175.22 207.803C175.216 208.13 175.212 208.456 175.207 208.784C177.054 207.995 178.928 207.261 180.795 206.514C180.941 206.455 181.072 206.651 180.923 206.718C179.021 207.57 177.126 208.438 175.2 209.242C175.156 212.109 175.104 214.976 175.064 217.842C174.994 222.848 174.877 227.854 174.762 232.859C178.249 231.212 181.766 229.606 185.3 228.052C185.434 227.993 185.551 228.17 185.419 228.242C181.97 230.086 178.396 231.761 174.753 233.246C174.659 237.404 174.566 241.564 174.509 245.723C174.505 245.976 174.086 245.976 174.089 245.723C174.151 240.419 174.16 235.113 174.175 229.808C172.337 229.384 165.39 226.604 163.74 225.844C163.57 225.766 163.69 225.491 163.871 225.555Z" fill="#455A64"/>
<path d="M260.759 237.545C261.409 238.153 268.988 238.422 271.744 238.422C274.5 238.422 282.078 238.152 282.728 237.545C283.379 236.938 274.201 189.884 271.744 189.884C269.287 189.885 260.109 236.938 260.759 237.545Z" fill="#37474F"/>
<path d="M260.607 225.555C262.479 226.223 269.415 228.861 270.913 229.63C270.914 229.336 270.916 229.041 270.916 228.746C269.244 227.826 267.564 226.916 265.887 226.004C264.086 225.024 262.153 224.151 260.474 222.998C260.392 222.941 260.438 222.784 260.55 222.828C262.402 223.548 264.12 224.615 265.846 225.562C267.552 226.495 269.237 227.458 270.918 228.429C270.925 226.174 270.933 223.918 270.949 221.663C268.246 220.65 265.531 219.298 263.044 217.91C262.958 217.862 263.015 217.713 263.115 217.752C265.753 218.769 268.495 219.969 270.951 221.36C270.96 220.188 270.964 219.015 270.978 217.843C271.047 211.806 271.06 205.761 271.224 199.723C269.579 198.948 267.885 198.265 266.242 197.485C266.134 197.434 266.21 197.258 266.326 197.3C267.994 197.908 269.6 198.629 271.237 199.301C271.327 196.186 271.454 193.072 271.656 189.962C271.663 189.859 271.824 189.858 271.828 189.962C272.058 195.745 272.04 201.534 271.962 207.323C273.666 206.053 275.482 204.929 277.216 203.697C277.283 203.649 277.348 203.755 277.282 203.802C275.469 205.09 273.773 206.518 271.956 207.803C271.951 208.13 271.948 208.456 271.942 208.784C273.79 207.995 275.664 207.261 277.53 206.514C277.676 206.455 277.807 206.651 277.658 206.718C275.757 207.57 273.861 208.438 271.935 209.242C271.891 212.109 271.839 214.976 271.799 217.842C271.729 222.848 271.611 227.854 271.497 232.859C274.983 231.212 278.5 229.606 282.034 228.052C282.17 227.993 282.286 228.17 282.153 228.242C278.705 230.086 275.131 231.761 271.488 233.246C271.393 237.404 271.301 241.564 271.244 245.723C271.24 245.976 270.821 245.976 270.824 245.723C270.886 240.419 270.895 235.113 270.91 229.808C269.071 229.384 262.124 226.604 260.475 225.844C260.307 225.766 260.427 225.491 260.607 225.555Z" fill="#455A64"/>
<path d="M144.908 237.593C144.261 238.197 136.727 238.465 133.986 238.465C131.245 238.465 123.711 238.197 123.064 237.593C122.416 236.988 131.542 190.201 133.986 190.201C136.429 190.201 145.555 236.988 144.908 237.593Z" fill="#455A64"/>
<path d="M145.061 225.669C143.199 226.334 136.302 228.957 134.812 229.722C134.812 229.429 134.81 229.136 134.809 228.842C136.473 227.928 138.142 227.023 139.81 226.116C141.6 225.142 143.524 224.273 145.193 223.127C145.275 223.071 145.229 222.914 145.117 222.958C143.277 223.674 141.568 224.736 139.851 225.676C138.155 226.605 136.479 227.561 134.807 228.526C134.8 226.284 134.793 224.042 134.776 221.8C137.465 220.792 140.164 219.448 142.636 218.068C142.722 218.02 142.665 217.873 142.565 217.91C139.942 218.923 137.216 220.115 134.774 221.498C134.765 220.332 134.76 219.166 134.747 218.001C134.678 211.997 134.666 205.987 134.501 199.983C136.136 199.212 137.821 198.532 139.455 197.757C139.562 197.707 139.487 197.532 139.372 197.573C137.714 198.177 136.116 198.896 134.489 199.563C134.401 196.466 134.273 193.369 134.072 190.276C134.065 190.174 133.905 190.173 133.901 190.276C133.671 196.026 133.69 201.784 133.768 207.54C132.074 206.277 130.268 205.159 128.544 203.933C128.477 203.886 128.412 203.991 128.478 204.038C130.281 205.319 131.966 206.74 133.774 208.017C133.779 208.342 133.782 208.667 133.788 208.992C131.951 208.208 130.087 207.477 128.231 206.735C128.086 206.676 127.956 206.871 128.105 206.937C129.996 207.785 131.88 208.648 133.795 209.448C133.838 212.299 133.89 215.15 133.93 217.999C133.999 222.977 134.117 227.954 134.23 232.931C130.763 231.292 127.266 229.696 123.751 228.151C123.618 228.092 123.501 228.269 123.633 228.339C127.063 230.173 130.616 231.838 134.238 233.316C134.333 237.452 134.424 241.587 134.481 245.723C134.484 245.974 134.901 245.975 134.898 245.723C134.837 240.448 134.828 235.173 134.812 229.898C136.64 229.476 143.548 226.713 145.189 225.956C145.359 225.88 145.239 225.605 145.061 225.669Z" fill="#37474F"/>
<path d="M90.1721 237.593C89.525 238.197 81.9907 238.465 79.2497 238.465C76.5097 238.465 68.9746 238.197 68.3274 237.593C67.6803 236.988 76.8062 190.201 79.2497 190.201C81.6933 190.201 90.8193 236.988 90.1721 237.593Z" fill="#455A64"/>
<path d="M90.3235 225.669C88.4622 226.334 81.5652 228.957 80.0753 229.722C80.0744 229.429 80.0726 229.136 80.0717 228.842C81.7356 227.928 83.4048 227.023 85.0732 226.116C86.8633 225.142 88.7867 224.273 90.456 223.127C90.5371 223.071 90.492 222.914 90.3794 222.958C88.5389 223.674 86.83 224.736 85.1138 225.676C83.4184 226.605 81.7419 227.561 80.0699 228.526C80.0627 226.284 80.0555 224.042 80.0393 221.8C82.728 220.792 85.4265 219.448 87.8989 218.068C87.9845 218.02 87.9278 217.873 87.8277 217.91C85.2048 218.923 82.4792 220.115 80.0366 221.498C80.0284 220.332 80.023 219.166 80.0104 218.001C79.9419 211.997 79.9284 205.987 79.7653 199.983C81.4012 199.212 83.0849 198.532 84.719 197.757C84.8262 197.707 84.7505 197.532 84.6361 197.573C82.9776 198.177 81.3795 198.896 79.7526 199.563C79.6643 196.466 79.5373 193.369 79.3354 190.276C79.329 190.174 79.1686 190.173 79.165 190.276C78.9351 196.026 78.9541 201.784 79.0316 207.54C77.338 206.277 75.5317 205.159 73.8075 203.933C73.7408 203.886 73.6759 203.991 73.7417 204.038C75.5444 205.319 77.2298 206.74 79.0379 208.017C79.0424 208.342 79.046 208.667 79.0514 208.992C77.2145 208.208 75.3505 207.477 73.4947 206.735C73.3496 206.676 73.2198 206.871 73.3676 206.937C75.2586 207.785 77.1433 208.648 79.0577 209.448C79.101 212.299 79.1533 215.15 79.1929 217.999C79.2623 222.977 79.3795 227.954 79.4931 232.931C76.0256 231.292 72.5293 229.696 69.0141 228.151C68.8807 228.092 68.7636 228.269 68.8961 228.339C72.3257 230.173 75.8787 231.838 79.5012 233.316C79.5958 237.452 79.6869 241.587 79.7437 245.723C79.7473 245.974 80.1636 245.975 80.1609 245.723C80.0996 240.448 80.0907 235.173 80.0745 229.898C81.9033 229.476 88.8111 226.713 90.4515 225.956C90.6228 225.88 90.5029 225.605 90.3235 225.669Z" fill="#37474F"/>
<path d="M320.718 237.593C320.071 238.197 312.536 238.465 309.795 238.465C307.055 238.465 299.52 238.197 298.873 237.593C298.226 236.988 307.352 190.201 309.795 190.201C312.239 190.201 321.365 236.988 320.718 237.593Z" fill="#455A64"/>
<path d="M320.869 225.669C319.008 226.334 312.111 228.957 310.621 229.722C310.62 229.429 310.618 229.136 310.617 228.842C312.28 227.928 313.951 227.023 315.619 226.116C317.41 225.142 319.332 224.273 321.002 223.127C321.084 223.071 321.038 222.914 320.925 222.958C319.085 223.674 317.376 224.736 315.66 225.676C313.964 226.605 312.288 227.561 310.616 228.526C310.608 226.284 310.601 224.042 310.585 221.8C313.274 220.792 315.972 219.448 318.445 218.068C318.53 218.02 318.474 217.873 318.373 217.91C315.751 218.923 313.025 220.115 310.582 221.498C310.574 220.332 310.569 219.166 310.556 218.001C310.488 211.997 310.474 205.987 310.311 199.983C311.947 199.212 313.631 198.532 315.265 197.757C315.372 197.707 315.296 197.532 315.182 197.573C313.523 198.177 311.925 198.896 310.298 199.563C310.21 196.466 310.083 193.369 309.881 190.276C309.875 190.174 309.714 190.173 309.711 190.276C309.481 196.026 309.5 201.784 309.577 207.54C307.884 206.277 306.077 205.159 304.353 203.933C304.287 203.886 304.222 203.991 304.287 204.038C306.09 205.319 307.776 206.74 309.584 208.017C309.588 208.342 309.592 208.667 309.597 208.992C307.76 208.208 305.897 207.477 304.04 206.735C303.895 206.676 303.766 206.871 303.913 206.937C305.804 207.785 307.689 208.648 309.603 209.448C309.647 212.299 309.699 215.15 309.739 217.999C309.808 222.977 309.925 227.954 310.039 232.931C306.571 231.292 303.075 229.696 299.56 228.151C299.427 228.092 299.309 228.269 299.442 228.339C302.871 230.173 306.424 231.838 310.047 233.316C310.141 237.452 310.233 241.587 310.289 245.723C310.293 245.974 310.709 245.975 310.707 245.723C310.645 240.448 310.636 235.173 310.62 229.898C312.449 229.476 319.357 226.713 320.997 225.956C321.168 225.88 321.049 225.605 320.869 225.669Z" fill="#37474F"/>
<path d="M255.794 314.879H126.767C126.767 314.879 140.9 258.567 191.28 258.567C241.661 258.567 253.579 302.302 255.794 314.879Z" fill="#FFC727"/>
<path opacity="0.2" d="M255.794 314.879H126.767C126.767 314.879 140.9 258.567 191.28 258.567C241.661 258.567 253.579 302.302 255.794 314.879Z" fill="black"/>
<path d="M574.044 308.801H445.018C445.018 308.801 459.151 252.49 509.531 252.49C559.91 252.49 571.829 296.224 574.044 308.801Z" fill="#FFC727"/>
<path opacity="0.2" d="M574.044 308.801H445.018C445.018 308.801 459.151 252.49 509.531 252.49C559.91 252.49 571.829 296.224 574.044 308.801Z" fill="black"/>
<path d="M404.123 138.389H443.397V151.878H404.123V138.389Z" fill="#FFC727"/>
<path opacity="0.1" d="M404.123 140.367L443.397 141.626V138.389H404.123V140.367Z" fill="black"/>
<path d="M565.2 205.691C567.966 209.795 579.752 255.413 580.034 256.996C580.316 258.579 584.34 265.503 584.411 266.822C584.481 268.141 585.47 288.518 584.905 289.837C584.34 291.156 581.164 295.97 580.458 296.761C579.752 297.553 577.558 312.258 575.51 312.456C573.463 312.654 569.879 312.786 569.526 312.456C569.172 312.126 566.984 257.722 509.593 257.722C452.203 257.722 452.837 315.49 451.779 315.688C450.72 315.886 250.056 321.359 250.056 321.359C250.056 312.522 249.314 259.898 193.018 259.898C156.345 259.898 137.816 288.137 137.18 308.962C136.915 317.632 138.47 327.162 137.957 327.162C136.263 327.162 130.474 327.558 129.486 327.162C128.499 326.767 116.497 319.381 115.509 319.117C114.521 318.854 111.626 318.721 109.931 318.326C108.237 317.93 96.3777 308.236 96.1659 307.84C95.9541 307.445 95.6007 303.619 95.5305 303.29C95.4601 302.96 91.5042 289.244 90.9391 287.727C90.3739 286.211 103.931 240.955 109.014 237.394C114.096 233.834 146.287 219.145 156.876 217.365C167.465 215.584 199.651 207.473 201.769 206.088C203.887 204.703 303.283 151.445 320.575 147.529C334.551 144.364 475.39 148.717 483.862 149.112C492.333 149.508 542.309 156.656 543.862 157.315C545.415 157.974 543.862 163.777 541.885 164.832C541.885 164.832 560.4 198.57 565.2 205.691Z" fill="#FFC727"/>
<path opacity="0.4" d="M565.2 205.691C567.966 209.795 579.752 255.413 580.034 256.996C580.316 258.579 584.34 265.503 584.411 266.822C584.481 268.141 585.47 288.518 584.905 289.837C584.34 291.156 581.164 295.97 580.458 296.761C579.752 297.553 577.558 312.258 575.51 312.456C573.463 312.654 569.879 312.786 569.526 312.456C569.172 312.126 566.984 257.722 509.593 257.722C452.203 257.722 452.837 315.49 451.779 315.688C450.72 315.886 250.056 321.359 250.056 321.359C250.056 312.522 249.314 259.898 193.018 259.898C156.345 259.898 137.816 288.137 137.18 308.962C136.915 317.632 138.47 327.162 137.957 327.162C136.263 327.162 130.474 327.558 129.486 327.162C128.499 326.767 116.497 319.381 115.509 319.117C114.521 318.854 111.626 318.721 109.931 318.326C108.237 317.93 96.3777 308.236 96.1659 307.84C95.9541 307.445 95.6007 303.619 95.5305 303.29C95.4601 302.96 91.5042 289.244 90.9391 287.727C90.3739 286.211 103.931 240.955 109.014 237.394C114.096 233.834 146.287 219.145 156.876 217.365C167.465 215.584 199.651 207.473 201.769 206.088C203.887 204.703 303.283 151.445 320.575 147.529C334.551 144.364 475.39 148.717 483.862 149.112C492.333 149.508 542.309 156.656 543.862 157.315C545.415 157.974 543.862 163.777 541.885 164.832C541.885 164.832 560.4 198.57 565.2 205.691Z" fill="white"/>
<path opacity="0.1" d="M208.571 261.441C249.457 270.174 250.055 313.424 250.055 321.361C250.055 321.361 450.723 315.888 451.781 315.685C452.634 315.518 452.379 277.646 482.693 263.213C469.077 269.507 451.628 284.737 445.017 306.987C444.304 309.355 437.063 313.079 373.111 314.983C309.147 316.875 279.629 315.685 269.083 314.304C258.538 312.913 246.158 261.287 208.571 261.441Z" fill="black"/>
<path d="M387.544 126.52H461.493V138.389H387.544V126.52Z" fill="#FFC727"/>
<path opacity="0.6" d="M387.544 126.52H461.493V138.389H387.544V126.52Z" fill="white"/>
<path opacity="0.1" d="M448.787 126.52H461.493V138.389H448.787V126.52Z" fill="black"/>
<path opacity="0.1" d="M94.6373 300.151C95.1448 301.929 95.5071 303.191 95.5251 303.293C95.5981 303.623 95.9515 307.441 96.1687 307.839C96.3769 308.238 108.232 317.932 109.928 318.33C111.486 318.685 114.079 318.829 115.248 319.067C115.266 319.067 115.284 319.067 115.302 319.075C115.384 319.083 115.447 319.092 115.501 319.109C115.501 319.109 115.501 319.109 115.51 319.117C116.091 319.278 120.124 321.674 123.713 323.808C124.112 324.045 124.501 324.274 124.882 324.503C125.081 324.621 125.272 324.74 125.462 324.849C125.833 325.061 126.187 325.273 126.522 325.476C126.531 325.476 126.531 325.476 126.531 325.484C126.875 325.679 127.193 325.865 127.483 326.035C127.637 326.128 127.782 326.213 127.918 326.298C128.734 326.763 129.296 327.077 129.486 327.153C130.465 327.56 136.266 327.153 137.961 327.153C137.97 327.153 137.97 327.153 137.979 327.153C137.988 327.145 137.997 327.136 138.006 327.12C138.033 327.069 138.051 326.976 138.051 326.84C138.087 326.306 137.988 325.104 137.852 323.479C137.825 323.208 137.798 322.928 137.77 322.64C137.743 322.318 137.716 321.988 137.689 321.641C137.662 321.328 137.635 320.998 137.607 320.668C137.589 320.482 137.571 320.287 137.562 320.092C137.498 319.389 137.443 318.652 137.398 317.89C137.389 317.882 137.389 317.865 137.398 317.848C137.208 315.071 137.09 311.972 137.181 308.967C137.199 308.476 137.217 307.977 137.263 307.468C137.29 307.011 137.326 306.554 137.381 306.088C137.417 305.698 137.463 305.301 137.517 304.911C137.562 304.598 137.608 304.293 137.662 303.98C137.826 302.871 138.052 301.753 138.324 300.627C138.378 300.364 138.442 300.101 138.514 299.84C138.632 299.374 138.759 298.908 138.886 298.443C138.995 298.087 139.094 297.74 139.212 297.384C139.42 296.69 139.656 296.004 139.901 295.319C140.037 294.955 140.173 294.591 140.318 294.227C140.753 293.093 141.243 291.958 141.777 290.832C141.922 290.519 142.076 290.205 142.23 289.892C142.484 289.376 142.747 288.867 143.028 288.36C143.128 288.174 143.227 287.988 143.336 287.792C143.563 287.377 143.808 286.963 144.052 286.548C144.342 286.057 144.641 285.565 144.949 285.074C145.256 284.583 145.574 284.101 145.91 283.618C146.209 283.177 146.517 282.737 146.825 282.305C146.861 282.263 146.889 282.22 146.916 282.186C147.234 281.754 147.56 281.322 147.886 280.9C147.949 280.815 148.004 280.739 148.067 280.671C148.349 280.307 148.638 279.951 148.928 279.604C149.028 279.477 149.127 279.358 149.227 279.248C149.572 278.833 149.925 278.428 150.288 278.021C151.068 277.157 151.875 276.311 152.717 275.489C152.79 275.404 152.872 275.328 152.944 275.26C153.27 274.947 153.596 274.642 153.932 274.337C154.059 274.21 154.186 274.091 154.321 273.982C154.719 273.626 155.119 273.27 155.526 272.923C155.553 272.898 155.589 272.873 155.617 272.856C156.079 272.458 156.542 272.077 157.022 271.704C157.449 271.366 157.892 271.036 158.336 270.705C158.409 270.646 158.481 270.594 158.554 270.544C158.962 270.247 159.378 269.951 159.805 269.663C159.986 269.536 160.176 269.409 160.366 269.282C160.411 269.248 160.457 269.223 160.502 269.188C160.901 268.926 161.309 268.654 161.726 268.401C162.243 268.079 162.759 267.766 163.295 267.461C163.367 267.419 163.449 267.368 163.531 267.326C164.056 267.021 164.601 266.725 165.144 266.437C165.724 266.14 166.304 265.844 166.894 265.564C166.912 265.556 166.921 265.547 166.939 265.539C156.398 267.631 138.841 281.059 131.745 294.91C124.648 308.762 126.471 309.787 124.811 311.455C123.171 313.115 117.66 309.753 115.122 309.152C112.575 308.568 104.319 308.373 101.137 307.772C97.9642 307.179 97.4387 301.837 95.2638 300.651C95.0637 300.54 94.8555 300.371 94.6373 300.151Z" fill="black"/>
<path d="M528.874 202.029C526.576 208.368 315.372 221.465 243.436 220.659C241.839 220.641 228.112 209.312 230.012 207.72C237.18 201.713 256.788 190.593 262.337 187.689C276.314 180.369 316.339 159.2 336.034 157.024C355.729 154.848 395.683 155.041 430.486 155.639C465.005 156.232 475.498 157.024 489.899 162.76C502.53 167.794 531.07 195.971 528.874 202.029Z" fill="#263238"/>
<path d="M519.547 197.583C518.702 200.443 474.958 206.466 388.341 210.225C301.725 213.983 258.947 215.981 257.888 215.586C256.829 215.19 260.852 193.626 262.335 191.845C263.818 190.065 325.867 160.39 335.609 159.599C345.35 158.807 397.974 159.263 424.554 159.104C457.48 158.907 476.344 162.467 485.767 166.028C494.057 169.16 520.394 194.714 519.547 197.583Z" fill="#455A64"/>
<g opacity="0.1">
<path d="M438.519 159.261L485.961 203.581C496.671 202.445 504.826 201.326 510.417 200.322L469.34 161.948C461.426 160.642 451.29 159.636 438.519 159.261Z" fill="white"/>
<path d="M257.887 215.587C258.339 215.756 266.575 215.483 282.745 214.807L261.266 194.742C259.506 201.073 257.032 215.267 257.887 215.587Z" fill="white"/>
<path d="M400.125 159.13L450.997 206.653L462.351 205.77L463.889 205.648L414.093 159.13C409.719 159.139 405.002 159.139 400.125 159.13Z" fill="white"/>
<path d="M281.81 181.928L315.506 213.407C319.719 213.22 324.174 213.023 328.86 212.825L291.091 177.56C287.873 179.054 284.746 180.519 281.81 181.928Z" fill="white"/>
<path d="M480.642 164.371L517.416 198.734C518.733 198.311 519.447 197.926 519.547 197.588C519.598 197.438 519.557 197.212 519.447 196.93L486.937 166.551C486.514 166.335 486.122 166.157 485.771 166.025C484.303 165.47 482.593 164.916 480.642 164.371Z" fill="white"/>
<path d="M273.785 185.808L303.852 213.913C305.089 213.857 306.356 213.801 307.643 213.744L276.379 184.529C275.484 184.972 274.62 185.395 273.785 185.808Z" fill="white"/>
<path d="M325.452 162.68L376.866 210.721C375.589 210.777 374.333 210.833 373.075 210.89L322.636 163.771L325.452 162.68Z" fill="white"/>
</g>
<path d="M419.849 160.355C419.316 161.918 418.444 207.87 418.444 209.354C418.444 210.838 420.244 211.189 420.244 211.189L392.279 212.4C392.279 212.4 394.09 211.926 394.407 211.134C394.725 210.343 403.513 160.786 403.461 160.143C403.408 159.499 402.032 158.886 402.032 158.886L421.515 158.897C421.515 158.897 420.191 159.352 419.849 160.355Z" fill="#263238"/>
<path d="M140.645 318.771C136.319 291.535 156.446 266.179 185.602 262.137C214.757 258.095 241.9 276.898 246.227 304.134C250.553 331.37 230.426 356.726 201.27 360.768C172.115 364.81 144.972 346.007 140.645 318.771Z" fill="#263238"/>
<path d="M193.468 347.851C171.947 347.851 154.501 331.554 154.501 311.45C154.501 291.346 171.947 275.049 193.468 275.049C214.988 275.049 232.434 291.346 232.434 311.45C232.434 331.554 214.988 347.851 193.468 347.851Z" fill="#DBDBDB"/>
<path d="M157.997 316.877C154.778 298.585 168.043 281.319 187.624 278.312C207.205 275.305 225.687 287.697 228.906 305.989C232.125 324.281 218.86 341.547 199.279 344.554C179.698 347.56 161.215 335.169 157.997 316.877Z" fill="#A6A6A6"/>
<path d="M201.017 313.433C199.059 314.9 197.224 316.749 194.972 318.486C197.12 318.902 198.304 323.831 193.653 329.991C189.851 335.931 180.214 343.1 180.351 342.919C181.675 343.666 182.876 344.575 184.053 345.677C196.166 334.653 196.773 332.352 199.845 331.456C202.197 331.217 203.787 331.825 202.893 345.677C205.431 344.263 207.757 342.872 209.908 341.59C209.71 341.716 209.118 331.428 206.945 325.361C205.013 318.518 201.499 315.895 201.017 313.433Z" fill="#DBDBDB"/>
<path d="M194.128 318.566C191.985 317.267 189.433 316.235 186.883 314.793C186.981 316.528 182.822 319.654 174.8 317.165C167.388 315.49 156.115 308.199 156.065 307.887C156.033 309.866 155.996 311.846 155.955 313.83C171.869 321.614 174.008 321.026 176.357 323.589C177.987 325.641 174.343 328.655 164.3 333.064C166.296 334.509 167.945 335.777 169.174 337.047C168.79 336.944 179.912 331.484 184.65 327.566C190.044 323.598 191.959 319.688 194.128 318.566Z" fill="#DBDBDB"/>
<path d="M186.517 314.081C187.123 311.822 187.348 309.306 188.028 306.658C186.277 307.197 181.643 304.562 181.775 296.727C181.231 289.69 185.453 277.453 185.826 277.223C183.256 278.55 180.885 279.875 178.688 281.117C176.218 295.995 177.381 297.918 175.636 300.635C174.151 302.611 170.279 300.08 162.911 292.806C162.03 294.24 161.085 295.319 159.897 296.118C160.005 296.061 168.842 305.389 174.312 308.495C180.049 312.262 184.555 312.331 186.517 314.081Z" fill="#DBDBDB"/>
<path d="M188.65 306.133C191.195 306.023 193.885 305.497 196.858 305.321C195.339 303.831 197.314 299.294 204.203 296.702C210.367 293.864 225.558 292.334 225.496 292.432C223.342 290.85 221.498 289.491 220.044 288.19C208.027 291.233 201.535 293.3 198.997 292.576C197.272 291.613 196.027 290.427 204.942 279.939C203.602 279.199 202.354 278.3 201.107 277.222C200.854 277.562 193.433 287.135 191.192 293.365C188.075 300.211 190.137 303.712 188.65 306.133Z" fill="#DBDBDB"/>
<path d="M197.614 305.713C198.6 307.905 200.036 310.097 201.178 312.66C202.228 310.717 207.589 311.634 212.317 316.709C217.101 321.184 222.8 332.951 222.687 332.601C223.594 330.951 224.499 329.686 225.597 328.74C218.907 318.856 215.104 313.855 215.137 311.44C215.73 309.681 216.318 308.079 230.979 313.818C230.94 311.801 230.895 309.787 230.849 307.777C230.507 307.732 218.54 304.285 211.507 304.199C203.582 303.558 200.591 306.276 197.614 305.713Z" fill="#DBDBDB"/>
<path d="M199.157 306.881C196.218 303.997 191.383 303.799 188.327 306.38C185.242 308.987 185.14 313.427 188.033 316.269C190.948 319.126 195.729 319.366 198.815 316.813C201.931 314.234 202.08 309.747 199.157 306.881Z" fill="#DBDBDB"/>
<g opacity="0.2">
<path d="M406.897 215.241L408.808 227.89L409.634 234.233C409.759 235.293 409.882 236.351 409.969 237.422C410.059 238.5 409.987 239.555 410.004 240.623L409.759 266.177L409.538 278.955L409.427 285.344L409.369 288.537L409.109 291.723L408.053 304.461L406.898 317.191L407.587 304.436L408.374 291.691L408.569 288.505L408.601 285.313L408.668 278.932L408.804 266.17L409.273 240.644C409.278 239.584 409.37 238.507 409.304 237.461C409.241 236.408 409.14 235.348 409.037 234.29L408.347 227.94L406.897 215.241Z" fill="black"/>
<path d="M527.435 204.411C527.435 204.411 530.42 229.555 530.507 230.029C530.596 230.507 530.525 230.974 530.542 231.447L527.436 249.576L529.811 231.457C529.816 230.987 529.908 230.51 529.842 230.046C529.778 229.581 527.435 204.411 527.435 204.411Z" fill="black"/>
<path d="M253.43 247.019C253.494 255.624 253.668 264.219 253.897 272.815C253.952 274.966 254.025 277.108 254.117 279.259C254.117 281.438 254.693 283.57 255.161 285.618C256.16 289.761 257.296 293.847 258.543 297.896C259.808 301.926 261.137 305.947 262.877 309.751L263.546 311.17C263.784 311.63 264.05 312.081 264.298 312.532C264.536 313.002 264.83 313.424 265.123 313.847L265.563 314.476C265.91 314.758 266.121 314.692 266.359 314.767C268.193 314.993 269.998 315.021 271.812 315.096C286.31 315.444 300.808 315.284 315.297 315.171C329.795 315.03 327.545 314.795 342.033 314.485C356.522 314.119 371.02 313.696 385.5 313.057C392.713 312.71 399.692 312.744 406.895 311.974V311.307C399.711 312.049 392.704 311.987 385.482 312.315C371.002 312.907 356.513 313.274 342.015 313.593C327.527 313.959 329.786 314.241 315.297 314.429C300.808 314.598 286.31 314.804 271.821 314.504C270.016 314.438 268.193 314.41 266.424 314.194C266.222 314.166 265.947 314.1 265.91 314.09L265.489 313.48C265.205 313.076 264.921 312.672 264.682 312.212C264.444 311.771 264.187 311.338 263.949 310.878L263.289 309.488C261.557 305.73 260.219 301.729 258.946 297.718C257.699 293.688 256.554 289.611 255.555 285.487C255.069 283.41 254.51 281.391 254.51 279.231L254.263 272.796C253.97 264.21 253.731 255.615 253.612 247.02C253.603 245.949 253.594 244.869 253.603 243.798C253.603 243.271 253.685 242.736 253.759 242.211L253.97 240.613L254.831 234.254L256.554 221.516L254.739 234.235L253.832 240.595L253.612 242.191C253.529 242.717 253.447 243.244 253.447 243.798C253.421 244.869 253.43 245.948 253.43 247.019Z" fill="black"/>
<path d="M115.714 242.327C118.037 244.313 120.75 245.819 123.348 247.442C125.979 249.028 128.665 250.53 131.335 252.054C134.044 253.518 136.737 255.006 139.475 256.422C142.213 257.837 144.962 259.236 147.768 260.539C145.161 258.914 142.505 257.368 139.846 255.829L131.822 251.287L123.729 246.858L119.679 244.65C118.335 243.91 116.957 243.211 115.714 242.327Z" fill="black"/>
<path d="M405.736 271.605L386.802 272.177L367.87 272.838L330.007 274.167L292.149 275.689L273.221 276.453L254.295 277.308L273.228 276.736L292.161 276.074L330.023 274.745L367.881 273.222L386.81 272.459L405.736 271.605Z" fill="black"/>
</g>
<path d="M472.92 346.701C452.079 327.232 452.079 295.666 472.92 276.197C493.761 256.728 527.551 256.728 548.391 276.197C569.232 295.666 569.232 327.232 548.391 346.701C527.551 366.17 493.761 366.17 472.92 346.701Z" fill="#263238"/>
<path d="M472.374 318.324C468.304 298.582 482.137 279.496 503.27 275.695C524.404 271.893 544.834 284.815 548.904 304.557C552.974 324.299 539.141 343.385 518.008 347.187C496.874 350.989 476.443 338.066 472.374 318.324Z" fill="#DBDBDB"/>
<path d="M502.388 344.092C483.077 339.832 471.119 321.754 475.678 303.714C480.238 285.674 499.59 274.503 518.901 278.763C538.212 283.023 550.171 301.1 545.611 319.14C541.051 337.18 521.699 348.351 502.388 344.092Z" fill="#A6A6A6"/>
<path d="M503.104 309.467C505.061 307.999 506.896 306.15 509.149 304.413C507.001 303.999 505.817 299.068 510.467 292.909C514.268 286.969 523.906 279.8 523.769 279.981C522.446 279.233 521.245 278.325 520.068 277.223C507.955 288.247 507.348 290.548 504.276 291.444C501.924 291.683 500.334 291.074 501.228 277.223C498.69 278.636 496.363 280.028 494.213 281.31C494.411 281.184 495.002 291.472 497.175 297.539C499.108 304.382 502.621 307.005 503.104 309.467Z" fill="#DBDBDB"/>
<path d="M509.992 304.335C512.135 305.633 514.687 306.666 517.236 308.108C517.139 306.373 521.298 303.246 529.32 305.735C536.731 307.411 548.005 314.702 548.055 315.013C548.087 313.035 548.124 311.054 548.165 309.07C532.251 301.287 530.112 301.875 527.763 299.312C526.133 297.26 529.777 294.245 539.82 289.837C537.824 288.392 536.175 287.124 534.947 285.854C535.331 285.957 524.209 291.417 519.471 295.335C514.075 299.302 512.162 303.212 509.992 304.335Z" fill="#DBDBDB"/>
<path d="M517.603 308.819C516.997 311.078 516.772 313.594 516.092 316.242C517.843 315.703 522.477 318.338 522.345 326.173C522.889 333.21 518.667 345.446 518.295 345.677C520.864 344.35 523.236 343.025 525.433 341.783C527.903 326.905 526.739 324.981 528.484 322.265C529.97 320.289 533.842 322.82 541.209 330.093C542.091 328.66 543.035 327.581 544.224 326.782C544.116 326.839 535.278 317.511 529.809 314.404C524.071 310.637 519.565 310.569 517.603 308.819Z" fill="#DBDBDB"/>
<path d="M515.47 316.767C512.924 316.877 510.234 317.403 507.263 317.579C508.782 319.069 506.806 323.606 499.917 326.198C493.754 329.036 478.563 330.566 478.625 330.467C480.778 332.049 482.623 333.408 484.076 334.709C496.093 331.667 502.586 329.6 505.123 330.324C506.848 331.287 508.093 332.473 499.178 342.961C500.518 343.701 501.767 344.599 503.013 345.678C503.267 345.338 510.687 335.764 512.929 329.535C516.046 322.689 513.983 319.188 515.47 316.767Z" fill="#DBDBDB"/>
<path d="M506.506 317.187C505.52 314.995 504.084 312.803 502.941 310.24C501.892 312.183 496.531 311.266 491.803 306.191C487.019 301.716 481.32 289.949 481.433 290.299C480.526 291.948 479.621 293.214 478.522 294.16C485.213 304.045 489.016 309.045 488.983 311.46C488.39 313.219 487.802 314.82 473.141 309.081C473.18 311.099 473.225 313.113 473.271 315.123C473.613 315.167 485.58 318.614 492.613 318.7C500.538 319.343 503.53 316.624 506.506 317.187Z" fill="#DBDBDB"/>
<path d="M504.963 316.019C507.902 318.902 512.737 319.1 515.793 316.52C518.878 313.913 518.98 309.473 516.086 306.63C513.171 303.773 508.391 303.533 505.305 306.086C502.19 308.665 502.041 313.154 504.963 316.019Z" fill="#DBDBDB"/>
<path d="M270.142 196.987C272.086 198.803 271.907 215.055 270.496 216.375C269.084 217.693 249.741 218.88 248.188 208.791C246.635 198.701 267.107 194.151 270.142 196.987Z" fill="#FFC727"/>
<path opacity="0.4" d="M270.142 196.987C272.086 198.803 271.907 215.055 270.496 216.375C269.084 217.693 249.741 218.88 248.188 208.791C246.635 198.701 267.107 194.151 270.142 196.987Z" fill="white"/>
<path d="M199.556 206.698H215.286C256.235 181.461 312.429 156.498 312.429 156.498L303.106 154.392C269.086 169.777 203.491 204.96 201.772 206.09C201.556 206.233 200.792 206.436 199.556 206.698Z" fill="#455A64"/>
<g opacity="0.5">
<path d="M572.382 278.89C569.178 273.788 564.995 269.258 560.418 265.165C555.792 261.106 550.625 257.569 545.046 254.71C533.894 248.942 521.067 246.165 508.344 246.273L503.573 246.484L501.188 246.591C500.398 246.673 499.61 246.794 498.821 246.894L494.09 247.523C492.532 247.826 490.989 248.212 489.438 248.553C483.306 250.095 477.254 252.247 471.936 255.565C466.576 258.789 461.795 262.814 457.768 267.402C453.711 271.984 450.601 277.188 447.759 282.452C450.858 277.31 454.065 272.189 458.248 267.776C462.333 263.308 467.124 259.418 472.457 256.34C483.148 250.109 495.845 247.573 508.353 247.463C514.627 247.34 520.904 248.03 527.014 249.337C533.119 250.683 539.03 252.778 544.583 255.513C550.145 258.239 555.322 261.654 559.997 265.594C564.684 269.513 568.939 273.936 572.382 278.89Z" fill="white"/>
<path d="M256.364 278.89C253.161 273.788 248.978 269.258 244.399 265.165C239.775 261.106 234.607 257.569 229.028 254.71C217.876 248.942 205.049 246.165 192.326 246.273L187.555 246.484L185.17 246.591C184.379 246.673 183.592 246.794 182.803 246.894L178.072 247.523C176.514 247.826 174.971 248.212 173.42 248.553C167.287 250.095 161.236 252.247 155.918 255.565C150.559 258.789 145.776 262.814 141.75 267.402C137.693 271.984 134.583 277.188 131.741 282.452C134.839 277.31 138.046 272.189 142.23 267.776C146.313 263.308 151.106 259.418 156.439 256.34C167.13 250.109 179.827 247.573 192.335 247.463C198.609 247.34 204.886 248.03 210.996 249.337C217.1 250.683 223.011 252.778 228.565 255.513C234.127 258.239 239.304 261.654 243.979 265.594C248.667 269.513 252.921 273.936 256.364 278.89Z" fill="white"/>
</g>
<g opacity="0.3">
<path d="M535.523 223.793C535.34 233.459 547.954 238.558 555.459 231.88C560.186 227.73 560.271 220.309 555.625 216.078C548.274 209.253 535.543 214.132 535.523 223.793ZM535.523 223.793C535.651 214.306 548.089 209.761 555.073 216.581C559.287 220.559 559.212 227.467 554.919 231.368C547.787 238.057 535.448 233.285 535.523 223.793Z" fill="black"/>
</g>
<path opacity="0.3" d="M558.869 221.664C558.808 222.062 558.738 222.459 558.712 222.864C558.746 222.459 558.802 222.06 558.869 221.664Z" fill="black"/>
<path d="M574.217 235.145C574.217 235.145 571.721 239.827 571.9 241.165C572.08 242.503 573.87 256.722 574.944 257.391C576.019 258.06 578.447 259.264 580.546 258.913C582.644 258.562 574.217 235.145 574.217 235.145Z" fill="#EBEBEB"/>
<path d="M536.699 164.832L562.017 205.092L565.2 205.691L541.884 164.832H536.699Z" fill="#37474F"/>
<path d="M379.196 238.149L385.486 237.861C388.999 237.7 391.708 234.909 391.536 231.627L391.39 228.855C391.218 225.573 388.23 223.042 384.717 223.203L378.428 223.491C374.914 223.652 372.206 226.443 372.378 229.725L372.523 232.497C372.696 235.779 375.683 238.31 379.196 238.149Z" fill="#FFC727"/>
<path d="M367.758 234.351L396.419 233.04C396.916 233.018 397.298 232.624 397.273 232.16L397.1 228.837C397.075 228.373 396.653 228.016 396.157 228.039L367.495 229.35C367 229.373 366.616 229.767 366.641 230.23L366.815 233.552C366.84 234.016 367.262 234.373 367.758 234.351Z" fill="#FFC727"/>
<g opacity="0.2">
<path d="M367.758 234.351L396.419 233.04C396.916 233.018 397.298 232.624 397.273 232.16L397.1 228.837C397.075 228.373 396.653 228.016 396.157 228.039L367.495 229.35C367 229.373 366.616 229.767 366.641 230.23L366.815 233.552C366.84 234.016 367.262 234.373 367.758 234.351Z" fill="white"/>
</g>
<path d="M502.944 229.347L509.215 228.814C512.719 228.517 515.3 225.622 514.982 222.35L514.714 219.587C514.395 216.314 511.298 213.903 507.794 214.2L501.523 214.732C498.019 215.029 495.438 217.923 495.756 221.196L496.024 223.959C496.343 227.233 499.441 229.645 502.944 229.347Z" fill="#FFC727"/>
<path d="M491.087 225.886L519.665 223.459C520.159 223.417 520.524 223.009 520.479 222.546L520.156 219.234C520.111 218.772 519.674 218.432 519.179 218.473L490.601 220.9C490.106 220.942 489.742 221.35 489.787 221.812L490.11 225.125C490.155 225.588 490.592 225.928 491.087 225.886Z" fill="#FFC727"/>
<g opacity="0.2">
<path d="M491.087 225.886L519.665 223.459C520.159 223.417 520.524 223.009 520.479 222.546L520.156 219.234C520.111 218.772 519.674 218.432 519.179 218.473L490.601 220.9C490.106 220.942 489.742 221.35 489.787 221.812L490.11 225.125C490.155 225.588 490.592 225.928 491.087 225.886Z" fill="white"/>
</g>
<path d="M157.161 230.633C154.849 236.047 133.371 248.078 125.033 250.671C119.788 252.302 101.3 256.083 100.062 255.273C98.8234 254.463 103.655 239.687 107.834 236.04C112.013 232.391 136.257 222.639 143.353 221.97C150.449 221.3 159.495 225.167 157.161 230.633Z" fill="white"/>
<path d="M157.161 230.633C155.797 233.178 153.233 234.933 150.93 236.705C148.542 238.443 146.035 240.033 143.487 241.558C138.361 244.557 133.056 247.329 127.508 249.549C121.917 251.635 115.856 252.533 109.982 253.722C106.878 254.251 103.268 255.01 100.342 254.98C100.345 254.997 100.291 254.827 100.293 254.685C100.287 254.532 100.295 254.368 100.307 254.203C100.543 252.14 101.225 250.109 101.888 248.123C103.314 244.193 104.846 240.093 107.6 236.81C108.53 235.805 109.852 235.086 111.124 234.356C116.327 231.53 121.857 229.18 127.421 226.978C133.009 224.977 138.63 222.411 144.658 221.96C147.667 221.919 150.721 222.514 153.396 223.831C156.038 225.033 158.503 227.787 157.161 230.633ZM157.161 230.633C158.523 227.793 156.075 224.998 153.429 223.777C149.403 221.775 144.541 221.31 140.158 222.472C135.753 223.543 131.483 225.037 127.251 226.587C121.63 228.707 116.049 230.942 110.735 233.738C109.438 234.476 108.075 235.184 106.996 236.32C103.272 240.892 101.321 246.492 99.8227 251.995C99.6929 252.924 98.8168 255.402 100.144 255.725C103.536 255.867 106.829 254.959 110.136 254.431C116.051 253.173 122.065 252.139 127.689 249.943C133.236 247.613 138.472 244.733 143.56 241.662C146.099 240.119 148.596 238.51 150.972 236.754C153.264 234.964 155.814 233.189 157.161 230.633Z" fill="#DBDBDB"/>
<path d="M100.058 255.278C101.301 256.088 119.783 252.304 125.036 250.67C133.37 248.078 154.847 236.046 157.164 230.627C159.497 225.172 150.453 221.305 143.352 221.966C142.871 222.012 142.318 222.1 141.714 222.23C148.658 223.695 150.816 228.563 147.285 232.016C143.737 235.492 132.035 244.022 127.146 246.154C122.438 248.215 104.502 253.624 102.715 252.61C102.029 252.225 101.717 251.206 101.597 250.103C100.311 252.835 99.5894 254.974 100.058 255.278Z" fill="#EBEBEB"/>
<path d="M424.519 98.5132C435.25 98.5132 444.356 105.141 447.395 114.245V114.251L442.602 117.375C440.859 109.54 433.417 103.635 424.519 103.635C415.627 103.635 408.179 109.541 406.436 117.375L401.643 114.251V114.245C404.682 105.142 413.793 98.5132 424.519 98.5132Z" fill="#FFC727"/>
<path d="M424.519 85.3763C440.001 85.3763 453.357 94.0699 459.277 106.501L454.679 109.5C449.849 98.365 438.149 90.4965 424.519 90.4965C410.894 90.4965 399.195 98.365 394.365 109.5L389.766 106.501C395.686 94.0699 409.037 85.3763 424.519 85.3763Z" fill="#FFC727"/>
<path d="M424.519 71.5734C445.007 71.5734 462.803 82.5253 471.55 98.4963L467.006 101.461C459.301 86.8043 443.15 76.6944 424.519 76.6944C405.888 76.6944 389.743 86.8043 382.032 101.461L377.488 98.4963C386.24 82.5261 404.036 71.5734 424.519 71.5734Z" fill="#FFC727"/>
<path d="M603.563 238.641C603.563 248.666 596.468 257.172 586.723 260.011H586.717L583.373 255.534C591.76 253.907 598.081 246.954 598.081 238.641C598.081 230.335 591.759 223.377 583.373 221.749L586.717 217.271H586.723C596.468 220.111 603.563 228.622 603.563 238.641Z" fill="#FFC727"/>
<path d="M617.626 238.641C617.626 253.104 608.32 265.581 595.012 271.111L591.803 266.815C603.722 262.304 612.145 251.374 612.145 238.641C612.145 225.914 603.722 214.984 591.803 210.472L595.012 206.176C608.32 211.707 617.626 224.178 617.626 238.641Z" fill="#FFC727"/>
<path d="M632.402 238.641C632.402 257.781 620.678 274.405 603.581 282.576L600.408 278.332C616.097 271.134 626.92 256.045 626.92 238.641C626.92 221.237 616.097 206.154 600.408 198.951L603.581 194.707C620.678 202.882 632.402 219.508 632.402 238.641Z" fill="#FFC727"/>
<path d="M72.4366 238.641C72.4366 228.616 79.5318 220.111 89.2762 217.271H89.2825L92.6264 221.749C84.2395 223.377 77.9176 230.329 77.9176 238.641C77.9176 246.948 84.2395 253.906 92.6264 255.534L89.2825 260.011H89.2762C79.5318 257.172 72.4366 248.66 72.4366 238.641Z" fill="#FFC727"/>
<path d="M58.3739 238.641C58.3739 224.178 67.6802 211.702 80.9875 206.171L84.1971 210.467C72.2779 214.979 63.8549 225.909 63.8549 238.641C63.8549 251.369 72.2779 262.298 84.1971 266.81L80.9875 271.106C67.6802 265.575 58.3739 253.104 58.3739 238.641Z" fill="#FFC727"/>
<path d="M43.5983 238.641C43.5983 219.502 55.3229 202.877 72.4185 194.707L75.5921 198.951C59.9035 206.149 49.0803 221.237 49.0803 238.641C49.0803 256.045 59.9035 271.128 75.5921 278.332L72.4185 282.576C55.322 274.4 43.5983 257.775 43.5983 238.641Z" fill="#FFC727"/>
</svg>
