<svg viewBox="0 0 681 668" fill="none" xmlns="http://www.w3.org/2000/svg">
<g clip-path="url(#clip0_25_659)">
<path d="M654.571 91.8514L650.77 85.6442C618.756 33.3665 560.861 1.83933 499.808 5.65534C491.949 6.14704 484.138 7.21451 476.438 8.849C420.939 20.6082 372.646 62.2077 352.631 115.468C340.863 146.799 337.574 182.862 315.229 207.724C286.158 240.086 236.79 241.102 193.389 239.759C149.988 238.416 100.604 239.562 71.664 272.056C53.4838 292.397 47.7819 321.336 49.2528 348.589C53.1202 420.733 103.793 485.228 168.366 517.279C232.939 549.331 308.85 552.213 379.439 538.112C478.355 518.36 572.413 464.084 629.003 380.28C685.593 296.475 699.807 182.306 654.571 91.8514Z" fill="#F5F5F5"/>
<path d="M525.378 558.034C502.224 545.729 476.087 523.298 465.94 497.914C491.028 510.606 512.166 531.995 525.378 558.034Z" fill="#274362"/>
<path d="M523.866 519.878C500.712 507.56 474.575 485.142 464.415 459.758C489.516 472.45 510.655 493.839 523.866 519.878Z" fill="#274362"/>
<path d="M520.407 482.563C497.253 470.259 471.102 447.827 460.955 422.443C486.043 435.149 507.195 456.538 520.407 482.563Z" fill="#274362"/>
<path d="M515.326 443.378C493.793 427.988 470.625 402.203 463.57 375.576C486.929 391.608 505.316 415.723 515.326 443.378Z" fill="#274362"/>
<path d="M508.775 413.145C494.202 390.286 481.767 357.113 484.613 329.631C500.857 354.536 509.261 383.583 508.775 413.145Z" fill="#274362"/>
<path d="M512.112 427.52C518.241 398.996 533.169 363.793 554.661 343.967C548.36 375.052 533.665 403.908 512.112 427.52Z" fill="#274362"/>
<path d="M516.865 459.811C525.637 430.62 544.105 395.242 568.186 376.418C559.036 408.237 541.307 437.047 516.865 459.811Z" fill="#274362"/>
<path d="M522.136 499.103C530.921 469.925 549.376 434.534 573.47 415.723C564.319 447.541 546.584 476.347 522.136 499.103Z" fill="#274362"/>
<path d="M524.792 546.998C533.577 517.807 552.032 482.43 576.126 463.619C566.968 495.433 549.234 524.238 524.792 546.998Z" fill="#274362"/>
<path d="M508.189 407.4C508.189 407.4 508.258 407.547 508.339 407.854C508.421 408.161 508.53 408.669 508.666 409.19L509.851 414.534C510.873 419.13 512.221 425.823 513.733 434.106C515.245 442.39 516.893 452.303 518.486 463.338C520.08 474.374 521.51 486.531 522.722 499.33C523.934 512.129 524.711 524.367 525.242 535.482C525.773 546.598 525.977 556.644 526.004 565.075C526.032 573.505 526.004 580.305 525.827 585.021C525.759 587.319 525.705 589.136 525.65 590.445C525.65 591.02 525.65 591.474 525.582 591.848C525.606 592.008 525.606 592.169 525.582 592.329C525.564 592.169 525.564 592.008 525.582 591.848C525.582 591.474 525.582 591.006 525.582 590.432V585.021C525.582 580.305 525.582 573.491 525.46 565.075C525.337 556.658 525.024 546.651 524.493 535.536C523.961 524.42 523.131 512.209 521.905 499.464C520.679 486.718 519.181 474.534 517.737 463.498C516.293 452.463 514.659 442.577 513.202 434.28C511.744 425.984 510.478 419.277 509.606 414.654C509.184 412.396 508.843 410.646 508.612 409.31L508.366 407.974C508.29 407.788 508.231 407.596 508.189 407.4Z" fill="#263238"/>
<g opacity="0.3">
<path d="M525.378 558.034C502.224 545.729 476.087 523.298 465.94 497.914C491.028 510.606 512.166 531.995 525.378 558.034Z" fill="black"/>
</g>
<g opacity="0.3">
<path d="M523.866 519.878C500.712 507.56 474.575 485.142 464.415 459.758C489.516 472.45 510.655 493.839 523.866 519.878Z" fill="black"/>
</g>
<g opacity="0.3">
<path d="M520.407 482.563C497.253 470.259 471.102 447.827 460.955 422.443C486.043 435.149 507.195 456.538 520.407 482.563Z" fill="black"/>
</g>
<g opacity="0.3">
<path d="M515.326 443.378C493.793 427.988 470.625 402.203 463.57 375.576C486.929 391.608 505.316 415.723 515.326 443.378Z" fill="black"/>
</g>
<g opacity="0.3">
<path d="M508.775 413.145C494.202 390.286 481.767 357.113 484.613 329.631C500.857 354.536 509.261 383.583 508.775 413.145Z" fill="black"/>
</g>
<g opacity="0.3">
<path d="M512.112 427.52C518.241 398.996 533.169 363.793 554.661 343.967C548.36 375.052 533.665 403.908 512.112 427.52Z" fill="black"/>
</g>
<g opacity="0.3">
<path d="M516.865 459.811C525.637 430.62 544.105 395.242 568.186 376.418C559.036 408.237 541.307 437.047 516.865 459.811Z" fill="black"/>
</g>
<g opacity="0.3">
<path d="M522.136 499.103C530.921 469.925 549.376 434.534 573.47 415.723C564.319 447.541 546.584 476.347 522.136 499.103Z" fill="black"/>
</g>
<g opacity="0.3">
<path d="M524.792 546.998C533.577 517.807 552.032 482.43 576.126 463.619C566.968 495.433 549.234 524.238 524.792 546.998Z" fill="black"/>
</g>
<path d="M531.248 565.743C517.124 547.453 504.008 520.385 504.158 497.152C519.805 516.94 529.22 540.779 531.248 565.743Z" fill="#274362"/>
<path d="M542.171 536.164C528.047 517.874 514.931 490.806 515.081 467.573C530.723 487.364 540.138 511.201 542.171 536.164Z" fill="#274362"/>
<path d="M551.31 506.491C537.186 488.201 524.07 461.134 524.207 437.901C539.853 457.69 549.272 481.528 551.31 506.491Z" fill="#274362"/>
<path d="M559.782 474.774C547.946 454.734 538.126 426.264 541.136 403.352C554.278 424.883 560.756 449.697 559.782 474.774Z" fill="#274362"/>
<path d="M564.29 449.283C560.204 426.304 561.076 396.311 571.999 376.538C576.792 401.002 574.11 426.31 564.29 449.283Z" fill="#274362"/>
<path d="M562.288 461.494C576.126 442.216 598.844 421.201 621.821 414.427C607.159 435.546 586.441 451.926 562.288 461.494Z" fill="#274362"/>
<path d="M555.778 487.84C571.836 469.056 597.414 449.31 622.053 444.287C604.853 464.93 581.784 480.09 555.778 487.84Z" fill="#274362"/>
<path d="M547.415 519.704C563.473 500.92 589.065 481.16 613.704 476.137C596.497 496.782 573.424 511.946 547.415 519.704Z" fill="#274362"/>
<path d="M534.285 557.112C550.357 538.314 575.935 518.568 600.574 513.545C583.368 534.191 560.295 549.355 534.285 557.112Z" fill="#274362"/>
<path d="M565.652 444.688C565.652 444.688 565.652 444.835 565.652 445.088C565.652 445.342 565.557 445.783 565.489 446.251C565.298 447.333 565.053 448.802 564.74 450.673C564.086 454.521 563.024 460.025 561.593 466.892C558.747 480.559 554.225 499.33 547.973 519.704C544.827 529.898 541.572 539.53 538.439 548.228C535.307 556.925 532.283 564.674 529.6 571.127C526.917 577.58 524.71 582.803 523.076 586.357L521.197 590.512L520.693 591.567C520.57 591.808 520.502 591.928 520.488 591.915C520.51 591.785 520.551 591.659 520.611 591.541C520.72 591.247 520.87 590.886 521.033 590.445C521.455 589.43 522.041 588.04 522.763 586.29C524.288 582.696 526.44 577.459 529.028 570.98C531.616 564.5 534.544 556.711 537.677 548.027C540.809 539.343 543.969 529.697 547.102 519.53C553.34 499.17 557.998 480.452 560.953 466.838C562.465 460.025 563.677 454.507 564.372 450.686C564.753 448.829 565.053 447.36 565.284 446.277C565.38 445.823 565.475 445.449 565.543 445.142C565.554 444.986 565.591 444.832 565.652 444.688Z" fill="#263238"/>
<path d="M553.394 640.225H503.763L494.501 573.131H562.915L553.394 640.225Z" fill="#455A64"/>
<path d="M569.071 572.449H488.359V582.883H569.071V572.449Z" fill="#455A64"/>
<path d="M569.057 583.057C569.057 583.244 551.201 583.404 529.164 583.404C507.127 583.404 489.271 583.244 489.271 583.057C489.271 582.87 507.141 582.71 529.164 582.71C551.188 582.71 569.057 582.857 569.057 583.057Z" fill="#263238"/>
<path d="M455.494 82.0839H237.628C218.567 82.0839 203.115 97.2409 203.115 115.938V605.489C203.115 624.186 218.567 639.343 237.628 639.343H455.494C474.555 639.343 490.007 624.186 490.007 605.489V115.938C490.007 97.2409 474.555 82.0839 455.494 82.0839Z" fill="#455A64"/>
<path d="M485.471 605.221L485.471 116.219C485.471 99.8162 471.916 86.5194 455.194 86.5194L237.901 86.5194C221.179 86.5194 207.623 99.8162 207.623 116.219L207.623 605.221C207.623 621.624 221.179 634.921 237.901 634.921H455.194C471.916 634.921 485.471 621.624 485.471 605.221Z" fill="#263238"/>
<path d="M325.954 104.074C325.109 104.074 324.298 103.745 323.7 103.159C323.103 102.573 322.767 101.777 322.767 100.948C322.767 100.119 323.103 99.3239 323.7 98.7376C324.298 98.1513 325.109 97.822 325.954 97.822H366.977C367.823 97.822 368.633 98.1513 369.231 98.7376C369.829 99.3239 370.164 100.119 370.164 100.948C370.164 101.777 369.829 102.573 369.231 103.159C368.633 103.745 367.823 104.074 366.977 104.074H325.954Z" fill="#455A64"/>
<path d="M303.958 104.074C303.327 104.074 302.711 103.891 302.187 103.548C301.663 103.204 301.254 102.716 301.013 102.145C300.772 101.573 300.709 100.945 300.832 100.338C300.955 99.7319 301.258 99.1748 301.704 98.7376C302.15 98.3004 302.718 98.0027 303.336 97.882C303.954 97.7614 304.595 97.8233 305.177 98.0599C305.76 98.2966 306.257 98.6972 306.608 99.2114C306.958 99.7255 307.145 100.33 307.145 100.948C307.141 101.776 306.804 102.569 306.207 103.155C305.61 103.74 304.802 104.071 303.958 104.074Z" fill="#455A64"/>
<path d="M315.698 104.074C315.068 104.074 314.451 103.891 313.927 103.548C313.403 103.204 312.995 102.716 312.754 102.145C312.512 101.573 312.449 100.945 312.572 100.338C312.695 99.7319 312.999 99.1748 313.444 98.7376C313.89 98.3004 314.458 98.0027 315.076 97.882C315.694 97.7614 316.335 97.8233 316.918 98.0599C317.5 98.2966 317.998 98.6972 318.348 99.2114C318.698 99.7255 318.885 100.33 318.885 100.948C318.885 101.777 318.549 102.573 317.952 103.159C317.354 103.745 316.543 104.074 315.698 104.074Z" fill="#455A64"/>
<path d="M389.164 104.074C388.534 104.074 387.918 103.891 387.394 103.548C386.87 103.204 386.461 102.716 386.22 102.145C385.979 101.573 385.916 100.945 386.038 100.338C386.161 99.7319 386.465 99.1748 386.911 98.7376C387.356 98.3004 387.924 98.0027 388.543 97.882C389.161 97.7614 389.802 97.8233 390.384 98.0599C390.966 98.2966 391.464 98.6972 391.814 99.2114C392.164 99.7255 392.351 100.33 392.351 100.948C392.348 101.776 392.011 102.569 391.414 103.155C390.817 103.74 390.008 104.071 389.164 104.074Z" fill="#455A64"/>
<path d="M377.424 104.074C376.793 104.074 376.177 103.891 375.653 103.548C375.129 103.204 374.721 102.716 374.479 102.145C374.238 101.573 374.175 100.945 374.298 100.338C374.421 99.7319 374.725 99.1748 375.17 98.7376C375.616 98.3004 376.184 98.0027 376.802 97.882C377.42 97.7614 378.061 97.8233 378.644 98.0599C379.226 98.2966 379.724 98.6972 380.074 99.2114C380.424 99.7255 380.611 100.33 380.611 100.948C380.607 101.776 380.27 102.569 379.673 103.155C379.077 103.74 378.268 104.071 377.424 104.074Z" fill="#455A64"/>
<path d="M459.307 90.2735H409.635C407.817 90.2705 406.048 90.8457 404.592 91.9128C403.135 92.9799 402.071 94.4814 401.558 96.192L398.399 106.88C397.83 108.805 396.639 110.497 395.006 111.702C393.372 112.906 391.385 113.558 389.341 113.56H303.726C301.683 113.558 299.695 112.906 298.062 111.702C296.428 110.497 295.238 108.805 294.669 106.88L291.509 96.192C290.999 94.474 289.935 92.9645 288.476 91.8901C287.017 90.8157 285.243 90.2344 283.419 90.2335H244.847C240.808 90.2335 236.809 91.0137 233.078 92.5298C229.347 94.0458 225.956 96.2679 223.1 99.0691C220.245 101.87 217.979 105.196 216.434 108.856C214.888 112.516 214.093 116.439 214.093 120.4V607.132C214.093 612.539 216.283 617.724 220.18 621.548C224.078 625.371 229.365 627.519 234.877 627.519H460.765C465.605 627.519 470.247 625.633 473.67 622.276C477.093 618.918 479.015 614.365 479.015 609.617V109.552C479.001 104.434 476.918 99.5307 473.224 95.9168C469.529 92.3029 464.525 90.2735 459.307 90.2735Z" fill="#FAFAFA"/>
<path d="M470.149 99.2648C467.292 96.4153 463.885 94.1527 460.127 92.6089C456.369 91.0651 452.336 90.2712 448.261 90.2735H403.315L396.424 113.56H296.698L289.793 90.2468H234.264C228.932 90.2468 223.819 92.3244 220.049 96.0225C216.279 99.7206 214.161 104.736 214.161 109.966V462.376L214.951 462.47C240.829 465.222 265.89 449.297 280.068 427.948C294.246 406.598 299.177 380.68 301.683 355.376C304.189 330.072 304.489 304.301 310.563 279.518C321.061 237.514 347.325 200.94 384.111 177.1C402.13 165.557 422.247 157.314 439.477 144.595C454.608 133.346 467.615 117.328 470.149 99.2648Z" fill="#F5F5F5"/>
<path d="M479.015 615.295V459.37C458.581 461.582 438.954 468.438 421.694 479.394C404.435 490.35 390.018 505.104 379.589 522.483C361.107 553.892 357.443 593.211 369.252 627.519H466.58C469.881 627.512 473.044 626.221 475.375 623.929C477.706 621.638 479.015 618.532 479.015 615.295Z" fill="#F5F5F5"/>
<path d="M490.415 267.253H489.993V203.259H490.415C490.802 203.259 491.173 203.41 491.446 203.678C491.719 203.946 491.873 204.309 491.873 204.689V265.824C491.873 266.203 491.719 266.567 491.446 266.835C491.173 267.103 490.802 267.253 490.415 267.253Z" fill="#455A64"/>
<path d="M202.611 242.671H203.115V283.232H202.611C202.225 283.232 201.854 283.081 201.581 282.813C201.307 282.545 201.154 282.182 201.154 281.803V244.101C201.154 243.721 201.307 243.358 201.581 243.09C201.854 242.822 202.225 242.671 202.611 242.671Z" fill="#455A64"/>
<path d="M202.611 189.712H203.115V230.26H202.611C202.225 230.26 201.854 230.109 201.581 229.841C201.307 229.573 201.154 229.209 201.154 228.83V191.128C201.157 190.751 201.313 190.391 201.585 190.126C201.858 189.861 202.227 189.712 202.611 189.712Z" fill="#455A64"/>
<path d="M202.72 149.939H203.115V168.79H202.72C202.377 168.79 202.048 168.657 201.805 168.419C201.563 168.181 201.426 167.858 201.426 167.521V151.195C201.43 150.861 201.568 150.541 201.81 150.306C202.052 150.071 202.379 149.939 202.72 149.939Z" fill="#455A64"/>
<path d="M416.677 108.403H414.702V111.115H416.677V108.403Z" fill="#263238"/>
<path d="M419.891 107.201H417.916V111.115H419.891V107.201Z" fill="#263238"/>
<path d="M423.092 106.292H421.117V111.115H423.092V106.292Z" fill="#263238"/>
<path d="M426.306 104.542H424.331V111.115H426.306V104.542Z" fill="#263238"/>
<path d="M455.385 111.249H445.497C445.309 111.249 445.129 111.176 444.996 111.045C444.863 110.915 444.788 110.738 444.788 110.554V105.731C444.788 105.549 444.861 105.374 444.991 105.245C445.121 105.115 445.298 105.04 445.483 105.036H455.385C455.429 105.024 455.476 105.024 455.521 105.036C455.535 105.08 455.535 105.126 455.521 105.17V106.88H456.583C456.608 106.878 456.632 106.881 456.655 106.889C456.678 106.897 456.699 106.91 456.717 106.926C456.735 106.942 456.75 106.962 456.759 106.984C456.769 107.006 456.774 107.03 456.774 107.054V109.378C456.774 109.402 456.769 109.426 456.759 109.448C456.75 109.47 456.735 109.49 456.717 109.506C456.699 109.522 456.678 109.535 456.655 109.543C456.632 109.551 456.608 109.554 456.583 109.552H455.521V111.142C455.51 111.17 455.491 111.194 455.467 111.213C455.443 111.232 455.415 111.244 455.385 111.249ZM455.208 105.397H445.483C445.439 105.397 445.395 105.406 445.355 105.423C445.314 105.44 445.277 105.464 445.247 105.496C445.216 105.527 445.193 105.564 445.177 105.604C445.161 105.645 445.154 105.688 445.156 105.731V110.554C445.156 110.644 445.192 110.73 445.255 110.795C445.318 110.86 445.405 110.898 445.497 110.901H455.208V109.312C455.208 109.266 455.226 109.221 455.26 109.189C455.293 109.156 455.338 109.138 455.385 109.138H456.447V107.161H455.385C455.338 107.161 455.293 107.142 455.26 107.11C455.226 107.077 455.208 107.033 455.208 106.987V105.397Z" fill="#263238"/>
<path d="M445.96 110.113V106.185H454.404V107.962V108.336V110.113H445.96Z" fill="#263238"/>
<path d="M435.731 110.888C435.731 110.7 435.655 110.52 435.52 110.387C435.384 110.255 435.201 110.18 435.009 110.18C434.914 110.178 434.819 110.195 434.731 110.23C434.642 110.265 434.562 110.317 434.495 110.383C434.427 110.449 434.374 110.528 434.339 110.615C434.303 110.702 434.285 110.795 434.287 110.888C434.287 111.076 434.363 111.256 434.499 111.389C434.634 111.521 434.818 111.596 435.009 111.596C435.201 111.596 435.384 111.521 435.52 111.389C435.655 111.256 435.731 111.076 435.731 110.888Z" fill="#263238"/>
<path d="M432.544 109.178L433.457 110.073C433.867 109.672 434.423 109.448 435.002 109.448C435.582 109.448 436.137 109.672 436.548 110.073L437.474 109.178C437.151 108.86 436.767 108.607 436.344 108.435C435.921 108.263 435.467 108.175 435.009 108.176C434.551 108.172 434.096 108.259 433.673 108.431C433.249 108.603 432.865 108.857 432.544 109.178Z" fill="#263238"/>
<path d="M435.009 106.159C434.28 106.153 433.557 106.29 432.884 106.563C432.21 106.836 431.599 107.239 431.087 107.748L432.013 108.657C432.403 108.266 432.87 107.956 433.384 107.745C433.899 107.534 434.451 107.426 435.009 107.428C435.567 107.429 436.118 107.539 436.632 107.749C437.146 107.96 437.613 108.269 438.006 108.657L438.918 107.748C438.408 107.241 437.799 106.839 437.127 106.566C436.456 106.293 435.736 106.154 435.009 106.159Z" fill="#263238"/>
<path d="M429.588 106.279L430.501 107.187C431.092 106.607 431.793 106.146 432.566 105.832C433.338 105.518 434.166 105.356 435.002 105.356C435.839 105.356 436.667 105.518 437.439 105.832C438.211 106.146 438.913 106.607 439.504 107.187L440.43 106.279C439.717 105.573 438.868 105.012 437.933 104.63C436.998 104.247 435.995 104.05 434.982 104.05C433.969 104.05 432.966 104.247 432.031 104.63C431.096 105.012 430.247 105.573 429.534 106.279H429.588Z" fill="#263238"/>
<path d="M408.897 312.912C416.177 295.353 407.567 275.33 389.666 268.189C371.765 261.049 351.353 269.494 344.073 287.053C336.793 304.612 345.403 324.636 363.304 331.776C381.205 338.917 401.618 330.471 408.897 312.912Z" fill="#F5F5F5"/>
<path d="M252.937 231.315C252.937 222.591 257.595 217.381 264.065 217.381C270.534 217.381 275.219 222.591 275.219 231.315C275.219 240.039 270.52 245.236 264.065 245.236C257.609 245.236 252.937 240.039 252.937 231.315ZM272.277 231.315C272.277 223.994 268.927 219.959 264.105 219.959C259.284 219.959 255.933 223.967 255.933 231.315C255.933 238.663 259.284 242.658 264.105 242.658C268.927 242.658 272.277 238.623 272.277 231.315Z" fill="#263238"/>
<path d="M299.477 231.128C299.477 240.48 294.287 245.29 286.715 245.29C284.412 245.389 282.126 244.876 280.095 243.807L281.253 241.535C282.897 242.492 284.791 242.957 286.701 242.871C292.721 242.871 296.589 239.077 296.589 231.636C296.589 231.008 296.589 230.233 296.467 229.405C295.105 232.424 291.809 234.107 287.94 234.107C282.397 234.107 278.529 230.901 278.529 225.891C278.529 220.881 282.615 217.474 288.063 217.474C295.445 217.381 299.477 222.431 299.477 231.128ZM295.527 225.691C295.527 222.685 292.98 219.825 288.145 219.825C284.127 219.825 281.335 222.137 281.335 225.771C281.335 229.405 284.059 231.676 288.349 231.676C292.639 231.676 295.554 229.044 295.554 225.637L295.527 225.691Z" fill="#263238"/>
<path d="M303.726 226.385C303.721 226.109 303.772 225.834 303.876 225.577C303.981 225.321 304.136 225.087 304.334 224.89C304.533 224.693 304.769 224.538 305.029 224.432C305.29 224.326 305.569 224.273 305.851 224.274C306.421 224.274 306.969 224.497 307.372 224.893C307.776 225.288 308.003 225.825 308.003 226.385C308.003 226.949 307.777 227.49 307.375 227.892C306.973 228.294 306.425 228.526 305.851 228.536C305.279 228.526 304.734 228.294 304.336 227.891C303.938 227.487 303.719 226.946 303.726 226.385ZM303.726 243.045C303.721 242.769 303.772 242.494 303.876 242.237C303.981 241.98 304.136 241.747 304.334 241.55C304.533 241.353 304.769 241.198 305.029 241.092C305.29 240.986 305.569 240.932 305.851 240.934C306.421 240.934 306.969 241.157 307.372 241.553C307.776 241.948 308.003 242.485 308.003 243.045C308.006 243.61 307.782 244.153 307.379 244.556C306.976 244.959 306.426 245.189 305.851 245.196C305.567 245.193 305.287 245.134 305.026 245.024C304.765 244.914 304.53 244.754 304.332 244.554C304.135 244.354 303.979 244.118 303.875 243.859C303.771 243.6 303.721 243.323 303.726 243.045Z" fill="#263238"/>
<path d="M312.075 231.315C312.075 222.591 316.747 217.381 323.203 217.381C329.658 217.381 334.371 222.591 334.371 231.315C334.371 240.039 329.672 245.236 323.203 245.236C316.733 245.236 312.075 240.039 312.075 231.315ZM331.415 231.315C331.415 223.994 328.065 219.959 323.243 219.959C318.422 219.959 315.071 223.967 315.071 231.315C315.071 238.663 318.422 242.658 323.243 242.658C328.065 242.658 331.415 238.623 331.415 231.315Z" fill="#263238"/>
<path d="M338.484 231.315C338.484 222.591 343.142 217.381 349.612 217.381C356.081 217.381 360.78 222.591 360.78 231.315C360.78 240.039 356.068 245.236 349.612 245.236C343.156 245.236 338.484 240.039 338.484 231.315ZM357.825 231.315C357.825 223.994 354.474 219.959 349.653 219.959C344.831 219.959 341.481 223.967 341.481 231.315C341.481 238.663 344.831 242.658 349.653 242.658C354.474 242.658 357.825 238.623 357.825 231.315Z" fill="#263238"/>
<path d="M439.3 185.931H259.516C257.162 185.931 254.833 185.476 252.659 184.591C250.486 183.706 248.512 182.409 246.851 180.774C245.19 179.14 243.874 177.2 242.978 175.065C242.083 172.931 241.625 170.644 241.632 168.336C241.632 163.684 243.517 159.222 246.87 155.932C250.224 152.642 254.773 150.794 259.516 150.794H439.3C444.042 150.794 448.591 152.642 451.945 155.932C455.298 159.222 457.183 163.684 457.183 168.336C457.19 170.644 456.732 172.931 455.837 175.065C454.941 177.2 453.625 179.14 451.964 180.774C450.303 182.409 448.329 183.706 446.156 184.591C443.982 185.476 441.653 185.931 439.3 185.931Z" fill="#E0E0E0"/>
<path d="M434.628 175.083C433.281 175.083 431.964 174.691 430.844 173.957C429.725 173.223 428.852 172.18 428.336 170.959C427.821 169.739 427.686 168.395 427.949 167.1C428.211 165.804 428.86 164.614 429.812 163.679C430.765 162.745 431.978 162.109 433.299 161.851C434.62 161.593 435.99 161.726 437.234 162.231C438.478 162.737 439.542 163.593 440.29 164.692C441.038 165.79 441.438 167.082 441.438 168.403C441.438 170.174 440.72 171.874 439.443 173.126C438.166 174.379 436.434 175.083 434.628 175.083ZM434.628 163.059C433.55 163.059 432.497 163.372 431.601 163.959C430.705 164.547 430.007 165.381 429.595 166.358C429.182 167.334 429.074 168.409 429.285 169.445C429.495 170.482 430.014 171.434 430.776 172.182C431.537 172.929 432.508 173.438 433.565 173.644C434.622 173.85 435.717 173.745 436.713 173.34C437.708 172.936 438.559 172.251 439.158 171.372C439.756 170.493 440.076 169.46 440.076 168.403C440.085 167.695 439.951 166.993 439.681 166.337C439.411 165.681 439.011 165.084 438.504 164.581C437.998 164.077 437.394 163.678 436.729 163.405C436.063 163.132 435.349 162.992 434.628 162.992V163.059Z" fill="#263238"/>
<path d="M443.794 176.82C443.711 176.821 443.629 176.807 443.552 176.777C443.474 176.747 443.404 176.703 443.345 176.646L438.85 172.798C438.724 172.679 438.649 172.516 438.641 172.345C438.634 172.173 438.695 172.004 438.811 171.875C438.926 171.746 439.089 171.666 439.264 171.651C439.438 171.636 439.612 171.688 439.749 171.796L444.244 175.644C444.307 175.706 444.358 175.78 444.393 175.861C444.427 175.943 444.445 176.03 444.445 176.118C444.445 176.206 444.427 176.294 444.393 176.375C444.358 176.457 444.307 176.53 444.244 176.592C444.129 176.722 443.968 176.803 443.794 176.82Z" fill="#263238"/>
<path d="M433.593 242.244C434.073 242.276 434.556 242.276 435.036 242.244C436.391 242.059 437.667 241.514 438.727 240.667C439.488 240.076 440.118 239.34 440.58 238.503C440.842 238.035 441.044 237.537 441.179 237.02C441.323 236.461 441.392 235.886 441.383 235.31C441.372 234.691 441.28 234.076 441.111 233.479C440.917 232.856 440.652 232.255 440.321 231.689C439.592 230.471 438.505 229.498 437.202 228.897H437.134V228.83C437.156 227.858 436.899 226.9 436.394 226.064C435.888 225.228 435.154 224.548 434.274 224.101C433.304 223.646 432.215 223.496 431.154 223.671C430.094 223.845 429.115 224.336 428.349 225.076L428.172 225.236V225.009C427.8 223.47 427.051 222.042 425.99 220.85C424.93 219.659 423.589 218.738 422.084 218.169C421.294 217.858 420.465 217.656 419.619 217.568C419.41 217.548 419.2 217.548 418.992 217.568H418.366C416.31 217.649 414.344 218.417 412.795 219.745C411.634 220.743 410.706 221.973 410.071 223.352C409.475 224.661 409.2 226.089 409.267 227.521V227.681H409.118C407.501 227.32 405.807 227.518 404.323 228.242C403.637 228.574 403 228.997 402.43 229.498C401.902 229.983 401.444 230.536 401.068 231.141C400.733 231.719 400.481 232.339 400.319 232.985C400.18 233.594 400.134 234.22 400.183 234.842C400.265 235.945 400.605 237.015 401.177 237.968C401.971 239.242 403.132 240.256 404.514 240.881C405.029 241.095 405.563 241.264 406.108 241.388H405.999H405.685C405.509 241.361 405.335 241.316 405.168 241.255C404.931 241.19 404.699 241.11 404.473 241.014C402.997 240.366 401.767 239.276 400.959 237.902C400.369 236.933 400.01 235.846 399.91 234.722C399.787 233.391 400.102 232.056 400.809 230.914C401.177 230.287 401.636 229.715 402.171 229.218C402.757 228.689 403.412 228.24 404.119 227.882C405.647 227.128 407.396 226.92 409.063 227.294L408.913 227.414C408.844 225.946 409.124 224.482 409.73 223.139C410.391 221.715 411.358 220.448 412.563 219.425C413.841 218.355 415.381 217.632 417.031 217.327C417.449 217.251 417.872 217.202 418.297 217.18H418.951C419.164 217.167 419.378 217.167 419.591 217.18C420.461 217.275 421.313 217.487 422.125 217.808C423.672 218.391 425.051 219.335 426.14 220.56C427.23 221.785 427.998 223.253 428.376 224.835L428.158 224.769C428.927 224.008 429.913 223.494 430.986 223.296C432.059 223.098 433.168 223.225 434.165 223.66C435.163 224.095 436.002 224.818 436.571 225.731C437.14 226.645 437.413 227.707 437.352 228.777L437.284 228.67C438.627 229.287 439.745 230.294 440.484 231.556C440.823 232.138 441.093 232.757 441.288 233.399C441.457 234.009 441.548 234.638 441.56 235.27C441.558 235.864 441.485 236.456 441.343 237.033C441.193 237.565 440.978 238.076 440.702 238.556C440.123 239.57 439.308 240.436 438.323 241.084C437.339 241.731 436.213 242.143 435.036 242.284C434.674 242.313 434.309 242.313 433.947 242.284L433.593 242.244Z" fill="#263238"/>
<path d="M434.287 242.965H433.892H433.497C433.371 242.945 433.253 242.891 433.156 242.808C433.06 242.725 432.989 242.618 432.953 242.497C432.913 242.38 432.907 242.254 432.936 242.134C432.965 242.014 433.027 241.904 433.116 241.816C433.202 241.74 433.304 241.684 433.415 241.652C433.525 241.619 433.642 241.611 433.756 241.629C434.155 241.655 434.556 241.655 434.955 241.629C436.18 241.455 437.334 240.956 438.292 240.186C438.983 239.654 439.557 238.991 439.98 238.236C440.215 237.813 440.398 237.364 440.525 236.9C440.65 236.401 440.71 235.89 440.702 235.377C440.686 234.821 440.604 234.27 440.457 233.733C440.279 233.161 440.037 232.61 439.735 232.09C439.076 230.994 438.1 230.115 436.93 229.565C436.795 229.508 436.679 229.415 436.594 229.297C436.51 229.179 436.461 229.041 436.453 228.897C436.506 228.01 436.282 227.129 435.812 226.371C435.341 225.612 434.646 225.012 433.819 224.651C432.992 224.289 432.073 224.184 431.183 224.348C430.293 224.512 429.476 224.939 428.839 225.57L428.676 225.744C428.587 225.827 428.477 225.886 428.357 225.914C428.238 225.943 428.113 225.939 427.995 225.904C427.877 225.873 427.77 225.81 427.686 225.723C427.602 225.635 427.544 225.527 427.518 225.41V225.169C427.169 223.74 426.471 222.416 425.484 221.31C424.497 220.204 423.251 219.351 421.852 218.823C421.124 218.536 420.358 218.347 419.578 218.262C419.387 218.252 419.196 218.252 419.006 218.262H418.093C417.827 218.278 417.563 218.314 417.303 218.369C415.792 218.639 414.382 219.298 413.217 220.28C412.115 221.203 411.231 222.353 410.629 223.646C410.077 224.859 409.82 226.181 409.88 227.507V227.654C409.885 227.76 409.865 227.865 409.823 227.962C409.78 228.059 409.716 228.146 409.635 228.216C409.553 228.283 409.456 228.331 409.352 228.354C409.248 228.377 409.139 228.376 409.036 228.349H408.886C407.426 228.018 405.894 228.198 404.555 228.857C403.924 229.161 403.337 229.548 402.812 230.006C402.334 230.45 401.917 230.953 401.572 231.502C401.27 232.022 401.041 232.579 400.891 233.159C400.771 233.694 400.734 234.243 400.782 234.789C400.853 235.793 401.161 236.767 401.681 237.634C402.397 238.875 403.486 239.869 404.8 240.48C405.235 240.675 405.692 240.818 406.162 240.908C406.278 240.919 406.39 240.956 406.489 241.016C406.588 241.076 406.672 241.158 406.734 241.255C406.829 241.412 406.858 241.598 406.816 241.776C406.747 241.943 406.62 242.08 406.459 242.166C406.297 242.251 406.11 242.279 405.93 242.244H405.604C405.39 242.209 405.18 242.155 404.977 242.083H404.814C404.606 242.029 404.405 241.953 404.214 241.856C402.616 241.157 401.286 239.978 400.414 238.489C399.773 237.436 399.386 236.252 399.284 235.029C399.22 234.332 399.261 233.63 399.407 232.945C399.585 232.206 399.869 231.495 400.251 230.834C401.104 229.421 402.365 228.286 403.874 227.574C405.242 226.901 406.776 226.619 408.3 226.759C408.361 225.513 408.662 224.289 409.186 223.152C409.874 221.633 410.903 220.286 412.196 219.211C413.559 218.056 415.207 217.273 416.976 216.94C417.314 216.877 417.655 216.837 417.998 216.819H418.311H419.019C419.269 216.799 419.519 216.799 419.768 216.819C420.702 216.916 421.619 217.137 422.492 217.474C423.942 218.031 425.255 218.882 426.347 219.971C427.438 221.059 428.283 222.362 428.826 223.793C429.721 223.225 430.753 222.898 431.818 222.847C432.883 222.796 433.943 223.022 434.89 223.502C435.837 223.982 436.638 224.7 437.211 225.581C437.785 226.463 438.111 227.478 438.155 228.523C439.415 229.221 440.463 230.236 441.193 231.462C441.93 232.676 442.333 234.057 442.364 235.47C442.361 236.123 442.279 236.773 442.119 237.407C441.958 238.004 441.72 238.579 441.411 239.117C440.886 240.035 440.177 240.84 439.327 241.482C438.152 242.407 436.736 242.99 435.241 243.165C434.819 242.938 434.478 242.965 434.287 242.965Z" fill="#263238"/>
<path d="M417.439 237.461C416.888 238.616 416.256 239.732 415.546 240.801C414.91 241.911 414.205 242.981 413.435 244.007C413.978 242.85 414.606 241.734 415.315 240.667C415.949 239.553 416.659 238.482 417.439 237.461Z" fill="#263238"/>
<path d="M413.476 244.728C413.334 244.711 413.199 244.661 413.081 244.582C412.427 244.194 412.441 244.074 414.729 240.32C416.813 236.926 416.976 236.886 417.262 236.806C417.35 236.785 417.44 236.782 417.529 236.795C417.618 236.809 417.703 236.84 417.78 236.886C417.931 236.983 418.042 237.13 418.093 237.3C418.093 237.594 418.202 237.741 416.118 241.148C414.361 244.02 413.898 244.728 413.476 244.728Z" fill="#263238"/>
<path d="M423.718 237.461C423.174 238.619 422.541 239.736 421.825 240.801C421.188 241.911 420.483 242.981 419.714 244.007C420.257 242.85 420.885 241.734 421.594 240.667C422.228 239.553 422.938 238.482 423.718 237.461Z" fill="#263238"/>
<path d="M419.714 244.675C419.588 244.672 419.466 244.635 419.36 244.568C418.706 244.194 418.72 244.074 421.008 240.32C423.092 236.926 423.255 236.886 423.555 236.806C423.642 236.785 423.733 236.782 423.822 236.795C423.911 236.809 423.996 236.84 424.072 236.886C424.712 237.274 424.713 237.394 422.411 241.148C420.327 244.541 420.163 244.581 419.877 244.648L419.714 244.675Z" fill="#263238"/>
<path d="M429.997 237.461C429.452 238.619 428.82 239.736 428.104 240.801C427.467 241.911 426.762 242.981 425.993 244.007C426.536 242.85 427.164 241.734 427.872 240.667C428.506 239.553 429.216 238.482 429.997 237.461Z" fill="#263238"/>
<path d="M426.034 244.729C425.892 244.711 425.757 244.661 425.639 244.582C424.985 244.194 424.998 244.074 427.3 240.32C429.371 236.926 429.534 236.886 429.834 236.806C430.01 236.767 430.195 236.796 430.351 236.886C430.506 236.98 430.618 237.128 430.664 237.3C430.733 237.594 430.773 237.741 428.689 241.148C426.933 244.02 426.456 244.729 426.034 244.729Z" fill="#263238"/>
<path d="M410.166 246.639C409.618 247.796 408.985 248.912 408.273 249.979C407.643 251.088 406.937 252.155 406.162 253.172C406.712 252.016 407.344 250.9 408.055 249.832C408.679 248.719 409.384 247.651 410.166 246.639Z" fill="#263238"/>
<path d="M406.162 253.84C406.037 253.843 405.914 253.81 405.808 253.746C405.653 253.653 405.541 253.505 405.495 253.332C405.427 253.052 405.386 252.891 407.47 249.498C409.758 245.757 409.867 245.677 410.52 246.064C411.161 246.452 411.161 246.572 408.859 250.313C406.775 253.72 406.625 253.76 406.325 253.827L406.162 253.84Z" fill="#263238"/>
<path d="M416.445 246.639C415.263 248.903 413.925 251.086 412.441 253.172C412.991 252.021 413.624 250.909 414.334 249.845C414.963 248.731 415.668 247.66 416.445 246.639Z" fill="#263238"/>
<path d="M412.441 253.84C412.316 253.843 412.193 253.81 412.087 253.747C411.932 253.653 411.82 253.505 411.773 253.332C411.705 253.052 411.665 252.891 413.748 249.498C416.037 245.744 416.145 245.677 416.799 246.065C417.426 246.452 417.426 246.572 415.124 250.313C413.054 253.72 412.89 253.76 412.591 253.827L412.441 253.84Z" fill="#263238"/>
<path d="M422.724 246.639C421.555 248.91 420.217 251.094 418.72 253.172C419.27 252.021 419.902 250.909 420.613 249.845C421.242 248.731 421.947 247.66 422.724 246.639Z" fill="#263238"/>
<path d="M418.72 253.84C418.595 253.843 418.472 253.81 418.366 253.746C418.211 253.653 418.099 253.505 418.052 253.332C417.984 253.052 417.943 252.891 420.027 249.498C422.315 245.757 422.424 245.677 423.078 246.064C423.732 246.452 423.718 246.572 421.416 250.313C419.333 253.72 419.183 253.76 418.883 253.827L418.72 253.84Z" fill="#263238"/>
<path d="M429.289 246.773C428.731 247.924 428.099 249.04 427.396 250.113C426.767 251.23 426.057 252.302 425.271 253.319C425.829 252.167 426.461 251.052 427.164 249.979C427.792 248.861 428.503 247.79 429.289 246.773Z" fill="#263238"/>
<path d="M425.325 254.04C425.184 254.005 425.053 253.936 424.944 253.84C424.29 253.453 424.29 253.332 426.592 249.578C428.676 246.185 428.839 246.145 429.125 246.078C429.3 246.039 429.484 246.062 429.643 246.145C429.792 246.244 429.902 246.39 429.956 246.559C430.024 246.853 430.065 247.013 427.981 250.406C426.211 253.346 425.748 254.04 425.325 254.04Z" fill="#263238"/>
<path d="M321.446 525.903C324.635 525.903 327.221 523.367 327.221 520.238C327.221 517.11 324.635 514.574 321.446 514.574C318.256 514.574 315.671 517.11 315.671 520.238C315.671 523.367 318.256 525.903 321.446 525.903Z" fill="#EBEBEB"/>
<path d="M340.745 525.903C343.935 525.903 346.52 523.367 346.52 520.238C346.52 517.11 343.935 514.574 340.745 514.574C337.556 514.574 334.97 517.11 334.97 520.238C334.97 523.367 337.556 525.903 340.745 525.903Z" fill="#E0E0E0"/>
<path d="M360.045 525.903C363.234 525.903 365.82 523.367 365.82 520.238C365.82 517.11 363.234 514.574 360.045 514.574C356.855 514.574 354.27 517.11 354.27 520.238C354.27 523.367 356.855 525.903 360.045 525.903Z" fill="#E0E0E0"/>
<path d="M379.344 525.903C382.534 525.903 385.119 523.367 385.119 520.238C385.119 517.11 382.534 514.574 379.344 514.574C376.155 514.574 373.569 517.11 373.569 520.238C373.569 523.367 376.155 525.903 379.344 525.903Z" fill="#E0E0E0"/>
<path d="M273.34 548.401H251.534C244.712 548.401 239.181 553.826 239.181 560.519V581.908C239.181 588.6 244.712 594.026 251.534 594.026H273.34C280.162 594.026 285.693 588.6 285.693 581.908V560.519C285.693 553.826 280.162 548.401 273.34 548.401Z" fill="#274362"/>
<path d="M330.585 547.974H310.25C303.021 547.974 297.161 553.722 297.161 560.813V580.759C297.161 587.85 303.021 593.598 310.25 593.598H330.585C337.813 593.598 343.674 587.85 343.674 580.759V560.813C343.674 553.722 337.813 547.974 330.585 547.974Z" fill="#E0E0E0"/>
<path d="M387.816 547.56H368.979C361.337 547.56 355.142 553.637 355.142 561.133V579.61C355.142 587.107 361.337 593.184 368.979 593.184H387.816C395.458 593.184 401.654 587.107 401.654 579.61V561.133C401.654 553.637 395.458 547.56 387.816 547.56Z" fill="#455A64"/>
<path d="M445.633 548.401H427.123C419.391 548.401 413.122 554.55 413.122 562.135V580.292C413.122 587.877 419.391 594.026 427.123 594.026H445.633C453.366 594.026 459.634 587.877 459.634 580.292V562.135C459.634 554.55 453.366 548.401 445.633 548.401Z" fill="#263238"/>
<path d="M273.449 449.631H251.425C244.663 449.631 239.181 455.008 239.181 461.642V483.245C239.181 489.878 244.663 495.255 251.425 495.255H273.449C280.211 495.255 285.693 489.878 285.693 483.245V461.642C285.693 455.008 280.211 449.631 273.449 449.631Z" fill="#455A64"/>
<path d="M329.318 449.203H311.517C303.588 449.203 297.161 455.508 297.161 463.285V480.746C297.161 488.523 303.588 494.828 311.517 494.828H329.318C337.246 494.828 343.674 488.523 343.674 480.746V463.285C343.674 455.508 337.246 449.203 329.318 449.203Z" fill="#263238"/>
<path d="M388.946 448.776H367.849C360.831 448.776 355.142 454.356 355.142 461.241V481.935C355.142 488.819 360.831 494.4 367.849 494.4H388.946C395.965 494.4 401.654 488.819 401.654 481.935V461.241C401.654 454.356 395.965 448.776 388.946 448.776Z" fill="#E0E0E0"/>
<path d="M445.742 448.362H427.014C419.342 448.362 413.122 454.463 413.122 461.989V480.359C413.122 487.885 419.342 493.986 427.014 493.986H445.742C453.414 493.986 459.634 487.885 459.634 480.359V461.989C459.634 454.463 453.414 448.362 445.742 448.362Z" fill="#274362"/>
<path d="M257.418 464.313C258.155 463.879 258.947 463.542 259.774 463.311L260.251 461.04H264.187L264.746 463.298C265.578 463.502 266.379 463.812 267.129 464.22L269.118 462.884L271.937 465.556L270.711 467.547C271.154 468.269 271.498 469.046 271.733 469.858L274.048 470.325L274.116 474.186L271.814 474.734C271.606 475.55 271.29 476.336 270.875 477.072L272.237 479.023L269.513 481.788L267.497 480.586C266.76 481.021 265.968 481.358 265.141 481.588L264.664 483.859H260.728L260.169 481.601C259.337 481.397 258.536 481.087 257.786 480.679L255.797 482.015L252.978 479.343L254.204 477.366C253.761 476.643 253.417 475.866 253.182 475.055L250.867 474.587L250.799 470.726L253.1 470.178C253.306 469.362 253.623 468.575 254.04 467.84L252.678 465.89L255.402 463.124L257.418 464.327V464.313ZM258.78 468.963C258.076 469.678 257.604 470.582 257.425 471.56C257.245 472.538 257.365 473.547 257.77 474.458C258.174 475.37 258.846 476.143 259.699 476.679C260.552 477.216 261.548 477.493 262.561 477.474C263.574 477.455 264.559 477.142 265.39 476.574C266.222 476.006 266.863 475.209 267.233 474.283C267.602 473.358 267.684 472.345 267.466 471.375C267.249 470.404 266.743 469.518 266.012 468.829C265.531 468.37 264.961 468.008 264.337 467.764C263.713 467.521 263.045 467.401 262.374 467.41C261.702 467.42 261.038 467.56 260.422 467.822C259.805 468.084 259.247 468.462 258.78 468.936V468.963Z" fill="white"/>
<path d="M367.549 581.441L369.252 575.242C367.888 572.825 367.458 570.007 368.041 567.305C368.625 564.602 370.182 562.197 372.428 560.531C374.673 558.864 377.456 558.048 380.266 558.231C383.076 558.415 385.723 559.587 387.723 561.532C389.723 563.476 390.941 566.063 391.153 568.817C391.366 571.572 390.558 574.309 388.879 576.526C387.199 578.743 384.761 580.292 382.011 580.888C379.262 581.484 376.385 581.087 373.91 579.771L367.549 581.441ZM374.223 577.433L374.618 577.66C376.617 578.833 378.984 579.249 381.274 578.827C383.563 578.406 385.616 577.176 387.045 575.372C388.474 573.567 389.18 571.312 389.029 569.031C388.879 566.751 387.882 564.604 386.228 562.995C384.574 561.386 382.377 560.427 380.051 560.298C377.725 560.17 375.432 560.881 373.604 562.298C371.776 563.715 370.541 565.739 370.13 567.988C369.72 570.237 370.163 572.556 371.377 574.507L371.622 574.894L370.668 578.368L374.223 577.433Z" fill="white"/>
<path fill-rule="evenodd" clip-rule="evenodd" d="M383.662 571.367C383.432 571.185 383.163 571.057 382.875 570.992C382.587 570.928 382.288 570.928 382 570.993C381.564 571.167 381.278 571.835 381.006 572.169C380.948 572.253 380.859 572.312 380.758 572.334C380.657 572.357 380.551 572.34 380.461 572.289C378.874 571.676 377.545 570.556 376.688 569.109C376.646 569.069 376.613 569.022 376.59 568.969C376.567 568.916 376.556 568.859 376.556 568.802C376.556 568.745 376.567 568.688 376.59 568.635C376.613 568.582 376.646 568.535 376.688 568.495C377.01 568.195 377.245 567.817 377.369 567.399C377.409 566.934 377.305 566.469 377.07 566.063C376.886 565.502 376.546 565.002 376.089 564.62C375.853 564.518 375.591 564.484 375.336 564.521C375.08 564.559 374.841 564.668 374.645 564.834C374.312 565.116 374.047 565.467 373.87 565.863C373.693 566.258 373.609 566.687 373.624 567.119C373.621 567.367 373.653 567.614 373.719 567.853C373.875 568.419 374.114 568.959 374.427 569.457C374.652 569.835 374.897 570.201 375.163 570.552C376.034 571.724 377.125 572.721 378.377 573.491C379.008 573.871 379.679 574.18 380.379 574.413C381.107 574.742 381.912 574.871 382.708 574.787C383.164 574.717 383.596 574.539 383.966 574.269C384.336 574 384.633 573.645 384.833 573.238C384.939 572.989 384.972 572.716 384.928 572.449C384.86 571.942 384.084 571.621 383.662 571.367Z" fill="white"/>
<path fill-rule="evenodd" clip-rule="evenodd" d="M270.643 573.959C270.202 573.614 269.688 573.372 269.139 573.249C268.589 573.127 268.019 573.127 267.47 573.251C266.652 573.585 266.108 574.854 265.59 575.495C265.477 575.649 265.311 575.757 265.123 575.799C264.935 575.841 264.738 575.814 264.569 575.723C261.55 574.562 259.02 572.433 257.391 569.684C257.248 569.513 257.18 569.294 257.2 569.074C257.22 568.854 257.328 568.651 257.5 568.508C258.13 567.941 258.6 567.223 258.862 566.424C258.906 565.567 258.703 564.715 258.276 563.966C257.926 562.923 257.284 561.997 256.424 561.294C255.979 561.094 255.485 561.026 255.001 561.097C254.517 561.168 254.065 561.376 253.7 561.695C253.064 562.228 252.56 562.896 252.225 563.648C251.89 564.4 251.733 565.217 251.766 566.037C251.769 566.486 251.823 566.935 251.929 567.373C252.232 568.447 252.691 569.472 253.291 570.419C253.704 571.142 254.159 571.843 254.653 572.516C256.301 574.739 258.373 576.627 260.755 578.074C261.946 578.81 263.222 579.406 264.555 579.851C265.941 580.464 267.469 580.704 268.981 580.545C269.842 580.407 270.656 580.067 271.355 579.556C272.055 579.045 272.618 578.376 272.999 577.606C273.218 577.139 273.285 576.616 273.19 576.11C272.918 575.068 271.501 574.48 270.643 573.959Z" fill="white"/>
<path d="M443.658 563.912C443.389 563.912 443.125 563.991 442.901 564.137C442.677 564.284 442.503 564.493 442.4 564.737C442.296 564.981 442.27 565.25 442.322 565.509C442.375 565.768 442.504 566.006 442.695 566.193C442.885 566.38 443.128 566.507 443.392 566.559C443.656 566.61 443.93 566.584 444.179 566.483C444.428 566.381 444.641 566.21 444.79 565.99C444.94 565.771 445.02 565.512 445.02 565.248C445.02 564.894 444.876 564.554 444.621 564.304C444.366 564.053 444.019 563.912 443.658 563.912Z" fill="white"/>
<path d="M437.611 565.235C436.482 565.235 435.379 565.563 434.44 566.178C433.502 566.793 432.77 567.668 432.338 568.691C431.906 569.713 431.793 570.839 432.014 571.925C432.234 573.011 432.777 574.008 433.575 574.791C434.373 575.574 435.39 576.107 436.497 576.323C437.604 576.539 438.752 576.428 439.795 576.004C440.837 575.581 441.729 574.863 442.356 573.943C442.983 573.022 443.317 571.94 443.317 570.833C443.314 569.349 442.711 567.927 441.642 566.878C440.573 565.829 439.123 565.238 437.611 565.235ZM437.611 574.413C436.885 574.413 436.177 574.202 435.574 573.807C434.971 573.411 434.501 572.849 434.224 572.192C433.948 571.534 433.876 570.811 434.018 570.113C434.161 569.416 434.511 568.775 435.025 568.273C435.539 567.771 436.193 567.43 436.904 567.293C437.616 567.156 438.353 567.229 439.022 567.503C439.691 567.777 440.263 568.24 440.664 568.832C441.065 569.425 441.277 570.121 441.274 570.833C441.283 571.31 441.195 571.784 441.015 572.227C440.835 572.67 440.566 573.073 440.225 573.413C439.884 573.752 439.477 574.022 439.028 574.205C438.579 574.388 438.097 574.482 437.611 574.48V574.413Z" fill="white"/>
<path d="M442.146 582.59H432.898C431.05 582.586 429.278 581.864 427.971 580.582C426.664 579.3 425.928 577.562 425.925 575.749V566.678C425.928 564.866 426.665 563.13 427.972 561.85C429.279 560.57 431.051 559.851 432.898 559.851H442.146C443.06 559.851 443.965 560.027 444.81 560.371C445.654 560.714 446.421 561.216 447.067 561.85C447.714 562.484 448.226 563.237 448.576 564.065C448.926 564.894 449.106 565.781 449.106 566.678V575.816C449.088 577.616 448.347 579.337 447.044 580.605C445.741 581.873 443.981 582.586 442.146 582.59ZM432.898 561.988C431.629 561.988 430.412 562.482 429.513 563.361C428.614 564.24 428.107 565.433 428.104 566.678V575.816C428.107 577.061 428.614 578.254 429.513 579.133C430.412 580.012 431.629 580.505 432.898 580.505H442.146C443.414 580.505 444.63 580.011 445.527 579.132C446.423 578.252 446.927 577.06 446.927 575.816V566.745C446.927 565.501 446.423 564.308 445.527 563.429C444.63 562.549 443.414 562.055 442.146 562.055L432.898 561.988Z" fill="white"/>
<path d="M310.127 581.908C309.99 581.909 309.854 581.882 309.727 581.829C309.601 581.776 309.487 581.699 309.392 581.601C309.203 581.409 309.097 581.153 309.097 580.886C309.097 580.619 309.203 580.363 309.392 580.171L314.922 574.747C313.481 572.96 312.755 570.717 312.88 568.442C313.006 566.166 313.974 564.014 315.603 562.389C316.702 561.312 318.055 560.517 319.542 560.075C321.03 559.633 322.605 559.558 324.129 559.856C325.653 560.153 327.078 560.815 328.28 561.782C329.481 562.749 330.42 563.992 331.015 565.4C331.61 566.808 331.842 568.338 331.69 569.855C331.538 571.372 331.007 572.829 330.144 574.097C329.282 575.364 328.114 576.404 326.744 577.123C325.374 577.843 323.844 578.22 322.29 578.221C320.14 578.234 318.051 577.517 316.379 576.19L310.849 581.601C310.757 581.698 310.645 581.776 310.521 581.829C310.397 581.882 310.263 581.909 310.127 581.908ZM322.29 561.708C320.385 561.788 318.586 562.587 317.267 563.937C315.948 565.288 315.212 567.085 315.212 568.956C315.212 570.826 315.948 572.624 317.267 573.974C318.586 575.325 320.385 576.123 322.29 576.203C323.287 576.245 324.282 576.089 325.216 575.744C326.15 575.398 327.003 574.871 327.724 574.194C328.444 573.517 329.018 572.704 329.409 571.804C329.801 570.903 330.003 569.934 330.003 568.956C330.003 567.977 329.801 567.008 329.409 566.108C329.018 565.207 328.444 564.394 327.724 563.717C327.003 563.04 326.15 562.513 325.216 562.167C324.282 561.822 323.287 561.666 322.29 561.708Z" fill="white"/>
<path d="M352.54 258.222C352.54 258.409 330.748 258.569 303.808 258.569C276.867 258.569 255.062 258.409 255.062 258.222C255.062 258.035 276.854 257.861 303.808 257.861C330.762 257.861 352.54 258.022 352.54 258.222Z" fill="#263238"/>
<path d="M322.44 471.782C323.461 471.338 324.328 470.611 324.933 469.69C325.538 468.769 325.855 467.694 325.845 466.598C325.882 465.885 325.77 465.173 325.517 464.504C325.264 463.835 324.876 463.223 324.374 462.706C323.873 462.189 323.27 461.777 322.601 461.496C321.933 461.214 321.213 461.069 320.485 461.069C319.758 461.069 319.038 461.214 318.37 461.496C317.701 461.777 317.098 462.189 316.597 462.706C316.095 463.223 315.706 463.835 315.454 464.504C315.201 465.173 315.089 465.885 315.126 466.598C315.1 467.705 315.412 468.795 316.021 469.728C316.63 470.661 317.509 471.394 318.545 471.835C310.291 473.051 310.672 481.842 310.672 481.842L330.162 481.935C330.162 481.935 330.612 472.944 322.44 471.782Z" fill="white"/>
<path d="M393.618 478.916C394.087 477.777 394.215 476.531 393.985 475.324C393.756 474.117 393.18 472.999 392.324 472.102C391.456 471.129 390.335 470.405 389.081 470.008C387.826 469.61 386.485 469.554 385.201 469.844C384.854 467.956 383.81 466.259 382.269 465.076C380.728 463.894 378.798 463.309 376.846 463.432C374.893 463.556 373.056 464.38 371.683 465.748C370.31 467.115 369.498 468.93 369.402 470.846C368.522 470.988 367.685 471.321 366.954 471.822C366.223 472.323 365.617 472.978 365.179 473.74C364.741 474.502 364.483 475.351 364.424 476.223C364.365 477.096 364.507 477.971 364.839 478.782L393.618 478.916Z" fill="white"/>
<path d="M440.389 479.063C440.389 479.433 440.277 479.796 440.067 480.103C439.857 480.411 439.558 480.651 439.209 480.792C438.86 480.933 438.476 480.97 438.105 480.896C437.735 480.823 437.395 480.644 437.129 480.381C436.863 480.118 436.683 479.783 436.61 479.42C436.538 479.056 436.578 478.679 436.725 478.338C436.871 477.996 437.117 477.705 437.433 477.501C437.748 477.297 438.118 477.19 438.496 477.192C438.999 477.196 439.481 477.395 439.835 477.745C440.19 478.095 440.389 478.569 440.389 479.063Z" fill="white"/>
<path d="M434.696 476.671C435.18 476.162 435.765 475.754 436.415 475.472C437.064 475.19 437.765 475.04 438.476 475.031C439.186 475.023 439.891 475.155 440.547 475.421C441.204 475.687 441.799 476.08 442.296 476.578C443.277 477.526 444.788 476.057 443.821 475.108C443.125 474.417 442.295 473.87 441.38 473.498C440.465 473.127 439.483 472.94 438.492 472.947C437.502 472.955 436.523 473.157 435.614 473.542C434.704 473.927 433.883 474.487 433.198 475.188C432.258 476.164 433.756 477.647 434.696 476.671Z" fill="white"/>
<path d="M428.254 468.014C431.042 465.51 434.662 464.086 438.441 464.006C442.28 463.968 445.99 465.363 448.82 467.907C449.828 468.829 451.34 467.36 450.345 466.438C447.111 463.505 442.86 461.89 438.455 461.922C434.114 462.002 429.953 463.637 426.755 466.518C425.72 467.4 427.219 468.883 428.254 468.001V468.014Z" fill="white"/>
<path d="M430.801 472.81C431.764 471.76 432.938 470.916 434.249 470.331C435.56 469.747 436.981 469.435 438.421 469.415C439.861 469.395 441.29 469.667 442.618 470.215C443.946 470.762 445.144 471.573 446.137 472.597C447.09 473.572 448.602 472.089 447.649 471.127C446.461 469.905 445.03 468.937 443.444 468.281C441.858 467.625 440.152 467.296 438.431 467.315C436.71 467.334 435.012 467.7 433.441 468.39C431.871 469.08 430.462 470.08 429.302 471.327C428.363 472.316 429.861 473.799 430.801 472.81Z" fill="white"/>
<path d="M160.716 594.003L160.239 621.912C160.239 621.912 188.923 631.758 189.345 636.915L134.266 637.904L133.245 594.497L160.716 594.003Z" fill="#274362"/>
<path d="M143.173 619.814C142.647 619.981 142.202 620.332 141.923 620.8C141.644 621.269 141.551 621.821 141.662 622.353C141.815 622.875 142.165 623.32 142.64 623.598C143.116 623.875 143.682 623.965 144.222 623.849C144.77 623.666 145.232 623.295 145.522 622.803C145.813 622.312 145.912 621.735 145.802 621.177C145.586 620.65 145.171 620.225 144.643 619.991C144.115 619.757 143.515 619.732 142.969 619.921" fill="#E0E0E0"/>
<path d="M134.266 637.837L134.348 633.455L187.112 634.15C187.112 634.15 189.59 635.152 189.345 636.822L134.266 637.837Z" fill="#263238"/>
<path d="M161.125 621.551C161.125 621.818 159.763 621.965 158.401 622.887C157.039 623.809 156.412 624.878 156.167 624.784C155.922 624.691 156.29 623.154 157.897 622.112C159.504 621.07 161.179 621.311 161.125 621.551Z" fill="#263238"/>
<path d="M166.954 623.796C166.954 624.05 165.851 624.517 164.965 625.653C164.08 626.788 163.835 627.964 163.603 627.964C163.372 627.964 163.14 626.468 164.271 625.078C165.401 623.689 166.94 623.542 166.954 623.796Z" fill="#263238"/>
<path d="M170.359 630.516C170.114 630.583 169.705 629.273 170.359 627.844C171.013 626.414 172.266 625.786 172.388 626C172.511 626.214 171.748 627.002 171.217 628.205C170.686 629.407 170.618 630.489 170.359 630.516Z" fill="#263238"/>
<path d="M160.525 615.232C160.416 615.473 159.163 615.125 157.652 615.232C156.14 615.339 154.928 615.847 154.819 615.62C154.71 615.392 155.799 614.444 157.543 614.284C159.286 614.123 160.716 614.992 160.525 615.232Z" fill="#263238"/>
<path d="M128.723 579.16L109.028 599.2C109.028 599.2 123.179 625.573 119.924 629.634L78.9278 593.562L108.32 561.084L128.723 579.16Z" fill="#274362"/>
<path d="M97.9415 586.308C97.4393 586.077 96.868 586.037 96.3376 586.195C95.8071 586.353 95.3548 586.698 95.0676 587.163C94.8185 587.648 94.7671 588.208 94.924 588.729C95.0808 589.25 95.4341 589.693 95.9121 589.968C96.4457 590.205 97.0493 590.242 97.6089 590.072C98.1685 589.902 98.6453 589.538 98.9493 589.046C99.1585 588.514 99.149 587.923 98.923 587.397C98.6969 586.871 98.2718 586.452 97.7372 586.227" fill="#E0E0E0"/>
<path d="M78.9143 593.562L82.006 590.396L120.142 626.174C120.142 626.174 121.218 628.592 119.856 629.634L78.9143 593.562Z" fill="#263238"/>
<path d="M109.873 599.587C109.696 599.774 108.606 598.986 107.053 598.746C105.501 598.505 104.207 598.879 104.098 598.639C103.989 598.398 105.31 597.53 107.203 597.837C109.096 598.145 110.091 599.44 109.873 599.587Z" fill="#263238"/>
<path d="M112.583 605.119C112.46 605.346 111.221 604.918 109.859 605.119C108.497 605.319 107.421 606.054 107.23 605.867C107.04 605.68 107.925 604.464 109.723 604.21C111.521 603.956 112.746 604.918 112.583 605.119Z" fill="#263238"/>
<path d="M110.404 612.306C110.186 612.186 110.812 610.97 112.311 610.342C113.809 609.714 115.13 610.115 115.035 610.342C114.939 610.569 113.863 610.636 112.651 611.171C111.439 611.705 110.622 612.467 110.404 612.306Z" fill="#263238"/>
<path d="M113.85 594.524C113.604 594.631 112.937 593.549 111.739 592.627C110.54 591.705 109.328 591.291 109.382 591.024C109.437 590.757 110.921 590.81 112.311 591.919C113.7 593.028 114.095 594.457 113.85 594.524Z" fill="#263238"/>
<path d="M237.315 292.241L213.099 307.952L213.453 314.178L219.772 327.244C219.772 327.244 222.701 329.916 231.268 321.446C239.835 312.975 250.69 295.928 250.69 295.928L237.315 292.241Z" fill="#FFBE9D"/>
<path d="M278.08 259.562C277.937 259.255 277.717 258.988 277.441 258.787C277.165 258.586 276.841 258.458 276.5 258.413L264.637 256.85C264.12 256.792 263.597 256.839 263.1 256.988C262.604 257.138 262.144 257.386 261.749 257.718L227.781 286.322L229.32 287.792L242.068 290.811L278.311 260.083L278.08 259.562Z" fill="#263238"/>
<path d="M268.668 261.94C268.797 262.073 268.972 262.153 269.159 262.165C269.345 262.178 269.53 262.121 269.676 262.007C269.845 261.928 269.977 261.788 270.043 261.616C270.109 261.444 270.105 261.254 270.03 261.085C269.89 260.961 269.708 260.893 269.519 260.893C269.331 260.893 269.149 260.961 269.009 261.085C268.641 261.259 268.477 261.673 268.668 261.94Z" fill="white"/>
<path d="M278.311 260.083C277.532 260.093 276.753 260.039 275.982 259.923L269.676 259.188L265.318 258.654C264.957 258.587 264.586 258.6 264.23 258.69C263.875 258.78 263.544 258.945 263.261 259.175L261.327 260.831L252.637 268.166C246.468 273.35 240.856 278.026 236.77 281.379C234.782 282.982 233.134 284.305 231.894 285.32C231.313 285.807 230.699 286.253 230.055 286.656C230.558 286.081 231.115 285.554 231.717 285.08L236.43 280.965C240.434 277.518 245.964 272.802 252.174 267.605L260.891 260.31L262.866 258.68C263.214 258.403 263.62 258.202 264.055 258.094C264.49 257.986 264.944 257.971 265.386 258.052L269.744 258.667L276.037 259.616C276.805 259.721 277.564 259.878 278.311 260.083Z" fill="#455A64"/>
<path d="M265.985 266.068C265.985 266.068 264.895 265.547 263.411 268.433C261.926 271.319 257.391 279.535 257.391 279.535L252.324 274.779L244.588 273.684C244.588 273.684 242.531 274.712 243.498 275.835C244.465 276.957 248.946 279.094 248.946 279.094L251.017 284.959L242.436 277.491C242.436 277.491 238.868 277.491 239.276 279.682C239.685 281.873 244.629 290.036 244.629 290.036L239.726 288.286L234.795 283.116C234.795 283.116 232.943 282.688 233.188 284.452C233.433 286.215 238.05 293.376 238.05 293.376L244.52 299.014C244.52 299.014 248.715 299.829 249.437 298.747C249.988 297.907 250.445 297.011 250.799 296.075C250.799 296.075 253.141 296.075 253.85 295.18C254.339 294.362 254.646 293.451 254.749 292.508C254.749 292.508 257.99 294.031 258.957 292.281C259.92 290.042 260.5 287.664 260.673 285.24C260.741 283.704 266.353 270.865 266.326 270.424C266.298 269.983 268.314 265.774 265.985 266.068Z" fill="#FFBE9D"/>
<path d="M249.641 298.787C248.944 298.96 248.214 298.96 247.516 298.787C244.058 298.343 240.902 296.623 238.691 293.977C237.86 292.962 237.533 292.227 237.615 292.174C239.236 293.845 241.067 295.308 243.063 296.529C246.399 298.453 249.668 298.6 249.641 298.787Z" fill="#EB996E"/>
<path d="M248.62 295.661C248.456 295.794 247.326 294.752 246.236 293.216C245.146 291.68 244.52 290.277 244.711 290.17C244.901 290.063 245.814 291.265 246.89 292.762C247.966 294.258 248.797 295.514 248.62 295.661Z" fill="#EB996E"/>
<path d="M254.381 290.397C254.217 290.531 253.019 289.502 252.106 287.925C251.194 286.349 250.744 284.906 250.894 284.826C251.044 284.746 251.834 286.002 252.787 287.498C253.741 288.994 254.558 290.25 254.381 290.397Z" fill="#EB996E"/>
<path d="M259.992 286.429C259.433 285.341 258.977 284.205 258.63 283.036C258.08 281.953 257.624 280.827 257.268 279.669C257.432 279.535 258.63 280.791 259.434 282.742C260.03 283.877 260.226 285.173 259.992 286.429Z" fill="#EB996E"/>
<path d="M201.453 260.805C192.26 260.484 172.851 234.312 173.015 225.28L173.737 170.945C173.451 156.343 181.909 144.011 196.768 144.145L198.13 144.239C204.804 144.675 211.065 147.561 215.666 152.322C220.267 157.083 222.871 163.37 222.959 169.93C223.136 182.595 223.164 196.583 222.619 203.33C221.475 217.304 207.078 218.534 207.078 218.534C207.078 218.534 206.942 221.78 206.847 225.895C206.615 235.127 210.293 261.072 200.881 260.751L201.453 260.805Z" fill="#FFBE9D"/>
<path d="M207.092 218.534C200.507 218.089 194.191 215.798 188.896 211.934C188.896 211.934 192.641 222.742 206.956 222.421L207.092 218.534Z" fill="#EB996E"/>
<path d="M218.152 181.406C218.123 181.927 217.888 182.416 217.495 182.769C217.103 183.121 216.586 183.308 216.054 183.29C215.794 183.29 215.536 183.239 215.295 183.141C215.055 183.043 214.836 182.899 214.653 182.718C214.469 182.536 214.324 182.321 214.226 182.085C214.127 181.848 214.077 181.595 214.079 181.339C214.111 180.82 214.347 180.332 214.739 179.981C215.13 179.629 215.646 179.441 216.177 179.456C216.438 179.452 216.698 179.5 216.94 179.597C217.182 179.694 217.402 179.837 217.586 180.02C217.771 180.202 217.916 180.418 218.013 180.656C218.11 180.895 218.157 181.15 218.152 181.406Z" fill="#263238"/>
<path d="M219.527 175.915C219.255 176.156 217.784 174.927 215.605 174.793C213.425 174.659 211.723 175.621 211.519 175.341C211.314 175.06 211.709 174.766 212.431 174.312C213.424 173.732 214.575 173.466 215.727 173.55C216.869 173.618 217.957 174.044 218.833 174.766C219.459 175.314 219.663 175.808 219.527 175.915Z" fill="#263238"/>
<path d="M198.103 181.032C198.075 181.553 197.839 182.042 197.447 182.395C197.055 182.747 196.537 182.934 196.005 182.916C195.746 182.918 195.488 182.869 195.248 182.772C195.007 182.675 194.789 182.533 194.605 182.352C194.421 182.172 194.276 181.958 194.177 181.722C194.079 181.486 194.029 181.233 194.031 180.979C194.038 180.715 194.097 180.456 194.207 180.216C194.316 179.975 194.472 179.758 194.667 179.577C194.862 179.396 195.091 179.254 195.342 179.16C195.593 179.066 195.86 179.021 196.128 179.028C196.394 179.024 196.659 179.074 196.905 179.174C197.15 179.274 197.373 179.423 197.558 179.61C197.743 179.798 197.887 180.021 197.981 180.266C198.074 180.51 198.116 180.771 198.103 181.032Z" fill="#263238"/>
<path d="M198.021 174.993C197.749 175.234 196.278 174.018 194.085 173.871C191.892 173.724 190.217 174.699 189.999 174.432C189.781 174.165 190.176 173.844 190.912 173.39C191.906 172.815 193.056 172.549 194.208 172.629C195.347 172.705 196.433 173.13 197.313 173.844C197.953 174.352 198.144 174.886 198.021 174.993Z" fill="#263238"/>
<path d="M204.75 192.027C205.925 191.739 207.134 191.604 208.345 191.627C208.904 191.627 209.448 191.533 209.571 191.159C209.65 190.597 209.555 190.024 209.299 189.516L207.937 185.227C206.043 179.122 204.722 174.125 204.967 174.058C205.213 173.991 206.956 178.868 208.849 184.96C209.299 186.47 209.734 187.899 210.143 189.275C210.444 189.964 210.492 190.733 210.279 191.453C210.188 191.641 210.052 191.805 209.885 191.933C209.717 192.06 209.521 192.148 209.312 192.188C208.994 192.247 208.669 192.27 208.345 192.254C207.142 192.326 205.934 192.25 204.75 192.027Z" fill="#263238"/>
<path d="M198.375 166.951C198.035 167.472 195.951 166.764 193.363 166.536C190.775 166.309 188.596 166.536 188.378 165.975C188.283 165.695 188.746 165.241 189.74 164.853C190.98 164.387 192.316 164.218 193.636 164.359C194.961 164.475 196.239 164.896 197.367 165.588C198.157 166.149 198.525 166.697 198.375 166.951Z" fill="#263238"/>
<path d="M219.35 170.852C218.873 171.319 217.116 170.718 214.964 170.584C212.813 170.451 210.987 170.705 210.592 170.17C210.429 169.916 210.729 169.449 211.559 169.021C212.686 168.507 213.931 168.294 215.169 168.407C216.403 168.485 217.593 168.887 218.615 169.569C219.35 170.104 219.568 170.625 219.35 170.852Z" fill="#263238"/>
<path d="M174.186 181.379C173.955 181.259 164.652 177.892 164.244 187.472C163.835 197.051 173.778 195.488 173.778 195.14C173.778 194.793 174.186 181.379 174.186 181.379Z" fill="#FFBE9D"/>
<path d="M170.945 191.413C170.945 191.413 170.768 191.52 170.482 191.64C170.075 191.801 169.621 191.801 169.215 191.64C168.596 191.225 168.101 190.657 167.78 189.992C167.459 189.328 167.325 188.591 167.39 187.859C167.4 187.039 167.596 186.231 167.962 185.494C168.067 185.193 168.247 184.923 168.484 184.706C168.722 184.489 169.01 184.333 169.324 184.252C169.52 184.211 169.725 184.237 169.904 184.328C170.083 184.418 170.224 184.565 170.305 184.746C170.427 185.013 170.305 185.214 170.413 185.227C170.522 185.24 170.631 185.067 170.563 184.679C170.525 184.436 170.394 184.216 170.196 184.065C170.069 183.959 169.921 183.879 169.762 183.831C169.603 183.783 169.435 183.767 169.269 183.784C168.866 183.849 168.486 184.014 168.166 184.265C167.846 184.515 167.598 184.842 167.444 185.214C166.99 186.034 166.752 186.952 166.75 187.886C166.75 189.823 167.689 191.653 169.092 192.107C169.352 192.19 169.628 192.215 169.899 192.181C170.169 192.146 170.429 192.052 170.659 191.907C170.917 191.64 170.986 191.426 170.945 191.413Z" fill="#EB996E"/>
<path d="M198.689 193.056C198.552 193.056 198.457 193.59 198.689 194.392C198.93 195.496 199.521 196.497 200.377 197.251C201.2 197.979 202.151 198.554 203.183 198.948C203.96 199.242 204.463 199.335 204.545 199.215C204.627 199.095 204.205 198.761 203.537 198.307C202.678 197.773 201.863 197.175 201.099 196.516C199.274 194.993 199.002 192.963 198.689 193.056Z" fill="#263238"/>
<path d="M127.783 359.602L121.463 398.159L126.08 430.022L126.271 436.943L130.943 470.944C130.943 470.944 129.213 503.008 128.341 509.929C127.47 516.849 130.548 614.791 130.548 614.791L162.31 613.455C162.31 613.455 174.336 468.152 174.336 466.549C174.336 464.945 190.857 357.878 190.857 357.878L127.783 359.602Z" fill="#263238"/>
<path d="M208.073 365.547C208.073 365.547 207.433 496.034 204.463 503.583C201.494 511.131 118.058 592.24 118.058 592.24L91.6354 572.039L159.109 482.968L163.263 358.627L208.073 365.547Z" fill="#263238"/>
<path d="M185.927 399.668C186.104 399.668 182.154 432.641 177.101 473.255C172.048 513.87 167.812 546.735 167.567 546.735C167.322 546.735 171.34 513.776 176.393 473.148C181.446 432.521 185.736 399.642 185.927 399.668Z" fill="#455A64"/>
<path d="M130.943 470.944C130.958 471.05 130.958 471.158 130.943 471.265C130.943 471.505 130.943 471.826 130.943 472.2C130.943 473.082 130.793 474.284 130.684 475.82C130.412 478.96 130.112 483.516 129.771 489.18C129.131 500.429 128.586 515.981 128.723 533.162C128.859 550.342 129.376 565.92 129.676 577.25C129.812 582.834 129.921 587.376 130.003 590.61C130.003 592.146 130.003 593.362 130.003 594.243C130.003 594.618 130.003 594.938 130.003 595.179C130.009 595.285 130.009 595.392 130.003 595.499C129.989 595.393 129.989 595.285 130.003 595.179C130.003 594.938 130.003 594.631 130.003 594.243C130.003 593.362 129.908 592.159 129.839 590.623C129.717 587.416 129.54 582.874 129.308 577.263C128.9 566 128.273 550.436 128.164 533.242C128.055 516.047 128.641 500.47 129.404 489.154C129.812 483.529 130.18 478.987 130.52 475.86C130.684 474.324 130.806 473.122 130.902 472.24C130.902 471.866 130.997 471.559 131.024 471.305C130.985 471.187 130.957 471.067 130.943 470.944Z" fill="#455A64"/>
<path d="M163.059 396.903C163.14 397.063 157.352 400.056 150.147 403.583C142.942 407.11 137.017 409.835 136.935 409.675C136.854 409.515 142.642 406.535 149.847 402.995C157.052 399.455 162.977 396.743 163.059 396.903Z" fill="#455A64"/>
<path d="M227.032 295.928L242.981 309.996C242.981 309.996 218.015 336.716 210.293 342.661C202.57 348.607 212.758 302.301 212.758 302.301L227.032 295.928Z" fill="#274362"/>
<path d="M172.879 212.308L166.246 221.326L140.368 230.678L128.668 316.783L121.273 393.656C121.273 393.656 131.61 379.201 139.523 378.96C147.437 378.72 187.452 389.729 190.162 391.733L195.447 374.365L199.724 394.525C199.724 394.525 207.242 396.181 211.165 385.173L209.503 346.963C209.503 346.963 214.787 278.092 214.488 267.698C214.188 257.304 207.038 228.473 207.038 228.473L204.314 236.97L181.146 217.532L172.879 212.308Z" fill="#274362"/>
<path d="M147.886 228.073C147.886 228.073 130.929 228.073 125.44 258.801C119.951 289.529 112.079 322.648 116.138 335.073C120.197 347.498 136.2 383.049 136.2 383.049L157.992 375.326L149.03 319.388L159.395 264.612C159.395 264.612 160.716 230.317 147.886 228.073Z" fill="#274362"/>
<path d="M167.39 387.684C167.39 387.684 156.971 375.66 156.181 375.954L138.924 382.073C138.548 386.436 138.589 390.824 139.047 395.179C139.714 401.445 140.817 408.165 140.817 408.165L163.576 396.262C164.08 398.739 164.823 401.164 165.796 403.503C167.063 406.175 171.449 403.356 171.449 403.356L167.39 387.684Z" fill="#FFBE9D"/>
<path d="M159.354 264.652C159.354 264.652 159.354 264.986 159.218 265.628C159.082 266.269 158.932 267.257 158.7 268.5C158.237 271.025 157.57 274.726 156.698 279.455C154.928 288.967 152.367 302.648 149.234 319.442V319.348C151.809 335.273 154.887 354.365 158.264 375.273V375.527L158.019 375.62L136.227 383.342L135.941 383.449L135.819 383.169L128.872 367.377C124.705 357.691 120.7 348.232 117.146 338.907C116.696 337.745 116.301 336.569 115.906 335.407C115.702 334.819 115.593 334.191 115.43 333.603C115.264 333.004 115.15 332.391 115.089 331.773C114.906 330.565 114.797 329.347 114.762 328.126C114.762 326.923 114.667 325.707 114.762 324.518C114.905 319.842 115.309 315.177 115.974 310.544C117.173 301.499 118.807 292.989 120.292 285.013C121.776 277.037 123.22 269.636 124.5 262.862C125.1 259.469 125.781 256.249 126.475 253.216C126.911 251.72 127.333 250.264 127.756 248.861C128.178 247.458 128.777 246.189 129.267 244.853C131.001 240.45 133.67 236.46 137.099 233.149C139.285 231.077 141.92 229.515 144.808 228.58C145.56 228.355 146.33 228.189 147.11 228.086H147.709H147.913L147.123 228.179C146.352 228.306 145.592 228.489 144.849 228.727C142.007 229.706 139.421 231.289 137.276 233.363C133.908 236.67 131.295 240.641 129.608 245.013C129.131 246.349 128.6 247.605 128.123 249.021C127.647 250.437 127.306 251.867 126.87 253.35C126.203 256.382 125.508 259.575 124.964 262.982C123.697 269.769 122.24 277.184 120.878 285.16C119.516 293.136 117.731 301.606 116.546 310.624C115.891 315.235 115.496 319.878 115.361 324.532C115.361 325.721 115.361 326.91 115.361 328.099C115.403 329.302 115.512 330.502 115.688 331.693C115.748 332.289 115.862 332.88 116.029 333.456C116.179 334.044 116.288 334.632 116.478 335.206C116.887 336.369 117.282 337.531 117.718 338.693C121.218 347.979 125.277 357.397 129.458 367.123C131.828 372.467 134.171 377.811 136.391 382.915L135.982 382.741L157.774 375.033L157.57 375.367C154.247 354.445 151.209 335.367 148.676 319.428V319.348C151.89 302.581 154.519 288.901 156.358 279.402C157.27 274.686 157.992 270.998 158.496 268.473C158.741 267.231 158.932 266.282 159.068 265.614C159.204 264.946 159.354 264.652 159.354 264.652Z" fill="#263238"/>
<path d="M204.409 236.97C204.293 237.373 204.124 237.76 203.905 238.119L202.325 241.232L196.618 252.054L196.4 252.481L196.114 252.094C194.085 249.355 191.742 246.403 189.182 243.383C184.892 238.323 180.308 233.51 175.453 228.968C173.601 227.218 172.062 225.841 170.999 224.88C170.421 224.412 169.88 223.903 169.378 223.357C170.01 223.752 170.607 224.199 171.163 224.693C172.279 225.588 173.887 226.924 175.766 228.634C180.732 233.097 185.383 237.886 189.686 242.969C192.26 246.002 194.589 248.981 196.591 251.747H196.087C198.471 247.445 200.5 243.731 201.998 241.059L203.742 238.026C203.932 237.656 204.156 237.303 204.409 236.97Z" fill="#263238"/>
<path d="M210.129 241.566C210.361 241.486 211.491 245.401 210.674 250.611L210.524 251.533L210.075 250.691C209.83 250.237 209.585 249.769 209.353 249.275C208.114 246.603 207.46 243.931 206.779 242.207C206.098 240.484 205.58 239.348 205.676 239.308C206.333 240.109 206.848 241.012 207.201 241.98C208.005 243.757 208.74 246.322 209.925 248.954C210.157 249.435 210.388 249.889 210.62 250.29L210.02 250.37C210.364 248.282 210.47 246.162 210.334 244.051C210.293 242.488 210.061 241.593 210.129 241.566Z" fill="#263238"/>
<path d="M205.526 241.419C205.547 241.53 205.547 241.643 205.526 241.753C205.526 242.02 205.526 242.354 205.526 242.769C205.526 243.664 205.526 244.973 205.526 246.656C205.526 250.036 205.335 254.913 204.995 260.938C204.341 272.962 202.843 289.609 201.304 307.952C199.765 326.295 198.266 342.875 197.218 354.939C196.673 360.911 196.223 365.761 195.856 369.168C195.692 370.811 195.556 372.107 195.461 373.029C195.461 373.438 195.42 373.772 195.338 374.031C195.352 374.146 195.352 374.263 195.338 374.378C195.32 374.263 195.32 374.146 195.338 374.031C195.338 373.763 195.338 373.429 195.338 373.029C195.338 372.093 195.501 370.797 195.61 369.141C195.883 365.734 196.251 360.871 196.727 354.899C197.722 342.875 199.097 326.228 200.623 307.899C202.148 289.569 203.742 272.949 204.504 260.911C204.899 254.899 205.117 250.023 205.24 246.656C205.308 245 205.349 243.704 205.39 242.769C205.39 242.354 205.39 242.02 205.39 241.753C205.415 241.635 205.461 241.522 205.526 241.419Z" fill="#263238"/>
<path d="M214.678 271.346C214.856 271.346 213.889 288.393 212.499 309.368C211.11 330.343 209.775 347.364 209.666 347.351C209.557 347.337 210.456 330.317 211.846 309.328C213.235 288.34 214.501 271.332 214.678 271.346Z" fill="#263238"/>
<path d="M163.631 250.758C163.508 250.758 163.508 249.221 162.882 246.857C162.094 243.768 160.531 240.921 158.335 238.576C156.14 236.231 153.381 234.462 150.31 233.43C147.968 232.615 146.401 232.495 146.415 232.374C146.78 232.31 147.153 232.31 147.518 232.374C148.515 232.489 149.5 232.69 150.46 232.976C153.666 233.929 156.553 235.709 158.819 238.129C161.085 240.55 162.648 243.522 163.345 246.736C163.553 247.699 163.672 248.679 163.699 249.662C163.741 250.029 163.718 250.399 163.631 250.758Z" fill="#263238"/>
<g opacity="0.3">
<path d="M210.565 342.167C215.305 329.4 216.138 315.553 212.962 302.327C212.104 315.687 211.382 329.047 210.524 342.407" fill="black"/>
</g>
<g opacity="0.3">
<path d="M158.482 269.422C152.885 297.945 148.335 324.999 148.948 321.259L157.992 375.326L163.304 383.049C158.659 346.763 154.846 305.561 158.482 269.422Z" fill="black"/>
</g>
<path d="M233.147 153.617C233.083 152.693 232.784 151.799 232.278 151.017C231.771 150.235 231.072 149.591 230.246 149.142C230.294 148.608 230.294 148.072 230.246 147.538C230.008 145.927 229.214 144.444 227.998 143.335C226.781 142.227 225.215 141.561 223.559 141.446C223.378 140.198 222.854 139.022 222.042 138.046C221.23 137.069 220.161 136.328 218.952 135.903C217.742 135.478 216.437 135.385 215.177 135.635C213.918 135.884 212.752 136.466 211.805 137.318C210.649 136.204 209.19 135.439 207.603 135.117C206.016 134.795 204.368 134.928 202.856 135.501C202.47 135.624 202.129 135.857 201.876 136.169C201.801 136.278 201.75 136.4 201.724 136.528C201.699 136.657 201.699 136.789 201.726 136.917C201.314 136.182 200.728 135.555 200.017 135.09C199.305 134.625 198.49 134.335 197.64 134.245C197.061 134.185 196.475 134.225 195.91 134.366C194.372 134.411 192.91 135.032 191.824 136.102C189.89 135.348 187.741 135.314 185.783 136.008C183.826 136.703 182.195 138.076 181.2 139.87C179.595 139.881 178.028 140.355 176.696 141.235C175.364 142.114 174.325 143.358 173.709 144.813C172.675 144.841 171.665 145.128 170.776 145.647C169.886 146.166 169.147 146.9 168.629 147.779C168.133 148.668 167.88 149.668 167.894 150.682C167.909 151.696 168.19 152.688 168.711 153.564C168.711 153.564 161.751 154.619 163.1 160.738C163.794 163.864 168.016 163.624 168.016 163.624L171.884 183.357C171.803 183.437 172.96 185.802 174.173 185.387C175.324 184.822 176.274 183.928 176.897 182.822C177.857 181.732 178.638 180.501 179.212 179.175C179.482 178.504 179.523 177.765 179.329 177.069C179.135 176.373 178.716 175.757 178.136 175.314C178.984 175.036 179.743 174.544 180.336 173.887C180.929 173.231 181.335 172.433 181.514 171.573C181.857 169.85 181.88 168.08 181.582 166.349C181.309 163.784 181.028 161.219 180.737 158.654C182.519 158.712 184.284 158.29 185.839 157.436C187.395 156.581 188.683 155.325 189.563 153.804C190.177 154.292 190.89 154.646 191.654 154.844C192.418 155.042 193.216 155.08 193.996 154.953C194.775 154.827 195.519 154.541 196.178 154.112C196.836 153.684 197.395 153.124 197.817 152.468C198.331 154.211 199.499 155.699 201.086 156.631C202.673 157.563 204.561 157.871 206.37 157.492C205.839 159.456 209.339 161.5 211.287 162.208C212.824 162.513 214.42 162.321 215.836 161.66C217.008 162.44 218.314 163.006 219.691 163.33H219.909C222.633 163.784 225.52 161.513 227.032 159.215C227.733 159.355 228.455 159.355 229.157 159.215C230.363 158.853 231.412 158.105 232.135 157.091C232.858 156.076 233.215 154.853 233.147 153.617Z" fill="#263238"/>
<path d="M153.593 297.13C153.593 297.224 151.768 296.396 148.826 295.22C145.007 293.655 141.095 292.317 137.113 291.212C133.131 290.141 129.087 289.302 125.004 288.7C121.858 288.233 119.897 288.046 119.911 287.925C120.363 287.87 120.82 287.87 121.273 287.925C122.171 287.925 123.452 288.046 125.045 288.219C133.327 289.156 141.409 291.351 149.003 294.726C150.447 295.38 151.604 295.941 152.394 296.369C153.184 296.796 153.62 297.077 153.593 297.13Z" fill="white"/>
<path d="M141.158 380.711C141.084 380.602 141.025 380.486 140.981 380.363L140.545 379.321L138.91 375.313C137.548 371.786 135.519 366.669 133.326 360.27C130.68 352.784 128.582 345.123 127.047 337.344C126.153 332.715 125.571 328.033 125.304 323.329C125.054 318.298 125.195 313.256 125.726 308.246C126.898 298.604 128.718 289.049 131.174 279.642C133.285 270.945 135.356 263.156 137.194 256.636C139.033 250.117 140.613 244.879 141.743 241.259C142.315 239.495 142.751 238.106 143.105 237.104L143.473 236.035C143.505 235.908 143.555 235.787 143.623 235.674C143.614 235.807 143.586 235.937 143.541 236.062L143.242 237.144C142.956 238.159 142.547 239.562 142.029 241.339C140.981 244.973 139.469 250.237 137.698 256.77C135.928 263.303 133.912 271.092 131.828 279.789C129.42 289.175 127.627 298.702 126.462 308.313C125.933 313.287 125.787 318.293 126.026 323.289C126.285 327.943 126.849 332.575 127.715 337.157C129.203 344.919 131.237 352.57 133.803 360.056C135.941 366.469 137.889 371.599 139.169 375.153C139.809 376.903 140.313 378.266 140.681 379.254L141.049 380.323C141.102 380.447 141.138 380.577 141.158 380.711Z" fill="white"/>
<path d="M151.386 340.524C151.386 340.524 151.019 340.764 150.31 341.071C149.602 341.379 148.54 341.78 147.232 342.234C143.803 343.407 140.294 344.344 136.731 345.039C133.171 345.724 129.567 346.17 125.944 346.375C124.582 346.442 123.424 346.456 122.648 346.442C122.242 346.477 121.832 346.445 121.436 346.349C122.914 346.104 124.406 345.947 125.903 345.881C128.627 345.614 132.455 345.16 136.595 344.358C140.736 343.556 144.427 342.554 147.082 341.766C148.494 341.278 149.93 340.863 151.386 340.524Z" fill="white"/>
<path d="M162.977 255.848C162.868 255.928 161.765 254.245 159.504 251.947C158.184 250.613 156.753 249.389 155.227 248.286C153.344 246.948 151.338 245.785 149.234 244.813C147.119 243.876 144.922 243.13 142.67 242.582C140.822 242.149 138.94 241.872 137.045 241.753C133.803 241.553 131.787 241.82 131.774 241.673C132.216 241.537 132.673 241.451 133.136 241.419C133.686 241.34 134.241 241.295 134.797 241.286C135.541 241.244 136.287 241.244 137.031 241.286C138.965 241.341 140.889 241.574 142.779 241.98C145.088 242.501 147.337 243.248 149.493 244.211C151.636 245.208 153.675 246.407 155.581 247.792C157.112 248.947 158.535 250.235 159.831 251.64C160.339 252.174 160.817 252.736 161.261 253.323C161.612 253.748 161.935 254.194 162.228 254.659C162.526 255.024 162.777 255.423 162.977 255.848Z" fill="white"/>
<path d="M174.636 385.44C174.624 385.293 174.624 385.146 174.636 384.999V383.743C174.636 382.581 174.636 380.951 174.636 378.88C174.636 374.618 174.785 368.526 174.881 361.018C175.167 345.894 175.548 325.08 175.984 302.1C176.188 290.584 176.352 279.629 175.984 269.662C175.807 264.692 175.48 259.963 175.044 255.554C174.71 251.467 174.031 247.414 173.015 243.437C172.155 240.164 170.777 237.044 168.929 234.191C167.543 232.038 165.809 230.12 163.794 228.513C162.513 227.503 161.114 226.647 159.626 225.962C158.591 225.507 158.019 225.334 158.033 225.294C158.597 225.429 159.149 225.613 159.681 225.841C161.213 226.467 162.652 227.294 163.958 228.3C166.034 229.893 167.829 231.812 169.269 233.978C171.163 236.858 172.579 240.014 173.464 243.33C174.527 247.325 175.242 251.401 175.603 255.514C176.066 259.936 176.406 264.666 176.611 269.649C177.019 279.629 176.869 290.611 176.611 302.114C176.093 325.106 175.644 345.921 175.249 361.045C175.058 368.553 174.894 374.632 174.772 378.894C174.772 380.978 174.649 382.594 174.608 383.757C174.608 384.278 174.608 384.692 174.608 385.012C174.631 385.154 174.641 385.297 174.636 385.44Z" fill="white"/>
<path d="M196.632 356.97C196.051 356.98 195.471 356.927 194.902 356.81C193.813 356.649 192.178 356.409 190.258 356.075C186.335 355.42 180.942 354.431 175.003 353.229C169.065 352.027 163.699 350.838 159.844 349.916C157.91 349.448 156.358 349.061 155.282 348.78C154.714 348.668 154.161 348.494 153.634 348.259C154.213 348.285 154.788 348.37 155.35 348.513L159.953 349.435L175.14 352.548L190.353 355.594L194.957 356.542C195.528 356.629 196.09 356.773 196.632 356.97Z" fill="white"/>
<path d="M200.323 309.061C200.323 309.248 189.427 308.607 175.902 307.618C162.378 306.629 151.509 305.667 151.523 305.48C151.536 305.293 162.419 305.935 175.957 306.923C189.495 307.912 200.337 308.874 200.323 309.061Z" fill="white"/>
<path d="M203.891 266.897C203.314 267.023 202.726 267.095 202.134 267.111C201.004 267.204 199.41 267.311 197.327 267.418C193.241 267.618 187.643 267.779 181.446 267.738C175.249 267.698 169.61 267.471 165.551 267.231C163.522 267.097 161.887 266.977 160.743 266.87C160.155 266.857 159.569 266.776 159 266.63C159.588 266.566 160.182 266.566 160.77 266.63L165.578 266.763C169.664 266.883 175.249 267.03 181.446 267.07C187.643 267.111 193.254 267.07 197.313 266.95L202.121 266.87C202.71 266.813 203.304 266.822 203.891 266.897Z" fill="white"/>
<path d="M174.894 227.511C173.834 227.854 172.745 228.104 171.639 228.26C169.023 228.799 166.437 229.468 163.889 230.264C160.907 231.212 158.278 232.268 156.398 233.069C155.409 233.591 154.38 234.038 153.32 234.405C154.192 233.713 155.154 233.138 156.181 232.695C161.028 230.272 166.237 228.618 171.612 227.792C172.69 227.563 173.793 227.469 174.894 227.511Z" fill="white"/>
<path d="M202.162 242.608C201.704 242.31 201.284 241.96 200.909 241.566L197.64 238.533C194.916 235.982 191.061 232.481 186.744 228.741C182.426 225 178.381 221.7 175.439 219.389L171.98 216.596C171.531 216.277 171.12 215.91 170.754 215.501C171.238 215.747 171.695 216.043 172.116 216.383C172.988 216.97 174.227 217.866 175.725 219.055C178.749 221.312 182.835 224.546 187.18 228.313C191.524 232.081 195.352 235.634 197.98 238.28C199.342 239.616 200.377 240.698 201.099 241.459C201.493 241.805 201.849 242.19 202.162 242.608Z" fill="white"/>
<path d="M193.241 228.193C192.059 229.985 190.69 231.651 189.155 233.163C187.761 234.819 186.196 236.328 184.483 237.665C185.651 235.864 187.022 234.196 188.569 232.695C189.954 231.031 191.52 229.522 193.241 228.193Z" fill="white"/>
<path d="M214.651 267.672C212.979 267.751 211.303 267.702 209.639 267.525C207.967 267.563 206.295 267.465 204.641 267.231C206.277 266.771 207.99 266.635 209.68 266.83C211.378 266.781 213.068 267.067 214.651 267.672Z" fill="white"/>
<path d="M211.437 312.241C209.757 312.543 208.044 312.619 206.343 312.468C204.636 312.548 202.925 312.39 201.263 312C202.942 311.698 204.656 311.621 206.357 311.773C208.064 311.695 209.774 311.852 211.437 312.241Z" fill="white"/>
<path d="M210.524 251.533C210.542 251.652 210.542 251.774 210.524 251.893V252.962C210.524 253.951 210.524 255.327 210.524 257.077C210.524 258.827 210.524 261.085 210.524 263.583C210.524 266.082 210.443 269.008 210.334 272.201C209.966 284.973 208.849 302.595 207.446 322.033C206.043 341.472 204.845 359.081 204.341 371.84C204.191 375.033 204.096 377.918 204.041 380.457C203.987 382.995 203.891 385.173 203.891 386.95C203.891 388.727 203.891 390.076 203.81 391.065C203.81 391.505 203.81 391.853 203.81 392.133C203.826 392.258 203.826 392.383 203.81 392.507C203.793 392.383 203.793 392.258 203.81 392.133C203.81 391.853 203.81 391.505 203.81 391.065C203.81 390.076 203.81 388.7 203.742 386.95C203.674 385.2 203.742 382.942 203.742 380.443C203.742 377.945 203.823 375.019 203.932 371.826C204.314 359.054 205.444 341.432 206.833 321.993C208.223 302.555 209.421 284.946 209.925 272.187C210.075 268.994 210.157 266.108 210.225 263.583C210.293 261.058 210.361 258.854 210.375 257.077C210.388 255.3 210.375 253.951 210.443 252.962V251.893C210.511 251.653 210.524 251.533 210.524 251.533Z" fill="white"/>
<path d="M209.857 356.783C207.777 357.516 205.621 358.022 203.428 358.293C201.282 358.801 199.085 359.079 196.877 359.121C198.962 358.403 201.116 357.897 203.306 357.611C205.454 357.111 207.65 356.833 209.857 356.783Z" fill="white"/>
<path d="M235.503 304.024C234.372 304.874 233.18 305.642 231.935 306.322C229.701 307.658 226.637 309.595 223.341 311.84C220.045 314.084 217.144 316.222 215.06 317.798C213.974 318.701 212.827 319.531 211.628 320.283C212.562 319.221 213.607 318.259 214.747 317.411C216.762 315.741 219.622 313.523 222.919 311.265C226.215 309.007 229.347 307.15 231.649 305.921C232.87 305.171 234.16 304.536 235.503 304.024Z" fill="white"/>
<path d="M231.159 321.953C230.433 320.993 229.799 319.969 229.266 318.894C228.149 316.97 226.542 314.338 224.785 311.492C223.028 308.647 221.23 306.148 219.963 304.291C219.218 303.342 218.558 302.332 217.988 301.272C218.88 302.074 219.68 302.97 220.372 303.944C221.734 305.694 223.559 308.192 225.384 311.065C227.209 313.937 228.707 316.623 229.701 318.613C230.312 319.67 230.801 320.79 231.159 321.953Z" fill="white"/>
<path d="M629.966 639.089C629.966 639.276 500.358 639.436 340.514 639.436C180.669 639.436 51.0341 639.276 51.0341 639.089C51.0341 638.902 180.615 638.742 340.514 638.742C500.412 638.742 629.966 638.902 629.966 639.089Z" fill="#263238"/>
<path d="M278.753 176.158C278.46 176.158 278.213 176.058 278.013 175.858C277.813 175.658 277.713 175.412 277.713 175.118V161.578C277.713 161.272 277.813 161.025 278.013 160.838C278.213 160.638 278.46 160.538 278.753 160.538H282.353C283.353 160.538 284.24 160.752 285.013 161.178C285.787 161.592 286.387 162.165 286.813 162.898C287.253 163.632 287.473 164.485 287.473 165.458C287.473 166.365 287.253 167.172 286.813 167.878C286.387 168.585 285.787 169.138 285.013 169.538C284.24 169.938 283.353 170.138 282.353 170.138H279.793V175.118C279.793 175.412 279.693 175.658 279.493 175.858C279.307 176.058 279.06 176.158 278.753 176.158ZM287.053 176.158C286.867 176.158 286.693 176.118 286.533 176.038C286.387 175.958 286.26 175.832 286.153 175.658L282.553 169.858L284.573 169.278L287.853 174.558C288.093 174.945 288.127 175.312 287.953 175.658C287.78 175.992 287.48 176.158 287.053 176.158ZM279.793 168.218H282.353C282.967 168.218 283.507 168.105 283.973 167.878C284.44 167.638 284.807 167.312 285.073 166.898C285.34 166.472 285.473 165.992 285.473 165.458C285.473 164.872 285.34 164.352 285.073 163.898C284.807 163.445 284.44 163.092 283.973 162.838C283.507 162.585 282.967 162.458 282.353 162.458H279.793V168.218ZM291.37 176.158C291.077 176.158 290.83 176.065 290.63 175.878C290.443 175.678 290.35 175.432 290.35 175.138V166.238C290.35 165.932 290.443 165.685 290.63 165.498C290.83 165.312 291.077 165.218 291.37 165.218C291.677 165.218 291.923 165.312 292.11 165.498C292.297 165.685 292.39 165.932 292.39 166.238V175.138C292.39 175.432 292.297 175.678 292.11 175.878C291.923 176.065 291.677 176.158 291.37 176.158ZM291.37 163.438C291.01 163.438 290.697 163.312 290.43 163.058C290.177 162.792 290.05 162.478 290.05 162.118C290.05 161.758 290.177 161.452 290.43 161.198C290.697 160.932 291.01 160.798 291.37 160.798C291.73 160.798 292.037 160.932 292.29 161.198C292.557 161.452 292.69 161.758 292.69 162.118C292.69 162.478 292.557 162.792 292.29 163.058C292.037 163.312 291.73 163.438 291.37 163.438ZM301.145 176.238C300.105 176.238 299.165 175.998 298.325 175.518C297.498 175.025 296.838 174.358 296.345 173.518C295.865 172.678 295.625 171.732 295.625 170.678C295.625 169.625 295.845 168.685 296.285 167.858C296.738 167.018 297.352 166.358 298.125 165.878C298.898 165.385 299.772 165.138 300.745 165.138C301.532 165.138 302.258 165.305 302.925 165.638C303.592 165.958 304.152 166.398 304.605 166.958V161.558C304.605 161.252 304.698 161.005 304.885 160.818C305.085 160.632 305.332 160.538 305.625 160.538C305.932 160.538 306.178 160.632 306.365 160.818C306.552 161.005 306.645 161.252 306.645 161.558V170.678C306.645 171.732 306.398 172.678 305.905 173.518C305.425 174.358 304.772 175.025 303.945 175.518C303.118 175.998 302.185 176.238 301.145 176.238ZM301.145 174.438C301.825 174.438 302.432 174.278 302.965 173.958C303.498 173.625 303.918 173.172 304.225 172.598C304.532 172.025 304.685 171.385 304.685 170.678C304.685 169.958 304.532 169.318 304.225 168.758C303.918 168.198 303.498 167.758 302.965 167.438C302.432 167.105 301.825 166.938 301.145 166.938C300.478 166.938 299.872 167.105 299.325 167.438C298.792 167.758 298.365 168.198 298.045 168.758C297.738 169.318 297.585 169.958 297.585 170.678C297.585 171.385 297.738 172.025 298.045 172.598C298.365 173.172 298.792 173.625 299.325 173.958C299.872 174.278 300.478 174.438 301.145 174.438ZM315.208 176.238C314.128 176.238 313.174 176.005 312.348 175.538C311.521 175.058 310.868 174.405 310.388 173.578C309.921 172.738 309.688 171.778 309.688 170.698C309.688 169.605 309.921 168.645 310.388 167.818C310.868 166.978 311.521 166.325 312.348 165.858C313.174 165.378 314.128 165.138 315.208 165.138C316.274 165.138 317.221 165.378 318.048 165.858C318.874 166.325 319.521 166.978 319.988 167.818C320.468 168.645 320.708 169.605 320.708 170.698C320.708 171.778 320.474 172.738 320.008 173.578C319.541 174.405 318.894 175.058 318.068 175.538C317.241 176.005 316.288 176.238 315.208 176.238ZM315.208 174.438C315.901 174.438 316.514 174.278 317.048 173.958C317.581 173.638 317.994 173.198 318.288 172.638C318.594 172.078 318.748 171.432 318.748 170.698C318.748 169.965 318.594 169.318 318.288 168.758C317.994 168.185 317.581 167.738 317.048 167.418C316.514 167.098 315.901 166.938 315.208 166.938C314.514 166.938 313.901 167.098 313.368 167.418C312.834 167.738 312.414 168.185 312.108 168.758C311.801 169.318 311.648 169.965 311.648 170.698C311.648 171.432 311.801 172.078 312.108 172.638C312.414 173.198 312.834 173.638 313.368 173.958C313.901 174.278 314.514 174.438 315.208 174.438Z" fill="#455A64"/>
</g>
<defs>
<clipPath id="clip0_25_659">
<rect width="681" height="668" fill="white"/>
</clipPath>
</defs>
</svg>
