<svg  viewBox="0 0 750 500" fill="none" xmlns="http://www.w3.org/2000/svg">
<path d="M673.734 333.61H492.988C489.756 333.61 487.126 330.98 487.126 327.748V64.475C487.126 61.243 489.756 58.613 492.988 58.613H673.734C676.966 58.613 679.596 61.242 679.596 64.475V327.748C679.596 330.98 676.966 333.61 673.734 333.61ZM492.988 58.863C489.893 58.863 487.376 61.381 487.376 64.475V327.748C487.376 330.843 489.894 333.36 492.988 333.36H673.734C676.829 333.36 679.346 330.843 679.346 327.748V64.475C679.346 61.381 676.828 58.863 673.734 58.863H492.988Z" fill="#E0E0E0"/>
<path d="M465.306 333.61H284.56C281.328 333.61 278.698 330.98 278.698 327.748V64.475C278.698 61.243 281.327 58.613 284.56 58.613H465.307C468.539 58.613 471.169 61.242 471.169 64.475V327.748C471.168 330.98 468.538 333.61 465.306 333.61ZM284.56 58.863C281.466 58.863 278.948 61.381 278.948 64.475V327.748C278.948 330.843 281.466 333.36 284.56 333.36H465.307C468.402 333.36 470.919 330.843 470.919 327.748V64.475C470.919 61.381 468.401 58.863 465.307 58.863H284.56Z" fill="#E0E0E0"/>
<path d="M257.012 333.61H76.2658C73.0338 333.61 70.4038 330.98 70.4038 327.748V64.475C70.4038 61.243 73.0328 58.613 76.2658 58.613H257.012C260.244 58.613 262.874 61.242 262.874 64.475V327.748C262.875 330.98 260.245 333.61 257.012 333.61ZM76.2658 58.863C73.1718 58.863 70.6538 61.381 70.6538 64.475V327.748C70.6538 330.843 73.1718 333.36 76.2658 333.36H257.012C260.107 333.36 262.624 330.843 262.624 327.748V64.475C262.624 61.381 260.106 58.863 257.012 58.863H76.2658Z" fill="#E0E0E0"/>
<path d="M750 394.68H0V394.8H750V394.68Z" fill="#E0E0E0"/>
<path d="M247.427 121.58C257.352 112.024 273.144 112.324 282.699 122.249C291.997 131.907 292 147.187 282.704 156.847L268.613 170.941C266.657 172.897 263.485 172.897 261.529 170.941L247.427 156.839C237.696 147.1 237.696 131.319 247.427 121.58ZM265.068 150.808C271.646 150.808 276.943 145.324 276.637 138.679C276.366 132.781 271.513 127.928 265.615 127.657C258.97 127.351 253.486 132.648 253.486 139.226C253.486 139.227 253.486 139.228 253.486 139.229C253.499 145.616 258.681 150.787 265.068 150.787V150.808Z" fill="#E6E6E6"/>
<path d="M709.355 424.056H653.626V424.477H709.355V424.056Z" fill="#EBEBEB"/>
<path d="M509.671 428.621H495.044V429.042H509.671V428.621Z" fill="#EBEBEB"/>
<path d="M113.319 411.258H40.645V411.679H113.319V411.258Z" fill="#EBEBEB"/>
<path d="M138.955 411.258H128.299V411.679H138.955V411.258Z" fill="#EBEBEB"/>
<path d="M331.199 418.362H173.586V418.783H331.199V418.362Z" fill="#EBEBEB"/>
<path d="M656.95 451.633C656.95 455.02 539.38 457.765 394.35 457.765C249.32 457.765 131.75 455.02 131.75 451.633C131.75 448.246 249.32 445.501 394.35 445.501C539.38 445.501 656.95 448.246 656.95 451.633Z" fill="#F5F5F5"/>
<path d="M224.253 405.967H91.6832C82.2802 405.967 74.6572 398.344 74.6572 388.941V97.049C74.6572 89.794 80.5382 83.913 87.7932 83.913H228.141C235.396 83.913 241.277 89.794 241.277 97.049V388.942C241.279 398.345 233.656 405.967 224.253 405.967Z" fill="#263238"/>
<path d="M192.507 91.138L189.841 96.407H124.642L120.764 91.138H89.9432C85.0112 91.138 81.0142 95.089 81.0142 99.962V384.06C81.0142 391.423 87.0552 397.392 94.5062 397.392H221.431C228.882 397.392 234.923 391.423 234.923 384.06V99.962C234.923 95.089 230.925 91.138 225.994 91.138H192.507Z" fill="white"/>
<path d="M157.892 90.636C157.892 92.117 156.692 93.317 155.211 93.317C153.73 93.317 152.53 92.117 152.53 90.636C152.53 89.155 153.73 87.955 155.211 87.955C156.692 87.955 157.892 89.155 157.892 90.636Z" fill="white"/>
<path d="M161.851 90.636C161.851 91.376 161.251 91.976 160.51 91.976C159.77 91.976 159.169 91.376 159.169 90.636C159.169 89.896 159.769 89.295 160.51 89.295C161.251 89.295 161.851 89.895 161.851 90.636Z" fill="white"/>
<path d="M225.993 91.138H192.506L189.84 96.407H124.642L120.764 91.138H89.9432C85.0112 91.138 81.0142 95.088 81.0142 99.962V172.649H234.923V99.962C234.923 95.088 230.925 91.138 225.993 91.138Z" fill="#92E3A9"/>
<path d="M131.173 143.156H129.67C129.581 142.724 129.425 142.344 129.203 142.017C128.985 141.689 128.718 141.415 128.403 141.192C128.092 140.966 127.747 140.797 127.367 140.683C126.987 140.57 126.591 140.514 126.179 140.514C125.428 140.514 124.747 140.704 124.137 141.083C123.531 141.463 123.048 142.023 122.688 142.762C122.333 143.501 122.155 144.408 122.155 145.483C122.155 146.558 122.333 147.465 122.688 148.204C123.048 148.943 123.531 149.503 124.137 149.883C124.747 150.263 125.428 150.452 126.179 150.452C126.591 150.452 126.987 150.396 127.367 150.283C127.747 150.17 128.092 150.002 128.403 149.78C128.718 149.553 128.985 149.277 129.203 148.949C129.425 148.618 129.581 148.238 129.67 147.81H131.173C131.06 148.444 130.854 149.012 130.555 149.513C130.256 150.014 129.884 150.44 129.44 150.792C128.995 151.139 128.496 151.404 127.943 151.586C127.393 151.767 126.805 151.858 126.179 151.858C125.121 151.858 124.179 151.6 123.355 151.083C122.531 150.566 121.882 149.83 121.41 148.877C120.937 147.923 120.701 146.792 120.701 145.483C120.701 144.174 120.937 143.043 121.41 142.089C121.882 141.136 122.531 140.401 123.355 139.883C124.179 139.366 125.121 139.108 126.179 139.108C126.805 139.108 127.393 139.199 127.943 139.38C128.496 139.562 128.995 139.829 129.44 140.18C129.884 140.528 130.256 140.952 130.555 141.453C130.854 141.95 131.06 142.518 131.173 143.156ZM136.147 151.907C135.557 151.907 135.021 151.796 134.541 151.574C134.06 151.347 133.678 151.022 133.395 150.598C133.113 150.17 132.971 149.652 132.971 149.046C132.971 148.513 133.076 148.081 133.286 147.75C133.496 147.414 133.777 147.152 134.129 146.962C134.48 146.772 134.868 146.63 135.292 146.538C135.72 146.441 136.151 146.364 136.583 146.307C137.149 146.235 137.607 146.18 137.959 146.144C138.314 146.103 138.573 146.037 138.734 145.944C138.9 145.851 138.983 145.689 138.983 145.459V145.41C138.983 144.812 138.819 144.348 138.492 144.016C138.169 143.685 137.678 143.52 137.019 143.52C136.337 143.52 135.801 143.669 135.413 143.968C135.026 144.267 134.753 144.586 134.595 144.926L133.238 144.441C133.48 143.875 133.803 143.435 134.207 143.12C134.615 142.8 135.06 142.578 135.541 142.453C136.025 142.324 136.502 142.259 136.971 142.259C137.27 142.259 137.613 142.295 138.001 142.368C138.393 142.437 138.771 142.58 139.134 142.798C139.502 143.017 139.807 143.346 140.049 143.786C140.292 144.227 140.413 144.816 140.413 145.556V151.689H138.983V150.428H138.91C138.813 150.63 138.652 150.846 138.425 151.077C138.199 151.307 137.898 151.503 137.522 151.664C137.147 151.826 136.688 151.907 136.147 151.907ZM136.365 150.622C136.93 150.622 137.407 150.511 137.795 150.289C138.187 150.067 138.482 149.78 138.68 149.428C138.882 149.077 138.983 148.707 138.983 148.319V147.01C138.922 147.083 138.789 147.15 138.583 147.21C138.381 147.267 138.147 147.317 137.88 147.362C137.617 147.402 137.361 147.438 137.11 147.471C136.864 147.499 136.664 147.523 136.51 147.544C136.139 147.592 135.791 147.671 135.468 147.78C135.149 147.885 134.89 148.044 134.692 148.259C134.498 148.469 134.401 148.756 134.401 149.119C134.401 149.616 134.585 149.992 134.953 150.246C135.324 150.497 135.795 150.622 136.365 150.622ZM143.023 151.689V142.38H144.405V143.786H144.502C144.672 143.326 144.979 142.952 145.423 142.665C145.868 142.378 146.369 142.235 146.926 142.235C147.031 142.235 147.163 142.237 147.32 142.241C147.478 142.245 147.597 142.251 147.678 142.259V143.713C147.629 143.701 147.518 143.683 147.344 143.659C147.175 143.631 146.995 143.617 146.805 143.617C146.353 143.617 145.948 143.711 145.593 143.901C145.241 144.087 144.963 144.346 144.757 144.677C144.555 145.004 144.454 145.378 144.454 145.798V151.689H143.023ZM154.367 151.689V139.277H158.56C159.53 139.277 160.326 139.443 160.948 139.774C161.57 140.102 162.031 140.552 162.33 141.126C162.629 141.699 162.778 142.352 162.778 143.083C162.778 143.814 162.629 144.463 162.33 145.029C162.031 145.594 161.572 146.039 160.954 146.362C160.336 146.681 159.546 146.841 158.585 146.841H155.191V145.483H158.536C159.199 145.483 159.732 145.386 160.136 145.192C160.544 144.998 160.839 144.724 161.021 144.368C161.207 144.008 161.299 143.58 161.299 143.083C161.299 142.586 161.207 142.152 161.021 141.78C160.835 141.409 160.538 141.122 160.13 140.92C159.722 140.714 159.182 140.611 158.512 140.611H155.87V151.689H154.367ZM160.209 146.113L163.263 151.689H161.518L158.512 146.113H160.209ZM168.891 151.883C167.994 151.883 167.221 151.685 166.57 151.289C165.924 150.889 165.425 150.331 165.073 149.616C164.726 148.897 164.552 148.061 164.552 147.107C164.552 146.154 164.726 145.313 165.073 144.586C165.425 143.855 165.914 143.285 166.54 142.877C167.17 142.465 167.906 142.259 168.746 142.259C169.231 142.259 169.71 142.34 170.182 142.501C170.655 142.663 171.085 142.926 171.473 143.289C171.861 143.649 172.17 144.126 172.4 144.719C172.631 145.313 172.746 146.045 172.746 146.913V147.519H165.57V146.283H171.291C171.291 145.758 171.186 145.289 170.976 144.877C170.77 144.465 170.475 144.14 170.091 143.901C169.712 143.663 169.263 143.544 168.746 143.544C168.176 143.544 167.683 143.685 167.267 143.968C166.855 144.247 166.538 144.61 166.316 145.059C166.094 145.507 165.982 145.988 165.982 146.501V147.325C165.982 148.028 166.104 148.624 166.346 149.113C166.593 149.598 166.934 149.968 167.37 150.222C167.807 150.473 168.314 150.598 168.891 150.598C169.267 150.598 169.606 150.545 169.909 150.44C170.217 150.331 170.481 150.17 170.703 149.955C170.926 149.737 171.097 149.467 171.218 149.143L172.6 149.531C172.455 150 172.21 150.412 171.867 150.768C171.524 151.119 171.099 151.394 170.594 151.592C170.089 151.786 169.522 151.883 168.891 151.883ZM176.351 146.089V151.689H174.921V142.38H176.303V143.835H176.424C176.642 143.362 176.974 142.982 177.418 142.695C177.862 142.404 178.436 142.259 179.139 142.259C179.769 142.259 180.321 142.388 180.794 142.647C181.266 142.901 181.634 143.289 181.897 143.81C182.159 144.328 182.29 144.982 182.29 145.774V151.689H180.86V145.871C180.86 145.14 180.67 144.57 180.291 144.162C179.911 143.75 179.39 143.544 178.727 143.544C178.271 143.544 177.862 143.643 177.503 143.841C177.147 144.039 176.867 144.328 176.661 144.707C176.454 145.087 176.351 145.548 176.351 146.089ZM188.952 142.38V143.592H184.128V142.38H188.952ZM185.534 140.15H186.964V149.022C186.964 149.426 187.023 149.729 187.14 149.931C187.261 150.129 187.415 150.263 187.601 150.331C187.791 150.396 187.991 150.428 188.201 150.428C188.358 150.428 188.488 150.42 188.589 150.404C188.69 150.384 188.77 150.368 188.831 150.355L189.122 151.64C189.025 151.677 188.89 151.713 188.716 151.749C188.542 151.79 188.322 151.81 188.055 151.81C187.651 151.81 187.255 151.723 186.867 151.549C186.484 151.376 186.164 151.111 185.91 150.755C185.659 150.4 185.534 149.951 185.534 149.41V140.15Z" fill="white"/>
<path d="M174.566 128.378V123.091C174.566 122.629 174.334 122.203 173.955 121.949C173.953 121.948 173.952 121.947 173.951 121.946C173.913 121.921 173.873 121.896 173.832 121.875L170.081 119.901C170.068 119.895 170.057 119.887 170.046 119.878C170.02 119.856 170 119.828 169.988 119.796C169.95 119.693 170.003 119.58 170.106 119.542L170.565 119.378C170.603 119.365 170.631 119.331 170.636 119.29C170.644 119.231 170.602 119.178 170.544 119.17C168.762 118.921 161.83 118.015 158.186 118.461C157.458 118.55 156.735 118.733 156.037 118.975L156.035 118.974C153.589 119.822 151.456 121.393 150.497 122.166C150.149 122.446 149.954 122.622 149.954 122.622C146.861 122.506 143.973 123.583 142.731 124.123C142.33 124.298 142.021 124.635 141.881 125.049L141.456 126.309C141.4 126.469 141.371 126.636 141.369 126.805V129.469C141.369 130.04 141.741 130.544 142.286 130.712L142.503 130.778C142.637 130.819 142.776 130.839 142.916 130.835H142.918C142.919 130.835 142.92 130.835 142.921 130.835L144.355 130.802C144.343 130.76 144.332 130.719 144.322 130.677C144.321 130.674 144.321 130.672 144.32 130.669L144.943 130.654C145.081 131.127 145.336 131.573 145.708 131.945C146.89 133.127 148.807 133.127 149.989 131.945C150.398 131.536 150.665 131.04 150.791 130.516L151.408 130.502C151.399 130.546 151.391 130.59 151.38 130.634H151.385L165.638 130.295C165.638 130.295 165.638 130.295 165.638 130.296L165.982 130.287C165.976 130.245 165.971 130.203 165.967 130.161L166.572 130.147C166.646 130.804 166.935 131.441 167.439 131.945C168.621 133.127 170.538 133.127 171.72 131.945C172.26 131.405 172.552 130.712 172.599 130.006L173.201 129.992C173.201 130 173.2 130.008 173.2 130.015C173.203 130.014 173.206 130.013 173.209 130.011C173.209 130.012 173.209 130.014 173.209 130.015C173.228 130.007 173.248 130 173.267 129.99L173.554 129.86C173.554 129.859 173.554 129.859 173.554 129.858L173.759 129.767C174.251 129.545 174.568 129.055 174.568 128.514L174.566 128.378Z" fill="white"/>
<path d="M212.889 273.798L97.0483 276.513V256.701H214.004L212.889 273.798Z" fill="#263238"/>
<path opacity="0.5" d="M212.889 273.798L97.0483 276.513V256.701H214.004L212.889 273.798Z" fill="black"/>
<path d="M92.5923 261.784V271.832C92.5913 273.985 93.9943 275.886 96.0513 276.521L96.8703 276.77C97.3743 276.926 97.9013 276.999 98.4283 276.986L103.838 276.86C103.195 274.611 103.139 272.236 103.674 269.959C105.405 262.59 112.783 258.02 120.151 259.751C127.52 261.482 132.09 268.859 130.359 276.228L185.41 274.919C185.321 274.276 185.278 273.627 185.28 272.978C185.313 265.409 191.476 259.299 199.045 259.332C206.614 259.365 212.724 265.528 212.691 273.098C212.691 273.365 212.669 273.628 212.669 273.891C212.741 273.862 212.817 273.833 212.889 273.797L214.772 272.957C216.629 272.118 217.823 270.27 217.823 268.232V247.767C217.823 245.842 216.757 244.075 215.053 243.179L200.903 235.738C200.741 235.652 200.617 235.509 200.553 235.336C200.411 234.949 200.609 234.52 200.997 234.378L202.728 233.758C202.873 233.708 202.978 233.58 202.997 233.428C203.026 233.207 202.869 233.004 202.648 232.976C195.925 232.038 169.776 228.619 156.03 230.3C140.175 232.24 124.979 246 124.979 246C113.311 245.564 102.419 249.625 97.7303 251.663C96.2163 252.324 95.0523 253.593 94.5243 255.158L92.9193 259.912C92.7103 260.514 92.5993 261.146 92.5923 261.784Z" fill="#92E3A9"/>
<path d="M185.423 274.92C185.343 274.316 185.303 273.708 185.304 273.099C185.304 272.789 185.315 272.482 185.333 272.176L175.378 268.104C174.795 267.867 174.166 267.764 173.538 267.805L138.913 270.077C138.347 270.113 137.794 270.265 137.29 270.524L130.711 273.907C130.664 274.689 130.552 275.466 130.376 276.23L185.423 274.92Z" fill="#263238"/>
<path d="M217.827 268.233V267.71L212.197 269.434C212.525 270.628 212.691 271.86 212.691 273.099C212.691 273.366 212.669 273.629 212.669 273.892C212.741 273.863 212.817 273.834 212.889 273.798L214.775 272.958C216.633 272.119 217.826 270.271 217.827 268.233Z" fill="#263238"/>
<path d="M94.1904 275.439C94.7274 275.936 95.3704 276.306 96.0694 276.521L96.8884 276.77C97.3924 276.926 97.9184 276.999 98.4464 276.986L103.856 276.86C103.66 276.176 103.519 275.478 103.434 274.772L94.1904 275.439Z" fill="#263238"/>
<path d="M199.021 258.105C198.399 258.105 197.777 258.143 197.16 258.221C188.945 259.247 183.118 266.738 184.144 274.953L185.441 274.921C185.352 274.278 185.31 273.629 185.312 272.98C185.345 265.411 191.508 259.301 199.076 259.334C206.646 259.367 212.755 265.53 212.722 273.1C212.722 273.367 212.7 273.63 212.7 273.893C212.772 273.864 212.848 273.835 212.92 273.799L214.002 273.309C214.002 273.237 214.002 273.168 214.002 273.1C213.992 264.822 207.284 258.114 199.006 258.107H199.021V258.105Z" fill="#263238"/>
<path d="M117.035 258.105C115.754 258.105 114.479 258.268 113.24 258.592C105.228 260.686 100.431 268.877 102.524 276.889L103.855 276.86C103.212 274.611 103.156 272.236 103.691 269.959C105.422 262.59 112.799 258.02 120.168 259.751C127.537 261.482 132.107 268.859 130.376 276.228L131.703 276.195C131.919 275.174 132.028 274.133 132.027 273.09C132.026 264.813 125.314 258.103 117.035 258.105Z" fill="#263238"/>
<path d="M130.171 245.755C130.013 245.876 129.903 246.049 129.858 246.243C129.754 246.703 130.042 247.161 130.502 247.266L136.251 248.586C136.76 248.704 137.287 248.731 137.806 248.665L180.139 243.413C181.169 243.282 182.122 242.799 182.837 242.046L188.29 236.275C188.472 236.084 188.584 235.838 188.61 235.576C188.673 234.928 188.199 234.351 187.551 234.288C177.369 233.26 164.504 232.38 156.41 233.372C145.803 234.672 135.239 241.842 130.171 245.755Z" fill="#263238"/>
<g opacity="0.3">
<path d="M157.991 250.619C157.719 250.521 157.578 250.221 157.676 249.95C157.796 249.613 158.109 249.384 158.466 249.369L163.515 249.156C163.583 249.153 163.651 249.163 163.716 249.186C163.99 249.284 164.132 249.585 164.035 249.859C163.913 250.196 163.599 250.425 163.242 250.44L158.193 250.649C158.124 250.653 158.056 250.643 157.991 250.619Z" fill="black"/>
</g>
<path d="M195.544 236.152C195.097 236.549 195.057 237.233 195.454 237.68L196.651 238.982C196.788 239.128 196.963 239.234 197.156 239.289L211.825 243.357C212.08 243.426 212.343 243.461 212.608 243.462H215.522C215.37 243.361 215.215 243.267 215.053 243.181L200.903 235.733H200.902C200.545 235.557 200.398 235.124 200.575 234.767L195.98 235.918C195.818 235.96 195.669 236.041 195.544 236.152Z" fill="#263238"/>
<path d="M124.992 245.993L125.789 246.22C126.408 246.397 127.075 246.253 127.567 245.838C132.205 241.914 140.27 235.894 148.973 233.088C149.012 233.075 149.044 233.049 149.064 233.013C149.108 232.935 149.08 232.836 149.002 232.792L147.92 232.237C135.365 236.59 124.992 245.993 124.992 245.993Z" fill="#263238"/>
<path opacity="0.2" d="M172.558 251.292L130.377 254.308L131.171 259.51C131.414 261.104 132.005 262.624 132.902 263.964L136.427 269.233L172.429 264.366L189.449 251.291H172.558V251.292Z" fill="white"/>
<path d="M199.008 284.516C205.315 284.516 210.427 279.404 210.427 273.097C210.427 266.79 205.315 261.678 199.008 261.678C192.702 261.678 187.589 266.79 187.589 273.097C187.589 279.404 192.702 284.516 199.008 284.516Z" fill="#263238"/>
<path opacity="0.4" d="M203.958 278.047C201.224 280.781 196.791 280.781 194.057 278.047C191.323 275.313 191.323 270.88 194.057 268.146C196.791 265.412 201.224 265.412 203.958 268.146C206.692 270.881 206.692 275.313 203.958 278.047Z" fill="white"/>
<g opacity="0.3">
<path d="M199.569 267.36V270.949C199.569 271.258 199.319 271.508 199.01 271.508H199.006C198.697 271.508 198.447 271.258 198.447 270.949V267.36C198.447 267.051 198.697 266.801 199.006 266.801H199.01C199.319 266.801 199.569 267.051 199.569 267.36Z" fill="white"/>
</g>
<g opacity="0.3">
<path d="M199.569 275.248V278.837C199.569 279.146 199.319 279.396 199.01 279.396H199.006C198.697 279.396 198.447 279.146 198.447 278.837V275.248C198.447 274.939 198.697 274.689 199.006 274.689H199.01C199.319 274.689 199.569 274.939 199.569 275.248Z" fill="white"/>
</g>
<g opacity="0.3">
<path d="M201.147 272.51C200.879 272.663 200.537 272.569 200.385 272.301L200.384 272.3C200.23 272.032 200.323 271.691 200.59 271.537L203.695 269.734C203.964 269.579 204.308 269.671 204.463 269.94C204.616 270.208 204.524 270.549 204.257 270.705L201.152 272.508C201.152 272.508 201.149 272.509 201.147 272.51Z" fill="white"/>
</g>
<g opacity="0.3">
<path d="M194.316 276.439C194.048 276.593 193.706 276.5 193.553 276.233L193.552 276.232C193.398 275.964 193.491 275.623 193.758 275.469L196.863 273.666C197.13 273.511 197.472 273.601 197.627 273.868C197.783 274.136 197.692 274.48 197.425 274.636L194.316 276.439C194.317 276.439 194.317 276.439 194.316 276.439Z" fill="white"/>
</g>
<g opacity="0.3">
<path d="M203.695 276.453L200.59 274.65C200.321 274.494 200.229 274.151 200.384 273.882C200.541 273.615 200.884 273.524 201.152 273.68L204.257 275.483C204.524 275.638 204.615 275.98 204.463 276.248C204.308 276.516 203.964 276.608 203.695 276.453Z" fill="white"/>
</g>
<g opacity="0.3">
<path d="M197.628 272.303C197.473 272.57 197.131 272.662 196.864 272.507L193.759 270.704L193.758 270.703C193.491 270.548 193.399 270.207 193.554 269.939L193.555 269.938C193.71 269.671 194.052 269.579 194.319 269.734L197.428 271.537C197.695 271.692 197.785 272.035 197.63 272.301L197.628 272.303Z" fill="white"/>
</g>
<path d="M198.069 273.095C198.069 272.577 198.489 272.157 199.007 272.157C199.007 272.157 199.009 272.157 199.011 272.157C199.531 272.157 199.952 272.578 199.952 273.098C199.952 273.618 199.53 274.039 199.011 274.039C198.492 274.039 198.07 273.618 198.07 273.098L198.069 273.095Z" fill="#263238"/>
<path d="M117.035 284.518C123.342 284.518 128.454 279.406 128.454 273.099C128.454 266.792 123.342 261.68 117.035 261.68C110.729 261.68 105.616 266.792 105.616 273.099C105.616 279.406 110.729 284.518 117.035 284.518Z" fill="#263238"/>
<path opacity="0.4" d="M121.985 278.049C119.251 280.783 114.818 280.783 112.084 278.049C109.35 275.315 109.35 270.882 112.084 268.148C114.818 265.414 119.251 265.414 121.985 268.148C124.719 270.883 124.719 275.315 121.985 278.049Z" fill="white"/>
<g opacity="0.3">
<path d="M117.594 267.36V270.949C117.594 271.258 117.344 271.508 117.035 271.508H117.031C116.722 271.508 116.472 271.258 116.472 270.949V267.36C116.472 267.051 116.722 266.801 117.031 266.801H117.035C117.344 266.801 117.594 267.051 117.594 267.36Z" fill="white"/>
</g>
<g opacity="0.3">
<path d="M117.594 275.248V278.837C117.594 279.146 117.344 279.396 117.035 279.396H117.031C116.722 279.396 116.472 279.146 116.472 278.837V275.248C116.472 274.939 116.722 274.689 117.031 274.689H117.035C117.344 274.689 117.594 274.939 117.594 275.248Z" fill="white"/>
</g>
<g opacity="0.3">
<path d="M119.17 272.511C118.903 272.662 118.564 272.568 118.413 272.301C118.258 272.034 118.348 271.692 118.615 271.537L121.724 269.734L121.725 269.733C121.993 269.579 122.334 269.672 122.488 269.939L122.489 269.94C122.643 270.208 122.55 270.549 122.282 270.703L119.177 272.506C119.175 272.509 119.173 272.51 119.17 272.511Z" fill="white"/>
</g>
<g opacity="0.3">
<path d="M111.578 276.233L111.577 276.232C111.423 275.964 111.516 275.623 111.783 275.469L114.888 273.666C115.156 273.51 115.5 273.601 115.656 273.868C115.811 274.137 115.719 274.481 115.45 274.636L112.345 276.439C112.077 276.594 111.734 276.501 111.578 276.233Z" fill="white"/>
</g>
<g opacity="0.3">
<path d="M122.488 276.249C122.333 276.516 121.992 276.608 121.724 276.453L118.615 274.65C118.348 274.493 118.257 274.15 118.413 273.882C118.568 273.615 118.911 273.525 119.177 273.68L122.282 275.483L122.284 275.484C122.551 275.639 122.643 275.98 122.488 276.248V276.249Z" fill="white"/>
</g>
<g opacity="0.3">
<path d="M115.654 272.307C115.498 272.573 115.156 272.663 114.889 272.507L111.784 270.704L111.783 270.703C111.516 270.548 111.424 270.207 111.579 269.939C111.734 269.67 112.078 269.578 112.347 269.733L115.452 271.536L115.453 271.537C115.72 271.692 115.812 272.034 115.657 272.301C115.656 272.303 115.655 272.305 115.654 272.307Z" fill="white"/>
</g>
<path d="M117.035 272.157C117.555 272.157 117.976 272.579 117.976 273.098C117.976 273.617 117.555 274.039 117.035 274.039C116.515 274.039 116.094 273.618 116.094 273.098C116.094 272.578 116.515 272.157 117.035 272.157Z" fill="#263238"/>
<path opacity="0.3" d="M216.629 251.555C217.009 251.437 217.222 251.032 217.103 250.652C216.97 248.248 216.459 246.108 214.986 244.636C214.887 244.312 214.577 244.101 214.239 244.127L205.536 244.949C205.385 244.965 205.242 245.029 205.129 245.131C204.833 245.398 204.811 245.854 205.078 246.15L207.57 248.837C207.657 248.93 207.766 248.998 207.887 249.035L216.219 251.56C216.354 251.599 216.496 251.597 216.629 251.555Z" fill="black"/>
<path d="M129.859 246.24C129.754 246.7 130.043 247.158 130.503 247.263L136.252 248.583C136.761 248.701 137.288 248.728 137.807 248.662L139.347 248.471L141.194 238.592C137.33 240.673 133.644 243.067 130.172 245.752C130.013 245.873 129.903 246.046 129.859 246.24Z" fill="black"/>
<path d="M166.881 232.955L163.476 245.474L168.287 244.875L170.137 233.034C169.037 232.996 167.951 232.969 166.881 232.955Z" fill="black"/>
<path d="M188.618 235.568C188.68 234.92 188.204 234.344 187.555 234.282C186.199 234.141 184.756 234.008 183.313 233.878L182.768 242.116L182.836 242.048L188.289 236.277C188.477 236.084 188.592 235.834 188.618 235.568Z" fill="black"/>
<path d="M139.176 246.683C138.033 246.683 137.106 245.755 137.106 244.612C137.107 243.64 137.783 242.798 138.733 242.589L141.499 241.976L142.145 246.607L139.231 246.683C139.213 246.683 139.195 246.683 139.176 246.683Z" fill="#92E3A9"/>
<path opacity="0.3" d="M141.338 246.628L142.146 246.607L141.5 241.975L140.71 242.152L141.338 246.628Z" fill="black"/>
<path opacity="0.6" d="M167.89 244.125C167.89 244.125 168.28 250.226 167.89 252.177C167.5 254.128 164.458 268.399 164.458 268.399" stroke="black" stroke-width="0.25" stroke-miterlimit="10" stroke-linecap="round" stroke-linejoin="round"/>
<path opacity="0.6" d="M129.862 246.628C129.862 246.628 130.645 259.808 132.029 262.304C133.379 264.739 137.292 270.523 137.292 270.523" stroke="black" stroke-width="0.25" stroke-miterlimit="10" stroke-linecap="round" stroke-linejoin="round"/>
<path opacity="0.6" d="M126.561 246.295C126.561 246.295 116.836 248.698 113.974 249.156C111.624 249.532 102.071 251.857 99.1963 253.033" stroke="black" stroke-width="0.25" stroke-miterlimit="10" stroke-linecap="round" stroke-linejoin="round"/>
<path d="M194.678 198.325H127.037V205.039H194.678V198.325Z" fill="#263238"/>
<path opacity="0.7" d="M194.678 198.325H127.037V205.039H194.678V198.325Z" fill="white"/>
<path d="M193.592 302.534H133.36V309.248H193.592V302.534Z" fill="#263238"/>
<path opacity="0.7" d="M193.592 302.534H133.36V309.248H193.592V302.534Z" fill="white"/>
<path d="M151.476 316.432H133.36V323.146H151.476V316.432Z" fill="#263238"/>
<path opacity="0.7" d="M151.476 316.432H133.36V323.146H151.476V316.432Z" fill="white"/>
<path d="M212.32 342.912H107.509V375.789H212.32V342.912Z" fill="#92E3A9"/>
<path opacity="0.3" d="M212.32 342.912H202.425V375.789H212.32V342.912Z" fill="black"/>
<path d="M141.265 363.547V353.308H144.725C145.525 353.308 146.181 353.445 146.695 353.718C147.208 353.988 147.588 354.36 147.834 354.833C148.081 355.306 148.204 355.845 148.204 356.448C148.204 357.051 148.081 357.586 147.834 358.053C147.588 358.519 147.21 358.886 146.7 359.153C146.19 359.416 145.538 359.547 144.745 359.547H141.945V358.428H144.705C145.251 358.428 145.691 358.348 146.025 358.188C146.361 358.028 146.605 357.801 146.755 357.508C146.908 357.211 146.985 356.858 146.985 356.448C146.985 356.038 146.908 355.68 146.755 355.373C146.601 355.066 146.356 354.83 146.02 354.663C145.683 354.493 145.238 354.408 144.685 354.408H142.505V363.547H141.265ZM146.085 358.948L148.604 363.547H147.165L144.685 358.948H146.085ZM153.248 363.707C152.508 363.707 151.869 363.544 151.333 363.217C150.8 362.887 150.388 362.427 150.098 361.837C149.811 361.244 149.668 360.554 149.668 359.767C149.668 358.981 149.811 358.288 150.098 357.688C150.388 357.084 150.791 356.615 151.308 356.278C151.828 355.938 152.434 355.768 153.128 355.768C153.528 355.768 153.922 355.835 154.312 355.968C154.702 356.101 155.057 356.318 155.377 356.618C155.697 356.914 155.952 357.308 156.142 357.798C156.332 358.288 156.427 358.891 156.427 359.607V360.107H150.508V359.088H155.227C155.227 358.654 155.141 358.268 154.967 357.928C154.797 357.588 154.554 357.319 154.237 357.123C153.924 356.926 153.554 356.828 153.128 356.828C152.658 356.828 152.251 356.944 151.908 357.178C151.568 357.408 151.306 357.708 151.123 358.078C150.939 358.448 150.848 358.844 150.848 359.268V359.947C150.848 360.527 150.948 361.019 151.148 361.422C151.351 361.822 151.633 362.127 151.993 362.337C152.353 362.544 152.771 362.647 153.248 362.647C153.558 362.647 153.837 362.604 154.087 362.517C154.341 362.427 154.559 362.294 154.742 362.117C154.926 361.937 155.067 361.714 155.167 361.447L156.307 361.767C156.187 362.154 155.986 362.494 155.702 362.787C155.419 363.077 155.069 363.304 154.652 363.467C154.236 363.627 153.767 363.707 153.248 363.707ZM159.402 358.928V363.547H158.222V355.868H159.362V357.068H159.462C159.642 356.678 159.915 356.365 160.282 356.128C160.648 355.888 161.122 355.768 161.702 355.768C162.221 355.768 162.676 355.875 163.066 356.088C163.456 356.298 163.76 356.618 163.976 357.048C164.193 357.474 164.301 358.014 164.301 358.668V363.547H163.121V358.748C163.121 358.144 162.965 357.674 162.651 357.338C162.338 356.998 161.908 356.828 161.362 356.828C160.985 356.828 160.648 356.909 160.352 357.073C160.058 357.236 159.827 357.474 159.657 357.788C159.487 358.101 159.402 358.481 159.402 358.928ZM169.797 355.868V356.868H165.817V355.868H169.797ZM166.977 354.028H168.157V361.347C168.157 361.681 168.205 361.931 168.302 362.097C168.402 362.26 168.529 362.37 168.682 362.427C168.839 362.48 169.004 362.507 169.177 362.507C169.307 362.507 169.414 362.5 169.497 362.487C169.58 362.47 169.647 362.457 169.697 362.447L169.937 363.507C169.857 363.537 169.745 363.567 169.602 363.597C169.459 363.63 169.277 363.647 169.057 363.647C168.724 363.647 168.397 363.575 168.077 363.432C167.76 363.289 167.497 363.07 167.287 362.777C167.08 362.484 166.977 362.114 166.977 361.667V354.028Z" fill="white"/>
<path d="M111.391 301.275C114.595 298.191 119.692 298.287 122.776 301.491C125.777 304.608 125.778 309.541 122.778 312.659L118.229 317.208C117.598 317.84 116.574 317.84 115.942 317.208L111.39 312.656C108.25 309.513 108.25 304.419 111.391 301.275ZM117.085 310.709C119.208 310.709 120.918 308.939 120.819 306.794C120.731 304.89 119.165 303.324 117.261 303.236C115.116 303.137 113.346 304.847 113.346 306.97V306.971C113.35 309.033 115.023 310.702 117.084 310.702L117.085 310.709Z" fill="#263238"/>
<path opacity="0.7" d="M111.391 301.275C114.595 298.191 119.692 298.287 122.776 301.491C125.777 304.608 125.778 309.541 122.778 312.659L118.229 317.208C117.598 317.84 116.574 317.84 115.942 317.208L111.39 312.656C108.25 309.513 108.25 304.419 111.391 301.275ZM117.085 310.709C119.208 310.709 120.918 308.939 120.819 306.794C120.731 304.89 119.165 303.324 117.261 303.236C115.116 303.137 113.346 304.847 113.346 306.97V306.971C113.35 309.033 115.023 310.702 117.084 310.702L117.085 310.709Z" fill="white"/>
<path d="M104.201 253.578L99.1961 253.033L96.3201 254.209C95.7161 254.456 95.2641 254.975 95.1031 255.608C95.0091 255.974 95.0621 256.363 95.2511 256.69L95.3011 256.777C95.6231 257.331 96.2461 257.635 96.8811 257.549L99.7671 257.152C100.048 257.112 100.315 257.001 100.542 256.831L103.871 254.306L104.201 253.578Z" fill="white"/>
<path d="M392.261 196.095C393.291 184.428 384.668 174.136 373.001 173.106C361.334 172.077 351.042 180.7 350.013 192.366C348.983 204.033 357.606 214.325 369.273 215.355C380.939 216.384 391.232 207.761 392.261 196.095Z" fill="#92E3A9"/>
<path d="M379.477 208.608L378.012 213.867L384.09 217.106L384.829 210.371L379.477 208.608Z" fill="#92E3A9"/>
<path d="M388.384 175.323C393.984 179.346 397.325 186.324 396.948 193.208" stroke="#92E3A9" stroke-width="0.5" stroke-miterlimit="10" stroke-linecap="round" stroke-linejoin="round"/>
<path d="M396.663 196.36C396.683 197.411 396.484 198.467 396.081 199.438" stroke="#92E3A9" stroke-width="0.5" stroke-miterlimit="10" stroke-linecap="round" stroke-linejoin="round"/>
<path d="M370.76 203.16L360.081 196.018L362.574 192.291L369.734 197.081L378.644 185.29L382.221 187.992L370.76 203.16Z" fill="white"/>
<path d="M695.142 402.195L200.533 413.789V329.194H699.901L695.142 402.195Z" fill="#263238"/>
<path opacity="0.5" d="M695.142 402.195L200.533 413.789V329.194H699.901L695.142 402.195Z" fill="black"/>
<path d="M181.508 350.898V393.802C181.505 402.993 187.494 411.112 196.276 413.822L199.772 414.885C201.925 415.552 204.172 415.864 206.425 415.809L229.525 415.27C226.781 405.669 226.54 395.526 228.824 385.805C236.216 354.342 267.714 334.829 299.177 342.221C330.64 349.613 350.153 381.111 342.761 412.574L577.81 406.984C577.43 404.238 577.245 401.469 577.257 398.697C577.398 366.378 603.712 340.292 636.031 340.433C668.35 340.574 694.436 366.888 694.295 399.207C694.295 400.347 694.203 401.471 694.203 402.595C694.511 402.472 694.834 402.349 695.142 402.195L703.181 398.607C711.109 395.025 716.206 387.133 716.209 378.433V291.054C716.21 282.835 711.656 275.292 704.382 271.465L643.968 239.695C643.276 239.327 642.745 238.716 642.475 237.981C641.868 236.328 642.716 234.497 644.369 233.89L651.761 231.241C652.381 231.028 652.827 230.482 652.911 229.831C653.033 228.886 652.367 228.021 651.422 227.899C622.717 223.895 511.067 209.296 452.378 216.472C384.68 224.757 319.8 283.508 319.8 283.508C269.981 281.645 223.473 298.985 203.454 307.686C196.991 310.507 192.019 315.927 189.763 322.609L182.91 342.906C182.013 345.476 181.54 348.175 181.508 350.898Z" fill="#92E3A9"/>
<path d="M577.872 406.984C577.531 404.406 577.361 401.808 577.364 399.207C577.364 397.883 577.41 396.574 577.487 395.265L534.983 377.878C532.495 376.865 529.81 376.428 527.129 376.6L379.29 386.302C376.873 386.455 374.514 387.105 372.36 388.212L344.271 402.657C344.071 405.997 343.592 409.314 342.839 412.575L577.872 406.984Z" fill="#263238"/>
<path d="M716.225 378.433V376.2L692.186 383.561C693.588 388.658 694.297 393.921 694.296 399.207C694.296 400.347 694.204 401.471 694.204 402.595C694.512 402.472 694.835 402.349 695.143 402.195L703.197 398.607C711.125 395.025 716.222 387.133 716.225 378.433Z" fill="#263238"/>
<path d="M188.331 409.202C190.625 411.324 193.367 412.903 196.354 413.822L199.85 414.885C202.003 415.552 204.25 415.864 206.503 415.809L229.603 415.27C228.767 412.35 228.164 409.369 227.801 406.353L188.331 409.202Z" fill="#263238"/>
<path d="M635.929 335.19C633.272 335.189 630.618 335.354 627.982 335.683C592.907 340.063 568.024 372.048 572.404 407.123L577.948 406.984C577.568 404.238 577.383 401.469 577.395 398.697C577.536 366.378 603.85 340.292 636.169 340.433C668.488 340.574 694.574 366.888 694.433 399.207C694.433 400.347 694.341 401.471 694.341 402.595C694.649 402.472 694.972 402.349 695.28 402.195L699.9 400.101C699.9 399.793 699.9 399.501 699.9 399.208C699.858 363.864 671.211 335.224 635.867 335.19H635.929Z" fill="#263238"/>
<path d="M285.874 335.19C280.407 335.189 274.962 335.888 269.672 337.27C235.465 346.209 214.981 381.186 223.92 415.393L229.603 415.27C226.859 405.669 226.618 395.526 228.902 385.805C236.294 354.342 267.792 334.829 299.255 342.221C330.718 349.613 350.231 381.111 342.839 412.574L348.506 412.435C349.428 408.076 349.892 403.632 349.891 399.176C349.882 363.83 321.221 335.182 285.874 335.19Z" fill="#263238"/>
<path d="M341.582 285.968C340.898 286.547 340.411 287.38 340.207 288.322C339.722 290.555 340.915 292.805 342.872 293.348L367.305 300.196C369.47 300.809 371.714 300.979 373.935 300.697L555.098 278.252C559.507 277.692 563.616 275.412 566.73 271.797L590.495 244.11C591.287 243.195 591.788 242.006 591.919 240.732C592.243 237.581 590.267 234.739 587.505 234.383C544.124 228.631 489.274 223.401 454.639 227.633C409.245 233.172 363.544 267.293 341.582 285.968Z" fill="#92E3A9"/>
<path opacity="0.8" d="M342.398 285.968C341.714 286.547 341.227 287.38 341.023 288.322C340.538 290.555 341.731 292.805 343.688 293.348L368.121 300.196C370.286 300.809 372.53 300.979 374.751 300.697L551.858 288.557C556.267 287.997 563.081 279.896 567.9 273.318L591.311 244.111C592.103 243.196 592.604 242.007 592.735 240.733C593.059 237.582 591.083 234.74 588.321 234.384C544.94 228.632 490.09 223.402 455.455 227.634C410.062 233.172 364.36 267.293 342.398 285.968Z" fill="white"/>
<g opacity="0.3">
<path d="M460.744 303.228C459.584 302.81 458.982 301.531 459.4 300.37C459.914 298.933 461.248 297.952 462.773 297.891L484.333 296.982C484.624 296.969 484.916 297.013 485.19 297.111C486.359 297.529 486.968 298.816 486.55 299.985C486.027 301.421 484.689 302.4 483.162 302.464L461.602 303.357C461.31 303.372 461.019 303.328 460.744 303.228Z" fill="black"/>
</g>
<path d="M621.081 241.458C619.174 243.154 619.003 246.074 620.699 247.98L625.812 253.539C626.399 254.162 627.144 254.615 627.968 254.848L690.599 272.219C691.689 272.513 692.812 272.663 693.941 272.666H706.384C705.737 272.235 705.075 271.834 704.382 271.465L643.968 239.664L643.964 239.662C642.439 238.909 641.813 237.062 642.566 235.537L622.946 240.45C622.255 240.636 621.616 240.982 621.081 241.458Z" fill="#92E3A9"/>
<path d="M231.074 315.862L209.704 313.535L197.426 318.557C194.845 319.613 192.917 321.829 192.229 324.532C191.826 326.095 192.053 327.754 192.86 329.152L193.076 329.522C194.449 331.886 197.113 333.187 199.821 332.818L212.141 331.124C213.342 330.952 214.481 330.481 215.452 329.753L229.666 318.973L231.074 315.862Z" fill="white"/>
<path d="M319.846 283.477L323.249 284.447C325.894 285.202 328.74 284.59 330.841 282.815C350.645 266.06 385.08 240.357 422.239 228.376C422.404 228.322 422.542 228.208 422.627 228.057C422.814 227.723 422.696 227.301 422.362 227.114L417.742 224.742C364.136 243.329 319.846 283.477 319.846 283.477Z" fill="#92E3A9"/>
<path opacity="0.8" d="M319.846 283.477L323.249 284.447C325.894 285.202 328.74 284.59 330.841 282.815C350.645 266.06 385.08 240.357 422.239 228.376C422.404 228.322 422.542 228.208 422.627 228.057C422.814 227.723 422.696 227.301 422.362 227.114L417.742 224.742C364.136 243.329 319.846 283.477 319.846 283.477Z" fill="white"/>
<path opacity="0.2" d="M522.94 306.1L342.838 318.979L346.227 341.191C347.265 347.996 349.788 354.489 353.616 360.21L368.669 382.707L522.385 361.924L595.057 306.099H522.94V306.1Z" fill="white"/>
<path d="M635.873 447.958C662.8 447.958 684.629 426.129 684.629 399.202C684.629 372.275 662.8 350.446 635.873 350.446C608.945 350.446 587.117 372.275 587.117 399.202C587.117 426.129 608.945 447.958 635.873 447.958Z" fill="#263238"/>
<path opacity="0.4" d="M635.873 429.093C652.381 429.093 665.764 415.71 665.764 399.202C665.764 382.694 652.381 369.311 635.873 369.311C619.365 369.311 605.982 382.694 605.982 399.202C605.982 415.71 619.365 429.093 635.873 429.093Z" fill="white"/>
<g opacity="0.3">
<path d="M638.27 374.706V390.029C638.27 391.347 637.201 392.416 635.883 392.416H635.868C634.55 392.416 633.481 391.347 633.481 390.029V374.706C633.481 373.388 634.55 372.319 635.868 372.319H635.883C637.201 372.319 638.27 373.388 638.27 374.706Z" fill="white"/>
</g>
<g opacity="0.3">
<path d="M638.27 408.386V423.709C638.27 425.027 637.201 426.096 635.883 426.096H635.868C634.55 426.096 633.481 425.027 633.481 423.709V408.386C633.481 407.068 634.55 405.999 635.868 405.999H635.883C637.201 405.999 638.27 407.068 638.27 408.386Z" fill="white"/>
</g>
<g opacity="0.3">
<path d="M645.006 396.696C643.861 397.349 642.403 396.949 641.75 395.804C641.749 395.802 641.748 395.8 641.746 395.798C641.09 394.655 641.484 393.196 642.627 392.539L655.886 384.839C657.034 384.176 658.502 384.569 659.166 385.717C659.818 386.862 659.427 388.318 658.288 388.982L645.029 396.682C645.023 396.687 645.014 396.691 645.006 396.696Z" fill="white"/>
</g>
<g opacity="0.3">
<path d="M615.842 413.471C614.699 414.127 613.24 413.733 612.583 412.59C612.582 412.588 612.581 412.586 612.58 412.584C611.924 411.441 612.318 409.982 613.461 409.325L626.72 401.625L626.721 401.624C627.861 400.961 629.322 401.348 629.984 402.487C630.649 403.631 630.264 405.098 629.122 405.767L615.847 413.467C615.846 413.469 615.844 413.47 615.842 413.471Z" fill="white"/>
</g>
<g opacity="0.3">
<path d="M655.888 413.53L642.629 405.83C641.481 405.166 641.089 403.698 641.751 402.55C642.42 401.408 643.887 401.022 645.031 401.688L658.29 409.388C659.428 410.051 659.82 411.508 659.168 412.653C658.504 413.799 657.036 414.192 655.888 413.53Z" fill="white"/>
</g>
<g opacity="0.3">
<path d="M629.982 395.81C629.322 396.951 627.862 397.342 626.721 396.682L613.462 388.982C613.46 388.981 613.458 388.98 613.456 388.978C612.315 388.318 611.925 386.858 612.584 385.717C612.585 385.715 612.586 385.713 612.588 385.711C613.248 384.57 614.708 384.179 615.849 384.839L629.124 392.539L629.125 392.54C630.264 393.204 630.65 394.665 629.986 395.804C629.984 395.806 629.983 395.808 629.982 395.81Z" fill="white"/>
</g>
<path d="M631.864 399.192C631.864 396.981 633.657 395.188 635.868 395.188C635.873 395.188 635.878 395.188 635.883 395.188C638.103 395.188 639.902 396.988 639.902 399.207C639.902 401.427 638.103 403.226 635.883 403.226C633.663 403.226 631.864 401.427 631.864 399.207C631.864 399.202 631.864 399.197 631.864 399.192Z" fill="#263238"/>
<path d="M285.872 447.967C312.799 447.967 334.628 426.138 334.628 399.211C334.628 372.284 312.799 350.455 285.872 350.455C258.945 350.455 237.116 372.284 237.116 399.211C237.116 426.138 258.945 447.967 285.872 447.967Z" fill="#263238"/>
<path opacity="0.4" d="M285.872 429.102C302.38 429.102 315.763 415.719 315.763 399.211C315.763 382.703 302.38 369.32 285.872 369.32C269.364 369.32 255.981 382.703 255.981 399.211C255.981 415.719 269.364 429.102 285.872 429.102Z" fill="white"/>
<g opacity="0.3">
<path d="M288.261 374.706V390.029C288.261 391.347 287.192 392.416 285.874 392.416H285.859C284.541 392.416 283.472 391.347 283.472 390.029V374.706C283.472 373.388 284.541 372.319 285.859 372.319H285.874C287.192 372.319 288.261 373.388 288.261 374.706Z" fill="white"/>
</g>
<g opacity="0.3">
<path d="M288.261 408.386V423.709C288.261 425.027 287.192 426.096 285.874 426.096H285.859C284.541 426.096 283.472 425.027 283.472 423.709V408.386C283.472 407.068 284.541 405.999 285.859 405.999H285.874C287.192 405.999 288.261 407.068 288.261 408.386Z" fill="white"/>
</g>
<g opacity="0.3">
<path d="M294.988 396.701C293.848 397.346 292.401 396.944 291.756 395.804L291.755 395.803C291.092 394.663 291.479 393.202 292.618 392.54L305.893 384.84C305.895 384.839 305.897 384.838 305.899 384.837C307.042 384.181 308.501 384.575 309.158 385.718C309.159 385.72 309.16 385.722 309.161 385.724C309.817 386.867 309.423 388.326 308.28 388.983L295.021 396.683C295.01 396.688 294.999 396.695 294.988 396.701Z" fill="white"/>
</g>
<g opacity="0.3">
<path d="M262.574 412.59C262.573 412.588 262.572 412.586 262.57 412.584C261.914 411.441 262.308 409.982 263.451 409.325L276.71 401.625C277.854 400.96 279.321 401.345 279.99 402.487C280.653 403.635 280.26 405.103 279.112 405.767L265.853 413.467C264.706 414.13 263.238 413.738 262.574 412.59Z" fill="white"/>
</g>
<g opacity="0.3">
<path d="M309.155 412.658C308.495 413.799 307.035 414.189 305.894 413.53L292.619 405.83C291.477 405.161 291.091 403.694 291.757 402.55L291.758 402.549C292.422 401.41 293.883 401.024 295.022 401.688L308.281 409.388C308.283 409.389 308.285 409.39 308.287 409.392C309.428 410.052 309.818 411.512 309.159 412.653C309.157 412.654 309.156 412.656 309.155 412.658Z" fill="white"/>
</g>
<g opacity="0.3">
<path d="M279.977 395.829C279.311 396.966 277.848 397.349 276.711 396.682L263.452 388.982C263.45 388.981 263.448 388.98 263.446 388.978C262.305 388.318 261.915 386.858 262.574 385.717C263.238 384.569 264.706 384.177 265.854 384.839L279.113 392.539C279.115 392.54 279.117 392.541 279.119 392.543C280.26 393.203 280.651 394.663 279.991 395.804C279.986 395.812 279.982 395.82 279.977 395.829Z" fill="white"/>
</g>
<path d="M285.874 395.188C288.094 395.188 289.893 396.988 289.893 399.208C289.893 401.428 288.093 403.227 285.874 403.227C283.654 403.227 281.855 401.428 281.855 399.208C281.854 396.988 283.654 395.188 285.874 395.188Z" fill="#263238"/>
<path opacity="0.3" d="M711.109 307.225C712.733 306.719 713.64 304.993 713.134 303.369C712.568 293.105 710.386 283.965 704.094 277.682C703.672 276.3 702.347 275.397 700.906 275.511L663.746 279.022C663.099 279.091 662.491 279.364 662.009 279.8C660.747 280.941 660.649 282.889 661.79 284.15L672.431 295.623C672.8 296.02 673.268 296.312 673.786 296.47L709.36 307.25C709.934 307.411 710.541 307.402 711.109 307.225Z" fill="black"/>
<path d="M340.207 288.304C339.722 290.537 340.915 292.787 342.872 293.33L367.305 300.178C369.47 300.791 371.281 301.211 374.096 301.338L381.789 300.828L374.534 261.633C357.777 272.638 356.629 273.14 341.582 285.95C340.898 286.529 340.412 287.362 340.207 288.304Z" fill="#263238"/>
<path d="M499.373 226.367L484.024 293.298L504.102 291.855L513.271 226.994C508.572 226.724 503.94 226.516 499.373 226.367Z" fill="#263238"/>
<path d="M563.081 279.336L591.282 244.11C592.093 243.187 592.606 241.979 592.737 240.684C593.054 237.532 591.072 234.696 588.309 234.348C582.531 233.564 576.383 232.808 570.235 232.07" fill="#263238"/>
<path d="M362.43 295.108C357.548 295.166 353.544 291.255 353.487 286.374C353.44 282.222 356.284 278.595 360.327 277.651L372.106 274.889L375.103 294.628L362.665 295.103C362.586 295.106 362.508 295.108 362.43 295.108Z" fill="#92E3A9"/>
<path opacity="0.3" d="M371.654 294.762L375.102 294.628L372.105 274.889L368.742 275.685L371.654 294.762Z" fill="black"/>
<path opacity="0.6" d="M503.684 291.858C503.828 298.795 503.753 306.133 503.004 309.882C501.338 318.212 488.352 379.145 488.352 379.145" stroke="black" stroke-width="0.5" stroke-miterlimit="10" stroke-linecap="round" stroke-linejoin="round"/>
<path opacity="0.6" d="M340.099 289.775C340.099 289.775 343.981 342.461 349.891 353.118C355.655 363.513 372.36 388.212 372.36 388.212" stroke="black" stroke-width="0.5" stroke-miterlimit="10" stroke-linecap="round" stroke-linejoin="round"/>
<path opacity="0.6" d="M326.545 284.764C326.545 284.764 285.022 295.022 272.803 296.98C262.77 298.588 221.982 308.512 209.704 313.534" stroke="black" stroke-width="0.5" stroke-miterlimit="10" stroke-linecap="round" stroke-linejoin="round"/>
<path opacity="0.8" d="M621.081 241.458C619.174 243.154 619.003 246.074 620.699 247.98L625.812 253.539C626.399 254.162 627.144 254.615 627.968 254.848L690.599 272.219C691.689 272.513 692.812 272.663 693.941 272.666H706.384C705.737 272.235 705.075 271.834 704.382 271.465L643.968 239.664L643.964 239.662C642.439 238.909 641.813 237.062 642.566 235.537L622.946 240.45C622.255 240.636 621.616 240.982 621.081 241.458Z" fill="white"/>
<path d="M413.648 267.974C413.648 267.974 421.132 294.291 424.766 295.225C431.35 296.916 453.608 293.096 453.166 292.365L451.345 283.093C451.345 283.093 428.62 281.458 428.15 281.642L420.939 265.139L413.648 267.974Z" fill="#E1715B"/>
<path d="M420.989 269.799C420.989 269.799 423.258 267.687 423.321 265.125C423.383 262.563 424.115 260.533 424.03 258.625C423.945 256.717 422.348 258.741 421.717 259.99C421.086 261.239 420.357 262.648 419.496 262.022C418.635 261.396 414.887 253.042 413.594 252.31C412.301 251.578 412.485 253.119 412.485 253.119C412.485 253.119 411.52 251.114 410.622 251.28C410.389 251.323 409.916 251.802 410.213 252.784C410.88 254.994 412.519 259.561 412.519 259.561C412.43 259.297 410.005 253.805 409.534 253.03C408.919 252.017 408.112 251.853 407.537 252.229C406.718 252.764 409.493 259.676 409.406 260.049C409.406 260.049 407.941 256.016 406.693 255.825C405.445 255.633 406.229 258.222 407.353 260.374C408.384 262.346 409.89 266.485 411.132 268.388C412.663 270.733 414.218 271.964 416.814 271.566C419.408 271.167 420.989 269.799 420.989 269.799Z" fill="#E1715B"/>
<path opacity="0.3" d="M412.661 253.356C413.394 254.982 414.053 256.641 414.635 258.327" stroke="black" stroke-width="0.25" stroke-miterlimit="10" stroke-linecap="round" stroke-linejoin="round"/>
<path opacity="0.3" d="M409.919 261.634C411.697 260.169 413.913 259.243 416.205 259.008" stroke="black" stroke-width="0.25" stroke-miterlimit="10" stroke-linecap="round" stroke-linejoin="round"/>
<path opacity="0.3" d="M418.928 263.021C418.139 263.53 417.535 264.32 417.252 265.215C416.969 266.11 417.009 267.104 417.362 267.973" stroke="black" stroke-width="0.25" stroke-miterlimit="10" stroke-linecap="round" stroke-linejoin="round"/>
<path d="M472.314 259.232C472.314 259.232 480.64 252.198 480.281 249.848C479.922 247.498 478.585 248.223 478.585 248.223C478.585 248.223 481.466 242.547 478.628 241.573C475.789 240.599 475.592 241.553 475.592 241.553C475.592 241.553 476.716 236.922 474.465 235.529C472.752 234.456 472.025 236.588 472.025 236.588C472.025 236.588 468.755 231.515 464.842 231.589C462.907 231.737 461.955 232.984 462.229 234.474C462.241 234.539 462.255 234.603 462.271 234.666C462.271 234.666 454.372 231.225 450.703 233.385C447.034 235.546 451.82 237.914 451.82 237.914C451.82 237.914 444.124 237.111 442.617 240.207C441.419 242.666 444.844 244.322 444.844 244.322C444.844 244.322 443.629 244.735 442.591 245.673C440.613 247.46 441.822 250.849 444.486 250.945C444.507 250.946 444.527 250.946 444.548 250.947C444.957 250.959 445.692 251.048 445.988 250.766C445.988 250.766 444.666 253.553 447.515 254.448C450.363 255.343 451.717 252.042 451.717 252.042L472.314 259.232Z" fill="#263238"/>
<path d="M469.694 277.343C469.694 277.343 469.23 273.33 472.085 263.575C472.085 263.565 471.571 263.335 471.571 263.325C471.964 261.961 472.383 260.7 472.777 259.608C472.786 259.576 472.786 259.566 472.786 259.566L459.412 267.785C459.718 270.908 458.582 276.937 457.907 279.483L461.372 285.348L469.694 277.343Z" fill="#E1715B"/>
<path opacity="0.2" d="M459.171 272.172L466.861 270.459C466.158 272.847 464.035 275.675 458.687 275.892C458.687 275.892 459.226 273.219 459.171 272.172Z" fill="black"/>
<path d="M450.24 244.688C448.661 247.773 448.086 254.566 453.01 253.162C457.933 251.759 452.955 239.385 450.24 244.688Z" fill="#263238"/>
<path d="M472.905 253.078C471.983 261.542 471.634 266.333 467.135 270.448C460.368 276.637 450.297 272.362 448.668 263.768C447.201 256.033 448.955 243.492 457.436 240.587C465.791 237.724 473.827 244.615 472.905 253.078Z" fill="#E1715B"/>
<path d="M460.64 254.955C460.599 255.824 460.105 256.501 459.537 256.469C458.969 256.437 458.541 255.706 458.582 254.837C458.623 253.968 459.117 253.291 459.685 253.323C460.253 253.356 460.681 254.087 460.64 254.955Z" fill="#263238"/>
<path d="M452.113 254.723C452.072 255.592 451.578 256.269 451.01 256.237C450.442 256.205 450.014 255.474 450.055 254.606C450.096 253.737 450.59 253.059 451.158 253.092C451.727 253.124 452.154 253.854 452.113 254.723Z" fill="#263238"/>
<path d="M454.908 254.372C454.908 254.372 451.955 258.558 450.99 260.274C452.148 261.423 454.254 261.018 454.254 261.018L454.908 254.372Z" fill="#FD504E"/>
<path d="M462.743 250.293C462.606 250.329 462.453 250.292 462.346 250.182C461.069 248.881 459.594 249.149 459.579 249.151C459.358 249.194 459.143 249.05 459.098 248.83C459.053 248.61 459.197 248.397 459.416 248.354C459.494 248.339 461.342 248.003 462.926 249.617C463.084 249.778 463.082 250.035 462.922 250.191C462.871 250.242 462.809 250.276 462.743 250.293Z" fill="#263238"/>
<path d="M448.49 250.8C448.416 250.777 448.348 250.732 448.296 250.667C448.154 250.491 448.18 250.234 448.353 250.093C450.093 248.674 451.873 249.25 451.956 249.266C452.169 249.336 452.288 249.567 452.22 249.781C452.152 249.995 451.926 250.111 451.714 250.044C451.641 250.017 450.264 249.591 448.867 250.73C448.757 250.818 448.615 250.839 448.49 250.8Z" fill="#263238"/>
<path d="M456.723 266.692C456.696 266.703 456.802 266.673 456.723 266.692V266.692Z" fill="#263238"/>
<path d="M455.401 263.407C456.766 262.976 459.283 262.064 460.503 260.783C460.503 260.783 460.722 261.157 460.849 261.722C460.964 262.209 461.026 262.828 460.864 263.47C460.563 264.642 459.536 265.909 456.776 266.675C456.738 266.687 456.731 266.69 456.724 266.692C456.713 266.695 456.716 266.693 456.696 266.699C456.696 266.699 455.209 267.079 454.465 263.683C454.465 263.683 454.831 263.593 455.401 263.407Z" fill="#263238"/>
<path d="M455.401 263.407L455.927 264.325C458.524 263.597 460.254 262.736 460.849 261.722C460.722 261.157 460.503 260.784 460.503 260.784C459.283 262.064 456.766 262.976 455.401 263.407Z" fill="white"/>
<path d="M456.776 266.675C459.535 265.909 460.562 264.642 460.863 263.47C459.933 263.767 458.845 264.229 457.968 264.928C457.296 265.459 456.955 266.086 456.776 266.675Z" fill="#FB504E"/>
<path d="M470.364 259.633C469.631 259.234 468.858 258.797 468.46 258.063C468.09 257.381 468.109 256.559 468.179 255.785C468.251 254.982 468.367 254.184 468.524 253.393C467.769 253.772 466.856 253.168 466.443 252.432C465.825 251.331 465.865 249.992 465.955 248.732C464.993 248.937 463.903 248.651 463.27 247.897C462.637 247.143 462.577 245.922 463.237 245.191C460.113 245.611 456.908 245.411 453.86 244.606C454.07 244.995 453.825 245.47 453.555 245.82C452.463 247.242 450.831 248.238 449.067 248.56C448.808 248.607 448.487 248.615 448.343 248.395C448.266 248.278 448.266 248.128 448.275 247.988C448.378 246.269 449.367 244.693 450.666 243.563C451.965 242.433 453.557 241.698 455.162 241.074C457.825 240.039 460.613 239.266 463.464 239.073C466.315 238.881 469.238 239.288 471.817 240.518C472.381 240.787 472.941 241.106 473.335 241.59C473.709 242.05 473.907 242.626 474.08 243.193C475.133 246.644 475.534 250.293 475.257 253.891" fill="#263238"/>
<path d="M475.923 260.312C475.141 262.465 473.434 264.047 471.711 264.804C469.119 265.943 467.4 263.71 467.766 261.047C468.096 258.65 469.842 255.17 472.614 255.155C475.345 255.142 476.817 257.85 475.923 260.312Z" fill="#E1715B"/>
<path opacity="0.2" d="M474.095 257.874C473.777 257.351 473.088 257.132 472.488 257.25C471.887 257.368 471.374 257.769 470.989 258.245C470.526 258.816 470.216 259.509 470.099 260.234" stroke="black" stroke-width="0.5" stroke-miterlimit="10" stroke-linecap="round" stroke-linejoin="round"/>
<path d="M457.268 291.154C457.268 291.154 432.403 298.421 423.371 298.736C414.34 299.051 394.351 294.841 394.351 294.841L395.48 285.665L424.819 287.164L456.719 276.508L457.268 291.154Z" fill="#E1715B"/>
<path d="M448.384 296.759L453.274 276.546L465.691 274.381C466.234 274.301 476.321 273.472 479.346 284.538L480.022 293.333L448.384 296.759Z" fill="#263238"/>
<path d="M460.08 294.744C459.392 294.734 440.036 298.273 440.036 298.273L436.054 282.533C436.054 282.533 445.051 278.769 453.275 276.546C462.466 274.061 471.086 273.29 473.072 277.58C476.834 285.71 460.08 294.744 460.08 294.744Z" fill="#263238"/>
<path opacity="0.3" d="M419.995 287.063C420.465 287.087 424.819 287.309 424.819 287.309L437.369 283.009C437.369 283.009 439.968 281.89 439.306 282.116C438.645 282.343 433.446 281.803 433.1 281.857C432.755 281.911 419.995 287.063 419.995 287.063Z" fill="black"/>
<path d="M385.846 281.486C385.283 281.826 378.633 288.699 378.633 288.699L379.93 297.218L388.291 288.587L385.846 281.486Z" fill="#263238"/>
<path d="M395.862 299.255C394.392 299.98 392.612 299.377 391.887 297.907L378.621 271.028C377.896 269.558 378.499 267.778 379.969 267.053C381.439 266.327 383.219 266.931 383.944 268.401L397.21 295.28C397.935 296.75 397.332 298.53 395.862 299.255Z" fill="#263238"/>
<path d="M405.414 286.398L394.495 284.932L391.336 281.113C391.336 281.113 385.789 280.615 384.598 281.604C383.407 282.593 382.208 285.744 382.208 285.744C382.208 285.744 380.763 288.327 383.24 289.683C383.24 289.683 381.672 291.982 384.467 293.605C384.467 293.605 382.407 294.768 385.363 295.984C388.319 297.2 390.658 296.493 392.468 295.843C394.279 295.193 397.481 295.469 397.481 295.469L407.41 297.22L405.414 286.398Z" fill="#E1715B"/>
</svg>
