<svg viewBox="0 0 386 400" fill="none" xmlns="http://www.w3.org/2000/svg">
<path d="M112.107 27.9706H34.5854V144.411H112.107V27.9706Z" fill="#E0E0E0"/>
<path d="M108.224 27.9708H30.7021V144.412H108.224V27.9708Z" fill="#F5F5F5"/>
<path d="M98.593 40.5816H40.334V131.8H98.593V40.5816Z" fill="#8817EE"/>
<path d="M98.5928 131.8C98.5928 131.8 98.5851 131.646 98.5812 131.354C98.5781 131.054 98.575 130.623 98.5696 130.061C98.5642 128.914 98.5565 127.236 98.5465 125.058C98.5341 120.686 98.5163 114.315 98.4947 106.267C98.4716 90.1824 98.4384 67.4056 98.3998 40.5824L98.5936 40.7824C80.7935 40.7872 61.0705 40.7936 40.3408 40.8H40.3338L40.5446 40.5816C40.5283 74.9928 40.5137 106.72 40.5021 131.799L40.3338 131.626C58.0759 131.664 72.6188 131.695 82.739 131.717C87.801 131.736 91.7544 131.751 94.4549 131.761C95.7966 131.77 96.8249 131.776 97.5305 131.78C98.2261 131.787 98.5928 131.8 98.5928 131.8C98.5928 131.8 98.25 131.813 97.5652 131.818C96.8674 131.823 95.8499 131.83 94.5212 131.838C91.8293 131.849 87.889 131.863 82.8432 131.882C72.6984 131.904 58.1199 131.936 40.3338 131.974H40.1655V131.799C40.1539 106.72 40.1385 74.992 40.123 40.5816V40.3632H40.3338H40.3408C61.0705 40.3696 80.7935 40.376 98.5928 40.3816H98.7865V40.5824C98.748 67.4592 98.7148 90.2816 98.6916 106.398C98.6692 114.427 98.6515 120.782 98.6399 125.143C98.6298 127.305 98.6221 128.97 98.6167 130.106C98.6113 130.659 98.6082 131.082 98.6051 131.378C98.6005 131.662 98.5928 131.8 98.5928 131.8Z" fill="#E0E0E0"/>
<path d="M108.442 27.9704C108.487 28.0072 107.961 28.8032 107.06 30.0512C106.159 31.2992 104.881 32.9968 103.422 34.832C101.962 36.668 100.6 38.2928 99.5901 39.448C98.5803 40.6032 97.928 41.2912 97.8848 41.252C97.84 41.212 98.4136 40.452 99.3639 39.2464C100.403 37.94 101.682 36.332 103.097 34.5536C104.509 32.7752 105.787 31.1664 106.825 29.8592C107.786 28.6616 108.396 27.9328 108.442 27.9704Z" fill="#E0E0E0"/>
<path d="M98.8901 131.507C101.784 136.275 105.2 140.702 109.051 144.676L98.8901 131.507Z" fill="#ED642B"/>
<path d="M109.051 144.675C109.013 144.715 108.322 144.094 107.279 143.006C106.238 141.918 104.858 140.353 103.446 138.526C102.037 136.697 100.866 134.957 100.072 133.665C99.2769 132.373 98.8438 131.537 98.8901 131.506C98.9426 131.472 99.4645 132.249 100.319 133.491C101.174 134.734 102.375 136.434 103.776 138.253C105.179 140.069 106.515 141.657 107.497 142.794C108.478 143.931 109.095 144.63 109.051 144.675Z" fill="#E0E0E0"/>
<path d="M30.6909 144.319C34.0754 139.991 37.4606 135.664 40.845 131.337L30.6909 144.319Z" fill="#ED642B"/>
<path d="M40.8448 131.336C40.9351 131.412 38.7357 134.38 35.9318 137.965C33.1271 141.55 30.781 144.394 30.6907 144.318C30.6003 144.242 32.7998 141.275 35.6045 137.69C38.4084 134.106 40.7545 131.26 40.8448 131.336Z" fill="#E0E0E0"/>
<path d="M30.7021 27.9704C30.7932 27.896 33.0004 30.6296 35.6306 34.076C38.2616 37.5232 40.3197 40.3784 40.2286 40.4528C40.1375 40.5272 37.9311 37.7944 35.2994 34.3464C32.6692 30.9 30.611 28.0448 30.7021 27.9704Z" fill="#E0E0E0"/>
<path d="M80.4422 59.1024H60.9346V116.498H80.4422V59.1024Z" fill="#E0E0E0"/>
<path d="M310.91 278.882H172.572V344.996H310.91V278.882Z" fill="#8817EE"/>
<path d="M307.616 341.88H175.738V282.361H307.616V341.88ZM176.599 340.989H306.756V283.254H176.599V340.989Z" fill="#E0E0E0"/>
<path d="M344.705 278.882H310.91V344.996H344.705V278.882Z" fill="#E0E0E0"/>
<path d="M176.168 300.781C190.988 300.781 205.808 300.781 220.628 300.781C244.043 300.781 267.458 300.781 290.873 300.781C296.31 300.781 301.748 300.781 307.186 300.781C307.41 300.781 307.41 300.421 307.186 300.421C292.366 300.421 277.546 300.421 262.726 300.421C239.311 300.421 215.896 300.421 192.481 300.421C187.043 300.421 181.606 300.421 176.168 300.421C175.945 300.421 175.944 300.781 176.168 300.781Z" fill="#E0E0E0"/>
<path d="M242.105 300.601C242.498 294.732 242.456 288.516 242.15 282.642C242.138 282.407 241.81 282.407 241.797 282.642C241.492 288.517 241.449 294.732 241.842 300.601C241.854 300.776 242.094 300.777 242.105 300.601Z" fill="#E0E0E0"/>
<path d="M277.371 291.622C277.371 292.643 276.572 293.471 275.586 293.471C274.6 293.471 273.801 292.643 273.801 291.622C273.801 290.6 274.6 289.772 275.586 289.772C276.572 289.772 277.371 290.6 277.371 291.622Z" fill="#E0E0E0"/>
<path d="M208.612 291.622C208.612 292.643 207.813 293.471 206.827 293.471C205.841 293.471 205.042 292.643 205.042 291.622C205.042 290.6 205.841 289.772 206.827 289.772C207.813 289.772 208.612 290.6 208.612 291.622Z" fill="#E0E0E0"/>
<path d="M243.462 312.121C243.462 313.142 242.663 313.97 241.677 313.97C240.692 313.97 239.893 313.142 239.893 312.121C239.893 311.099 240.692 310.271 241.677 310.271C242.663 310.271 243.462 311.099 243.462 312.121Z" fill="#E0E0E0"/>
<path d="M189.111 344.996L181.989 386.503H185.995L199.127 344.996H189.111Z" fill="#E0E0E0"/>
<path d="M301.122 344.996L307.078 386.576H303.072L291.106 344.996H301.122Z" fill="#E0E0E0"/>
<path d="M327.865 344.996L334.613 386.576H330.607L317.849 344.996H327.865Z" fill="#E0E0E0"/>
<path d="M243.343 330.832C243.343 331.854 242.544 332.682 241.558 332.682C240.572 332.682 239.773 331.854 239.773 330.832C239.773 329.81 240.572 328.982 241.558 328.982C242.544 328.982 243.343 329.81 243.343 330.832Z" fill="#E0E0E0"/>
<path d="M176.168 321.254C190.988 321.254 205.808 321.254 220.628 321.254C244.043 321.254 267.458 321.254 290.873 321.254C296.31 321.254 301.748 321.254 307.186 321.254C307.41 321.254 307.41 320.894 307.186 320.894C292.366 320.894 277.546 320.894 262.726 320.894C239.311 320.894 215.896 320.894 192.481 320.894C187.043 320.894 181.606 320.894 176.168 320.894C175.945 320.894 175.944 321.254 176.168 321.254Z" fill="#E0E0E0"/>
<path d="M257.205 366.11L257.166 357.908L218.282 358.134L218.322 366.336L257.205 366.11Z" fill="#E0E0E0"/>
<path d="M261.872 386.794L261.811 374.048L218.472 374.3L218.534 387.046L261.872 386.794Z" fill="#F5F5F5"/>
<path d="M253.529 386.698C253.413 386.698 253.318 383.845 253.318 380.326C253.318 376.806 253.413 373.954 253.529 373.954C253.646 373.954 253.74 376.806 253.74 380.326C253.739 383.845 253.645 386.698 253.529 386.698Z" fill="#E0E0E0"/>
<path d="M255.35 386.698C255.234 386.698 255.14 383.845 255.14 380.326C255.14 376.806 255.234 373.954 255.35 373.954C255.465 373.954 255.56 376.806 255.56 380.326C255.56 383.845 255.465 386.698 255.35 386.698Z" fill="#E0E0E0"/>
<path d="M225.061 386.698C224.945 386.698 224.851 383.845 224.851 380.326C224.851 376.806 224.945 373.954 225.061 373.954C225.178 373.954 225.271 376.806 225.271 380.326C225.271 383.845 225.177 386.698 225.061 386.698Z" fill="#E0E0E0"/>
<path d="M226.881 386.698C226.765 386.698 226.67 383.845 226.67 380.326C226.67 376.806 226.765 373.954 226.881 373.954C226.997 373.954 227.091 376.806 227.091 380.326C227.091 383.845 226.997 386.698 226.881 386.698Z" fill="#E0E0E0"/>
<path d="M230.854 380.53C230.854 380.408 235.227 380.31 240.619 380.31C246.013 380.31 250.385 380.409 250.385 380.53C250.385 380.652 246.013 380.751 240.619 380.751C235.226 380.751 230.854 380.653 230.854 380.53Z" fill="#E0E0E0"/>
<path d="M278.152 373.98L278.112 365.778L224.634 366.089L224.673 374.291L278.152 373.98Z" fill="#EBEBEB"/>
<path d="M270.496 372.951C269.1 372.951 267.969 371.763 267.969 370.298C267.969 368.833 269.101 367.646 270.496 367.646C271.892 367.646 273.024 368.833 273.024 370.298C273.023 371.763 271.892 372.951 270.496 372.951Z" fill="#E0E0E0"/>
<path d="M263.545 371.118V369.478H227.747V371.118H263.545Z" fill="#E0E0E0"/>
<path d="M122.1 87.1704C121.579 83.1304 118.11 79.7096 114.19 79.372C113.161 79.2832 112.096 79.38 111.127 79.0144C110.333 78.7144 109.673 78.1288 108.929 77.7128C106.542 76.3784 103.272 77.0856 101.6 79.2992C100.027 81.3816 99.3866 78.484 95.6756 80.7704C92.6015 82.6648 94.2049 85.2992 94.2049 85.2992C91.032 85.16 87.9502 87.7064 87.375 90.9432C87.0099 92.9984 87.4136 95.5 85.8681 96.8416C85.1185 97.492 84.0747 97.6712 83.3012 98.2904C81.8629 99.4408 81.8128 101.662 82.1378 103.514C82.462 105.366 83.0202 107.322 82.3562 109.074C81.2685 111.946 77.3213 113.086 76.8341 116.131C76.6041 117.569 77.1877 119.292 76.2212 120.351C75.8328 120.777 75.2755 120.975 74.7683 121.233C72.7132 122.278 71.3035 124.566 71.2557 126.938C71.2078 129.31 72.5225 131.658 74.5336 132.792C75.0948 133.109 75.7618 133.4 75.9764 134.023C76.2158 134.718 75.7703 135.44 75.4522 136.101C74.2865 138.517 74.8586 141.702 76.7847 143.522C78.7109 145.342 81.8251 145.638 84.0384 144.213C85.2211 146.403 87.2592 148.081 89.586 148.779C90.6576 149.101 91.8194 149.218 92.8825 148.869C93.7348 148.59 94.4743 148.03 95.1475 147.421C98.359 144.522 102.863 140.086 103.159 135.682" fill="#263238"/>
<path d="M92.5635 103.26C92.565 103.305 91.9929 103.379 91.0766 103.24C90.1641 103.105 88.9165 102.7 87.7222 101.903C86.5303 101.102 85.6618 100.089 85.1685 99.2816C84.6698 98.4728 84.5007 97.9016 84.5408 97.8848C84.601 97.8544 84.8604 98.3736 85.4008 99.112C85.9382 99.8512 86.7989 100.785 87.9407 101.553C89.0848 102.315 90.2598 102.746 91.1306 102.95C92.0022 103.158 92.565 103.19 92.5635 103.26Z" fill="#455A64"/>
<path d="M94.7144 93.1456C94.7469 93.1784 94.4234 93.6096 93.7502 94.1432C93.0817 94.6768 92.0356 95.2752 90.7765 95.6096C89.5158 95.94 88.3207 95.9336 87.487 95.796C86.6493 95.6608 86.1661 95.4432 86.18 95.3976C86.1962 95.264 88.2397 95.872 90.6776 95.2048C93.1249 94.5832 94.6395 93.036 94.7144 93.1456Z" fill="#455A64"/>
<path d="M78.9364 143.234C78.9348 143.241 78.8893 143.234 78.8028 143.213C78.7156 143.194 78.5874 143.159 78.4238 143.098C78.0988 142.975 77.6178 142.761 77.0913 142.337C76.5648 141.921 75.9897 141.286 75.5759 140.395C75.1629 139.51 74.966 138.339 75.2076 137.114C75.3242 136.504 75.5473 135.88 75.897 135.3C76.2359 134.708 76.7431 134.21 77.2534 133.734C77.7599 133.255 78.308 132.777 78.6562 132.155C79.0113 131.542 79.0452 130.761 78.7195 130.082C78.4053 129.394 77.8571 128.795 77.343 128.138C77.0851 127.809 76.8281 127.462 76.6188 127.067C76.415 126.665 76.2745 126.227 76.2058 125.772C75.9619 123.966 76.8528 121.914 78.599 121.076C79.4776 120.674 80.3916 120.66 81.2092 120.45C81.6183 120.351 82.0051 120.202 82.3177 119.96C82.6242 119.714 82.8574 119.381 82.96 118.997C83.1762 118.223 82.984 117.369 82.7014 116.618C82.405 115.866 81.9896 115.146 81.714 114.373C81.4299 113.61 81.3033 112.736 81.5566 111.957C81.7959 111.178 82.3193 110.574 82.8774 110.128C84.0192 109.222 85.3316 108.91 86.4387 108.57C87.5565 108.239 88.5493 107.845 89.2503 107.243C89.942 106.64 90.3033 105.862 90.4268 105.22C90.555 104.569 90.4376 104.042 90.2879 103.731C90.142 103.414 90.0015 103.285 90.0223 103.267C90.0223 103.267 90.1829 103.374 90.3597 103.693C90.5395 104.003 90.6916 104.558 90.5805 105.25C90.4724 105.932 90.1203 106.757 89.3962 107.421C88.6667 108.077 87.6415 108.501 86.5205 108.853C85.4034 109.213 84.1428 109.538 83.082 110.402C82.5617 110.826 82.097 111.383 81.8939 112.067C81.6785 112.75 81.7874 113.514 82.0607 114.238C82.3262 114.973 82.7362 115.671 83.0581 116.472C83.3569 117.266 83.5877 118.182 83.3376 119.114C83.2156 119.575 82.9284 119.993 82.5578 120.289C82.1811 120.581 81.738 120.746 81.3026 120.854C80.4341 121.071 79.5339 121.096 78.765 121.455C77.211 122.188 76.3726 124.085 76.5957 125.714C76.6567 126.123 76.7817 126.514 76.9601 126.873C77.1477 127.232 77.3901 127.564 77.641 127.887C78.1397 128.534 78.7048 129.146 79.0553 129.919C79.4258 130.685 79.3787 131.648 78.9619 132.338C78.5589 133.037 77.9837 133.517 77.4758 133.991C76.9601 134.462 76.4837 134.92 76.1595 135.47C75.8245 136.01 75.6052 136.597 75.4863 137.174C75.2408 138.331 75.406 139.443 75.7805 140.297C76.1572 141.158 76.693 141.787 77.1901 142.21C78.2014 143.058 78.9611 143.182 78.9364 143.234Z" fill="#455A64"/>
<path d="M159.056 343.438H75.9019V348.015H159.056V343.438Z" fill="#E0E0E0"/>
<path d="M159.056 348.015C159.056 348.015 159.049 347.916 159.045 347.727C159.042 347.525 159.037 347.246 159.031 346.877C159.023 346.11 159.012 344.975 158.996 343.438L159.056 343.5C148.275 343.585 115.094 343.646 75.9065 343.646H75.9027L76.1034 343.438C76.1034 345.006 76.1034 346.564 76.1034 348.015L75.9027 347.807C99.0511 347.842 119.807 347.872 134.794 347.894C142.289 347.92 148.34 347.942 152.534 347.957C154.618 347.97 156.241 347.979 157.358 347.986C157.901 347.993 158.319 347.998 158.618 348.001C158.903 348.005 159.056 348.015 159.056 348.015C159.056 348.015 158.922 348.025 158.646 348.03C158.353 348.033 157.944 348.038 157.412 348.044C156.305 348.051 154.698 348.061 152.634 348.074C148.451 348.089 142.416 348.11 134.941 348.136C119.917 348.158 99.109 348.189 75.9019 348.222H75.7012V348.014C75.7012 346.563 75.7012 345.004 75.7012 343.436V343.228H75.9027H75.9065C115.094 343.228 148.275 343.29 159.056 343.374L159.117 343.374L159.117 343.437C159.101 344.99 159.09 346.138 159.082 346.912C159.076 347.275 159.071 347.549 159.068 347.748C159.063 347.931 159.059 348.018 159.056 348.015Z" fill="#263238"/>
<path d="M84.6098 264.125L67.0576 387.022H72.9117L88.7979 265.729V264.125H84.6098Z" fill="#E0E0E0"/>
<path d="M84.61 264.125C84.61 264.125 84.9312 264.111 85.619 264.102C86.3231 264.096 87.3707 264.086 88.7981 264.074L88.8475 264.073V264.125C88.8499 264.607 88.853 265.146 88.8553 265.729V265.733L88.8545 265.737C86.9562 280.867 80.6559 329.438 73.1103 387.05L73.0864 387.23H72.9104C72.6155 387.23 72.2943 387.23 71.974 387.23C70.2894 387.23 68.6127 387.23 67.0563 387.23H66.8247L66.8587 386.992C71.7763 352.778 76.1952 322.038 79.3859 299.838C80.9925 288.771 82.2902 279.835 83.1872 273.653C83.6389 270.583 83.9894 268.199 84.2295 266.57C84.3499 265.772 84.4425 265.162 84.5066 264.738C84.5707 264.327 84.61 264.125 84.61 264.125C84.61 264.125 84.5884 264.348 84.5336 264.77C84.4757 265.201 84.3923 265.821 84.2827 266.631C84.055 268.273 83.7222 270.674 83.2938 273.767C82.423 279.964 81.1654 288.922 79.6067 300.014C76.4616 322.184 72.1052 352.884 67.257 387.052L67.0586 386.814C68.615 386.814 70.2918 386.814 71.9763 386.814C72.2966 386.814 72.6178 386.814 72.9127 386.814L72.7135 386.994C80.2598 329.382 86.6798 280.828 88.7418 265.72L88.741 265.728C88.7441 265.145 88.7464 264.606 88.7487 264.124L88.7981 264.175C87.3823 264.162 86.3432 264.153 85.6453 264.146C84.9536 264.138 84.61 264.125 84.61 264.125Z" fill="#263238"/>
<path d="M150.325 264.125L168.249 387.022H162.394L146.137 265.729V264.125H150.325Z" fill="#E0E0E0"/>
<path d="M150.325 264.125C150.325 264.125 149.981 264.138 149.29 264.147C148.592 264.154 147.553 264.163 146.137 264.176L146.186 264.125C146.189 264.607 146.192 265.146 146.194 265.729L146.193 265.721C148.301 280.826 154.871 329.379 162.594 386.994L162.394 386.814C162.69 386.814 163.011 386.814 163.333 386.814C165.017 386.814 166.693 386.814 168.249 386.814L168.05 387.053C163.099 352.884 158.649 322.184 155.436 300.014C153.844 288.921 152.558 279.964 151.67 273.766C151.232 270.674 150.892 268.272 150.659 266.63C150.547 265.82 150.462 265.199 150.403 264.769C150.347 264.348 150.325 264.125 150.325 264.125C150.325 264.125 150.365 264.327 150.43 264.738C150.496 265.162 150.59 265.772 150.713 266.57C150.957 268.199 151.315 270.582 151.776 273.653C152.693 279.835 154.017 288.771 155.657 299.838C158.915 322.038 163.427 352.778 168.448 386.991L168.484 387.23H168.25C166.695 387.23 165.018 387.23 163.335 387.23C163.014 387.23 162.692 387.23 162.396 387.23H162.221L162.197 387.05C154.475 329.436 148.025 280.865 146.081 265.737L146.081 265.732V265.728C146.084 265.145 146.086 264.606 146.088 264.124V264.072L146.138 264.073C147.565 264.086 148.613 264.095 149.317 264.102C150.004 264.111 150.325 264.125 150.325 264.125Z" fill="#263238"/>
<path d="M118.071 264.125H113.068V387.022H118.071V264.125Z" fill="#E0E0E0"/>
<path d="M118.071 387.022C118.071 387.022 118.062 386.798 118.058 386.378C118.054 385.947 118.05 385.327 118.044 384.518C118.037 382.876 118.027 380.475 118.015 377.384C118 371.188 117.98 362.233 117.954 351.142C117.933 328.977 117.904 298.284 117.871 264.125L118.071 264.333C116.49 264.333 114.786 264.333 113.074 264.333H113.068L113.269 264.125C113.269 322.969 113.206 372.532 113.121 387.022L113.067 386.966C114.77 386.981 116.013 386.992 116.842 386.998C117.248 387.004 117.55 387.008 117.763 387.011C117.967 387.015 118.071 387.022 118.071 387.022C118.071 387.022 117.98 387.029 117.783 387.032C117.573 387.035 117.275 387.039 116.875 387.045C116.039 387.052 114.786 387.062 113.069 387.078L113.015 387.078V387.022C112.93 372.531 112.868 322.968 112.868 264.124V263.916H113.069H113.074C114.786 263.916 116.49 263.916 118.072 263.916H118.273V264.124C118.241 298.344 118.211 329.091 118.19 351.296C118.164 362.366 118.143 371.304 118.129 377.489C118.116 380.559 118.106 382.944 118.1 384.574C118.094 385.372 118.089 385.983 118.086 386.407C118.081 386.819 118.071 387.022 118.071 387.022Z" fill="#263238"/>
<path d="M151.318 255.911H82.6807V265.152H151.318V255.911Z" fill="#455A64"/>
<path d="M103.641 256.179C103.641 256.179 102.771 257.118 101.138 258.358C100.326 258.982 99.3065 259.651 98.1323 260.317C96.9496 260.964 95.6071 261.597 94.1488 262.126C92.6851 262.641 91.2523 263 89.9352 263.246C88.6151 263.473 87.4139 263.597 86.4026 263.624C84.3791 263.69 83.1362 263.507 83.1362 263.507C83.137 263.502 83.215 263.5 83.364 263.503C83.5593 263.51 83.7724 263.517 84.0132 263.525C84.576 263.556 85.3928 263.554 86.3979 263.506C87.4046 263.464 88.5981 263.327 89.9098 263.094C91.2175 262.842 92.6411 262.48 94.0963 261.968C95.5461 261.442 96.8817 260.818 98.0621 260.182C99.2332 259.527 100.255 258.872 101.071 258.262C101.892 257.658 102.537 257.138 102.96 256.754C103.145 256.594 103.309 256.451 103.458 256.322C103.575 256.224 103.637 256.174 103.641 256.179Z" fill="#263238"/>
<path d="M113.464 262.252C113.464 262.252 113.405 262.23 113.294 262.181C113.182 262.134 113.022 262.05 112.803 261.962C112.366 261.79 111.706 261.558 110.829 261.43C109.956 261.31 108.857 261.272 107.636 261.554C106.42 261.82 105.074 262.405 103.878 263.443L103.853 263.33C106.045 263.884 108.627 264.258 111.439 264.181C112.844 264.15 114.301 263.998 115.785 263.73C116.518 263.578 117.298 263.478 117.946 263.072C118.265 262.871 118.532 262.572 118.647 262.205C118.768 261.84 118.74 261.428 118.608 261.058C118.309 260.152 117.466 259.606 116.611 259.378C115.749 259.127 114.848 259.091 113.979 258.998C112.234 258.871 110.54 258.924 108.942 259.105C105.741 259.46 102.937 260.35 100.706 261.346C98.4658 262.337 96.7837 263.425 95.6681 264.23C95.1007 264.62 94.6884 264.966 94.402 265.189C94.1164 265.414 93.9604 265.526 93.9604 265.526C93.9604 265.526 94.1017 265.397 94.382 265.163C94.6622 264.931 95.069 264.577 95.6326 264.177C96.7404 263.354 98.4188 262.247 100.662 261.238C102.896 260.225 105.71 259.318 108.926 258.953C110.532 258.767 112.235 258.71 113.992 258.837C114.866 258.93 115.765 258.963 116.655 259.219C117.097 259.346 117.535 259.536 117.915 259.829C118.297 260.122 118.596 260.534 118.76 261.002C118.901 261.4 118.935 261.85 118.801 262.259C118.672 262.671 118.373 263 118.032 263.214C117.337 263.646 116.549 263.739 115.813 263.894C114.322 264.162 112.855 264.312 111.443 264.339C108.617 264.411 106.023 264.026 103.824 263.458L103.703 263.427L103.798 263.346C105.018 262.297 106.384 261.714 107.616 261.454C108.852 261.178 109.962 261.227 110.84 261.359C111.723 261.5 112.383 261.744 112.818 261.929C113.247 262.126 113.464 262.252 113.464 262.252Z" fill="#263238"/>
<path d="M122.352 256.149C122.352 256.149 122.526 256.162 122.816 256.282C123.105 256.4 123.506 256.639 123.896 257.058C124.281 257.476 124.649 258.082 124.816 258.835C124.988 259.586 124.921 260.464 124.622 261.294C124.014 262.988 122.644 263.982 121.659 264.454C121.156 264.697 120.728 264.839 120.429 264.922C120.279 264.963 120.163 264.992 120.083 265.007C120.002 265.023 119.961 265.029 119.959 265.023C119.956 265.01 120.12 264.962 120.411 264.86C120.702 264.758 121.119 264.6 121.609 264.347C122.568 263.854 123.884 262.872 124.471 261.234C124.76 260.433 124.827 259.59 124.671 258.869C124.518 258.145 124.174 257.553 123.813 257.138C123.066 256.295 122.326 256.189 122.352 256.149Z" fill="#263238"/>
<path d="M133.099 256.108C133.112 256.142 132.479 256.321 131.595 256.894C130.711 257.457 129.624 258.469 128.717 259.822C127.81 261.175 127.204 262.542 126.77 263.524C126.589 263.94 126.421 264.327 126.26 264.694C126.138 264.97 126.066 265.121 126.056 265.117C126.046 265.113 126.099 264.954 126.202 264.67C126.307 264.386 126.462 263.978 126.665 263.477C127.075 262.48 127.667 261.097 128.585 259.726C129.503 258.356 130.623 257.338 131.536 256.794C131.991 256.518 132.383 256.339 132.66 256.239C132.797 256.184 132.909 256.156 132.983 256.133C133.058 256.111 133.098 256.102 133.099 256.108Z" fill="#263238"/>
<path d="M144.956 261.577C144.956 261.577 144.817 261.515 144.558 261.394C144.296 261.282 143.903 261.122 143.378 260.998C142.346 260.754 140.685 260.637 138.935 261.51C138.724 261.618 138.508 261.753 138.38 261.957C138.249 262.159 138.279 262.438 138.454 262.622C138.803 262.995 139.372 263.138 139.894 263.346C140.965 263.729 142.156 264.005 143.426 264.116C144.695 264.229 146.044 264.181 147.407 263.912C148.077 263.776 148.777 263.564 149.305 263.088C149.848 262.622 150.016 261.8 149.74 261.111C149.488 260.407 148.908 259.902 148.277 259.581C147.641 259.257 146.952 259.066 146.28 258.899C144.929 258.58 143.581 258.478 142.309 258.563C139.756 258.719 137.55 259.607 135.919 260.662C134.275 261.719 133.174 262.903 132.481 263.756C132.139 264.19 131.889 264.54 131.727 264.782C131.565 265.026 131.474 265.15 131.474 265.15C131.474 265.15 131.759 264.599 132.433 263.715C133.115 262.846 134.209 261.64 135.859 260.562C137.496 259.486 139.721 258.575 142.301 258.41C143.585 258.32 144.948 258.419 146.315 258.74C146.996 258.908 147.689 259.098 148.348 259.433C148.999 259.761 149.621 260.298 149.89 261.052C150.025 261.422 150.075 261.831 149.991 262.221C149.908 262.61 149.692 262.957 149.412 263.213C148.843 263.724 148.121 263.934 147.437 264.074C146.059 264.342 144.695 264.388 143.415 264.27C142.132 264.154 140.931 263.87 139.851 263.478C139.58 263.382 139.319 263.274 139.063 263.167C138.807 263.059 138.552 262.925 138.362 262.707C138.159 262.498 138.116 262.13 138.281 261.891C138.434 261.651 138.667 261.515 138.886 261.404C140.676 260.53 142.357 260.67 143.394 260.934C144.451 261.214 144.956 261.577 144.956 261.577Z" fill="#263238"/>
<path d="M100.458 138.421C100.458 138.421 96.742 139.648 94.477 143.806C92.232 147.927 92.8311 149.962 93.4186 152.397C94.0061 154.831 95.0405 159.665 95.0984 159.354C95.1563 159.042 100.458 138.421 100.458 138.421Z" fill="#FFBF9D"/>
<path d="M100.708 138.421L105.431 135.516L127.394 127.002L123.083 165.257L106.871 175.834L97.2653 170.854L96.3042 159.782L100.708 138.421Z" fill="#FFBF9D"/>
<path d="M100.133 196.637L91.5511 208.178L80.9152 205.584L72.4062 210.512L74.6582 214.662L97.2361 216.23L105.191 199.23L100.133 196.637Z" fill="#7C3B29"/>
<path d="M74.0874 307.378L82.7477 326.828L96.7232 320.138L87.7649 296.066L74.0874 307.378Z" fill="#FFBF9D"/>
<path d="M81.1111 325.53L86.1708 335.528C86.1708 335.528 73.219 349.406 74.4356 352.508L104.883 337.38L96.5187 317.324L81.1111 325.53Z" fill="#18B8C4"/>
<path d="M94.9538 329.483C95.62 329.358 96.3449 329.842 96.4939 330.526C96.6429 331.211 96.1735 331.979 95.5096 332.118C94.8457 332.256 93.9579 331.702 93.8845 331.004C93.8112 330.306 94.4087 329.435 95.0858 329.466" fill="#E0E0E0"/>
<g opacity="0.6">
<path d="M104.883 337.381L103.616 334.866L74.897 350.31C74.897 350.31 73.824 351.595 74.4354 352.508L104.883 337.381Z" fill="white"/>
</g>
<path d="M85.6032 335.613C85.6796 335.765 86.4555 335.465 87.4159 335.597C88.3801 335.702 89.0656 336.182 89.1745 336.054C89.298 335.955 88.6495 335.145 87.4838 335.006C86.3196 334.858 85.5052 335.488 85.6032 335.613Z" fill="#263238"/>
<path d="M83.0433 338.569C83.0781 338.735 83.8431 338.677 84.6499 339.078C85.4674 339.454 85.9213 340.095 86.0657 340.015C86.2162 339.97 85.902 339.017 84.89 338.538C83.8825 338.05 82.9785 338.42 83.0433 338.569Z" fill="#263238"/>
<path d="M83.0616 343.43C83.2122 343.396 83.0624 342.523 82.2904 341.87C81.5223 341.21 80.6677 341.225 80.6638 341.385C80.6383 341.554 81.2992 341.782 81.9253 342.329C82.5637 342.86 82.9072 343.489 83.0616 343.43Z" fill="#263238"/>
<path d="M84.1512 331.762C84.2786 331.871 84.8623 331.319 85.73 330.961C86.5908 330.584 87.3797 330.551 87.396 330.381C87.4307 330.226 86.5282 329.974 85.5115 330.41C84.4925 330.839 84.0223 331.677 84.1512 331.762Z" fill="#263238"/>
<path d="M83.2569 329.763C83.2345 329.773 83.1071 329.56 82.9782 329.129C82.8531 328.7 82.735 328.04 82.8331 327.226C82.8616 327.026 82.8848 326.812 82.9782 326.582C83.0639 326.356 83.2793 326.106 83.5858 326.074C83.7348 326.051 83.9208 326.107 84.0374 326.234C84.1586 326.362 84.2049 326.524 84.225 326.666C84.2597 326.962 84.218 327.206 84.2103 327.467C84.1694 328.001 84.1694 328.512 84.0876 329.132C84.0474 329.448 83.7973 329.819 83.4568 329.923C83.1287 330.04 82.8053 330.013 82.5027 329.963C81.9105 329.858 81.3493 329.68 80.8305 329.451C80.5711 329.336 80.3225 329.208 80.0863 329.07C79.8586 328.93 79.6061 328.799 79.4116 328.542C79.2217 328.294 79.1499 327.879 79.3938 327.599C79.647 327.327 79.9728 327.359 80.2044 327.398C80.6939 327.52 81.0482 327.721 81.401 327.909C82.0865 328.296 82.5683 328.725 82.874 329.04C83.1782 329.358 83.3132 329.565 83.2947 329.582C83.2445 329.641 82.62 328.866 81.2705 328.171C80.9417 328.011 80.5364 327.819 80.1481 327.739C79.9535 327.706 79.7412 327.729 79.6586 327.842C79.5636 327.943 79.5845 328.154 79.7042 328.307C79.8246 328.467 80.0446 328.592 80.2716 328.722C80.4978 328.85 80.7348 328.969 80.9818 329.075C81.4759 329.287 82.0109 329.453 82.5683 329.553C82.8362 329.599 83.1087 329.611 83.321 329.534C83.534 329.457 83.6537 329.294 83.7008 329.048C83.7726 328.541 83.7919 327.95 83.839 327.442C83.8544 327.182 83.8953 326.916 83.873 326.717C83.849 326.507 83.7602 326.409 83.6166 326.42C83.2847 326.442 83.1689 326.903 83.1125 327.273C82.8778 328.807 83.338 329.75 83.2569 329.763Z" fill="#263238"/>
<path d="M73.891 314.057L51.8311 257.172C51.8311 257.172 52.3444 247.071 54.1401 243.881C55.9358 240.691 110.316 222.084 110.316 222.084C110.316 222.084 124.168 218.628 133.402 222.084C142.637 225.539 149.562 237.502 148.28 244.146C146.998 250.792 141.585 255.674 141.585 255.674L101.595 256.906L79.7983 265.146L94.4771 308.739C94.4771 308.739 86.9733 317.246 73.891 314.057Z" fill="#263238"/>
<path d="M54.3548 275.919L53.8398 297.333L69.2297 297.723L71.4468 272.026L54.3548 275.919Z" fill="#FFBF9D"/>
<path d="M52.9241 295.42L53.2051 306.706C53.2051 306.706 35.6715 313.234 35.4414 316.574L69.2064 316.928L70.2447 295.106L52.9241 295.42Z" fill="#18B8C4"/>
<path d="M63.6605 305.3C64.3121 305.492 64.756 306.258 64.5977 306.941C64.4394 307.623 63.6914 308.098 63.0367 307.918C62.3821 307.738 61.8216 306.835 62.0524 306.175C62.2832 305.515 63.1911 305.008 63.7848 305.346" fill="#E0E0E0"/>
<g opacity="0.6">
<path d="M69.2059 316.928L69.1403 314.092L36.7919 314.813C36.7919 314.813 35.2819 315.474 35.4409 316.574L69.2059 316.928Z" fill="white"/>
</g>
<path d="M52.6596 306.522C52.6634 306.694 53.4872 306.779 54.2924 307.338C55.1122 307.874 55.5237 308.618 55.6758 308.552C55.8279 308.52 55.5924 307.496 54.605 306.838C53.6238 306.172 52.6248 306.365 52.6596 306.522Z" fill="#263238"/>
<path d="M49.1031 308.003C49.0638 308.168 49.7748 308.466 50.3283 309.195C50.9019 309.907 51.0354 310.69 51.1999 310.684C51.3543 310.713 51.4786 309.713 50.7745 308.821C50.0774 307.922 49.1085 307.84 49.1031 308.003Z" fill="#263238"/>
<path d="M47.0487 312.374C47.1984 312.412 47.4362 311.561 47.0217 310.621C46.614 309.678 45.8397 309.3 45.7687 309.442C45.6737 309.581 46.1701 310.089 46.4982 310.866C46.8449 311.634 46.885 312.355 47.0487 312.374Z" fill="#263238"/>
<path d="M52.9968 302.402C53.0647 302.558 53.8228 302.33 54.7546 302.406C55.6872 302.462 56.409 302.793 56.497 302.647C56.5935 302.525 55.8918 301.885 54.794 301.812C53.6962 301.731 52.9173 302.266 52.9968 302.402Z" fill="#263238"/>
<path d="M53.0466 300.2C53.0226 300.199 52.9987 299.949 53.0666 299.503C53.1369 299.062 53.3121 298.414 53.7468 297.73C53.8579 297.562 53.9691 297.382 54.1521 297.218C54.325 297.054 54.6253 296.929 54.9132 297.04C55.0561 297.088 55.1997 297.224 55.2498 297.39C55.3039 297.56 55.2769 297.727 55.2344 297.863C55.1402 298.144 54.9989 298.344 54.8801 298.575C54.616 299.036 54.3983 299.494 54.061 300.013C53.8903 300.278 53.5074 300.497 53.1577 300.434C52.8134 300.389 52.5355 300.217 52.2846 300.034C51.7982 299.668 51.3705 299.252 51.0023 298.809C50.8186 298.587 50.6503 298.358 50.4974 298.126C50.3523 297.897 50.1817 297.663 50.1176 297.343C50.0527 297.034 50.1654 296.63 50.5028 296.49C50.8456 296.362 51.1243 296.539 51.3157 296.68C51.7033 297.013 51.9356 297.355 52.1719 297.686C52.622 298.346 52.8713 298.952 53.0118 299.374C53.1492 299.8 53.1824 300.046 53.1585 300.054C53.089 300.084 52.8582 299.102 51.9441 297.862C51.7172 297.568 51.4354 297.21 51.1212 296.961C50.9606 296.842 50.7599 296.766 50.6387 296.829C50.5105 296.877 50.4387 297.076 50.4812 297.268C50.5206 297.466 50.6657 297.679 50.8139 297.901C50.9622 298.118 51.125 298.334 51.3011 298.542C51.6539 298.959 52.0638 299.352 52.5208 299.697C52.7408 299.861 52.9809 299.996 53.2048 300.024C53.4287 300.053 53.6055 299.961 53.7529 299.762C54.0339 299.34 54.3026 298.818 54.5612 298.384C54.6855 298.158 54.8353 297.938 54.9001 297.749C54.9681 297.55 54.9302 297.421 54.7967 297.366C54.4887 297.234 54.1899 297.594 53.9814 297.9C53.1137 299.169 53.1253 300.226 53.0466 300.2Z" fill="#263238"/>
<path d="M63.3417 216.467C63.3417 216.467 54.121 215.703 53.095 226.07C52.069 236.438 51.0615 284.817 51.0615 284.817L72.6088 286.678L75.9439 237.236L110.316 222.085C110.316 222.085 69.4977 215.138 63.3417 216.467Z" fill="#263238"/>
<path d="M101.347 202.478C101.347 202.478 95.7506 218.736 96.8167 220.548C97.8828 222.36 112.273 229.816 112.273 229.816L148.281 244.146C148.281 244.146 151.978 238.05 151.978 228.686C151.978 219.322 139.453 202.478 139.453 202.478H101.347Z" fill="#263238"/>
<path d="M112.02 221.254C112.022 221.26 111.965 221.292 111.851 221.349C111.719 221.412 111.55 221.493 111.339 221.593C110.865 221.813 110.198 222.12 109.345 222.513C107.578 223.311 105.039 224.457 101.861 225.892C95.4386 228.757 86.4363 232.773 76.0197 237.419L76.1363 237.25C75.8097 242.133 75.4562 247.408 75.091 252.865C74.2156 265.621 73.408 277.383 72.7688 286.689L72.7573 286.857L72.5959 286.843C66.0424 286.247 60.6646 285.758 56.8988 285.415C55.0476 285.236 53.5931 285.095 52.5764 284.997C52.0978 284.945 51.7233 284.905 51.447 284.875C51.1922 284.845 51.0617 284.825 51.0625 284.817C51.0633 284.808 51.1953 284.811 51.4508 284.825C51.728 284.843 52.1039 284.867 52.5841 284.898C53.6024 284.976 55.0584 285.086 56.9135 285.227C60.6824 285.535 66.064 285.975 72.6221 286.512L72.4492 286.665C73.066 277.358 73.845 265.594 74.6896 252.836C75.0601 247.379 75.4191 242.105 75.7511 237.221L75.7596 237.099L75.8676 237.051C86.3066 232.459 95.3282 228.491 101.764 225.66C104.961 224.27 107.515 223.161 109.294 222.388C110.158 222.021 110.832 221.733 111.312 221.529C111.529 221.441 111.702 221.371 111.837 221.316C111.956 221.27 112.017 221.249 112.02 221.254Z" fill="#455A64"/>
<path d="M140.656 222.881C140.647 222.908 140.287 222.804 139.646 222.594C138.931 222.355 138.021 222.051 136.934 221.689C134.647 220.937 131.473 219.889 127.861 219.313C124.249 218.735 120.907 218.914 118.572 219.437C116.227 219.939 114.88 220.633 114.85 220.554C114.84 220.533 115.166 220.342 115.786 220.063C116.405 219.782 117.333 219.442 118.511 219.149C120.862 218.544 124.264 218.315 127.921 218.901C131.576 219.484 134.756 220.585 137.025 221.41C138.16 221.827 139.071 222.186 139.697 222.442C140.324 222.698 140.666 222.854 140.656 222.881Z" fill="#455A64"/>
<path d="M135.566 214.311C135.556 214.378 134.36 214.136 132.418 214.293C131.448 214.362 130.294 214.517 129.009 214.671C127.726 214.83 126.318 215.008 124.861 215.294C121.936 215.834 119.418 216.89 117.805 218.006C116.177 219.104 115.415 220.106 115.359 220.049C115.343 220.035 115.508 219.767 115.882 219.346C116.255 218.927 116.834 218.347 117.646 217.762C119.251 216.558 121.824 215.43 124.786 214.884C126.262 214.594 127.681 214.426 128.969 214.288C130.256 214.155 131.418 214.03 132.403 213.997C133.388 213.96 134.188 214.018 134.733 214.105C135.279 214.191 135.571 214.286 135.566 214.311Z" fill="#455A64"/>
<path d="M100.458 138.421C100.458 138.421 94.338 158.767 94.4769 164.593C94.6159 170.418 96.9489 186.962 96.6818 190.225C96.4147 193.487 97.5101 202.478 101.347 202.478C105.184 202.478 139.454 202.478 139.454 202.478C139.454 202.478 148.06 200.011 148.434 194.652C148.807 189.293 136.89 137.33 136.89 137.33C136.89 137.33 134.641 127.777 131.494 127.078C128.345 126.378 124.83 127.07 122.721 133.826C120.614 140.584 119.906 150.089 115.408 154.75C110.911 159.41 104.51 164.645 104.51 164.645C104.51 164.645 99.3382 160.166 99.1136 154.108C98.8889 148.05 101.07 138.226 101.07 138.226L100.458 138.421Z" fill="#18B8C4"/>
<path d="M140.573 141.966C139.634 140.382 138.065 139.279 136.383 138.63C134.702 137.982 132.901 137.747 131.114 137.582C129.515 137.435 127.88 137.343 126.326 137.761C124.772 138.178 124.126 140.174 123.478 141.695C122.437 148.505 122.792 155.539 124.509 162.2C124.766 163.196 125.064 164.206 125.652 165.036C126.224 165.844 127.035 166.43 127.848 166.972C129.198 167.87 130.661 168.705 132.26 168.832C135.116 169.058 137.751 166.914 139.084 164.287C140.417 161.661 140.717 158.622 140.992 155.668C141.164 153.822 141.337 151.975 141.51 150.13C141.77 147.351 141.983 144.346 140.573 141.966Z" fill="#FFBF9D"/>
<path d="M106.105 202.917C106.091 202.958 105.447 202.762 104.597 202.091C103.745 201.434 102.758 200.254 102.049 198.746C101.34 197.238 100.981 195.768 100.752 194.714C100.529 193.654 100.437 192.992 100.489 192.979C100.545 192.965 100.735 193.606 101.027 194.64C101.325 195.67 101.723 197.102 102.41 198.562C103.096 200.02 104.003 201.173 104.778 201.863C105.547 202.565 106.136 202.854 106.105 202.917Z" fill="#263238"/>
<path d="M126.268 177.702C126.282 177.722 126.062 177.93 125.629 178.262C125.195 178.591 124.534 179.028 123.657 179.452C122.782 179.878 121.677 180.264 120.404 180.463C119.134 180.649 117.693 180.638 116.246 180.277C113.322 179.573 111.123 177.786 109.777 176.387C109.097 175.678 108.611 175.044 108.29 174.598C107.977 174.144 107.822 173.882 107.843 173.866C107.901 173.818 108.592 174.825 109.975 176.176C111.35 177.501 113.517 179.194 116.337 179.871C119.153 180.578 121.823 179.954 123.542 179.182C125.288 178.413 126.224 177.632 126.268 177.702Z" fill="#263238"/>
<path d="M105.632 202.186C105.55 202.254 105.026 201.633 104.845 200.662C104.658 199.693 104.917 198.912 105.018 198.944C105.133 198.966 105.068 199.707 105.24 200.582C105.4 201.459 105.73 202.12 105.632 202.186Z" fill="#263238"/>
<path d="M121.421 141.873C121.437 141.918 121.001 141.875 120.488 142.362C120.245 142.604 119.998 142.978 119.89 143.472C119.782 143.954 119.823 144.592 120.24 145.052L120.375 145.201L120.183 145.26C119.355 145.515 118.507 146.212 118.029 147.266C117.549 148.293 117.424 149.713 118.104 150.869L118.337 151.263L117.906 151.146C117.008 150.904 115.903 151.243 115.267 152.073C114.632 152.89 114.547 154.205 115.145 155.145L114.789 155.327C114.585 154.673 113.736 154.416 113.025 154.62C112.261 154.794 111.76 155.478 111.522 156.237C111.274 156.995 111.231 157.812 111.195 158.606L111.143 159.755L110.814 158.658C110.64 158.076 109.946 157.774 109.375 157.872C108.796 157.96 108.329 158.452 108.089 158.994C107.581 160.12 107.889 161.363 108.121 162.422L107.81 162.457C107.822 161.904 107.529 161.405 107.154 161.076C106.771 160.751 106.304 160.573 105.868 160.583C104.959 160.59 104.426 161.405 104.313 162.029C104.171 162.682 104.331 163.214 104.496 163.517C104.668 163.825 104.821 163.943 104.804 163.963C104.804 163.963 104.625 163.876 104.418 163.567C104.217 163.263 104.013 162.703 104.14 161.992C104.204 161.645 104.34 161.253 104.63 160.924C104.91 160.592 105.355 160.338 105.861 160.321C106.364 160.296 106.895 160.486 107.337 160.846C107.767 161.209 108.129 161.783 108.126 162.463L108.119 163.778L107.815 162.498C107.687 161.959 107.546 161.386 107.492 160.765C107.436 160.15 107.482 159.464 107.764 158.835C108.034 158.218 108.562 157.614 109.319 157.485C110.026 157.364 110.911 157.698 111.188 158.536L110.808 158.588C110.841 157.787 110.877 156.939 111.146 156.102C111.281 155.686 111.485 155.279 111.775 154.932C112.072 154.57 112.491 154.33 112.928 154.214C113.356 154.108 113.811 154.098 114.233 154.255C114.657 154.393 115.023 154.758 115.169 155.189L115.722 156.826L114.813 155.371C114.12 154.262 114.224 152.78 114.969 151.822C115.718 150.865 116.962 150.498 117.999 150.785L117.801 151.063C117.05 149.753 117.223 148.215 117.752 147.124C118.282 146.002 119.216 145.264 120.119 145.014L120.063 145.222C119.584 144.661 119.572 143.938 119.707 143.422C119.845 142.89 120.128 142.502 120.403 142.258C120.683 142.012 120.959 141.922 121.14 141.881C121.324 141.86 121.421 141.862 121.421 141.873Z" fill="#18B8C4"/>
<path d="M100.648 138.542C100.656 138.538 100.694 138.587 100.755 138.695C100.807 138.806 100.877 138.984 100.892 139.23C100.906 139.473 100.869 139.786 100.714 140.11C100.559 140.426 100.275 140.774 99.826 140.922L99.8622 140.733C100.45 141.207 100.934 142.089 100.945 143.147C100.969 144.173 100.541 145.457 99.4129 146.122L99.4299 145.822C100.392 146.51 100.749 147.909 100.492 149.174C100.227 150.47 99.4168 151.579 98.6085 152.638L98.292 152.386C98.8779 151.614 100.099 151.776 100.611 152.57C101.073 153.289 101.002 154.188 100.688 154.88C100.367 155.582 99.8507 156.108 99.3597 156.58L99.1605 156.241C100.423 155.802 101.798 156.668 102.042 157.884C102.27 159.101 101.503 160.256 100.519 160.55L100.072 160.683L100.341 160.29C100.72 159.737 101.395 159.583 101.921 159.668C102.462 159.746 102.934 160.003 103.281 160.344C103.986 161.066 104.077 161.98 104.107 162.638C104.119 163.318 104.036 163.839 103.981 164.19C103.921 164.541 103.878 164.724 103.862 164.722C103.805 164.718 103.969 163.964 103.921 162.647C103.873 162.015 103.735 161.146 103.103 160.543C102.789 160.249 102.356 160.028 101.884 159.971C101.418 159.91 100.891 160.053 100.605 160.486L100.427 160.226C101.238 159.981 101.892 158.954 101.686 157.963C101.497 156.984 100.296 156.25 99.2933 156.622L98.4016 156.951L99.0941 156.282C99.5751 155.818 100.05 155.318 100.326 154.706C100.598 154.113 100.636 153.347 100.281 152.807C99.924 152.215 98.959 152.128 98.6131 152.634L98.2966 152.382C99.1088 151.329 99.8761 150.268 100.123 149.094C100.366 147.946 100.042 146.698 99.2362 146.112L99.0115 145.949L99.2539 145.812C100.241 145.254 100.667 144.101 100.664 143.151C100.674 142.174 100.254 141.362 99.7325 140.904L99.5789 140.77L99.7688 140.714C100.151 140.604 100.418 140.312 100.572 140.031C100.727 139.745 100.779 139.46 100.782 139.234C100.779 138.772 100.619 138.554 100.648 138.542Z" fill="#18B8C4"/>
<g opacity="0.3">
<path d="M108.48 174.774C108.77 177.756 110.145 180.651 112.395 182.534C114.644 184.416 117.77 185.199 120.55 184.375C123.33 183.551 125.637 181.059 126.119 178.105C124.159 179.03 122.168 179.966 120.039 180.299C115.499 181.01 110.652 178.639 108.296 174.555C108.4 174.669 108.503 174.782 108.607 174.895" fill="black"/>
</g>
<g opacity="0.3">
<path d="M100.477 193.599C99.9017 196.582 100.977 199.846 103.192 201.842C103.669 202.271 104.307 202.664 104.902 202.442C102.765 199.862 101.247 196.734 100.521 193.418" fill="black"/>
</g>
<path d="M130.343 135.26C130.343 135.26 121.721 136.656 123.806 149.361C125.893 162.066 140.831 183.574 140.831 183.574L108.218 204.157L112.019 213.305L154.318 195.263C154.318 195.263 158.487 190.816 157.016 185.862C155.544 180.906 144.641 149.72 144.641 149.72C144.641 149.72 140.641 133.1 130.343 135.26Z" fill="#FFBF9D"/>
<path d="M79.7978 211.97L91.4612 204.335L106.924 205.088L108.218 204.157L112.019 213.305C112.019 213.305 107.858 215.366 105.678 215.55L92.1923 214.491L77.8647 213.374L79.7978 211.97Z" fill="#FFBF9D"/>
<path d="M140.752 183.827C140.729 183.843 140.461 183.474 139.995 182.794C139.528 182.114 138.873 181.116 138.082 179.87C136.497 177.38 134.391 173.881 132.224 169.921C130.058 165.958 128.243 162.288 126.995 159.599C126.37 158.255 125.88 157.161 125.558 156.396C125.234 155.633 125.066 155.205 125.092 155.193C125.117 155.181 125.332 155.585 125.699 156.326C126.098 157.133 126.62 158.191 127.25 159.468C128.561 162.119 130.412 165.76 132.573 169.715C134.736 173.667 136.799 177.183 138.321 179.711C139.054 180.927 139.663 181.935 140.126 182.704C140.55 183.412 140.775 183.811 140.752 183.827Z" fill="#7C3B29"/>
<path d="M148.766 186.72C148.689 186.825 147.149 185.483 144.863 184.619C142.585 183.729 140.573 183.704 140.581 183.573C140.562 183.474 142.642 183.308 145.002 184.228C147.37 185.126 148.842 186.658 148.766 186.72Z" fill="#7C3B29"/>
<path d="M32.8457 173.865C33.1437 174.79 44.8449 215.55 44.8449 215.55L112.02 220.548L114.487 216.23L76.9871 213.305L66.4509 171.482C66.0124 169.742 64.3703 168.63 62.6565 168.915L32.8457 173.865Z" fill="#455A64"/>
<path d="M54.4206 190.549C54.9881 191.761 54.751 193.095 53.8918 193.526C53.0326 193.958 51.8761 193.325 51.3087 192.113C50.7413 190.9 50.9783 189.567 51.8375 189.135C52.6968 188.705 53.8532 189.337 54.4206 190.549Z" fill="#FAFAFA"/>
<path d="M113.189 218.502C113.188 218.508 113.123 218.51 112.994 218.506C112.843 218.5 112.656 218.492 112.423 218.482C111.891 218.45 111.157 218.406 110.223 218.35C108.281 218.215 105.515 218.024 102.09 217.787C95.1707 217.271 85.5964 216.558 74.837 215.756L74.698 215.746L74.6594 215.606C74.2966 214.295 73.9114 212.903 73.5215 211.495C70.3077 199.788 67.3996 189.192 65.2843 181.487C64.2552 177.665 63.4199 174.561 62.8324 172.381C62.5576 171.326 62.3406 170.496 62.1855 169.899C62.1206 169.634 62.0681 169.42 62.0272 169.251C61.994 169.105 61.9801 169.029 61.9863 169.026C61.9925 169.024 62.0203 169.097 62.0666 169.239C62.1175 169.405 62.1824 169.614 62.2634 169.876C62.4364 170.468 62.6772 171.29 62.9829 172.336C63.5998 174.508 64.4768 177.599 65.5576 181.406C67.7014 189.102 70.6497 199.686 73.9075 211.381C74.2966 212.79 74.6811 214.182 75.0439 215.493L74.8663 215.343C85.6226 216.198 95.1931 216.958 102.11 217.508C105.531 217.798 108.294 218.033 110.235 218.198C111.167 218.285 111.899 218.354 112.429 218.404C112.66 218.43 112.847 218.45 112.997 218.467C113.124 218.483 113.19 218.495 113.189 218.502Z" fill="#263238"/>
<path d="M122.645 93.9521L122.583 90.8201L104.305 88.0073C98.6885 87.6297 92.8684 93.6921 92.7426 99.5225C92.6029 106.001 92.6785 113.916 93.6057 118.706C95.4708 128.338 102.69 129.271 102.69 129.271L103.106 138.894L123.806 138.293L122.645 93.9521Z" fill="#FFBF9D"/>
<path d="M96.6152 106.3C96.6183 106.958 97.1587 107.497 97.8211 107.506C98.4827 107.514 99.0169 106.99 99.0138 106.333C99.0108 105.675 98.4704 105.135 97.8095 105.126C97.1472 105.117 96.6122 105.642 96.6152 106.3Z" fill="#263238"/>
<path d="M94.8819 103.558C95.037 103.714 95.9186 102.979 97.2102 102.928C98.4994 102.858 99.4737 103.506 99.6073 103.337C99.6737 103.262 99.51 102.975 99.0854 102.681C98.667 102.388 97.9629 102.116 97.1585 102.153C96.3548 102.191 95.6901 102.526 95.3134 102.857C94.9289 103.19 94.8054 103.489 94.8819 103.558Z" fill="#263238"/>
<path d="M108.685 106.032C108.688 106.69 109.228 107.229 109.89 107.238C110.552 107.246 111.086 106.722 111.083 106.065C111.08 105.407 110.54 104.867 109.878 104.858C109.216 104.849 108.681 105.374 108.685 106.032Z" fill="#263238"/>
<path d="M107.583 103.274C107.738 103.43 108.621 102.695 109.911 102.644C111.2 102.574 112.175 103.222 112.309 103.053C112.374 102.978 112.213 102.691 111.787 102.398C111.369 102.104 110.664 101.832 109.86 101.87C109.056 101.908 108.392 102.243 108.015 102.574C107.631 102.906 107.507 103.205 107.583 103.274Z" fill="#263238"/>
<path d="M103.286 113.394C103.289 113.318 102.481 113.207 101.174 113.09C100.843 113.068 100.528 113.014 100.464 112.782C100.376 112.538 100.5 112.165 100.644 111.761C100.921 110.921 101.212 110.041 101.517 109.118C102.726 105.358 103.587 102.27 103.44 102.222C103.294 102.172 102.195 105.181 100.985 108.942C100.695 109.869 100.418 110.752 100.154 111.598C100.044 111.991 99.8468 112.44 100.035 112.946C100.134 113.197 100.383 113.372 100.597 113.422C100.811 113.48 100.996 113.476 101.16 113.479C102.472 113.498 103.284 113.47 103.286 113.394Z" fill="#263238"/>
<path d="M102.695 129.297C102.695 129.297 109.324 129.42 115.408 125.274C115.408 125.274 112.514 132.194 102.796 131.714L102.695 129.297Z" fill="#7C3B29"/>
<path d="M103.957 116.595C104.397 115.939 105.196 115.556 106.008 115.612C106.571 115.651 107.148 115.907 107.506 116.366C107.865 116.824 107.962 117.492 107.671 117.956C107.343 118.478 106.618 118.626 105.995 118.47C105.372 118.314 104.825 117.917 104.305 117.519C104.162 117.409 104.014 117.294 103.921 117.139C103.828 116.984 103.801 116.778 103.904 116.642" fill="#7C3B29"/>
<path d="M107.122 114.159C106.911 114.155 106.966 115.608 105.806 116.689C104.649 117.774 103.149 117.673 103.146 117.877C103.13 117.969 103.49 118.145 104.121 118.136C104.74 118.132 105.636 117.888 106.345 117.227C107.052 116.564 107.334 115.707 107.359 115.11C107.387 114.5 107.217 114.147 107.122 114.159Z" fill="#263238"/>
<path d="M107.044 98.0449C107.186 98.4033 108.468 98.1769 109.99 98.3017C111.515 98.3961 112.755 98.8041 112.942 98.4689C113.026 98.3089 112.799 97.9761 112.292 97.6441C111.789 97.3129 110.994 97.0121 110.081 96.9449C109.168 96.8801 108.341 97.0649 107.798 97.3209C107.252 97.5769 106.983 97.8745 107.044 98.0449Z" fill="#263238"/>
<path d="M95.2045 99.6665C95.4439 99.9609 96.3209 99.6081 97.3893 99.5481C98.4562 99.4497 99.3726 99.6689 99.5687 99.3425C99.6536 99.1841 99.4992 98.8857 99.0923 98.6145C98.6909 98.3441 98.0301 98.1377 97.2959 98.1913C96.5617 98.2465 95.9356 98.5481 95.5759 98.8753C95.2107 99.2041 95.0988 99.5217 95.2045 99.6665Z" fill="#263238"/>
<path d="M90.3379 87.7753C91.8425 91.1673 95.22 96.2161 98.8052 96.5809C102.391 96.9457 106.108 95.2113 108.221 92.1873C108.824 94.9377 111.815 96.3345 114.51 96.7273C116.415 97.0049 118.419 96.9777 120.188 96.1945C121.958 95.4113 123.452 93.7625 123.698 91.7849C123.942 89.8065 121.13 85.0289 119.231 84.7073" fill="#263238"/>
<path d="M119.531 137.326C119.703 140.457 121.997 143.338 124.93 144.108C124.836 146.653 126.712 149.122 129.121 149.624C131.53 150.126 134.181 148.599 135.044 146.214C135.27 145.59 135.393 144.903 135.792 144.379C136.708 143.177 138.495 143.415 139.901 142.943C142.435 142.093 143.532 138.875 143.246 136.131C143.19 135.59 143.094 135.044 143.171 134.506C143.329 133.404 144.16 132.564 144.779 131.654C147.328 127.911 146.266 122.475 143.44 118.953C142.498 117.778 141.309 116.551 141.396 115.026C141.444 114.174 141.896 113.414 142.196 112.619C143.168 110.045 142.412 106.874 140.394 105.066C140.084 104.788 139.73 104.511 139.622 104.102C139.553 103.842 139.596 103.566 139.627 103.299C140.086 99.244 136.938 95.1224 133.023 94.6544C132.788 94.6264 132.544 94.6072 132.333 94.4936C131.732 94.1688 131.713 93.3104 131.635 92.612C131.426 90.768 130.051 87.324 128.688 86.1184C124.912 82.776 121.251 85.496 119.946 86.768C119.946 86.768 117.36 100.05 117.861 102.522C118.36 104.995 120.115 111.164 119.42 113.965C118.725 116.766 117.587 122.502 118.679 125.028C119.773 127.556 119.531 137.326 119.531 137.326Z" fill="#263238"/>
<path d="M133.659 94.6033C133.674 94.6273 133.497 94.7745 133.16 95.0225C132.826 95.2753 132.315 95.5977 131.663 95.9553C130.36 96.6737 128.431 97.4513 126.197 97.8353C123.96 98.2113 121.892 98.1137 120.436 97.8641C119.707 97.7417 119.123 97.6049 118.73 97.4761C118.335 97.3529 118.121 97.2721 118.128 97.2441C118.145 97.1745 119.026 97.4041 120.474 97.5721C121.918 97.7433 123.941 97.7921 126.132 97.4241C128.32 97.0481 130.222 96.3321 131.537 95.6913C132.856 95.0529 133.621 94.5433 133.659 94.6033Z" fill="#455A64"/>
<path d="M134.89 95.5433C134.916 95.5545 134.818 95.8337 134.617 96.3329C134.52 96.5849 134.391 96.8873 134.209 97.2217C134.029 97.5577 133.846 97.9545 133.579 98.3529C133.09 99.1785 132.404 100.094 131.559 101.032C130.696 101.95 129.663 102.88 128.473 103.704C127.274 104.513 126.042 105.13 124.887 105.59C123.723 106.026 122.64 106.318 121.715 106.459C121.257 106.557 120.833 106.575 120.465 106.613C120.096 106.655 119.777 106.659 119.516 106.652C118.994 106.647 118.708 106.63 118.708 106.602C118.705 106.518 119.859 106.537 121.665 106.17C122.568 105.994 123.622 105.678 124.756 105.232C125.88 104.762 127.079 104.147 128.253 103.356C129.417 102.55 130.434 101.65 131.294 100.765C132.136 99.8609 132.832 98.9825 133.343 98.1905C134.378 96.6153 134.816 95.5089 134.89 95.5433Z" fill="#455A64"/>
<path d="M128.188 144.882C128.19 144.86 128.349 144.887 128.638 144.83C128.922 144.77 129.341 144.593 129.715 144.163C130.09 143.742 130.406 143.083 130.416 142.259C130.445 141.438 130.212 140.517 129.931 139.502C129.676 138.498 129.328 137.282 129.73 136.011C130.126 134.753 131.103 133.782 131.974 132.746C132.409 132.226 132.839 131.671 133.09 131.031C133.359 130.399 133.326 129.658 133.032 129.026C132.734 128.389 132.181 127.879 131.58 127.43C130.977 126.977 130.31 126.576 129.673 126.086C129.043 125.6 128.423 125.002 128.139 124.19C127.842 123.383 128.018 122.478 128.38 121.79C129.104 120.41 130.235 119.409 130.503 118.086C130.804 116.772 130.218 115.497 129.551 114.524C128.864 113.528 128.054 112.739 127.299 112.029C126.547 111.309 125.901 110.608 125.41 109.927C124.922 109.244 124.595 108.578 124.432 108.001C124.266 107.422 124.265 106.946 124.28 106.634C124.319 106.322 124.354 106.162 124.366 106.164C124.422 106.162 124.228 106.838 124.582 107.952C124.925 109.07 125.961 110.432 127.49 111.812C128.254 112.506 129.099 113.301 129.822 114.323C130.18 114.834 130.508 115.408 130.724 116.059C130.946 116.705 131.021 117.448 130.865 118.17C130.558 119.656 129.382 120.693 128.73 121.98C128.402 122.618 128.266 123.369 128.517 124.054C128.755 124.737 129.304 125.286 129.913 125.753C130.525 126.225 131.192 126.626 131.815 127.096C132.433 127.562 133.042 128.109 133.387 128.851C133.73 129.583 133.755 130.468 133.447 131.18C133.16 131.899 132.699 132.473 132.253 133.002C131.355 134.045 130.414 134.982 130.046 136.121C129.666 137.254 129.965 138.422 130.206 139.426C130.468 140.442 130.694 141.403 130.641 142.27C130.61 143.139 130.244 143.853 129.829 144.276C129.413 144.714 128.954 144.879 128.651 144.913C128.343 144.945 128.188 144.882 128.188 144.882Z" fill="#455A64"/>
<path d="M353.874 387.022C353.874 387.137 281.842 387.23 193.008 387.23C104.142 387.23 32.126 387.136 32.126 387.022C32.126 386.907 104.142 386.814 193.008 386.814C281.842 386.814 353.874 386.907 353.874 387.022Z" fill="#263238"/>
</svg>
