<svg width="" height="" viewBox="0 0 593 496" fill="none" xmlns="http://www.w3.org/2000/svg">
<g filter="url(#filter0_d_59_588)">
<path d="M580.587 243.871C580.587 243.871 541.13 115.547 455.389 75.9153C379.704 40.9316 294.989 56.2702 259.571 136.521C246.951 165.116 230.548 195.969 210.886 219.459C188.838 245.798 159.25 264.148 158.345 328.02C157.441 391.891 212.354 467.345 263.936 483.655C315.52 499.964 378.485 467.313 431.66 436.296C484.837 405.281 624.493 404.736 580.587 243.871Z" fill="#92E3A9"/>
</g>
<g opacity="0.7" filter="url(#filter1_d_59_588)">
<path d="M426.253 185.625C426.253 185.625 386.796 57.3015 301.055 17.6697C225.37 -17.314 140.655 -1.97536 105.237 78.2757C92.6174 106.87 76.2143 137.723 56.5515 161.214C34.5041 187.552 4.91563 205.902 4.01101 269.774C3.10731 333.646 58.0196 409.099 109.602 425.409C161.186 441.719 224.151 409.067 277.326 378.051C330.503 347.035 470.159 346.49 426.253 185.625Z" fill="white"/>
</g>
<path d="M290.633 252.767C290.633 252.767 290.804 256.066 293.72 256.066C300.874 256.066 337.53 255.444 337.53 255.444L338.577 249.187L306.754 245.949L290.633 252.767Z" fill="#AB5A40"/>
<path d="M338.577 249.187C338.577 249.187 344.898 248.103 346.622 247.913C347.935 247.768 351.855 254.336 351.677 255.065C351.498 255.795 349.618 255.065 349.618 255.065C349.618 255.065 349.679 256.524 349.085 256.483C348.492 256.441 347.876 255.826 347.876 255.826C347.876 255.826 348.57 257.66 347.876 257.692C347.183 257.724 345.986 255.285 345.986 255.285C345.986 255.285 339.522 257.842 337.53 255.443L338.577 249.187Z" fill="#AB5A40"/>
<path d="M245.756 391.054L249.699 394.353C250.892 395.351 252.483 395.721 253.99 395.35L276.601 389.777L269.011 380.656L245.756 391.054Z" fill="#454545"/>
<path d="M346.767 278.663V283.215C346.767 288.119 349.679 292.542 354.162 294.44C360.494 297.121 368.638 300.547 368.918 300.547C369.376 300.547 378.767 290.611 378.767 290.611L363.571 278.663H346.767Z" fill="#454545"/>
<path d="M343.167 251.661H339.347C337.644 251.661 336.263 253.055 336.263 254.773V261.234C336.263 262.185 336.531 263.116 337.037 263.919L342.139 272.011C343.401 274.013 345.383 275.444 347.667 276.007L355.821 278.015L364.647 274.153L354.292 251.662L343.167 251.661Z" fill="#2E2E2E"/>
<path d="M336.646 261.788H358.797V255.547H336.646V261.788Z" fill="#454545"/>
<path d="M373.294 275.638L369.252 270.43L378.53 269.209C381.746 268.786 382.94 264.713 380.468 262.594L372.907 256.111C369.558 253.239 365.303 251.661 360.907 251.661H343.167C343.167 255.43 345.67 258.732 349.275 259.719L356.593 261.723L352.516 264.294C350.639 265.478 350.272 268.083 351.749 269.748L356.976 275.639H373.294V275.638Z" fill="#57B563"/>
<path d="M376.212 388.644L369.534 398.414C367.491 401.403 364.122 403.187 360.523 403.187H292.236C289.403 403.187 286.681 402.079 284.641 400.096L271.609 387.425L376.212 388.644Z" fill="#2E2E2E"/>
<path d="M414.88 420.51C434.053 420.51 449.595 404.83 449.595 385.489C449.595 366.147 434.053 350.467 414.88 350.467C395.707 350.467 380.165 366.147 380.165 385.489C380.165 404.83 395.707 420.51 414.88 420.51Z" fill="#494949"/>
<path d="M414.88 403.188C424.569 403.188 432.424 395.264 432.424 385.488C432.424 375.713 424.569 367.789 414.88 367.789C405.19 367.789 397.335 375.713 397.335 385.488C397.335 395.264 405.19 403.188 414.88 403.188Z" fill="#B9B9B9"/>
<path d="M414.88 399.185C422.378 399.185 428.457 393.053 428.457 385.488C428.457 377.924 422.378 371.792 414.88 371.792C407.382 371.792 401.303 377.924 401.303 385.488C401.303 393.053 407.382 399.185 414.88 399.185Z" fill="#6E6E6E"/>
<path d="M202.715 420.51C221.888 420.51 237.431 404.83 237.431 385.489C237.431 366.147 221.888 350.467 202.715 350.467C183.543 350.467 168 366.147 168 385.489C168 404.83 183.543 420.51 202.715 420.51Z" fill="#494949"/>
<path d="M202.715 403.188C212.405 403.188 220.26 395.264 220.26 385.488C220.26 375.713 212.405 367.789 202.715 367.789C193.026 367.789 185.171 375.713 185.171 385.488C185.171 395.264 193.026 403.188 202.715 403.188Z" fill="#B9B9B9"/>
<path d="M202.716 399.185C210.214 399.185 216.293 393.053 216.293 385.488C216.293 377.924 210.214 371.792 202.716 371.792C195.217 371.792 189.139 377.924 189.139 385.488C189.139 393.053 195.217 399.185 202.716 399.185Z" fill="#6E6E6E"/>
<path d="M415.693 390.528C417.767 389.655 418.748 387.25 417.882 385.157L411.284 369.204L403.771 372.366L410.369 388.32C411.234 390.412 413.617 391.401 415.693 390.528Z" fill="#E9EBE7"/>
<path d="M403.632 377.109L414.756 372.427L402.012 341.611L390.888 346.292L403.632 377.109Z" fill="#2E2E2E"/>
<path d="M453.891 369.588C453.891 369.588 445.298 338.313 406.961 338.313L393.741 356.364L400.433 365.075C402.619 367.922 405.989 369.588 409.56 369.588H453.891Z" fill="#57B563"/>
<path d="M425.094 341.057L417.759 369.588" stroke="#F6F8F5" stroke-miterlimit="10"/>
<path d="M229.724 303.034H202.719C200.006 303.034 197.97 305.534 198.497 308.219L202.978 331.068C203.63 334.396 205.745 337.246 208.726 338.816L226.606 348.233L229.724 303.034Z" fill="#2E2E2E"/>
<path d="M203.651 309.958L206.857 326.305C207.34 328.771 205.469 331.068 202.977 331.068L198.496 308.219H201.552C202.574 308.219 203.453 308.947 203.651 309.958Z" fill="#EA613B"/>
<path d="M230.587 346.914L201.392 376.507C196.223 381.747 195.763 390.063 200.323 395.85C204.059 400.592 210.315 402.506 216.033 400.659L265.192 384.774L230.587 346.914Z" fill="#2E2E2E"/>
<path d="M304.031 364.425L366.27 365.812V378.063H287.82L304.031 364.425Z" fill="#454545"/>
<path d="M367.161 274.964L362.348 278.662L371.743 295.306L368.628 296.992C365.15 298.875 363.825 303.233 365.658 306.76L371.667 318.322C373.596 322.036 373.855 326.402 372.377 330.32C368 341.919 359.026 366.617 359.026 374.133L401.303 330.566L367.161 274.964Z" fill="#2E2E2E"/>
<path d="M304.031 364.425L289.939 378.063L271.608 356.103V324.549H304.031L295.971 340.938C294.146 344.648 294.374 349.049 296.571 352.547L304.031 364.425Z" fill="#2E2E2E"/>
<path d="M206.659 294.946C205.666 300.324 208.749 305.619 213.888 307.364L278.482 329.288H302.225C304.894 329.288 307.423 328.088 309.126 326.017L310.468 324.383C311.646 322.95 311.61 320.863 310.384 319.47L294.816 301.796C292.769 299.472 289.715 298.319 286.658 298.717L275.926 300.114C267.435 301.219 258.834 301.144 250.364 299.889L208.418 293.677C207.589 293.555 206.812 294.114 206.659 294.946Z" fill="#454545"/>
<path d="M414.619 318.284L389.505 285.824C379.269 272.593 360.692 269.481 346.765 278.662L356.401 282.239C365.797 285.728 373.636 292.511 378.486 301.348L384.734 312.734C391.167 324.458 389.612 338.995 380.847 349.065L362.651 369.968C360.346 372.616 357.023 374.133 353.53 374.133H298.665C294.897 374.133 291.342 372.367 289.044 369.354L281.826 359.888C280.056 357.567 279.735 354.438 280.996 351.801L285.494 342.394C286.353 340.598 286.407 338.517 285.642 336.677L283.142 330.666C278.161 318.689 267.53 310.055 254.868 307.701L230.785 303.225C229.454 302.978 228.084 303.073 226.801 303.502L217.194 306.716C214.248 307.701 212.259 310.48 212.259 313.611V329.473C212.259 331.278 212.925 333.018 214.126 334.354L267.495 393.705C270.186 396.697 274.005 398.404 278.01 398.404H361.87C366.352 398.404 370.57 396.269 373.25 392.645L414.815 336.432C418.812 331.029 418.731 323.598 414.619 318.284Z" fill="#F6F8F5"/>
<path d="M339.277 398.45H356.502V396.942H339.277V398.45Z" fill="#D7D9D6"/>
<path d="M316.669 398.45H333.895V396.942H316.669V398.45Z" fill="#D7D9D6"/>
<path d="M294.061 398.45H311.286V396.942H294.061V398.45Z" fill="#D7D9D6"/>
<path d="M363.003 388.073H309.571L305.607 392.55H364.523L363.003 388.073Z" fill="#57B563"/>
<path d="M403.978 304.529L386.026 315.382" stroke="#E9EBE7" stroke-miterlimit="10"/>
<path d="M294.881 373.281L273.599 397.696" stroke="#E9EBE7" stroke-miterlimit="10"/>
<path d="M276.43 370.388L250.583 341.655L266.324 351.711C269.423 353.691 273.224 354.206 276.731 353.121L280.996 351.801C279.735 354.438 280.056 357.567 281.826 359.888L289.044 369.354C291.342 372.367 294.896 374.133 298.666 374.133H284.814C281.62 374.134 278.576 372.773 276.43 370.388Z" fill="#E9EBE7"/>
<g opacity="0.05">
<path d="M353.906 374.114C351.874 375.564 349.435 376.373 346.9 376.373H292.035C288.267 376.373 284.711 374.607 282.414 371.593L275.196 362.127C273.427 359.806 273.106 356.678 274.367 354.04L278.865 344.634C279.724 342.837 279.778 340.755 279.013 338.916L276.513 332.905C271.531 320.929 260.9 312.294 248.239 309.941L224.156 305.464C222.825 305.217 221.454 305.312 220.171 305.742L216.975 306.811C217.051 306.783 217.118 306.743 217.196 306.717L226.802 303.503C228.087 303.074 229.457 302.978 230.787 303.226L254.87 307.702C267.532 310.056 278.163 318.69 283.144 330.667L285.644 336.678C286.409 338.518 286.355 340.599 285.496 342.395L280.998 351.802C279.737 354.439 280.058 357.568 281.828 359.888L289.046 369.354C291.343 372.367 294.898 374.133 298.666 374.133H353.531C353.657 374.134 353.781 374.117 353.906 374.114Z" fill="#454545"/>
</g>
<path d="M233.455 300.16V304.518C233.455 305.24 232.875 305.825 232.159 305.825H228.449C228.349 305.825 228.25 305.813 228.153 305.791L204.722 300.258C202.848 299.816 201.648 297.966 201.997 296.056C202.098 295.506 202.607 295.13 203.157 295.199L232.319 298.863C232.968 298.944 233.455 299.501 233.455 300.16Z" fill="#3B3B3B"/>
<path d="M357.98 373.281L366.27 397.696" stroke="#E9EBE7" stroke-miterlimit="10"/>
<path d="M247.745 379.828C240.893 378.738 235.162 373.992 232.769 367.425L230.355 360.803L214.681 376.691C212.723 378.676 211.985 381.652 213.002 384.258C214.363 387.747 218.145 389.394 221.473 388.318L247.745 379.828Z" fill="#363636"/>
<path d="M333.552 258.667C333.552 260.391 334.937 261.788 336.646 261.788C338.355 261.788 339.74 260.391 339.74 258.667C339.74 256.943 338.355 255.546 336.646 255.546C334.937 255.546 333.552 256.943 333.552 258.667Z" fill="#3D3D3D"/>
<path d="M359.484 251.661L365.374 260.364C366.563 262.123 368.537 263.174 370.649 263.174H381.018" stroke="#F6F8F5" stroke-miterlimit="10"/>
<path d="M257.544 382.639C257.47 382.557 258.262 379.562 258.879 377.28C259.312 375.682 258.907 373.973 257.807 372.743L236.31 348.698C235.305 347.573 233.838 346.985 232.341 347.106L226.051 347.616L257.544 382.639Z" fill="#57B563"/>
<path d="M375.182 364.19C376.127 364.974 377.522 364.839 378.301 363.886L381.017 360.561C381.795 359.609 381.661 358.201 380.717 357.415C379.773 356.631 378.377 356.766 377.599 357.719L374.882 361.044C374.104 361.997 374.238 363.405 375.182 364.19Z" fill="#EA613B"/>
<path d="M251.901 392.55C251.901 393.039 252.295 393.436 252.78 393.436C253.265 393.436 253.658 393.039 253.658 392.55C253.658 392.061 253.265 391.664 252.78 391.664C252.295 391.664 251.901 392.061 251.901 392.55Z" fill="#2E2E2E"/>
<path d="M244.682 365.112L243.093 366.572L252.967 377.511L254.557 376.051L244.682 365.112Z" fill="#494949"/>
<path d="M231.288 350.274L229.699 351.734L239.573 362.673L241.162 361.213L231.288 350.274Z" fill="#494949"/>
<path d="M243.481 337.175C246.825 333.802 246.825 328.333 243.481 324.96C240.138 321.587 234.717 321.587 231.373 324.96C228.03 328.333 228.03 333.802 231.373 337.175C234.717 340.548 240.138 340.548 243.481 337.175Z" fill="#E9EBE7"/>
<path d="M237.692 324.549L231.719 332.328H236.824L234.868 337.587L242.55 329.15L237.134 328.932L237.692 324.549Z" fill="#57B563"/>
<path d="M392.431 289.604L414.62 318.284C411.406 320.348 407.165 319.617 404.814 316.593L393.571 302.134C390.781 298.547 390.335 293.644 392.431 289.604Z" fill="#D7D9D6"/>
<path d="M293.261 388.073H304.446L300.483 392.55H289.297L293.261 388.073Z" fill="#57B563"/>
<path d="M331.063 343.506L329.836 361.755H320.197L321.895 343.506H331.063Z" fill="#FE7A63"/>
<path d="M330.229 355.869C330.229 355.869 326.931 354.757 324.951 358.942C323.867 361.234 320.268 359.675 320.268 359.675C320.268 359.675 317.721 362.276 317.721 367.641H343.177C343.177 367.641 343.074 365.349 342.455 364.516C341.835 363.682 334.141 362.727 332.113 362.189C330.804 361.841 330.229 355.869 330.229 355.869Z" fill="#F2F2F2"/>
<path d="M343.178 367.641H317.722V369.413H343.178V367.641Z" fill="#FDBD51"/>
<path d="M336.814 363.064C336.814 363.064 337.016 365.765 334.985 365.592C332.954 365.419 327.895 364.238 327.654 367.641" stroke="#26355B" stroke-width="0.5" stroke-miterlimit="10"/>
<path d="M331.508 358.317L328.617 359.046" stroke="#26355B" stroke-width="0.25" stroke-miterlimit="10"/>
<path d="M331.842 359.684L329.057 360.756" stroke="#26355B" stroke-width="0.5" stroke-miterlimit="10"/>
<path d="M332.125 360.987L329.563 362.523" stroke="#26355B" stroke-width="0.5" stroke-miterlimit="10"/>
<path d="M318.975 361.688C318.975 361.688 322.971 363.162 322.627 367.641" stroke="#26355B" stroke-width="0.5" stroke-miterlimit="10"/>
<path d="M341.52 291.135C338.992 286.199 291.338 278.702 291.338 278.702L262.02 279.128C262.02 279.128 257.529 303.092 269.303 303.317C279.133 303.506 328.205 303.317 328.205 303.317L321.284 356.458H331.845C331.845 356.458 343.852 295.689 341.52 291.135Z" fill="#546F94"/>
<path d="M332.845 351.307H321.956" stroke="#0D0000" stroke-width="0.5" stroke-miterlimit="10"/>
<path d="M294.99 204.137C296.619 213.045 298.422 216.088 300.067 223.077C301.935 231.011 308.167 245.258 308.167 245.258C308.167 245.258 295.669 251.616 289.288 251.487C289.288 251.487 286.288 247.463 288.215 245.827C288.215 245.827 282.741 218.673 284.431 212.904C286.12 207.135 294.99 204.137 294.99 204.137Z" fill="#F2F2F2"/>
<path d="M306.333 240.907L287.818 248.699" stroke="#0D0000" stroke-width="0.5" stroke-miterlimit="10"/>
<path d="M293.718 202.247L284.194 194.861C284.194 194.861 266.568 203.919 261.61 210.226C250.911 223.838 248.823 279.127 248.823 279.127L291.338 278.701C292.373 273.638 297.181 225.01 298.827 218.106C300.472 211.201 293.718 202.247 293.718 202.247Z" fill="#D84F63"/>
<path d="M292.779 244.803L271.952 267.33" stroke="#0D0000" stroke-width="0.5" stroke-miterlimit="10"/>
<path d="M292.779 252.721L285.615 264.87" stroke="#0D0000" stroke-width="0.5" stroke-miterlimit="10"/>
<path d="M264.167 220.667L257.67 279.004L259.956 279.128L267.73 220.667H264.167Z" fill="#D9D9D9"/>
<path d="M280.647 196.61C280.647 196.61 284.258 203.924 288.313 205.505C292.835 207.269 294.991 204.138 294.991 204.138L293.719 202.247L284.195 194.862L280.647 196.61Z" fill="#F2F2F2"/>
<path d="M268.509 211.354L283.544 197.897C283.544 197.897 285.929 199.544 285.929 199.923C285.929 200.303 272.246 212.715 272.246 212.715L268.509 211.354Z" fill="#F2F2F2"/>
<path d="M284.359 226.573C283.055 219.509 274.468 208.844 269.753 210.374C269.753 210.374 265.042 213.316 264.196 219.27C263.35 225.225 274.102 255.546 274.102 255.546L294.233 246.868C294.233 246.868 285.663 233.636 284.359 226.573Z" fill="#F2F2F2"/>
<path d="M294.99 204.137L299.874 180.675L287.818 180.705L284.194 194.861C284.194 194.861 284.816 203.831 294.99 204.137Z" fill="#D47050"/>
<path d="M289.852 185.458C289.852 185.458 287.557 196.084 296.289 197.897L298.759 186.031L289.852 185.458Z" fill="#0D0000"/>
<path d="M307.484 167.856L306.78 183.249C306.549 188.274 302.325 192.16 297.344 191.927C294.095 191.775 291.141 189.984 289.485 187.162L287.352 183.529L288.111 166.953L307.484 167.856Z" fill="#D47050"/>
<path d="M296.113 181.254C296.473 181.254 296.765 180.668 296.765 179.944C296.765 179.221 296.473 178.635 296.113 178.635C295.753 178.635 295.462 179.221 295.462 179.944C295.462 180.668 295.753 181.254 296.113 181.254Z" fill="#491800"/>
<path d="M303.375 179.945C303.375 180.667 303.084 181.254 302.724 181.254C302.364 181.254 302.073 180.667 302.073 179.945C302.073 179.222 302.364 178.635 302.724 178.635C303.084 178.635 303.375 179.221 303.375 179.945Z" fill="#491800"/>
<path d="M294.955 186.827L302.724 186.368C302.724 186.368 301.612 190.414 298.759 190.475C295.906 190.537 294.955 186.827 294.955 186.827Z" fill="#F2F2F2"/>
<path d="M299.159 177.612C299.159 177.612 300.32 183.061 299.96 184.026C299.724 184.661 298.676 184.873 298.348 184.895" stroke="#2C1817" stroke-width="0.5" stroke-miterlimit="10"/>
<path d="M296.765 175.134C296.788 175.489 294.845 175.909 293.683 175.987C292.522 176.065 292.103 175.804 292.079 175.448C292.056 175.093 293.456 174.71 294.619 174.632C295.78 174.554 296.741 174.778 296.765 175.134Z" fill="#491800"/>
<path d="M300.835 174.86C300.859 175.216 302.84 175.372 304.002 175.294C305.163 175.216 305.545 174.9 305.521 174.546C305.498 174.19 304.059 173.998 302.897 174.076C301.735 174.153 300.812 174.505 300.835 174.86Z" fill="#491800"/>
<path d="M288.809 179.447C288.723 181.316 287.165 182.676 285.328 182.486C283.491 182.295 282.072 180.626 282.157 178.758C282.242 176.889 283.801 175.529 285.638 175.719C287.475 175.911 288.894 177.58 288.809 179.447Z" fill="#FE7A63"/>
<path d="M284.065 178.819C285.284 178.433 286.411 178.524 287.267 180.375" stroke="#2C1817" stroke-width="0.5" stroke-miterlimit="10"/>
<path d="M288.809 179.447C291.218 179.56 291.345 171.712 291.534 170.28C293.238 172.367 298.49 174.35 300.216 174.042C302.025 173.719 302.257 172.167 301.062 171.327C302.187 172.427 307.412 174.864 308.585 174.324C309.932 173.704 309.089 166.07 306.992 165.127C304.894 164.185 288.731 164.513 287.539 166.187C286.102 168.204 285.894 179.311 288.809 179.447Z" fill="#75332F"/>
<path d="M321.285 348.388L320.058 366.636H310.418L312.116 348.388H321.285Z" fill="#FE7A63"/>
<path d="M320.451 360.751C320.451 360.751 317.153 359.639 315.172 363.824C314.088 366.116 310.489 364.557 310.489 364.557C310.489 364.557 307.943 367.157 307.943 372.523H333.399C333.399 372.523 333.295 370.231 332.676 369.397C332.057 368.564 324.362 367.609 322.334 367.071C321.025 366.724 320.451 360.751 320.451 360.751Z" fill="white"/>
<path d="M333.399 372.523H307.943V374.293H333.399V372.523Z" fill="#FDBD51"/>
<path d="M327.035 367.945C327.035 367.945 327.237 370.647 325.206 370.474C323.175 370.301 318.115 369.12 317.874 372.523" stroke="#26355B" stroke-width="0.5" stroke-miterlimit="10"/>
<path d="M321.73 363.198L318.838 363.928" stroke="#26355B" stroke-width="0.25" stroke-miterlimit="10"/>
<path d="M322.064 364.566L319.279 365.637" stroke="#26355B" stroke-width="0.5" stroke-miterlimit="10"/>
<path d="M322.347 365.869L319.784 367.405" stroke="#26355B" stroke-width="0.5" stroke-miterlimit="10"/>
<path d="M309.197 366.57C309.197 366.57 313.193 368.043 312.848 372.523" stroke="#26355B" stroke-width="0.5" stroke-miterlimit="10"/>
<path d="M333.287 295.191C333.287 291.135 279.187 278.702 279.187 278.702L248.823 279.128C248.823 279.128 244.331 303.092 256.107 303.317C265.937 303.506 315.009 303.317 315.009 303.317L307.246 361.734H322.772C322.772 361.734 333.287 300.317 333.287 295.191Z" fill="#607EA8"/>
<path d="M277.219 254.174C277.219 254.174 277.638 258.667 280.992 258.667C289.22 258.667 330.285 255.444 330.285 255.444L331.488 249.187L294.233 246.869L277.219 254.174Z" fill="#D47050"/>
<path d="M331.488 249.187C331.488 249.187 338.759 248.103 340.742 247.913C342.252 247.768 346.761 254.336 346.556 255.065C346.35 255.795 344.187 255.065 344.187 255.065C344.187 255.065 344.257 256.524 343.574 256.483C342.892 256.441 342.184 255.826 342.184 255.826C342.184 255.826 342.981 257.66 342.184 257.692C341.387 257.724 340.01 255.285 340.01 255.285C340.01 255.285 332.574 257.842 330.284 255.443L331.488 249.187Z" fill="#D47050"/>
<path d="M272.697 251.49L292.034 243.294" stroke="#0D0000" stroke-width="0.5" stroke-miterlimit="10"/>
<path d="M249.028 274.964H292.034" stroke="#0D0000" stroke-width="0.5" stroke-miterlimit="10"/>
<path d="M294.233 246.869L292.034 249.897" stroke="#0D0000" stroke-width="0.5" stroke-miterlimit="10"/>
<path d="M253.859 279.086C253.859 279.086 251.422 296.086 257.67 298.12C263.919 300.153 317.51 298.325 318.838 300.547C320.167 302.768 317.005 320.218 309.192 361.421" stroke="#7397C9" stroke-width="0.5" stroke-miterlimit="10"/>
<path d="M307.807 357.512H323.491" stroke="#0D0000" stroke-width="0.5" stroke-miterlimit="10"/>
<path d="M315.009 303.317L316.051 297.288" stroke="#0D0000" stroke-width="0.5" stroke-miterlimit="10"/>
<path opacity="0.2" d="M310.871 169.367C310.871 169.367 316.325 174.759 312.978 180.675H288.112V169.367H310.871Z" fill="#4C5054"/>
<path opacity="0.2" d="M305.509 180.675H299.951L297.166 169.367H302.724L305.509 180.675Z" fill="#F6F8F5"/>
<path opacity="0.2" d="M310.565 180.675H307.928L305.143 169.367H307.78L310.565 180.675Z" fill="#F6F8F5"/>
<path d="M310.882 167.984C310.903 168.431 310.892 168.899 310.871 169.367L294.107 169.336C291.429 169.293 288.783 171.846 289.763 174.355C291.429 178.631 290.933 180.461 287.812 182.503C286.894 183.098 285.26 183.119 283.457 182.513C283.447 182.503 283.436 182.503 283.436 182.503C279.218 181.088 275.288 173.064 276.969 166.366C280.284 153.161 293.241 150.891 299.187 152.412C305.21 153.955 310.714 159.337 310.882 167.984Z" fill="#57B563"/>
<path d="M292.579 152.233C292.579 152.233 302.748 157.223 302.748 167.984H305.915C305.915 167.984 304.12 152.233 292.579 152.233Z" fill="#60C76D"/>
<path d="M297.166 152.233C297.166 152.233 307.335 157.223 307.335 167.984H310.502C310.502 167.984 308.707 152.233 297.166 152.233Z" fill="#60C76D"/>
<path d="M310.893 167.984V169.367H310.871L294.107 169.336C291.429 169.293 288.783 171.846 289.763 174.355C291.429 178.631 290.933 180.461 287.812 182.503C286.894 183.098 285.26 183.119 283.457 182.513C283.446 182.503 283.436 182.503 283.436 182.503C289.435 181.631 289.316 177.612 287.816 173.353C286.814 170.509 290.005 167.983 292.292 167.983H310.88L310.893 167.984Z" fill="#F2F2F2"/>
<path d="M283.875 178.665C285.334 178.665 286.517 177.472 286.517 176C286.517 174.529 285.334 173.336 283.875 173.336C282.417 173.336 281.234 174.529 281.234 176C281.234 177.472 282.417 178.665 283.875 178.665Z" fill="#60C76D"/>
<path d="M476.881 173.364C474.213 172.278 471.806 170.606 469.115 169.577C454.764 164.09 437.849 178.179 424.034 171.433C421.393 170.144 419.022 168.127 416.131 167.625C409.313 166.443 404.15 173.862 397.518 175.849C394.828 176.655 391.965 176.53 389.159 176.592C383.054 176.726 376.97 177.782 371.172 179.712L515.088 178.943C504.875 170.654 489.037 178.311 476.881 173.364Z" fill="white"/>
<path d="M217.064 256.246L89 255.545V234.588C92.1551 234.466 95.2336 235 98.0798 236.48C104.445 239.796 108.462 247.376 115.477 248.8C120.773 249.879 126.036 247.03 131.409 246.541C139.517 245.807 147.031 250.381 154.841 252.707C174.887 258.661 197.205 249.668 217.064 256.246Z" fill="white"/>
<defs>
<filter id="filter0_d_59_588" x="154.334" y="58.2456" width="438.666" height="437.754" filterUnits="userSpaceOnUse" color-interpolation-filters="sRGB">
<feFlood flood-opacity="0" result="BackgroundImageFix"/>
<feColorMatrix in="SourceAlpha" type="matrix" values="0 0 0 0 0 0 0 0 0 0 0 0 0 0 0 0 0 0 127 0" result="hardAlpha"/>
<feOffset dy="4"/>
<feGaussianBlur stdDeviation="2"/>
<feComposite in2="hardAlpha" operator="out"/>
<feColorMatrix type="matrix" values="0 0 0 0 0 0 0 0 0 0 0 0 0 0 0 0 0 0 0.25 0"/>
<feBlend mode="normal" in2="BackgroundImageFix" result="effect1_dropShadow_59_588"/>
<feBlend mode="normal" in="SourceGraphic" in2="effect1_dropShadow_59_588" result="shape"/>
</filter>
<filter id="filter1_d_59_588" x="0" y="0" width="438.666" height="437.754" filterUnits="userSpaceOnUse" color-interpolation-filters="sRGB">
<feFlood flood-opacity="0" result="BackgroundImageFix"/>
<feColorMatrix in="SourceAlpha" type="matrix" values="0 0 0 0 0 0 0 0 0 0 0 0 0 0 0 0 0 0 127 0" result="hardAlpha"/>
<feOffset dy="4"/>
<feGaussianBlur stdDeviation="2"/>
<feComposite in2="hardAlpha" operator="out"/>
<feColorMatrix type="matrix" values="0 0 0 0 0 0 0 0 0 0 0 0 0 0 0 0 0 0 0.25 0"/>
<feBlend mode="normal" in2="BackgroundImageFix" result="effect1_dropShadow_59_588"/>
<feBlend mode="normal" in="SourceGraphic" in2="effect1_dropShadow_59_588" result="shape"/>
</filter>
</defs>
</svg>
