<svg width="" height="" viewBox="0 0 593 511" fill="none" xmlns="http://www.w3.org/2000/svg">
<g filter="url(#filter0_d_59_587)">
<path d="M580.587 258.871C580.587 258.871 541.13 130.547 455.389 90.9153C379.704 55.9316 294.989 71.2702 259.571 151.521C246.951 180.116 230.548 210.969 210.886 234.459C188.838 260.798 159.25 279.148 158.345 343.02C157.441 406.891 212.354 482.345 263.936 498.655C315.52 514.964 378.485 482.313 431.66 451.296C484.837 420.281 624.493 419.736 580.587 258.871Z" fill="#92E3A9"/>
</g>
<g opacity="0.7" filter="url(#filter1_dd_59_587)">
<path d="M426.253 200.625C426.253 200.625 386.796 72.3015 301.055 32.6697C225.37 -2.31401 140.655 13.0246 105.237 93.2757C92.6174 121.87 76.2143 152.723 56.5515 176.214C34.5041 202.552 4.91563 220.902 4.01101 284.774C3.10731 348.646 58.0196 424.099 109.602 440.409C161.186 456.719 224.151 424.067 277.326 393.051C330.503 362.035 470.159 361.49 426.253 200.625Z" fill="white"/>
</g>
<g clip-path="url(#clip0_59_587)">
<path d="M589 383.4H89V383.65H589V383.4Z" fill="#EBEBEB"/>
<path d="M226.66 390.21H193.54V390.46H226.66V390.21Z" fill="#EBEBEB"/>
<path d="M300.89 399.37H260.14V399.62H300.89V399.37Z" fill="#EBEBEB"/>
<path d="M192.54 396.24H141.46V396.49H192.54V396.24Z" fill="#EBEBEB"/>
<path d="M538.9 391.89H445.76V392.14H538.9V391.89Z" fill="#EBEBEB"/>
<path d="M436.86 391.89H430.53V392.14H436.86V391.89Z" fill="#EBEBEB"/>
<path d="M408.44 396.11H366.21V396.36H408.44V396.11Z" fill="#EBEBEB"/>
<path d="M326 338.8H132.91C131.397 338.797 129.948 338.195 128.879 337.124C127.81 336.053 127.21 334.603 127.21 333.09V61.66C127.223 60.156 127.829 58.718 128.896 57.6582C129.964 56.5985 131.406 56.0026 132.91 56H326C327.514 56 328.967 56.6016 330.038 57.6724C331.108 58.7433 331.71 60.1956 331.71 61.71V333.09C331.71 334.604 331.108 336.057 330.038 337.128C328.967 338.198 327.514 338.8 326 338.8ZM132.91 56.2C131.464 56.2026 130.077 56.7791 129.056 57.8027C128.034 58.8264 127.46 60.2136 127.46 61.66V333.09C127.46 334.536 128.034 335.924 129.056 336.947C130.077 337.971 131.464 338.547 132.91 338.55H326C327.447 338.547 328.834 337.971 329.858 336.948C330.881 335.924 331.457 334.537 331.46 333.09V61.66C331.457 60.2127 330.881 58.8255 329.858 57.8021C328.834 56.7787 327.447 56.2026 326 56.2H132.91Z" fill="#EBEBEB"/>
<path d="M542.31 338.8H349.21C347.696 338.797 346.246 338.195 345.175 337.125C344.105 336.054 343.503 334.604 343.5 333.09V61.66C343.516 60.1551 344.124 58.7171 345.193 57.6576C346.262 56.5981 347.705 56.0025 349.21 56H542.31C543.812 56.0052 545.252 56.6022 546.317 57.6617C547.382 58.7212 547.987 60.1578 548 61.66V333.09C548 334.601 547.401 336.05 546.335 337.121C545.268 338.191 543.821 338.795 542.31 338.8ZM349.21 56.2C347.763 56.2026 346.375 56.7787 345.352 57.8021C344.329 58.8255 343.753 60.2127 343.75 61.66V333.09C343.753 334.537 344.329 335.924 345.352 336.948C346.375 337.971 347.763 338.547 349.21 338.55H542.31C543.757 338.547 545.145 337.971 546.168 336.948C547.191 335.924 547.767 334.537 547.77 333.09V61.66C547.767 60.2127 547.191 58.8255 546.168 57.8021C545.145 56.7787 543.757 56.2026 542.31 56.2H349.21Z" fill="#EBEBEB"/>
<path d="M401.17 167.52C404.898 167.52 407.92 164.153 407.92 160C407.92 155.847 404.898 152.48 401.17 152.48C397.442 152.48 394.42 155.847 394.42 160C394.42 164.153 397.442 167.52 401.17 167.52Z" fill="#F5F5F5"/>
<path d="M403.63 76.78H403.2C402.674 76.0378 401.994 75.4172 401.208 74.9601C400.421 74.5029 399.546 74.2198 398.64 74.13C398.113 74.1154 397.592 74.2399 397.128 74.491C396.665 74.742 396.276 75.1107 396 75.56C393.57 72.42 390.44 70.38 387.5 70.38C386.39 70.3787 385.304 70.7106 384.384 71.3328C383.464 71.955 382.752 72.8388 382.34 73.87C381.175 72.6937 379.622 71.9825 377.97 71.87C375.39 71.87 373.8 74.15 373.77 77.37C372.568 76.6646 371.22 76.2439 369.83 76.14C368.716 76.0157 367.593 76.2748 366.645 76.8748C365.698 77.4747 364.984 78.3795 364.62 79.44C364.129 79.09 363.552 78.8792 362.95 78.83C361.54 78.75 360.76 79.93 361.11 81.5H410.06C409.456 80.2473 408.554 79.1619 407.433 78.3389C406.312 77.516 405.006 76.9807 403.63 76.78Z" fill="#E6E6E6"/>
<path d="M339 427.56C446.083 427.56 532.89 422.492 532.89 416.24C532.89 409.988 446.083 404.92 339 404.92C231.918 404.92 145.11 409.988 145.11 416.24C145.11 422.492 231.918 427.56 339 427.56Z" fill="#F5F5F5"/>
<path d="M405.09 421.45C400.09 421.45 397.38 420.21 397.38 417.97C397.38 416.06 399.51 414.65 403.9 413.67C409.794 412.568 415.785 412.079 421.78 412.21H502C506.88 412.21 510.54 410.79 513.21 407.86C520.44 399.95 518.82 382.13 517.64 369.13C517.24 364.71 516.86 360.53 516.86 357.28C516.93 352.949 517.331 348.63 518.06 344.36C518.81 339.31 519.4 335.36 517.79 333.45C516.73 332.22 514.52 331.63 511.02 331.63V328.46C515.56 328.46 518.47 329.39 520.18 331.38C522.75 334.38 522.06 338.98 521.18 344.82C520.469 348.937 520.074 353.103 520 357.28C520 360.39 520.37 364.49 520.77 368.84C522.07 383.19 523.69 401.05 515.53 410C512.27 413.56 507.71 415.37 501.98 415.37H421.78C408.83 415.37 403.07 416.89 401.16 417.84C402.442 418.176 403.765 418.328 405.09 418.29V421.45Z" fill="#92E3A9"/>
<path d="M511 324.55V335.55C512.459 335.55 513.858 334.971 514.889 333.939C515.921 332.908 516.5 331.509 516.5 330.05C516.5 328.591 515.921 327.192 514.889 326.161C513.858 325.13 512.459 324.55 511 324.55Z" fill="#92E3A9"/>
<path d="M463.8 165.89H421.78V418.5H463.8V165.89Z" fill="#263238"/>
<path d="M475.34 162.78H425.38V165.89H475.34V162.78Z" fill="#263238"/>
<path opacity="0.4" d="M475.34 162.78H463.81V165.89H475.34V162.78Z" fill="black"/>
<path d="M449.72 188.27H442.65L448.83 178.49H441.06L435.87 192.32H442.32L438.39 204.81L449.72 188.27Z" fill="white"/>
<path opacity="0.5" d="M449.038 331.75C452.487 328.301 452.487 322.711 449.038 319.262C445.59 315.814 439.999 315.814 436.551 319.262C433.103 322.711 433.103 328.301 436.551 331.75C439.999 335.198 445.59 335.198 449.038 331.75Z" fill="#92E3A9"/>
<path d="M405.09 421.45C404.671 421.45 404.269 421.284 403.973 420.987C403.676 420.691 403.51 420.289 403.51 419.87C403.51 419.451 403.676 419.049 403.973 418.753C404.269 418.456 404.671 418.29 405.09 418.29C410.18 418.29 413.69 417.03 415.83 414.44C420.75 408.49 418.3 395.69 415.71 382.13C413.99 373.13 412.21 363.82 412.21 355.13C412.21 334.99 423.07 323.89 442.79 323.89C443.008 323.873 443.228 323.901 443.436 323.972C443.643 324.044 443.833 324.158 443.995 324.307C444.156 324.456 444.284 324.637 444.372 324.838C444.46 325.039 444.506 325.256 444.506 325.475C444.506 325.694 444.46 325.911 444.372 326.112C444.284 326.313 444.156 326.494 443.995 326.643C443.833 326.792 443.643 326.906 443.436 326.978C443.228 327.049 443.008 327.077 442.79 327.06C430.28 327.06 415.37 331.93 415.37 355.13C415.37 363.48 417.12 372.64 418.81 381.5C421.55 395.81 424.13 409.32 418.27 416.41C415.49 419.81 411.18 421.45 405.09 421.45Z" fill="#92E3A9"/>
<path opacity="0.5" d="M458.57 246.01H427.03V309.75H458.57V246.01Z" fill="#92E3A9"/>
<path opacity="0.5" d="M427.02 246.01V309.75L438.32 254.88L427.02 246.01Z" fill="#92E3A9"/>
<path d="M452.58 267.5L453.22 264.39H444.61L443.97 267.5H440.64L434.54 297.12H449.89L455.99 267.5H452.58Z" fill="#92E3A9"/>
<path opacity="0.4" d="M451.78 278L448.64 293.26C448.534 293.783 448.249 294.253 447.836 294.591C447.422 294.928 446.904 295.112 446.37 295.11H438.71C438.502 295.112 438.296 295.067 438.108 294.978C437.92 294.89 437.754 294.76 437.622 294.599C437.491 294.437 437.397 294.249 437.348 294.046C437.299 293.844 437.297 293.634 437.34 293.43L440.48 278.17C440.586 277.647 440.87 277.177 441.284 276.839C441.698 276.502 442.216 276.319 442.75 276.32H450.41C450.618 276.319 450.824 276.364 451.012 276.452C451.2 276.541 451.366 276.67 451.498 276.832C451.629 276.993 451.723 277.182 451.772 277.384C451.821 277.586 451.823 277.797 451.78 278Z" fill="white"/>
<path opacity="0.4" d="M427.02 246.01L458.56 246V254.88H438.32L427.02 246.01Z" fill="#263238"/>
<path d="M463.8 418.5H478.92L478.92 165.89H463.8L463.8 418.5Z" fill="#263238"/>
<path opacity="0.4" d="M463.8 418.5H478.92L478.92 165.89H463.8L463.8 418.5Z" fill="black"/>
<path d="M86.852 382.192L127.31 385.827C127.31 385.827 123.352 346.249 116.002 337.203C108.652 328.157 92.821 326.46 85.471 341.161C78.12 355.861 86.852 382.192 86.852 382.192Z" fill="#263238"/>
<path d="M127.867 386.379L86.4801 382.661L86.3771 382.349C86.0181 381.266 77.6651 355.653 85.0231 340.937C88.2541 334.476 93.4521 330.542 99.6611 329.861C105.906 329.173 112.312 331.869 116.39 336.887C123.75 345.947 127.645 384.155 127.807 385.777L127.867 386.379ZM87.2271 381.723L126.749 385.274C126.213 380.273 122.295 345.742 115.614 337.518C111.747 332.759 105.673 330.209 99.7701 330.855C93.9111 331.498 88.9911 335.237 85.9171 341.385C79.1711 354.879 86.2871 378.724 87.2271 381.723Z" fill="#263238"/>
<path d="M121.091 346.484H102.78V409.539H121.091C128.411 409.539 134.346 395.424 134.346 378.011C134.346 360.598 128.411 346.484 121.091 346.484Z" fill="#263238"/>
<path d="M121.091 410.04H102.28V345.984H121.091C128.804 345.984 134.845 360.052 134.845 378.012C134.845 395.971 128.804 410.04 121.091 410.04ZM103.28 409.04H121.091C128.124 409.04 133.845 395.121 133.845 378.013C133.845 360.904 128.123 346.985 121.091 346.985H103.28V409.04Z" fill="#263238"/>
<path d="M102.78 409.54C110.101 409.54 116.035 395.425 116.035 378.012C116.035 360.6 110.101 346.484 102.78 346.484C95.4596 346.484 89.5251 360.6 89.5251 378.012C89.5251 395.425 95.4596 409.54 102.78 409.54Z" fill="#878787"/>
<path d="M102.779 410.04C95.0661 410.04 89.0251 395.972 89.0251 378.013C89.0251 360.054 95.0671 345.986 102.779 345.986C110.491 345.986 116.534 360.054 116.534 378.013C116.534 395.971 110.492 410.04 102.779 410.04ZM102.779 346.985C95.7461 346.985 90.0251 360.904 90.0251 378.012C90.0251 395.12 95.7471 409.039 102.779 409.039C109.812 409.039 115.534 395.12 115.534 378.012C115.534 360.904 109.813 346.985 102.779 346.985Z" fill="#263238"/>
<path d="M102.78 404.768C108.945 404.768 113.942 393.37 113.942 379.308C113.942 365.247 108.945 353.848 102.78 353.848C96.6156 353.848 91.6182 365.247 91.6182 379.308C91.6182 393.37 96.6156 404.768 102.78 404.768Z" fill="white"/>
<path d="M102.779 405.267C96.2392 405.267 91.1172 393.864 91.1172 379.307C91.1172 364.75 96.2402 353.347 102.779 353.347C109.318 353.347 114.442 364.75 114.442 379.307C114.442 393.864 109.319 405.267 102.779 405.267ZM102.779 354.347C96.9002 354.347 92.1172 365.544 92.1172 379.307C92.1172 393.07 96.9002 404.267 102.779 404.267C108.658 404.267 113.442 393.07 113.442 379.307C113.442 365.544 108.659 354.347 102.779 354.347Z" fill="#263238"/>
<path d="M262.199 338.211H241.334C232.993 338.211 226.231 353.148 226.231 371.573C226.231 389.998 232.993 404.935 241.334 404.935H262.199C270.54 404.935 277.302 389.998 277.302 371.573C277.302 353.147 270.54 338.211 262.199 338.211Z" fill="#263238"/>
<path d="M262.199 405.434H241.334C232.73 405.434 225.731 390.244 225.731 371.573C225.731 352.901 232.731 337.711 241.334 337.711H262.199C270.803 337.711 277.803 352.901 277.803 371.573C277.802 390.244 270.803 405.434 262.199 405.434ZM241.334 338.71C233.282 338.71 226.731 353.452 226.731 371.572C226.731 389.692 233.282 404.433 241.334 404.433H262.199C270.251 404.433 276.803 389.692 276.803 371.572C276.803 353.452 270.252 338.71 262.199 338.71H241.334Z" fill="#263238"/>
<path d="M283.217 348.58H258.212V422.828H283.217C293.213 422.828 301.317 406.207 301.317 385.704C301.317 365.201 293.213 348.58 283.217 348.58Z" fill="#263238"/>
<path d="M283.217 423.328H257.713V348.08H283.217C293.473 348.08 301.817 364.958 301.817 385.704C301.817 406.45 293.473 423.328 283.217 423.328ZM258.713 422.328H283.217C292.922 422.328 300.817 405.898 300.817 385.704C300.817 365.51 292.922 349.08 283.217 349.08H258.713V422.328Z" fill="#263238"/>
<path d="M258.212 422.828C268.209 422.828 276.312 406.207 276.312 385.704C276.312 365.201 268.209 348.58 258.212 348.58C248.216 348.58 240.112 365.201 240.112 385.704C240.112 406.207 248.216 422.828 258.212 422.828Z" fill="#878787"/>
<path d="M258.213 423.328C247.957 423.328 239.613 406.45 239.613 385.704C239.613 364.958 247.957 348.08 258.213 348.08C268.469 348.08 276.813 364.958 276.813 385.704C276.812 406.45 268.468 423.328 258.213 423.328ZM258.213 349.08C248.508 349.08 240.613 365.51 240.613 385.704C240.613 405.898 248.509 422.328 258.213 422.328C267.918 422.328 275.813 405.898 275.813 385.704C275.812 365.509 267.917 349.08 258.213 349.08Z" fill="#263238"/>
<path d="M258.212 417.208C266.631 417.208 273.455 403.786 273.455 387.229C273.455 370.673 266.631 357.25 258.212 357.25C249.794 357.25 242.969 370.673 242.969 387.229C242.969 403.786 249.794 417.208 258.212 417.208Z" fill="white"/>
<path d="M258.213 417.709C249.532 417.709 242.47 404.036 242.47 387.23C242.47 370.424 249.532 356.751 258.213 356.751C266.893 356.751 273.955 370.424 273.955 387.23C273.955 404.036 266.893 417.709 258.213 417.709ZM258.213 357.751C250.084 357.751 243.47 370.975 243.47 387.23C243.47 403.485 250.084 416.709 258.213 416.709C266.342 416.709 272.955 403.484 272.955 387.23C272.955 370.976 266.341 357.751 258.213 357.751Z" fill="#263238"/>
<path d="M424.94 341.055H399.935C389.939 341.055 381.835 357.676 381.835 378.179C381.835 398.682 389.938 415.303 399.935 415.303H424.94C434.936 415.303 443.04 398.682 443.04 378.179C443.039 357.676 434.936 341.055 424.94 341.055Z" fill="#263238"/>
<path d="M424.939 415.802H399.935C389.679 415.802 381.335 398.924 381.335 378.178C381.335 357.433 389.679 340.555 399.935 340.555H424.939C435.196 340.555 443.54 357.433 443.54 378.178C443.54 398.924 435.196 415.802 424.939 415.802ZM399.935 341.555C390.231 341.555 382.335 357.984 382.335 378.178C382.335 398.372 390.23 414.802 399.935 414.802H424.939C434.644 414.802 442.54 398.372 442.54 378.178C442.54 357.984 434.645 341.555 424.939 341.555H399.935Z" fill="#263238"/>
<path d="M179.598 256.156C175.355 256.622 171.152 257.369 167.017 258.43C160.606 260.075 150.731 262.982 141.032 267.309C124.728 274.583 104.912 289.383 98.8912 292.142C92.8712 294.901 83.5902 295.403 82.5872 299.416C81.5842 303.429 80.8312 310.453 80.8312 310.453C80.8312 310.453 76.8182 313.965 76.3162 323.747C75.8142 333.53 75.0622 366.138 75.8142 370.403C76.5662 374.667 76.3162 375.671 80.0782 377.677C83.8412 379.684 86.0982 382.192 86.8512 382.192C87.6042 382.192 82.5872 351.088 90.6142 343.814C98.6412 336.54 110.681 338.296 115.698 354.851C120.715 371.406 118.959 389.216 120.966 390.219C122.973 391.222 125.481 391.473 125.481 391.473L236.602 400.503C236.602 400.503 231.334 376.674 237.354 360.871C243.374 345.068 254.913 337.042 265.699 341.055C276.485 345.068 284.261 363.63 286.518 375.67C288.776 387.71 289.528 393.73 289.026 397.994C288.524 402.258 288.524 404.265 291.785 404.516C295.046 404.767 437.772 400.252 449.059 398.998C460.347 397.744 467.872 396.239 468.624 393.229C469.377 390.219 469.377 391.975 469.377 390.219C469.377 388.463 468.123 358.614 467.37 354.349C466.617 350.085 466.116 347.075 464.36 344.566C462.604 342.058 458.34 337.543 458.34 337.543C458.34 337.543 459.093 332.025 455.832 328.262C452.571 324.5 404.16 305.687 404.16 305.687C404.16 305.687 369.795 283.112 357.003 275.587C344.21 268.062 323.893 260.537 303.575 257.276C283.257 254.015 250.147 252.761 231.083 252.51C216.462 252.317 190.777 254.928 179.598 256.156Z" fill="#92E3A9"/>
<path d="M292.512 405.029C292.125 405.029 291.868 405.024 291.746 405.014C290.452 404.915 289.589 404.553 289.031 403.875C288.054 402.687 288.198 400.753 288.529 397.936C289.006 393.882 288.375 388.288 286.026 375.762C283.952 364.702 276.552 345.626 265.524 341.524C255.074 337.636 243.682 345.664 237.821 361.048C231.922 376.532 237.037 400.158 237.089 400.395L237.235 401.056L125.44 391.971C125.325 391.96 122.807 391.699 120.742 390.666C119.702 390.145 119.519 387.72 119.17 381.791C118.769 374.989 118.163 364.71 115.219 354.995C112.856 347.198 108.67 342.104 103.432 340.654C99.2532 339.499 94.7022 340.783 90.9502 344.183C84.9372 349.632 86.5142 369.472 87.1872 377.944C87.5002 381.892 87.5052 382.234 87.2412 382.519L87.0932 382.679L86.8512 382.691C86.3462 382.691 85.7472 382.223 84.6612 381.374C83.4972 380.464 81.9032 379.217 79.8432 378.118C76.2702 376.212 76.0702 374.999 75.5362 371.759C75.4722 371.37 75.4032 370.948 75.3222 370.489C74.5442 366.08 75.3622 332.582 75.8172 323.72C76.2752 314.785 79.5972 310.974 80.3552 310.216C80.4822 309.063 81.1812 302.982 82.1032 299.294C82.8232 296.413 87.1232 295.236 91.6762 293.99C94.0952 293.328 96.5962 292.643 98.6832 291.686C100.882 290.679 104.959 288.034 110.121 284.685C118.735 279.097 130.533 271.445 140.829 266.852C150.498 262.538 160.34 259.627 166.893 257.945C170.95 256.904 175.206 256.134 179.543 255.658C190.124 254.496 216.342 251.821 231.089 252.009C252.609 252.292 284.526 253.711 303.654 256.781C322.627 259.826 343.166 266.867 357.257 275.154C369.705 282.477 402.971 304.306 404.391 305.239C406.986 306.248 452.93 324.148 456.21 327.933C459.226 331.413 458.973 336.226 458.863 337.368C459.665 338.223 463.185 342.015 464.769 344.278C466.55 346.822 467.08 349.826 467.814 353.983L467.863 354.26C468.625 358.579 469.877 388.745 469.877 390.217C469.877 391.156 469.877 391.234 469.712 391.509C469.639 391.63 469.468 391.915 469.11 393.348C468.269 396.707 460.836 398.191 449.115 399.494C438.081 400.721 304.422 405.028 292.512 405.029ZM260.18 339.548C262.082 339.548 263.99 339.886 265.872 340.586C277.287 344.833 284.894 364.303 287.008 375.578C289.378 388.215 290.012 393.886 289.522 398.053C289.23 400.535 289.079 402.361 289.803 403.24C290.177 403.694 290.818 403.941 291.823 404.018C291.827 404.018 291.836 404.018 291.849 404.018C294.139 404.018 436.267 399.916 449.004 398.501C458.051 397.495 467.399 396.068 468.14 393.108C468.535 391.531 468.743 391.183 468.855 390.997C468.877 390.928 468.877 390.645 468.877 390.22C468.877 388.754 467.635 358.723 466.879 354.437L466.83 354.16C466.118 350.13 465.604 347.218 463.951 344.855C462.236 342.405 458.019 337.932 457.977 337.888L457.813 337.714L457.845 337.477C457.852 337.424 458.523 332.132 455.453 328.591C452.938 325.689 420.682 312.646 403.978 306.155L403.884 306.107C403.54 305.882 369.384 283.452 356.747 276.02C342.758 267.791 322.351 260.798 303.494 257.771C284.419 254.71 252.561 253.294 231.075 253.012C216.364 252.817 190.213 255.495 179.651 256.655C175.361 257.126 171.151 257.887 167.14 258.916C160.623 260.588 150.84 263.482 141.234 267.768C131.01 272.329 119.25 279.957 110.664 285.527C105.468 288.898 101.363 291.56 99.0992 292.598C96.9372 293.589 94.3962 294.284 91.9392 294.957C87.6762 296.124 83.6502 297.226 83.0712 299.539C82.0882 303.472 81.3352 310.438 81.3272 310.508L81.3062 310.7L81.1602 310.829C81.1212 310.863 77.2962 314.361 76.8142 323.774C76.2932 333.912 75.5732 366.17 76.3052 370.318C76.3872 370.781 76.4572 371.207 76.5222 371.598C77.0502 374.803 77.1752 375.565 80.3132 377.238C82.4502 378.378 84.0832 379.656 85.2762 380.589C85.6742 380.9 86.1052 381.237 86.4272 381.456C86.4032 380.726 86.2982 379.404 86.1892 378.027C85.4462 368.678 83.9002 349.225 90.2772 343.446C94.2892 339.81 99.1812 338.442 103.698 339.693C109.278 341.239 113.709 346.571 116.174 354.709C119.152 364.536 119.762 374.887 120.166 381.735C120.389 385.51 120.619 389.414 121.189 389.775C123.084 390.722 125.504 390.975 125.528 390.978L235.975 399.953C235.188 395.98 231.44 374.984 236.884 360.695C241.917 347.489 250.967 339.548 260.18 339.548Z" fill="#263238"/>
<path d="M369.795 337.543L377.069 343.313L313.859 338.296L291.283 319.483L289.527 312.46L335.18 328.513L369.795 337.543Z" fill="#263238"/>
<path d="M378.666 343.94L313.661 338.782L313.539 338.679L290.839 319.763L288.818 311.68L335.346 328.042L370.025 337.087L378.666 343.94ZM314.057 337.809L375.472 342.684L369.567 338L335.053 328.997L290.238 313.239L291.729 319.203L314.057 337.809Z" fill="#263238"/>
<path d="M342.129 340.539L347.722 337.543H368.04C368.04 337.543 345.716 335.787 344.211 335.787C342.706 335.787 337.689 337.794 335.683 338.295C333.676 338.797 326.151 338.797 322.89 337.041C319.629 335.285 316.117 328.011 316.117 328.011L346.29 331.411L335.181 328.513L297.261 315.178C294.05 316.6 293.604 320.657 293.55 321.371L293.788 321.569L310.599 327.008L320.847 338.85L342.129 340.539Z" fill="white"/>
<path d="M342.235 341.049L320.602 339.332L310.312 327.44L293.467 321.953L293.031 321.59L293.051 321.333C293.114 320.498 293.602 316.251 297.057 314.721L297.239 314.64L335.346 328.041L346.415 330.927L346.233 331.907L316.984 328.612C317.996 330.536 320.676 335.282 323.126 336.601C326.233 338.274 333.541 338.315 335.56 337.81C336.288 337.628 337.451 337.234 338.681 336.816C340.894 336.065 343.183 335.288 344.209 335.288C345.716 335.288 367.165 336.974 368.077 337.046L368.038 338.044H347.847L342.235 341.049ZM321.09 338.368L342.022 340.03L347.595 337.044H355.059C349.839 336.65 344.879 336.288 344.209 336.288C343.348 336.288 340.938 337.106 339.002 337.764C337.751 338.189 336.569 338.589 335.802 338.781C333.614 339.329 326.013 339.292 322.652 337.482C319.286 335.669 315.812 328.532 315.666 328.229L315.272 327.414L339.406 330.133L335.054 328.998L297.287 315.719C294.77 316.96 294.199 320.038 294.074 321.138L310.885 326.577L321.09 338.368Z" fill="#263238"/>
<path d="M438.509 337.056L433.289 337.373L433.349 338.371L438.57 338.054L438.509 337.056Z" fill="#263238"/>
<path d="M384.609 339.552L373.762 338.542L373.854 337.546L384.58 338.544C385.802 338.359 404.511 335.56 413.73 336.292C420.855 336.854 426.577 337.276 429.012 337.453L428.94 338.451C426.502 338.274 420.779 337.851 413.652 337.288C404.279 336.556 384.865 339.513 384.671 339.542L384.609 339.552Z" fill="#263238"/>
<path d="M455.832 328.262C454.936 327.229 450.633 325.06 444.865 322.458L444.043 322.744C444.043 322.744 448.558 326.005 447.555 329.266C446.552 332.527 440.532 336.289 440.532 336.289L440.783 341.807C440.783 341.807 455.331 340.804 458.341 337.543C458.341 337.543 459.093 332.025 455.832 328.262Z" fill="white"/>
<path d="M440.305 342.341L440.018 336.019L440.266 335.865C440.325 335.828 446.14 332.164 447.076 329.119C447.961 326.241 443.791 323.18 443.749 323.149L442.973 322.586L444.889 321.92L445.071 322.002C451.696 324.99 455.339 326.931 456.21 327.934C459.58 331.823 458.868 337.376 458.836 337.61L458.816 337.766L458.709 337.881C455.601 341.249 441.42 342.263 440.817 342.305L440.305 342.341ZM441.044 336.554L441.258 341.268C443.807 341.057 455.118 339.979 457.863 337.318C457.948 336.409 458.225 331.786 455.455 328.59C454.949 328.006 452.785 326.608 445.441 323.268C446.791 324.535 448.798 326.927 448.033 329.413C447.094 332.462 442.22 335.788 441.044 336.554Z" fill="#263238"/>
<path d="M450.314 337.543C448.809 336.038 442.036 336.791 442.036 336.791C442.036 336.791 445.297 336.038 447.053 335.537C448.809 335.035 449.06 334.534 449.812 331.022C450.565 327.51 447.805 326.005 447.805 326.005L444.329 322.644L444.043 322.744C444.043 322.744 448.558 326.005 447.555 329.266C446.552 332.527 440.532 336.289 440.532 336.289L440.783 341.807C440.783 341.807 446.665 341.4 451.723 340.266C451.58 339.544 451.225 338.455 450.314 337.543Z" fill="#263238"/>
<path d="M440.305 342.341L440.018 336.019L440.266 335.865C440.325 335.828 446.14 332.164 447.076 329.119C447.961 326.241 443.791 323.18 443.749 323.149L442.973 322.587L444.454 322.071L448.112 325.607C448.56 325.887 451.051 327.617 450.3 331.127C449.535 334.692 449.209 335.441 447.189 336.018C447.063 336.054 446.929 336.091 446.791 336.129C448.405 336.214 449.968 336.493 450.666 337.191C451.654 338.178 452.053 339.356 452.212 340.17L452.306 340.648L451.831 340.755C446.794 341.885 440.875 342.303 440.815 342.307L440.305 342.341ZM441.044 336.554L441.258 341.268C442.731 341.146 447.132 340.735 451.116 339.887C450.934 339.271 450.596 338.532 449.96 337.897C448.987 336.925 444.617 337.008 442.092 337.288L441.924 336.304C441.956 336.296 445.193 335.549 446.915 335.057C448.352 334.646 448.564 334.457 449.323 330.917C449.838 328.515 448.523 327.163 447.888 326.666C448.213 327.53 448.324 328.465 448.033 329.413C447.094 332.462 442.22 335.788 441.044 336.554Z" fill="#263238"/>
<path d="M459.093 348.58C459.093 348.58 422.722 353.848 359.511 350.085C359.511 350.085 364.026 355.854 375.314 358.112C386.602 360.37 420.465 359.868 437.772 358.112C455.08 356.356 455.581 355.102 457.588 353.095C459.594 351.088 459.093 348.58 459.093 348.58Z" fill="#263238"/>
<path d="M401.836 360.113C390.778 360.113 380.571 359.674 375.216 358.602C363.877 356.334 359.306 350.635 359.117 350.394L358.433 349.52L359.539 349.586C421.965 353.3 458.656 348.137 459.02 348.084L459.489 348.017L459.582 348.482C459.605 348.594 460.111 351.278 457.94 353.449L457.68 353.712C455.785 355.641 454.533 356.914 437.822 358.61C428.97 359.507 414.816 360.113 401.836 360.113ZM360.744 350.659C362.501 352.335 367.104 355.96 375.411 357.622C386.199 359.78 419.659 359.446 437.722 357.615C454.074 355.956 455.226 354.784 456.969 353.01L457.235 352.742C458.538 351.439 458.673 349.9 458.647 349.144C454.005 349.752 418.516 354.006 360.744 350.659Z" fill="#263238"/>
<path d="M467.12 390.219C467.12 390.219 441.033 394.232 413.19 394.734C385.347 395.236 352.738 392.226 347.471 394.232C342.204 396.239 336.685 400.001 334.428 400.754C332.17 401.507 321.635 402.008 321.635 402.008C321.635 402.008 343.458 383.697 352.237 380.938C361.016 378.179 372.555 377.928 375.816 377.928C379.077 377.928 451.067 375.67 455.08 375.42C459.093 375.169 463.107 377.427 464.361 379.935C465.615 382.443 467.12 390.219 467.12 390.219Z" fill="#263238"/>
<path d="M320.177 402.579L321.313 401.626C322.207 400.875 343.313 383.219 352.085 380.462C361.269 377.575 373.463 377.429 375.814 377.429C379.471 377.429 451.299 375.156 455.047 374.921C459.459 374.651 463.546 377.192 464.806 379.711C466.077 382.252 467.547 389.805 467.61 390.125L467.709 390.635L467.195 390.714C466.933 390.754 440.756 394.737 413.198 395.235C400.563 395.461 387.161 394.975 375.341 394.545C361.424 394.039 350.433 393.641 347.648 394.699C344.65 395.842 341.538 397.577 339.038 398.971C337.11 400.045 335.588 400.894 334.586 401.229C332.289 401.994 322.091 402.487 321.659 402.507L320.177 402.579ZM455.693 375.901C455.5 375.901 455.305 375.907 455.111 375.919C451.36 376.153 379.475 378.429 375.815 378.429C373.489 378.429 361.429 378.573 352.386 381.415C344.955 383.751 327.75 397.624 323.119 401.429C326.101 401.259 332.605 400.834 334.268 400.281C335.181 399.976 336.742 399.106 338.549 398.098C341.077 396.689 344.225 394.934 347.291 393.766C350.265 392.631 361.346 393.036 375.376 393.546C387.183 393.976 400.569 394.462 413.18 394.235C438.534 393.778 462.718 390.362 466.526 389.803C466.168 388.038 464.938 382.211 463.912 380.158C462.847 378.027 459.361 375.901 455.693 375.901Z" fill="#263238"/>
<path d="M327.655 351.339C327.655 351.339 313.859 393.73 312.103 393.229C310.347 392.727 308.591 390.721 308.591 389.717C308.591 388.714 311.852 360.62 314.611 355.352C317.37 350.085 327.655 351.339 327.655 351.339Z" fill="#263238"/>
<path d="M312.191 393.752C312.11 393.752 312.038 393.73 311.966 393.71C310.007 393.15 308.092 390.951 308.092 389.718C308.092 388.566 311.356 360.491 314.169 355.12C317.056 349.611 327.282 350.79 327.716 350.844L328.319 350.917L328.131 351.494C328.097 351.601 324.638 362.218 321.01 372.638C314.258 392.023 312.921 393.752 312.191 393.752ZM325.061 351.713C321.929 351.713 316.8 352.251 315.054 355.584C312.421 360.611 309.094 388.555 309.091 389.717C309.091 390.376 310.477 392.142 312.064 392.692C313.842 390.773 322.018 367.007 326.985 351.78C326.536 351.749 325.864 351.713 325.061 351.713Z" fill="#263238"/>
<path d="M282.271 345.703L281.928 344.764C282.532 344.543 283.175 344.319 283.85 344.093C288.338 342.598 310.067 337.762 310.99 337.557L311.207 338.534C310.981 338.584 288.605 343.563 284.166 345.043C283.5 345.263 282.866 345.486 282.271 345.703Z" fill="#263238"/>
<path d="M276.708 348.024L276.261 347.129C276.295 347.112 277.1 346.711 278.507 346.112L278.899 347.032C277.522 347.619 276.715 348.02 276.708 348.024Z" fill="#263238"/>
<path d="M274.979 304.934C274.979 304.934 265.949 304.181 261.936 301.172C257.923 298.162 224.311 261.289 224.311 261.289C224.311 261.289 311.602 263.045 321.886 263.546C332.17 264.047 332.17 266.054 343.96 270.319C355.749 274.583 393.124 300.67 393.124 300.67L400.398 305.687C400.398 305.687 382.839 306.189 340.197 305.185C297.554 304.182 274.979 304.934 274.979 304.934Z" fill="#878787"/>
<path d="M386.289 306.31C376.532 306.31 361.446 306.185 340.185 305.685C298.047 304.694 275.221 305.426 274.996 305.434L274.967 305.435L274.938 305.433C274.563 305.402 265.718 304.634 261.636 301.572C257.631 298.568 225.315 263.133 223.941 261.626L223.157 260.766L224.321 260.789C225.193 260.807 311.736 262.551 321.91 263.047C328.897 263.388 331.262 264.442 335.555 266.354C337.651 267.288 340.259 268.449 344.129 269.849C355.846 274.087 391.881 299.194 393.409 300.261L401.939 306.144L400.412 306.188C400.324 306.19 395.882 306.31 386.289 306.31ZM298.901 304.167C309.399 304.167 323.239 304.287 340.208 304.685C375.426 305.514 393.692 305.313 398.839 305.22L392.839 301.082C392.464 300.82 355.382 274.982 343.789 270.789C339.885 269.377 337.259 268.207 335.148 267.267C330.829 265.343 328.661 264.377 321.861 264.046C312.347 263.582 235.871 262.024 225.465 261.813C230.55 267.38 258.645 298.079 262.235 300.772C265.979 303.58 274.441 304.384 274.992 304.434C275.564 304.416 283.75 304.167 298.901 304.167Z" fill="#263238"/>
<path d="M241.367 316.473C241.367 316.473 246.635 310.202 246.384 305.938C246.133 301.674 228.073 276.088 218.792 268.563C209.511 261.038 197.471 258.028 190.698 258.028C183.925 258.028 163.859 261.791 151.317 266.556C138.775 271.322 122.471 278.847 122.471 278.847L102.654 291.891C102.654 291.891 126.985 299.165 171.885 305.938C216.785 312.71 241.367 316.473 241.367 316.473Z" fill="#878787"/>
<path d="M241.569 317.01L241.291 316.968C241.045 316.93 216.196 313.128 171.811 306.433C127.39 299.732 102.755 292.443 102.512 292.37L101.485 292.063L122.196 278.43C122.425 278.318 138.725 270.807 151.139 266.089C163.994 261.204 183.999 257.527 190.698 257.527C198.056 257.527 210.084 260.858 219.107 268.174C228.334 275.655 246.61 301.266 246.883 305.908C247.143 310.32 241.97 316.531 241.75 316.794L241.569 317.01ZM103.838 291.711C108.948 293.148 132.71 299.524 171.96 305.444C213.805 311.756 238.287 315.497 241.159 315.936C242.059 314.812 246.095 309.555 245.884 305.968C245.65 302 227.941 276.626 218.476 268.952C209.643 261.79 197.884 258.529 190.697 258.529C184.071 258.529 164.25 262.177 151.493 267.025C139.111 271.73 122.842 279.228 122.679 279.303L103.838 291.711Z" fill="#263238"/>
<path d="M218.792 268.563C209.511 261.038 197.471 258.028 190.698 258.028C183.925 258.028 163.859 261.79 151.317 266.556C138.775 271.322 122.471 278.847 122.471 278.847L102.654 291.891C102.654 291.891 109.214 293.85 121.777 296.678L132.754 277.091L142.035 272.325L132.154 298.91C132.834 299.05 133.528 299.191 134.23 299.334L143.791 272.325C152.319 267.81 176.901 261.79 176.901 261.79C169.621 271.639 163.99 297.191 162.496 304.466C165.522 304.957 168.643 305.449 171.885 305.938C172.058 305.964 172.223 305.989 172.395 306.015C172.765 283.782 183.423 261.038 183.423 261.038C183.423 261.038 193.456 260.035 206.249 264.55C219.042 269.065 226.065 277.844 226.065 277.844L219.519 313.146C220.433 313.285 221.317 313.419 222.176 313.55L227.821 280.855L235.597 290.638L231.707 315.001C238.067 315.97 241.366 316.474 241.366 316.474C241.366 316.474 246.634 310.203 246.383 305.939C246.133 301.674 228.073 276.088 218.792 268.563Z" fill="#263238"/>
<path d="M241.569 317.01L231.134 315.418L235.069 290.775L228.124 282.038L222.585 314.117L218.933 313.563L225.53 277.984C224.468 276.74 217.599 269.086 206.082 265.021C194.729 261.014 185.465 261.397 183.755 261.513C182.579 264.115 173.237 285.429 172.895 306.022L172.885 306.593L171.809 306.43C168.566 305.941 165.443 305.449 162.416 304.958L161.901 304.875L162.006 304.364C163.503 297.074 168.795 273.159 175.73 262.598C170.599 263.896 151.584 268.845 144.196 272.677L134.555 299.91L131.481 299.282L141.117 273.358L133.116 277.466L122.03 297.247L121.666 297.165C109.229 294.365 102.576 292.389 102.51 292.369L101.482 292.062L122.194 278.429C122.423 278.317 138.723 270.806 151.137 266.088C163.992 261.203 183.997 257.526 190.696 257.526C198.054 257.526 210.082 260.857 219.105 268.173C228.332 275.654 246.608 301.264 246.881 305.906C247.141 310.319 241.968 316.53 241.748 316.793L241.569 317.01ZM232.281 314.581L241.159 315.935C242.059 314.811 246.095 309.554 245.884 305.966C245.65 301.998 227.941 276.625 218.476 268.95C209.643 261.788 197.884 258.527 190.697 258.527C184.071 258.527 164.25 262.175 151.493 267.023C139.111 271.728 122.842 279.226 122.679 279.301L103.837 291.71C106.122 292.354 112.135 293.987 121.523 296.108L132.392 276.715L142.953 271.292L132.826 298.538L133.904 298.758L143.385 271.975L143.557 271.884C152.042 267.391 175.776 261.551 176.782 261.305L178.125 260.976L177.303 262.088C170.269 271.605 164.769 295.978 163.091 304.056C165.938 304.517 168.869 304.977 171.906 305.435C172.443 283.529 182.863 261.052 182.969 260.826L183.089 260.569L183.372 260.541C183.472 260.532 193.665 259.579 206.415 264.079C219.194 268.59 226.384 277.444 226.455 277.533L226.598 277.712L220.105 312.731L221.767 312.983L227.518 279.671L236.125 290.5L232.281 314.581Z" fill="#263238"/>
<path d="M238.357 298.914C238.357 298.914 233.842 294.901 231.584 296.656C229.326 298.412 228.323 301.673 228.323 301.673L223.808 301.171C223.808 301.171 219.795 290.636 216.785 290.385C213.775 290.134 199.477 289.382 196.216 290.636C192.955 291.89 192.454 294.649 192.203 296.405C191.952 298.161 191.45 303.679 193.959 304.933C196.467 306.187 220.046 308.946 220.046 308.946L228.073 311.956L226.819 314.715L241.367 316.471C241.367 316.471 245.882 308.444 246.384 305.936C246.885 303.429 238.357 298.914 238.357 298.914Z" fill="#263238"/>
<path d="M241.639 317.01L226.081 315.132L227.396 312.239L219.927 309.438C218.322 309.25 196.253 306.641 193.735 305.382C190.862 303.945 191.457 298.094 191.708 296.336C191.929 294.791 192.389 291.574 196.037 290.171C199.539 288.826 214.665 289.709 216.827 289.889C219.866 290.142 223.405 298.763 224.166 300.71L227.982 301.134C228.333 300.182 229.374 297.745 231.278 296.264C233.729 294.356 238.115 298.042 238.643 298.502C240.234 299.348 247.416 303.333 246.874 306.038C246.363 308.595 241.989 316.39 241.803 316.721L241.639 317.01ZM227.556 314.302L241.093 315.936C241.902 314.479 245.465 307.978 245.893 305.839C246.188 304.362 241.527 301.159 238.123 299.356L238.025 299.288C236.855 298.25 233.472 295.825 231.892 297.051C229.79 298.686 228.811 301.789 228.802 301.821L228.68 302.216L223.451 301.636L223.342 301.351C221.833 297.392 218.708 291.049 216.744 290.885C213.302 290.599 199.462 289.925 196.397 291.105C193.296 292.297 192.907 295.017 192.699 296.479C192.252 299.608 192.373 303.584 194.183 304.489C196.176 305.486 213.57 307.688 220.104 308.453L220.222 308.481L228.75 311.679L227.556 314.302Z" fill="#263238"/>
<path d="M222.303 302.426C223.808 301.172 223.808 301.172 223.808 301.172C223.808 301.172 219.795 290.637 216.785 290.386C213.775 290.135 199.477 289.383 196.216 290.637C192.955 291.891 192.454 294.65 192.203 296.406C192.071 297.325 191.876 299.275 192.075 301.106C199.074 301.702 221.039 303.48 222.303 302.426Z" fill="white"/>
<path d="M218.433 303.236C213.633 303.236 204.807 302.691 192.033 301.604L191.623 301.569L191.579 301.16C191.354 299.097 191.622 296.946 191.709 296.335C191.93 294.79 192.39 291.573 196.038 290.17C199.54 288.825 214.666 289.708 216.828 289.888C220.058 290.157 223.855 299.885 224.277 300.994L224.404 301.328L222.625 302.811C222.282 303.095 220.881 303.236 218.433 303.236ZM192.534 300.643C209.357 302.067 220.891 302.611 221.996 302.031L223.212 301.017C221.66 297.045 218.652 291.043 216.743 290.883C213.301 290.597 199.461 289.923 196.396 291.103C193.295 292.295 192.906 295.015 192.698 296.477C192.62 297.018 192.395 298.827 192.534 300.643Z" fill="#263238"/>
<path d="M230.831 321.992L229.869 321.718C230.697 318.812 231.354 316.837 231.361 316.817L232.309 317.133C232.303 317.152 231.653 319.109 230.831 321.992Z" fill="#263238"/>
<path d="M222.805 393.227C220.93 393.227 135.251 383.291 134.449 383.19C132.665 382.967 131.808 382.376 130.252 381.305C129.941 381.091 129.601 380.857 129.217 380.601C126.688 378.915 111.703 337.78 110.2 332.411C109.945 331.502 109.734 330.232 109.572 328.636L110.567 328.535C110.723 330.074 110.923 331.287 111.163 332.141C113.091 339.03 127.703 378.289 129.772 379.77C130.16 380.029 130.504 380.266 130.818 380.482C132.291 381.496 133.03 382.004 134.572 382.198C135.373 382.298 221.04 392.223 222.804 392.227C224.221 392.227 224.599 391.987 225.073 389.62C225.333 388.319 225.535 376.419 225.731 364.91C225.905 354.675 226.085 344.091 226.318 339.773C226.509 336.239 227.29 331.709 228.639 326.31L229.609 326.552C228.275 331.889 227.505 336.356 227.317 339.828C227.084 344.126 226.904 354.701 226.731 364.928C226.525 377.013 226.332 388.427 226.054 389.816C225.551 392.334 224.985 393.227 222.805 393.227Z" fill="#263238"/>
<path d="M109.262 323.79C108.946 315.184 109.504 304.068 109.694 303.309C109.947 302.295 114.75 299.708 118.734 297.715L119.181 298.61C115.263 300.569 111 302.969 110.648 303.594C110.515 304.195 109.941 315.036 110.26 323.753L109.262 323.79Z" fill="#263238"/>
<path d="M163.104 383.446H162.104V382.192C162.104 381.934 161.939 379.455 161.711 376.022C161.449 372.069 161.087 366.606 160.722 360.745L161.72 360.682C162.085 366.542 162.447 372.003 162.709 375.955C162.976 379.971 163.104 381.913 163.104 382.191V383.446Z" fill="#263238"/>
<path d="M160.224 352.444C159.458 339.156 159.163 330.841 159.346 327.732C159.845 319.24 163.346 307.91 163.381 307.796L164.336 308.093C164.301 308.205 160.837 319.422 160.344 327.79C160.163 330.861 160.459 339.136 161.222 352.387L160.224 352.444Z" fill="#263238"/>
<path d="M122.424 313.69C121.896 316.41 120.365 318.401 119.005 318.137C117.645 317.873 116.971 315.454 117.499 312.734C118.027 310.014 119.558 308.023 120.918 308.287C122.278 308.551 122.952 310.97 122.424 313.69Z" fill="#263238"/>
<path d="M119.255 318.661C119.14 318.661 119.025 318.65 118.91 318.628C118.056 318.463 117.4 317.703 117.062 316.491C116.757 315.397 116.738 314.03 117.008 312.639C117.598 309.603 119.357 307.471 121.012 307.797C122.668 308.119 123.503 310.749 122.914 313.786C122.644 315.177 122.114 316.438 121.422 317.338C120.759 318.201 120.001 318.661 119.255 318.661ZM120.677 308.764C119.751 308.764 118.472 310.349 117.99 312.829C117.749 314.07 117.762 315.275 118.026 316.222C118.254 317.039 118.646 317.558 119.101 317.646C119.563 317.736 120.115 317.399 120.63 316.728C121.229 315.949 121.692 314.836 121.933 313.595C122.44 310.982 121.754 308.959 120.822 308.778C120.776 308.769 120.727 308.764 120.677 308.764Z" fill="#263238"/>
<path d="M122.205 311.776L116.156 311.156C115.083 311.046 114.133 311.848 114.061 312.924C113.994 313.931 114.724 314.815 115.725 314.94L121.759 315.694C122.936 315.841 123.975 314.924 123.975 313.738C123.975 312.727 123.211 311.88 122.205 311.776Z" fill="#92E3A9"/>
<path d="M122.003 316.209C121.901 316.209 121.799 316.203 121.697 316.19L115.663 315.436C114.4 315.278 113.477 314.16 113.562 312.891C113.606 312.234 113.907 311.638 114.41 311.213C114.913 310.789 115.551 310.593 116.206 310.658L122.255 311.279C123.521 311.409 124.475 312.466 124.475 313.738C124.475 314.446 124.17 315.122 123.639 315.591C123.186 315.992 122.602 316.209 122.003 316.209ZM115.959 311.646C115.628 311.646 115.313 311.761 115.056 311.977C114.763 312.225 114.586 312.573 114.561 312.957C114.511 313.699 115.05 314.352 115.788 314.444L121.822 315.198C122.244 315.248 122.662 315.12 122.979 314.841C123.295 314.562 123.477 314.159 123.477 313.737C123.477 312.98 122.909 312.35 122.156 312.273L116.107 311.652C116.056 311.648 116.007 311.646 115.959 311.646Z" fill="#263238"/>
<path d="M174.644 320.336C174.03 323.626 172.249 326.035 170.667 325.715C169.085 325.395 168.3 322.469 168.915 319.179C169.529 315.889 171.31 313.481 172.892 313.8C174.474 314.119 175.259 317.045 174.644 320.336Z" fill="#263238"/>
<path d="M170.95 326.243C170.822 326.243 170.694 326.23 170.568 326.205C168.691 325.826 167.749 322.7 168.423 319.087C168.878 316.652 169.965 314.596 171.259 313.723C171.828 313.339 172.426 313.197 172.99 313.31C174.867 313.689 175.809 316.815 175.135 320.428C174.68 322.863 173.593 324.919 172.299 325.792C171.857 326.09 171.397 326.243 170.95 326.243ZM172.607 314.272C172.359 314.272 172.095 314.366 171.819 314.552C170.755 315.27 169.808 317.122 169.407 319.271C168.804 322.496 169.639 324.997 170.766 325.225C171.063 325.286 171.393 325.197 171.74 324.963C172.804 324.245 173.751 322.393 174.152 320.244C174.755 317.018 173.919 314.517 172.793 314.29C172.733 314.278 172.67 314.272 172.607 314.272Z" fill="#263238"/>
<path d="M174.389 318.02L167.352 317.269C166.104 317.136 164.999 318.106 164.915 319.408C164.837 320.626 165.686 321.696 166.851 321.847L173.87 322.759C175.239 322.937 176.448 321.827 176.448 320.392C176.449 319.17 175.559 318.145 174.389 318.02Z" fill="#92E3A9"/>
<path d="M174.153 323.278C174.038 323.278 173.922 323.271 173.806 323.256L166.787 322.343C165.363 322.159 164.322 320.855 164.416 319.376C164.466 318.604 164.827 317.879 165.409 317.389C165.972 316.914 166.683 316.694 167.405 316.772L174.443 317.523C175.872 317.675 176.95 318.909 176.95 320.393C176.95 321.24 176.592 322.041 175.966 322.591C175.458 323.036 174.813 323.278 174.153 323.278ZM167.123 317.757C166.734 317.757 166.36 317.895 166.053 318.153C165.674 318.473 165.447 318.93 165.414 319.44C165.353 320.394 166.012 321.234 166.915 321.351L173.934 322.264C174.434 322.328 174.919 322.178 175.305 321.839C175.714 321.48 175.949 320.952 175.949 320.393C175.949 319.422 175.256 318.616 174.336 318.517L167.299 317.766C167.24 317.76 167.181 317.757 167.123 317.757Z" fill="#263238"/>
<path d="M93.1233 300.67C93.2763 298.986 89.7893 297.119 87.0453 295.916C84.7293 296.767 82.9903 297.808 82.5883 299.415C81.5853 303.428 80.8323 310.452 80.8323 310.452C80.8323 310.452 92.8723 303.429 93.1233 300.67Z" fill="#263238"/>
<path d="M80.2292 311.383L80.3342 310.4C80.3652 310.112 81.1022 303.296 82.1022 299.296C82.6132 297.252 84.9192 296.166 86.8712 295.448L87.0592 295.379L87.2442 295.46C91.6792 297.403 93.7642 299.123 93.6202 300.717C93.3592 303.587 83.1312 309.691 81.0832 310.885L80.2292 311.383ZM87.0292 296.456C84.6302 297.364 83.3713 298.345 83.0723 299.537C82.3123 302.579 81.6892 307.432 81.4432 309.51C86.0122 306.769 92.4682 302.337 92.6252 300.625C92.7172 299.608 90.6292 298.055 87.0292 296.456Z" fill="#263238"/>
<path d="M328.297 264.276L281.887 304.784C290.229 304.652 306.038 304.539 328.83 304.948L350.919 273.626C348.155 272.131 345.757 270.969 343.959 270.318C335.291 267.184 332.993 265.27 328.297 264.276Z" fill="white"/>
<path d="M329.086 305.454L328.821 305.449C306.676 305.051 291.08 305.139 281.895 305.284L280.529 305.305L328.157 263.734L328.401 263.786C331.044 264.345 332.936 265.188 335.556 266.354C337.652 267.287 340.26 268.448 344.128 269.847C345.843 270.467 348.207 271.59 351.156 273.185L351.651 273.453L329.086 305.454ZM298.84 304.163C306.913 304.163 316.815 304.235 328.573 304.445L350.184 273.8C347.509 272.37 345.36 271.359 343.788 270.79C339.886 269.379 337.26 268.209 335.149 267.27C332.667 266.166 330.852 265.357 328.436 264.819L283.242 304.265C287.326 304.207 292.523 304.163 298.84 304.163Z" fill="#263238"/>
<path d="M371.95 305.735L374.984 288.417C371.553 286.163 367.916 283.815 364.339 281.573C361.11 289.225 357.544 297.684 354.26 305.48C360.939 305.603 366.818 305.684 371.95 305.735Z" fill="white"/>
<path d="M372.369 306.239L371.945 306.235C366.433 306.18 360.48 306.095 354.251 305.981L353.513 305.967L353.799 305.286C357.083 297.491 360.649 289.031 363.878 281.379L364.106 280.837L364.604 281.149C367.904 283.218 371.489 285.523 375.258 287.999L375.532 288.18L372.369 306.239ZM355.007 304.994C360.808 305.098 366.36 305.178 371.531 305.23L374.435 288.654C370.959 286.374 367.646 284.242 364.571 282.309C361.497 289.594 358.133 297.573 355.007 304.994Z" fill="#263238"/>
<path d="M196.626 373.24C208.43 370.259 215.705 357.765 212.874 345.335C210.043 332.905 198.179 325.245 186.374 328.226C174.57 331.207 167.295 343.7 170.126 356.13C172.957 368.561 184.821 376.221 196.626 373.24Z" fill="#263238"/>
<path d="M204.494 352.308H195.869L199.538 323.143L178.886 352.692H187.511L183.843 381.858L204.494 352.308Z" fill="white"/>
<path d="M183.405 383L187.179 352.999H178.31L199.975 322L196.201 352.001H205.069L183.405 383ZM179.461 352.386H187.844L184.28 380.715L203.919 352.614H195.537L199.101 324.285L179.461 352.386Z" fill="#263238"/>
</g>
<defs>
<filter id="filter0_d_59_587" x="154.334" y="73.2456" width="438.666" height="437.754" filterUnits="userSpaceOnUse" color-interpolation-filters="sRGB">
<feFlood flood-opacity="0" result="BackgroundImageFix"/>
<feColorMatrix in="SourceAlpha" type="matrix" values="0 0 0 0 0 0 0 0 0 0 0 0 0 0 0 0 0 0 127 0" result="hardAlpha"/>
<feOffset dy="4"/>
<feGaussianBlur stdDeviation="2"/>
<feComposite in2="hardAlpha" operator="out"/>
<feColorMatrix type="matrix" values="0 0 0 0 0 0 0 0 0 0 0 0 0 0 0 0 0 0 0.25 0"/>
<feBlend mode="normal" in2="BackgroundImageFix" result="effect1_dropShadow_59_587"/>
<feBlend mode="normal" in="SourceGraphic" in2="effect1_dropShadow_59_587" result="shape"/>
</filter>
<filter id="filter1_dd_59_587" x="0" y="15" width="438.666" height="437.754" filterUnits="userSpaceOnUse" color-interpolation-filters="sRGB">
<feFlood flood-opacity="0" result="BackgroundImageFix"/>
<feColorMatrix in="SourceAlpha" type="matrix" values="0 0 0 0 0 0 0 0 0 0 0 0 0 0 0 0 0 0 127 0" result="hardAlpha"/>
<feOffset dy="4"/>
<feGaussianBlur stdDeviation="2"/>
<feComposite in2="hardAlpha" operator="out"/>
<feColorMatrix type="matrix" values="0 0 0 0 0 0 0 0 0 0 0 0 0 0 0 0 0 0 0.25 0"/>
<feBlend mode="normal" in2="BackgroundImageFix" result="effect1_dropShadow_59_587"/>
<feColorMatrix in="SourceAlpha" type="matrix" values="0 0 0 0 0 0 0 0 0 0 0 0 0 0 0 0 0 0 127 0" result="hardAlpha"/>
<feOffset dy="4"/>
<feGaussianBlur stdDeviation="2"/>
<feComposite in2="hardAlpha" operator="out"/>
<feColorMatrix type="matrix" values="0 0 0 0 0 0 0 0 0 0 0 0 0 0 0 0 0 0 0.25 0"/>
<feBlend mode="normal" in2="effect1_dropShadow_59_587" result="effect2_dropShadow_59_587"/>
<feBlend mode="normal" in="SourceGraphic" in2="effect2_dropShadow_59_587" result="shape"/>
</filter>
<clipPath id="clip0_59_587">
<rect width="500" height="500" fill="white" transform="translate(89)"/>
</clipPath>
</defs>
</svg>
