<svg  viewBox="0 0 500 500" fill="none" xmlns="http://www.w3.org/2000/svg">
<path d="M250 427.56C357.083 427.56 443.89 422.492 443.89 416.24C443.89 409.988 357.083 404.92 250 404.92C142.918 404.92 56.1101 409.988 56.1101 416.24C56.1101 422.492 142.918 427.56 250 427.56Z" fill="#F5F5F5"/>
<path d="M459.6 115H332.07C326.939 115 322.78 119.159 322.78 124.29V407.36C322.78 412.491 326.939 416.65 332.07 416.65H459.6C464.731 416.65 468.89 412.491 468.89 407.36V124.29C468.89 119.159 464.731 115 459.6 115Z" fill="#92E3A9"/>
<path d="M453.82 115H326.29C321.159 115 317 119.159 317 124.29V407.36C317 412.491 321.159 416.65 326.29 416.65H453.82C458.951 416.65 463.11 412.491 463.11 407.36V124.29C463.11 119.159 458.951 115 453.82 115Z" fill="#92E3A9"/>
<path opacity="0.7" d="M453.82 115H326.29C321.159 115 317 119.159 317 124.29V407.36C317 412.491 321.159 416.65 326.29 416.65H453.82C458.951 416.65 463.11 412.491 463.11 407.36V124.29C463.11 119.159 458.951 115 453.82 115Z" fill="white"/>
<g opacity="0.9">
<path d="M346.33 115H338.42V416.65H346.33V115Z" fill="white"/>
<path d="M430.02 115H425.17V416.65H430.02V115Z" fill="white"/>
<path d="M317 180.52V188.43L463.11 179.38V171.47L317 180.52Z" fill="white"/>
<path d="M317.01 367.39V375.3H463.12V367.39H317.01Z" fill="white"/>
<path d="M317 220.01V224.32H463.11V220.01H317Z" fill="white"/>
<path d="M317 321.98V331.04L463.11 281.6V272.54L317 321.98Z" fill="white"/>
<path d="M368.21 115H360.3L381.56 416.66H389.47L368.21 115Z" fill="white"/>
</g>
<path d="M395 385.29H221.05V331.07H374.38L388.69 342.7C390.668 344.305 392.262 346.333 393.353 348.634C394.445 350.936 395.008 353.453 395 356V385.29Z" fill="#92E3A9"/>
<path opacity="0.5" d="M395 385.29H221.05V331.07H374.38L388.69 342.7C390.668 344.305 392.262 346.333 393.353 348.634C394.445 350.936 395.008 353.453 395 356V385.29Z" fill="black"/>
<path d="M220.05 380.4C220.05 360.61 229.05 344.57 240.05 344.57H218.83C207.76 344.57 198.83 360.57 198.83 380.4C198.83 400.23 207.83 416.24 218.83 416.24H240.09C229 416.24 220.05 400.19 220.05 380.4Z" fill="#263238"/>
<path d="M240.09 416.23C251.158 416.23 260.13 400.188 260.13 380.4C260.13 360.612 251.158 344.57 240.09 344.57C229.022 344.57 220.05 360.612 220.05 380.4C220.05 400.188 229.022 416.23 240.09 416.23Z" fill="#263238"/>
<path d="M241.7 408.34C249.548 408.34 255.91 395.831 255.91 380.4C255.91 364.969 249.548 352.46 241.7 352.46C233.852 352.46 227.49 364.969 227.49 380.4C227.49 395.831 233.852 408.34 241.7 408.34Z" fill="white"/>
<path d="M104.54 380.4C104.54 360.61 113.54 344.57 124.54 344.57H103.32C92.2501 344.57 83.3201 360.57 83.3201 380.4C83.3201 400.23 92.3201 416.24 103.32 416.24H124.58C113.51 416.24 104.54 400.19 104.54 380.4Z" fill="#263238"/>
<path d="M124.58 416.23C135.648 416.23 144.62 400.188 144.62 380.4C144.62 360.612 135.648 344.57 124.58 344.57C113.512 344.57 104.54 360.612 104.54 380.4C104.54 400.188 113.512 416.23 124.58 416.23Z" fill="#263238"/>
<path d="M357.38 380.4C357.38 360.61 366.38 344.57 377.38 344.57H356.16C345.1 344.57 336.16 360.57 336.16 380.4C336.16 400.23 345.16 416.24 356.16 416.24H377.42C366.36 416.24 357.38 400.19 357.38 380.4Z" fill="#263238"/>
<path d="M377.42 416.23C388.488 416.23 397.46 400.188 397.46 380.4C397.46 360.612 388.488 344.57 377.42 344.57C366.352 344.57 357.38 360.612 357.38 380.4C357.38 400.188 366.352 416.23 377.42 416.23Z" fill="#263238"/>
<path d="M379.04 408.34C386.888 408.34 393.25 395.831 393.25 380.4C393.25 364.969 386.888 352.46 379.04 352.46C371.192 352.46 364.83 364.969 364.83 380.4C364.83 395.831 371.192 408.34 379.04 408.34Z" fill="white"/>
<path d="M196.37 390.4H170.66L169.22 389C167.741 387.518 165.734 386.683 163.64 386.68H99.38C97.286 386.683 95.279 387.518 93.8 389L92.92 389.87H90.58C88.7618 389.87 86.9616 389.511 85.2827 388.813C83.6038 388.115 82.0794 387.092 80.7971 385.803C79.5147 384.514 78.4997 382.985 77.8103 381.303C77.1209 379.62 76.7707 377.818 76.78 376V354.85H222.6L211 380.07C209.93 383.094 207.948 385.712 205.328 387.562C202.708 389.412 199.578 390.404 196.37 390.4Z" fill="#92E3A9"/>
<path opacity="0.2" d="M196.37 390.4H170.66L169.22 389C167.741 387.518 165.734 386.683 163.64 386.68H99.38C97.286 386.683 95.279 387.518 93.8 389L92.92 389.87H90.58C88.7618 389.87 86.9616 389.511 85.2827 388.813C83.6038 388.115 82.0794 387.092 80.7971 385.803C79.5147 384.514 78.4997 382.985 77.8103 381.303C77.1209 379.62 76.7707 377.818 76.78 376V354.85H222.6L211 380.07C209.93 383.094 207.948 385.712 205.328 387.562C202.708 389.412 199.578 390.404 196.37 390.4Z" fill="black"/>
<path d="M348.16 264.68C348.071 264.682 347.985 264.657 347.91 264.61C347.853 264.578 347.802 264.535 347.762 264.483C347.722 264.431 347.693 264.371 347.676 264.308C347.659 264.245 347.655 264.179 347.665 264.114C347.674 264.049 347.696 263.986 347.73 263.93L354.73 251.93C354.759 251.866 354.801 251.809 354.853 251.763C354.905 251.716 354.966 251.681 355.033 251.66C355.1 251.638 355.17 251.631 355.24 251.639C355.309 251.646 355.376 251.668 355.437 251.704C355.497 251.739 355.55 251.786 355.591 251.843C355.632 251.9 355.66 251.964 355.675 252.033C355.689 252.101 355.689 252.172 355.674 252.24C355.66 252.309 355.631 252.373 355.59 252.43L348.59 264.43C348.546 264.506 348.484 264.568 348.408 264.612C348.333 264.656 348.247 264.679 348.16 264.68Z" fill="#263238"/>
<path d="M385.08 324.38V310.74C385.08 303.57 374.66 269.74 360.33 263.4C346 257.06 311.33 254.24 289.49 255.4C267.65 256.56 238.49 302.24 238.49 302.24L241.66 341.52C246.1 341.52 260.24 340.18 262.31 379.04C262.449 381.78 263.636 384.361 265.626 386.249C267.617 388.136 270.257 389.186 273 389.18H349.46C352.028 389.178 354.51 388.248 356.447 386.561C358.384 384.874 359.645 382.544 360 380C362 366.15 367.22 341.49 379.81 341.49C388.64 341.49 394.97 349.05 394.97 357.72C394.972 348.195 392.659 338.812 388.23 330.38L385.08 324.38Z" fill="#92E3A9"/>
<path d="M209.49 255.4C169.72 255.4 124.66 302.24 124.66 302.24H238.53C238.53 302.24 267.66 256.57 289.53 255.4H209.49Z" fill="#92E3A9"/>
<path opacity="0.4" d="M211.93 255.4C178.43 255.4 143.29 288.64 133.04 299.11C132.785 299.369 132.613 299.698 132.545 300.054C132.476 300.411 132.515 300.78 132.657 301.115C132.798 301.45 133.035 301.735 133.338 301.935C133.641 302.136 133.997 302.242 134.36 302.24H226.22C229.917 302.25 233.565 301.388 236.866 299.724C240.168 298.059 243.03 295.639 245.22 292.66C255.1 279.2 274.13 256.23 289.53 255.4H211.93Z" fill="white"/>
<path d="M238.53 302.24L196.47 335.43L83.28 335.07C83.28 335.07 76.78 344.52 76.78 354.85H222.6C224.99 348.52 233.37 341.52 241.7 341.52C241.7 329.74 238.53 302.24 238.53 302.24Z" fill="#92E3A9"/>
<path opacity="0.2" d="M211 325.65C210.88 325.649 210.765 325.605 210.675 325.526C210.585 325.447 210.527 325.338 210.51 325.22C210.493 325.09 210.527 324.959 210.606 324.854C210.684 324.75 210.801 324.68 210.93 324.66C221.026 323.023 230.474 318.628 238.23 311.96C239.763 310.67 240.761 308.856 241.029 306.87C241.298 304.884 240.816 302.87 239.68 301.22C239.638 301.166 239.608 301.105 239.591 301.039C239.574 300.974 239.571 300.905 239.581 300.838C239.591 300.771 239.615 300.707 239.651 300.649C239.687 300.592 239.734 300.542 239.79 300.503C239.845 300.464 239.908 300.437 239.975 300.424C240.041 300.41 240.11 300.41 240.176 300.424C240.243 300.438 240.306 300.465 240.361 300.504C240.417 300.543 240.464 300.592 240.5 300.65C241.774 302.505 242.314 304.769 242.012 306.999C241.711 309.23 240.591 311.269 238.87 312.72C230.978 319.512 221.359 323.984 211.08 325.64L211 325.65Z" fill="black"/>
<path d="M83.28 335.07C83.28 335.07 103.16 311.9 124.66 302.24H238.53L196.47 335.43L83.28 335.07Z" fill="#92E3A9"/>
<path d="M171.33 335.07H96.6599V337.24H171.33V335.07Z" fill="#263238"/>
<path d="M169.78 330.73L173.78 326.73C174.679 325.832 175.818 325.21 177.06 324.94L207.27 318.36C208.332 318.128 209.435 318.162 210.48 318.46L212.1 318.91C213.179 319.214 214.163 319.786 214.961 320.572C215.759 321.359 216.345 322.334 216.664 323.408C216.984 324.482 217.026 325.62 216.787 326.715C216.549 327.81 216.037 328.826 215.3 329.67L208.8 337.1C207.679 338.378 206.112 339.18 204.42 339.34L175.09 342C174.121 342.092 173.144 341.97 172.228 341.642C171.312 341.313 170.479 340.787 169.79 340.1C168.55 338.857 167.852 337.173 167.85 335.417C167.848 333.661 168.542 331.976 169.78 330.73Z" fill="white"/>
<path d="M98.7698 332.85L95.4599 326.66C94.9939 325.793 94.303 325.068 93.4599 324.56C92.659 324.08 91.748 323.813 90.8145 323.787C89.881 323.761 88.9564 323.975 88.1298 324.41L85.6199 325.73C84.3871 326.382 83.4499 327.48 82.9999 328.8L81.4699 333.33C81.2154 334.076 81.1258 334.868 81.2071 335.652C81.2884 336.436 81.5387 337.193 81.9408 337.87C82.3429 338.548 82.8872 339.131 83.5361 339.578C84.1851 340.025 84.9233 340.326 85.6998 340.46L92.6099 341.65C93.7369 341.845 94.8968 341.681 95.9252 341.18C96.9536 340.679 97.7983 339.867 98.3398 338.86L98.7999 338.01C99.2232 337.215 99.4422 336.327 99.4369 335.426C99.4317 334.525 99.2025 333.64 98.7698 332.85Z" fill="white"/>
<path opacity="0.4" d="M261.79 303.57H367.07C367.963 303.571 368.843 303.362 369.64 302.962C370.438 302.561 371.131 301.979 371.663 301.263C372.196 300.547 372.553 299.716 372.707 298.837C372.861 297.958 372.807 297.055 372.55 296.2C370.15 288.2 365.55 275.69 358.64 269.31C357.872 268.607 356.929 268.124 355.91 267.91C343.5 265.28 323.55 263.53 308.75 262.51C302.042 262.051 295.313 263.05 289.028 265.44C282.743 267.829 277.05 271.551 272.34 276.35C266.709 282.039 261.623 288.242 257.15 294.88C256.589 295.721 256.268 296.698 256.218 297.708C256.169 298.717 256.395 299.721 256.871 300.613C257.347 301.505 258.056 302.25 258.922 302.771C259.788 303.292 260.779 303.568 261.79 303.57Z" fill="white"/>
<path d="M193.72 366.57C193.72 369.85 190.36 372.52 186.22 372.52C182.08 372.52 178.72 369.85 178.72 366.57C178.72 363.29 182.07 360.63 186.22 360.63C190.37 360.63 193.72 363.29 193.72 366.57Z" fill="#263238"/>
<path d="M133.29 330.53C135.75 330.53 136.95 333.05 135.97 336.15C134.99 339.25 132.21 341.78 129.74 341.78C127.27 341.78 126.08 339.26 127.06 336.15C128.04 333.04 130.83 330.53 133.29 330.53Z" fill="#263238"/>
<path d="M82.8299 366.57C82.8299 369.85 81.8299 372.52 80.7199 372.52C79.6099 372.52 78.5999 369.85 78.5999 366.57C78.5999 363.29 79.5999 360.63 80.7199 360.63C81.8399 360.63 82.8299 363.29 82.8299 366.57Z" fill="#263238"/>
<path d="M258.55 302.62V299.25C258.549 298.283 258.764 297.328 259.178 296.454C259.593 295.581 260.198 294.811 260.948 294.2C261.698 293.59 262.575 293.155 263.515 292.926C264.455 292.698 265.433 292.682 266.38 292.88L279.2 295.55C280.664 295.855 281.978 296.655 282.921 297.815C283.864 298.975 284.379 300.425 284.38 301.92V302.62C284.38 304.345 283.696 305.999 282.477 307.22C281.258 308.44 279.605 309.127 277.88 309.13H265.06C263.334 309.13 261.678 308.444 260.457 307.223C259.236 306.002 258.55 304.347 258.55 302.62Z" fill="#263238"/>
<path d="M326 263.91C326 263.91 324.29 263.74 321.31 263.48C334.49 290.48 331.13 303.57 331.13 303.57H341.19C341.29 287.13 326 263.91 326 263.91Z" fill="#263238"/>
<path opacity="0.2" d="M214.84 291.48C214.636 293.602 213.65 295.572 212.073 297.007C210.496 298.441 208.442 299.237 206.31 299.24H154.48C150.7 299.24 149.33 295.02 152.07 291.88C157.014 286.25 162.383 281.008 168.13 276.2C177.89 267.98 190.01 263.71 201.34 264.5L205.62 264.81C207.467 264.954 209.219 265.691 210.613 266.911C212.008 268.131 212.971 269.768 213.36 271.58C214.872 278.098 215.372 284.81 214.84 291.48Z" fill="#92E3A9"/>
<path opacity="0.2" d="M332.33 382.07C332.197 382.07 332.07 382.017 331.977 381.924C331.883 381.83 331.83 381.703 331.83 381.57C331.83 371.45 336.99 329.72 338.34 323.47C339.65 317.4 339.65 310.62 338.34 306.21C338.303 306.083 338.318 305.946 338.382 305.83C338.445 305.713 338.553 305.627 338.68 305.59C338.807 305.556 338.943 305.572 339.059 305.635C339.174 305.698 339.261 305.804 339.3 305.93C340.65 310.49 340.65 317.46 339.3 323.68C337.95 329.9 332.81 371.49 332.81 381.57C332.81 381.699 332.76 381.823 332.671 381.917C332.581 382.01 332.459 382.065 332.33 382.07Z" fill="black"/>
<path opacity="0.2" d="M331 324H318.81C318.579 324.008 318.349 323.962 318.138 323.866C317.927 323.771 317.741 323.628 317.594 323.449C317.447 323.271 317.344 323.06 317.291 322.835C317.238 322.61 317.238 322.375 317.29 322.15L317.54 320.74C317.641 320.232 317.91 319.774 318.304 319.438C318.697 319.102 319.193 318.909 319.71 318.89H331.9C332.131 318.883 332.361 318.928 332.572 319.024C332.783 319.119 332.969 319.262 333.116 319.441C333.262 319.619 333.366 319.83 333.419 320.055C333.472 320.28 333.472 320.515 333.42 320.74L333.17 322.15C333.069 322.658 332.8 323.116 332.406 323.452C332.012 323.788 331.517 323.981 331 324Z" fill="black"/>
<path d="M272.63 417.043L278.67 416.943L280.41 402.943L274.38 403.043L272.63 417.043Z" fill="#B55B52"/>
<path d="M301.46 416.593L307.32 414.803L303.68 401.533L297.82 403.333L301.46 416.593Z" fill="#B55B52"/>
<path d="M307.14 413.043L300.6 416.413C300.493 416.47 300.41 416.561 300.363 416.672C300.315 416.783 300.307 416.907 300.34 417.023L301.74 422.333C301.774 422.462 301.836 422.581 301.923 422.682C302.01 422.784 302.119 422.864 302.241 422.917C302.363 422.97 302.496 422.994 302.629 422.988C302.762 422.982 302.892 422.946 303.01 422.883C305.1 421.763 306.57 420.883 309.22 419.473C310.85 418.633 315.85 416.273 318.1 415.103C320.35 413.933 319.5 411.563 318.48 411.843C313.88 413.073 310.12 413.433 308.18 412.923C307.83 412.831 307.459 412.874 307.14 413.043Z" fill="#263238"/>
<path d="M278.79 416.243L272.2 416.353C272.081 416.355 271.967 416.398 271.876 416.475C271.785 416.551 271.723 416.656 271.7 416.773L270.59 422.153C270.561 422.283 270.562 422.418 270.593 422.547C270.624 422.676 270.684 422.797 270.769 422.899C270.854 423.002 270.962 423.083 271.083 423.138C271.204 423.192 271.337 423.218 271.47 423.213C273.85 423.133 277.28 422.943 280.27 422.893C283.76 422.843 284.78 422.983 288.88 422.893C291.35 422.893 292 420.333 290.96 420.123C286.22 419.123 284.37 419.123 280.26 416.663C279.814 416.398 279.308 416.254 278.79 416.243Z" fill="#263238"/>
<path d="M287.96 233.373C289.33 236.123 290.88 239.033 292.43 241.803C293.98 244.573 295.62 247.333 297.37 249.923C297.82 250.563 298.24 251.233 298.7 251.843L299.83 253.383C300.06 253.683 300.19 253.823 300.23 253.893C300.27 253.963 300.29 254.063 300.58 254.083C301.642 253.891 302.629 253.406 303.43 252.683C303.98 252.263 304.54 251.783 305.09 251.273C305.64 250.763 306.19 250.173 306.67 249.703L310.66 251.923C310.327 252.806 309.933 253.665 309.48 254.493C309.033 255.34 308.518 256.15 307.94 256.913C307.324 257.747 306.62 258.511 305.84 259.193C304.912 260.018 303.837 260.659 302.67 261.083C301.208 261.616 299.621 261.703 298.11 261.333C296.693 260.986 295.382 260.299 294.29 259.333C294.048 259.129 293.818 258.912 293.6 258.683L293.28 258.353L293.05 258.093L292.17 257.093C291.58 256.423 291.04 255.733 290.48 255.093C288.344 252.346 286.373 249.475 284.58 246.493C283.7 245.013 282.83 243.493 282.03 242.003C281.23 240.513 280.45 239.003 279.71 237.313L287.96 233.373Z" fill="#B55B52"/>
<path d="M277.14 233.413C275.51 238.953 286.96 254.043 286.96 254.043L298.51 246.613C296.336 241.813 293.654 237.261 290.51 233.033C285.78 227.003 278.92 227.323 277.14 233.413Z" fill="#92E3A9"/>
<g opacity="0.2">
<path d="M277.14 233.413C275.51 238.953 286.96 254.043 286.96 254.043L298.51 246.613C296.336 241.813 293.654 237.261 290.51 233.033C285.78 227.003 278.92 227.323 277.14 233.413Z" fill="black"/>
</g>
<path opacity="0.2" d="M284.18 239.913C286.55 240.913 290.05 246.653 291.87 250.913L286.97 254.063C284.227 250.403 281.764 246.542 279.6 242.513C281.15 240.793 282.92 239.383 284.18 239.913Z" fill="black"/>
<path d="M305.98 250.783L310.16 244.023L313.81 249.853C312.931 251.408 311.505 252.581 309.81 253.143L305.98 250.783Z" fill="#B55B52"/>
<path d="M315.99 244.093V246.183C315.99 246.836 315.764 247.468 315.35 247.973L313.83 249.853L310.18 244.023L313.95 242.653C314.18 242.571 314.427 242.546 314.669 242.58C314.912 242.613 315.142 242.704 315.342 242.845C315.542 242.987 315.705 243.173 315.818 243.39C315.93 243.607 315.989 243.848 315.99 244.093Z" fill="#B55B52"/>
<path d="M311.91 252.733L305.33 252.633L308.97 239.003L315.55 239.103L311.91 252.733Z" fill="#92E3A9"/>
<path d="M312.58 252.733L306 252.633L309.64 239.003L316.22 239.103L312.58 252.733Z" fill="#263238"/>
<path opacity="0.2" d="M280.41 402.953L279.51 410.163L273.47 410.263L274.37 403.043L280.41 402.953Z" fill="black"/>
<path opacity="0.2" d="M297.82 403.333L303.69 401.533L305.56 408.373L299.69 410.173L297.82 403.333Z" fill="black"/>
<path d="M251.66 236.323C256.59 257.543 255.52 278.593 256.06 283.133L288.25 280.733C291.34 246.243 284.02 228.733 284.02 228.733C284.02 228.733 281.95 228.333 279.14 228.043C278.26 227.953 277.3 227.873 276.31 227.823C275.76 227.823 275.21 227.773 274.64 227.763C270.064 227.834 265.497 228.168 260.96 228.763C260.1 228.873 259.23 228.993 258.38 229.133L256.1 229.553H256.01C255.273 229.699 254.573 229.993 253.953 230.416C253.332 230.838 252.803 231.382 252.397 232.014C251.991 232.646 251.716 233.353 251.59 234.093C251.463 234.834 251.487 235.592 251.66 236.323Z" fill="#92E3A9"/>
<g opacity="0.2">
<path d="M251.66 236.323C256.59 257.543 255.52 278.593 256.06 283.133L288.25 280.733C291.34 246.243 284.02 228.733 284.02 228.733C284.02 228.733 281.95 228.333 279.14 228.043C278.26 227.953 277.3 227.873 276.31 227.823C275.76 227.823 275.21 227.773 274.64 227.763C270.064 227.834 265.497 228.168 260.96 228.763C260.1 228.873 259.23 228.993 258.38 229.133L256.1 229.553H256.01C255.273 229.699 254.573 229.993 253.953 230.416C253.332 230.838 252.803 231.382 252.397 232.014C251.991 232.646 251.716 233.353 251.59 234.093C251.463 234.834 251.487 235.592 251.66 236.323Z" fill="black"/>
</g>
<path opacity="0.2" d="M257.11 240.803L253.41 245.553C253.415 245.613 253.415 245.673 253.41 245.733C253.93 248.953 254.33 252.103 254.63 255.143C258.18 250.773 257.66 242.883 257.11 240.803Z" fill="black"/>
<path d="M262.51 219.383C263.28 222.623 263.23 226.223 260.91 228.803C263.48 231.003 266.81 233.513 272.05 233.313C277.29 233.113 276.12 229.573 274.59 227.783C270.12 227.063 270.11 224.153 270.07 220.953C270.068 220.629 269.963 220.314 269.771 220.054C269.579 219.793 269.309 219.6 269 219.503L264.08 217.923C263.872 217.857 263.65 217.847 263.437 217.894C263.224 217.942 263.028 218.045 262.868 218.194C262.708 218.343 262.591 218.531 262.528 218.74C262.465 218.949 262.459 219.171 262.51 219.383Z" fill="#B55B52"/>
<path d="M276.66 253.993C273.96 253.993 271.47 250.753 270.98 246.613C270.788 245.517 270.821 244.393 271.078 243.31C271.334 242.227 271.807 241.207 272.47 240.313C272.782 239.936 273.173 239.631 273.615 239.421C274.057 239.21 274.54 239.098 275.03 239.093C277.72 239.093 280.22 242.333 280.7 246.473C280.892 247.569 280.86 248.692 280.606 249.775C280.351 250.858 279.88 251.878 279.22 252.773C278.905 253.148 278.514 253.45 278.072 253.661C277.631 253.871 277.149 253.985 276.66 253.993ZM275.04 240.093C274.691 240.099 274.348 240.182 274.035 240.336C273.723 240.49 273.447 240.711 273.23 240.983C272.666 241.772 272.267 242.667 272.054 243.613C271.841 244.559 271.819 245.538 271.99 246.493C272.4 250.023 274.54 252.993 276.67 252.993C277.02 252.988 277.365 252.906 277.68 252.752C277.994 252.598 278.271 252.377 278.49 252.103C279.051 251.312 279.45 250.418 279.663 249.472C279.875 248.526 279.898 247.548 279.73 246.593C279.34 243.063 277.2 240.093 275.08 240.093H275.04Z" fill="#92E3A9"/>
<path opacity="0.2" d="M270.08 221.133L265.13 221.773C265.24 221.993 265.38 222.203 265.51 222.413C266.45 223.913 268.51 224.903 270.65 225.263C270.186 223.938 269.992 222.534 270.08 221.133Z" fill="black"/>
<path d="M276.5 208.323C279.25 208.783 284.39 205.663 283.19 201.503C281.65 203.433 276.5 202.783 276.5 202.783V208.323Z" fill="#263238"/>
<path d="M265.76 212.723C266.06 215.503 262.63 220.453 258.55 219.003C260.55 217.583 260.23 212.393 260.23 212.393L265.76 212.723Z" fill="#263238"/>
<path d="M261.73 207.323C260.99 213.263 260.25 216.713 262.66 220.323C266.27 225.693 274.03 224.323 276.53 218.753C278.78 213.753 279.61 204.843 274.29 201.423C273.125 200.667 271.786 200.221 270.4 200.126C269.014 200.032 267.627 200.292 266.37 200.883C265.113 201.473 264.027 202.374 263.215 203.501C262.403 204.628 261.892 205.944 261.73 207.323Z" fill="#B55B52"/>
<path d="M260.91 213.323C262.36 214.853 266.35 208.603 265.62 206.323C267.12 206.983 270 205.723 269.82 203.243C274.31 205.643 280.82 207.543 280.92 203.243C281.02 198.943 276.92 195.693 272.92 195.353C273.4 196.643 272.13 197.193 269.52 196.643C266.91 196.093 256.85 191.463 257.96 200.713C254.2 200.933 253.71 205.693 260.91 213.323Z" fill="#263238"/>
<path d="M257.97 211.013C258.178 212.505 258.969 213.853 260.17 214.763C261.77 215.953 262.77 214.693 262.92 212.813C263.06 211.113 262.92 208.453 261.01 208.003C260.594 207.912 260.163 207.927 259.755 208.046C259.347 208.164 258.974 208.383 258.672 208.682C258.37 208.981 258.148 209.351 258.025 209.758C257.902 210.165 257.883 210.597 257.97 211.013Z" fill="#B55B52"/>
<path d="M267.04 282.323L288.2 280.753C288.2 280.753 290.94 324.183 290.73 342.593C290.52 361.753 281.73 408.723 281.73 408.723L271.51 408.883C271.51 408.883 272.32 363.323 272.32 344.513C272.32 319.183 267.01 282.323 267.01 282.323" fill="#263238"/>
<path opacity="0.2" d="M275.22 327.473C275.5 328.723 283.37 363.933 285.91 384.473C287.26 375.933 288.65 366.343 289.59 357.873L275.22 327.473Z" fill="black"/>
<path d="M276.78 281.613C276.78 281.613 292.89 321.073 296.52 338.383C300.52 357.333 306.87 405.263 306.87 405.263L295.94 406.963C295.94 406.963 287.67 371.133 283.04 352.833C277.78 331.973 256.92 298.943 256.04 283.153L276.78 281.613Z" fill="#263238"/>
<path d="M308.24 406.193L294.66 409.373L292.95 404.143L307.78 401.603L308.24 406.193Z" fill="#92E3A9"/>
<path d="M283.05 408.953L270.87 409.143L270.81 405.213L284.41 404.793L283.05 408.953Z" fill="#92E3A9"/>
<path d="M270.01 210.403C269.92 210.883 270.1 211.313 270.41 211.403C270.72 211.493 271.05 211.123 271.14 210.643C271.23 210.163 271.05 209.733 270.73 209.643C270.41 209.553 270.1 209.923 270.01 210.403Z" fill="#263238"/>
<path d="M275.93 211.663C275.84 212.133 276.02 212.573 276.33 212.663C276.64 212.753 276.97 212.383 277.06 211.903C277.15 211.423 276.97 210.983 276.66 210.903C276.35 210.823 276.02 211.183 275.93 211.663Z" fill="#263238"/>
<path d="M273.98 211.543C274.277 213.112 274.788 214.633 275.5 216.063C275.128 216.235 274.724 216.324 274.315 216.324C273.905 216.324 273.501 216.235 273.13 216.063L273.98 211.543Z" fill="#A02724"/>
<path d="M272.12 217.533C271.584 217.422 271.077 217.202 270.63 216.887C270.183 216.573 269.805 216.17 269.52 215.703C269.502 215.668 269.498 215.628 269.509 215.591C269.52 215.553 269.546 215.522 269.58 215.503C269.613 215.488 269.651 215.486 269.686 215.497C269.721 215.508 269.751 215.531 269.77 215.563C270.096 216.074 270.537 216.501 271.058 216.81C271.579 217.119 272.165 217.302 272.77 217.343C272.802 217.351 272.83 217.37 272.85 217.396C272.87 217.423 272.881 217.455 272.881 217.488C272.881 217.521 272.87 217.553 272.85 217.579C272.83 217.606 272.802 217.624 272.77 217.633C272.551 217.618 272.333 217.585 272.12 217.533Z" fill="#263238"/>
<path d="M269.42 208.263C269.373 208.242 269.329 208.215 269.29 208.183C269.24 208.126 269.212 208.053 269.212 207.978C269.212 207.902 269.24 207.83 269.29 207.773C269.62 207.461 270.02 207.233 270.457 207.106C270.893 206.979 271.353 206.957 271.8 207.043C271.872 207.064 271.933 207.112 271.97 207.178C272.008 207.243 272.018 207.32 272 207.393C271.981 207.464 271.935 207.526 271.871 207.563C271.807 207.6 271.731 207.611 271.66 207.593C271.302 207.529 270.934 207.55 270.586 207.656C270.238 207.762 269.921 207.95 269.66 208.203C269.627 208.23 269.588 208.249 269.546 208.26C269.505 208.27 269.462 208.271 269.42 208.263Z" fill="#263238"/>
<path d="M279.12 210.173C279.074 210.158 279.033 210.132 278.999 210.097C278.966 210.062 278.942 210.019 278.93 209.973C278.849 209.624 278.685 209.3 278.451 209.028C278.218 208.757 277.922 208.546 277.59 208.413C277.517 208.39 277.457 208.339 277.421 208.272C277.385 208.205 277.378 208.126 277.4 208.053C277.423 207.98 277.473 207.92 277.541 207.884C277.608 207.849 277.687 207.841 277.76 207.863C278.187 208.032 278.567 208.302 278.867 208.65C279.167 208.999 279.377 209.415 279.48 209.863C279.492 209.899 279.496 209.937 279.492 209.975C279.489 210.013 279.477 210.05 279.458 210.083C279.439 210.116 279.414 210.145 279.383 210.167C279.352 210.189 279.317 210.205 279.28 210.213C279.223 210.221 279.166 210.207 279.12 210.173Z" fill="#263238"/>
<path d="M309.4 413.063C308.921 413.296 308.418 413.474 307.9 413.593C307.878 413.61 307.852 413.619 307.825 413.619C307.797 413.619 307.771 413.61 307.75 413.593C307.733 413.569 307.725 413.542 307.725 413.513C307.725 413.484 307.733 413.456 307.75 413.433C307.88 413.213 309.06 411.253 309.81 411.253C309.894 411.253 309.978 411.276 310.05 411.32C310.122 411.364 310.181 411.428 310.22 411.503C310.298 411.621 310.346 411.757 310.36 411.898C310.374 412.039 310.353 412.182 310.3 412.313C310.088 412.653 309.773 412.916 309.4 413.063ZM308.17 413.223C308.903 413.114 309.567 412.732 310.03 412.153C310.065 412.063 310.077 411.965 310.065 411.869C310.052 411.773 310.016 411.681 309.96 411.603C309.9 411.503 309.85 411.493 309.8 411.493C309.41 411.493 308.66 412.463 308.17 413.223Z" fill="#92E3A9"/>
<path d="M307.93 413.583H307.85C307.824 413.579 307.8 413.569 307.779 413.553C307.758 413.537 307.741 413.517 307.73 413.493C307.366 412.71 307.248 411.835 307.39 410.983C307.432 410.881 307.494 410.788 307.573 410.71C307.652 410.633 307.746 410.573 307.85 410.533C307.945 410.485 308.054 410.472 308.158 410.496C308.262 410.519 308.355 410.579 308.42 410.663C308.85 411.203 308.42 412.933 307.98 413.523C307.976 413.536 307.97 413.548 307.961 413.558C307.952 413.568 307.942 413.577 307.93 413.583ZM307.93 410.853C307.821 410.908 307.736 411 307.69 411.113C307.57 411.789 307.654 412.485 307.93 413.113C308.26 412.403 308.49 411.163 308.24 410.853C308.24 410.853 308.16 410.753 307.99 410.853H307.93Z" fill="#92E3A9"/>
<path d="M279.4 417.073C279.374 417.063 279.351 417.045 279.336 417.021C279.32 416.998 279.312 416.971 279.312 416.943C279.312 416.915 279.32 416.888 279.336 416.864C279.351 416.841 279.374 416.823 279.4 416.813C279.67 416.663 282.08 415.393 282.82 415.813C282.888 415.852 282.945 415.907 282.987 415.973C283.029 416.039 283.054 416.115 283.06 416.193C283.075 416.322 283.059 416.453 283.014 416.574C282.969 416.696 282.895 416.805 282.8 416.893C282.15 417.483 280.42 417.273 279.44 417.093L279.4 417.073ZM282.66 416.023C281.698 416.078 280.765 416.367 279.94 416.863C280.835 417.118 281.792 417.047 282.64 416.663C282.703 416.604 282.751 416.53 282.779 416.448C282.807 416.366 282.814 416.278 282.8 416.193C282.801 416.162 282.793 416.131 282.777 416.105C282.761 416.078 282.738 416.057 282.71 416.043L282.66 416.023Z" fill="#92E3A9"/>
<path d="M279.4 417.073C279.38 417.057 279.365 417.038 279.354 417.015C279.344 416.992 279.339 416.968 279.34 416.943C279.393 416.089 279.707 415.272 280.24 414.603C280.459 414.416 280.742 414.323 281.03 414.343C281.43 414.343 281.54 414.583 281.57 414.743C281.69 415.423 280.27 416.743 279.57 417.083C279.544 417.1 279.514 417.109 279.483 417.107C279.452 417.105 279.423 417.093 279.4 417.073ZM281.11 414.643C281.064 414.63 281.015 414.63 280.97 414.643C280.865 414.631 280.759 414.642 280.659 414.674C280.559 414.707 280.467 414.761 280.39 414.833C279.946 415.362 279.677 416.015 279.62 416.703C280.36 416.253 281.32 415.203 281.25 414.803C281.25 414.743 281.23 414.683 281.11 414.643Z" fill="#92E3A9"/>
<path d="M261.27 238.203C259.27 241.753 257.27 245.543 255.47 249.273C253.657 252.919 252.103 256.688 250.82 260.553C250.67 261.023 250.56 261.483 250.42 261.943C250.37 262.153 250.28 262.453 250.25 262.593C250.217 262.708 250.191 262.825 250.17 262.943C250.084 263.571 250.1 264.21 250.22 264.833C250.622 266.545 251.28 268.186 252.17 269.703C254.245 273.198 256.664 276.478 259.39 279.493L256.49 282.973C252.622 280.416 249.186 277.26 246.31 273.623C244.707 271.597 243.466 269.31 242.64 266.863C242.164 265.402 241.95 263.868 242.01 262.333C242.01 261.923 242.09 261.493 242.14 261.083C242.19 260.673 242.25 260.463 242.31 260.143C242.43 259.563 242.54 258.953 242.67 258.383C243.79 253.942 245.31 249.611 247.21 245.443C249.033 241.348 251.103 237.367 253.41 233.523L261.27 238.203Z" fill="#B55B52"/>
<path d="M254.99 230.013C249.42 231.543 243.99 247.193 243.99 247.193L257.4 250.913C259.749 247.618 261.624 244.009 262.97 240.193C265.79 232.583 261.73 228.173 254.99 230.013Z" fill="#92E3A9"/>
<g opacity="0.2">
<path d="M254.99 230.013C249.42 231.543 243.99 247.193 243.99 247.193L257.4 250.913C259.749 247.618 261.624 244.009 262.97 240.193C265.79 232.583 261.73 228.173 254.99 230.013Z" fill="black"/>
</g>
<path d="M256.82 278.463L262.94 280.073L260.51 285.823C260.51 285.823 255.02 284.663 255.05 281.673L256.82 278.463Z" fill="#B55B52"/>
<path d="M265.29 283.973L263.48 288.523L260.51 285.823L262.94 280.073L265.29 283.973Z" fill="#B55B52"/>
</svg>
