<svg width="" height="" viewBox="0 0 500 500" fill="none" xmlns="http://www.w3.org/2000/svg">
<g clip-path="url(#clip0_249_4309)">
<path d="M500 383.4H0V383.65H500V383.4Z" fill="#EBEBEB"/>
<path d="M137.66 390.21H104.54V390.46H137.66V390.21Z" fill="#EBEBEB"/>
<path d="M211.89 399.37H171.14V399.62H211.89V399.37Z" fill="#EBEBEB"/>
<path d="M103.54 396.24H52.46V396.49H103.54V396.24Z" fill="#EBEBEB"/>
<path d="M449.9 391.89H356.76V392.14H449.9V391.89Z" fill="#EBEBEB"/>
<path d="M347.86 391.89H341.53V392.14H347.86V391.89Z" fill="#EBEBEB"/>
<path d="M319.44 396.11H277.21V396.36H319.44V396.11Z" fill="#EBEBEB"/>
<path d="M237 338.8H43.91C42.3973 338.797 40.9475 338.195 39.8788 337.124C38.8102 336.053 38.21 334.603 38.21 333.09V61.66C38.2231 60.156 38.8292 58.718 39.8964 57.6582C40.9637 56.5985 42.4059 56.0026 43.91 56H237C238.514 56 239.967 56.6016 241.038 57.6724C242.108 58.7433 242.71 60.1956 242.71 61.71V333.09C242.71 334.604 242.108 336.057 241.038 337.128C239.967 338.198 238.514 338.8 237 338.8ZM43.91 56.2C42.4636 56.2026 41.0774 56.7791 40.0556 57.8027C39.0338 58.8264 38.46 60.2136 38.46 61.66V333.09C38.46 334.536 39.0338 335.924 40.0556 336.947C41.0774 337.971 42.4636 338.547 43.91 338.55H237C238.447 338.547 239.834 337.971 240.858 336.948C241.881 335.924 242.457 334.537 242.46 333.09V61.66C242.457 60.2127 241.881 58.8255 240.858 57.8021C239.834 56.7787 238.447 56.2026 237 56.2H43.91Z" fill="#EBEBEB"/>
<path d="M453.31 338.8H260.21C258.696 338.797 257.246 338.195 256.175 337.125C255.105 336.054 254.503 334.604 254.5 333.09V61.66C254.516 60.1551 255.124 58.7171 256.193 57.6576C257.262 56.5981 258.705 56.0025 260.21 56H453.31C454.812 56.0052 456.252 56.6022 457.317 57.6617C458.382 58.7212 458.987 60.1578 459 61.66V333.09C459 334.601 458.401 336.05 457.335 337.121C456.268 338.191 454.821 338.795 453.31 338.8ZM260.21 56.2C258.763 56.2026 257.375 56.7787 256.352 57.8021C255.329 58.8255 254.753 60.2127 254.75 61.66V333.09C254.753 334.537 255.329 335.924 256.352 336.948C257.375 337.971 258.763 338.547 260.21 338.55H453.31C454.757 338.547 456.145 337.971 457.168 336.948C458.191 335.924 458.767 334.537 458.77 333.09V61.66C458.767 60.2127 458.191 58.8255 457.168 57.8021C456.145 56.7787 454.757 56.2026 453.31 56.2H260.21Z" fill="#EBEBEB"/>
<path d="M312.17 167.52C315.898 167.52 318.92 164.153 318.92 160C318.92 155.847 315.898 152.48 312.17 152.48C308.442 152.48 305.42 155.847 305.42 160C305.42 164.153 308.442 167.52 312.17 167.52Z" fill="#F5F5F5"/>
<path d="M314.63 76.78H314.2C313.674 76.0378 312.994 75.4172 312.208 74.9601C311.421 74.5029 310.546 74.2198 309.64 74.13C309.113 74.1154 308.592 74.2399 308.128 74.491C307.665 74.742 307.276 75.1107 307 75.56C304.57 72.42 301.44 70.38 298.5 70.38C297.39 70.3787 296.304 70.7106 295.384 71.3328C294.464 71.955 293.752 72.8388 293.34 73.87C292.175 72.6937 290.622 71.9825 288.97 71.87C286.39 71.87 284.8 74.15 284.77 77.37C283.568 76.6646 282.22 76.2439 280.83 76.14C279.716 76.0157 278.593 76.2748 277.645 76.8748C276.698 77.4747 275.984 78.3795 275.62 79.44C275.129 79.09 274.552 78.8792 273.95 78.83C272.54 78.75 271.76 79.93 272.11 81.5H321.06C320.456 80.2473 319.554 79.1619 318.433 78.3389C317.312 77.516 316.006 76.9807 314.63 76.78Z" fill="#E6E6E6"/>
<path d="M250 427.56C357.083 427.56 443.89 422.492 443.89 416.24C443.89 409.988 357.083 404.92 250 404.92C142.918 404.92 56.1101 409.988 56.1101 416.24C56.1101 422.492 142.918 427.56 250 427.56Z" fill="#F5F5F5"/>
<path d="M316.09 421.45C311.09 421.45 308.38 420.21 308.38 417.97C308.38 416.06 310.51 414.65 314.9 413.67C320.794 412.568 326.785 412.079 332.78 412.21H413C417.88 412.21 421.54 410.79 424.21 407.86C431.44 399.95 429.82 382.13 428.64 369.13C428.24 364.71 427.86 360.53 427.86 357.28C427.93 352.949 428.331 348.63 429.06 344.36C429.81 339.31 430.4 335.36 428.79 333.45C427.73 332.22 425.52 331.63 422.02 331.63V328.46C426.56 328.46 429.47 329.39 431.18 331.38C433.75 334.38 433.06 338.98 432.18 344.82C431.469 348.937 431.074 353.103 431 357.28C431 360.39 431.37 364.49 431.77 368.84C433.07 383.19 434.69 401.05 426.53 410C423.27 413.56 418.71 415.37 412.98 415.37H332.78C319.83 415.37 314.07 416.89 312.16 417.84C313.442 418.176 314.765 418.328 316.09 418.29V421.45Z" fill="#92E3A9"/>
<path d="M422 324.55V335.55C423.459 335.55 424.858 334.971 425.889 333.939C426.921 332.908 427.5 331.509 427.5 330.05C427.5 328.591 426.921 327.192 425.889 326.161C424.858 325.13 423.459 324.55 422 324.55Z" fill="#92E3A9"/>
<path d="M374.8 165.89H332.78V418.5H374.8V165.89Z" fill="#263238"/>
<path d="M386.34 162.78H336.38V165.89H386.34V162.78Z" fill="#263238"/>
<path opacity="0.4" d="M386.34 162.78H374.81V165.89H386.34V162.78Z" fill="black"/>
<path d="M360.72 188.27H353.65L359.83 178.49H352.06L346.87 192.32H353.32L349.39 204.81L360.72 188.27Z" fill="white"/>
<path opacity="0.5" d="M360.038 331.75C363.487 328.301 363.487 322.711 360.038 319.262C356.59 315.814 350.999 315.814 347.551 319.262C344.103 322.711 344.103 328.301 347.551 331.75C350.999 335.198 356.59 335.198 360.038 331.75Z" fill="#92E3A9"/>
<path d="M316.09 421.45C315.671 421.45 315.269 421.284 314.973 420.987C314.676 420.691 314.51 420.289 314.51 419.87C314.51 419.451 314.676 419.049 314.973 418.753C315.269 418.456 315.671 418.29 316.09 418.29C321.18 418.29 324.69 417.03 326.83 414.44C331.75 408.49 329.3 395.69 326.71 382.13C324.99 373.13 323.21 363.82 323.21 355.13C323.21 334.99 334.07 323.89 353.79 323.89C354.008 323.873 354.228 323.901 354.436 323.972C354.643 324.044 354.833 324.158 354.995 324.307C355.156 324.456 355.284 324.637 355.372 324.838C355.46 325.039 355.506 325.256 355.506 325.475C355.506 325.694 355.46 325.911 355.372 326.112C355.284 326.313 355.156 326.494 354.995 326.643C354.833 326.792 354.643 326.906 354.436 326.978C354.228 327.049 354.008 327.077 353.79 327.06C341.28 327.06 326.37 331.93 326.37 355.13C326.37 363.48 328.12 372.64 329.81 381.5C332.55 395.81 335.13 409.32 329.27 416.41C326.49 419.81 322.18 421.45 316.09 421.45Z" fill="#92E3A9"/>
<path opacity="0.5" d="M369.57 246.01H338.03V309.75H369.57V246.01Z" fill="#92E3A9"/>
<path opacity="0.5" d="M338.02 246.01V309.75L349.32 254.88L338.02 246.01Z" fill="#92E3A9"/>
<path d="M363.58 267.5L364.22 264.39H355.61L354.97 267.5H351.64L345.54 297.12H360.89L366.99 267.5H363.58Z" fill="#92E3A9"/>
<path opacity="0.4" d="M362.78 278L359.64 293.26C359.534 293.783 359.249 294.253 358.836 294.591C358.422 294.928 357.904 295.112 357.37 295.11H349.71C349.502 295.112 349.296 295.067 349.108 294.978C348.92 294.89 348.754 294.76 348.622 294.599C348.491 294.437 348.397 294.249 348.348 294.046C348.299 293.844 348.297 293.634 348.34 293.43L351.48 278.17C351.586 277.647 351.87 277.177 352.284 276.839C352.698 276.502 353.216 276.319 353.75 276.32H361.41C361.618 276.319 361.824 276.364 362.012 276.452C362.2 276.541 362.366 276.67 362.498 276.832C362.629 276.993 362.723 277.182 362.772 277.384C362.821 277.586 362.823 277.797 362.78 278Z" fill="white"/>
<path opacity="0.4" d="M338.02 246.01L369.56 246V254.88H349.32L338.02 246.01Z" fill="#263238"/>
<path d="M374.8 418.5H389.92L389.92 165.89H374.8L374.8 418.5Z" fill="#263238"/>
<path opacity="0.4" d="M374.8 418.5H389.92L389.92 165.89H374.8L374.8 418.5Z" fill="black"/>
<path d="M-2.14803 382.192L38.31 385.827C38.31 385.827 34.352 346.249 27.002 337.203C19.652 328.157 3.82096 326.46 -3.52904 341.161C-10.88 355.861 -2.14803 382.192 -2.14803 382.192Z" fill="#263238"/>
<path d="M38.8671 386.379L-2.51993 382.661L-2.62292 382.349C-2.98192 381.266 -11.3349 355.653 -3.97693 340.937C-0.745927 334.476 4.45207 330.542 10.6611 329.861C16.9061 329.173 23.3121 331.869 27.3901 336.887C34.7501 345.947 38.6451 384.155 38.8071 385.777L38.8671 386.379ZM-1.77292 381.723L37.7491 385.274C37.2131 380.273 33.2951 345.742 26.6141 337.518C22.7471 332.759 16.6731 330.209 10.7701 330.855C4.91107 331.498 -0.00892925 335.237 -3.08293 341.385C-9.82893 354.879 -2.71292 378.724 -1.77292 381.723Z" fill="#263238"/>
<path d="M32.0913 346.484H13.7803V409.539H32.0913C39.4113 409.539 45.3463 395.424 45.3463 378.011C45.3463 360.598 39.4113 346.484 32.0913 346.484Z" fill="#263238"/>
<path d="M32.0913 410.04H13.2803V345.984H32.0913C39.8043 345.984 45.8453 360.052 45.8453 378.012C45.8453 395.971 39.8043 410.04 32.0913 410.04ZM14.2803 409.04H32.0913C39.1243 409.04 44.8453 395.121 44.8453 378.013C44.8453 360.904 39.1233 346.985 32.0913 346.985H14.2803V409.04Z" fill="#263238"/>
<path d="M13.7802 409.54C21.1007 409.54 27.0351 395.425 27.0351 378.012C27.0351 360.6 21.1007 346.484 13.7802 346.484C6.45962 346.484 0.525146 360.6 0.525146 378.012C0.525146 395.425 6.45962 409.54 13.7802 409.54Z" fill="#878787"/>
<path d="M13.7791 410.04C6.06614 410.04 0.0251465 395.972 0.0251465 378.013C0.0251465 360.054 6.06714 345.986 13.7791 345.986C21.4911 345.986 27.5341 360.054 27.5341 378.013C27.5341 395.971 21.4921 410.04 13.7791 410.04ZM13.7791 346.985C6.74614 346.985 1.02515 360.904 1.02515 378.012C1.02515 395.12 6.74714 409.039 13.7791 409.039C20.8121 409.039 26.5341 395.12 26.5341 378.012C26.5341 360.904 20.8131 346.985 13.7791 346.985Z" fill="#263238"/>
<path d="M13.7802 404.768C19.9448 404.768 24.9422 393.37 24.9422 379.308C24.9422 365.247 19.9448 353.848 13.7802 353.848C7.61556 353.848 2.61816 365.247 2.61816 379.308C2.61816 393.37 7.61556 404.768 13.7802 404.768Z" fill="white"/>
<path d="M13.7792 405.267C7.23918 405.267 2.11719 393.864 2.11719 379.307C2.11719 364.75 7.24018 353.347 13.7792 353.347C20.3182 353.347 25.4422 364.75 25.4422 379.307C25.4422 393.864 20.3192 405.267 13.7792 405.267ZM13.7792 354.347C7.90018 354.347 3.11719 365.544 3.11719 379.307C3.11719 393.07 7.90018 404.267 13.7792 404.267C19.6582 404.267 24.4422 393.07 24.4422 379.307C24.4422 365.544 19.6592 354.347 13.7792 354.347Z" fill="#263238"/>
<path d="M173.199 338.211H152.334C143.993 338.211 137.231 353.148 137.231 371.573C137.231 389.998 143.993 404.935 152.334 404.935H173.199C181.54 404.935 188.302 389.998 188.302 371.573C188.302 353.147 181.54 338.211 173.199 338.211Z" fill="#263238"/>
<path d="M173.199 405.434H152.334C143.73 405.434 136.731 390.244 136.731 371.573C136.731 352.901 143.731 337.711 152.334 337.711H173.199C181.803 337.711 188.803 352.901 188.803 371.573C188.802 390.244 181.803 405.434 173.199 405.434ZM152.334 338.71C144.282 338.71 137.731 353.452 137.731 371.572C137.731 389.692 144.282 404.433 152.334 404.433H173.199C181.251 404.433 187.803 389.692 187.803 371.572C187.803 353.452 181.252 338.71 173.199 338.71H152.334Z" fill="#263238"/>
<path d="M194.217 348.58H169.212V422.828H194.217C204.213 422.828 212.317 406.207 212.317 385.704C212.317 365.201 204.213 348.58 194.217 348.58Z" fill="#263238"/>
<path d="M194.217 423.328H168.713V348.08H194.217C204.473 348.08 212.817 364.958 212.817 385.704C212.817 406.45 204.473 423.328 194.217 423.328ZM169.713 422.328H194.217C203.922 422.328 211.817 405.898 211.817 385.704C211.817 365.51 203.922 349.08 194.217 349.08H169.713V422.328Z" fill="#263238"/>
<path d="M169.212 422.828C179.209 422.828 187.312 406.207 187.312 385.704C187.312 365.201 179.209 348.58 169.212 348.58C159.216 348.58 151.112 365.201 151.112 385.704C151.112 406.207 159.216 422.828 169.212 422.828Z" fill="#878787"/>
<path d="M169.213 423.328C158.957 423.328 150.613 406.45 150.613 385.704C150.613 364.958 158.957 348.08 169.213 348.08C179.469 348.08 187.813 364.958 187.813 385.704C187.812 406.45 179.468 423.328 169.213 423.328ZM169.213 349.08C159.508 349.08 151.613 365.51 151.613 385.704C151.613 405.898 159.509 422.328 169.213 422.328C178.918 422.328 186.813 405.898 186.813 385.704C186.812 365.509 178.917 349.08 169.213 349.08Z" fill="#263238"/>
<path d="M169.212 417.208C177.631 417.208 184.455 403.786 184.455 387.229C184.455 370.673 177.631 357.25 169.212 357.25C160.794 357.25 153.969 370.673 153.969 387.229C153.969 403.786 160.794 417.208 169.212 417.208Z" fill="white"/>
<path d="M169.213 417.709C160.532 417.709 153.47 404.036 153.47 387.23C153.47 370.424 160.532 356.751 169.213 356.751C177.893 356.751 184.955 370.424 184.955 387.23C184.955 404.036 177.893 417.709 169.213 417.709ZM169.213 357.751C161.084 357.751 154.47 370.975 154.47 387.23C154.47 403.485 161.084 416.709 169.213 416.709C177.342 416.709 183.955 403.484 183.955 387.23C183.955 370.976 177.341 357.751 169.213 357.751Z" fill="#263238"/>
<path d="M335.94 341.055H310.935C300.939 341.055 292.835 357.676 292.835 378.179C292.835 398.682 300.938 415.303 310.935 415.303H335.94C345.936 415.303 354.04 398.682 354.04 378.179C354.039 357.676 345.936 341.055 335.94 341.055Z" fill="#263238"/>
<path d="M335.939 415.802H310.935C300.679 415.802 292.335 398.924 292.335 378.178C292.335 357.433 300.679 340.555 310.935 340.555H335.939C346.196 340.555 354.54 357.433 354.54 378.178C354.54 398.924 346.196 415.802 335.939 415.802ZM310.935 341.555C301.231 341.555 293.335 357.984 293.335 378.178C293.335 398.372 301.23 414.802 310.935 414.802H335.939C345.644 414.802 353.54 398.372 353.54 378.178C353.54 357.984 345.645 341.555 335.939 341.555H310.935Z" fill="#263238"/>
<path d="M90.5982 256.156C86.3552 256.622 82.1522 257.369 78.0172 258.43C71.6062 260.075 61.7312 262.982 52.0322 267.309C35.7282 274.583 15.9122 289.383 9.89122 292.142C3.87122 294.901 -5.40978 295.403 -6.41278 299.416C-7.41578 303.429 -8.16879 310.453 -8.16879 310.453C-8.16879 310.453 -12.1818 313.965 -12.6838 323.747C-13.1858 333.53 -13.9378 366.138 -13.1858 370.403C-12.4338 374.667 -12.6838 375.671 -8.92179 377.677C-5.15878 379.684 -2.90178 382.192 -2.14878 382.192C-1.39578 382.192 -6.41278 351.088 1.61422 343.814C9.64122 336.54 21.6812 338.296 26.6982 354.851C31.7152 371.406 29.9592 389.216 31.9662 390.219C33.9732 391.222 36.4812 391.473 36.4812 391.473L147.602 400.503C147.602 400.503 142.334 376.674 148.354 360.871C154.374 345.068 165.913 337.042 176.699 341.055C187.485 345.068 195.261 363.63 197.518 375.67C199.776 387.71 200.528 393.73 200.026 397.994C199.524 402.258 199.524 404.265 202.785 404.516C206.046 404.767 348.772 400.252 360.059 398.998C371.347 397.744 378.872 396.239 379.624 393.229C380.377 390.219 380.377 391.975 380.377 390.219C380.377 388.463 379.123 358.614 378.37 354.349C377.617 350.085 377.116 347.075 375.36 344.566C373.604 342.058 369.34 337.543 369.34 337.543C369.34 337.543 370.093 332.025 366.832 328.262C363.571 324.5 315.16 305.687 315.16 305.687C315.16 305.687 280.795 283.112 268.003 275.587C255.21 268.062 234.893 260.537 214.575 257.276C194.257 254.015 161.147 252.761 142.083 252.51C127.462 252.317 101.777 254.928 90.5982 256.156Z" fill="#92E3A9"/>
<path d="M203.512 405.029C203.125 405.029 202.868 405.024 202.746 405.014C201.452 404.915 200.589 404.553 200.031 403.875C199.054 402.687 199.198 400.753 199.529 397.936C200.006 393.882 199.375 388.288 197.026 375.762C194.952 364.702 187.552 345.626 176.524 341.524C166.074 337.636 154.682 345.664 148.821 361.048C142.922 376.532 148.037 400.158 148.089 400.395L148.235 401.056L36.4402 391.971C36.3252 391.96 33.8072 391.699 31.7422 390.666C30.7022 390.145 30.5192 387.72 30.1702 381.791C29.7692 374.989 29.1632 364.71 26.2192 354.995C23.8562 347.198 19.6702 342.104 14.4322 340.654C10.2532 339.499 5.70218 340.783 1.95018 344.183C-4.06282 349.632 -2.48582 369.472 -1.81282 377.944C-1.49982 381.892 -1.49482 382.234 -1.75882 382.519L-1.90682 382.679L-2.14882 382.691C-2.65382 382.691 -3.25282 382.223 -4.33882 381.374C-5.50282 380.464 -7.09682 379.217 -9.15682 378.118C-12.7298 376.212 -12.9298 374.999 -13.4638 371.759C-13.5278 371.37 -13.5968 370.948 -13.6778 370.489C-14.4558 366.08 -13.6378 332.582 -13.1828 323.72C-12.7248 314.785 -9.40282 310.974 -8.64482 310.216C-8.51782 309.063 -7.81882 302.982 -6.89682 299.294C-6.17682 296.413 -1.87682 295.236 2.67618 293.99C5.09518 293.328 7.59619 292.643 9.68319 291.686C11.8822 290.679 15.9592 288.034 21.1212 284.685C29.7352 279.097 41.5332 271.445 51.8292 266.852C61.4982 262.538 71.3402 259.627 77.8932 257.945C81.9502 256.904 86.2062 256.134 90.5432 255.658C101.124 254.496 127.342 251.821 142.089 252.009C163.609 252.292 195.526 253.711 214.654 256.781C233.627 259.826 254.166 266.867 268.257 275.154C280.705 282.477 313.971 304.306 315.391 305.239C317.986 306.248 363.93 324.148 367.21 327.933C370.226 331.413 369.973 336.226 369.863 337.368C370.665 338.223 374.185 342.015 375.769 344.278C377.55 346.822 378.08 349.826 378.814 353.983L378.863 354.26C379.625 358.579 380.877 388.745 380.877 390.217C380.877 391.156 380.877 391.234 380.712 391.509C380.639 391.63 380.468 391.915 380.11 393.348C379.269 396.707 371.836 398.191 360.115 399.494C349.081 400.721 215.422 405.028 203.512 405.029ZM171.18 339.548C173.082 339.548 174.99 339.886 176.872 340.586C188.287 344.833 195.894 364.303 198.008 375.578C200.378 388.215 201.012 393.886 200.522 398.053C200.23 400.535 200.079 402.361 200.803 403.24C201.177 403.694 201.818 403.941 202.823 404.018C202.827 404.018 202.836 404.018 202.849 404.018C205.139 404.018 347.267 399.916 360.004 398.501C369.051 397.495 378.399 396.068 379.14 393.108C379.535 391.531 379.743 391.183 379.855 390.997C379.877 390.928 379.877 390.645 379.877 390.22C379.877 388.754 378.635 358.723 377.879 354.437L377.83 354.16C377.118 350.13 376.604 347.218 374.951 344.855C373.236 342.405 369.019 337.932 368.977 337.888L368.813 337.714L368.845 337.477C368.852 337.424 369.523 332.132 366.453 328.591C363.938 325.689 331.682 312.646 314.978 306.155L314.884 306.107C314.54 305.882 280.384 283.452 267.747 276.02C253.758 267.791 233.351 260.798 214.494 257.771C195.419 254.71 163.561 253.294 142.075 253.012C127.364 252.817 101.213 255.495 90.6512 256.655C86.3612 257.126 82.1512 257.887 78.1402 258.916C71.6232 260.588 61.8402 263.482 52.2342 267.768C42.0102 272.329 30.2502 279.957 21.6642 285.527C16.4682 288.898 12.3632 291.56 10.0992 292.598C7.93719 293.589 5.39618 294.284 2.93918 294.957C-1.32382 296.124 -5.34981 297.226 -5.92881 299.539C-6.91181 303.472 -7.66482 310.438 -7.67282 310.508L-7.69382 310.7L-7.83982 310.829C-7.87882 310.863 -11.7038 314.361 -12.1858 323.774C-12.7068 333.912 -13.4268 366.17 -12.6948 370.318C-12.6128 370.781 -12.5428 371.207 -12.4778 371.598C-11.9498 374.803 -11.8248 375.565 -8.68682 377.238C-6.54982 378.378 -4.91682 379.656 -3.72382 380.589C-3.32582 380.9 -2.89482 381.237 -2.57282 381.456C-2.59682 380.726 -2.70182 379.404 -2.81082 378.027C-3.55382 368.678 -5.09982 349.225 1.27718 343.446C5.28918 339.81 10.1812 338.442 14.6982 339.693C20.2782 341.239 24.7092 346.571 27.1742 354.709C30.1522 364.536 30.7622 374.887 31.1662 381.735C31.3892 385.51 31.6192 389.414 32.1892 389.775C34.0842 390.722 36.5042 390.975 36.5282 390.978L146.975 399.953C146.188 395.98 142.44 374.984 147.884 360.695C152.917 347.489 161.967 339.548 171.18 339.548Z" fill="#263238"/>
<path d="M280.795 337.543L288.069 343.313L224.859 338.296L202.283 319.483L200.527 312.46L246.18 328.513L280.795 337.543Z" fill="#263238"/>
<path d="M289.666 343.94L224.661 338.782L224.539 338.679L201.839 319.763L199.818 311.68L246.346 328.042L281.025 337.087L289.666 343.94ZM225.057 337.809L286.472 342.684L280.567 338L246.053 328.997L201.238 313.239L202.729 319.203L225.057 337.809Z" fill="#263238"/>
<path d="M253.129 340.539L258.722 337.543H279.04C279.04 337.543 256.716 335.787 255.211 335.787C253.706 335.787 248.689 337.794 246.683 338.295C244.676 338.797 237.151 338.797 233.89 337.041C230.629 335.285 227.117 328.011 227.117 328.011L257.29 331.411L246.181 328.513L208.261 315.178C205.05 316.6 204.604 320.657 204.55 321.371L204.788 321.569L221.599 327.008L231.847 338.85L253.129 340.539Z" fill="white"/>
<path d="M253.235 341.049L231.602 339.332L221.312 327.44L204.467 321.953L204.031 321.59L204.051 321.333C204.114 320.498 204.602 316.251 208.057 314.721L208.239 314.64L246.346 328.041L257.415 330.927L257.233 331.907L227.984 328.612C228.996 330.536 231.676 335.282 234.126 336.601C237.233 338.274 244.541 338.315 246.56 337.81C247.288 337.628 248.451 337.234 249.681 336.816C251.894 336.065 254.183 335.288 255.209 335.288C256.716 335.288 278.165 336.974 279.077 337.046L279.038 338.044H258.847L253.235 341.049ZM232.09 338.368L253.022 340.03L258.595 337.044H266.059C260.839 336.65 255.879 336.288 255.209 336.288C254.348 336.288 251.938 337.106 250.002 337.764C248.751 338.189 247.569 338.589 246.802 338.781C244.614 339.329 237.013 339.292 233.652 337.482C230.286 335.669 226.812 328.532 226.666 328.229L226.272 327.414L250.406 330.133L246.054 328.998L208.287 315.719C205.77 316.96 205.199 320.038 205.074 321.138L221.885 326.577L232.09 338.368Z" fill="#263238"/>
<path d="M349.509 337.056L344.289 337.373L344.349 338.371L349.57 338.054L349.509 337.056Z" fill="#263238"/>
<path d="M295.609 339.552L284.762 338.542L284.854 337.546L295.58 338.544C296.802 338.359 315.511 335.56 324.73 336.292C331.855 336.854 337.577 337.276 340.012 337.453L339.94 338.451C337.502 338.274 331.779 337.851 324.652 337.288C315.279 336.556 295.865 339.513 295.671 339.542L295.609 339.552Z" fill="#263238"/>
<path d="M366.832 328.262C365.936 327.229 361.633 325.06 355.865 322.458L355.043 322.744C355.043 322.744 359.558 326.005 358.555 329.266C357.552 332.527 351.532 336.289 351.532 336.289L351.783 341.807C351.783 341.807 366.331 340.804 369.341 337.543C369.341 337.543 370.093 332.025 366.832 328.262Z" fill="white"/>
<path d="M351.305 342.341L351.018 336.019L351.266 335.865C351.325 335.828 357.14 332.164 358.076 329.119C358.961 326.241 354.791 323.18 354.749 323.149L353.973 322.586L355.889 321.92L356.071 322.002C362.696 324.99 366.339 326.931 367.21 327.934C370.58 331.823 369.868 337.376 369.836 337.61L369.816 337.766L369.709 337.881C366.601 341.249 352.42 342.263 351.817 342.305L351.305 342.341ZM352.044 336.554L352.258 341.268C354.807 341.057 366.118 339.979 368.863 337.318C368.948 336.409 369.225 331.786 366.455 328.59C365.949 328.006 363.785 326.608 356.441 323.268C357.791 324.535 359.798 326.927 359.033 329.413C358.094 332.462 353.22 335.788 352.044 336.554Z" fill="#263238"/>
<path d="M361.314 337.543C359.809 336.038 353.036 336.791 353.036 336.791C353.036 336.791 356.297 336.038 358.053 335.537C359.809 335.035 360.06 334.534 360.812 331.022C361.565 327.51 358.805 326.005 358.805 326.005L355.329 322.644L355.043 322.744C355.043 322.744 359.558 326.005 358.555 329.266C357.552 332.527 351.532 336.289 351.532 336.289L351.783 341.807C351.783 341.807 357.665 341.4 362.723 340.266C362.58 339.544 362.225 338.455 361.314 337.543Z" fill="#263238"/>
<path d="M351.305 342.341L351.018 336.019L351.266 335.865C351.325 335.828 357.14 332.164 358.076 329.119C358.961 326.241 354.791 323.18 354.749 323.149L353.973 322.587L355.454 322.071L359.112 325.607C359.56 325.887 362.051 327.617 361.3 331.127C360.535 334.692 360.209 335.441 358.189 336.018C358.063 336.054 357.929 336.091 357.791 336.129C359.405 336.214 360.968 336.493 361.666 337.191C362.654 338.178 363.053 339.356 363.212 340.17L363.306 340.648L362.831 340.755C357.794 341.885 351.875 342.303 351.815 342.307L351.305 342.341ZM352.044 336.554L352.258 341.268C353.731 341.146 358.132 340.735 362.116 339.887C361.934 339.271 361.596 338.532 360.96 337.897C359.987 336.925 355.617 337.008 353.092 337.288L352.924 336.304C352.956 336.296 356.193 335.549 357.915 335.057C359.352 334.646 359.564 334.457 360.323 330.917C360.838 328.515 359.523 327.163 358.888 326.666C359.213 327.53 359.324 328.465 359.033 329.413C358.094 332.462 353.22 335.788 352.044 336.554Z" fill="#263238"/>
<path d="M370.093 348.58C370.093 348.58 333.722 353.848 270.511 350.085C270.511 350.085 275.026 355.854 286.314 358.112C297.602 360.37 331.465 359.868 348.772 358.112C366.08 356.356 366.581 355.102 368.588 353.095C370.594 351.088 370.093 348.58 370.093 348.58Z" fill="#263238"/>
<path d="M312.836 360.113C301.778 360.113 291.571 359.674 286.216 358.602C274.877 356.334 270.306 350.635 270.117 350.394L269.433 349.52L270.539 349.586C332.965 353.3 369.656 348.137 370.02 348.084L370.489 348.017L370.582 348.482C370.605 348.594 371.111 351.278 368.94 353.449L368.68 353.712C366.785 355.641 365.533 356.914 348.822 358.61C339.97 359.507 325.816 360.113 312.836 360.113ZM271.744 350.659C273.501 352.335 278.104 355.96 286.411 357.622C297.199 359.78 330.659 359.446 348.722 357.615C365.074 355.956 366.226 354.784 367.969 353.01L368.235 352.742C369.538 351.439 369.673 349.9 369.647 349.144C365.005 349.752 329.516 354.006 271.744 350.659Z" fill="#263238"/>
<path d="M378.12 390.219C378.12 390.219 352.033 394.232 324.19 394.734C296.347 395.236 263.738 392.226 258.471 394.232C253.204 396.239 247.685 400.001 245.428 400.754C243.17 401.507 232.635 402.008 232.635 402.008C232.635 402.008 254.458 383.697 263.237 380.938C272.016 378.179 283.555 377.928 286.816 377.928C290.077 377.928 362.067 375.67 366.08 375.42C370.093 375.169 374.107 377.427 375.361 379.935C376.615 382.443 378.12 390.219 378.12 390.219Z" fill="#263238"/>
<path d="M231.177 402.579L232.313 401.626C233.207 400.875 254.313 383.219 263.085 380.462C272.269 377.575 284.463 377.429 286.814 377.429C290.471 377.429 362.299 375.156 366.047 374.921C370.459 374.651 374.546 377.192 375.806 379.711C377.077 382.252 378.547 389.805 378.61 390.125L378.709 390.635L378.195 390.714C377.933 390.754 351.756 394.737 324.198 395.235C311.563 395.461 298.161 394.975 286.341 394.545C272.424 394.039 261.433 393.641 258.648 394.699C255.65 395.842 252.538 397.577 250.038 398.971C248.11 400.045 246.588 400.894 245.586 401.229C243.289 401.994 233.091 402.487 232.659 402.507L231.177 402.579ZM366.693 375.901C366.5 375.901 366.305 375.907 366.111 375.919C362.36 376.153 290.475 378.429 286.815 378.429C284.489 378.429 272.429 378.573 263.386 381.415C255.955 383.751 238.75 397.624 234.119 401.429C237.101 401.259 243.605 400.834 245.268 400.281C246.181 399.976 247.742 399.106 249.549 398.098C252.077 396.689 255.225 394.934 258.291 393.766C261.265 392.631 272.346 393.036 286.376 393.546C298.183 393.976 311.569 394.462 324.18 394.235C349.534 393.778 373.718 390.362 377.526 389.803C377.168 388.038 375.938 382.211 374.912 380.158C373.847 378.027 370.361 375.901 366.693 375.901Z" fill="#263238"/>
<path d="M238.655 351.339C238.655 351.339 224.859 393.73 223.103 393.229C221.347 392.727 219.591 390.721 219.591 389.717C219.591 388.714 222.852 360.62 225.611 355.352C228.37 350.085 238.655 351.339 238.655 351.339Z" fill="#263238"/>
<path d="M223.191 393.752C223.11 393.752 223.038 393.73 222.966 393.71C221.007 393.15 219.092 390.951 219.092 389.718C219.092 388.566 222.356 360.491 225.169 355.12C228.056 349.611 238.282 350.79 238.716 350.844L239.319 350.917L239.131 351.494C239.097 351.601 235.638 362.218 232.01 372.638C225.258 392.023 223.921 393.752 223.191 393.752ZM236.061 351.713C232.929 351.713 227.8 352.251 226.054 355.584C223.421 360.611 220.094 388.555 220.091 389.717C220.091 390.376 221.477 392.142 223.064 392.692C224.842 390.773 233.018 367.007 237.985 351.78C237.536 351.749 236.864 351.713 236.061 351.713Z" fill="#263238"/>
<path d="M193.271 345.703L192.928 344.764C193.532 344.543 194.175 344.319 194.85 344.093C199.338 342.598 221.067 337.762 221.99 337.557L222.207 338.534C221.981 338.584 199.605 343.563 195.166 345.043C194.5 345.263 193.866 345.486 193.271 345.703Z" fill="#263238"/>
<path d="M187.708 348.024L187.261 347.129C187.295 347.112 188.1 346.711 189.507 346.112L189.899 347.032C188.522 347.619 187.715 348.02 187.708 348.024Z" fill="#263238"/>
<path d="M185.979 304.934C185.979 304.934 176.949 304.181 172.936 301.172C168.923 298.162 135.311 261.289 135.311 261.289C135.311 261.289 222.602 263.045 232.886 263.546C243.17 264.047 243.17 266.054 254.96 270.319C266.749 274.583 304.124 300.67 304.124 300.67L311.398 305.687C311.398 305.687 293.839 306.189 251.197 305.185C208.554 304.182 185.979 304.934 185.979 304.934Z" fill="#878787"/>
<path d="M297.289 306.31C287.532 306.31 272.446 306.185 251.185 305.685C209.047 304.694 186.221 305.426 185.996 305.434L185.967 305.435L185.938 305.433C185.563 305.402 176.718 304.634 172.636 301.572C168.631 298.568 136.315 263.133 134.941 261.626L134.157 260.766L135.321 260.789C136.193 260.807 222.736 262.551 232.91 263.047C239.897 263.388 242.262 264.442 246.555 266.354C248.651 267.288 251.259 268.449 255.129 269.849C266.846 274.087 302.881 299.194 304.409 300.261L312.939 306.144L311.412 306.188C311.324 306.19 306.882 306.31 297.289 306.31ZM209.901 304.167C220.399 304.167 234.239 304.287 251.208 304.685C286.426 305.514 304.692 305.313 309.839 305.22L303.839 301.082C303.464 300.82 266.382 274.982 254.789 270.789C250.885 269.377 248.259 268.207 246.148 267.267C241.829 265.343 239.661 264.377 232.861 264.046C223.347 263.582 146.871 262.024 136.465 261.813C141.55 267.38 169.645 298.079 173.235 300.772C176.979 303.58 185.441 304.384 185.992 304.434C186.564 304.416 194.75 304.167 209.901 304.167Z" fill="#263238"/>
<path d="M152.367 316.473C152.367 316.473 157.635 310.202 157.384 305.938C157.133 301.674 139.073 276.088 129.792 268.563C120.511 261.038 108.471 258.028 101.698 258.028C94.9251 258.028 74.8591 261.791 62.3171 266.556C49.7751 271.322 33.4711 278.847 33.4711 278.847L13.6541 291.891C13.6541 291.891 37.9851 299.165 82.8851 305.938C127.785 312.71 152.367 316.473 152.367 316.473Z" fill="#878787"/>
<path d="M152.569 317.01L152.291 316.968C152.045 316.93 127.196 313.128 82.8111 306.433C38.3901 299.732 13.7551 292.443 13.5121 292.37L12.4851 292.063L33.1961 278.43C33.4251 278.318 49.7251 270.807 62.1391 266.089C74.9941 261.204 94.9991 257.527 101.698 257.527C109.056 257.527 121.084 260.858 130.107 268.174C139.334 275.655 157.61 301.266 157.883 305.908C158.143 310.32 152.97 316.531 152.75 316.794L152.569 317.01ZM14.8381 291.711C19.9481 293.148 43.7101 299.524 82.9601 305.444C124.805 311.756 149.287 315.497 152.159 315.936C153.059 314.812 157.095 309.555 156.884 305.968C156.65 302 138.941 276.626 129.476 268.952C120.643 261.79 108.884 258.529 101.697 258.529C95.0711 258.529 75.2501 262.177 62.4931 267.025C50.1111 271.73 33.8421 279.228 33.6791 279.303L14.8381 291.711Z" fill="#263238"/>
<path d="M129.792 268.563C120.511 261.038 108.471 258.028 101.698 258.028C94.9253 258.028 74.8593 261.79 62.3173 266.556C49.7753 271.322 33.4713 278.847 33.4713 278.847L13.6543 291.891C13.6543 291.891 20.2143 293.85 32.7773 296.678L43.7543 277.091L53.0353 272.325L43.1543 298.91C43.8343 299.05 44.5283 299.191 45.2303 299.334L54.7913 272.325C63.3193 267.81 87.9013 261.79 87.9013 261.79C80.6213 271.639 74.9903 297.191 73.4963 304.466C76.5223 304.957 79.6433 305.449 82.8853 305.938C83.0583 305.964 83.2233 305.989 83.3953 306.015C83.7653 283.782 94.4233 261.038 94.4233 261.038C94.4233 261.038 104.456 260.035 117.249 264.55C130.042 269.065 137.065 277.844 137.065 277.844L130.519 313.146C131.433 313.285 132.317 313.419 133.176 313.55L138.821 280.855L146.597 290.638L142.707 315.001C149.067 315.97 152.366 316.474 152.366 316.474C152.366 316.474 157.634 310.203 157.383 305.939C157.133 301.674 139.073 276.088 129.792 268.563Z" fill="#263238"/>
<path d="M152.569 317.01L142.134 315.418L146.069 290.775L139.124 282.038L133.585 314.117L129.933 313.563L136.53 277.984C135.468 276.74 128.599 269.086 117.082 265.021C105.729 261.014 96.4652 261.397 94.7552 261.513C93.5792 264.115 84.2372 285.429 83.8952 306.022L83.8852 306.593L82.8092 306.43C79.5662 305.941 76.4432 305.449 73.4162 304.958L72.9012 304.875L73.0062 304.364C74.5032 297.074 79.7952 273.159 86.7302 262.598C81.5992 263.896 62.5842 268.845 55.1962 272.677L45.5552 299.91L42.4812 299.282L52.1172 273.358L44.1162 277.466L33.0302 297.247L32.6662 297.165C20.2292 294.365 13.5762 292.389 13.5102 292.369L12.4822 292.062L33.1942 278.429C33.4232 278.317 49.7232 270.806 62.1372 266.088C74.9922 261.203 94.9972 257.526 101.696 257.526C109.054 257.526 121.082 260.857 130.105 268.173C139.332 275.654 157.608 301.264 157.881 305.906C158.141 310.319 152.968 316.53 152.748 316.793L152.569 317.01ZM143.281 314.581L152.159 315.935C153.059 314.811 157.095 309.554 156.884 305.966C156.65 301.998 138.941 276.625 129.476 268.95C120.643 261.788 108.884 258.527 101.697 258.527C95.0712 258.527 75.2502 262.175 62.4932 267.023C50.1112 271.728 33.8422 279.226 33.6792 279.301L14.8372 291.71C17.1222 292.354 23.1352 293.987 32.5232 296.108L43.3922 276.715L53.9532 271.292L43.8262 298.538L44.9042 298.758L54.3852 271.975L54.5572 271.884C63.0422 267.391 86.7762 261.551 87.7822 261.305L89.1252 260.976L88.3032 262.088C81.2692 271.605 75.7692 295.978 74.0912 304.056C76.9382 304.517 79.8692 304.977 82.9062 305.435C83.4432 283.529 93.8632 261.052 93.9692 260.826L94.0892 260.569L94.3722 260.541C94.4722 260.532 104.665 259.579 117.415 264.079C130.194 268.59 137.384 277.444 137.455 277.533L137.598 277.712L131.105 312.731L132.767 312.983L138.518 279.671L147.125 290.5L143.281 314.581Z" fill="#263238"/>
<path d="M149.357 298.914C149.357 298.914 144.842 294.901 142.584 296.656C140.326 298.412 139.323 301.673 139.323 301.673L134.808 301.171C134.808 301.171 130.795 290.636 127.785 290.385C124.775 290.134 110.477 289.382 107.216 290.636C103.955 291.89 103.454 294.649 103.203 296.405C102.952 298.161 102.45 303.679 104.959 304.933C107.467 306.187 131.046 308.946 131.046 308.946L139.073 311.956L137.819 314.715L152.367 316.471C152.367 316.471 156.882 308.444 157.384 305.936C157.885 303.429 149.357 298.914 149.357 298.914Z" fill="#263238"/>
<path d="M152.639 317.01L137.081 315.132L138.396 312.239L130.927 309.438C129.322 309.25 107.253 306.641 104.735 305.382C101.862 303.945 102.457 298.094 102.708 296.336C102.929 294.791 103.389 291.574 107.037 290.171C110.539 288.826 125.665 289.709 127.827 289.889C130.866 290.142 134.405 298.763 135.166 300.71L138.982 301.134C139.333 300.182 140.374 297.745 142.278 296.264C144.729 294.356 149.115 298.042 149.643 298.502C151.234 299.348 158.416 303.333 157.874 306.038C157.363 308.595 152.989 316.39 152.803 316.721L152.639 317.01ZM138.556 314.302L152.093 315.936C152.902 314.479 156.465 307.978 156.893 305.839C157.188 304.362 152.527 301.159 149.123 299.356L149.025 299.288C147.855 298.25 144.472 295.825 142.892 297.051C140.79 298.686 139.811 301.789 139.802 301.821L139.68 302.216L134.451 301.636L134.342 301.351C132.833 297.392 129.708 291.049 127.744 290.885C124.302 290.599 110.462 289.925 107.397 291.105C104.296 292.297 103.907 295.017 103.699 296.479C103.252 299.608 103.373 303.584 105.183 304.489C107.176 305.486 124.57 307.688 131.104 308.453L131.222 308.481L139.75 311.679L138.556 314.302Z" fill="#263238"/>
<path d="M133.303 302.426C134.808 301.172 134.808 301.172 134.808 301.172C134.808 301.172 130.795 290.637 127.785 290.386C124.775 290.135 110.477 289.383 107.216 290.637C103.955 291.891 103.454 294.65 103.203 296.406C103.071 297.325 102.876 299.275 103.075 301.106C110.074 301.702 132.039 303.48 133.303 302.426Z" fill="white"/>
<path d="M129.433 303.236C124.633 303.236 115.807 302.691 103.033 301.604L102.623 301.569L102.579 301.16C102.354 299.097 102.622 296.946 102.709 296.335C102.93 294.79 103.39 291.573 107.038 290.17C110.54 288.825 125.666 289.708 127.828 289.888C131.058 290.157 134.855 299.885 135.277 300.994L135.404 301.328L133.625 302.811C133.282 303.095 131.881 303.236 129.433 303.236ZM103.534 300.643C120.357 302.067 131.891 302.611 132.996 302.031L134.212 301.017C132.66 297.045 129.652 291.043 127.743 290.883C124.301 290.597 110.461 289.923 107.396 291.103C104.295 292.295 103.906 295.015 103.698 296.477C103.62 297.018 103.395 298.827 103.534 300.643Z" fill="#263238"/>
<path d="M141.831 321.992L140.869 321.718C141.697 318.812 142.354 316.837 142.361 316.817L143.309 317.133C143.303 317.152 142.653 319.109 141.831 321.992Z" fill="#263238"/>
<path d="M133.805 393.227C131.93 393.227 46.2513 383.291 45.4493 383.19C43.6653 382.967 42.8083 382.376 41.2523 381.305C40.9413 381.091 40.6013 380.857 40.2173 380.601C37.6883 378.915 22.7033 337.78 21.2003 332.411C20.9453 331.502 20.7343 330.232 20.5723 328.636L21.5673 328.535C21.7233 330.074 21.9233 331.287 22.1633 332.141C24.0913 339.03 38.7033 378.289 40.7723 379.77C41.1603 380.029 41.5043 380.266 41.8183 380.482C43.2913 381.496 44.0303 382.004 45.5723 382.198C46.3733 382.298 132.04 392.223 133.804 392.227C135.221 392.227 135.599 391.987 136.073 389.62C136.333 388.319 136.535 376.419 136.731 364.91C136.905 354.675 137.085 344.091 137.318 339.773C137.509 336.239 138.29 331.709 139.639 326.31L140.609 326.552C139.275 331.889 138.505 336.356 138.317 339.828C138.084 344.126 137.904 354.701 137.731 364.928C137.525 377.013 137.332 388.427 137.054 389.816C136.551 392.334 135.985 393.227 133.805 393.227Z" fill="#263238"/>
<path d="M20.2622 323.79C19.9462 315.184 20.5042 304.068 20.6942 303.309C20.9472 302.295 25.7502 299.708 29.7342 297.715L30.1812 298.61C26.2632 300.569 22.0002 302.969 21.6482 303.594C21.5152 304.195 20.9412 315.036 21.2602 323.753L20.2622 323.79Z" fill="#263238"/>
<path d="M74.1042 383.446H73.1042V382.192C73.1042 381.934 72.9392 379.455 72.7112 376.022C72.4492 372.069 72.0872 366.606 71.7222 360.745L72.7202 360.682C73.0852 366.542 73.4472 372.003 73.7092 375.955C73.9762 379.971 74.1042 381.913 74.1042 382.191V383.446Z" fill="#263238"/>
<path d="M71.2241 352.444C70.4581 339.156 70.1631 330.841 70.3461 327.732C70.8451 319.24 74.3461 307.91 74.3811 307.796L75.3361 308.093C75.3011 308.205 71.8371 319.422 71.3441 327.79C71.1631 330.861 71.4591 339.136 72.2221 352.387L71.2241 352.444Z" fill="#263238"/>
<path d="M33.4242 313.69C32.8962 316.41 31.3652 318.401 30.0052 318.137C28.6452 317.873 27.9712 315.454 28.4992 312.734C29.0272 310.014 30.5582 308.023 31.9182 308.287C33.2782 308.551 33.9522 310.97 33.4242 313.69Z" fill="#263238"/>
<path d="M30.2551 318.661C30.1401 318.661 30.0251 318.65 29.9101 318.628C29.0561 318.463 28.4001 317.703 28.0621 316.491C27.7571 315.397 27.7381 314.03 28.0081 312.639C28.5981 309.603 30.3571 307.471 32.0121 307.797C33.6681 308.119 34.5031 310.749 33.9141 313.786C33.6441 315.177 33.1141 316.438 32.4221 317.338C31.7591 318.201 31.0011 318.661 30.2551 318.661ZM31.6771 308.764C30.7511 308.764 29.4721 310.349 28.9901 312.829C28.7491 314.07 28.7621 315.275 29.0261 316.222C29.2541 317.039 29.6461 317.558 30.1011 317.646C30.5631 317.736 31.1151 317.399 31.6301 316.728C32.2291 315.949 32.6921 314.836 32.9331 313.595C33.4401 310.982 32.7541 308.959 31.8221 308.778C31.7761 308.769 31.7271 308.764 31.6771 308.764Z" fill="#263238"/>
<path d="M33.2051 311.776L27.1562 311.156C26.0832 311.046 25.1331 311.848 25.0611 312.924C24.9941 313.931 25.7242 314.815 26.7252 314.94L32.7591 315.694C33.9361 315.841 34.9752 314.924 34.9752 313.738C34.9752 312.727 34.2111 311.88 33.2051 311.776Z" fill="#92E3A9"/>
<path d="M33.0031 316.209C32.9011 316.209 32.7991 316.203 32.6971 316.19L26.6631 315.436C25.4001 315.278 24.4771 314.16 24.5621 312.891C24.6061 312.234 24.9071 311.638 25.4101 311.213C25.9131 310.789 26.5511 310.593 27.2061 310.658L33.2551 311.279C34.5211 311.409 35.4751 312.466 35.4751 313.738C35.4751 314.446 35.1701 315.122 34.6391 315.591C34.1861 315.992 33.6021 316.209 33.0031 316.209ZM26.9591 311.646C26.6281 311.646 26.3131 311.761 26.0561 311.977C25.7631 312.225 25.5861 312.573 25.5611 312.957C25.5111 313.699 26.0501 314.352 26.7881 314.444L32.8221 315.198C33.2441 315.248 33.6621 315.12 33.9791 314.841C34.2951 314.562 34.4771 314.159 34.4771 313.737C34.4771 312.98 33.9091 312.35 33.1561 312.273L27.1071 311.652C27.0561 311.648 27.0071 311.646 26.9591 311.646Z" fill="#263238"/>
<path d="M85.6443 320.336C85.0303 323.626 83.2493 326.035 81.6673 325.715C80.0853 325.395 79.3003 322.469 79.9153 319.179C80.5293 315.889 82.3103 313.481 83.8923 313.8C85.4743 314.119 86.2593 317.045 85.6443 320.336Z" fill="#263238"/>
<path d="M81.9503 326.243C81.8223 326.243 81.6943 326.23 81.5683 326.205C79.6913 325.826 78.7493 322.7 79.4233 319.087C79.8783 316.652 80.9653 314.596 82.2593 313.723C82.8283 313.339 83.4263 313.197 83.9903 313.31C85.8673 313.689 86.8093 316.815 86.1353 320.428C85.6803 322.863 84.5933 324.919 83.2993 325.792C82.8573 326.09 82.3973 326.243 81.9503 326.243ZM83.6073 314.272C83.3593 314.272 83.0953 314.366 82.8193 314.552C81.7553 315.27 80.8083 317.122 80.4073 319.271C79.8043 322.496 80.6393 324.997 81.7663 325.225C82.0633 325.286 82.3933 325.197 82.7403 324.963C83.8043 324.245 84.7513 322.393 85.1523 320.244C85.7553 317.018 84.9193 314.517 83.7933 314.29C83.7333 314.278 83.6703 314.272 83.6073 314.272Z" fill="#263238"/>
<path d="M85.3894 318.02L78.3524 317.269C77.1044 317.136 75.9994 318.106 75.9154 319.408C75.8374 320.626 76.6864 321.696 77.8514 321.847L84.8704 322.759C86.2394 322.937 87.4484 321.827 87.4484 320.392C87.4494 319.17 86.5594 318.145 85.3894 318.02Z" fill="#92E3A9"/>
<path d="M85.1533 323.278C85.0383 323.278 84.9223 323.271 84.8063 323.256L77.7873 322.343C76.3633 322.159 75.3223 320.855 75.4163 319.376C75.4663 318.604 75.8273 317.879 76.4093 317.389C76.9723 316.914 77.6833 316.694 78.4053 316.772L85.4433 317.523C86.8723 317.675 87.9503 318.909 87.9503 320.393C87.9503 321.24 87.5923 322.041 86.9663 322.591C86.4583 323.036 85.8133 323.278 85.1533 323.278ZM78.1233 317.757C77.7343 317.757 77.3603 317.895 77.0533 318.153C76.6743 318.473 76.4473 318.93 76.4143 319.44C76.3533 320.394 77.0123 321.234 77.9153 321.351L84.9343 322.264C85.4343 322.328 85.9193 322.178 86.3053 321.839C86.7143 321.48 86.9493 320.952 86.9493 320.393C86.9493 319.422 86.2563 318.616 85.3363 318.517L78.2993 317.766C78.2403 317.76 78.1813 317.757 78.1233 317.757Z" fill="#263238"/>
<path d="M4.12328 300.67C4.27628 298.986 0.78928 297.119 -1.95472 295.916C-4.27072 296.767 -6.00972 297.808 -6.41172 299.415C-7.41472 303.428 -8.16772 310.452 -8.16772 310.452C-8.16772 310.452 3.87228 303.429 4.12328 300.67Z" fill="#263238"/>
<path d="M-8.77075 311.383L-8.66576 310.4C-8.63476 310.112 -7.89775 303.296 -6.89775 299.296C-6.38675 297.252 -4.08075 296.166 -2.12875 295.448L-1.94075 295.379L-1.75575 295.46C2.67925 297.403 4.76425 299.123 4.62025 300.717C4.35925 303.587 -5.86876 309.691 -7.91676 310.885L-8.77075 311.383ZM-1.97076 296.456C-4.36976 297.364 -5.62875 298.345 -5.92775 299.537C-6.68775 302.579 -7.31076 307.432 -7.55676 309.51C-2.98776 306.769 3.46824 302.337 3.62524 300.625C3.71724 299.608 1.62924 298.055 -1.97076 296.456Z" fill="#263238"/>
<path d="M239.297 264.276L192.887 304.784C201.229 304.652 217.038 304.539 239.83 304.948L261.919 273.626C259.155 272.131 256.757 270.969 254.959 270.318C246.291 267.184 243.993 265.27 239.297 264.276Z" fill="white"/>
<path d="M240.086 305.454L239.821 305.449C217.676 305.051 202.08 305.139 192.895 305.284L191.529 305.305L239.157 263.734L239.401 263.786C242.044 264.345 243.936 265.188 246.556 266.354C248.652 267.287 251.26 268.448 255.128 269.847C256.843 270.467 259.207 271.59 262.156 273.185L262.651 273.453L240.086 305.454ZM209.84 304.163C217.913 304.163 227.815 304.235 239.573 304.445L261.184 273.8C258.509 272.37 256.36 271.359 254.788 270.79C250.886 269.379 248.26 268.209 246.149 267.27C243.667 266.166 241.852 265.357 239.436 264.819L194.242 304.265C198.326 304.207 203.523 304.163 209.84 304.163Z" fill="#263238"/>
<path d="M282.95 305.735L285.984 288.417C282.553 286.163 278.916 283.815 275.339 281.573C272.11 289.225 268.544 297.684 265.26 305.48C271.939 305.603 277.818 305.684 282.95 305.735Z" fill="white"/>
<path d="M283.369 306.239L282.945 306.235C277.433 306.18 271.48 306.095 265.251 305.981L264.513 305.967L264.799 305.286C268.083 297.491 271.649 289.031 274.878 281.379L275.106 280.837L275.604 281.149C278.904 283.218 282.489 285.523 286.258 287.999L286.532 288.18L283.369 306.239ZM266.007 304.994C271.808 305.098 277.36 305.178 282.531 305.23L285.435 288.654C281.959 286.374 278.646 284.242 275.571 282.309C272.497 289.594 269.133 297.573 266.007 304.994Z" fill="#263238"/>
<path d="M107.626 373.24C119.43 370.259 126.705 357.765 123.874 345.335C121.043 332.905 109.179 325.245 97.3741 328.226C85.5695 331.207 78.2949 343.7 81.1259 356.13C83.9569 368.561 95.8213 376.221 107.626 373.24Z" fill="#263238"/>
<path d="M115.494 352.308H106.869L110.538 323.143L89.8857 352.692H98.5114L94.8428 381.858L115.494 352.308Z" fill="white"/>
<path d="M94.4053 383L98.1792 352.999H89.3103L110.975 322L107.201 352.001H116.069L94.4053 383ZM90.4614 352.386H98.8438L95.2799 380.715L114.919 352.614H106.537L110.101 324.285L90.4614 352.386Z" fill="#263238"/>
</g>
<defs>
<clipPath id="clip0_249_4309">
<rect width="500" height="500" fill="white"/>
</clipPath>
</defs>
</svg>
