<svg  viewBox="0 0 628 581" fill="none" xmlns="http://www.w3.org/2000/svg">
<path opacity="0.7" d="M85.3202 194.159C85.3202 194.159 50.3029 277.823 99.513 362.068C148.723 446.313 250.082 490.817 331.207 528.873C412.332 566.928 496.572 548.394 536.601 486.065C576.63 423.735 521.73 379.242 521.655 290.361C521.579 201.479 536.036 177.949 483.975 102.86C431.913 27.7718 304.291 11.1436 207.78 66.8382C111.269 122.533 85.3202 194.159 85.3202 194.159Z" fill="white"/>
<path d="M124.897 110.646L125.6 110.065C190.372 56.1014 276.395 53.6728 339.12 111.75C371.776 142.031 429.791 136.233 471.289 147.179C614.372 184.932 589.629 364.543 518.954 451.367C455.174 529.709 316.977 547.407 224.133 508.863C142.493 474.991 85.0941 399.31 64.6213 320.189C62.5698 312.256 60.8951 304.25 59.5973 296.171C48.8208 228.809 69.4694 157.277 124.897 110.646Z" fill="#92E3A9"/>
<path opacity="0.7" d="M124.897 110.646L125.6 110.065C190.372 56.1014 276.395 53.6728 339.12 111.75C371.776 142.031 429.791 136.233 471.289 147.179C614.372 184.932 589.629 364.543 518.954 451.367C455.174 529.709 316.977 547.407 224.133 508.863C142.493 474.991 85.0941 399.31 64.6213 320.189C62.5698 312.256 60.8951 304.25 59.5973 296.171C48.8208 228.809 69.4694 157.277 124.897 110.646Z" fill="white"/>
<path d="M80.0575 314.902C80.0575 314.902 161.81 230.483 227.663 194.623C293.515 158.764 507.914 142.694 507.914 142.694L476.916 344.08C476.916 344.08 224.271 338.758 80.0198 350.703" stroke="#263238" stroke-linecap="round" stroke-linejoin="round"/>
<path d="M68.4019 268.027C68.4019 268.027 180.186 191.858 222.011 168.641C222.011 168.641 124.696 141.532 90.8968 99.4788" stroke="#263238" stroke-linecap="round" stroke-linejoin="round"/>
<path d="M537.066 114.143C537.066 114.143 383.306 111.11 227.663 163.842" stroke="#263238" stroke-linecap="round" stroke-linejoin="round"/>
<path d="M537.066 145.424C537.066 145.424 538.535 177.96 527.369 340.176" stroke="#263238" stroke-linecap="round" stroke-linejoin="round"/>
<path d="M149.037 426.605C163.443 426.605 247.771 389.828 418.261 384.053" stroke="#263238" stroke-linecap="round" stroke-linejoin="round"/>
<path d="M177.988 425.153C177.988 425.153 183.351 479.639 356.239 482.753" stroke="#263238" stroke-linecap="round" stroke-linejoin="round"/>
<path d="M96.8503 340.175C96.8503 340.175 340.514 328.73 469.104 337.851" stroke="#263238" stroke-linecap="round" stroke-linejoin="round"/>
<path d="M80.0576 132.875C80.0576 132.875 123.628 170.512 196.69 181.679" stroke="#263238" stroke-linecap="round" stroke-linejoin="round"/>
<path d="M90.8967 306.175C99.5854 305.491 108.025 303.141 115.678 299.273C128.652 292.789 205.431 217.236 246.038 205C286.644 192.764 502.739 165.55 502.739 165.55" stroke="#263238" stroke-linecap="round" stroke-linejoin="round"/>
<path d="M404.055 173.731V166.375" stroke="#263238" stroke-linecap="round" stroke-linejoin="round"/>
<path d="M383.683 211.972H395.426C397.714 211.969 399.907 211.127 401.524 209.63C403.142 208.134 404.052 206.105 404.055 203.989V178.32" stroke="#263238" stroke-linecap="round" stroke-linejoin="round"/>
<path d="M353.878 211.972H358.839" stroke="#263238" stroke-linecap="round" stroke-linejoin="round"/>
<path d="M292.648 190.731V203.989C292.651 206.105 293.561 208.134 295.179 209.63C296.796 211.127 298.989 211.969 301.277 211.972H345.953" stroke="#263238" stroke-linecap="round" stroke-linejoin="round"/>
<path d="M292.623 174.184V186.141" stroke="#263238" stroke-linecap="round" stroke-linejoin="round"/>
<path d="M318.597 133.154H301.252C298.964 133.157 296.771 133.999 295.154 135.495C293.536 136.992 292.626 139.02 292.623 141.137V167.328" stroke="#263238" stroke-linecap="round" stroke-linejoin="round"/>
<path d="M345.425 133.154H336.482" stroke="#263238" stroke-linecap="round" stroke-linejoin="round"/>
<path d="M404.055 159.02V141.137C404.052 139.02 403.142 136.992 401.524 135.495C399.907 133.999 397.714 133.157 395.426 133.154H349.406" stroke="#263238" stroke-linecap="round" stroke-linejoin="round"/>
<path d="M395.414 136.64H301.252C298.567 136.64 296.391 138.653 296.391 141.137V203.989C296.391 206.473 298.567 208.486 301.252 208.486H395.414C398.098 208.486 400.275 206.473 400.275 203.989V141.137C400.275 138.653 398.098 136.64 395.414 136.64Z" fill="white" stroke="#263238" stroke-linecap="round" stroke-linejoin="round"/>
<path d="M389.711 146.633H306.979V198.481H389.711V146.633Z" fill="#92E3A9" stroke="#263238" stroke-linecap="round" stroke-linejoin="round"/>
<path d="M389.699 172.72L378.709 174.718L383.733 198.481H376.436L371.688 175.985L331.534 183.247L333.418 192.195L354.054 188.476L358.625 187.64L359.429 191.428L360.924 198.481H356.164L354.845 192.264L334.221 195.983L334.749 198.481H328.255L325.279 184.386L319.024 185.502L321.762 198.481H315.934L313.409 186.524L306.979 187.686V180.772L323.872 177.728L320.644 162.401L306.979 164.876V160.333L309.101 159.949L306.979 149.921V146.633H310.822L313.46 159.159L319.727 158.02L317.303 146.633H323.797L330.114 176.589L339.195 174.951L337.361 166.305L336.206 160.786L338.479 157.649L346.493 146.633H353.262L341.996 162.134L344.495 173.998L389.699 165.817V172.72Z" fill="white" stroke="#263238" stroke-linecap="round" stroke-linejoin="round"/>
<path d="M370.708 156.789C369.917 156.057 368.979 155.476 367.945 155.08C366.912 154.684 365.804 154.48 364.686 154.48C363.567 154.48 362.46 154.684 361.426 155.08C360.393 155.476 359.454 156.057 358.663 156.789C357.069 158.266 356.174 160.268 356.174 162.355C356.174 164.442 357.069 166.443 358.663 167.921L364.679 173.487L370.708 167.921C372.302 166.443 373.197 164.442 373.197 162.355C373.197 160.268 372.302 158.266 370.708 156.789ZM367.166 164.644C366.677 165.098 366.052 165.408 365.372 165.534C364.692 165.659 363.987 165.596 363.346 165.351C362.705 165.106 362.157 164.69 361.772 164.157C361.386 163.623 361.181 162.996 361.181 162.355C361.181 161.713 361.386 161.086 361.772 160.552C362.157 160.019 362.705 159.604 363.346 159.359C363.987 159.113 364.692 159.05 365.372 159.176C366.052 159.301 366.677 159.611 367.166 160.065C367.492 160.366 367.751 160.722 367.927 161.115C368.104 161.508 368.194 161.929 368.194 162.355C368.194 162.78 368.104 163.201 367.927 163.594C367.751 163.987 367.492 164.344 367.166 164.644Z" fill="#263238"/>
<path d="M256.727 170.407H270.04C272.328 170.404 274.52 169.562 276.138 168.066C277.755 166.569 278.666 164.541 278.669 162.424V139.707" stroke="#263238" stroke-linecap="round" stroke-linejoin="round"/>
<path d="M240.825 170.407H249.266" stroke="#263238" stroke-linecap="round" stroke-linejoin="round"/>
<path d="M186.616 135.106V162.424C186.62 164.541 187.53 166.569 189.147 168.066C190.765 169.562 192.958 170.404 195.245 170.407H236.354" stroke="#263238" stroke-linecap="round" stroke-linejoin="round"/>
<path d="M206.537 105.033H195.233C192.945 105.036 190.752 105.878 189.135 107.375C187.517 108.871 186.607 110.9 186.604 113.016V128.68" stroke="#263238" stroke-linecap="round" stroke-linejoin="round"/>
<path d="M221.446 105.033H215.982" stroke="#263238" stroke-linecap="round" stroke-linejoin="round"/>
<path d="M278.606 123.614V113.016C278.603 110.91 277.701 108.89 276.097 107.395C274.493 105.9 272.317 105.052 270.04 105.033H225.414" stroke="#263238" stroke-linecap="round" stroke-linejoin="round"/>
<path d="M269.977 108.519H195.245C192.561 108.519 190.385 110.533 190.385 113.016V162.424C190.385 164.908 192.561 166.921 195.245 166.921H269.977C272.662 166.921 274.838 164.908 274.838 162.424V113.016C274.838 110.533 272.662 108.519 269.977 108.519Z" fill="white" stroke="#263238" stroke-linecap="round" stroke-linejoin="round"/>
<path d="M266.523 117.606H198.699V157.834H266.523V117.606Z" fill="white"/>
<mask id="mask0_106_1820" style="mask-type:luminance" maskUnits="userSpaceOnUse" x="198" y="117" width="69" height="41">
<path d="M266.523 117.606H198.699V157.834H266.523V117.606Z" fill="white"/>
</mask>
<g mask="url(#mask0_106_1820)">
<path opacity="0.3" d="M266.523 117.606H198.699V157.834H266.523V117.606Z" fill="#92E3A9"/>
</g>
<path d="M266.523 117.606H198.699V157.834H266.523V117.606Z" stroke="#263238" stroke-linecap="round" stroke-linejoin="round"/>
<path d="M266.523 117.606H198.699V123.033H266.523V117.606Z" fill="#92E3A9" stroke="#263238" stroke-linecap="round" stroke-linejoin="round"/>
<path d="M228.04 127.065H220.968V131.48H228.04V127.065Z" fill="#263238"/>
<path d="M236.141 127.065H229.069V131.48H236.141V127.065Z" fill="#263238"/>
<path d="M244.254 127.065H237.183V131.48H244.254V127.065Z" fill="#263238"/>
<path d="M252.356 127.065H245.284V131.48H252.356V127.065Z" fill="#263238"/>
<path d="M260.469 127.065H253.398V131.48H260.469V127.065Z" fill="#263238"/>
<path d="M211.812 132.317H204.741V136.733H211.812V132.317Z" fill="#263238"/>
<path d="M219.926 132.317H212.854V136.733H219.926V132.317Z" fill="#263238"/>
<path d="M228.04 132.317H220.968V136.733H228.04V132.317Z" fill="#263238"/>
<path d="M236.141 132.317H229.069V136.733H236.141V132.317Z" fill="#263238"/>
<path d="M244.254 132.317H237.183V136.733H244.254V132.317Z" fill="#263238"/>
<path d="M252.356 132.317H245.284V136.733H252.356V132.317Z" fill="#263238"/>
<path d="M260.469 132.317H253.398V136.733H260.469V132.317Z" fill="#263238"/>
<path d="M211.812 137.558H204.741V141.973H211.812V137.558Z" fill="#263238"/>
<path d="M219.926 137.558H212.854V141.973H219.926V137.558Z" fill="#263238"/>
<path d="M228.04 137.558H220.968V141.973H228.04V137.558Z" fill="#263238"/>
<path d="M236.141 137.558H229.069V141.973H236.141V137.558Z" fill="#263238"/>
<path d="M244.254 137.558H237.183V141.973H244.254V137.558Z" fill="white" stroke="#263238" stroke-linecap="round" stroke-linejoin="round"/>
<path d="M252.356 137.558H245.284V141.973H252.356V137.558Z" fill="#263238"/>
<path d="M260.469 137.558H253.398V141.973H260.469V137.558Z" fill="#263238"/>
<path d="M211.812 142.81H204.741V147.225H211.812V142.81Z" fill="#263238"/>
<path d="M219.926 142.81H212.854V147.225H219.926V142.81Z" fill="white" stroke="#263238" stroke-linecap="round" stroke-linejoin="round"/>
<path d="M228.04 142.81H220.968V147.225H228.04V142.81Z" fill="#263238"/>
<path d="M236.141 142.81H229.069V147.225H236.141V142.81Z" fill="#263238"/>
<path d="M244.254 142.81H237.183V147.225H244.254V142.81Z" fill="#263238"/>
<path d="M252.356 142.81H245.284V147.225H252.356V142.81Z" fill="#263238"/>
<path d="M260.469 142.81H253.398V147.225H260.469V142.81Z" fill="#263238"/>
<path d="M211.812 148.05H204.741V152.466H211.812V148.05Z" fill="#263238"/>
<path d="M219.926 148.05H212.854V152.466H219.926V148.05Z" fill="#263238"/>
<path d="M228.04 148.05H220.968V152.466H228.04V148.05Z" fill="#263238"/>
<path d="M236.141 148.05H229.069V152.466H236.141V148.05Z" fill="#263238"/>
<path d="M168.593 164.806H86.3627C83.6782 164.806 81.502 166.82 81.502 169.303V223.894C81.502 226.378 83.6782 228.391 86.3627 228.391H168.593C171.277 228.391 173.454 226.378 173.454 223.894V169.303C173.454 166.82 171.277 164.806 168.593 164.806Z" fill="white"/>
<mask id="mask1_106_1820" style="mask-type:luminance" maskUnits="userSpaceOnUse" x="81" y="164" width="93" height="65">
<path d="M168.593 164.806H86.3627C83.6782 164.806 81.502 166.82 81.502 169.303V223.894C81.502 226.378 83.6782 228.391 86.3627 228.391H168.593C171.277 228.391 173.454 226.378 173.454 223.894V169.303C173.454 166.82 171.277 164.806 168.593 164.806Z" fill="white"/>
</mask>
<g mask="url(#mask1_106_1820)">
<path opacity="0.4" d="M173.454 210.833V223.894C173.454 225.087 172.942 226.231 172.03 227.074C171.118 227.917 169.882 228.391 168.593 228.391H147.756V216.051C147.756 214.667 148.35 213.34 149.408 212.361C150.465 211.383 151.9 210.833 153.395 210.833H173.454Z" fill="#92E3A9"/>
</g>
<path d="M168.593 164.806H86.3627C83.6782 164.806 81.502 166.82 81.502 169.303V223.894C81.502 226.378 83.6782 228.391 86.3627 228.391H168.593C171.277 228.391 173.454 226.378 173.454 223.894V169.303C173.454 166.82 171.277 164.806 168.593 164.806Z" stroke="#263238" stroke-linecap="round" stroke-linejoin="round"/>
<path d="M154.614 207.696H100.329C97.4784 207.696 95.1672 209.834 95.1672 212.472V213.762C95.1672 216.399 97.4784 218.537 100.329 218.537H154.614C157.465 218.537 159.776 216.399 159.776 213.762V212.472C159.776 209.834 157.465 207.696 154.614 207.696Z" fill="#92E3A9" stroke="#263238" stroke-linecap="round" stroke-linejoin="round"/>
<path d="M137.067 210.833H132.131V215.4H137.067V210.833Z" fill="#263238"/>
<path d="M122.623 210.833H121.078V215.4H122.623V210.833Z" fill="#263238"/>
<path d="M119.622 210.833H118.077V215.4H119.622V210.833Z" fill="#263238"/>
<path d="M150.205 210.833V213.053L145.922 210.833V215.4L150.205 213.18V215.4H151.763V210.833H150.205Z" fill="#263238"/>
<path d="M104.738 215.4V213.18L109.034 215.4V210.833L104.738 213.053V210.833H103.193V215.4H104.738Z" fill="#263238"/>
<path d="M120.111 174.66H96.6742C95.8072 174.66 95.1042 175.31 95.1042 176.113V197.796C95.1042 198.598 95.8072 199.248 96.6742 199.248H120.111C120.978 199.248 121.681 198.598 121.681 197.796V176.113C121.681 175.31 120.978 174.66 120.111 174.66Z" fill="#92E3A9" stroke="#263238" stroke-linecap="round" stroke-linejoin="round"/>
<path d="M101.925 193.392C101.925 194.949 104.01 196.204 106.572 196.204C109.134 196.204 111.219 194.949 111.219 193.392C111.219 191.835 109.147 190.568 106.572 190.568C103.997 190.568 101.925 191.835 101.925 193.392Z" fill="#263238"/>
<path d="M107.137 178.39L110.327 193.392H111.219L108.883 182.434L108.28 179.575C107.841 179.24 107.456 178.849 107.137 178.413V178.39Z" fill="#263238"/>
<path d="M107.137 178.39L107.928 182.016C108.228 182.185 108.549 182.321 108.883 182.422C109.875 182.736 110.928 182.855 111.973 182.771C112.685 182.715 113.4 182.849 114.034 183.155C114.668 183.462 115.195 183.929 115.552 184.502C115.552 184.328 114.598 181.133 111.37 180.807C110.245 180.684 109.186 180.251 108.33 179.564C107.873 179.229 107.471 178.833 107.137 178.39Z" fill="#263238"/>
<path d="M130.787 186.954H128.388V199.248H130.787V186.954Z" fill="#263238"/>
<path d="M135.623 186.954H133.224V199.248H135.623V186.954Z" fill="#263238"/>
<path d="M140.471 183.003H138.072V199.248H140.471V183.003Z" fill="#263238"/>
<path d="M145.319 180.366H142.92V199.248H145.319V180.366Z" fill="#263238"/>
<path d="M150.155 183.003H147.756V199.248H150.155V183.003Z" fill="#263238"/>
<path d="M155.003 180.366H152.604V199.248H155.003V180.366Z" fill="#263238"/>
<path d="M159.851 186.954H157.452V199.248H159.851V186.954Z" fill="#263238"/>
<path d="M138.16 231.877H168.656C170.943 231.874 173.136 231.032 174.754 229.535C176.371 228.039 177.281 226.01 177.285 223.894V197.168" stroke="#263238" stroke-linecap="round" stroke-linejoin="round"/>
<path d="M127.66 231.877H134.116" stroke="#263238" stroke-linecap="round" stroke-linejoin="round"/>
<path d="M77.7339 199.004V223.894C77.7372 226.01 78.6474 228.039 80.2649 229.536C81.8823 231.032 84.0752 231.874 86.3626 231.877H115.251" stroke="#263238" stroke-linecap="round" stroke-linejoin="round"/>
<path d="M99.3371 161.32H86.3626C84.0752 161.324 81.8823 162.166 80.2649 163.662C78.6474 165.158 77.7372 167.187 77.7339 169.303V189.406" stroke="#263238" stroke-linecap="round" stroke-linejoin="round"/>
<path d="M109.774 161.32H103.808" stroke="#263238" stroke-linecap="round" stroke-linejoin="round"/>
<path d="M177.222 176.938V169.303C177.218 167.187 176.308 165.158 174.691 163.662C173.073 162.166 170.88 161.324 168.593 161.32H117.725" stroke="#263238" stroke-linecap="round" stroke-linejoin="round"/>
<path d="M177.222 195.332V190.277" stroke="#263238" stroke-linecap="round" stroke-linejoin="round"/>
<path d="M175.363 210.787H161.547C159.259 210.79 157.066 211.632 155.449 213.128C153.831 214.625 152.921 216.653 152.918 218.77V232.11" stroke="#263238" stroke-miterlimit="10"/>
<path d="M199.704 210.787H190.259" stroke="#263238" stroke-miterlimit="10"/>
<path d="M287.461 232.11V218.77C287.457 216.653 286.547 214.625 284.93 213.128C283.312 211.632 281.119 210.79 278.832 210.787H203.673" stroke="#263238" stroke-miterlimit="10"/>
<path d="M242.936 305.606H278.832C281.119 305.603 283.312 304.761 284.93 303.264C286.547 301.768 287.457 299.739 287.461 297.623V267.062" stroke="#263238" stroke-miterlimit="10"/>
<path d="M211.624 305.583H223.556" stroke="#263238" stroke-miterlimit="10"/>
<path d="M152.93 250.039V297.6C152.934 299.716 153.844 301.745 155.461 303.241C157.079 304.738 159.272 305.58 161.559 305.583H205.167" stroke="#263238" stroke-miterlimit="10"/>
<path d="M287.461 258.766V250.039" stroke="#263238" stroke-miterlimit="10"/>
<path d="M278.832 214.273H161.559C158.875 214.273 156.698 216.286 156.698 218.77V297.6C156.698 300.083 158.875 302.097 161.559 302.097H278.832C281.516 302.097 283.693 300.083 283.693 297.6V218.77C283.693 216.286 281.516 214.273 278.832 214.273Z" fill="white" stroke="#263238" stroke-linecap="round" stroke-linejoin="round"/>
<path d="M267.003 252.462C269.115 244.14 263.534 235.81 254.539 233.856C245.544 231.903 236.54 237.066 234.429 245.388C232.317 253.71 237.898 262.039 246.893 263.993C255.888 265.946 264.892 260.784 267.003 252.462Z" fill="#92E3A9" stroke="#263238" stroke-linecap="round" stroke-linejoin="round"/>
<path d="M258.874 240.534L258.422 240.116C258.19 239.916 257.885 239.806 257.568 239.806C257.251 239.806 256.946 239.916 256.714 240.116L253.109 243.451C252.894 243.665 252.774 243.948 252.774 244.241C252.774 244.534 252.894 244.816 253.109 245.031L254.365 246.193C254.493 246.31 254.595 246.449 254.665 246.603C254.735 246.756 254.77 246.921 254.77 247.088C254.77 247.254 254.735 247.419 254.665 247.573C254.595 247.726 254.493 247.866 254.365 247.982L249.693 252.305C249.437 252.539 249.092 252.669 248.732 252.669C248.372 252.669 248.027 252.539 247.771 252.305L246.515 251.143C246.283 250.944 245.978 250.833 245.661 250.833C245.344 250.833 245.039 250.944 244.807 251.143L241.152 254.478C240.933 254.693 240.811 254.978 240.811 255.274C240.811 255.57 240.933 255.854 241.152 256.07L241.617 256.488C242.154 256.986 242.793 257.38 243.495 257.65C244.198 257.919 244.951 258.057 245.711 258.057C246.472 258.057 247.225 257.919 247.927 257.65C248.63 257.38 249.268 256.986 249.806 256.488L258.849 248.11C259.388 247.614 259.817 247.025 260.11 246.376C260.403 245.727 260.555 245.03 260.558 244.327C260.56 243.623 260.413 242.926 260.124 242.276C259.835 241.625 259.41 241.033 258.874 240.534Z" fill="#263238"/>
<path d="M215.103 229.669H172.612C171.474 229.669 170.552 230.523 170.552 231.575V270.885C170.552 271.938 171.474 272.791 172.612 272.791H215.103C216.24 272.791 217.162 271.938 217.162 270.885V231.575C217.162 230.523 216.24 229.669 215.103 229.669Z" fill="#92E3A9" stroke="#263238" stroke-linecap="round" stroke-linejoin="round"/>
<path d="M208.735 237.943C208.735 237.943 211.134 235.979 212.992 242.428C214.851 248.877 213.608 256.082 210.116 263.181C206.625 270.281 214.286 269.793 214.412 272.791H175.564C175.564 272.791 170.439 267.121 175.564 263.181C180.688 259.242 180.299 260.544 179.131 255.872C177.963 251.201 176.154 238.884 188.011 233.306C206.084 224.824 208.735 237.943 208.735 237.943Z" fill="#263238"/>
<path d="M201.249 264.03C201.249 264.03 199.365 268.829 200.407 272.315H185.486C187.253 269.336 187.746 265.853 186.868 262.554C185.486 256.709 201.249 264.03 201.249 264.03Z" fill="white" stroke="#263238" stroke-width="0.5" stroke-linecap="round" stroke-linejoin="round"/>
<path d="M184.142 249.017C184.142 249.017 183.087 247.506 182.133 247.855C181.178 248.203 181.178 252.259 181.253 253.328C181.329 254.397 183.652 256.814 184.632 256.128" fill="white"/>
<path d="M184.142 249.017C184.142 249.017 183.087 247.506 182.133 247.855C181.178 248.203 181.178 252.259 181.253 253.328C181.329 254.397 183.652 256.814 184.632 256.128" stroke="#263238" stroke-width="0.5" stroke-linecap="round" stroke-linejoin="round"/>
<path d="M207.542 252.154C207.542 252.154 209.036 250.992 209.853 251.538C210.669 252.084 209.388 256.012 208.986 257.011C208.584 258.01 205.607 259.684 204.891 258.801" fill="white"/>
<path d="M207.542 252.154C207.542 252.154 209.036 250.992 209.853 251.538C210.669 252.084 209.388 256.012 208.986 257.011C208.584 258.01 205.607 259.684 204.891 258.801" stroke="#263238" stroke-width="0.5" stroke-linecap="round" stroke-linejoin="round"/>
<path d="M193.097 267.911C189.179 267.388 185.285 261.241 184.82 259.51C184.293 257.581 183.15 248.087 185.386 242.881C187.898 237.071 193.16 234.573 198.285 235.27C203.409 235.967 207.692 239.732 208.27 246.007C208.797 251.585 204.74 260.369 203.635 262.078C202.656 263.6 197.192 268.48 193.097 267.911Z" fill="white" stroke="#263238" stroke-width="0.5" stroke-linecap="round" stroke-linejoin="round"/>
<path d="M201.965 252.689C201.864 253.363 201.45 253.851 201.048 253.851C200.646 253.851 200.42 253.211 200.52 252.537C200.621 251.864 201.035 251.375 201.437 251.375C201.839 251.375 202.078 252.015 201.965 252.689Z" fill="#263238"/>
<path d="M189.179 250.992C189.078 251.666 189.317 252.247 189.719 252.305C190.121 252.363 190.523 251.864 190.636 251.143C190.749 250.423 190.498 249.877 190.096 249.83C189.694 249.784 189.292 250.272 189.179 250.992Z" fill="#263238"/>
<path d="M194.554 252.363C194.667 254.687 192.52 255.071 192.922 255.849C193.217 256.354 193.712 256.733 194.303 256.907" fill="white"/>
<path d="M194.554 252.363C194.667 254.687 192.52 255.071 192.922 255.849C193.217 256.354 193.712 256.733 194.303 256.907" stroke="#263238" stroke-width="0.5" stroke-linecap="round" stroke-linejoin="round"/>
<path d="M190.171 258.824C192.768 259.902 195.634 260.304 198.46 259.986" stroke="#263238" stroke-width="0.5" stroke-linecap="round" stroke-linejoin="round"/>
<path d="M190.749 259.045C190.749 259.045 190.749 262.531 193.261 263.112C195.773 263.693 197.87 260.032 197.87 260.032" stroke="#263238" stroke-width="0.5" stroke-linecap="round" stroke-linejoin="round"/>
<path d="M186.868 247.889C187.581 247.105 188.513 246.517 189.563 246.189C190.613 245.861 191.74 245.806 192.821 246.03" stroke="#263238" stroke-width="0.5" stroke-linecap="round" stroke-linejoin="round"/>
<path d="M204.791 250.341C204.355 249.396 203.646 248.581 202.742 247.984C201.838 247.388 200.774 247.033 199.666 246.96" stroke="#263238" stroke-width="0.5" stroke-linecap="round" stroke-linejoin="round"/>
<path d="M202.128 240.278C200.097 242.369 197.336 243.73 194.328 244.125C187.634 245.205 183.941 250.55 184.029 252.793C182.714 249.66 182.32 246.26 182.886 242.939C184.217 234.724 192.507 232.365 198.523 232.946C204.54 233.527 207.453 239.105 207.453 239.105C207.453 239.105 211.988 242.358 211.322 246.472C210.694 250.399 209.664 250.516 209.124 251.399C208.37 252.63 209.35 253.142 206.712 255.175C206.712 255.175 207.755 249.679 206.461 245.589C206.178 244.473 205.647 243.425 204.901 242.51C204.155 241.596 203.21 240.836 202.128 240.278Z" fill="#263238"/>
<path d="M203.786 238.884C203.786 238.884 201.425 247.216 188.01 248.529C188.01 248.529 197.054 247.006 201.224 239.372L203.786 238.884Z" fill="#263238"/>
<path d="M217.162 281.797H170.552V285.759H217.162V281.797Z" fill="#263238"/>
<path d="M242.458 279.821H231.556V286.108H242.458V279.821Z" fill="#92E3A9" stroke="#263238" stroke-linecap="round" stroke-linejoin="round"/>
<path d="M242.446 281.924L245.95 280.669V285.259L242.446 283.911V281.924Z" fill="#92E3A9" stroke="#263238" stroke-linecap="round" stroke-linejoin="round"/>
<path d="M269.852 284.876H265.581L263.923 286.7L262.567 284.876H257.995V279.229H269.852V284.876Z" fill="#92E3A9" stroke="#263238" stroke-linecap="round" stroke-linejoin="round"/>
<path d="M189.769 417.634C178.351 412.573 165.735 410.266 153.094 410.93L148.761 400.019L141.928 382.728C143.184 372.921 166.194 342.685 166.194 342.685L169.02 351.679L189.769 417.634Z" fill="#757575"/>
<mask id="mask2_106_1820" style="mask-type:luminance" maskUnits="userSpaceOnUse" x="141" y="342" width="49" height="76">
<path d="M189.769 417.634C178.351 412.573 165.735 410.266 153.094 410.93L148.761 400.019L141.928 382.728C143.184 372.921 166.194 342.685 166.194 342.685L169.02 351.679L189.769 417.634Z" fill="white"/>
</mask>
<g mask="url(#mask2_106_1820)">
<path opacity="0.3" d="M189.769 417.634C178.351 412.573 165.735 410.266 153.094 410.93L148.761 400.019L153.534 400.878L147.693 388.526L161.384 380.904C161.384 380.904 159.952 362.021 168.995 351.679L189.769 417.634Z" fill="black" fill-opacity="0.7"/>
</g>
<path d="M189.769 417.634C178.351 412.573 165.735 410.266 153.094 410.93L148.761 400.019L141.928 382.728C143.184 372.921 166.194 342.685 166.194 342.685L169.02 351.679L189.769 417.634Z" stroke="#263238" stroke-linecap="round" stroke-linejoin="round"/>
<path d="M159.751 417.634C158.959 419.203 145.545 444.488 145.545 444.488L102.314 376.906C102.314 376.906 108.255 376.43 115.376 375.988C124.482 375.431 135.472 374.931 138.587 375.535C140.597 375.93 144.113 381.531 147.693 388.526C149.69 392.431 151.712 396.765 153.521 400.878C157.289 409.407 160.09 416.96 159.751 417.634Z" fill="#757575"/>
<mask id="mask3_106_1820" style="mask-type:luminance" maskUnits="userSpaceOnUse" x="102" y="375" width="58" height="70">
<path d="M159.751 417.634C158.959 419.203 145.545 444.488 145.545 444.488L102.314 376.906C102.314 376.906 108.255 376.43 115.376 375.988C124.482 375.431 135.472 374.931 138.587 375.535C140.597 375.93 144.113 381.531 147.693 388.526C149.69 392.431 151.712 396.765 153.521 400.878C157.289 409.407 160.09 416.96 159.751 417.634Z" fill="white"/>
</mask>
<g mask="url(#mask3_106_1820)">
<path opacity="0.3" d="M159.751 417.634C158.959 419.203 145.545 444.488 145.545 444.488L102.314 376.906C102.314 376.906 108.255 376.43 115.376 375.988L137.105 397.904L153.533 400.89C157.289 409.407 160.09 416.96 159.751 417.634Z" fill="black" fill-opacity="0.7"/>
</g>
<path d="M159.751 417.634C158.959 419.203 145.545 444.488 145.545 444.488L102.314 376.906C102.314 376.906 108.255 376.43 115.376 375.988C124.482 375.431 135.472 374.931 138.587 375.535C140.597 375.93 144.113 381.531 147.693 388.526C149.69 392.431 151.712 396.765 153.521 400.878C157.289 409.407 160.09 416.96 159.751 417.634Z" stroke="#263238" stroke-linecap="round" stroke-linejoin="round"/>
<path d="M162.941 472.551C125.022 442.339 95.8455 402.157 77.6963 358.919C76.0635 355.026 74.506 351.11 73.0616 347.182C71.3869 342.643 69.8337 338.076 68.4019 333.482C77.7716 329.752 91.1731 325.29 102.314 325.046C106.258 324.965 105.818 341.059 104.826 353.678C104.675 355.642 104.512 357.513 104.361 359.232C103.859 364.636 103.381 368.528 103.381 368.528C103.381 368.528 152.617 437.168 159.751 451.414C162.326 456.468 163.054 464.428 162.941 472.551Z" fill="#757575"/>
<mask id="mask4_106_1820" style="mask-type:luminance" maskUnits="userSpaceOnUse" x="68" y="325" width="95" height="148">
<path d="M162.941 472.551C125.022 442.339 95.8455 402.157 77.6963 358.919C76.0635 355.026 74.506 351.11 73.0616 347.182C71.3869 342.643 69.8337 338.076 68.4019 333.482C77.7716 329.752 91.1731 325.29 102.314 325.046C106.258 324.965 105.818 341.059 104.826 353.678C104.675 355.642 104.512 357.513 104.361 359.232C103.859 364.636 103.381 368.528 103.381 368.528C103.381 368.528 152.617 437.168 159.751 451.414C162.326 456.468 163.054 464.428 162.941 472.551Z" fill="white"/>
</mask>
<g mask="url(#mask4_106_1820)">
<path opacity="0.3" d="M162.941 472.551C125.022 442.339 95.8454 402.157 77.6962 358.919C76.0634 355.026 74.5059 351.11 73.0615 347.182C81.4139 344.858 92.0648 342.534 96.8502 344.08C99.9776 345.079 102.691 349.053 104.863 353.678C104.713 355.642 104.549 357.513 104.399 359.232C103.896 364.636 103.419 368.528 103.419 368.528C103.419 368.528 152.654 437.168 159.788 451.414C162.325 456.468 163.054 464.428 162.941 472.551Z" fill="black" fill-opacity="0.7"/>
</g>
<path d="M162.941 472.551C125.022 442.339 95.8455 402.157 77.6963 358.919C76.0635 355.026 74.506 351.11 73.0616 347.182C71.3869 342.643 69.8337 338.076 68.4019 333.482C77.7716 329.752 91.1731 325.29 102.314 325.046C106.258 324.965 105.818 341.059 104.826 353.678C104.675 355.642 104.512 357.513 104.361 359.232C103.859 364.636 103.381 368.528 103.381 368.528C103.381 368.528 152.617 437.168 159.751 451.414C162.326 456.468 163.054 464.428 162.941 472.551Z" stroke="#263238" stroke-linecap="round" stroke-linejoin="round"/>
<path opacity="0.3" d="M147.706 388.526C149.703 392.431 151.725 396.765 153.534 400.878L147.693 388.526H147.706Z" fill="black" fill-opacity="0.7"/>
<path d="M336.344 504.703V528.408C326.037 528.655 315.722 528.384 305.447 527.595C276.621 525.375 248.751 519.1 224.083 508.863C216.229 505.603 208.572 501.949 201.148 497.917C190.111 491.931 179.576 485.184 169.635 477.733C169.635 477.733 193.248 473.91 204.426 475.281C215.605 476.652 336.344 504.703 336.344 504.703Z" fill="#92E3A9"/>
<mask id="mask5_106_1820" style="mask-type:luminance" maskUnits="userSpaceOnUse" x="169" y="474" width="168" height="55">
<path d="M336.344 504.703V528.408C326.037 528.655 315.722 528.384 305.447 527.595C276.621 525.375 248.751 519.1 224.083 508.863C216.229 505.603 208.572 501.949 201.148 497.917C190.111 491.931 179.576 485.184 169.635 477.733C169.635 477.733 193.248 473.91 204.426 475.281C215.605 476.652 336.344 504.703 336.344 504.703Z" fill="white"/>
</mask>
<g mask="url(#mask5_106_1820)">
<path opacity="0.3" d="M336.344 504.703V528.408C326.037 528.655 315.722 528.384 305.447 527.595C276.621 525.375 248.751 519.1 224.083 508.863C216.229 505.603 208.572 501.949 201.148 497.917C190.111 491.931 179.576 485.184 169.635 477.733C169.635 477.733 193.248 473.91 204.426 475.281C215.605 476.652 336.344 504.703 336.344 504.703Z" fill="black" fill-opacity="0.7"/>
</g>
<path d="M336.344 504.703V528.408C326.037 528.655 315.722 528.384 305.447 527.595C276.621 525.375 248.751 519.1 224.083 508.863C216.229 505.603 208.572 501.949 201.148 497.917C190.111 491.931 179.576 485.184 169.635 477.733C169.635 477.733 193.248 473.91 204.426 475.281C215.605 476.652 336.344 504.703 336.344 504.703Z" stroke="#263238" stroke-linecap="round" stroke-linejoin="round"/>
<path d="M537.38 424.816C531.902 434.056 525.728 442.929 518.904 451.367C508.434 464.132 496.05 475.451 482.128 484.984C459.872 500.346 433.848 511.594 406.216 518.787L405.939 518.856C394.766 521.752 383.406 523.992 371.927 525.561L398.215 482.439L481.525 345.823C481.525 345.823 490.518 325.348 502.877 318.737C504.062 318.087 505.327 317.572 506.645 317.203C508.518 316.705 510.422 316.317 512.348 316.041C523.375 314.426 538.246 315.041 546.046 316.041C547.83 316.149 549.581 316.542 551.221 317.203C552.916 318.527 559.988 355.572 537.38 424.816Z" fill="#757575"/>
<mask id="mask6_106_1820" style="mask-type:luminance" maskUnits="userSpaceOnUse" x="371" y="315" width="183" height="211">
<path d="M537.38 424.816C531.902 434.056 525.728 442.929 518.904 451.367C508.434 464.132 496.05 475.451 482.128 484.984C459.872 500.346 433.848 511.594 406.216 518.787L405.939 518.856C394.766 521.752 383.406 523.992 371.927 525.561L398.215 482.439L481.525 345.823C481.525 345.823 490.518 325.348 502.877 318.737C504.062 318.087 505.327 317.572 506.645 317.203C508.518 316.705 510.422 316.317 512.348 316.041C523.375 314.426 538.246 315.041 546.046 316.041C547.83 316.149 549.581 316.542 551.221 317.203C552.916 318.527 559.988 355.572 537.38 424.816Z" fill="white"/>
</mask>
<g mask="url(#mask6_106_1820)">
<path opacity="0.3" d="M537.38 424.816C531.902 434.056 525.728 442.929 518.904 451.367C508.434 464.132 496.05 475.451 482.128 484.984C459.872 500.346 433.848 511.594 406.216 518.787C402.083 515.301 399.308 512.535 399.446 511.64C399.647 510.316 399.031 497.348 398.19 482.439L481.5 345.823C481.5 345.823 490.493 325.348 502.852 318.737C511.431 327.696 516.945 344.138 513.239 366.379C508.215 396.196 514.407 405.306 514.407 405.306C514.407 405.306 524.882 395.324 525.711 365.879C526.54 336.434 528.588 329.311 540.507 325.441C540.507 325.441 511.355 326.882 512.272 316.029C523.3 314.414 538.171 315.03 545.971 316.029C547.755 316.138 549.506 316.531 551.145 317.191C552.916 318.528 559.988 355.572 537.38 424.816Z" fill="black" fill-opacity="0.7"/>
</g>
<path d="M537.38 424.816C531.902 434.056 525.728 442.929 518.904 451.367C508.434 464.132 496.05 475.451 482.128 484.984C459.872 500.346 433.848 511.594 406.216 518.787L405.939 518.856C394.766 521.752 383.406 523.992 371.927 525.561L398.215 482.439L481.525 345.823C481.525 345.823 490.518 325.348 502.877 318.737C504.062 318.087 505.327 317.572 506.645 317.203C508.518 316.705 510.422 316.317 512.348 316.041C523.375 314.426 538.246 315.041 546.046 316.041C547.83 316.149 549.581 316.542 551.221 317.203C552.916 318.527 559.988 355.572 537.38 424.816Z" stroke="#263238" stroke-linecap="round" stroke-linejoin="round"/>
<path d="M546.033 316.064C530.786 328.648 512.322 316.064 512.322 316.064C512.322 316.064 510.928 314.089 508.969 311.102C504.46 304.2 496.999 291.929 496.999 286.363C496.999 278.392 512.775 218.677 523.438 218.189C534.101 217.701 546.046 214.377 549.01 218.189C549.424 218.958 549.707 219.781 549.852 220.629C553.343 234.933 560.013 304.502 546.033 316.064Z" fill="#757575"/>
<mask id="mask7_106_1820" style="mask-type:luminance" maskUnits="userSpaceOnUse" x="496" y="216" width="59" height="106">
<path d="M546.033 316.064C530.786 328.648 512.322 316.064 512.322 316.064C512.322 316.064 510.928 314.089 508.969 311.102C504.46 304.2 496.999 291.929 496.999 286.363C496.999 278.392 512.775 218.677 523.438 218.189C534.101 217.701 546.046 214.377 549.01 218.189C549.424 218.958 549.707 219.781 549.852 220.629C553.343 234.933 560.013 304.502 546.033 316.064Z" fill="white"/>
</mask>
<g mask="url(#mask7_106_1820)">
<path opacity="0.3" d="M546.034 316.064C530.786 328.648 512.322 316.064 512.322 316.064C512.322 316.064 510.928 314.089 508.969 311.102C524.506 311.102 518.201 302.666 518.201 302.666C514.721 296.914 522.182 250.051 532.255 235.874C536.774 229.611 542.791 224.395 549.839 220.629C553.343 234.933 560.013 304.502 546.034 316.064Z" fill="black" fill-opacity="0.7"/>
</g>
<path d="M546.033 316.064C530.786 328.648 512.322 316.064 512.322 316.064C512.322 316.064 510.928 314.089 508.969 311.102C504.46 304.2 496.999 291.929 496.999 286.363C496.999 278.392 512.775 218.677 523.438 218.189C534.101 217.701 546.046 214.377 549.01 218.189C549.424 218.958 549.707 219.781 549.852 220.629C553.343 234.933 560.013 304.502 546.033 316.064Z" stroke="#263238" stroke-linecap="round" stroke-linejoin="round"/>
<path d="M221.056 342.685L189.656 333.715C189.656 333.715 161.76 310.974 159.801 309.08C157.842 307.186 141.928 312.578 141.928 316.61C141.928 320.642 147.969 331.46 147.969 331.46L159.776 325.046C159.776 325.046 163.795 345.776 168.43 350.192C173.064 354.608 188.299 353.48 188.299 353.48L224.07 368.493L221.056 342.685Z" fill="white" stroke="#263238" stroke-linecap="round" stroke-linejoin="round"/>
<path d="M179.91 353.48C172.06 352.167 167.287 350.808 166.169 342.685C165.051 334.563 147.781 318.76 154.739 312.322C155.331 312.218 155.943 312.297 156.481 312.547C157.019 312.797 157.453 313.204 157.716 313.705C160.338 316.982 163.281 320.028 166.508 322.804C169.158 324.965 170.15 329.566 173.378 331.635" stroke="#263238" stroke-linecap="round" stroke-linejoin="round"/>
<path d="M462.547 325.046C462.547 325.046 387.69 330.752 371.123 333.68C354.556 336.608 306.2 348.89 306.2 348.89C306.2 348.89 239.293 341.012 229.346 336.98C226.625 335.778 223.619 335.231 220.608 335.392C217.598 335.552 214.68 336.414 212.126 337.898L199.566 334.679C199.566 334.679 195.584 353.48 199.566 363.137L210.167 366.413C210.167 366.413 209.501 377.929 240.637 388.491C271.773 399.054 318.157 403.388 339.346 403.388C347.573 403.388 381.548 400.309 381.548 400.309L386.208 417.6L462.547 325.046Z" fill="#263238"/>
<path d="M376.8 337.886C376.8 337.886 371.161 366.332 374.15 393.918" stroke="white" stroke-linecap="round" stroke-linejoin="round"/>
<path d="M354.896 364.229C354.896 364.229 358.538 383.193 368.146 389.316" stroke="white" stroke-linecap="round" stroke-linejoin="round"/>
<path d="M305.874 350.703C305.874 350.703 302.231 355.619 305.874 363.125C309.516 370.632 317.467 375.535 317.467 375.535" stroke="white" stroke-linecap="round" stroke-linejoin="round"/>
<path d="M211.46 340.175C209.284 346.662 208.832 353.538 210.141 360.22" stroke="white" stroke-linecap="round" stroke-linejoin="round"/>
<path d="M389.812 355.921C389.812 355.921 377.34 377.057 373.233 397.904" stroke="white" stroke-linecap="round" stroke-linejoin="round"/>
<path d="M437.339 325.465C437.339 325.465 427.693 328.776 421.2 335.26C414.706 341.744 411.968 353.48 411.968 353.48L442.526 334.888L437.339 325.465Z" fill="#263238"/>
<path d="M427.58 350.61C427.819 350.053 437.101 329.183 434.099 327.231C432.365 326.069 432.277 324.105 430.707 321.688C429.137 319.271 425.797 316.192 417.369 313.298L415.836 312.787L429.338 270.897L470.46 276.823C470.46 276.823 465.976 305.606 476.916 321.804L427.58 350.61Z" fill="white" stroke="#263238" stroke-linecap="round" stroke-linejoin="round"/>
<path d="M482.128 484.984C459.797 500.392 433.672 511.71 405.939 518.856C373.484 527.292 338.329 511.64 338.329 511.64L330.165 501.74C339.459 494.768 344.621 495.082 344.621 495.082C344.621 495.082 371.123 333.68 476.916 321.804C476.916 321.804 501.483 345.172 503.983 391.211C505.917 426.837 490.518 466.357 482.128 484.984Z" fill="#263238"/>
<path d="M427.178 337.236C427.178 337.236 418.725 341.233 417.482 353.504C417.482 353.504 380.128 402.308 369.013 442.013V448.869L376.8 440.282C376.8 440.282 401.807 376.372 420.948 353.48L434.161 343.22L427.178 337.236Z" fill="#92E3A9" stroke="#263238" stroke-linecap="round" stroke-linejoin="round"/>
<path d="M476.916 316.378C463.991 314.309 427.668 333.18 427.668 333.18L424.603 358.535L484.414 329.102C484.414 329.102 480.056 316.889 476.916 316.378Z" fill="#263238"/>
<path d="M425.332 352.551L424.603 358.535C424.603 358.535 448.945 332.762 481.525 326.824" stroke="white" stroke-linecap="round" stroke-linejoin="round"/>
<path d="M417.394 340.222C417.394 340.222 412.86 347.798 411.93 353.48C411.93 353.48 418.889 342.639 424.603 337.212" stroke="white" stroke-linecap="round" stroke-linejoin="round"/>
<path d="M207.667 441.56L159.311 320.177C159.06 319.491 158.663 318.857 158.143 318.315C157.623 317.772 156.991 317.331 156.284 317.019C155.576 316.706 154.809 316.528 154.026 316.494C153.243 316.461 152.461 316.573 151.725 316.824C150.99 317.074 150.316 317.459 149.744 317.955C149.172 318.451 148.714 319.047 148.395 319.71C148.077 320.372 147.905 321.087 147.89 321.812C147.875 322.537 148.017 323.257 148.309 323.931L196.677 445.313C196.944 445.981 197.349 446.593 197.872 447.116C198.394 447.638 199.022 448.061 199.721 448.358C200.42 448.656 201.175 448.824 201.943 448.852C202.712 448.879 203.479 448.767 204.201 448.52C204.922 448.274 205.584 447.898 206.149 447.415C206.714 446.932 207.17 446.351 207.492 445.704C207.814 445.058 207.995 444.359 208.025 443.648C208.055 442.937 207.934 442.228 207.667 441.56Z" fill="#999999" stroke="#263238" stroke-linecap="round" stroke-linejoin="round"/>
<path d="M462.648 356.734C445.265 356.246 362.381 431.497 362.381 431.497C362.381 431.497 281.143 428.313 271.158 428.697C265.573 428.796 260.073 429.983 255.018 432.183L241.441 431.451C241.441 431.451 240.348 452.762 245.347 460.396L254.277 460.872C254.277 460.872 269.098 474.898 281.03 477.861C299.493 482.439 362.03 483.555 377.654 482.242C393.279 480.929 481.525 436.796 491.699 411.185" fill="#263238"/>
<path d="M248.688 456.829L238.853 455.725C233.829 461.465 220.013 459.211 220.013 459.211C220.101 464.149 203.974 462.522 201.538 460.501C199.101 458.479 194.806 449.589 194.102 447.963C193.399 446.336 196.2 434.948 196.2 434.948C196.2 434.948 175.325 438.144 168.568 437.993C162.639 437.853 163.129 433.438 163.129 433.438C163.129 433.438 182.296 431.044 201.877 426.466C204.64 425.826 230.476 433.438 230.476 433.438L244.556 435.122C244.556 435.122 249.19 443.012 248.688 456.829Z" fill="white" stroke="#263238" stroke-linecap="round" stroke-linejoin="round"/>
<path d="M196.514 453.041C196.514 453.041 197.154 447.498 202.555 436.773" stroke="#263238" stroke-linecap="round" stroke-linejoin="round"/>
<path d="M196.099 434.937C196.099 434.937 197.845 431.648 197.079 430.289" stroke="#263238" stroke-linecap="round" stroke-linejoin="round"/>
<path d="M201.437 460.489C200.244 457.526 206.587 445.29 207.554 443.768" stroke="#263238" stroke-linecap="round" stroke-linejoin="round"/>
<path d="M219.913 459.199C219.913 459.199 213.784 455.957 212.867 449.903" stroke="#263238" stroke-linecap="round" stroke-linejoin="round"/>
<path d="M214.475 454.11C213.177 456.01 211.252 457.472 208.986 458.281" stroke="#263238" stroke-linecap="round" stroke-linejoin="round"/>
<path d="M257.342 436.796C257.342 436.796 261.524 450.949 259.854 457.607" stroke="white" stroke-linecap="round" stroke-linejoin="round"/>
<path d="M366.526 432.961C366.526 432.961 394.937 425.304 406.14 428.685" stroke="white" stroke-linecap="round" stroke-linejoin="round"/>
<path d="M419.165 408.815C419.165 408.815 468.149 417.367 481.525 402.656" stroke="white" stroke-linecap="round" stroke-linejoin="round"/>
<path d="M395.477 402.656C395.477 402.656 406.278 393.546 418.261 393.046C418.261 393.046 453.152 352.156 476.916 360.208" stroke="white" stroke-linecap="round" stroke-linejoin="round"/>
<path d="M446.383 360.22C446.383 360.22 424.528 376.86 423.649 387.225" stroke="white" stroke-linecap="round" stroke-linejoin="round"/>
<path d="M484.414 426.605C484.414 426.605 463.238 449.194 441.534 453.041C441.534 453.041 396.23 485.391 369.013 482.637" stroke="white" stroke-linecap="round" stroke-linejoin="round"/>
<path d="M434.036 458.049C434.036 458.049 454.672 463.638 467.521 454.04" stroke="white" stroke-linecap="round" stroke-linejoin="round"/>
<path d="M423.649 467.926C424.792 470.691 440.103 484.194 453.064 487.087" stroke="white" stroke-linecap="round" stroke-linejoin="round"/>
<path d="M186.817 481.881L181.002 484.949L180.324 485.309C178.251 483.915 176.192 482.497 174.169 481.045L155.593 440.816L149.037 426.605H163.443C169.448 435.789 174.632 445.411 178.942 455.376C182.741 463.876 185.387 472.779 186.817 481.881Z" fill="#999999"/>
<mask id="mask8_106_1820" style="mask-type:luminance" maskUnits="userSpaceOnUse" x="149" y="426" width="38" height="60">
<path d="M186.817 481.881L181.002 484.949L180.324 485.309C178.251 483.915 176.192 482.497 174.169 481.045L155.593 440.816L149.037 426.605H163.443C169.448 435.789 174.632 445.411 178.942 455.376C182.741 463.876 185.387 472.779 186.817 481.881Z" fill="white"/>
</mask>
<g mask="url(#mask8_106_1820)">
<path opacity="0.3" d="M181.002 484.949C181.115 485.286 181.216 485.635 181.316 485.972L180.324 485.309C178.252 483.915 176.192 482.497 174.17 481.045L155.593 440.816H161.383L161.823 441.153C163.694 442.559 171.344 448.404 178.942 455.376C182.741 463.876 185.387 472.779 186.817 481.881L181.002 484.949Z" fill="black" fill-opacity="0.7"/>
</g>
<path d="M186.817 481.881L181.002 484.949L180.324 485.309C178.251 483.915 176.192 482.497 174.169 481.045L155.593 440.816L149.037 426.605H163.443C169.448 435.789 174.632 445.411 178.942 455.376C182.741 463.876 185.387 472.779 186.817 481.881Z" stroke="#263238" stroke-linecap="round" stroke-linejoin="round"/>
<path d="M181.316 485.972L180.324 485.309C178.252 483.915 176.192 482.497 174.17 481.045C170.402 478.314 166.634 475.49 162.941 472.551C135.648 450.775 112.864 423.851 95.456 394.348C88.7161 382.903 82.7797 371.069 77.6836 358.919L104.386 359.232L109.272 359.29C109.272 359.29 132.897 390.839 153.672 426.605C156.46 431.393 159.185 436.273 161.81 441.153C169.949 456.317 176.983 471.574 180.99 484.949C181.115 485.286 181.216 485.635 181.316 485.972Z" fill="#999999"/>
<mask id="mask9_106_1820" style="mask-type:luminance" maskUnits="userSpaceOnUse" x="77" y="358" width="105" height="128">
<path d="M181.316 485.972L180.324 485.309C178.252 483.915 176.192 482.497 174.17 481.045C170.402 478.314 166.634 475.49 162.941 472.551C135.648 450.775 112.864 423.851 95.456 394.348C88.7161 382.903 82.7797 371.069 77.6836 358.919L104.386 359.232L109.272 359.29C109.272 359.29 132.897 390.839 153.672 426.605C156.46 431.393 159.185 436.273 161.81 441.153C169.949 456.317 176.983 471.574 180.99 484.949C181.115 485.286 181.216 485.635 181.316 485.972Z" fill="white"/>
</mask>
<g mask="url(#mask9_106_1820)">
<path opacity="0.3" d="M181.316 485.972C174.986 481.765 168.861 477.292 162.941 472.551C135.648 450.775 112.864 423.851 95.4561 394.348C106.094 394.615 118.956 394.883 122.598 394.697C129.129 394.383 155.581 440.816 155.581 440.816H161.371L161.811 441.153C170.175 456.666 177.36 472.353 181.316 485.972Z" fill="black" fill-opacity="0.7"/>
</g>
<path d="M181.316 485.972L180.324 485.309C178.252 483.915 176.192 482.497 174.17 481.045C170.402 478.314 166.634 475.49 162.941 472.551C135.648 450.775 112.864 423.851 95.456 394.348C88.7161 382.903 82.7797 371.069 77.6836 358.919L104.386 359.232L109.272 359.29C109.272 359.29 132.897 390.839 153.672 426.605C156.46 431.393 159.185 436.273 161.81 441.153C169.949 456.317 176.983 471.574 180.99 484.949C181.115 485.286 181.216 485.635 181.316 485.972Z" stroke="#263238" stroke-linecap="round" stroke-linejoin="round"/>
<path d="M549.01 403.086C545.418 410.604 541.537 417.878 537.38 424.816C531.902 434.056 525.728 442.928 518.904 451.367C508.434 464.132 496.05 475.451 482.128 484.984C459.796 500.392 433.672 511.71 405.939 518.856C394.766 521.752 383.406 523.992 371.927 525.561C349.922 528.575 327.616 529.242 305.447 527.548C276.621 525.329 248.751 519.054 224.083 508.817C216.229 505.556 208.572 501.902 201.148 497.871C190.111 491.885 179.577 485.138 169.635 477.687C117.034 438.423 80.1328 380.299 64.5961 320.189C62.5446 312.256 60.87 304.25 59.5721 296.171C57.3837 282.491 56.5011 268.661 56.9345 254.838" stroke="#263238" stroke-linecap="round" stroke-linejoin="round"/>
<path d="M405.939 518.856C390.237 522.915 374.184 525.702 357.96 527.188C340.517 528.792 322.953 528.928 305.484 527.594C276.659 525.375 248.788 519.1 224.121 508.863C216.266 505.603 208.61 501.949 201.186 497.917C203.8 496.624 206.593 495.67 209.488 495.082C216.019 493.92 241.215 496.244 271.761 499.858C289.269 501.926 308.536 504.424 327.025 506.969C361.062 511.64 392.575 516.428 405.939 518.856Z" fill="#92E3A9"/>
<mask id="mask10_106_1820" style="mask-type:luminance" maskUnits="userSpaceOnUse" x="201" y="494" width="205" height="35">
<path d="M405.939 518.856C390.237 522.915 374.184 525.702 357.96 527.188C340.517 528.792 322.953 528.928 305.484 527.594C276.659 525.375 248.788 519.1 224.121 508.863C216.266 505.603 208.61 501.949 201.186 497.917C203.8 496.624 206.593 495.67 209.488 495.082C216.019 493.92 241.215 496.244 271.761 499.858C289.269 501.926 308.536 504.424 327.025 506.969C361.062 511.64 392.575 516.428 405.939 518.856Z" fill="white"/>
</mask>
<g mask="url(#mask10_106_1820)">
<path opacity="0.3" d="M405.939 518.856C390.237 522.915 374.184 525.702 357.96 527.188C353.972 523.168 349.178 519.904 343.843 517.578C329.424 511.594 271.761 499.858 271.761 499.858C289.269 501.926 308.536 504.424 327.025 506.969C361.062 511.64 392.575 516.428 405.939 518.856Z" fill="black" fill-opacity="0.7"/>
</g>
<path d="M405.939 518.856C390.237 522.915 374.184 525.702 357.96 527.188C340.517 528.792 322.953 528.928 305.484 527.594C276.659 525.375 248.788 519.1 224.121 508.863C216.266 505.603 208.61 501.949 201.186 497.917C203.8 496.624 206.593 495.67 209.488 495.082C216.019 493.92 241.215 496.244 271.761 499.858C289.269 501.926 308.536 504.424 327.025 506.969C361.062 511.64 392.575 516.428 405.939 518.856Z" stroke="#263238" stroke-linecap="round" stroke-linejoin="round"/>
<path d="M436.196 308.418C436.196 308.418 436.046 316.738 430.708 321.688C429.062 319.167 425.797 316.192 417.369 313.298C417.821 311.788 418.261 310.765 418.261 310.765L436.196 308.418Z" fill="#263238"/>
<path d="M474.316 286.921C476.445 281.737 477.303 276.181 476.828 270.653C473.801 231.343 463.753 222.186 447.199 224.742C385.391 234.271 403.716 263.321 401.342 272.942C398.968 282.564 390.214 283.307 391.407 287.7C391.885 289.431 399.169 289.605 399.169 289.605L399.609 298.68L402.385 299.296C402.385 299.296 404.62 319.945 410.31 322.339C417.507 325.372 439.022 313.357 438.985 305.896" fill="white"/>
<path d="M474.316 286.921C476.445 281.737 477.303 276.181 476.828 270.653C473.801 231.343 463.753 222.186 447.199 224.742C385.391 234.271 403.716 263.321 401.342 272.942C398.968 282.564 390.214 283.307 391.407 287.7C391.885 289.431 399.169 289.605 399.169 289.605L399.609 298.68L402.385 299.296C402.385 299.296 404.62 319.945 410.31 322.339C417.507 325.372 439.022 313.357 438.985 305.896" stroke="#263238" stroke-linecap="round" stroke-linejoin="round"/>
<path d="M406.14 258.812C406.14 258.812 414.819 257.174 419.165 263.6" stroke="#263238" stroke-linecap="round" stroke-linejoin="round"/>
<path d="M409.758 270.746C410.072 272.652 411.202 274.069 412.27 273.918C413.337 273.767 413.953 272.094 413.626 270.2C413.299 268.306 412.182 266.877 411.114 267.028C410.046 267.179 409.456 268.805 409.758 270.746Z" fill="#263238"/>
<path d="M402.36 299.273C402.36 299.273 410.85 299.273 415.836 297.472" stroke="#263238" stroke-linecap="round" stroke-linejoin="round"/>
<path d="M442.489 280.042L437.766 282.529C437.766 282.529 437.565 271.722 432.742 266.609C427.919 261.496 424.98 249.284 427.718 245.589C427.718 245.589 413.814 240.72 402.598 247.157C402.598 247.157 388.782 241.01 392.789 221.593C395.496 223.42 398.698 224.514 402.038 224.754C405.379 224.994 408.725 224.37 411.704 222.953C429.527 214.819 451.281 215.4 459.558 223.429C459.558 223.429 481.525 219.258 486.11 251.724C488.961 271.885 477.908 290.279 471.038 296.763C471.038 296.763 466.918 295.206 465.348 287.711C463.841 280.611 465.65 269.224 455.463 267.202C435.644 263.228 442.489 280.042 442.489 280.042Z" fill="#263238"/>
<path d="M444.699 267.353C444.699 267.353 451.13 258.196 456.845 257.976C462.56 257.755 466.403 276.207 461.166 283.237C455.928 290.268 450.766 292.754 448.392 290.639C447.689 289.935 447.171 289.092 446.877 288.173C446.583 287.254 446.521 286.285 446.696 285.341" fill="white"/>
<path d="M444.699 267.353C444.699 267.353 451.13 258.196 456.845 257.976C462.56 257.755 466.403 276.207 461.166 283.237C455.928 290.268 450.766 292.754 448.392 290.639C447.689 289.935 447.171 289.092 446.877 288.173C446.583 287.254 446.521 286.285 446.696 285.341" stroke="#263238" stroke-linecap="round" stroke-linejoin="round"/>
<path d="M413.965 298.03C413.965 298.03 410.385 302.678 407.145 302.678C403.904 302.678 403.741 300.354 403.741 300.354" stroke="#263238" stroke-linecap="round" stroke-linejoin="round"/>
<path opacity="0.4" d="M397.21 227.276C397.21 227.276 400.915 235.328 415.836 231.192C430.758 227.055 443.581 221.768 453.064 225.382" stroke="white" stroke-linecap="round" stroke-linejoin="round"/>
<path opacity="0.4" d="M448.141 228.286C448.141 228.286 439.449 230.064 434.865 236.362C430.281 242.66 434.476 254.954 440.442 258.626" stroke="white" stroke-linecap="round" stroke-linejoin="round"/>
<path opacity="0.4" d="M454.17 231.238C454.17 231.238 450.879 244.171 458.829 250.144C466.78 256.116 473.487 261.833 473.738 269.061" stroke="white" stroke-linecap="round" stroke-linejoin="round"/>
<path opacity="0.4" d="M461.065 228.286C461.065 228.286 479.453 229.379 484.414 253.025" stroke="white" stroke-linecap="round" stroke-linejoin="round"/>
</svg>
