<svg viewBox="0 0 422 297" fill="none" xmlns="http://www.w3.org/2000/svg">
<g clip-path="url(#clip0_239_756)">
<path d="M406.68 97.4319C419.004 138.788 374.211 185.632 319.464 217.776C264.48 249.92 199.779 267.168 161.622 246.196C123.465 225.224 111.615 165.836 131.76 115.66C151.668 65.6799 203.334 24.9119 264.006 22.3639C324.678 20.0119 394.356 55.8799 406.68 97.4319Z" fill="#FF0066"/>
<path d="M386.248 106.13C386.938 106.935 387.466 107.879 387.803 108.905C388.139 109.93 388.276 111.017 388.206 112.1C388.053 114.268 387.429 116.369 386.383 118.242C384.47 121.913 380.892 124.895 377.459 127.003C375.49 122.845 376.705 117.6 377.459 114.987C378.68 110.829 383.272 104.158 386.226 106.13" fill="#EBEBEB"/>
<path d="M378.557 134.903C378.776 133.712 379.289 132.604 380.045 131.69C380.801 130.776 381.773 130.089 382.861 129.7C383.953 129.327 385.105 129.188 386.248 129.29C387.392 129.392 388.505 129.733 389.523 130.294C390.468 130.793 391.402 131.553 391.633 132.67C391.707 133.188 391.651 133.717 391.469 134.204C391.287 134.691 390.986 135.119 390.598 135.444C389.809 136.086 388.873 136.496 387.886 136.632C384.51 137.226 381.195 137.178 378.557 134.921" fill="#EBEBEB"/>
<path d="M370.026 144.995C370.145 144.736 370.284 144.487 370.443 144.253L371.647 142.281C372.682 140.641 374.111 138.271 376.396 136.341C378.309 134.667 380.611 133.564 383.063 133.145C383.809 133.03 384.564 133.01 385.314 133.086C385.516 133.103 385.717 133.133 385.916 133.175C386.057 133.175 386.124 133.216 386.124 133.228C385.117 133.164 384.107 133.208 383.108 133.359C380.703 133.844 378.453 134.966 376.57 136.62C374.32 138.491 372.89 140.814 371.816 142.423C371.281 143.237 370.848 143.897 370.533 144.342C370.385 144.577 370.215 144.796 370.026 144.995Z" fill="#E0E0E0"/>
<path d="M383.176 111.553C383.152 111.677 383.118 111.798 383.075 111.916L382.748 112.931C382.456 113.816 382.017 115.082 381.466 116.644C380.34 119.768 378.77 124.063 376.919 128.761C375.068 133.46 373.301 137.671 371.979 140.713C371.321 142.227 370.775 143.445 370.392 144.277C370.207 144.669 370.055 144.989 369.942 145.239C369.894 145.353 369.835 145.463 369.768 145.566C369.794 145.445 369.834 145.327 369.886 145.215C369.993 144.96 370.122 144.621 370.291 144.223L371.793 140.612C373.065 137.559 374.804 133.335 376.655 128.637C378.506 123.938 380.121 119.661 381.274 116.555L382.642 112.878C382.799 112.474 382.923 112.141 383.024 111.886C383.063 111.769 383.114 111.658 383.176 111.553Z" fill="#E0E0E0"/>
<path d="M372.333 134.945C372.873 132.45 372.841 129.855 372.24 127.376C371.639 124.896 370.487 122.604 368.879 120.689C368.057 119.721 366.847 118.806 365.688 119.246C364.529 119.685 364.158 121.212 364.135 122.513C364.133 125.228 364.891 127.883 366.315 130.144C367.738 132.405 369.764 134.17 372.137 135.218" fill="#EBEBEB"/>
<path d="M367.984 124.568C368.183 124.744 368.362 124.943 368.519 125.162C368.722 125.391 368.91 125.635 369.081 125.892C369.289 126.195 369.548 126.516 369.779 126.92C370.046 127.346 370.292 127.786 370.516 128.239C370.783 128.752 371.022 129.282 371.231 129.825C371.711 131.074 372.054 132.378 372.255 133.71C372.435 135.043 372.469 136.395 372.356 137.737C372.305 138.322 372.22 138.903 372.103 139.477C372.01 139.98 371.888 140.476 371.737 140.962C371.624 141.366 371.491 141.762 371.338 142.15C371.233 142.448 371.109 142.738 370.966 143.018C370.867 143.267 370.744 143.506 370.6 143.73C370.539 143.73 371.062 142.679 371.546 140.897C371.678 140.414 371.785 139.925 371.866 139.43C371.971 138.862 372.046 138.289 372.092 137.713C372.19 136.392 372.151 135.063 371.973 133.751C371.773 132.445 371.443 131.165 370.989 129.932C370.764 129.367 370.555 128.833 370.308 128.352C370.095 127.9 369.86 127.46 369.605 127.033C368.659 125.453 367.905 124.609 367.984 124.568Z" fill="#E0E0E0"/>
<path d="M36.6071 69.1058C36.6071 69.1058 31.4306 70.8878 36.4496 82.5896C41.4686 94.2914 45.0527 100.16 45.0527 100.16C45.0527 100.16 45.9136 102.863 43.7755 103.172C41.6374 103.481 37.0235 102.465 35.9432 105.156C34.8178 107.941 36.6746 110.715 40.5289 113.264C44.3832 115.812 52.6375 121.71 53.3802 122.245C54.1229 122.78 54.8094 124.027 53.3802 124.502C51.951 124.977 41.4123 125.595 41.9975 130.858C42.5826 136.121 54.4324 141.372 55.704 141.966C56.9757 142.56 57.2739 143.154 57.1332 143.914C56.9925 144.674 53.4309 144.508 50.4375 144.841C47.4441 145.173 44.0287 146.064 44.6082 149.07C45.1878 152.076 52.0467 158.675 69.2981 161.324L77.3667 162.001L82.0818 155.01C91.3208 139.406 90.9832 129.617 89.1883 127.205C87.3934 124.793 84.5182 126.955 82.3632 129.165C80.2082 131.375 77.9969 134.333 77.3667 133.959C76.7365 133.584 76.4833 132.967 76.8772 131.547C77.271 130.127 81.1591 117.208 77.7324 113.335C74.3058 109.462 67.0418 117.541 65.7814 118.396C64.521 119.251 64.0653 117.861 64.1553 116.929C64.2453 115.996 65.3144 105.524 65.9671 100.772C66.6198 96.0199 65.8039 92.7529 63.075 91.8619C60.4417 90.9828 58.1798 95.3665 56.5762 96.8872C54.9726 98.4078 53.5771 95.9665 53.5771 95.9665C53.5771 95.9665 51.6584 89.3018 46.4369 77.6831C41.2154 66.0645 36.4946 69.1949 36.4946 69.1949" fill="#EBEBEB"/>
<path d="M77.7043 164.015C73.9007 155.462 67.385 140.149 61.7246 127.033C56.0641 113.918 50.9326 102.049 47.1684 93.4839L42.7064 83.3384L41.4967 80.5822L41.1872 79.8576C41.1448 79.7729 41.1072 79.6856 41.0747 79.5962C41.0747 79.5962 41.1197 79.6734 41.1985 79.8338L41.5305 80.5466C41.8174 81.1822 42.2394 82.1029 42.7852 83.2849C43.8712 85.6609 45.4185 89.1121 47.3203 93.3829C51.1239 101.931 56.2836 113.787 61.9496 126.902C67.6157 140.018 74.1032 155.367 77.8675 163.944" fill="#E0E0E0"/>
<path d="M42.3688 106.849C42.5618 106.895 42.7502 106.961 42.9314 107.045C43.2803 107.181 43.7867 107.401 44.4056 107.674C45.6435 108.227 47.3371 109.035 49.1939 109.961L53.9316 112.337L55.372 113.05C55.5529 113.127 55.7262 113.223 55.8897 113.335C55.6953 113.297 55.5063 113.233 55.327 113.145C54.9725 113.008 54.4717 112.789 53.8528 112.509C52.6149 111.915 50.9326 111.114 49.0814 110.187L44.3269 107.811L42.8864 107.104C42.7053 107.04 42.5317 106.954 42.3688 106.849Z" fill="#E0E0E0"/>
<path d="M56.458 112.86C56.3961 112.86 57.8197 109.07 59.6371 104.467C61.4545 99.8634 63.0131 96.1509 63.0468 96.1509C63.0806 96.1509 61.6908 99.9406 59.8678 104.55C58.0447 109.159 56.5255 112.86 56.458 112.86Z" fill="#E0E0E0"/>
<path d="M64.2903 133.382C64.3912 133.201 64.51 133.032 64.6448 132.878C64.9148 132.515 65.2581 132.07 65.6632 131.541C66.5184 130.412 67.7 128.844 68.9435 127.068C70.187 125.292 71.2617 123.653 72.0326 122.453L72.9441 121.033C73.0473 120.854 73.166 120.685 73.2986 120.528C73.2309 120.727 73.1382 120.915 73.0229 121.087C72.8316 121.443 72.5446 121.942 72.1789 122.554C71.4474 123.783 70.3952 125.453 69.1405 127.229C67.8857 129.005 66.6929 130.561 65.7982 131.66C65.3481 132.206 64.9824 132.646 64.7179 132.943C64.5929 133.107 64.4493 133.255 64.2903 133.382Z" fill="#E0E0E0"/>
<path d="M50.4149 130.941C50.6031 130.928 50.7922 130.94 50.9776 130.977L52.4687 131.173C53.7234 131.357 55.4564 131.624 57.3695 131.933C59.2825 132.242 61.0099 132.527 62.2591 132.765L63.7389 133.05C63.9217 133.072 64.1012 133.118 64.2734 133.186C64.0852 133.2 63.8961 133.188 63.7107 133.151L62.2253 132.955C60.9649 132.771 59.2319 132.503 57.3188 132.194C55.4058 131.886 53.6784 131.6 52.4293 131.363L50.9551 131.078C50.7708 131.054 50.5896 131.008 50.4149 130.941Z" fill="#E0E0E0"/>
<path d="M55.1414 150.015C55.3769 150.009 55.6124 150.027 55.8447 150.068L57.7578 150.318C59.367 150.538 61.5895 150.858 64.0427 151.233C66.496 151.607 68.7185 151.957 70.3221 152.231L72.2239 152.557C72.4583 152.591 72.6897 152.645 72.916 152.718C72.6786 152.724 72.4412 152.706 72.207 152.664L70.2996 152.415C68.6904 152.195 66.4622 151.868 64.009 151.494C61.5558 151.12 59.3332 150.769 57.7296 150.502L55.8334 150.169C55.5987 150.141 55.367 150.089 55.1414 150.015Z" fill="#E0E0E0"/>
<path d="M72.5109 152.527C72.6365 152.295 72.7815 152.074 72.9441 151.868C73.2592 151.417 73.6756 150.835 74.1764 150.128C75.2173 148.655 76.6465 146.617 78.1657 144.318C79.6849 142.02 81.0128 139.905 81.958 138.378L83.0834 136.555C83.2108 136.325 83.3557 136.106 83.5166 135.901C83.4183 136.147 83.2997 136.384 83.1621 136.608C82.9202 137.054 82.5601 137.695 82.1043 138.473C81.1928 140.042 79.8874 142.18 78.3626 144.479C76.8378 146.778 75.3917 148.809 74.3114 150.252C73.7487 150.971 73.3267 151.553 73.0116 151.945C72.8629 152.156 72.6952 152.351 72.5109 152.527Z" fill="#E0E0E0"/>
<path d="M203.95 139.382C189.534 131.725 184.11 114.25 182.422 98.0575C182.141 95.3548 181.471 92.563 182.36 90.0207C183.249 87.4784 185.854 85.4291 188.291 86.2191C190.311 86.8666 191.453 89.0644 192.792 90.8226C194.556 93.1716 196.915 94.9449 199.595 95.937C201.339 96.5785 203.421 96.8161 204.895 95.64C206.915 94.0243 206.735 90.781 206.352 88.108C205.64 83.1224 204.927 78.1407 204.214 73.163C203.832 70.49 203.455 67.7635 203.893 65.1024C204.332 62.4413 205.75 59.8218 208.063 58.7407C210.375 57.6596 213.56 58.6694 214.427 61.2117C214.787 62.269 214.73 63.4333 214.956 64.5322C215.181 65.6311 215.833 66.7834 216.874 66.9438C217.915 67.1042 218.844 66.1894 219.491 65.2866C221.741 62.1918 223.035 58.4377 224.223 54.7252C225.41 51.0127 226.53 47.223 228.499 43.9144C230.468 40.6059 233.433 37.7725 237.029 37.0003C240.624 36.2281 244.822 38.0041 246.251 41.6275C247.68 45.2509 246.127 49.403 244.276 52.8007C241.543 57.8472 238.131 62.4491 234.148 66.4627C233.428 67.1814 232.651 67.9596 232.46 68.9991C232.156 70.8642 233.996 72.3908 235.746 72.7234C237.727 73.0977 239.747 72.5809 241.755 72.5215C243.764 72.4621 246.032 73.062 247.05 74.8975C248.462 77.4754 246.69 80.6712 244.799 82.8749C241.047 87.2857 236.602 90.981 231.661 93.7986C229.894 94.8024 228.021 95.735 226.704 97.3626C225.387 98.9901 224.813 101.521 225.978 103.261C227.143 105.001 229.557 105.257 231.459 104.574C233.36 103.891 234.953 102.507 236.714 101.485C240.005 99.5663 244.535 99.1089 247.202 101.966C248.952 103.831 249.481 106.718 249.081 109.326C248.682 111.933 247.472 114.298 246.144 116.519C241.508 124.283 235.127 130.941 227.452 135.129C219.778 139.317 212.407 141.259 203.955 139.388" fill="#F5F5F5"/>
<path d="M206.499 128.678C207.833 119.515 209.663 110.44 211.979 101.497L213.768 94.4462C214.359 92.1355 214.944 89.8427 215.648 87.6389C217.006 83.4074 218.585 79.2589 220.38 75.2125C222.068 71.3396 223.795 67.7281 225.444 64.3601C227.092 60.9921 228.696 57.8914 230.26 55.1293C232.714 50.7576 235.493 46.5984 238.571 42.691C239.657 41.3069 240.534 40.2615 241.136 39.5665L241.823 38.7765C241.898 38.6817 241.981 38.5942 242.07 38.5151C242.012 38.62 241.942 38.7177 241.862 38.8062L241.204 39.6319C240.641 40.3506 239.775 41.4139 238.711 42.8157C235.697 46.753 232.966 50.9226 230.541 55.2897C228.994 58.0577 227.419 61.1644 225.787 64.5323C224.155 67.9003 222.439 71.5178 220.768 75.3847C218.986 79.429 217.416 83.5734 216.064 87.7993C215.366 89.9971 214.787 92.2662 214.196 94.5828C213.605 96.8994 213.02 99.2516 212.418 101.628C210.103 110.553 208.264 119.607 206.909 128.75" fill="#E0E0E0"/>
<path d="M215.777 87.6032C215.604 87.2517 215.468 86.8812 215.372 86.4983C215.141 85.7796 214.809 84.7163 214.472 83.4274C213.751 80.8138 212.868 77.1785 211.912 73.163C210.955 69.1476 210.021 65.5301 209.267 62.9403C208.89 61.6454 208.575 60.5999 208.35 59.8812C208.211 59.5134 208.109 59.1311 208.046 58.7407C208.242 59.0768 208.401 59.4355 208.519 59.8099C208.8 60.5108 209.16 61.5444 209.582 62.8334C210.42 65.3995 211.405 69.0169 212.367 73.0383L214.792 83.3323C215.089 84.5678 215.342 85.6054 215.552 86.4449C215.669 86.8206 215.744 87.2093 215.777 87.6032Z" fill="#E0E0E0"/>
<path d="M247.472 76.2041C247.058 76.3669 246.63 76.4882 246.195 76.5664C245.373 76.7743 244.175 77.0654 242.712 77.4753C239.775 78.2712 235.752 79.5186 231.374 81.0987C226.997 82.6787 223.092 84.3122 220.301 85.5655C218.9 86.1595 217.78 86.7179 217.004 87.0802C216.612 87.2955 216.201 87.4706 215.777 87.603C216.131 87.3327 216.507 87.0981 216.902 86.902C217.656 86.4862 218.759 85.9041 220.143 85.2388C222.912 83.8964 226.811 82.2213 231.2 80.6235C234.944 79.2526 238.753 78.0868 242.611 77.1307C244.09 76.7625 245.3 76.5367 246.139 76.3764C246.577 76.2735 247.023 76.2158 247.472 76.2041Z" fill="#E0E0E0"/>
<path d="M206.819 127.983C206.71 127.871 206.615 127.743 206.538 127.603C206.341 127.288 206.105 126.902 205.812 126.415C205.182 125.405 204.31 123.92 203.258 122.073C201.148 118.372 198.385 113.163 195.409 107.372C192.432 101.58 189.714 96.3766 187.678 92.6641L185.258 88.2447L184.605 87.0567C184.52 86.9201 184.452 86.7724 184.403 86.6172C184.514 86.7311 184.608 86.8611 184.684 87.0033L185.41 88.1913C186.04 89.2011 186.912 90.6861 187.965 92.5394C190.075 96.24 192.843 101.449 195.842 107.241C198.841 113.032 201.53 118.254 203.567 121.996L205.987 126.421C206.251 126.902 206.465 127.306 206.639 127.609C206.713 127.726 206.773 127.852 206.819 127.983Z" fill="#E0E0E0"/>
<path d="M248.091 106.653C247.966 106.754 247.83 106.838 247.686 106.902L246.493 107.514L242.076 109.807C238.346 111.749 233.22 114.488 227.565 117.529C221.91 120.57 216.75 123.255 212.981 125.114C211.096 126.041 209.565 126.778 208.479 127.265L207.247 127.811C207.108 127.889 206.958 127.943 206.802 127.971C206.928 127.872 207.064 127.789 207.208 127.722L208.4 127.086L212.823 124.794C216.553 122.857 221.674 120.119 227.334 117.072C232.995 114.024 238.143 111.345 241.913 109.486C243.798 108.56 245.328 107.823 246.414 107.336L247.646 106.789C247.787 106.72 247.937 106.674 248.091 106.653Z" fill="#E0E0E0"/>
<path d="M319.718 66.3201C319.718 56.626 310.074 50.49 300.239 55.343C298.016 56.4434 296.198 58.2841 295.062 60.5821C292.592 65.643 293.684 71.4166 295.929 76.2162L303.581 96.6913C303.822 97.3444 304.245 97.9055 304.793 98.301C305.341 98.6966 305.989 98.9082 306.653 98.9082C307.317 98.9082 307.966 98.6966 308.514 98.301C309.062 97.9055 309.484 97.3444 309.726 96.6913L317.232 76.1033C319.825 69.8128 319.718 66.3201 319.718 66.3201ZM310.48 74.7549C303.868 78.8119 297.167 71.3097 300.79 63.9085C301.263 62.9211 301.993 62.0968 302.895 61.5325C309.506 57.4755 316.202 64.9777 312.578 72.3789C312.108 73.3659 311.379 74.1903 310.48 74.7549Z" fill="#F5F5F5"/>
<path d="M399.493 263.783C399.493 263.872 315.093 263.938 211.034 263.938C106.974 263.938 22.5404 263.872 22.5404 263.783C22.5404 263.694 106.907 263.629 211.034 263.629C315.161 263.629 399.493 263.7 399.493 263.783Z" fill="#263238"/>
<path d="M182.394 263.784L107.604 263.421C103.287 263.393 99.1554 261.559 96.1158 258.321C93.0763 255.084 91.3764 250.706 91.3884 246.148L92.1817 48.2091C92.207 43.6487 93.9443 39.285 97.0126 36.0748C100.081 32.8646 104.23 31.0698 108.55 31.0841L183.339 31.4464C187.655 31.4747 191.785 33.3069 194.824 36.5421C197.863 39.7772 199.564 44.1517 199.555 48.708L198.762 246.647C198.74 251.209 197.004 255.576 193.935 258.789C190.867 262.001 186.716 263.798 182.394 263.784Z" fill="#455A64"/>
<path d="M183.232 38.2775L168.732 38.2062C167.778 38.225 166.869 38.6426 166.206 39.3675C165.542 40.0923 165.178 41.0654 165.193 42.0732V44.8531C165.201 45.3521 165.115 45.8477 164.941 46.3116C164.767 46.7755 164.507 47.1986 164.178 47.5567C163.849 47.9147 163.456 48.2007 163.022 48.3983C162.588 48.5959 162.121 48.7012 161.649 48.7082L133.38 48.5715C132.426 48.542 131.522 48.1149 130.865 47.3837C130.208 46.6524 129.852 45.6764 129.875 44.669V41.889C129.891 40.8882 129.534 39.9207 128.88 39.1959C128.226 38.4711 127.328 38.0472 126.381 38.0162H121.283L108.595 37.9152C105.569 37.8994 102.662 39.1526 100.511 41.3993C98.3611 43.646 97.1439 46.7023 97.1275 49.8962L96.3567 243.101C96.3432 246.294 97.5318 249.363 99.661 251.632C101.79 253.901 104.686 255.185 107.711 255.2L182.355 255.563C183.853 255.57 185.338 255.265 186.725 254.666C188.112 254.067 189.374 253.186 190.438 252.072C191.503 250.959 192.349 249.635 192.928 248.176C193.508 246.717 193.81 245.152 193.816 243.57L194.587 50.3714C194.594 48.7902 194.305 47.2231 193.738 45.7596C193.171 44.2961 192.337 42.9649 191.282 41.8418C190.228 40.7188 188.974 39.826 187.593 39.2145C186.212 38.6029 184.73 38.2845 183.232 38.2775Z" fill="#FAFAFA"/>
<path d="M97.0376 73.0918H109.27L120.186 84.6213L108.837 96.6023L97.167 84.2768L97.0376 73.0918Z" fill="#EBEBEB"/>
<path d="M122.678 79.5605L116.545 73.0918H130.342L122.678 79.5605Z" fill="#EBEBEB"/>
<path d="M128.041 84.8468L138.782 73.5073H176.312C176.312 73.5073 182.057 100.594 159.432 117.986L128.041 84.8468Z" fill="#EBEBEB"/>
<path d="M123.444 88.4585L111.954 100.594L143.75 134.161L155.24 121.622L123.444 88.4585Z" fill="#EBEBEB"/>
<path d="M96.8969 107.472L104.099 99.5841L97.0375 92.1294L96.8969 107.472Z" fill="#EBEBEB"/>
<path d="M108.409 104.235L97.347 115.913V132.141L120.186 156.81L139.536 137.802L108.409 104.235Z" fill="#EBEBEB"/>
<path d="M163.736 121.39C163.736 121.39 187.436 103.047 179.772 73.5073H194.508L194.328 156.881L163.736 121.39Z" fill="#EBEBEB"/>
<path d="M159.28 126.201L147.824 138.83L182.957 175.925L193.704 163.902L159.28 126.201Z" fill="#EBEBEB"/>
<path d="M143.036 142.287L125.025 161.164L161.046 198.925L179.024 180.576L143.036 142.287Z" fill="#EBEBEB"/>
<path d="M133.594 236.869L161.131 206.742L187.323 234.927L133.594 236.869Z" fill="#EBEBEB"/>
<path d="M165.424 202.851L194.12 172.854C194.12 174.185 193.872 235.052 193.872 235.052L165.424 202.851Z" fill="#EBEBEB"/>
<path d="M140.875 186.005L157.142 203.178L125.025 238.165L110.187 219.376L140.875 186.005Z" fill="#EBEBEB"/>
<path d="M96.925 221.812C98.4611 221.651 137.797 182.762 137.797 182.762L96.925 138.052V221.812Z" fill="#EBEBEB"/>
<path d="M96.3567 230.674L105.826 221.812L118.942 238.164H96.3567V231.91" fill="#EBEBEB"/>
<path d="M108.595 61.3187C107.594 60.5391 106.653 59.6771 105.781 58.7407C105.781 58.2893 105.781 58.616 105.781 58.515L105.821 58.4793L105.888 58.414L106.029 58.2774L106.299 58.0101L106.811 57.5111L107.694 56.6795C107.962 56.3909 108.265 56.1412 108.595 55.937C108.394 56.26 108.152 56.5519 107.874 56.8043L107.03 57.6834L106.53 58.1942L106.26 58.4675L106.125 58.6041L106.051 58.6694L106.018 58.7051V58.4793C106.945 59.3535 107.807 60.3029 108.595 61.3187Z" fill="#263238"/>
<path d="M186.383 56.7866C186.384 56.9151 186.349 57.0411 186.282 57.1485C186.215 57.2559 186.12 57.3398 186.007 57.3895C185.895 57.4393 185.771 57.4526 185.652 57.4278C185.532 57.403 185.422 57.3412 185.336 57.2503C185.25 57.1594 185.192 57.0435 185.168 56.9173C185.145 56.7912 185.157 56.6605 185.205 56.542C185.252 56.4234 185.331 56.3224 185.433 56.2517C185.535 56.181 185.654 56.1439 185.776 56.145C185.937 56.145 186.091 56.2126 186.205 56.3329C186.319 56.4533 186.383 56.6164 186.383 56.7866Z" fill="#263238"/>
<path d="M186.209 58.5506C186.295 58.641 186.353 58.7564 186.377 58.882C186.401 59.0077 186.389 59.1379 186.342 59.2563C186.296 59.3747 186.217 59.4759 186.117 59.5471C186.016 59.6183 185.897 59.6563 185.776 59.6563C185.654 59.6563 185.536 59.6183 185.435 59.5471C185.334 59.4759 185.255 59.3747 185.209 59.2563C185.163 59.1379 185.15 59.0077 185.174 58.882C185.198 58.7564 185.257 58.641 185.342 58.5506C185.458 58.4308 185.614 58.3638 185.776 58.3638C185.938 58.3638 186.093 58.4308 186.209 58.5506Z" fill="#263238"/>
<path d="M186.383 61.2236C186.369 61.3838 186.298 61.5326 186.185 61.6408C186.072 61.7491 185.925 61.8091 185.773 61.8091C185.62 61.8091 185.473 61.7491 185.36 61.6408C185.248 61.5326 185.177 61.3838 185.162 61.2236C185.154 61.1337 185.164 61.0431 185.191 60.9574C185.218 60.8718 185.261 60.793 185.319 60.7262C185.376 60.6594 185.446 60.6061 185.525 60.5696C185.603 60.533 185.687 60.5142 185.773 60.5142C185.858 60.5142 185.943 60.533 186.021 60.5696C186.099 60.6061 186.169 60.6594 186.227 60.7262C186.284 60.793 186.328 60.8718 186.355 60.9574C186.382 61.0431 186.392 61.1337 186.383 61.2236Z" fill="#263238"/>
<path d="M160.017 59.418H133.695V61.7346H160.017V59.418Z" fill="#263238"/>
<path d="M157.153 100.98C157.153 90.1571 146.383 83.3024 135.4 88.7256C132.915 89.9511 130.882 92.0076 129.616 94.5765C126.853 100.225 128.074 106.676 130.578 112.034L139.131 134.909C139.401 135.638 139.873 136.264 140.485 136.705C141.097 137.147 141.822 137.383 142.563 137.383C143.304 137.383 144.028 137.147 144.641 136.705C145.253 136.264 145.725 135.638 145.995 134.909L154.373 111.915C157.277 104.906 157.153 100.98 157.153 100.98ZM146.856 110.424C139.474 114.957 131.99 106.581 136.036 98.3128C136.569 97.2224 137.382 96.3125 138.382 95.6873C145.77 91.1551 153.254 99.5305 149.202 107.799C148.672 108.891 147.858 109.801 146.856 110.424Z" fill="#92E3A9"/>
<path d="M380.965 183.617H68.786V231.975H380.965V183.617Z" fill="#92E3A9"/>
<g opacity="0.5">
<path d="M380.965 183.617H68.786V231.975H380.965V183.617Z" fill="black"/>
</g>
<path d="M112.76 263.353C129.348 262.175 141.89 247.023 140.774 229.512C139.657 212.001 125.305 198.76 108.718 199.938C92.13 201.117 79.5879 216.268 80.7042 233.78C81.8205 251.291 96.1725 264.532 112.76 263.353Z" fill="#263238"/>
<path d="M80.6413 231.107C80.6413 231.137 80.6413 231.167 80.6413 231.191C80.5841 235.364 81.306 239.508 82.7659 243.387C84.2258 247.266 86.3951 250.803 89.1499 253.797C91.9047 256.79 95.191 259.182 98.8213 260.835C102.452 262.488 106.355 263.369 110.308 263.43C114.261 263.49 118.187 262.728 121.861 261.187C125.535 259.646 128.886 257.356 131.721 254.448C134.557 251.539 136.823 248.07 138.388 244.238C139.954 240.405 140.789 236.285 140.847 232.111C140.847 232.082 140.847 232.052 140.847 232.028L80.6413 231.107Z" fill="#263238"/>
<path d="M89.6047 231.327C89.5428 235.74 90.722 240.073 92.993 243.778C95.264 247.483 98.5249 250.394 102.363 252.143C106.202 253.891 110.445 254.399 114.556 253.601C118.668 252.803 122.463 250.736 125.462 247.661C128.46 244.586 130.527 240.641 131.402 236.326C132.277 232.01 131.92 227.518 130.375 223.417C128.831 219.316 126.17 215.79 122.727 213.286C119.285 210.782 115.217 209.412 111.037 209.349C105.434 209.265 100.03 211.533 96.0108 215.654C91.9919 219.776 89.6877 225.413 89.6047 231.327Z" fill="#FAFAFA"/>
<path d="M111.037 209.343C105.434 209.257 100.028 211.525 96.0092 215.646C91.99 219.768 89.6862 225.406 89.6047 231.321L131.867 231.969C131.946 226.052 129.797 220.345 125.89 216.102C121.984 211.859 116.641 209.428 111.037 209.343Z" fill="#E0E0E0"/>
<path d="M97.8647 231.452C97.8271 234.14 98.5455 236.78 99.9291 239.037C101.313 241.294 103.299 243.067 105.637 244.132C107.976 245.197 110.561 245.506 113.065 245.019C115.57 244.533 117.881 243.274 119.708 241.401C121.534 239.527 122.794 237.124 123.326 234.495C123.859 231.866 123.641 229.13 122.7 226.631C121.759 224.133 120.138 221.986 118.04 220.461C115.943 218.936 113.465 218.101 110.919 218.063C109.229 218.038 107.55 218.363 105.98 219.022C104.409 219.681 102.977 220.66 101.765 221.903C100.552 223.147 99.5841 224.63 98.9149 226.268C98.2458 227.907 97.8889 229.668 97.8647 231.452Z" fill="#263238"/>
<path d="M342.679 263.342C359.276 262.325 371.95 247.297 370.988 229.776C370.025 212.254 355.789 198.874 339.192 199.891C322.595 200.907 309.92 215.935 310.883 233.457C311.846 250.978 326.081 264.358 342.679 263.342Z" fill="#263238"/>
<path d="M310.828 231.107C310.828 231.137 310.828 231.167 310.828 231.191C310.771 235.364 311.493 239.508 312.953 243.387C314.413 247.266 316.582 250.803 319.337 253.797C322.092 256.79 325.378 259.182 329.008 260.835C332.639 262.488 336.542 263.369 340.495 263.43C344.448 263.49 348.374 262.728 352.048 261.187C355.722 259.646 359.073 257.356 361.908 254.448C364.744 251.539 367.01 248.07 368.575 244.238C370.141 240.405 370.976 236.285 371.034 232.111C371.034 232.082 371.034 232.052 371.034 232.028L310.828 231.107Z" fill="#263238"/>
<path d="M319.792 231.327C319.73 235.74 320.909 240.073 323.18 243.778C325.451 247.483 328.712 250.394 332.55 252.143C336.388 253.891 340.632 254.399 344.743 253.601C348.855 252.803 352.65 250.736 355.648 247.661C358.647 244.586 360.714 240.641 361.589 236.326C362.464 232.01 362.106 227.518 360.562 223.417C359.018 219.316 356.357 215.79 352.914 213.286C349.472 210.782 345.404 209.412 341.224 209.349C335.621 209.265 330.217 211.533 326.198 215.654C322.179 219.776 319.875 225.413 319.792 231.327Z" fill="#FAFAFA"/>
<path d="M341.224 209.343C335.621 209.257 330.215 211.525 326.196 215.646C322.177 219.768 319.873 225.406 319.792 231.321L362.054 231.969C362.133 226.052 359.983 220.345 356.077 216.102C352.171 211.859 346.828 209.428 341.224 209.343Z" fill="#E0E0E0"/>
<path d="M328.035 231.452C327.997 234.14 328.715 236.78 330.099 239.037C331.483 241.294 333.469 243.067 335.807 244.132C338.146 245.197 340.731 245.506 343.235 245.019C345.74 244.533 348.051 243.274 349.878 241.401C351.704 239.527 352.964 237.124 353.496 234.495C354.029 231.866 353.811 229.13 352.87 226.631C351.929 224.133 350.308 221.986 348.21 220.461C346.113 218.936 343.635 218.101 341.088 218.063C339.399 218.038 337.72 218.363 336.15 219.022C334.579 219.681 333.147 220.66 331.935 221.903C330.722 223.147 329.754 224.63 329.085 226.268C328.416 227.907 328.059 229.668 328.035 231.452Z" fill="#263238"/>
<path d="M150.193 156.412C150.193 156.412 105.866 159.863 89.4246 163.754C77.8449 166.492 55.5183 171.226 55.7884 186.053L57.5608 196.685C57.5608 196.685 49.284 200.677 49.284 210.87C49.284 221.063 47.264 236.863 66.5972 237.499C69.7819 237.6 75.8306 237.499 75.8306 237.499C75.8306 237.499 72.1226 194.03 109.945 192.759C148.426 191.464 145.871 237.101 145.871 237.101H306.473C306.473 237.101 299.879 192.64 341.302 192.551C382.726 192.462 376.424 237.392 376.424 237.392C376.424 237.392 391.661 238.782 398.751 225.263C405.84 211.743 404 202.097 404 202.097L403.764 193.549C403.719 192.146 403.171 190.814 402.231 189.821C401.291 188.829 400.029 188.25 398.7 188.203C398.7 188.203 401.468 166.688 397.22 162.964C392.972 159.24 369.695 136.768 369.695 136.768L370.82 136.038C371.237 135.759 371.571 135.362 371.783 134.891C371.995 134.421 372.076 133.897 372.017 133.379C371.958 132.862 371.762 132.373 371.45 131.969C371.139 131.565 370.725 131.262 370.257 131.096C361.418 127.888 343.941 121.538 339.834 120.024C339.219 119.793 338.577 119.649 337.926 119.596C335.473 119.4 328.53 118.937 315.785 118.794C300.261 118.616 238.627 118.794 238.627 118.794C238.627 118.794 217.414 120.635 205.598 126.124C193.208 131.898 150.193 156.412 150.193 156.412Z" fill="#92E3A9"/>
<g opacity="0.4">
<path d="M60.5261 209.682C58.9168 209.338 56.4524 209.308 55.2258 210.454C54.3142 211.31 54.0723 212.694 53.9372 213.971C53.6788 215.72 53.7169 217.504 54.0498 219.24C54.2195 220.106 54.557 220.927 55.0411 221.65C55.5253 222.372 56.1455 222.981 56.8631 223.439C58.3373 224.283 60.3517 224.146 61.4939 222.845C62.5404 221.657 62.6586 219.875 62.6192 218.289C62.5798 215.996 62.7542 214.054 62.3547 211.803C62.2666 211.325 62.074 210.875 61.7921 210.49C61.6519 210.259 61.4632 210.066 61.2407 209.925C61.0182 209.784 60.7679 209.699 60.5092 209.676" fill="black"/>
</g>
<path d="M57.5721 196.685C62.276 196.685 66.8392 196.412 71.5375 196.091C72.0493 196.115 72.5534 195.953 72.9666 195.634C73.1556 195.386 73.2962 195.1 73.3802 194.794C73.4643 194.489 73.4901 194.168 73.4562 193.852C73.4562 191.191 73.3549 188.161 71.4418 186.427C70.2715 185.369 68.6679 185.037 67.1318 184.888C63.3172 184.453 59.4587 184.858 55.7997 186.076L57.5721 196.685Z" fill="#FAFAFA"/>
<path d="M155.296 235.741C155.296 235.741 155.296 235.598 155.262 235.313C155.229 235.028 155.217 234.606 155.184 234.066C155.127 232.961 155.043 231.351 154.936 229.272C154.829 227.193 154.694 224.645 154.413 221.698C154.122 218.362 153.567 215.058 152.753 211.82C151.726 207.909 150.202 204.163 148.223 200.683C145.982 196.664 143.004 193.159 139.463 190.371C131.872 184.668 121.615 181.461 110.885 181.306C100.155 181.152 89.8917 184.734 82.487 190.739C78.9376 193.511 75.8285 196.862 73.2761 200.665C71.0475 203.967 69.2355 207.561 67.8858 211.357C66.7724 214.494 66.0077 217.757 65.607 221.081C65.2932 223.587 65.2009 226.118 65.3313 228.642C65.4236 230.237 65.6115 231.824 65.8939 233.394C65.984 233.923 66.0571 234.333 66.1021 234.618C66.1471 234.903 66.164 235.04 66.164 235.04C66.164 235.04 66.1303 234.903 66.074 234.63L65.8321 233.442C65.5258 231.875 65.3228 230.287 65.2244 228.69C65.0714 226.158 65.1467 223.616 65.4494 221.099C65.8372 217.758 66.5925 214.477 67.7001 211.321C69.0452 207.495 70.8573 203.871 73.0904 200.54C75.6487 196.706 78.7716 193.329 82.3407 190.537C89.7791 184.502 100.065 180.885 110.879 181.033C121.694 181.182 131.968 184.419 139.62 190.175C143.182 192.99 146.176 196.529 148.426 200.582C150.403 204.088 151.917 207.863 152.927 211.802C153.737 215.054 154.281 218.373 154.553 221.722C154.818 224.692 154.936 227.223 155.026 229.302C155.116 231.381 155.178 232.996 155.223 234.101C155.223 234.642 155.257 235.058 155.268 235.349C155.279 235.64 155.296 235.741 155.296 235.741Z" fill="white"/>
<path d="M156.984 236.477V236.121L156.95 235.07C156.922 234.131 156.883 232.759 156.826 230.965C156.731 227.36 156.59 222.091 156.41 215.384C156.23 208.678 156.022 200.534 155.78 191.209C155.718 188.874 155.662 186.457 155.594 183.992C155.555 182.732 155.607 181.471 155.752 180.22L156.005 178.307L156.376 176.388C156.959 173.767 157.798 171.217 158.88 168.779C159.994 166.224 161.372 163.805 162.988 161.568L190.8 143.071L198.312 138.081C200.844 136.305 203.502 134.738 206.262 133.395C209.085 131.991 211.982 130.76 214.939 129.706C216.413 129.159 217.926 128.714 219.44 128.239C220.954 127.764 222.495 127.372 224.06 127.051C229.958 125.719 235.953 124.924 241.98 124.675C247.764 124.382 253.557 124.402 259.339 124.734H259.502L259.463 124.906L251.99 160.196C250.61 162.589 249.478 165.132 248.614 167.781C247.764 170.294 247.382 172.956 247.489 175.622C247.68 178.23 247.748 180.784 247.81 183.261C247.872 185.738 247.9 188.138 247.945 190.472C248.074 199.798 248.108 207.93 248.13 214.63C248.153 221.33 248.13 226.599 248.13 230.199C248.13 231.981 248.13 233.365 248.13 234.303C248.13 234.761 248.13 235.111 248.13 235.355C248.13 235.598 248.13 235.711 248.13 235.711C248.13 235.711 248.13 235.586 248.13 235.355C248.13 235.123 248.13 234.761 248.13 234.303C248.13 233.365 248.13 231.993 248.13 230.199C248.13 226.599 248.08 221.33 248.04 214.636C248.001 207.942 247.945 199.786 247.793 190.472C247.748 188.144 247.699 185.742 247.646 183.267C247.579 180.79 247.511 178.248 247.315 175.64C247.2 172.941 247.582 170.244 248.44 167.698C249.298 165.028 250.43 162.464 251.816 160.053V160.095C254.106 149.231 256.61 137.374 259.26 124.799L259.389 124.978C253.621 124.65 247.84 124.634 242.07 124.93C236.058 125.176 230.077 125.971 224.195 127.306C222.636 127.633 221.117 128.09 219.592 128.494C218.067 128.898 216.576 129.415 215.091 129.955C212.134 131.011 209.237 132.244 206.414 133.65C203.668 134.985 201.023 136.542 198.503 138.307L190.986 143.297L163.173 161.752V161.723C161.561 163.945 160.187 166.349 159.077 168.892C157.996 171.311 157.159 173.844 156.579 176.448C155.313 181.538 155.949 186.546 155.96 191.209L156.523 215.384C156.675 222.085 156.793 227.36 156.871 230.959C156.911 232.741 156.933 234.131 156.956 235.07C156.956 235.525 156.956 235.876 156.956 236.121C156.984 236.359 156.984 236.477 156.984 236.477Z" fill="#263238"/>
<path d="M259.136 125.714H259.401L260.171 125.685L263.159 125.607L274.238 125.382L311.588 124.705H311.661L311.706 124.764L316.939 131.53C322.239 138.402 327.292 144.936 331.883 150.876L333.571 153.074C334.118 153.811 334.588 154.607 334.972 155.45C335.669 157.013 336.048 158.713 336.084 160.44C336.12 162.167 335.812 163.883 335.181 165.477L333.493 169.635L328.327 182.251L326.909 185.673L326.532 186.564C326.448 186.76 326.397 186.861 326.397 186.861C326.397 186.861 326.431 186.754 326.504 186.552C326.577 186.35 326.707 186.035 326.853 185.649C327.174 184.853 327.63 183.689 328.22 182.204L333.284 169.552C334.252 166.867 335.957 164.039 335.839 160.594C335.814 158.843 335.43 157.119 334.714 155.539C334.336 154.719 333.876 153.944 333.341 153.228L331.653 151.031L316.691 131.702L311.464 124.936L311.577 124.996L274.221 125.59L263.142 125.726H260.155H259.389L259.136 125.714Z" fill="#263238"/>
<path d="M240.259 178.153C240.259 178.153 240.416 178.153 240.703 178.081C241.125 178.002 241.527 177.832 241.885 177.582C242.452 177.192 242.876 176.61 243.089 175.931C243.218 175.509 243.271 175.066 243.246 174.624C243.233 174.131 243.114 173.648 242.898 173.21C242.646 172.713 242.273 172.295 241.817 172.002C241.36 171.708 240.838 171.549 240.304 171.541H236.511H227.818C227.084 171.543 226.377 171.835 225.837 172.361C225.311 172.867 224.975 173.557 224.892 174.303C224.807 175.025 224.933 175.756 225.252 176.4C225.579 177.005 226.085 177.479 226.693 177.749C227.294 177.966 227.933 178.049 228.566 177.992H230.406H233.715L238.503 178.04L239.803 178.069C239.956 178.066 240.108 178.078 240.259 178.105C240.107 178.124 239.955 178.134 239.803 178.135H238.503L233.715 178.182H230.406H228.566C228.246 178.182 227.936 178.182 227.593 178.182C227.249 178.16 226.91 178.078 226.591 177.939C225.924 177.649 225.368 177.133 225.01 176.471C224.653 175.777 224.513 174.98 224.611 174.196C224.699 173.363 225.075 172.593 225.666 172.033C226.258 171.474 227.024 171.163 227.818 171.161H236.511H240.309C240.883 171.174 241.444 171.35 241.931 171.671C242.418 171.992 242.814 172.446 243.078 172.985C243.303 173.453 243.424 173.969 243.432 174.493C243.45 174.957 243.387 175.42 243.246 175.86C243.009 176.565 242.55 177.165 241.947 177.559C241.574 177.808 241.153 177.965 240.714 178.016C240.568 178.08 240.415 178.126 240.259 178.153Z" fill="#263238"/>
<path d="M323.533 178.153C323.533 178.153 323.691 178.153 323.978 178.081C324.4 178.002 324.802 177.832 325.16 177.582C325.727 177.192 326.151 176.61 326.364 175.931C326.493 175.509 326.546 175.066 326.521 174.624C326.508 174.131 326.389 173.648 326.172 173.21C325.921 172.713 325.548 172.295 325.091 172.002C324.635 171.708 324.113 171.549 323.578 171.541H319.786H311.093C310.359 171.543 309.652 171.835 309.112 172.361C308.586 172.867 308.25 173.557 308.167 174.303C308.082 175.025 308.207 175.756 308.527 176.4C308.854 177.005 309.36 177.479 309.968 177.749C310.569 177.966 311.207 178.049 311.841 177.992H313.681H316.99L321.778 178.04L323.078 178.069C323.23 178.066 323.383 178.078 323.533 178.105C323.382 178.124 323.23 178.134 323.078 178.135H321.778L316.99 178.182H313.681H311.841C311.52 178.182 311.211 178.182 310.868 178.182C310.523 178.16 310.185 178.078 309.866 177.939C309.199 177.649 308.643 177.133 308.285 176.471C307.928 175.777 307.788 174.98 307.886 174.196C307.974 173.363 308.35 172.593 308.941 172.033C309.533 171.474 310.299 171.163 311.093 171.161H319.786H323.584C324.158 171.174 324.719 171.35 325.206 171.671C325.693 171.992 326.089 172.446 326.352 172.985C326.578 173.453 326.699 173.969 326.707 174.493C326.725 174.957 326.662 175.42 326.521 175.86C326.283 176.565 325.825 177.165 325.221 177.559C324.849 177.808 324.428 177.965 323.989 178.016C323.843 178.08 323.69 178.126 323.533 178.153Z" fill="#263238"/>
<path d="M396.506 163.813H379.851C378.731 163.813 377.633 164.136 376.674 164.746C375.715 165.356 374.932 166.231 374.41 167.276C373.98 168.141 373.741 169.097 373.71 170.073C373.679 171.049 373.857 172.02 374.23 172.914L380.757 188.577L397.434 188.405C397.434 188.405 400.984 168.548 396.506 163.813Z" fill="#FAFAFA"/>
<path d="M165.199 161.598L251.135 159.923L307.064 158.842L325.508 147.597C325.859 147.382 326.162 147.09 326.398 146.741C326.634 146.393 326.797 145.995 326.876 145.575C326.955 145.155 326.949 144.722 326.858 144.305C326.767 143.887 326.592 143.495 326.347 143.154L314.863 127.229C314.273 126.409 313.512 125.743 312.64 125.281C311.768 124.82 310.808 124.576 309.832 124.568L247.275 124.033C247.275 124.033 223.722 122.584 205.16 133.537C185.641 145.102 165.199 161.598 165.199 161.598Z" fill="#263238"/>
<path d="M204.58 125.679C204.58 125.679 208.89 127.752 206.088 129.67C203.286 131.589 159.747 160.558 159.747 160.558L149.737 155.777C167.466 145.364 185.37 135.236 204.58 125.679Z" fill="#455A64"/>
<path d="M161.153 161.295L160.883 161.366L160.09 161.55L157.035 162.216C154.379 162.774 150.53 163.558 145.781 164.425C136.216 166.16 122.982 168.179 108.257 169.522C104.572 169.86 100.942 170.116 97.499 170.377C94.0554 170.639 90.6682 170.846 87.4835 171.149C81.1085 171.743 75.403 172.718 70.7667 174.173C67.0815 175.255 63.5349 176.807 60.2054 178.794C59.0069 179.459 58.1517 180.113 57.5496 180.505L56.8632 180.962L56.6212 181.111C56.6934 181.049 56.7685 180.992 56.8463 180.938L57.5159 180.451C58.1123 180.042 58.9563 179.37 60.1491 178.669C63.4585 176.627 66.9971 175.031 70.6823 173.917C75.3299 172.426 81.0522 171.423 87.4328 170.823C90.6232 170.502 93.9767 170.276 97.4539 170.033C100.931 169.789 104.527 169.504 108.206 169.165C122.926 167.823 136.177 165.839 145.725 164.158C150.502 163.32 154.351 162.572 157.012 162.049L160.079 161.455L160.878 161.301L161.153 161.295Z" fill="#263238"/>
<path d="M403.162 201.919C403.162 202.008 397.434 202.073 390.373 202.073C383.311 202.073 377.578 202.008 377.578 201.919C377.578 201.829 383.305 201.764 390.373 201.764C397.44 201.764 403.162 201.835 403.162 201.919Z" fill="#263238"/>
<path d="M298.377 217.351C298.377 217.44 266.046 217.505 226.17 217.505C186.293 217.505 153.957 217.44 153.957 217.351C153.957 217.262 186.282 217.196 226.17 217.196C266.057 217.196 298.377 217.268 298.377 217.351Z" fill="#263238"/>
<path d="M72.0214 202.429C72.0214 202.518 67.4469 202.584 61.809 202.584C56.171 202.584 51.5966 202.518 51.5966 202.429C51.5966 202.34 56.171 202.275 61.809 202.275C67.4469 202.275 72.0214 202.346 72.0214 202.429Z" fill="#263238"/>
<path d="M369.261 136.151C369.261 136.151 365.424 140.683 366.932 144.009C368.44 147.336 384.031 158.99 384.031 158.99L395.346 161.23L369.261 136.151Z" fill="#455A64"/>
<path d="M261.679 128.031L259.136 157.042L304.667 155.67L323.016 144.407L311.138 128.031H261.679Z" fill="#455A64"/>
<path d="M175.98 158.527C175.98 158.527 203.449 137.582 214.286 133.419C224.746 129.403 230.198 128.393 240.022 128.073C249.413 127.787 255.136 128.073 255.136 128.073L247.877 157.565L175.98 158.527Z" fill="#455A64"/>
<path d="M171.962 158.598C171.963 157.696 172.19 156.811 172.621 156.032C173.052 155.253 173.671 154.61 174.415 154.167L180.729 150.424C182.527 149.356 184.556 148.795 186.62 148.797C187.89 148.799 189.153 149.011 190.361 149.427C191.677 149.907 192.822 150.799 193.644 151.985C194.467 153.171 194.927 154.593 194.964 156.062C195 157.048 194.846 158.032 194.513 158.955C194.18 159.877 193.673 160.719 193.025 161.43C192.376 162.141 191.598 162.707 190.737 163.093C189.876 163.479 188.95 163.677 188.015 163.677H176.762C175.488 163.673 174.267 163.137 173.367 162.185C172.467 161.233 171.962 159.943 171.962 158.598Z" fill="#92E3A9"/>
<path d="M171.962 158.598C171.962 158.598 171.962 158.823 172.035 159.239C172.12 159.851 172.311 160.441 172.598 160.98C173.053 161.828 173.723 162.526 174.534 162.993C175.039 163.273 175.588 163.454 176.154 163.528C176.8 163.578 177.448 163.592 178.095 163.57L187.722 163.534C188.635 163.56 189.544 163.402 190.401 163.071C191.305 162.713 192.128 162.158 192.814 161.442C193.501 160.725 194.036 159.863 194.384 158.913C194.739 157.91 194.883 156.838 194.806 155.77C194.731 154.718 194.437 153.697 193.946 152.778C193.455 151.859 192.779 151.066 191.965 150.454C191.179 149.881 190.294 149.477 189.36 149.266C186.794 148.625 184.099 148.899 181.696 150.044C180.97 150.389 180.306 150.822 179.648 151.197L177.769 152.301L174.534 154.19C173.72 154.653 173.048 155.352 172.598 156.204C172.314 156.744 172.124 157.334 172.035 157.944C171.979 158.36 171.985 158.586 171.968 158.586C171.947 158.369 171.947 158.15 171.968 157.932C172.031 157.309 172.207 156.704 172.485 156.15C172.928 155.263 173.606 154.532 174.438 154.048L177.651 152.117L179.519 150.995C180.171 150.614 180.835 150.175 181.578 149.807C184.026 148.617 186.781 148.324 189.405 148.975C190.373 149.178 191.292 149.582 192.111 150.163C192.962 150.799 193.669 151.626 194.183 152.584C194.696 153.542 195.003 154.607 195.082 155.705C195.165 156.819 195.015 157.938 194.643 158.984C194.28 159.977 193.721 160.877 193.003 161.625C192.285 162.372 191.425 162.95 190.48 163.32C189.591 163.658 188.65 163.817 187.706 163.789L178.078 163.76C177.423 163.774 176.768 163.753 176.115 163.694C175.522 163.607 174.95 163.406 174.427 163.1C173.597 162.611 172.918 161.881 172.469 160.998C172.194 160.443 172.02 159.838 171.957 159.216C171.943 159.01 171.945 158.803 171.962 158.598Z" fill="#263238"/>
<path d="M383.592 236.008C383.592 236.008 383.592 235.871 383.592 235.598C383.592 235.325 383.637 234.915 383.671 234.41C383.705 233.905 383.761 233.222 383.795 232.45C383.829 231.678 383.851 230.775 383.879 229.771C383.907 228.767 383.879 227.638 383.879 226.415C383.879 225.191 383.795 223.855 383.637 222.429C383.382 219.198 382.837 216 382.011 212.878C381.525 211.056 380.925 209.27 380.216 207.532C379.464 205.653 378.556 203.849 377.504 202.138C375.159 198.367 372.176 195.085 368.704 192.456C364.883 189.527 360.617 187.305 356.089 185.886C351.397 184.372 346.288 183.819 341.089 183.778C336.017 183.729 330.969 184.504 326.122 186.076C323.826 186.842 321.598 187.814 319.46 188.981C317.421 190.124 315.485 191.46 313.675 192.973C310.311 195.755 307.313 198.999 304.763 202.619C303.641 204.281 302.651 206.037 301.803 207.87C301.03 209.569 300.346 211.312 299.755 213.091C297.957 218.453 296.863 224.049 296.503 229.723C296.413 231.737 296.424 233.287 296.475 234.369C296.503 234.891 296.525 235.289 296.537 235.557C296.548 235.824 296.537 235.966 296.537 235.966C296.537 235.966 296.537 235.83 296.492 235.557C296.447 235.283 296.435 234.873 296.396 234.369C296.321 232.819 296.321 231.267 296.396 229.717C296.707 224.011 297.773 218.379 299.564 212.985C300.155 211.198 300.835 209.445 301.601 207.734C302.456 205.887 303.449 204.115 304.571 202.435C307.13 198.791 310.137 195.524 313.512 192.717C315.333 191.193 317.28 189.845 319.33 188.69C321.482 187.513 323.726 186.533 326.037 185.761C330.912 184.17 335.992 183.387 341.094 183.439C346.316 183.481 351.447 184.033 356.179 185.565C360.737 186.998 365.029 189.239 368.873 192.195C370.653 193.578 372.317 195.12 373.847 196.804C375.3 198.384 376.595 200.118 377.712 201.978C378.768 203.704 379.677 205.524 380.43 207.419C381.137 209.157 381.733 210.943 382.214 212.765C383.035 215.903 383.568 219.118 383.806 222.364C383.958 223.789 383.958 225.126 384.02 226.355C384.082 227.585 384.02 228.731 384.02 229.717C384.02 230.704 383.936 231.624 383.902 232.402C383.868 233.181 383.795 233.828 383.75 234.363C383.705 234.897 383.671 235.283 383.649 235.551C383.626 235.818 383.592 236.008 383.592 236.008Z" fill="white"/>
<path d="M246.544 161.598H246.161L244.693 161.633L239.297 161.734C234.739 161.823 228.448 162.002 221.494 162.204C214.539 162.406 208.243 162.542 203.685 162.578C201.407 162.578 199.561 162.578 198.284 162.578H196.815H196.438C196.394 162.587 196.348 162.587 196.303 162.578C196.348 162.57 196.394 162.57 196.438 162.578H196.815L198.284 162.542L203.68 162.441C208.237 162.352 214.534 162.174 221.488 161.978C228.443 161.782 234.739 161.633 239.297 161.598C241.547 161.598 243.421 161.598 244.693 161.598H246.161H246.544Z" fill="white"/>
<path d="M239.212 170.525C237.574 170.682 235.928 170.734 234.283 170.68C232.639 170.734 230.993 170.682 229.354 170.525C230.993 170.373 232.639 170.321 234.283 170.371C235.928 170.321 237.573 170.373 239.212 170.525Z" fill="white"/>
<path d="M241.024 138.74C241.052 138.818 234.936 141.509 227.357 144.746C219.778 147.983 213.611 150.549 213.577 150.466C213.543 150.383 219.665 147.698 227.244 144.461C234.823 141.223 240.99 138.663 241.024 138.74Z" fill="white"/>
<path d="M228.623 140.778C228.656 140.861 222.827 143.57 215.608 146.831C208.389 150.092 202.515 152.676 202.481 152.599C202.447 152.521 208.277 149.813 215.496 146.546C222.715 143.279 228.589 140.689 228.623 140.778Z" fill="white"/>
<path d="M307.261 137.618C307.295 137.695 301.173 140.386 293.594 143.623C286.015 146.86 279.848 149.42 279.814 149.343C279.78 149.266 285.902 146.575 293.487 143.338C301.072 140.101 307.216 137.535 307.261 137.618Z" fill="white"/>
<path d="M294.837 139.643C294.871 139.727 289.042 142.435 281.828 145.696C274.615 148.957 268.73 151.541 268.696 151.464C268.662 151.387 274.491 148.678 281.71 145.411C288.929 142.144 294.837 139.59 294.837 139.643Z" fill="white"/>
<path d="M308.459 161.568C308.459 161.651 296.289 161.8 281.277 161.895C266.265 161.99 254.095 161.996 254.095 161.895C254.095 161.794 266.259 161.663 281.277 161.574C296.295 161.485 308.459 161.503 308.459 161.568Z" fill="white"/>
<path d="M321.935 170.033C321.935 170.116 318.526 170.217 314.311 170.258C310.097 170.3 306.687 170.258 306.687 170.181C306.687 170.104 310.097 169.991 314.311 169.949C318.526 169.908 321.935 169.943 321.935 170.033Z" fill="white"/>
<path d="M88.9013 165.637C88.7939 165.675 88.6824 165.699 88.5693 165.708L87.6184 165.839C87.2021 165.886 86.6957 165.952 86.1105 166.058C85.5253 166.165 84.8557 166.243 84.1243 166.397C82.6557 166.67 80.9171 167.074 79.0153 167.585C76.9551 168.185 74.925 168.895 72.9328 169.712C70.8172 170.597 68.8535 171.565 67.098 172.521C65.3425 173.478 63.8233 174.44 62.5966 175.301C61.9608 175.711 61.4094 176.127 60.9086 176.489C60.4079 176.851 59.9971 177.148 59.6595 177.41L58.8774 178.004C58.7878 178.077 58.6917 178.14 58.5905 178.194C58.665 178.106 58.748 178.026 58.838 177.956L59.592 177.321C59.9184 177.047 60.3235 176.727 60.813 176.352C61.3025 175.978 61.837 175.562 62.501 175.164C63.7389 174.279 65.2693 173.311 67.0023 172.319C70.7963 170.178 74.8149 168.513 78.9759 167.359C80.8889 166.837 82.6388 166.45 84.1186 166.207C84.8557 166.064 85.5253 165.993 86.1161 165.91C86.7069 165.827 87.2414 165.773 87.6297 165.744L88.5918 165.666C88.6942 165.649 88.7976 165.639 88.9013 165.637Z" fill="white"/>
<path d="M189.382 151.624C189.382 151.624 189.219 151.393 188.82 151.072C188.28 150.636 187.638 150.363 186.963 150.282C185.95 150.193 184.93 150.308 183.958 150.621C180.532 151.531 177.35 153.261 174.657 155.675C173.318 156.863 172.609 157.737 172.57 157.695C172.706 157.468 172.864 157.257 173.042 157.065C173.508 156.52 174 156 174.517 155.509C176.236 153.893 178.188 152.577 180.301 151.613C181.461 151.077 182.664 150.653 183.896 150.347C184.9 150.039 185.952 149.942 186.991 150.062C187.697 150.164 188.359 150.485 188.893 150.983C189.035 151.117 189.161 151.269 189.27 151.434C189.36 151.553 189.394 151.618 189.382 151.624Z" fill="white"/>
<path d="M370.538 135.937C369.754 136.137 368.948 136.225 368.142 136.198C367.195 136.168 366.253 136.045 365.328 135.83C364.108 135.527 362.91 135.13 361.744 134.642C360.444 134.125 359.06 133.454 357.563 132.794L355.228 131.802C354.424 131.464 353.574 131.173 352.719 130.84C348.963 129.498 345.134 128.397 341.252 127.543C334.194 125.993 327.028 125.055 319.825 124.74C318.441 124.663 317.192 124.663 316.089 124.633H313.276L311.498 124.674H310.873C310.925 124.664 310.979 124.664 311.031 124.674L311.492 124.639L313.276 124.538L316.089 124.484C317.215 124.484 318.441 124.484 319.825 124.556C327.048 124.805 334.236 125.719 341.308 127.288C345.198 128.132 349.034 129.235 352.792 130.591C353.647 130.923 354.48 131.22 355.307 131.565L357.642 132.581C359.139 133.264 360.517 133.929 361.806 134.458C362.956 134.947 364.139 135.344 365.345 135.646C366.257 135.876 367.188 136.016 368.125 136.061C368.716 136.083 369.308 136.061 369.897 135.996L370.353 135.937H370.538Z" fill="#263238"/>
<path d="M99.8226 136.757C97.5719 123.76 96.0584 121.764 94.7867 117.291C93.5151 112.819 91.4951 109.914 88.98 108.886C87.292 108.197 78.8126 104.972 75.8643 106.041C72.9796 107.124 70.2334 108.58 67.6887 110.377C65.7139 111.76 64.2173 113.782 63.4237 116.139L58.9224 129.546L66.8447 137.862L70.8171 128.952L75.1272 139.644L74.4913 150.425L99.2093 157.446C101.437 153.644 101.1 144.128 99.8226 136.757Z" fill="#92E3A9"/>
<g opacity="0.2">
<path d="M93.4026 122.578C92.3111 129.344 92.1366 130.3 91.0451 137.042C90.6681 139.365 89.5709 142.982 88.0067 144.669C86.8476 145.91 85.711 147.104 84.0961 147.508C82.5995 147.883 80.3206 147.924 78.914 147.271C77.5073 146.617 76.3032 143.707 76.8828 142.216C78.9815 142.691 79.6286 143.404 81.4347 142.216C83.0102 141.158 85.2496 138.818 86.1049 137.066C89.7116 129.7 90.7075 129.439 93.4195 122.578" fill="black"/>
</g>
<path d="M75.493 135.687C75.0932 135.119 74.7286 134.524 74.4014 133.905L71.8582 129.492L69.2474 125.15C68.8582 124.566 68.5066 123.954 68.1952 123.32C68.3306 123.45 68.4497 123.598 68.5497 123.76C68.7635 124.051 69.0617 124.485 69.4162 125.025C70.1364 126.106 71.1042 127.621 72.1057 129.326C73.1073 131.03 73.9794 132.61 74.5815 133.769C74.8853 134.363 75.1441 134.814 75.2792 135.147C75.3767 135.314 75.4489 135.497 75.493 135.687Z" fill="#263238"/>
<path d="M92.7443 147.823C92.5652 147.921 92.3765 147.999 92.1816 148.055C91.951 148.136 91.7162 148.203 91.4783 148.257C91.1674 148.346 90.8517 148.415 90.533 148.464C89.7082 148.619 88.8725 148.701 88.0348 148.708C87.0068 148.71 85.9807 148.616 84.9682 148.429C83.9568 148.228 82.9644 147.932 82.003 147.544C81.2251 147.223 80.4725 146.838 79.7523 146.391C79.4372 146.207 79.1897 146.005 78.9421 145.845C78.7372 145.704 78.54 145.552 78.3513 145.388C78.1797 145.263 78.0229 145.118 77.8843 144.954C77.918 144.906 78.6157 145.483 79.8536 146.201C80.5793 146.614 81.3314 146.974 82.1043 147.276C84.0038 148.024 86.0133 148.412 88.0404 148.423C88.8665 148.424 89.6917 148.366 90.5105 148.251C91.8834 148.043 92.7274 147.764 92.7443 147.823Z" fill="#263238"/>
<path d="M82.8244 127.573C82.7794 127.805 80.1236 133.389 80.1236 133.389L67.5874 126.415L66.3102 120.713C66.0994 119.797 65.5536 119.007 64.7923 118.515C64.031 118.023 63.1161 117.869 62.2477 118.087L58.551 119.685C58.3985 119.748 58.2632 119.85 58.1572 119.981C58.0511 120.113 57.9777 120.27 57.9433 120.439C57.8927 120.725 57.9433 121.033 58.4328 120.968C59.35 120.891 61.2462 120.677 61.2462 120.677L60.374 123.926C60.1438 124.778 60.2325 125.69 60.6216 126.474L61.1843 127.597L62.4053 129.682H62.3771C62.3771 129.682 74.5645 142.899 81.4065 143.76C85.5196 144.277 90.1785 132.106 90.1785 132.106L82.8244 127.573Z" fill="#B78876"/>
<path d="M61.1562 120.897C61.1562 120.897 61.2519 120.76 61.4601 120.612C61.7389 120.407 62.0713 120.299 62.411 120.303C62.5884 120.313 62.7598 120.374 62.9073 120.479C63.0548 120.583 63.1729 120.728 63.2494 120.897C63.3675 121.164 63.2888 121.342 63.2494 121.33C63.21 121.319 63.2494 121.164 63.1143 120.962C63.0313 120.834 62.9219 120.727 62.7942 120.65C62.6666 120.573 62.524 120.527 62.3772 120.517C62.0727 120.521 61.7737 120.603 61.5051 120.754C61.3307 120.843 61.1731 120.921 61.1562 120.897Z" fill="#AA6550"/>
<path d="M62.7373 122.923C62.7373 122.923 62.6529 122.816 62.5348 122.655C62.3838 122.451 62.1835 122.293 61.9549 122.197C61.7263 122.102 61.4777 122.074 61.235 122.115C61.0437 122.115 60.9256 122.186 60.9143 122.162C60.903 122.139 61.0043 122.049 61.2069 121.978C61.4746 121.896 61.7607 121.909 62.0203 122.017C62.2799 122.124 62.4985 122.32 62.6417 122.572C62.743 122.774 62.7542 122.917 62.7373 122.923Z" fill="#AA6550"/>
<path d="M85.424 109.95L82.048 126.932L91.0506 132.641L94.5054 122.204C94.5054 122.204 93.0537 109.528 85.424 109.95Z" fill="#92E3A9"/>
<path d="M90.2742 110.247C90.2742 110.247 90.201 110.312 90.0435 110.401C89.886 110.49 89.6609 110.621 89.3627 110.781C88.7662 111.102 87.8885 111.553 86.7913 112.07C83.9388 113.447 80.9357 114.444 77.8505 115.04C74.7459 115.626 71.5592 115.512 68.499 114.708C67.5831 114.454 66.6905 114.114 65.832 113.692C65.5225 113.555 65.2693 113.407 65.1399 113.323C65.0591 113.281 64.982 113.231 64.9092 113.175C65.2387 113.293 65.5618 113.43 65.877 113.585C66.7514 113.958 67.6503 114.263 68.5665 114.5C71.6035 115.234 74.7495 115.314 77.8168 114.737C80.8813 114.142 83.8715 113.179 86.7294 111.868C87.8547 111.381 88.7156 110.959 89.3289 110.68C89.6346 110.514 89.9504 110.369 90.2742 110.247Z" fill="#EBEBEB"/>
<path d="M92.6431 112.124C92.566 112.197 92.481 112.261 92.3899 112.314L91.6472 112.819C91.2545 113.09 90.8489 113.34 90.4318 113.567C89.9479 113.834 89.4077 114.161 88.7719 114.458L87.7929 114.933C87.4497 115.099 87.0783 115.236 86.7013 115.396C85.953 115.723 85.1202 115.99 84.2537 116.287C80.4546 117.497 76.4838 117.994 72.5221 117.755C71.6106 117.677 70.7441 117.624 69.9451 117.487C69.54 117.422 69.1517 117.38 68.7804 117.309L67.7169 117.083C67.0417 116.959 66.4397 116.769 65.9108 116.626C65.4559 116.51 65.0071 116.369 64.566 116.204L63.7276 115.895C63.6272 115.867 63.5308 115.825 63.4407 115.771C63.5444 115.777 63.6468 115.799 63.7445 115.836L64.5998 116.086C64.9655 116.204 65.4156 116.341 65.9502 116.46C66.4847 116.579 67.0755 116.763 67.762 116.87L68.8198 117.072C69.1855 117.143 69.5737 117.178 69.9451 117.232C70.7441 117.357 71.6331 117.404 72.5052 117.47C76.4376 117.681 80.3754 117.189 84.1524 116.014C85.0133 115.729 85.8404 115.474 86.5888 115.153C86.9601 114.998 87.3315 114.868 87.6747 114.713L88.6594 114.256C89.2952 113.983 89.8354 113.662 90.3474 113.413C90.8594 113.163 91.2533 112.919 91.5796 112.718L92.3561 112.266C92.4453 112.205 92.5418 112.157 92.6431 112.124Z" fill="#EBEBEB"/>
<path d="M91.0282 132.64C90.776 132.528 90.5316 132.397 90.2967 132.248L88.3161 131.06L81.5641 126.944L81.4797 126.89V126.79C81.7217 125.524 81.9805 124.158 82.2506 122.756C82.6557 120.642 83.0496 118.634 83.3759 116.816C83.5616 115.901 83.7135 115.034 83.8823 114.209C84.035 113.445 84.2769 112.705 84.6025 112.005C85.0742 110.965 85.9091 110.158 86.932 109.754C87.2089 109.653 87.5 109.603 87.7929 109.605C87.8935 109.598 87.9945 109.61 88.0911 109.641C87.7072 109.654 87.3276 109.73 86.9657 109.866C85.9992 110.297 85.2204 111.094 84.7826 112.1C84.4784 112.792 84.2536 113.52 84.113 114.268C83.9611 115.082 83.8036 115.955 83.6348 116.864C83.2859 118.705 82.9033 120.713 82.5094 122.804C82.2393 124.212 81.9749 125.572 81.7329 126.837L81.6654 126.683L88.378 130.894L90.3192 132.141C90.5683 132.287 90.8055 132.453 91.0282 132.64Z" fill="#263238"/>
<path d="M93.7797 121.699C93.8292 122.227 93.8141 122.76 93.7346 123.285C93.6168 124.554 93.4023 125.812 93.0932 127.045C92.7843 128.279 92.3855 129.487 91.9004 130.656C91.7243 131.154 91.4879 131.625 91.197 132.058C91.3347 131.551 91.5058 131.055 91.7091 130.573C92.5631 128.21 93.1743 125.756 93.5321 123.255C93.5833 122.731 93.666 122.211 93.7797 121.699Z" fill="#263238"/>
<path d="M44.9683 216.163L44.867 225.227C44.867 225.227 36.1007 228.167 35.9319 229.842L52.5756 230.674L53.2845 216.555L44.9683 216.163Z" fill="#455A64"/>
<path d="M50.0773 224.722C50.2353 224.782 50.3669 224.901 50.4468 225.056C50.5268 225.212 50.5495 225.393 50.5106 225.566C50.461 225.735 50.3514 225.878 50.2047 225.964C50.058 226.05 49.8854 226.074 49.7229 226.029C49.5561 225.964 49.4175 225.837 49.3335 225.672C49.2495 225.507 49.2259 225.314 49.2671 225.132C49.3378 224.962 49.4681 224.827 49.6307 224.757C49.7932 224.686 49.9755 224.684 50.1392 224.752" fill="#E0E0E0"/>
<path d="M52.5755 230.674V229.249L36.6071 228.981C36.6071 228.981 35.8475 229.284 35.9093 229.843L52.5755 230.674Z" fill="#E0E0E0"/>
<path d="M44.6025 225.126C44.6025 225.209 45.0076 225.269 45.3902 225.566C45.7728 225.863 45.9529 226.231 46.0542 226.201C46.1555 226.172 46.0542 225.673 45.5534 225.322C45.0526 224.972 44.5856 225.043 44.6025 225.126Z" fill="#263238"/>
<path d="M42.8188 225.797C42.8188 225.881 43.1452 226.047 43.3815 226.421C43.6178 226.795 43.7022 227.187 43.7866 227.187C43.871 227.187 43.9386 226.706 43.6066 226.243C43.2746 225.78 42.8245 225.72 42.8188 225.797Z" fill="#263238"/>
<path d="M41.7274 227.954C41.8005 227.954 41.9355 227.556 41.7274 227.074C41.5192 226.593 41.1647 226.391 41.1309 226.48C41.0972 226.57 41.3166 226.813 41.4629 227.211C41.6092 227.609 41.6373 227.942 41.7274 227.954Z" fill="#263238"/>
<path d="M44.8388 223.059C44.8726 223.142 45.2496 223.059 45.7109 223.094C46.1723 223.13 46.5156 223.326 46.5606 223.255C46.6056 223.184 46.2792 222.857 45.7391 222.797C45.1989 222.738 44.805 222.993 44.8388 223.059Z" fill="#263238"/>
<g opacity="0.3">
<path d="M44.9515 217.957L44.929 219.572L53.1158 219.905L53.1889 218.45L44.9515 217.957Z" fill="black"/>
</g>
<path d="M44.8951 221.229C45.1638 221.324 45.452 221.338 45.7279 221.271C46.0309 221.229 46.3278 221.148 46.6113 221.027C46.7807 220.961 46.9444 220.879 47.1008 220.784C47.198 220.736 47.2873 220.672 47.3652 220.594C47.4217 220.535 47.4579 220.458 47.4681 220.375C47.4783 220.292 47.4619 220.208 47.4215 220.136C47.3828 220.075 47.3312 220.024 47.2707 219.986C47.2102 219.949 47.1425 219.927 47.0727 219.923C46.9668 219.917 46.8607 219.927 46.7576 219.952C46.5789 219.989 46.4037 220.042 46.2343 220.113C45.9479 220.234 45.6805 220.4 45.4409 220.606C45.0358 220.968 44.8783 221.283 44.9176 221.301C44.957 221.318 45.154 221.069 45.5591 220.778C45.7974 220.61 46.0544 220.475 46.3243 220.374C46.4821 220.317 46.6439 220.273 46.8082 220.243C46.9883 220.202 47.1402 220.208 47.1796 220.291C47.219 220.374 47.1796 220.338 47.1796 220.392C47.1213 220.447 47.0571 220.495 46.9883 220.534C46.8363 220.623 46.6844 220.707 46.5381 220.778C46.273 220.899 45.9981 220.994 45.7166 221.063C45.4397 221.1 45.1653 221.155 44.8951 221.229Z" fill="#263238"/>
<path d="M45.0133 221.36C45.1806 221.117 45.2694 220.823 45.2665 220.523C45.2978 220.198 45.2749 219.871 45.199 219.555C45.1537 219.366 45.0895 219.183 45.0077 219.008C44.9681 218.89 44.9002 218.784 44.8104 218.702C44.7206 218.62 44.6122 218.564 44.4957 218.539C44.4222 218.536 44.3494 218.556 44.2865 218.596C44.2235 218.636 44.173 218.695 44.1412 218.765C44.0915 218.865 44.0573 218.973 44.0399 219.085C44.0118 219.282 44.0118 219.482 44.0399 219.679C44.0707 220.011 44.179 220.329 44.355 220.606C44.6588 221.081 44.9964 221.2 45.0021 221.17C45.0077 221.141 44.7545 220.951 44.5238 220.499C44.3918 220.241 44.315 219.955 44.2987 219.662C44.2897 219.49 44.3029 219.318 44.3381 219.151C44.3719 218.967 44.445 218.818 44.5126 218.842C44.5801 218.866 44.7264 218.99 44.7883 219.145C44.8645 219.301 44.9267 219.464 44.9739 219.632C45.0548 219.919 45.0964 220.217 45.0977 220.517C45.0527 221.028 44.9514 221.343 45.0133 221.36Z" fill="#263238"/>
<path d="M78.8971 150.52C78.8971 150.52 52.8906 138.996 44.8445 138.515C39.7805 138.206 35.9769 141.627 36.6633 147.14C37.0066 149.902 44.1918 182.186 44.1918 182.186L55.1413 176.911L49.8748 154.583L71.2561 165.548L78.8971 150.52Z" fill="#263238"/>
<path d="M46.6056 148.934C46.5212 149.011 47.3821 150.181 48.2936 151.732C49.2051 153.282 49.8128 154.619 49.9141 154.577C50.0153 154.535 49.5483 153.104 48.6199 151.524C47.6915 149.944 46.7012 148.863 46.6056 148.934Z" fill="#455A64"/>
<path d="M44.4788 150.217C44.4225 150.318 45.7335 151.197 47.2921 152.397C48.8507 153.597 50.0211 154.648 50.1055 154.565C50.1899 154.482 49.0645 153.252 47.5003 152.064C45.9361 150.876 44.5238 150.122 44.4788 150.217Z" fill="#455A64"/>
<path d="M99.1812 157.446C99.1812 157.446 95.9121 161.895 92.7949 163.112C88.8562 164.639 59.9014 179.067 59.9014 179.067C59.9014 179.067 54.6461 220.285 55.0625 218.562L42.937 218.253L44.2537 180.291C44.4112 175.432 48.1023 169.848 52.0691 167.365L78.897 150.52L99.1812 157.446Z" fill="#263238"/>
<path d="M44.0229 187.241C44.0614 187.07 44.0785 186.894 44.0736 186.718C44.0736 186.338 44.1186 185.845 44.1467 185.227C44.2156 183.4 44.3771 181.577 44.6306 179.768C44.9858 177.095 45.8841 174.533 47.2639 172.26C48.1177 170.953 49.1711 169.805 50.3811 168.862C51.6941 167.852 53.0681 166.934 54.4942 166.112C60.329 162.584 65.3649 158.984 69.0897 156.519C70.9465 155.272 72.4657 154.28 73.501 153.603L74.7052 152.818C74.8508 152.734 74.9883 152.634 75.1159 152.521C74.9609 152.581 74.812 152.656 74.6714 152.747C74.3844 152.908 73.9624 153.145 73.4279 153.466C72.3532 154.102 70.8228 155.064 68.9266 156.276C65.1623 158.687 60.0983 162.245 54.2972 165.78C52.8565 166.611 51.4693 167.541 50.1448 168.565C48.9045 169.537 47.8279 170.721 46.9601 172.07C45.5721 174.403 44.6865 177.029 44.3662 179.762C44.1344 181.584 44.0141 183.419 44.0061 185.257C44.0061 185.851 44.0061 186.368 44.0061 186.754C43.9979 186.916 44.0035 187.079 44.0229 187.241Z" fill="#455A64"/>
<path d="M88.4793 161.788C88.2545 161.42 88.0064 161.069 87.7365 160.737C87.1776 159.879 86.7897 158.91 86.5962 157.889C86.4028 156.868 86.4079 155.816 86.6112 154.797C86.7362 154.378 86.834 153.952 86.9038 153.52C86.6306 153.863 86.4379 154.27 86.3411 154.708C86.053 155.762 86.0105 156.875 86.2173 157.951C86.4193 159.027 86.8674 160.034 87.5227 160.885C88.0348 161.568 88.4568 161.824 88.4793 161.788Z" fill="#455A64"/>
<path d="M47.3934 218.254C47.4132 218.186 47.4246 218.116 47.4271 218.046C47.4271 217.88 47.4721 217.678 47.5003 217.422C47.5622 216.828 47.6409 216.044 47.7422 215.046C47.9391 212.932 48.2205 209.92 48.5693 206.213C48.7325 204.348 48.9182 202.305 49.132 200.113C49.3458 197.921 49.5427 195.575 49.6947 193.104C49.8466 190.633 50.0942 188.049 50.5218 185.382C50.9394 182.646 51.6961 179.98 52.7724 177.452C53.8965 174.954 55.3808 172.656 57.1725 170.639C58.8513 168.762 60.6896 167.052 62.6641 165.53C66.0482 163.014 69.5629 160.7 73.1916 158.598C76.2694 156.733 78.7226 155.141 80.3487 153.941C81.1702 153.347 81.7892 152.866 82.2055 152.528L82.6725 152.142C82.7776 152.054 82.8282 152.007 82.8245 151.999C82.7618 152.026 82.7031 152.062 82.65 152.106L82.1605 152.462C81.7329 152.777 81.0971 153.24 80.27 153.817C78.6157 154.969 76.1512 156.519 73.0566 158.355C69.3982 160.426 65.8585 162.723 62.4559 165.233C60.4551 166.759 58.5939 168.479 56.8968 170.371C55.0731 172.416 53.5638 174.749 52.4236 177.286C51.3427 179.845 50.586 182.543 50.1729 185.311C49.7509 187.984 49.5371 190.579 49.3627 193.033C49.1883 195.486 49.0138 197.85 48.8 200.042C48.5862 202.234 48.4512 204.277 48.2992 206.148C48.001 209.861 47.7366 212.872 47.5959 214.993C47.5209 216.014 47.4646 216.806 47.4271 217.369C47.4271 217.624 47.399 217.832 47.3877 217.992C47.3765 218.153 47.3821 218.254 47.3934 218.254Z" fill="#455A64"/>
<path d="M75.96 85.1441C75.5516 84.034 74.7818 83.1138 73.7888 82.5488C72.7957 81.9838 71.6444 81.8109 70.5415 82.0612C70.0562 82.2486 69.5488 82.3646 69.0336 82.4058C68.4091 82.2928 67.7953 82.1219 67.1993 81.8949C66.5239 81.7794 65.832 81.933 65.258 82.326C64.6839 82.7191 64.2688 83.3233 64.0933 84.0214C63.5648 83.8859 63.0147 83.8735 62.4812 83.9854C61.9477 84.0972 61.4437 84.3304 61.0043 84.6689C60.5735 85.0211 60.2675 85.5162 60.1358 86.0745C60.0042 86.6327 60.0544 87.2214 60.2785 87.7458C60.4979 88.1794 60.8411 88.524 61.0606 88.9695C61.3925 89.7001 61.2406 90.5792 61.4713 91.3455C61.6879 91.9027 62.0486 92.3843 62.5123 92.7351C62.976 93.086 63.5239 93.292 64.0933 93.3294C65.239 93.3916 66.3852 93.2202 67.4693 92.8245" fill="#263238"/>
<path d="M70.7215 108.637C70.5808 107.484 70.4908 106.676 70.4908 106.676C70.4908 106.676 66.8616 106.676 65.4268 101.924C64.7009 99.5485 64.2171 95.5806 63.9245 92.3017C63.8605 91.6032 63.9312 90.8983 64.1322 90.2294C64.3333 89.5606 64.6605 88.9416 65.0943 88.4099C65.5281 87.8782 66.0593 87.4447 66.6561 87.1355C67.2528 86.8264 67.9027 86.648 68.5665 86.6112L78.1993 86.0825L78.4075 87.6566L80.9451 107.211C81.0369 107.92 80.995 108.641 80.8218 109.333C80.6487 110.025 80.3477 110.674 79.9361 111.242C79.5246 111.811 79.0107 112.288 78.4239 112.646C77.8371 113.004 77.189 113.236 76.5169 113.329C75.8443 113.424 75.1606 113.378 74.5048 113.194C73.8491 113.009 73.2344 112.69 72.6959 112.254C72.1575 111.818 71.7059 111.274 71.367 110.653C71.0282 110.032 70.8088 109.347 70.7215 108.637Z" fill="#B78876"/>
<path d="M65.2693 95.0995C65.2931 95.262 65.3755 95.4084 65.4993 95.5081C65.623 95.6078 65.7786 95.6529 65.9333 95.6341C66.0099 95.6291 66.0846 95.6075 66.153 95.5708C66.2214 95.5341 66.282 95.4831 66.331 95.4208C66.38 95.3584 66.4164 95.2862 66.438 95.2085C66.4596 95.1308 66.4659 95.0492 66.4566 94.9688C66.4356 94.805 66.3539 94.6567 66.2294 94.5565C66.1049 94.4563 65.9478 94.4123 65.7926 94.4342C65.7161 94.4393 65.6413 94.4608 65.5729 94.4975C65.5045 94.5342 65.4439 94.5853 65.3949 94.6476C65.3459 94.7099 65.3095 94.7822 65.2879 94.8599C65.2663 94.9376 65.26 95.0191 65.2693 95.0995Z" fill="#263238"/>
<path d="M65.0218 94.2203C65.1062 94.2856 65.5 93.8639 66.1471 93.757C66.7942 93.65 67.2724 93.9114 67.3568 93.8164C67.4412 93.7213 67.2893 93.6382 67.0643 93.5194C66.7591 93.3613 66.4144 93.3093 66.0796 93.3709C65.7483 93.4231 65.4422 93.5878 65.2075 93.8401C65.0218 94.0302 64.9768 94.1906 65.0218 94.2203Z" fill="#263238"/>
<path d="M71.301 94.0186C71.3247 94.1806 71.4073 94.3265 71.5313 94.4252C71.6553 94.5239 71.8109 94.5677 71.965 94.5472C72.0415 94.5429 72.1164 94.5221 72.185 94.4861C72.2536 94.4501 72.3146 94.3997 72.3641 94.338C72.4136 94.2762 72.4507 94.2045 72.473 94.1271C72.4953 94.0497 72.5024 93.9683 72.4939 93.8879C72.4702 93.7254 72.3878 93.579 72.264 93.4793C72.1402 93.3797 71.9846 93.3345 71.8299 93.3533C71.7529 93.3576 71.6775 93.3786 71.6084 93.4149C71.5394 93.4513 71.4782 93.5022 71.4286 93.5646C71.3789 93.627 71.342 93.6995 71.3201 93.7776C71.2982 93.8557 71.2917 93.9377 71.301 94.0186Z" fill="#263238"/>
<path d="M71.2899 93.2937C71.3743 93.365 71.7681 92.9373 72.4152 92.8364C73.0623 92.7354 73.5405 92.9849 73.6249 92.8898C73.7093 92.7948 73.5574 92.7176 73.3323 92.5928C73.0257 92.44 72.6826 92.3883 72.3477 92.4443C72.0176 92.5006 71.7126 92.6647 71.4755 92.9136C71.2899 93.1037 71.2505 93.2581 71.2899 93.2937Z" fill="#263238"/>
<path d="M69.7312 98.6637C69.3783 98.6134 69.0206 98.6134 68.6678 98.6637C68.5046 98.6637 68.347 98.6637 68.302 98.5508C68.2503 98.3788 68.2503 98.1941 68.302 98.0222C68.392 97.5826 68.4877 97.1193 68.589 96.6381C68.8637 95.4573 69.0518 94.2558 69.1516 93.0444C68.783 94.2071 68.5027 95.3988 68.3133 96.6084C68.2232 97.0955 68.1332 97.5588 68.0544 98.0043C67.9758 98.2245 67.9758 98.4673 68.0544 98.6874C68.0873 98.7437 68.1316 98.7916 68.1842 98.8275C68.2367 98.8635 68.2962 98.8867 68.3583 98.8953C68.4517 98.9078 68.5462 98.9078 68.6396 98.8953C69.0113 98.8672 69.3781 98.7893 69.7312 98.6637Z" fill="#263238"/>
<path d="M70.4908 106.677C72.6654 106.347 74.7107 105.387 76.3988 103.903C76.3988 103.903 75.3973 107.514 70.7215 107.817L70.4908 106.677Z" fill="#AA6550"/>
<path d="M71.6724 98.8121C71.5655 98.8121 71.6724 99.5487 71.166 100.166C70.6596 100.784 69.9057 100.826 69.9113 100.927C69.9169 101.028 70.097 101.046 70.4121 100.998C70.8176 100.94 71.1895 100.729 71.4586 100.404C71.7222 100.096 71.8597 99.6902 71.8412 99.2754C71.8244 98.9666 71.7174 98.8002 71.6724 98.8121Z" fill="#263238"/>
<path d="M70.7272 90.6921C70.8172 90.8644 71.4418 90.6921 72.2014 90.6386C72.961 90.5852 73.5968 90.7218 73.6699 90.5436C73.7431 90.3654 73.5743 90.306 73.3042 90.1694C72.946 90.0044 72.5567 89.9288 72.1664 89.9483C71.776 89.9679 71.3952 90.0822 71.0535 90.2823C70.8059 90.4426 70.6878 90.6089 70.7272 90.6921Z" fill="#263238"/>
<path d="M64.9599 92.2362C65.0949 92.3669 65.5226 92.1353 66.0346 92.0402C66.5466 91.9452 67.0249 91.9808 67.1036 91.8026C67.1374 91.7195 67.0418 91.5769 66.8279 91.47C66.5401 91.3348 66.2196 91.2975 65.9108 91.3631C65.6027 91.4204 65.3193 91.5783 65.1006 91.8145C64.9374 92.0046 64.898 92.1709 64.9599 92.2362Z" fill="#263238"/>
<path d="M63.4181 90.1575C63.4181 90.1575 65.967 91.0664 68.8929 88.9992C70.8116 87.6449 73.141 86.7955 73.7206 87.1638C74.3001 87.5321 74.6771 89.7417 76.7871 90.1338C76.7871 90.1338 77.1585 94.4106 78.7508 94.0423C79.8761 93.7809 79.2234 89.0646 78.7508 86.3738C78.6521 85.8535 78.3912 85.3832 78.0098 85.0376C77.6285 84.692 77.1485 84.4912 76.6464 84.467L73.6812 84.3423L69.9788 85.4352L66.0064 86.5757L62.9792 87.9122L63.4181 90.1575Z" fill="#263238"/>
<path d="M78.3964 92.302C78.4526 92.2604 80.9115 90.8942 81.3672 93.7275C81.823 96.5609 79.0378 96.454 79.0153 96.3768C78.9928 96.2996 78.3964 92.302 78.3964 92.302Z" fill="#B78876"/>
<path d="M79.6624 95.1532C79.6624 95.1532 79.7186 95.1829 79.803 95.2066C79.9215 95.2364 80.0463 95.2172 80.1519 95.1532C80.3049 95.0056 80.4187 94.8183 80.4819 94.6098C80.545 94.4014 80.5554 94.1792 80.512 93.9652C80.4795 93.7216 80.3969 93.4884 80.27 93.2821C80.2292 93.1986 80.1701 93.1265 80.0977 93.0718C80.0254 93.017 79.9417 92.9812 79.8537 92.9673C79.7978 92.9622 79.742 92.9778 79.6958 93.0114C79.6496 93.045 79.6159 93.0945 79.6005 93.1514C79.6005 93.2346 79.6005 93.288 79.6005 93.2999C79.6005 93.3118 79.5386 93.2583 79.5386 93.1395C79.5434 93.0667 79.5711 92.9977 79.6173 92.9435C79.6823 92.8718 79.771 92.8292 79.8649 92.8247C79.9794 92.827 80.0913 92.8604 80.1899 92.9218C80.2885 92.9832 80.3704 93.0705 80.4276 93.1752C80.5815 93.3995 80.6801 93.6608 80.7145 93.9355C80.7704 94.1856 80.7541 94.4475 80.6679 94.6878C80.5817 94.928 80.4294 95.1356 80.2307 95.2839C80.1621 95.3182 80.0871 95.336 80.0112 95.336C79.9353 95.336 79.8604 95.3182 79.7918 95.2839C79.6792 95.2245 79.6567 95.1651 79.6624 95.1532Z" fill="#AA6550"/>
<path d="M64.7067 82.9761C64.7067 82.9761 64.7967 83.1305 64.988 83.3562C65.262 83.6764 65.6115 83.9141 66.0008 84.0453C66.5793 84.2426 67.1974 84.2713 67.7901 84.1284C68.527 83.9394 69.2508 83.6972 69.9563 83.4038C70.6868 83.1001 71.4671 82.9527 72.252 82.9701C72.9158 82.9955 73.5439 83.2939 74.0019 83.8017C74.3139 84.1332 74.5035 84.5713 74.5365 85.0373C74.5599 85.2063 74.5323 85.3787 74.4577 85.5303C74.4295 85.5303 74.4577 85.3521 74.4239 85.0491C74.3537 84.6283 74.1563 84.2428 73.8613 83.9502C73.4277 83.5116 72.8525 83.2632 72.252 83.2553C71.5028 83.2559 70.7604 83.405 70.0632 83.6948C69.3459 83.9961 68.6063 84.2345 67.852 84.4076C67.2151 84.5467 66.5539 84.4932 65.9445 84.2532C65.5309 84.0928 65.1709 83.8078 64.9092 83.4335C64.7067 83.1602 64.7067 82.982 64.7067 82.9761Z" fill="#455A64"/>
<path d="M73.7711 85.6906C73.7711 85.6906 73.6361 85.5421 73.3548 85.3342C72.9535 85.075 72.4917 84.9392 72.0213 84.9422C71.3079 84.9394 70.6048 85.1208 69.9731 85.4708C69.1838 85.9209 68.3681 86.3177 67.5312 86.6588C66.7371 86.919 65.9008 87.0042 65.0743 86.9092C64.2477 86.8142 63.4484 86.5409 62.726 86.1064C62.289 85.8468 61.8892 85.5228 61.5388 85.1441C61.4023 85.0154 61.2881 84.8627 61.2012 84.6927C61.6993 85.1575 62.2425 85.5657 62.8217 85.9104C64.2445 86.6987 65.9043 86.863 67.4411 86.3678C68.2662 86.0154 69.0738 85.6189 69.8606 85.1798C70.5322 84.821 71.2808 84.6531 72.0325 84.6927C72.5434 84.7134 73.0353 84.9024 73.4392 85.2332C73.5868 85.3514 73.7015 85.5094 73.7711 85.6906Z" fill="#455A64"/>
<path d="M65.4381 133.959L52.373 122.204L48.063 123.231C48.063 123.231 52.6037 133.199 55.8897 136.852C55.8897 136.852 59.1363 141.437 64.4929 139.453C69.8494 137.469 65.4381 133.959 65.4381 133.959Z" fill="#B78876"/>
<path d="M51.3827 109.254H45.8291C45.6196 109.266 45.4152 109.328 45.2308 109.433C45.0465 109.539 44.8868 109.687 44.7634 109.866C44.64 110.046 44.5559 110.252 44.5174 110.469C44.4789 110.687 44.4868 110.911 44.5406 111.125L50.1279 122.608C50.2339 122.826 50.3951 123.01 50.5937 123.138C50.7923 123.265 51.0206 123.333 51.2532 123.332H58.0052C58.164 123.314 58.3159 123.254 58.4474 123.158C58.5789 123.062 58.6859 122.934 58.7588 122.784C58.8318 122.634 58.8685 122.467 58.8656 122.298C58.8628 122.13 58.8204 121.965 58.7423 121.817L53.3576 110.573C53.1743 110.183 52.8932 109.854 52.545 109.622C52.1967 109.389 51.7947 109.262 51.3827 109.254Z" fill="#455A64"/>
<path d="M51.0113 109.95H45.4578C45.2984 109.949 45.1414 109.991 45.002 110.073C44.8626 110.154 44.7454 110.272 44.6617 110.415C44.5781 110.559 44.5307 110.722 44.5243 110.89C44.5179 111.058 44.5526 111.225 44.625 111.375L50.0773 122.608C50.1842 122.826 50.3456 123.008 50.544 123.136C50.7424 123.264 50.9702 123.332 51.2026 123.333H57.8983C57.9903 123.328 58.0798 123.301 58.1592 123.252C58.2386 123.203 58.3054 123.134 58.3537 123.051C58.402 122.968 58.4304 122.874 58.4364 122.777C58.4423 122.681 58.4256 122.584 58.3878 122.495L52.9975 111.257C52.8154 110.864 52.5327 110.534 52.1816 110.303C51.8305 110.072 51.425 109.95 51.0113 109.95Z" fill="#263238"/>
<path d="M50.5387 114.642L47.1627 116.068L46.4425 118.943L48.0686 123.219L54.016 124.146L52.2717 122.263L52.4912 120.618C52.4912 120.618 54.1792 120.065 54.1792 119.798C54.1792 119.531 53.971 118.61 53.7178 118.58C53.0517 118.741 52.3988 118.957 51.7653 119.228C51.7653 119.228 53.8303 117.499 53.7741 117.22C53.7178 116.941 53.4927 116.234 53.082 116.151C52.6712 116.068 49.329 117.737 49.329 117.737L48.7663 119.038L48.2937 116.953C48.2937 116.953 51.2702 116.074 50.5387 114.642Z" fill="#B78876"/>
<path d="M50.9663 121.39C50.9663 121.39 50.8819 121.271 50.8481 121.034C50.8126 120.731 50.845 120.424 50.9427 120.137C51.0405 119.85 51.2008 119.592 51.4108 119.382C51.5796 119.228 51.709 119.174 51.7202 119.192C51.4634 119.492 51.2527 119.833 51.0957 120.202C50.9955 120.589 50.9519 120.989 50.9663 121.39Z" fill="#AA6550"/>
<path d="M49.3571 120.766C49.423 120.459 49.4681 120.147 49.4921 119.834C49.5058 119.483 49.5625 119.135 49.6609 118.8C49.7252 118.585 49.8374 118.389 49.9881 118.228C50.1389 118.068 50.3238 117.949 50.5274 117.879C51.332 117.57 52.0635 117.321 52.5924 117.137C52.8752 117.024 53.1671 116.938 53.4645 116.881C53.2026 117.039 52.9253 117.167 52.6374 117.262C52.1141 117.475 51.3827 117.749 50.5893 118.052C50.404 118.119 50.235 118.228 50.0941 118.372C49.9692 118.512 49.8734 118.678 49.8128 118.859C49.7098 119.181 49.6437 119.514 49.6159 119.851C49.605 120.175 49.5159 120.49 49.3571 120.766Z" fill="#AA6550"/>
<path d="M48.5806 120.125C48.5273 119.892 48.5273 119.65 48.5806 119.418C48.6425 119.038 48.7269 118.741 48.7775 118.747C48.8303 118.979 48.8303 119.221 48.7775 119.454C48.7156 119.834 48.6312 120.131 48.5806 120.125Z" fill="#AA6550"/>
<path d="M48.4906 112.118C48.4906 112.266 48.5322 112.41 48.6101 112.533C48.688 112.656 48.7987 112.752 48.9283 112.809C49.0578 112.866 49.2004 112.881 49.3379 112.852C49.4754 112.823 49.6017 112.752 49.7009 112.647C49.8 112.542 49.8676 112.409 49.8949 112.264C49.9223 112.118 49.9082 111.968 49.8546 111.831C49.8009 111.694 49.7101 111.578 49.5935 111.495C49.4769 111.413 49.3398 111.369 49.1996 111.369C49.1063 111.368 49.0137 111.387 48.9274 111.425C48.841 111.462 48.7626 111.517 48.6966 111.587C48.6306 111.656 48.5784 111.739 48.5431 111.83C48.5077 111.921 48.4899 112.019 48.4906 112.118Z" fill="#FAFAFA"/>
<path d="M29.0336 225.34C29.9149 225.628 30.732 226.102 31.4359 226.731C32.1398 227.361 32.7159 228.134 33.1299 229.005C33.9501 230.754 34.3794 232.678 34.3846 234.63C34.4971 238.384 33.0229 242.423 31.2843 245.708C27.9589 243.451 26.6311 238.788 26.0909 236.412C25.2469 232.622 25.894 225.233 29.0336 225.334" fill="#92E3A9"/>
<path d="M35.5549 251.292C35.2083 250.266 35.1246 249.161 35.3123 248.09C35.5001 247.019 35.9526 246.019 36.624 245.191C37.3092 244.377 38.1414 243.716 39.0718 243.246C40.0022 242.776 41.0122 242.506 42.0425 242.453C42.9878 242.382 44.0456 242.513 44.6926 243.249C44.977 243.612 45.1645 244.048 45.2357 244.513C45.3069 244.977 45.2593 245.454 45.0978 245.892C44.7614 246.766 44.2121 247.531 43.5054 248.108C41.1816 250.199 38.5708 251.767 35.5549 251.292Z" fill="#92E3A9"/>
<path d="M33.338 263.213C33.3125 262.957 33.3125 262.698 33.338 262.441C33.338 261.889 33.383 261.182 33.4112 260.332C33.4332 257.993 33.8132 255.672 34.5365 253.46C35.2929 251.244 36.594 249.28 38.3064 247.769C38.826 247.326 39.3924 246.947 39.9944 246.641C40.2082 246.528 40.3882 246.474 40.5008 246.421C40.6133 246.367 40.6808 246.356 40.6864 246.367C39.2982 247.092 38.0602 248.101 37.0441 249.335C36.028 250.568 35.254 252.003 34.7672 253.555C34.0631 255.745 33.6706 258.033 33.6025 260.344C33.5462 261.229 33.4956 261.948 33.4505 262.447C33.4331 262.705 33.3955 262.962 33.338 263.213Z" fill="#263238"/>
<path d="M29.0111 231.013C29.0448 231.119 29.0712 231.229 29.0899 231.339C29.1387 231.585 29.2006 231.9 29.2756 232.284C29.4331 233.104 29.647 234.298 29.8945 235.771C30.3953 238.741 31.0199 242.81 31.6332 247.336C32.2465 251.862 32.7022 255.973 32.9948 258.954C33.1411 260.445 33.248 261.651 33.3155 262.489C33.3418 262.885 33.3643 263.206 33.3831 263.451C33.3992 263.561 33.3992 263.673 33.3831 263.784C33.355 263.675 33.3362 263.563 33.3268 263.451C33.2987 263.207 33.2593 262.893 33.2086 262.495C33.1074 261.633 32.9723 260.439 32.8035 258.978C32.4659 256.008 31.9764 251.898 31.3743 247.371C30.7723 242.845 30.1646 238.788 29.7145 235.818C29.4894 234.363 29.3094 233.175 29.1518 232.314C29.0955 231.922 29.0505 231.607 29.0111 231.363C28.9964 231.247 28.9964 231.129 29.0111 231.013Z" fill="#263238"/>
<path d="M30.761 254.327C30.0991 252.143 28.9541 250.158 27.4209 248.534C25.8877 246.91 24.0103 245.695 21.944 244.989C20.8862 244.639 19.5583 244.514 18.8494 245.411C18.1404 246.308 18.523 247.674 19.0688 248.69C20.2428 250.788 21.9794 252.472 24.0594 253.53C26.1393 254.587 28.4694 254.97 30.7554 254.63" fill="#92E3A9"/>
<path d="M22.8837 248.423C23.11 248.465 23.3323 248.528 23.5476 248.613C23.8063 248.693 24.06 248.79 24.3072 248.904C24.5998 249.041 24.9431 249.159 25.2919 249.361C25.6775 249.561 26.0531 249.781 26.4172 250.021C26.8458 250.293 27.2608 250.588 27.6607 250.906C29.5021 252.366 30.9777 254.278 31.9595 256.477C32.1728 256.955 32.3607 257.445 32.5222 257.945C32.6701 258.376 32.7923 258.816 32.8879 259.263C32.9753 259.631 33.0429 260.004 33.0905 260.38C33.1394 260.661 33.1713 260.944 33.1861 261.229C33.2094 261.47 33.2132 261.713 33.1974 261.954C33.1355 261.954 33.0961 260.915 32.6966 259.305C32.5901 258.869 32.4624 258.438 32.314 258.016C32.1525 257.526 31.9647 257.046 31.7513 256.578C31.2523 255.523 30.6468 254.527 29.9452 253.608C29.2236 252.693 28.4126 251.861 27.5257 251.126C27.1371 250.809 26.7333 250.513 26.316 250.24C25.9529 249.991 25.5772 249.763 25.1906 249.557C23.8121 248.767 22.8612 248.476 22.8837 248.423Z" fill="#263238"/>
</g>
<defs>
<clipPath id="clip0_239_756">
<rect width="422" height="297" fill="white"/>
</clipPath>
</defs>
</svg>
