<svg width="250" height="25" viewBox="0 0 243 25" fill="none" xmlns="http://www.w3.org/2000/svg">
<path d="M21.625 0H2.595C1.90676 0 1.24671 0.273401 0.760058 0.760058C0.273401 1.24671 0 1.90676 0 2.595L0 21.625C0 22.3132 0.273401 22.9733 0.760058 23.4599C1.24671 23.9466 1.90676 24.22 2.595 24.22H10.0151V15.9857H6.60914V12.11H10.0151V9.15602C10.0151 5.79604 12.0154 3.94007 15.0791 3.94007C16.5464 3.94007 18.0807 4.20174 18.0807 4.20174V7.49955H16.3901C14.7245 7.49955 14.2049 8.53322 14.2049 9.59339V12.11H17.9233L17.3287 15.9857H14.2049V24.22H21.625C22.3132 24.22 22.9733 23.9466 23.4599 23.4599C23.9466 22.9733 24.22 22.3132 24.22 21.625V2.595C24.22 1.90676 23.9466 1.24671 23.4599 0.760058C22.9733 0.273401 22.3132 0 21.625 0Z" fill="black"/>
<path d="M95.49 0H74.7246C73.7731 0 73 0.783906 73 1.74622V22.4738C73 23.4361 73.7731 24.22 74.7246 24.22H95.49C96.4415 24.22 97.22 23.4361 97.22 22.4738V1.74622C97.22 0.783906 96.4415 0 95.49 0ZM80.3201 20.76H76.7303V9.20144H80.3255V20.76H80.3201ZM78.5252 7.62281C77.3737 7.62281 76.4438 6.68753 76.4438 5.54141C76.4438 4.39528 77.3737 3.46 78.5252 3.46C79.6713 3.46 80.6066 4.39528 80.6066 5.54141C80.6066 6.69294 79.6767 7.62281 78.5252 7.62281ZM93.7762 20.76H90.1865V15.1375C90.1865 13.7967 90.1594 12.0722 88.3213 12.0722C86.4507 12.0722 86.1642 13.5318 86.1642 15.0402V20.76H82.5745V9.20144H86.0182V10.7801H86.0669C86.5481 9.87181 87.7212 8.91491 89.4674 8.91491C93.1004 8.91491 93.7762 11.3099 93.7762 14.4239V20.76Z" fill="black"/>
<path d="M167.625 0H148.595C147.162 0 146 1.16234 146 2.595V21.625C146 23.0577 147.162 24.22 148.595 24.22H167.625C169.058 24.22 170.22 23.0577 170.22 21.625V2.595C170.22 1.16234 169.058 0 167.625 0ZM164.981 8.58512C164.992 8.7365 164.992 8.89328 164.992 9.04466C164.992 13.7319 161.424 19.1327 154.904 19.1327C152.893 19.1327 151.028 18.5488 149.46 17.5433C149.747 17.5757 150.022 17.5865 150.314 17.5865C151.974 17.5865 153.498 17.0243 154.715 16.0728C153.158 16.0403 151.85 15.0186 151.401 13.6129C151.947 13.694 152.439 13.694 153.001 13.5481C151.379 13.2183 150.163 11.791 150.163 10.0664V10.0232C150.633 10.2881 151.185 10.4503 151.763 10.4719C151.277 10.1484 150.878 9.70955 150.603 9.19449C150.327 8.67943 150.183 8.10419 150.184 7.52009C150.184 6.86053 150.357 6.25503 150.666 5.73062C152.412 7.88231 155.034 9.28794 157.975 9.43931C157.472 7.03353 159.272 5.08187 161.435 5.08187C162.457 5.08187 163.376 5.50897 164.024 6.20097C164.825 6.04959 165.592 5.75225 166.273 5.34678C166.009 6.16853 165.452 6.86053 164.716 7.29844C165.43 7.22275 166.122 7.02272 166.76 6.747C166.279 7.45522 165.673 8.08234 164.981 8.58512Z" fill="black"/>
<path d="M230.113 5.9003C226.676 5.9003 223.904 8.67278 223.904 12.11C223.904 15.5472 226.676 18.3197 230.113 18.3197C233.549 18.3197 236.321 15.5472 236.321 12.11C236.321 8.67278 233.549 5.9003 230.113 5.9003ZM230.113 16.1471C227.892 16.1471 226.076 14.3366 226.076 12.11C226.076 9.88337 227.887 8.07288 230.113 8.07288C232.339 8.07288 234.149 9.88337 234.149 12.11C234.149 14.3366 232.333 16.1471 230.113 16.1471ZM238.023 5.64629C238.023 6.45155 237.375 7.09468 236.575 7.09468C235.77 7.09468 235.127 6.44615 235.127 5.64629C235.127 4.84643 235.775 4.1979 236.575 4.1979C237.375 4.1979 238.023 4.84643 238.023 5.64629ZM242.135 7.1163C242.043 5.1761 241.6 3.45749 240.179 2.04153C238.763 0.625564 237.045 0.1824 235.105 0.0851199C233.106 -0.0283733 227.114 -0.0283733 225.115 0.0851199C223.18 0.176995 221.462 0.620159 220.041 2.03612C218.62 3.45209 218.182 5.1707 218.085 7.11089C217.972 9.11053 217.972 15.1041 218.085 17.1037C218.177 19.0439 218.62 20.7625 220.041 22.1785C221.462 23.5944 223.175 24.0376 225.115 24.1349C227.114 24.2484 233.106 24.2484 235.105 24.1349C237.045 24.043 238.763 23.5998 240.179 22.1785C241.595 20.7625 242.038 19.0439 242.135 17.1037C242.248 15.1041 242.248 9.11594 242.135 7.1163ZM239.552 19.2493C239.131 20.3085 238.315 21.1246 237.25 21.5516C235.656 22.1839 231.874 22.038 230.113 22.038C228.351 22.038 224.564 22.1785 222.975 21.5516C221.916 21.13 221.1 20.3139 220.673 19.2493C220.041 17.655 220.187 13.8718 220.187 12.11C220.187 10.3482 220.046 6.55964 220.673 4.97073C221.095 3.91146 221.911 3.09539 222.975 2.66844C224.569 2.03612 228.351 2.18204 230.113 2.18204C231.874 2.18204 235.662 2.04153 237.25 2.66844C238.309 3.08999 239.125 3.90606 239.552 4.97073C240.184 6.56504 240.038 10.3482 240.038 12.11C240.038 13.8718 240.184 17.6604 239.552 19.2493Z" fill="black"/>
</svg>
