<svg viewBox="0 0 441 428" fill="none" xmlns="http://www.w3.org/2000/svg">
<path d="M441 327.334H0V327.548H441V327.334Z" fill="#EBEBEB"/>
<path d="M361.329 341.219H346.723V341.433H361.329V341.219Z" fill="#EBEBEB"/>
<path d="M323.694 338.111H290.346V338.325H323.694V338.111Z" fill="#EBEBEB"/>
<path d="M294.659 333.164H233.73V333.378H294.659V333.164Z" fill="#EBEBEB"/>
<path d="M57.4624 334.602H46.2698V334.816H57.4624V334.602Z" fill="#EBEBEB"/>
<path d="M97.805 334.602H65.3209V334.816H97.805V334.602Z" fill="#EBEBEB"/>
<path d="M186.861 338.214H134.355V338.428H186.861V338.214Z" fill="#EBEBEB"/>
<path d="M209.034 289.157H38.7286C37.3944 289.154 36.1157 288.638 35.1731 287.722C34.2306 286.806 33.7012 285.564 33.7012 284.269V51.9248C33.7128 50.6374 34.2473 49.4064 35.1886 48.4993C36.1299 47.5921 37.402 47.082 38.7286 47.0798H209.034C210.37 47.0798 211.651 47.5948 212.595 48.5114C213.54 49.4281 214.07 50.6713 214.07 51.9676V284.269C214.07 285.565 213.54 286.808 212.595 287.725C211.651 288.642 210.37 289.157 209.034 289.157ZM38.7286 47.251C37.4529 47.2533 36.2303 47.7467 35.329 48.623C34.4278 49.4992 33.9217 50.6867 33.9217 51.9248V284.269C33.9217 285.507 34.4278 286.694 35.329 287.571C36.2303 288.447 37.4529 288.94 38.7286 288.943H209.034C210.31 288.94 211.534 288.447 212.437 287.571C213.339 286.695 213.847 285.508 213.85 284.269V51.9248C213.847 50.6859 213.339 49.4985 212.437 48.6224C211.534 47.7464 210.31 47.2533 209.034 47.251H38.7286Z" fill="#EBEBEB"/>
<path d="M399.819 289.157H229.505C228.17 289.154 226.891 288.639 225.947 287.723C225.003 286.806 224.471 285.564 224.469 284.269V51.9248C224.483 50.6366 225.019 49.4057 225.962 48.4987C226.905 47.5918 228.178 47.082 229.505 47.0798H399.819C401.144 47.0843 402.414 47.5954 403.354 48.5023C404.293 49.4092 404.826 50.6389 404.838 51.9248V284.269C404.838 285.562 404.31 286.803 403.369 287.719C402.428 288.635 401.152 289.152 399.819 289.157ZM229.505 47.251C228.229 47.2533 227.005 47.7464 226.103 48.6224C225.2 49.4985 224.692 50.6859 224.689 51.9248V284.269C224.692 285.508 225.2 286.695 226.103 287.571C227.005 288.447 228.229 288.94 229.505 288.943H399.819C401.096 288.94 402.319 288.447 403.222 287.571C404.125 286.695 404.633 285.508 404.635 284.269V51.9248C404.633 50.6859 404.125 49.4985 403.222 48.6224C402.319 47.7464 401.096 47.2533 399.819 47.251H229.505Z" fill="#EBEBEB"/>
<path d="M122.748 294.361H22.491C22.491 292.937 22.7801 291.527 23.3418 290.212C23.9035 288.897 24.7268 287.702 25.7646 286.695C26.8024 285.689 28.0344 284.891 29.3901 284.347C30.7459 283.803 32.1988 283.523 33.6659 283.524H122.748V294.361Z" fill="#E6E6E6"/>
<path d="M130.095 294.361H86.286C86.286 292.937 86.5751 291.527 87.1368 290.212C87.6985 288.897 88.5218 287.702 89.5596 286.695C90.5974 285.689 91.8294 284.891 93.1851 284.347C94.5409 283.803 95.9939 283.523 97.4609 283.524H130.095V294.361Z" fill="#E0E0E0"/>
<path d="M192.796 294.361H92.5394C92.5394 292.937 92.8285 291.527 93.3902 290.212C93.9519 288.897 94.7752 287.702 95.813 286.695C96.8508 285.689 98.0828 284.891 99.4386 284.347C100.794 283.803 102.247 283.523 103.714 283.524H192.796V294.361Z" fill="#E6E6E6"/>
<path d="M200.143 294.361H156.334C156.334 292.937 156.624 291.527 157.185 290.212C157.747 288.897 158.57 287.702 159.608 286.695C160.646 285.689 161.878 284.891 163.234 284.347C164.589 283.803 166.042 283.523 167.509 283.524H200.143V294.361Z" fill="#E0E0E0"/>
<path d="M335.16 294.361H234.868C234.868 292.934 235.158 291.522 235.722 290.204C236.286 288.887 237.112 287.69 238.154 286.683C239.195 285.676 240.432 284.879 241.791 284.337C243.151 283.795 244.608 283.519 246.078 283.524H335.16V294.361Z" fill="#E6E6E6"/>
<path d="M342.472 294.361H298.663C298.663 292.937 298.952 291.527 299.514 290.212C300.075 288.897 300.899 287.702 301.936 286.695C302.974 285.689 304.206 284.891 305.562 284.347C306.918 283.803 308.371 283.523 309.838 283.524H342.472V294.361Z" fill="#E0E0E0"/>
<path d="M377.866 260.506H333.467L339.72 327.334H371.613L377.866 260.506Z" fill="#EBEBEB"/>
<path d="M355.226 271.651C354.414 244.003 361.073 186.762 372.989 163.479L373.774 163.855C362.308 186.214 355.252 243.746 356.134 271.626L355.226 271.651Z" fill="#EBEBEB"/>
<path d="M359.635 217.219C359.635 217.219 356.716 190.451 345.938 182.242C340.161 199.14 351.997 204.961 359.635 217.219Z" fill="#EBEBEB"/>
<path d="M359.636 217.646C359.56 217.646 359.485 217.627 359.419 217.591C359.352 217.555 359.296 217.504 359.256 217.441C357.308 214.443 355.151 211.577 352.8 208.864C346.564 201.323 341.175 194.8 345.515 182.114C345.537 182.049 345.575 181.99 345.626 181.943C345.677 181.895 345.738 181.86 345.806 181.84C345.873 181.819 345.944 181.815 346.013 181.827C346.082 181.838 346.147 181.867 346.203 181.908C357.007 190.143 359.944 216.08 360.059 217.184C360.072 217.28 360.05 217.377 359.997 217.458C359.943 217.539 359.862 217.6 359.768 217.629L359.636 217.646ZM346.159 182.97C342.339 194.825 347.517 201.091 353.497 208.325C355.323 210.533 357.201 212.801 358.939 215.361C358.092 209.232 354.652 190.032 346.159 182.97Z" fill="#EBEBEB"/>
<path d="M361.232 207.075C361.232 207.075 372.698 182.328 385.61 177.971C385.434 195.75 372.548 197.882 361.232 207.075Z" fill="#EBEBEB"/>
<path d="M361.232 207.503C361.158 207.504 361.086 207.487 361.021 207.453C360.956 207.419 360.902 207.37 360.862 207.31C360.822 207.25 360.799 207.182 360.794 207.11C360.789 207.039 360.803 206.968 360.835 206.904C361.302 205.885 372.495 181.934 385.46 177.543C385.527 177.519 385.599 177.511 385.67 177.52C385.74 177.529 385.808 177.555 385.866 177.594C385.923 177.635 385.969 177.688 386.001 177.749C386.033 177.81 386.05 177.877 386.051 177.945C385.928 191.462 378.625 196.084 370.175 201.425C367.176 203.253 364.292 205.254 361.541 207.417C361.45 207.478 361.342 207.508 361.232 207.503ZM385.161 178.57C374.735 182.628 365.263 200.039 362.467 205.568C364.874 203.754 367.309 202.213 369.681 200.715C377.796 195.579 384.817 191.145 385.161 178.57Z" fill="#EBEBEB"/>
<path d="M355.922 254.891C355.922 254.891 351.512 217.655 338.124 207.811C331.42 228.638 346.3 240.048 355.922 254.891Z" fill="#EBEBEB"/>
<path d="M355.922 255.413C355.831 255.415 355.741 255.394 355.66 255.352C355.58 255.31 355.512 255.248 355.464 255.173C353.409 251.998 351.054 248.942 348.822 245.989C340.302 234.809 332.258 224.263 337.603 207.665C337.629 207.585 337.675 207.512 337.736 207.452C337.798 207.393 337.873 207.348 337.956 207.323C338.039 207.299 338.128 207.294 338.213 207.309C338.299 207.324 338.38 207.358 338.45 207.409C351.856 217.261 356.275 253.299 356.46 254.831C356.473 254.95 356.445 255.069 356.379 255.17C356.313 255.271 356.215 255.348 356.099 255.387C356.041 255.404 355.982 255.413 355.922 255.413ZM338.406 208.718C333.696 224.383 341.466 234.578 349.687 245.364C351.451 247.726 353.338 250.149 355.067 252.657C353.867 244.568 349.113 217.424 338.406 208.718Z" fill="#EBEBEB"/>
<path d="M357.466 234.818C357.466 234.818 372.38 208.282 388.124 202.649C388.327 224.452 371.11 223.322 357.466 234.818Z" fill="#EBEBEB"/>
<path d="M357.466 235.34C357.34 235.342 357.218 235.299 357.122 235.22C357.023 235.143 356.956 235.035 356.932 234.914C356.908 234.794 356.928 234.669 356.99 234.561C357.598 233.474 372.186 207.803 387.939 202.162C388.021 202.133 388.108 202.124 388.194 202.134C388.28 202.145 388.362 202.176 388.434 202.223C388.505 202.271 388.564 202.335 388.605 202.409C388.647 202.483 388.669 202.565 388.671 202.649C388.812 217.963 380.512 222.209 370.908 227.122C366.542 229.357 362.035 231.659 357.819 235.212C357.72 235.294 357.595 235.339 357.466 235.34ZM387.586 203.42C375.282 208.35 363.446 226.078 359.362 232.618C362.842 230.187 366.524 228.039 370.369 226.198C379.533 221.524 387.436 217.475 387.586 203.42Z" fill="#EBEBEB"/>
<path d="M364.487 190.143C364.487 190.143 362.458 171.474 354.934 165.747C350.904 177.534 359.159 181.6 364.487 190.143Z" fill="#EBEBEB"/>
<path d="M364.487 190.443C364.435 190.442 364.384 190.428 364.339 190.403C364.294 190.377 364.257 190.341 364.231 190.297C362.869 188.206 361.366 186.204 359.733 184.305C355.375 179.041 351.618 174.495 354.643 165.644C354.66 165.599 354.686 165.557 354.721 165.523C354.757 165.489 354.799 165.463 354.846 165.448C354.894 165.435 354.945 165.433 354.994 165.441C355.042 165.45 355.089 165.47 355.129 165.499C362.661 171.243 364.716 189.338 364.831 190.109C364.838 190.175 364.822 190.242 364.785 190.298C364.748 190.354 364.693 190.396 364.628 190.417C364.585 190.441 364.535 190.45 364.487 190.443ZM355.093 166.252C352.447 174.53 356.037 178.895 360.209 183.937C361.488 185.478 362.793 187.07 364.01 188.851C363.384 184.579 361.011 171.2 355.093 166.252Z" fill="#EBEBEB"/>
<path d="M367.988 177.569C367.988 177.569 375.926 160.312 384.993 157.247C384.878 169.668 375.882 171.2 367.988 177.569Z" fill="#EBEBEB"/>
<path d="M367.988 177.868C367.921 177.87 367.856 177.848 367.803 177.808C367.749 177.767 367.71 177.709 367.692 177.644C367.675 177.579 367.68 177.511 367.706 177.449C368.041 176.738 375.847 160.038 384.887 156.965C384.931 156.944 384.979 156.933 385.028 156.933C385.077 156.933 385.126 156.944 385.169 156.965C385.212 156.991 385.246 157.028 385.269 157.072C385.293 157.115 385.304 157.164 385.302 157.213C385.214 166.629 380.116 169.856 374.215 173.588C372.121 174.857 370.11 176.249 368.191 177.757C368.167 177.788 368.136 177.813 368.101 177.833C368.066 177.852 368.028 177.864 367.988 177.868ZM384.676 157.684C377.408 160.517 370.793 172.664 368.844 176.516C370.528 175.249 372.231 174.179 373.88 173.092C379.542 169.556 384.446 166.458 384.676 157.684Z" fill="#EBEBEB"/>
<path d="M137.592 166.646C129.204 166.073 125.579 167.023 121.954 159.704C118.329 152.385 105.681 148.456 101.571 154.842C97.461 161.228 95.9793 165.662 86.4713 161.878C76.9633 158.095 73.8322 160.842 72.4563 165.884C71.0804 170.926 49.3303 168.495 55.6983 175.703H136.26C136.26 175.703 146.015 167.22 137.592 166.646Z" fill="#F5F5F5"/>
<path d="M387.022 127.544C382.276 127.219 380.23 127.758 378.202 123.615C376.173 119.472 368.994 117.246 366.665 120.859C364.337 124.471 363.508 126.988 358.127 124.839C352.747 122.69 350.974 124.257 350.189 127.107C349.404 129.958 337.1 128.588 340.708 132.663H386.316C386.316 132.663 391.767 127.835 387.022 127.544Z" fill="#F5F5F5"/>
<path d="M330.239 27.1523C327.884 23.4372 321.154 22.2046 315.139 25.0893C309.123 27.974 313.216 9.89531 301.962 12.9256C285.892 17.2569 290.363 30.1911 283.669 29.0098C276.975 27.8285 257.341 30.9957 267.722 37.4585H327.125C327.125 37.4585 332.585 30.8587 330.239 27.1523Z" fill="#F5F5F5"/>
<path d="M220.5 365.991C314.947 365.991 391.511 361.653 391.511 356.301C391.511 350.95 314.947 346.612 220.5 346.612C126.053 346.612 49.489 350.95 49.489 356.301C49.489 361.653 126.053 365.991 220.5 365.991Z" fill="#F5F5F5"/>
<path d="M73.3735 0H71.8477V107.445H73.3735V0Z" fill="#92E3A9"/>
<path d="M163.002 0H161.477V107.445H163.002V0Z" fill="#92E3A9"/>
<path d="M180.351 67.4443H54.5076V95.2301H180.351V67.4443Z" fill="#92E3A9"/>
<path opacity="0.3" d="M180.351 67.4443H54.5076V95.2301H180.351V67.4443Z" fill="white"/>
<path d="M69.9337 79.2399L66.8202 76.2183H62.5073L66.2558 79.8563H58.697V82.818H66.2646L62.5073 86.456H66.8202L69.9337 83.4258L72.0858 81.3286L69.9337 79.2399Z" fill="white"/>
<path opacity="0.7" d="M173.137 77.2798H127.899V85.3947H173.137V77.2798Z" fill="#92E3A9"/>
<path opacity="0.7" d="M121.063 77.2798H101.686V85.3947H121.063V77.2798Z" fill="#92E3A9"/>
<path d="M94.568 73.0596H77.5013V89.6232H94.568V73.0596Z" fill="white"/>
<path d="M92.6099 77.2798H92.0102C91.6596 77.3054 91.3178 77.3985 91.0047 77.5537L88.3587 78.8377L83.4018 78.0331C82.9822 77.9813 82.556 78.0497 82.1759 78.2299L81.6996 78.4439L84.9365 80.6439L81.9289 82.0135L79.9356 81.4571L79.0536 81.8679L81.3821 83.5799L86.3036 81.3201L89.0819 79.9847L91.8779 78.6836C92.0838 78.5841 92.2763 78.4605 92.4512 78.3155C92.6119 78.1852 92.7516 78.0323 92.8657 77.8619C92.9107 77.8121 92.9402 77.7511 92.951 77.6858C92.9617 77.6205 92.9533 77.5536 92.9265 77.4927C92.8998 77.4319 92.8559 77.3796 92.7999 77.3419C92.7439 77.3043 92.678 77.2827 92.6099 77.2798Z" fill="#263238"/>
<path d="M93.3949 86.2505H78.6655V87.6372H93.3949V86.2505Z" fill="#263238"/>
<path d="M180.351 103.49H54.5076V131.276H180.351V103.49Z" fill="#92E3A9"/>
<path opacity="0.3" d="M180.351 103.49H54.5076V131.276H180.351V103.49Z" fill="white"/>
<path d="M60.8491 115.286L63.9714 112.264H68.2844L64.527 115.902H72.0858V118.856H64.527L68.2844 122.502H63.9714L60.8491 119.472L58.697 117.375L60.8491 115.286Z" fill="white"/>
<path opacity="0.7" d="M173.137 113.326H127.899V121.441H173.137V113.326Z" fill="#92E3A9"/>
<path opacity="0.7" d="M121.063 113.326H101.686V121.441H121.063V113.326Z" fill="#92E3A9"/>
<path d="M94.568 109.097H77.5013V125.661H94.568V109.097Z" fill="white"/>
<path d="M92.6099 113.326H92.0102C91.6602 113.349 91.3184 113.439 91.0047 113.591L88.3587 114.875L83.4018 114.079C82.9831 114.029 82.5581 114.094 82.1759 114.268L81.6996 114.49L84.9365 116.681L81.9289 118.06L79.9356 117.503L79.0536 117.914L81.3821 119.626L86.286 117.341L89.0908 116.031L91.9043 114.704C92.1124 114.605 92.3053 114.478 92.4776 114.327C92.6363 114.195 92.7757 114.042 92.8922 113.874C92.9283 113.822 92.9496 113.762 92.9539 113.7C92.9582 113.638 92.9453 113.575 92.9165 113.52C92.8878 113.464 92.8442 113.416 92.7903 113.382C92.7364 113.348 92.6742 113.329 92.6099 113.326Z" fill="#263238"/>
<path d="M93.3949 122.288H78.6655V123.675H93.3949V122.288Z" fill="#263238"/>
<path d="M288.449 94.6137L281.279 90.4536L285.451 89.6575L296.564 91.7975L288.449 94.6137Z" fill="#92E3A9"/>
<path opacity="0.3" d="M288.449 94.6137L281.279 90.4536L285.451 89.6575L296.564 91.7975L288.449 94.6137Z" fill="#263238"/>
<path d="M338.053 81.8594L329.33 71.2279L332.558 70.6201C335.176 70.1242 337.886 70.3709 340.364 71.3306L357.21 77.8961L338.053 81.8594Z" fill="#92E3A9"/>
<path opacity="0.3" d="M338.053 81.8594L329.33 71.2279L332.558 70.6201C335.176 70.1242 337.886 70.3709 340.364 71.3306L357.21 77.8961L338.053 81.8594Z" fill="#263238"/>
<path d="M383.794 74.2411L381.2 73.6162C378.689 72.9749 376.058 72.9133 373.518 73.4364L288.097 92.2684L287.294 95.838L290.628 98.1492L377.064 81.7225C379.896 81.1844 382.534 79.9394 384.72 78.1102C385.055 77.8511 385.307 77.5053 385.448 77.1127C385.589 76.7201 385.612 76.2968 385.515 75.8919C385.418 75.487 385.205 75.1171 384.9 74.8249C384.596 74.5327 384.212 74.3303 383.794 74.2411Z" fill="#92E3A9"/>
<path d="M331.558 100.25L294.159 107.965L294.256 108.409L331.655 100.694L331.558 100.25Z" fill="#92E3A9"/>
<path d="M326.72 76.9276L302.348 81.9553L302.446 82.3991L326.818 77.3714L326.72 76.9276Z" fill="#92E3A9"/>
<path d="M287.174 109.412L277.157 111.478L277.255 111.922L287.271 109.856L287.174 109.412Z" fill="#92E3A9"/>
<path opacity="0.3" d="M374.903 80.2501L290.487 97.7039C290.097 97.7777 289.724 97.9167 289.384 98.1148C289.798 98.1687 290.219 98.1542 290.628 98.072L377.064 81.6539C378.475 81.3833 379.845 80.9373 381.139 80.3271L381.456 80.1816C379.289 79.7783 377.061 79.8016 374.903 80.2501Z" fill="#263238"/>
<path d="M287.294 95.7693L285.124 104.663L289.296 103.867L296.89 94.2456L287.294 95.7693Z" fill="#92E3A9"/>
<path d="M288.097 92.1998L283.034 83.306L286.923 82.5613L298.151 90.291L288.097 92.1998Z" fill="#92E3A9"/>
<path d="M338.812 85.6001L337.409 111.28C339.387 110.905 341.257 110.114 342.887 108.964C344.517 107.813 345.869 106.331 346.847 104.62L360.033 81.5854L338.812 85.6001Z" fill="#92E3A9"/>
<g opacity="0.5">
<path d="M316.871 88.7233L315.808 88.9348L316.207 90.8215L317.27 90.61L316.871 88.7233Z" fill="white"/>
<path d="M319.018 88.3255L317.956 88.5369L318.354 90.4237L319.417 90.2123L319.018 88.3255Z" fill="white"/>
<path d="M321.17 87.8978L320.108 88.1091L320.506 89.9959L321.569 89.7846L321.17 87.8978Z" fill="white"/>
<path d="M323.322 87.4703L322.26 87.6816L322.658 89.5684L323.721 89.3571L323.322 87.4703Z" fill="white"/>
<path d="M325.475 87.0426L324.412 87.2539L324.81 89.1407L325.873 88.9294L325.475 87.0426Z" fill="white"/>
<path d="M327.627 86.6148L326.564 86.8262L326.962 88.713L328.025 88.5016L327.627 86.6148Z" fill="white"/>
<path d="M329.787 86.1854L328.724 86.3967L329.123 88.2835L330.186 88.0722L329.787 86.1854Z" fill="white"/>
<path d="M331.943 85.7252L330.88 85.9368L331.279 87.8235L332.341 87.612L331.943 85.7252Z" fill="white"/>
<path d="M334.091 85.3302L333.029 85.5415L333.427 87.4283L334.49 87.2169L334.091 85.3302Z" fill="white"/>
<path d="M336.242 84.8941L335.179 85.1055L335.577 86.9923L336.64 86.7809L336.242 84.8941Z" fill="white"/>
<path d="M338.402 84.4561L337.331 84.6692L337.729 86.556L338.801 86.3429L338.402 84.4561Z" fill="white"/>
<path d="M340.546 84.0386L339.483 84.25L339.881 86.1368L340.944 85.9254L340.546 84.0386Z" fill="white"/>
<path d="M342.701 83.5768L341.638 83.7883L342.037 85.6751L343.099 85.4635L342.701 83.5768Z" fill="white"/>
<path d="M344.867 83.1715L343.796 83.3845L344.194 85.2713L345.266 85.0583L344.867 83.1715Z" fill="white"/>
<path d="M347.019 82.7523L345.948 82.9653L346.346 84.8521L347.418 84.6391L347.019 82.7523Z" fill="white"/>
<path d="M349.163 82.3263L348.1 82.5376L348.498 84.4244L349.561 84.213L349.163 82.3263Z" fill="white"/>
<path d="M351.323 81.8882L350.252 82.1013L350.65 83.9881L351.722 83.775L351.323 81.8882Z" fill="white"/>
<path d="M353.475 81.4693L352.404 81.6824L352.802 83.5692L353.874 83.3561L353.475 81.4693Z" fill="white"/>
<path d="M355.619 81.0433L354.556 81.2546L354.954 83.1414L356.017 82.9301L355.619 81.0433Z" fill="white"/>
<path d="M357.781 80.5773L356.718 80.7888L357.117 82.6755L358.18 82.464L357.781 80.5773Z" fill="white"/>
<path d="M359.94 80.1844L358.869 80.3975L359.267 82.2843L360.338 82.0712L359.94 80.1844Z" fill="white"/>
<path d="M362.092 79.7586L361.03 79.97L361.428 81.8568L362.491 81.6454L362.092 79.7586Z" fill="white"/>
</g>
<path opacity="0.5" d="M383.794 74.241L381.2 73.6161C380.856 73.5305 380.504 73.4449 380.142 73.385L376.323 74.104C376.066 74.1529 375.839 74.2989 375.692 74.51C375.546 74.7211 375.492 74.98 375.542 75.2297C375.593 75.4794 375.743 75.6995 375.961 75.8416C376.178 75.9837 376.445 76.0361 376.702 75.9872L384.393 74.4721C384.206 74.3676 384.004 74.2898 383.794 74.241Z" fill="white"/>
<path d="M245.24 115.466C256.027 138.09 282.469 150.399 254.942 162.905C227.415 175.412 224.654 141.163 225.457 130.728C226.259 120.294 239.41 103.242 245.24 115.466Z" fill="#263238"/>
<path d="M265.782 147.626H265.729C265.671 147.612 265.621 147.576 265.589 147.526C265.558 147.477 265.548 147.417 265.561 147.361C266.981 140.855 262.033 136.044 256.203 130.463C251.89 126.312 246.995 121.604 244.42 115.552C243.159 112.581 241.447 111.272 239.348 111.717C233.712 112.847 227.371 125.413 227.494 132.749C227.494 132.808 227.47 132.864 227.427 132.906C227.384 132.948 227.326 132.971 227.265 132.971C227.206 132.971 227.15 132.949 227.109 132.909C227.068 132.868 227.044 132.814 227.044 132.757C226.921 125.267 233.457 112.453 239.26 111.289C240.865 110.963 243.141 111.417 244.834 115.38C247.383 121.372 252.234 126.029 256.521 130.155C262.395 135.822 267.475 140.718 265.994 147.455C265.984 147.502 265.957 147.545 265.919 147.576C265.88 147.608 265.832 147.625 265.782 147.626Z" fill="#263238"/>
<path d="M224.328 123.315C227.044 125.104 231.701 118.222 233.942 109.217C228.341 104.74 224.936 105.434 222.696 109.354C220.085 113.925 221.232 121.27 224.328 123.315Z" fill="#263238"/>
<path d="M215.058 265.103C215.058 265.103 252.905 257.656 280.476 263.879C272.388 252.118 238.087 200.013 238.087 200.013L221.788 218.845L215.058 265.103Z" fill="#92E3A9"/>
<path opacity="0.2" d="M215.058 265.103C215.058 265.103 252.905 257.656 280.476 263.879C272.388 252.118 238.087 200.013 238.087 200.013L221.788 218.845L215.058 265.103Z" fill="black"/>
<path d="M226.842 151.795C226.251 154.311 225.589 156.588 224.839 158.951C224.09 161.313 223.269 163.616 222.352 165.927C221.435 168.238 220.438 170.541 219.265 172.835C218.082 175.226 216.695 177.516 215.12 179.683C214.917 179.966 214.696 180.257 214.458 180.539C214.22 180.822 214.044 181.078 213.673 181.481C213.361 181.843 213.025 182.186 212.668 182.508C212.348 182.81 212.013 183.096 211.662 183.364C210.436 184.308 209.112 185.125 207.711 185.804C205.272 186.986 202.719 187.935 200.091 188.637C197.619 189.311 195.11 189.848 192.576 190.246C190.069 190.672 187.54 190.958 185 191.102L183.818 185.162C188.228 183.527 192.638 181.857 196.73 179.94C198.674 179.061 200.547 178.039 202.331 176.884C203.047 176.408 203.715 175.866 204.324 175.266C204.44 175.158 204.546 175.041 204.642 174.915C204.727 174.826 204.798 174.725 204.853 174.616L205.153 174.153C205.277 173.974 205.4 173.768 205.524 173.563C206.554 171.766 207.464 169.908 208.249 167.999C209.078 165.996 209.872 163.916 210.595 161.801C211.318 159.687 212.024 157.521 212.694 155.364C213.365 153.207 214.017 150.964 214.617 148.91L226.842 151.795Z" fill="#92E3A9"/>
<path d="M185.22 185.992L178.102 186.351L182.133 193.456C182.133 193.456 186.693 191.881 187.804 187.541L185.22 185.992Z" fill="#FFC3BD"/>
<path d="M172.846 190.88L178.605 195.279L182.133 193.439L178.093 186.351L172.846 190.88Z" fill="#FFC3BD"/>
<path d="M244.076 349.839L236.094 350.566L234.453 332.753L242.427 332.025L244.076 349.839Z" fill="#FFC3BD"/>
<path d="M306.574 323.5L300.78 328.781L288.273 315.436L294.068 310.163L306.574 323.5Z" fill="#FFC3BD"/>
<path d="M299.192 327.403L303.549 319.793C303.622 319.662 303.742 319.561 303.887 319.509C304.031 319.457 304.19 319.457 304.334 319.511L311.037 321.985C311.203 322.054 311.351 322.155 311.474 322.284C311.596 322.412 311.689 322.564 311.747 322.729C311.806 322.894 311.827 323.07 311.811 323.244C311.795 323.418 311.742 323.587 311.655 323.739C310.085 326.367 309.194 327.566 307.245 330.913C306.072 332.967 303.778 337.692 302.147 340.534C300.515 343.376 297.543 341.972 297.957 340.645C299.818 334.705 299.465 331.392 298.936 328.773C298.858 328.301 298.949 327.818 299.192 327.403Z" fill="#263238"/>
<path d="M235.035 348.255H244.508C244.679 348.257 244.845 348.313 244.981 348.415C245.116 348.517 245.213 348.659 245.258 348.82L247.313 356.096C247.364 356.268 247.373 356.449 247.339 356.625C247.304 356.801 247.228 356.966 247.115 357.108C247.003 357.25 246.857 357.364 246.691 357.441C246.524 357.518 246.342 357.556 246.157 357.551C242.823 357.551 241.245 357.551 237.073 357.551H224.345C220.888 357.551 220.165 354.127 221.594 353.845C228.015 352.467 231.719 350.566 233.695 348.752C234.061 348.428 234.54 348.251 235.035 348.255Z" fill="#263238"/>
<path opacity="0.2" d="M234.453 332.762L235.3 341.938H243.344L242.435 332.025L234.453 332.762Z" fill="black"/>
<path opacity="0.2" d="M294.076 310.163L288.282 315.445L294.729 322.318L300.524 317.037L294.076 310.163Z" fill="black"/>
<path d="M214.449 152.094C214.979 157.915 216.972 169.462 222.934 192.326L255.242 189.613C253.69 177.86 252.958 170.25 255.974 148.071C256.078 147.318 256.022 146.552 255.808 145.821C255.595 145.09 255.228 144.409 254.732 143.821C254.235 143.234 253.62 142.751 252.923 142.404C252.226 142.058 251.463 141.854 250.682 141.805C248.389 141.685 245.672 141.608 242.947 141.711C238.025 141.787 233.114 142.201 228.253 142.952C225.325 143.466 222.185 144.202 219.671 144.852C218.059 145.266 216.651 146.221 215.695 147.546C214.739 148.872 214.298 150.483 214.449 152.094Z" fill="#263238"/>
<path d="M240.036 125.832C239.516 130.489 239.348 138.963 242.92 141.737C242.92 141.737 243.203 146.547 233.13 148.122C226.074 147.54 228.253 142.986 228.253 142.986C233.404 141.326 232.927 137.551 231.693 134.067L240.036 125.832Z" fill="#FFC3BD"/>
<path opacity="0.2" d="M236.641 129.179L231.701 134.041C231.996 134.853 232.224 135.686 232.381 136.532C234.365 136.079 237.24 134.076 237.267 132.021C237.232 131.045 237.02 130.083 236.641 129.179Z" fill="black"/>
<path d="M244.261 118.548C242.259 125.995 241.571 129.179 236.87 132.303C229.814 136.994 220.818 132.98 220.491 125.104C220.191 118.017 223.516 107.043 231.719 105.494C233.526 105.142 235.396 105.245 237.151 105.793C238.905 106.341 240.486 107.316 241.743 108.624C243 109.932 243.891 111.531 244.332 113.268C244.773 115.005 244.748 116.822 244.261 118.548Z" fill="#FFC3BD"/>
<path d="M227.485 104.903C224.231 108.07 231.013 116.091 242.321 123.17C251.061 118.034 248.062 111.186 244.085 107.248C240.107 103.311 231.216 101.265 227.485 104.903Z" fill="#263238"/>
<path d="M230.537 113.146C230.507 113.146 230.478 113.139 230.45 113.128C230.423 113.116 230.399 113.099 230.378 113.078C226.78 109.594 225.377 106.949 226.206 105.22C227.432 102.652 232.971 103.139 233.201 103.157C233.253 103.167 233.3 103.194 233.333 103.234C233.367 103.274 233.385 103.323 233.385 103.375C233.385 103.426 233.367 103.476 233.333 103.516C233.3 103.556 233.253 103.583 233.201 103.593C233.139 103.593 227.741 103.139 226.647 105.408C225.915 106.932 227.327 109.474 230.731 112.769C230.752 112.789 230.769 112.813 230.781 112.84C230.793 112.866 230.799 112.895 230.799 112.924C230.799 112.952 230.793 112.981 230.781 113.007C230.769 113.034 230.752 113.058 230.731 113.078C230.706 113.102 230.676 113.122 230.642 113.133C230.609 113.145 230.573 113.15 230.537 113.146Z" fill="#263238"/>
<path d="M244.896 125.267C244.179 126.581 242.955 127.566 241.492 128.006C239.542 128.58 238.528 126.902 239.04 125.096C239.498 123.478 241.059 121.227 243.026 121.449C243.449 121.516 243.849 121.681 244.192 121.93C244.535 122.18 244.81 122.506 244.994 122.882C245.178 123.258 245.265 123.671 245.248 124.086C245.231 124.502 245.11 124.907 244.896 125.267Z" fill="#FFC3BD"/>
<path d="M222.934 192.352C222.934 192.352 213.603 239.244 220.897 272.328C225.792 294.464 232.054 339.284 232.054 339.284L245.831 338.933C245.831 338.933 242.25 291.965 239.489 273.492C234.771 241.889 246.59 190.366 246.59 190.366L222.934 192.352Z" fill="#263238"/>
<path opacity="0.2" d="M235.538 201.828L242.426 212.374C240.351 224.88 239.034 237.493 238.484 250.149C228.8 233.312 233.386 210.739 235.538 201.828Z" fill="black"/>
<path d="M230.837 339.798L247.075 339.755L247.022 334.482L229.832 334.26L230.837 339.798Z" fill="#92E3A9"/>
<path d="M229.999 191.855C229.999 191.855 236.411 241.615 250.285 268.784C261.513 290.732 291.466 321.976 291.466 321.976L299.13 314.315C299.13 314.315 278.888 280.366 270.545 265.788C250.091 230.041 266.805 202.761 255.216 189.604L229.999 191.855Z" fill="#263238"/>
<path d="M290.716 322.995L300.603 313.647L297.322 309.316L286.844 319.468L290.716 322.995Z" fill="#92E3A9"/>
<path d="M255.56 187.755L257.271 190.443C257.403 190.648 257.156 190.897 256.777 190.931L222.899 193.773C222.608 193.773 222.352 193.679 222.317 193.499L221.779 190.717C221.779 190.529 221.982 190.34 222.299 190.315L255.013 187.567C255.113 187.552 255.215 187.562 255.31 187.595C255.406 187.628 255.491 187.683 255.56 187.755Z" fill="white"/>
<path d="M251.485 191.676L252.367 191.607C252.543 191.607 252.667 191.487 252.649 191.385L251.908 187.772C251.908 187.669 251.732 187.592 251.555 187.61L250.673 187.678C250.506 187.678 250.373 187.798 250.4 187.901L251.132 191.513C251.149 191.616 251.308 191.693 251.485 191.676Z" fill="#263238"/>
<path d="M225.386 193.867L226.268 193.798C226.436 193.798 226.568 193.679 226.542 193.576L225.81 189.964C225.81 189.861 225.624 189.784 225.448 189.801L224.566 189.869C224.39 189.869 224.266 189.981 224.284 190.092L225.025 193.704C225.051 193.807 225.219 193.884 225.386 193.867Z" fill="#263238"/>
<path d="M238.44 192.771L239.322 192.703C239.498 192.703 239.622 192.583 239.595 192.48L238.863 188.868C238.863 188.765 238.678 188.688 238.51 188.705L237.628 188.774C237.452 188.774 237.329 188.894 237.355 188.996L238.087 192.609C238.14 192.711 238.263 192.788 238.44 192.771Z" fill="#263238"/>
<path d="M231.278 118.299C231.155 118.907 230.722 119.344 230.308 119.267C229.893 119.19 229.664 118.625 229.787 118.008C229.911 117.392 230.343 116.964 230.758 117.041C231.172 117.118 231.401 117.683 231.278 118.299Z" fill="#263238"/>
<path d="M224.143 116.93C224.01 117.546 223.578 117.982 223.164 117.897C222.749 117.811 222.52 117.263 222.643 116.647C222.767 116.031 223.199 115.603 223.613 115.68C224.028 115.757 224.266 116.322 224.143 116.93Z" fill="#263238"/>
<path d="M223.79 115.748L222.361 115.038C222.361 115.038 222.908 116.33 223.79 115.748Z" fill="#263238"/>
<path d="M226.595 118.462C225.751 119.754 224.727 120.926 223.552 121.946C223.827 122.234 224.163 122.46 224.538 122.608C224.913 122.756 225.317 122.822 225.721 122.802L226.595 118.462Z" fill="#ED847E"/>
<path d="M228.641 125.712C229.973 125.733 231.262 125.255 232.239 124.377C232.26 124.347 232.27 124.312 232.266 124.276C232.263 124.24 232.246 124.207 232.22 124.182C232.194 124.156 232.16 124.141 232.123 124.137C232.086 124.134 232.05 124.143 232.019 124.163C231.414 124.681 230.691 125.054 229.909 125.25C229.128 125.447 228.309 125.461 227.521 125.293C227.48 125.285 227.438 125.294 227.403 125.316C227.368 125.339 227.344 125.373 227.336 125.413C227.33 125.433 227.33 125.453 227.333 125.473C227.337 125.493 227.344 125.512 227.356 125.529C227.368 125.546 227.383 125.561 227.401 125.572C227.418 125.582 227.438 125.59 227.459 125.593C227.848 125.673 228.244 125.713 228.641 125.712Z" fill="#263238"/>
<path d="M235.573 115.92C235.626 115.931 235.68 115.931 235.732 115.92C235.803 115.877 235.854 115.809 235.873 115.731C235.893 115.652 235.88 115.57 235.838 115.5C235.547 115.001 235.136 114.577 234.64 114.266C234.144 113.954 233.577 113.764 232.989 113.711C232.949 113.71 232.908 113.717 232.87 113.731C232.832 113.745 232.798 113.766 232.768 113.793C232.739 113.82 232.715 113.852 232.698 113.888C232.682 113.924 232.673 113.963 232.672 114.002C232.669 114.042 232.675 114.082 232.689 114.12C232.703 114.158 232.724 114.193 232.752 114.222C232.78 114.252 232.814 114.275 232.852 114.292C232.889 114.309 232.93 114.318 232.971 114.319C233.454 114.371 233.918 114.534 234.323 114.794C234.728 115.055 235.063 115.405 235.3 115.817C235.334 115.853 235.377 115.882 235.424 115.9C235.472 115.918 235.523 115.924 235.573 115.92Z" fill="#263238"/>
<path d="M222.158 113.463C222.211 113.462 222.263 113.447 222.308 113.42C222.725 113.179 223.196 113.038 223.68 113.008C224.165 112.978 224.65 113.061 225.095 113.249C225.169 113.285 225.255 113.292 225.334 113.268C225.413 113.244 225.479 113.191 225.519 113.121C225.538 113.085 225.551 113.045 225.555 113.005C225.559 112.964 225.555 112.923 225.543 112.884C225.53 112.845 225.51 112.809 225.483 112.777C225.456 112.746 225.423 112.72 225.386 112.701C224.847 112.469 224.258 112.365 223.669 112.398C223.08 112.431 222.508 112.599 221.999 112.889C221.927 112.931 221.874 112.998 221.853 113.076C221.832 113.155 221.843 113.238 221.885 113.309C221.912 113.356 221.951 113.395 222 113.423C222.048 113.45 222.102 113.464 222.158 113.463Z" fill="#263238"/>
<path d="M242.427 140.863C241.474 148.084 241.071 155.362 241.218 162.64C241.298 171.551 238.96 211.432 251.511 258.204C271.577 258.315 280.467 263.922 280.467 263.922C280.467 263.922 261.01 187.738 258.549 148.362C258.434 146.466 257.607 144.676 256.224 143.332C254.84 141.988 252.997 141.183 251.044 141.069C247.057 140.735 242.427 140.863 242.427 140.863Z" fill="#92E3A9"/>
<path d="M262.712 205.782C262.659 205.781 262.608 205.767 262.563 205.74C256.918 202.478 251.149 193.319 250.911 192.9C250.89 192.867 250.876 192.831 250.87 192.793C250.863 192.755 250.864 192.716 250.874 192.679C250.883 192.642 250.899 192.606 250.922 192.575C250.945 192.544 250.975 192.517 251.008 192.497C251.077 192.456 251.161 192.442 251.24 192.46C251.319 192.478 251.388 192.525 251.432 192.592C251.493 192.686 257.368 202.008 262.898 205.2C262.933 205.22 262.965 205.246 262.989 205.278C263.014 205.309 263.032 205.345 263.042 205.384C263.052 205.422 263.054 205.462 263.047 205.501C263.04 205.54 263.026 205.578 263.004 205.611C262.979 205.665 262.937 205.71 262.885 205.741C262.833 205.771 262.773 205.786 262.712 205.782Z" fill="white"/>
<path opacity="0.2" d="M259.652 160.115L253.134 154.568C253.134 154.568 255.983 166.552 261.734 175.198C260.922 169.968 260.19 164.9 259.652 160.115Z" fill="black"/>
<path d="M227.265 142.379C227.265 142.379 226.542 150.63 226.542 171.851C226.542 192.326 229.188 221.815 225.139 258.957C221.198 259.93 217.672 262.08 215.058 265.103C215.058 265.103 220.474 197.685 214.247 152C214.049 150.08 214.61 148.159 215.817 146.625C217.024 145.091 218.786 144.06 220.747 143.74C224.663 143.029 227.265 142.379 227.265 142.379Z" fill="#92E3A9"/>
<path d="M288.248 203.558L268.812 208.468L270.61 215.17L290.045 210.26L288.248 203.558Z" fill="#92E3A9"/>
<path opacity="0.8" d="M289.385 207.805L269.95 212.715L270.274 213.924L289.71 209.014L289.385 207.805Z" fill="white"/>
<path d="M287.398 202.584L270.719 205.972L272.439 213.948L289.118 210.561L287.398 202.584Z" fill="#263238"/>
<path d="M272.908 201.032L271.532 207.828L278.139 206.21C278.139 206.21 278.58 201.537 275.872 199.688L272.908 201.032Z" fill="#FFC3BD"/>
<path d="M273.208 211.364L279.85 210.739L278.139 206.21L271.532 207.828L273.208 211.364Z" fill="#FFC3BD"/>
<path d="M256.124 143.243C258.056 145.186 259.775 147.095 261.522 149.098C263.268 151.101 264.926 153.121 266.523 155.244C268.119 157.367 269.707 159.524 271.18 161.853C271.912 163.025 272.644 164.189 273.314 165.473L273.817 166.424L274.302 167.434L274.778 168.461C274.937 168.795 275.105 169.231 275.255 169.608C275.772 171.018 276.185 172.463 276.489 173.931C276.78 175.309 277.01 176.653 277.204 177.98C277.583 180.633 277.804 183.244 277.962 185.846C278.258 191.011 278.222 196.188 277.856 201.348L271.63 201.674C270.624 196.786 269.68 191.838 268.631 187.028C268.11 184.614 267.555 182.234 266.928 179.94C266.629 178.793 266.293 177.671 265.932 176.601C265.607 175.62 265.227 174.657 264.794 173.717C264.679 173.52 264.618 173.366 264.476 173.135L264.08 172.467L263.674 171.799L263.206 171.106C262.607 170.19 261.901 169.24 261.222 168.298C259.82 166.415 258.258 164.54 256.697 162.657C253.557 158.934 250.162 155.176 246.916 151.529L256.124 143.243Z" fill="#92E3A9"/>
<path d="M297.666 331.503C297.771 331.503 297.876 331.485 297.975 331.452C298.919 331.135 299.545 329.44 299.827 328.447C299.836 328.419 299.836 328.39 299.827 328.362C299.817 328.334 299.799 328.31 299.774 328.293C299.749 328.277 299.72 328.268 299.69 328.268C299.66 328.268 299.631 328.277 299.607 328.293C299.315 328.439 296.784 329.748 296.705 330.724C296.695 330.829 296.715 330.934 296.762 331.029C296.808 331.123 296.88 331.205 296.969 331.263C297.168 331.416 297.413 331.5 297.666 331.503ZM299.43 328.721C298.989 330.082 298.425 330.981 297.887 331.161C297.763 331.198 297.632 331.202 297.507 331.174C297.381 331.145 297.266 331.085 297.172 330.998C297.126 330.97 297.088 330.931 297.061 330.885C297.035 330.838 297.022 330.786 297.022 330.733C297.066 330.134 298.548 329.201 299.421 328.704L299.43 328.721Z" fill="#92E3A9"/>
<path d="M297.278 329.106C298.137 329.101 298.984 328.908 299.757 328.541C299.782 328.528 299.803 328.508 299.817 328.484C299.831 328.46 299.838 328.432 299.836 328.404C299.834 328.378 299.826 328.353 299.812 328.331C299.799 328.308 299.779 328.29 299.757 328.276C299.668 328.233 297.666 327.163 296.59 327.531C296.456 327.574 296.333 327.645 296.23 327.74C296.128 327.835 296.049 327.951 295.999 328.079C295.928 328.201 295.904 328.343 295.93 328.48C295.955 328.618 296.03 328.743 296.14 328.832C296.478 329.043 296.878 329.139 297.278 329.106ZM299.333 328.404C298.451 328.764 296.811 328.978 296.343 328.593C296.264 328.533 296.184 328.43 296.29 328.19C296.323 328.104 296.376 328.026 296.445 327.962C296.514 327.898 296.597 327.85 296.687 327.822C297.428 327.566 298.76 328.139 299.333 328.404Z" fill="#92E3A9"/>
<path d="M230.837 349.745C231.707 349.725 232.573 349.618 233.421 349.428C233.454 349.42 233.483 349.402 233.505 349.378C233.527 349.353 233.541 349.323 233.545 349.291C233.549 349.259 233.543 349.227 233.527 349.2C233.511 349.172 233.487 349.15 233.457 349.137C233.068 348.957 229.629 347.425 228.764 347.99C228.686 348.041 228.623 348.111 228.582 348.194C228.542 348.277 228.526 348.369 228.535 348.461C228.543 348.628 228.589 348.792 228.669 348.94C228.75 349.088 228.864 349.217 229.002 349.317C229.554 349.639 230.195 349.788 230.837 349.745ZM232.848 349.248C231.825 349.437 229.937 349.676 229.161 349.103C229.06 349.027 228.977 348.932 228.918 348.823C228.858 348.713 228.824 348.593 228.817 348.469C228.81 348.43 228.815 348.39 228.83 348.354C228.846 348.317 228.872 348.286 228.905 348.264C229.426 347.921 231.454 348.615 232.848 349.248Z" fill="#92E3A9"/>
<path d="M233.386 349.428C233.42 349.439 233.458 349.439 233.492 349.428C233.507 349.405 233.515 349.378 233.515 349.351C233.515 349.324 233.507 349.297 233.492 349.274C233.492 349.137 232.68 345.85 230.846 346.055C230.378 346.115 230.246 346.338 230.228 346.517C230.105 347.373 232.275 349.085 233.307 349.453L233.386 349.428ZM231.031 346.32C232.222 346.32 232.919 348.229 233.148 349C232.028 348.426 230.502 347.057 230.555 346.526C230.555 346.483 230.555 346.363 230.899 346.329L231.031 346.32Z" fill="#92E3A9"/>
<path d="M230.934 117.109L229.505 116.399C229.505 116.399 230.043 117.7 230.934 117.109Z" fill="#263238"/>
<path d="M244.781 140.658L242.329 140.718C242.262 140.719 242.197 140.742 242.146 140.784C242.094 140.827 242.059 140.885 242.047 140.949C241.738 142.447 240.089 151.461 241.165 167.656C242.215 162.931 244.781 152.933 245.866 150.75C244.931 150.065 243.432 148.944 243.432 148.944L246.184 147.232L245.081 140.94C245.083 140.902 245.076 140.864 245.061 140.829C245.046 140.793 245.024 140.761 244.996 140.735C244.968 140.708 244.934 140.688 244.897 140.674C244.86 140.661 244.821 140.656 244.781 140.658Z" fill="#92E3A9"/>
<path opacity="0.2" d="M244.781 140.658L242.329 140.718C242.262 140.719 242.197 140.742 242.146 140.784C242.094 140.827 242.059 140.885 242.047 140.949C241.738 142.447 240.089 151.461 241.165 167.656C242.215 162.931 244.781 152.933 245.866 150.75C244.931 150.065 243.432 148.944 243.432 148.944L246.184 147.232L245.081 140.94C245.083 140.902 245.076 140.864 245.061 140.829C245.046 140.793 245.024 140.761 244.996 140.735C244.968 140.708 244.934 140.688 244.897 140.674C244.86 140.661 244.821 140.656 244.781 140.658Z" fill="white"/>
<path d="M224.575 142.627L227.477 142.139C227.477 142.139 227.732 150.185 226.55 167.99C225.501 163.265 223.322 153.481 223.199 150.75C224.134 150.065 225.633 148.901 225.633 148.901L222.881 147.189L224.575 142.627Z" fill="#92E3A9"/>
<path opacity="0.2" d="M224.575 142.627L227.477 142.139C227.477 142.139 227.732 150.185 226.55 167.99C225.501 163.265 223.322 153.481 223.199 150.75C224.134 150.065 225.633 148.901 225.633 148.901L222.881 147.189L224.575 142.627Z" fill="white"/>
<path d="M187.116 252.974H153.856C145.838 252.974 139.338 259.282 139.338 267.064V335.047C139.338 342.829 145.838 349.137 153.856 349.137H187.116C195.134 349.137 201.634 342.829 201.634 335.047V267.064C201.634 259.282 195.134 252.974 187.116 252.974Z" fill="#263238"/>
<path d="M174.874 190.554C177.054 190.556 179.143 191.398 180.684 192.893C182.225 194.389 183.092 196.417 183.094 198.532V290.424C183.092 292.539 182.225 294.567 180.684 296.062C179.143 297.558 177.054 298.399 174.874 298.402H166.107C163.928 298.399 161.838 297.558 160.297 296.062C158.756 294.567 157.889 292.539 157.887 290.424V198.532C157.889 196.417 158.756 194.389 160.297 192.893C161.838 191.398 163.928 190.556 166.107 190.554H174.874ZM174.874 189.022H166.107C163.51 189.029 161.022 190.033 159.186 191.815C157.35 193.597 156.315 196.012 156.308 198.532V290.424C156.315 292.944 157.35 295.359 159.186 297.141C161.022 298.923 163.51 299.927 166.107 299.934H174.874C177.471 299.927 179.959 298.923 181.795 297.141C183.631 295.359 184.666 292.944 184.673 290.424V198.532C184.666 196.012 183.631 193.597 181.795 191.815C179.959 190.033 177.471 189.029 174.874 189.022Z" fill="#263238"/>
<path d="M189.436 353.811C191.477 353.811 193.132 352.205 193.132 350.224C193.132 348.243 191.477 346.637 189.436 346.637C187.395 346.637 185.74 348.243 185.74 350.224C185.74 352.205 187.395 353.811 189.436 353.811Z" fill="#263238"/>
<path d="M180.131 350.224C180.141 350.936 179.934 351.635 179.534 352.232C179.135 352.83 178.561 353.298 177.887 353.579C177.213 353.86 176.468 353.94 175.746 353.809C175.025 353.678 174.36 353.343 173.836 352.845C173.311 352.346 172.951 351.708 172.801 351.011C172.651 350.314 172.717 349.59 172.992 348.929C173.266 348.269 173.737 347.703 174.344 347.302C174.951 346.902 175.666 346.685 176.4 346.68C177.378 346.673 178.319 347.042 179.018 347.706C179.717 348.37 180.117 349.275 180.131 350.224Z" fill="#263238"/>
<path d="M158.857 350.224C158.857 350.933 158.64 351.627 158.234 352.217C157.828 352.807 157.251 353.266 156.576 353.538C155.9 353.809 155.157 353.88 154.44 353.742C153.724 353.603 153.065 353.262 152.548 352.76C152.031 352.259 151.679 351.62 151.537 350.924C151.394 350.228 151.467 349.507 151.747 348.852C152.027 348.196 152.501 347.636 153.108 347.242C153.716 346.848 154.43 346.637 155.161 346.637C156.141 346.64 157.079 347.018 157.772 347.69C158.465 348.363 158.855 349.274 158.857 350.224Z" fill="#263238"/>
<path d="M142.152 353.811C144.193 353.811 145.847 352.205 145.847 350.224C145.847 348.243 144.193 346.637 142.152 346.637C140.111 346.637 138.456 348.243 138.456 350.224C138.456 352.205 140.111 353.811 142.152 353.811Z" fill="#263238"/>
<path d="M177.732 252.974H144.472C136.454 252.974 129.954 259.282 129.954 267.064V335.047C129.954 342.829 136.454 349.137 144.472 349.137H177.732C185.75 349.137 192.25 342.829 192.25 335.047V267.064C192.25 259.282 185.75 252.974 177.732 252.974Z" fill="#92E3A9"/>
<path opacity="0.2" d="M177.732 252.974H144.472C136.454 252.974 129.954 259.282 129.954 267.064V335.047C129.954 342.829 136.454 349.137 144.472 349.137H177.732C185.75 349.137 192.25 342.829 192.25 335.047V267.064C192.25 259.282 185.75 252.974 177.732 252.974Z" fill="white"/>
<path d="M171.17 261.927H144.101C137.579 261.927 132.291 267.059 132.291 273.389V328.713C132.291 335.043 137.579 340.174 144.101 340.174H171.17C177.692 340.174 182.98 335.043 182.98 328.713V273.389C182.98 267.059 177.692 261.927 171.17 261.927Z" fill="#92E3A9"/>
<path d="M140.882 334.516C139.989 334.514 139.133 334.169 138.502 333.556C137.871 332.943 137.515 332.113 137.513 331.246V270.864C137.489 270.421 137.559 269.978 137.717 269.562C137.876 269.146 138.12 268.766 138.435 268.445C138.75 268.123 139.128 267.867 139.548 267.692C139.968 267.517 140.42 267.427 140.877 267.427C141.334 267.427 141.787 267.517 142.206 267.692C142.626 267.867 143.005 268.123 143.32 268.445C143.635 268.766 143.879 269.146 144.037 269.562C144.196 269.978 144.266 270.421 144.242 270.864V331.272C144.235 332.133 143.878 332.957 143.249 333.565C142.62 334.172 141.769 334.514 140.882 334.516ZM140.882 268.365C140.199 268.365 139.544 268.628 139.061 269.097C138.578 269.565 138.306 270.201 138.306 270.864V331.272C138.286 331.612 138.337 331.953 138.457 332.273C138.577 332.593 138.763 332.886 139.004 333.133C139.245 333.381 139.535 333.578 139.857 333.713C140.179 333.848 140.527 333.918 140.877 333.918C141.228 333.918 141.576 333.848 141.898 333.713C142.22 333.578 142.51 333.381 142.751 333.133C142.992 332.886 143.178 332.593 143.298 332.273C143.418 331.953 143.469 331.612 143.448 331.272V270.864C143.45 270.536 143.384 270.212 143.256 269.908C143.127 269.605 142.938 269.329 142.7 269.097C142.461 268.865 142.178 268.681 141.866 268.555C141.554 268.429 141.22 268.365 140.882 268.365Z" fill="white"/>
<path d="M174.513 334.516C173.618 334.523 172.757 334.185 172.119 333.577C171.481 332.969 171.117 332.14 171.108 331.272V270.864C171.108 269.997 171.463 269.165 172.095 268.552C172.727 267.939 173.584 267.594 174.477 267.594C175.371 267.594 176.228 267.939 176.86 268.552C177.492 269.165 177.847 269.997 177.847 270.864V331.272C177.837 332.128 177.483 332.947 176.86 333.553C176.237 334.16 175.395 334.505 174.513 334.516ZM174.513 268.365C173.83 268.365 173.174 268.628 172.691 269.097C172.208 269.565 171.937 270.201 171.937 270.864V331.272C171.937 331.935 172.208 332.571 172.691 333.04C173.174 333.508 173.83 333.772 174.513 333.772C175.196 333.772 175.851 333.508 176.334 333.04C176.817 332.571 177.088 331.935 177.088 331.272V270.864C177.088 270.201 176.817 269.565 176.334 269.097C175.851 268.628 175.196 268.365 174.513 268.365Z" fill="white"/>
<path d="M163.302 334.516C162.409 334.514 161.554 334.169 160.923 333.556C160.291 332.943 159.935 332.113 159.933 331.246V270.864C159.933 269.997 160.288 269.165 160.92 268.552C161.552 267.939 162.409 267.594 163.302 267.594C164.196 267.594 165.053 267.939 165.685 268.552C166.317 269.165 166.672 269.997 166.672 270.864V331.272C166.662 332.134 166.304 332.958 165.673 333.565C165.042 334.172 164.191 334.514 163.302 334.516ZM163.302 268.365C162.619 268.365 161.964 268.628 161.481 269.097C160.998 269.565 160.727 270.201 160.727 270.864V331.272C160.727 331.6 160.794 331.925 160.923 332.229C161.052 332.532 161.242 332.807 161.481 333.04C161.72 333.272 162.004 333.456 162.317 333.581C162.629 333.707 162.964 333.772 163.302 333.772C163.641 333.772 163.975 333.707 164.288 333.581C164.6 333.456 164.884 333.272 165.123 333.04C165.363 332.807 165.552 332.532 165.682 332.229C165.811 331.925 165.878 331.6 165.878 331.272V270.864C165.878 270.536 165.811 270.211 165.682 269.908C165.552 269.604 165.363 269.329 165.123 269.097C164.884 268.865 164.6 268.681 164.288 268.555C163.975 268.429 163.641 268.365 163.302 268.365Z" fill="white"/>
<path d="M152.092 334.516C151.199 334.514 150.344 334.169 149.712 333.556C149.081 332.943 148.725 332.113 148.723 331.246V270.864C148.699 270.421 148.769 269.978 148.928 269.562C149.086 269.146 149.33 268.766 149.645 268.445C149.96 268.123 150.339 267.867 150.759 267.692C151.178 267.517 151.631 267.427 152.088 267.427C152.545 267.427 152.997 267.517 153.417 267.692C153.837 267.867 154.215 268.123 154.53 268.445C154.845 268.766 155.089 269.146 155.248 269.562C155.406 269.978 155.476 270.421 155.452 270.864V331.272C155.445 332.133 155.089 332.957 154.459 333.565C153.83 334.172 152.98 334.514 152.092 334.516ZM152.092 268.365C151.409 268.365 150.754 268.628 150.271 269.097C149.788 269.565 149.517 270.201 149.517 270.864V331.272C149.496 331.612 149.547 331.953 149.667 332.273C149.787 332.593 149.973 332.886 150.214 333.133C150.455 333.381 150.745 333.578 151.067 333.713C151.39 333.848 151.737 333.918 152.088 333.918C152.439 333.918 152.786 333.848 153.108 333.713C153.43 333.578 153.72 333.381 153.961 333.133C154.202 332.886 154.388 332.593 154.508 332.273C154.628 331.953 154.679 331.612 154.659 331.272V270.864C154.66 270.536 154.594 270.212 154.466 269.908C154.337 269.605 154.148 269.329 153.91 269.097C153.672 268.865 153.388 268.681 153.076 268.555C152.764 268.429 152.43 268.365 152.092 268.365Z" fill="white"/>
</svg>
